{
 "cells": [
  {
   "attachments": {},
   "cell_type": "markdown",
   "metadata": {},
   "source": [
    "# Music generation Using Deep Learning  \n",
    "### Machine Learning course Project  \n",
    "\n",
    "This is the project or the machine learning course at UL FRI in semester 1 2022/23.\n",
    "The aim of this project is to take MIDI files and train a deep neural network to generate MIDI files of new music.\n",
    "The main paper I am taking inspiration from is \"This time with feeling: learning expressive musical performance\" by Oore et. al, published online on 2018: https://doi.org/10.1007/s00521-018-3758-9.  \n",
    "\n",
    "This has several sections.\n",
    "First there is some data exploration, then model building, then training and then generating and saving new MIDI files."
   ]
  },
  {
   "cell_type": "code",
   "execution_count": 1,
   "metadata": {},
   "outputs": [],
   "source": [
    "import numpy as np\n",
    "import pandas as pd\n",
    "import matplotlib.pyplot as plt\n",
    "import tensorflow as tf\n",
    "from tensorflow import keras\n",
    "import sys; sys.path.append(\".\")\n",
    "import os\n",
    "import mido\n",
    "import random"
   ]
  },
  {
   "cell_type": "code",
   "execution_count": 2,
   "metadata": {},
   "outputs": [],
   "source": [
    "# set random seeds for reproducability\n",
    "random.seed(0)\n",
    "np.random.seed(0)\n",
    "tf.random.set_seed(0)"
   ]
  },
  {
   "attachments": {},
   "cell_type": "markdown",
   "metadata": {},
   "source": [
    "## The Data  \n",
    "International Piano-e-Competition™ (https://piano-e-competition.com/default.asp), is a competition where played on a disklavier, which is a real piano that simultaneously records what is played as MIDI data.\n",
    "The MIDI files are made freely available online (more specifically I obtained them from this github repository https://github.com/studioph/international-e-piano-dataset).\n",
    "\n",
    "This section is about analysing, exploring and preprocessing this data to be used in subsequent sections."
   ]
  },
  {
   "cell_type": "code",
   "execution_count": 3,
   "metadata": {},
   "outputs": [
    {
     "data": {
      "text/plain": [
       "MidiFile(type=0, ticks_per_beat=480, tracks=[\n",
       "  MidiTrack([\n",
       "    MetaMessage('sequencer_specific', data=(67, 113, 0, 0, 0, 67), time=0),\n",
       "    MetaMessage('sequencer_specific', data=(67, 113, 0, 1, 0, 1, 0, 83, 111, 110, 97, 116, 97, 32, 105, 110, 32, 70, 32, 32, 32, 32, 32, 77, 46, 32, 65, 100, 105, 103, 101, 122, 97, 108, 122, 97, 100, 101, 32), time=0),\n",
       "    MetaMessage('sequencer_specific', data=(67, 123, 12, 0, 1), time=0),\n",
       "    MetaMessage('set_tempo', tempo=512820, time=0),\n",
       "    MetaMessage('time_signature', numerator=4, denominator=4, clocks_per_click=24, notated_32nd_notes_per_beat=8, time=0),\n",
       "    Message('sysex', data=(126, 127, 9, 1), time=0),\n",
       "    Message('sysex', data=(67, 16, 76, 0, 0, 126, 0), time=1),\n",
       "    Message('control_change', channel=0, control=0, value=0, time=4),\n",
       "    Message('control_change', channel=0, control=32, value=0, time=1),\n",
       "    Message('program_change', channel=0, program=0, time=1),\n",
       "    Message('control_change', channel=0, control=7, value=100, time=1),\n",
       "    Message('control_change', channel=0, control=67, value=15, time=191),\n",
       "    Message('control_change', channel=0, control=67, value=31, time=191),\n",
       "    Message('control_change', channel=0, control=67, value=45, time=191),\n",
       "    Message('control_change', channel=0, control=67, value=63, time=191),\n",
       "    Message('control_change', channel=0, control=67, value=75, time=191),\n",
       "    Message('control_change', channel=0, control=67, value=93, time=191),\n",
       "    Message('control_change', channel=0, control=67, value=105, time=191),\n",
       "    Message('control_change', channel=0, control=67, value=127, time=191),\n",
       "    Message('note_on', channel=0, note=65, velocity=58, time=382),\n",
       "    Message('note_on', channel=0, note=53, velocity=39, time=23),\n",
       "    Message('note_on', channel=0, note=57, velocity=43, time=161),\n",
       "    Message('note_on', channel=0, note=53, velocity=0, time=11),\n",
       "    Message('note_on', channel=0, note=57, velocity=0, time=98),\n",
       "    Message('note_on', channel=0, note=60, velocity=45, time=49),\n",
       "    Message('note_on', channel=0, note=57, velocity=43, time=146),\n",
       "    Message('note_on', channel=0, note=60, velocity=0, time=0),\n",
       "    Message('note_on', channel=0, note=57, velocity=0, time=133),\n",
       "    Message('note_on', channel=0, note=69, velocity=68, time=28),\n",
       "    Message('note_on', channel=0, note=60, velocity=50, time=16),\n",
       "    Message('note_on', channel=0, note=65, velocity=0, time=45),\n",
       "    Message('note_on', channel=0, note=57, velocity=58, time=69),\n",
       "    Message('note_on', channel=0, note=60, velocity=0, time=17),\n",
       "    Message('note_on', channel=0, note=57, velocity=0, time=100),\n",
       "    Message('note_on', channel=0, note=69, velocity=0, time=26),\n",
       "    Message('note_on', channel=0, note=72, velocity=68, time=32),\n",
       "    Message('note_on', channel=0, note=53, velocity=42, time=31),\n",
       "    Message('note_on', channel=0, note=53, velocity=0, time=126),\n",
       "    Message('note_on', channel=0, note=60, velocity=53, time=13),\n",
       "    Message('note_on', channel=0, note=60, velocity=0, time=155),\n",
       "    Message('note_on', channel=0, note=63, velocity=58, time=4),\n",
       "    Message('note_on', channel=0, note=63, velocity=0, time=129),\n",
       "    Message('note_on', channel=0, note=60, velocity=57, time=22),\n",
       "    Message('note_on', channel=0, note=60, velocity=0, time=147),\n",
       "    Message('note_on', channel=0, note=63, velocity=51, time=4),\n",
       "    Message('note_on', channel=0, note=69, velocity=70, time=4),\n",
       "    Message('note_on', channel=0, note=72, velocity=0, time=102),\n",
       "    Message('note_on', channel=0, note=63, velocity=0, time=43),\n",
       "    Message('note_on', channel=0, note=60, velocity=58, time=3),\n",
       "    Message('note_on', channel=0, note=69, velocity=0, time=88),\n",
       "    Message('note_on', channel=0, note=60, velocity=0, time=66),\n",
       "    Message('note_on', channel=0, note=70, velocity=71, time=15),\n",
       "    Message('note_on', channel=0, note=53, velocity=52, time=10),\n",
       "    Message('note_on', channel=0, note=58, velocity=55, time=150),\n",
       "    Message('note_on', channel=0, note=53, velocity=0, time=25),\n",
       "    Message('note_on', channel=0, note=62, velocity=54, time=119),\n",
       "    Message('note_on', channel=0, note=58, velocity=0, time=1),\n",
       "    Message('note_on', channel=0, note=58, velocity=58, time=145),\n",
       "    Message('note_on', channel=0, note=62, velocity=0, time=0),\n",
       "    Message('note_on', channel=0, note=79, velocity=72, time=139),\n",
       "    Message('note_on', channel=0, note=62, velocity=53, time=20),\n",
       "    Message('note_on', channel=0, note=58, velocity=0, time=5),\n",
       "    Message('note_on', channel=0, note=70, velocity=0, time=47),\n",
       "    Message('note_on', channel=0, note=58, velocity=60, time=95),\n",
       "    Message('note_on', channel=0, note=62, velocity=0, time=2),\n",
       "    Message('note_on', channel=0, note=79, velocity=0, time=61),\n",
       "    Message('note_on', channel=0, note=77, velocity=70, time=82),\n",
       "    Message('note_on', channel=0, note=58, velocity=0, time=1),\n",
       "    Message('note_on', channel=0, note=53, velocity=49, time=15),\n",
       "    Message('note_on', channel=0, note=76, velocity=68, time=129),\n",
       "    Message('note_on', channel=0, note=55, velocity=54, time=6),\n",
       "    Message('note_on', channel=0, note=77, velocity=0, time=21),\n",
       "    Message('note_on', channel=0, note=53, velocity=0, time=14),\n",
       "    Message('note_on', channel=0, note=76, velocity=0, time=37),\n",
       "    Message('note_on', channel=0, note=55, velocity=0, time=73),\n",
       "    Message('note_on', channel=0, note=76, velocity=64, time=5),\n",
       "    Message('note_on', channel=0, note=58, velocity=52, time=10),\n",
       "    Message('note_on', channel=0, note=55, velocity=55, time=142),\n",
       "    Message('note_on', channel=0, note=58, velocity=0, time=1),\n",
       "    Message('note_on', channel=0, note=55, velocity=0, time=138),\n",
       "    Message('note_on', channel=0, note=58, velocity=60, time=18),\n",
       "    Message('control_change', channel=0, control=64, value=32, time=30),\n",
       "    Message('control_change', channel=0, control=64, value=53, time=18),\n",
       "    Message('note_on', channel=0, note=76, velocity=0, time=12),\n",
       "    Message('control_change', channel=0, control=64, value=65, time=3),\n",
       "    Message('control_change', channel=0, control=64, value=72, time=20),\n",
       "    Message('control_change', channel=0, control=64, value=79, time=19),\n",
       "    Message('control_change', channel=0, control=64, value=83, time=18),\n",
       "    Message('note_on', channel=0, note=55, velocity=63, time=17),\n",
       "    Message('note_on', channel=0, note=58, velocity=0, time=13),\n",
       "    Message('control_change', channel=0, control=64, value=81, time=43),\n",
       "    Message('control_change', channel=0, control=64, value=74, time=19),\n",
       "    Message('control_change', channel=0, control=64, value=64, time=18),\n",
       "    Message('note_on', channel=0, note=55, velocity=0, time=14),\n",
       "    Message('control_change', channel=0, control=64, value=51, time=5),\n",
       "    Message('control_change', channel=0, control=64, value=38, time=19),\n",
       "    Message('control_change', channel=0, control=64, value=23, time=19),\n",
       "    Message('control_change', channel=0, control=64, value=0, time=32),\n",
       "    Message('note_on', channel=0, note=77, velocity=69, time=11),\n",
       "    Message('note_on', channel=0, note=57, velocity=56, time=19),\n",
       "    Message('note_on', channel=0, note=53, velocity=49, time=14),\n",
       "    Message('note_on', channel=0, note=69, velocity=66, time=275),\n",
       "    Message('note_on', channel=0, note=77, velocity=0, time=77),\n",
       "    Message('note_on', channel=0, note=57, velocity=0, time=235),\n",
       "    Message('note_on', channel=0, note=74, velocity=67, time=4),\n",
       "    Message('note_on', channel=0, note=53, velocity=0, time=3),\n",
       "    Message('note_on', channel=0, note=69, velocity=0, time=54),\n",
       "    Message('note_on', channel=0, note=67, velocity=56, time=276),\n",
       "    Message('note_on', channel=0, note=74, velocity=0, time=52),\n",
       "    Message('note_on', channel=0, note=72, velocity=65, time=269),\n",
       "    Message('note_on', channel=0, note=67, velocity=0, time=81),\n",
       "    Message('note_on', channel=0, note=69, velocity=71, time=352),\n",
       "    Message('note_on', channel=0, note=72, velocity=0, time=63),\n",
       "    Message('note_on', channel=0, note=69, velocity=0, time=51),\n",
       "    Message('note_on', channel=0, note=65, velocity=68, time=77),\n",
       "    Message('note_on', channel=0, note=53, velocity=60, time=9),\n",
       "    Message('note_on', channel=0, note=45, velocity=69, time=317),\n",
       "    Message('note_on', channel=0, note=53, velocity=0, time=19),\n",
       "    Message('note_on', channel=0, note=50, velocity=65, time=294),\n",
       "    Message('note_on', channel=0, note=45, velocity=0, time=72),\n",
       "    Message('note_on', channel=0, note=67, velocity=67, time=250),\n",
       "    Message('note_on', channel=0, note=43, velocity=63, time=11),\n",
       "    Message('note_on', channel=0, note=50, velocity=0, time=51),\n",
       "    Message('note_on', channel=0, note=65, velocity=0, time=14),\n",
       "    Message('note_on', channel=0, note=64, velocity=62, time=118),\n",
       "    Message('note_on', channel=0, note=64, velocity=0, time=41),\n",
       "    Message('note_on', channel=0, note=65, velocity=61, time=3),\n",
       "    Message('note_on', channel=0, note=64, velocity=67, time=81),\n",
       "    Message('note_on', channel=0, note=48, velocity=63, time=2),\n",
       "    Message('note_on', channel=0, note=65, velocity=0, time=3),\n",
       "    Message('note_on', channel=0, note=43, velocity=0, time=5),\n",
       "    Message('note_on', channel=0, note=64, velocity=0, time=138),\n",
       "    Message('note_on', channel=0, note=62, velocity=67, time=7),\n",
       "    Message('control_change', channel=0, control=64, value=30, time=159),\n",
       "    Message('note_on', channel=0, note=64, velocity=67, time=4),\n",
       "    Message('control_change', channel=0, control=64, value=55, time=16),\n",
       "    Message('note_on', channel=0, note=62, velocity=0, time=13),\n",
       "    Message('control_change', channel=0, control=64, value=69, time=3),\n",
       "    Message('control_change', channel=0, control=64, value=80, time=20),\n",
       "    Message('control_change', channel=0, control=64, value=94, time=17),\n",
       "    Message('note_on', channel=0, note=64, velocity=0, time=3),\n",
       "    Message('note_on', channel=0, note=67, velocity=0, time=1),\n",
       "    Message('control_change', channel=0, control=64, value=107, time=17),\n",
       "    Message('control_change', channel=0, control=64, value=114, time=17),\n",
       "    Message('note_on', channel=0, note=48, velocity=0, time=22),\n",
       "    Message('note_on', channel=0, note=45, velocity=69, time=9),\n",
       "    Message('control_change', channel=0, control=64, value=108, time=94),\n",
       "    Message('control_change', channel=0, control=64, value=92, time=19),\n",
       "    Message('control_change', channel=0, control=64, value=71, time=20),\n",
       "    Message('note_on', channel=0, note=45, velocity=0, time=14),\n",
       "    Message('control_change', channel=0, control=64, value=47, time=3),\n",
       "    Message('control_change', channel=0, control=64, value=0, time=36),\n",
       "    Message('note_on', channel=0, note=69, velocity=74, time=3),\n",
       "    Message('note_on', channel=0, note=65, velocity=60, time=12),\n",
       "    Message('note_on', channel=0, note=41, velocity=60, time=1),\n",
       "    Message('polytouch', channel=0, note=73, value=127, time=18),\n",
       "    Message('polytouch', channel=0, note=73, value=0, time=34),\n",
       "    Message('note_on', channel=0, note=70, velocity=70, time=258),\n",
       "    Message('note_on', channel=0, note=50, velocity=57, time=18),\n",
       "    Message('note_on', channel=0, note=41, velocity=0, time=15),\n",
       "    Message('note_on', channel=0, note=69, velocity=0, time=33),\n",
       "    Message('polytouch', channel=0, note=50, value=22, time=240),\n",
       "    Message('note_on', channel=0, note=74, velocity=66, time=2),\n",
       "    Message('note_on', channel=0, note=50, velocity=0, time=3),\n",
       "    Message('note_on', channel=0, note=46, velocity=53, time=13),\n",
       "    Message('note_on', channel=0, note=70, velocity=0, time=13),\n",
       "    Message('control_change', channel=0, control=64, value=12, time=36),\n",
       "    Message('control_change', channel=0, control=64, value=46, time=20),\n",
       "    Message('control_change', channel=0, control=64, value=66, time=17),\n",
       "    Message('control_change', channel=0, control=64, value=80, time=20),\n",
       "    Message('control_change', channel=0, control=64, value=100, time=18),\n",
       "    Message('control_change', channel=0, control=64, value=127, time=19),\n",
       "    Message('note_on', channel=0, note=74, velocity=0, time=52),\n",
       "    Message('note_on', channel=0, note=46, velocity=0, time=59),\n",
       "    Message('control_change', channel=0, control=64, value=120, time=50),\n",
       "    Message('note_on', channel=0, note=45, velocity=61, time=14),\n",
       "    Message('note_on', channel=0, note=74, velocity=68, time=1),\n",
       "    Message('control_change', channel=0, control=64, value=96, time=2),\n",
       "    Message('control_change', channel=0, control=64, value=73, time=21),\n",
       "    Message('control_change', channel=0, control=64, value=52, time=18),\n",
       "    Message('control_change', channel=0, control=64, value=28, time=18),\n",
       "    Message('control_change', channel=0, control=64, value=0, time=19),\n",
       "    Message('note_on', channel=0, note=72, velocity=66, time=71),\n",
       "    Message('note_on', channel=0, note=74, velocity=0, time=66),\n",
       "    Message('note_on', channel=0, note=45, velocity=0, time=12),\n",
       "    Message('note_on', channel=0, note=70, velocity=67, time=77),\n",
       "    Message('note_on', channel=0, note=65, velocity=0, time=10),\n",
       "    Message('note_on', channel=0, note=72, velocity=0, time=51),\n",
       "    Message('note_on', channel=0, note=69, velocity=65, time=75),\n",
       "    Message('note_on', channel=0, note=70, velocity=0, time=95),\n",
       "    Message('note_on', channel=0, note=50, velocity=54, time=60),\n",
       "    Message('note_on', channel=0, note=67, velocity=65, time=1),\n",
       "    Message('note_on', channel=0, note=69, velocity=0, time=10),\n",
       "    Message('note_on', channel=0, note=50, velocity=0, time=136),\n",
       "    Message('note_on', channel=0, note=65, velocity=67, time=9),\n",
       "    Message('note_on', channel=0, note=67, velocity=0, time=19),\n",
       "    Message('note_on', channel=0, note=65, velocity=0, time=76),\n",
       "    Message('note_on', channel=0, note=67, velocity=61, time=99),\n",
       "    Message('note_on', channel=0, note=46, velocity=51, time=24),\n",
       "    Message('control_change', channel=0, control=64, value=36, time=100),\n",
       "    Message('control_change', channel=0, control=64, value=59, time=17),\n",
       "    Message('control_change', channel=0, control=64, value=72, time=20),\n",
       "    Message('control_change', channel=0, control=64, value=85, time=18),\n",
       "    Message('control_change', channel=0, control=64, value=101, time=17),\n",
       "    Message('control_change', channel=0, control=64, value=119, time=18),\n",
       "    Message('control_change', channel=0, control=64, value=127, time=19),\n",
       "    Message('note_on', channel=0, note=46, velocity=0, time=40),\n",
       "    Message('note_on', channel=0, note=70, velocity=66, time=61),\n",
       "    Message('control_change', channel=0, control=64, value=123, time=9),\n",
       "    Message('control_change', channel=0, control=64, value=107, time=19),\n",
       "    Message('note_on', channel=0, note=67, velocity=0, time=2),\n",
       "    Message('control_change', channel=0, control=64, value=88, time=19),\n",
       "    Message('note_on', channel=0, note=70, velocity=0, time=9),\n",
       "    Message('control_change', channel=0, control=64, value=69, time=5),\n",
       "    Message('control_change', channel=0, control=64, value=50, time=19),\n",
       "    Message('control_change', channel=0, control=64, value=34, time=20),\n",
       "    Message('control_change', channel=0, control=64, value=17, time=18),\n",
       "    Message('control_change', channel=0, control=64, value=9, time=20),\n",
       "    Message('control_change', channel=0, control=64, value=0, time=90),\n",
       "    Message('note_on', channel=0, note=64, velocity=62, time=86),\n",
       "    Message('note_on', channel=0, note=58, velocity=58, time=12),\n",
       "    Message('note_on', channel=0, note=48, velocity=56, time=3),\n",
       "    Message('note_on', channel=0, note=58, velocity=0, time=54),\n",
       "    Message('note_on', channel=0, note=64, velocity=0, time=7),\n",
       "    Message('note_on', channel=0, note=48, velocity=0, time=14),\n",
       "    Message('control_change', channel=0, control=64, value=21, time=298),\n",
       "    Message('note_on', channel=0, note=65, velocity=55, time=0),\n",
       "    Message('note_on', channel=0, note=57, velocity=47, time=19),\n",
       "    Message('control_change', channel=0, control=64, value=45, time=2),\n",
       "    Message('control_change', channel=0, control=64, value=62, time=17),\n",
       "    Message('note_on', channel=0, note=41, velocity=47, time=3),\n",
       "    Message('control_change', channel=0, control=64, value=72, time=17),\n",
       "    Message('control_change', channel=0, control=64, value=83, time=18),\n",
       "    Message('control_change', channel=0, control=64, value=97, time=18),\n",
       "    Message('control_change', channel=0, control=64, value=112, time=18),\n",
       "    Message('control_change', channel=0, control=64, value=127, time=20),\n",
       "    Message('note_on', channel=0, note=57, velocity=0, time=7),\n",
       "    Message('note_on', channel=0, note=65, velocity=0, time=1),\n",
       "    Message('note_on', channel=0, note=41, velocity=0, time=3),\n",
       "    Message('control_change', channel=0, control=64, value=108, time=430),\n",
       "    Message('control_change', channel=0, control=64, value=87, time=18),\n",
       "    Message('control_change', channel=0, control=64, value=66, time=19),\n",
       "    Message('note_on', channel=0, note=84, velocity=78, time=17),\n",
       "    Message('control_change', channel=0, control=64, value=44, time=1),\n",
       "    Message('note_on', channel=0, note=69, velocity=73, time=12),\n",
       "    Message('control_change', channel=0, control=64, value=20, time=6),\n",
       "    Message('note_on', channel=0, note=72, velocity=63, time=4),\n",
       "    Message('control_change', channel=0, control=64, value=0, time=15),\n",
       "    Message('note_on', channel=0, note=69, velocity=0, time=96),\n",
       "    Message('note_on', channel=0, note=72, velocity=0, time=4),\n",
       "    Message('note_on', channel=0, note=84, velocity=0, time=0),\n",
       "    Message('note_on', channel=0, note=82, velocity=80, time=89),\n",
       "    Message('note_on', channel=0, note=70, velocity=65, time=1),\n",
       "    Message('note_on', channel=0, note=67, velocity=63, time=8),\n",
       "    Message('note_on', channel=0, note=70, velocity=0, time=32),\n",
       "    Message('note_on', channel=0, note=82, velocity=0, time=26),\n",
       "    Message('note_on', channel=0, note=67, velocity=0, time=20),\n",
       "    Message('note_on', channel=0, note=69, velocity=75, time=7),\n",
       "    Message('note_on', channel=0, note=65, velocity=71, time=4),\n",
       "    Message('note_on', channel=0, note=81, velocity=81, time=7),\n",
       "    Message('note_on', channel=0, note=65, velocity=0, time=32),\n",
       "    Message('note_on', channel=0, note=69, velocity=0, time=0),\n",
       "    Message('note_on', channel=0, note=81, velocity=0, time=18),\n",
       "    Message('note_on', channel=0, note=81, velocity=82, time=248),\n",
       "    Message('note_on', channel=0, note=69, velocity=74, time=5),\n",
       "    Message('note_on', channel=0, note=65, velocity=67, time=5),\n",
       "    Message('note_on', channel=0, note=69, velocity=0, time=42),\n",
       "    Message('note_on', channel=0, note=65, velocity=0, time=6),\n",
       "    Message('note_on', channel=0, note=81, velocity=0, time=7),\n",
       "    Message('control_change', channel=0, control=64, value=17, time=188),\n",
       "    Message('control_change', channel=0, control=64, value=41, time=18),\n",
       "    Message('control_change', channel=0, control=64, value=60, time=19),\n",
       "    Message('note_on', channel=0, note=81, velocity=76, time=14),\n",
       "    Message('control_change', channel=0, control=64, value=72, time=6),\n",
       "    Message('note_on', channel=0, note=69, velocity=64, time=5),\n",
       "    Message('control_change', channel=0, control=64, value=83, time=12),\n",
       "    Message('note_on', channel=0, note=65, velocity=47, time=2),\n",
       "    Message('control_change', channel=0, control=64, value=99, time=17),\n",
       "    Message('control_change', channel=0, control=64, value=117, time=32),\n",
       "    Message('control_change', channel=0, control=64, value=127, time=18),\n",
       "    Message('note_on', channel=0, note=69, velocity=0, time=22),\n",
       "    Message('note_on', channel=0, note=81, velocity=0, time=25),\n",
       "    Message('note_on', channel=0, note=65, velocity=0, time=26),\n",
       "    Message('note_on', channel=0, note=79, velocity=80, time=62),\n",
       "    Message('note_on', channel=0, note=60, velocity=64, time=5),\n",
       "    Message('note_on', channel=0, note=67, velocity=67, time=0),\n",
       "    Message('control_change', channel=0, control=64, value=112, time=28),\n",
       "    Message('note_on', channel=0, note=67, velocity=0, time=12),\n",
       "    Message('control_change', channel=0, control=64, value=89, time=4),\n",
       "    Message('note_on', channel=0, note=60, velocity=0, time=18),\n",
       "    Message('control_change', channel=0, control=64, value=65, time=3),\n",
       "    Message('note_on', channel=0, note=79, velocity=0, time=0),\n",
       "    Message('control_change', channel=0, control=64, value=37, time=17),\n",
       "    Message('control_change', channel=0, control=64, value=0, time=18),\n",
       "    Message('note_on', channel=0, note=77, velocity=82, time=14),\n",
       "    Message('note_on', channel=0, note=65, velocity=72, time=6),\n",
       "    Message('note_on', channel=0, note=57, velocity=74, time=0),\n",
       "    Message('note_on', channel=0, note=57, velocity=0, time=41),\n",
       "    Message('note_on', channel=0, note=77, velocity=0, time=8),\n",
       "    Message('note_on', channel=0, note=65, velocity=0, time=7),\n",
       "    Message('note_on', channel=0, note=77, velocity=80, time=258),\n",
       "    Message('note_on', channel=0, note=65, velocity=66, time=7),\n",
       "    Message('note_on', channel=0, note=57, velocity=59, time=1),\n",
       "    Message('note_on', channel=0, note=57, velocity=0, time=58),\n",
       "    Message('note_on', channel=0, note=65, velocity=0, time=0),\n",
       "    Message('note_on', channel=0, note=77, velocity=0, time=5),\n",
       "    Message('note_on', channel=0, note=77, velocity=73, time=269),\n",
       "    Message('control_change', channel=0, control=64, value=10, time=4),\n",
       "    Message('note_on', channel=0, note=65, velocity=58, time=2),\n",
       "    Message('note_on', channel=0, note=57, velocity=55, time=8),\n",
       "    Message('control_change', channel=0, control=64, value=38, time=9),\n",
       "    Message('control_change', channel=0, control=64, value=57, time=18),\n",
       "    Message('control_change', channel=0, control=64, value=68, time=19),\n",
       "    Message('control_change', channel=0, control=64, value=76, time=16),\n",
       "    Message('control_change', channel=0, control=64, value=85, time=20),\n",
       "    Message('control_change', channel=0, control=64, value=95, time=20),\n",
       "    Message('control_change', channel=0, control=64, value=101, time=16),\n",
       "    Message('control_change', channel=0, control=64, value=106, time=18),\n",
       "    Message('note_on', channel=0, note=57, velocity=0, time=15),\n",
       "    Message('note_on', channel=0, note=65, velocity=0, time=7),\n",
       "    Message('control_change', channel=0, control=64, value=112, time=17),\n",
       "    Message('note_on', channel=0, note=77, velocity=0, time=98),\n",
       "    Message('control_change', channel=0, control=64, value=106, time=29),\n",
       "    Message('control_change', channel=0, control=64, value=92, time=19),\n",
       "    Message('note_on', channel=0, note=79, velocity=74, time=4),\n",
       "    Message('note_on', channel=0, note=60, velocity=63, time=12),\n",
       "    Message('control_change', channel=0, control=64, value=73, time=2),\n",
       "    Message('note_on', channel=0, note=67, velocity=57, time=3),\n",
       "    Message('note_on', channel=0, note=76, velocity=63, time=1),\n",
       "    Message('control_change', channel=0, control=64, value=52, time=15),\n",
       "    Message('control_change', channel=0, control=64, value=25, time=20),\n",
       "    Message('note_on', channel=0, note=76, velocity=0, time=13),\n",
       "    Message('control_change', channel=0, control=64, value=0, time=4),\n",
       "    Message('note_on', channel=0, note=60, velocity=0, time=1),\n",
       "    Message('note_on', channel=0, note=79, velocity=0, time=3),\n",
       "    Message('note_on', channel=0, note=67, velocity=0, time=5),\n",
       "    Message('note_on', channel=0, note=79, velocity=74, time=249),\n",
       "    Message('note_on', channel=0, note=60, velocity=63, time=12),\n",
       "    Message('note_on', channel=0, note=67, velocity=60, time=4),\n",
       "    Message('note_on', channel=0, note=76, velocity=64, time=3),\n",
       "    Message('note_on', channel=0, note=60, velocity=0, time=44),\n",
       "    Message('note_on', channel=0, note=76, velocity=0, time=2),\n",
       "    Message('note_on', channel=0, note=67, velocity=0, time=3),\n",
       "    Message('note_on', channel=0, note=79, velocity=0, time=6),\n",
       "    Message('note_on', channel=0, note=79, velocity=69, time=260),\n",
       "    Message('note_on', channel=0, note=60, velocity=56, time=6),\n",
       "    Message('note_on', channel=0, note=67, velocity=58, time=1),\n",
       "    Message('note_on', channel=0, note=76, velocity=64, time=7),\n",
       "    Message('note_on', channel=0, note=60, velocity=0, time=44),\n",
       "    Message('note_on', channel=0, note=76, velocity=0, time=5),\n",
       "    Message('note_on', channel=0, note=67, velocity=0, time=5),\n",
       "    Message('note_on', channel=0, note=79, velocity=0, time=3),\n",
       "    Message('note_on', channel=0, note=79, velocity=67, time=270),\n",
       "    Message('note_on', channel=0, note=67, velocity=55, time=7),\n",
       "    Message('note_on', channel=0, note=76, velocity=57, time=6),\n",
       "    Message('note_on', channel=0, note=60, velocity=46, time=7),\n",
       "    Message('note_on', channel=0, note=60, velocity=0, time=246),\n",
       "    Message('note_on', channel=0, note=76, velocity=0, time=20),\n",
       "    Message('note_on', channel=0, note=67, velocity=0, time=5),\n",
       "    Message('note_on', channel=0, note=81, velocity=61, time=36),\n",
       "    Message('note_on', channel=0, note=65, velocity=56, time=12),\n",
       "    Message('note_on', channel=0, note=79, velocity=0, time=1),\n",
       "    Message('note_on', channel=0, note=77, velocity=60, time=8),\n",
       "    Message('control_change', channel=0, control=64, value=35, time=4),\n",
       "    Message('note_on', channel=0, note=69, velocity=51, time=5),\n",
       "    Message('control_change', channel=0, control=64, value=62, time=12),\n",
       "    Message('control_change', channel=0, control=64, value=80, time=19),\n",
       "    Message('note_on', channel=0, note=77, velocity=0, time=2),\n",
       "    Message('note_on', channel=0, note=65, velocity=0, time=4),\n",
       "    Message('note_on', channel=0, note=81, velocity=0, time=9),\n",
       "    Message('control_change', channel=0, control=64, value=106, time=2),\n",
       "    Message('note_on', channel=0, note=69, velocity=0, time=15),\n",
       "    Message('control_change', channel=0, control=64, value=127, time=6),\n",
       "    Message('polytouch', channel=0, note=85, value=0, time=185),\n",
       "    Message('control_change', channel=0, control=64, value=114, time=13),\n",
       "    Message('control_change', channel=0, control=64, value=90, time=18),\n",
       "    Message('note_on', channel=0, note=84, velocity=78, time=4),\n",
       "    Message('note_on', channel=0, note=69, velocity=65, time=10),\n",
       "    Message('control_change', channel=0, control=64, value=68, time=4),\n",
       "    Message('note_on', channel=0, note=72, velocity=62, time=4),\n",
       "    Message('control_change', channel=0, control=64, value=46, time=15),\n",
       "    Message('control_change', channel=0, control=64, value=27, time=20),\n",
       "    Message('control_change', channel=0, control=64, value=0, time=18),\n",
       "    Message('note_on', channel=0, note=84, velocity=0, time=9),\n",
       "    Message('note_on', channel=0, note=86, velocity=73, time=3),\n",
       "    Message('note_on', channel=0, note=69, velocity=0, time=48),\n",
       "    Message('note_on', channel=0, note=72, velocity=0, time=1),\n",
       "    Message('note_on', channel=0, note=84, velocity=76, time=25),\n",
       "    Message('note_on', channel=0, note=86, velocity=0, time=19),\n",
       "    Message('note_on', channel=0, note=84, velocity=0, time=49),\n",
       "    Message('note_on', channel=0, note=82, velocity=85, time=6),\n",
       "    Message('note_on', channel=0, note=70, velocity=61, time=3),\n",
       "    Message('note_on', channel=0, note=67, velocity=67, time=3),\n",
       "    Message('note_on', channel=0, note=70, velocity=0, time=32),\n",
       "    Message('note_on', channel=0, note=81, velocity=84, time=27),\n",
       "    Message('note_on', channel=0, note=82, velocity=0, time=18),\n",
       "    Message('note_on', channel=0, note=65, velocity=63, time=2),\n",
       "    Message('note_on', channel=0, note=67, velocity=0, time=3),\n",
       "    Message('note_on', channel=0, note=81, velocity=0, time=29),\n",
       "    Message('note_on', channel=0, note=65, velocity=0, time=27),\n",
       "    Message('note_on', channel=0, note=81, velocity=81, time=230),\n",
       "    Message('note_on', channel=0, note=69, velocity=66, time=4),\n",
       "    Message('note_on', channel=0, note=65, velocity=60, time=10),\n",
       "    Message('note_on', channel=0, note=69, velocity=0, time=28),\n",
       "    Message('note_on', channel=0, note=65, velocity=0, time=16),\n",
       "    Message('note_on', channel=0, note=81, velocity=0, time=2),\n",
       "    Message('control_change', channel=0, control=64, value=16, time=231),\n",
       "    Message('control_change', channel=0, control=64, value=43, time=21),\n",
       "    Message('note_on', channel=0, note=69, velocity=66, time=10),\n",
       "    Message('note_on', channel=0, note=81, velocity=77, time=1),\n",
       "    Message('control_change', channel=0, control=64, value=63, time=8),\n",
       "    Message('note_on', channel=0, note=65, velocity=58, time=10),\n",
       "    Message('control_change', channel=0, control=64, value=74, time=8),\n",
       "    Message('control_change', channel=0, control=64, value=86, time=17),\n",
       "    Message('control_change', channel=0, control=64, value=100, time=17),\n",
       "    Message('note_on', channel=0, note=81, velocity=0, time=8),\n",
       "    Message('note_on', channel=0, note=82, velocity=75, time=9),\n",
       "    Message('control_change', channel=0, control=64, value=110, time=2),\n",
       "    Message('note_on', channel=0, note=69, velocity=0, time=2),\n",
       "    Message('control_change', channel=0, control=64, value=114, time=16),\n",
       "    Message('note_on', channel=0, note=65, velocity=0, time=36),\n",
       "    Message('note_on', channel=0, note=82, velocity=0, time=8),\n",
       "    Message('note_on', channel=0, note=81, velocity=76, time=8),\n",
       "    Message('note_on', channel=0, note=67, velocity=69, time=45),\n",
       "    Message('note_on', channel=0, note=60, velocity=59, time=19),\n",
       "    Message('note_on', channel=0, note=81, velocity=0, time=4),\n",
       "    Message('note_on', channel=0, note=79, velocity=80, time=14),\n",
       "    Message('note_on', channel=0, note=67, velocity=0, time=0),\n",
       "    Message('control_change', channel=0, control=64, value=97, time=14),\n",
       "    Message('control_change', channel=0, control=64, value=78, time=19),\n",
       "    Message('control_change', channel=0, control=64, value=57, time=17),\n",
       "    Message('note_on', channel=0, note=65, velocity=69, time=10),\n",
       "    Message('note_on', channel=0, note=79, velocity=0, time=7),\n",
       "    Message('note_on', channel=0, note=57, velocity=62, time=2),\n",
       "    Message('control_change', channel=0, control=64, value=27, time=1),\n",
       "    Message('note_on', channel=0, note=60, velocity=0, time=2),\n",
       "    Message('note_on', channel=0, note=77, velocity=81, time=1),\n",
       "    Message('control_change', channel=0, control=64, value=0, time=14),\n",
       "    Message('note_on', channel=0, note=65, velocity=0, time=8),\n",
       "    Message('note_on', channel=0, note=57, velocity=0, time=9),\n",
       "    Message('note_on', channel=0, note=77, velocity=0, time=3),\n",
       "    Message('note_on', channel=0, note=77, velocity=79, time=285),\n",
       "    Message('note_on', channel=0, note=65, velocity=68, time=1),\n",
       "    Message('note_on', channel=0, note=57, velocity=65, time=2),\n",
       "    Message('note_on', channel=0, note=57, velocity=0, time=43),\n",
       "    Message('note_on', channel=0, note=65, velocity=0, time=7),\n",
       "    Message('note_on', channel=0, note=77, velocity=0, time=6),\n",
       "    Message('note_on', channel=0, note=57, velocity=64, time=269),\n",
       "    Message('note_on', channel=0, note=77, velocity=73, time=3),\n",
       "    Message('note_on', channel=0, note=65, velocity=66, time=1),\n",
       "    Message('note_on', channel=0, note=57, velocity=0, time=41),\n",
       "    Message('note_on', channel=0, note=65, velocity=0, time=16),\n",
       "    Message('note_on', channel=0, note=77, velocity=0, time=5),\n",
       "    Message('note_on', channel=0, note=79, velocity=67, time=273),\n",
       "    Message('note_on', channel=0, note=67, velocity=51, time=9),\n",
       "    Message('note_on', channel=0, note=60, velocity=50, time=11),\n",
       "    Message('control_change', channel=0, control=64, value=29, time=38),\n",
       "    Message('control_change', channel=0, control=64, value=48, time=16),\n",
       "    Message('control_change', channel=0, control=64, value=61, time=19),\n",
       "    Message('control_change', channel=0, control=64, value=71, time=18),\n",
       "    Message('control_change', channel=0, control=64, value=80, time=19),\n",
       "    Message('control_change', channel=0, control=64, value=94, time=19),\n",
       "    Message('control_change', channel=0, control=64, value=111, time=17),\n",
       "    Message('control_change', channel=0, control=64, value=127, time=18),\n",
       "    Message('note_on', channel=0, note=67, velocity=0, time=52),\n",
       "    Message('note_on', channel=0, note=60, velocity=0, time=55),\n",
       "    Message('note_on', channel=0, note=82, velocity=70, time=51),\n",
       "    Message('note_on', channel=0, note=79, velocity=0, time=33),\n",
       "    Message('note_on', channel=0, note=82, velocity=0, time=25),\n",
       "    Message('control_change', channel=0, control=64, value=116, time=133),\n",
       "    Message('control_change', channel=0, control=64, value=101, time=17),\n",
       "    Message('control_change', channel=0, control=64, value=85, time=18),\n",
       "    Message('control_change', channel=0, control=64, value=68, time=19),\n",
       "    Message('control_change', channel=0, control=64, value=51, time=18),\n",
       "    Message('control_change', channel=0, control=64, value=35, time=19),\n",
       "    Message('control_change', channel=0, control=64, value=0, time=36),\n",
       "    Message('note_on', channel=0, note=76, velocity=59, time=14),\n",
       "    Message('note_on', channel=0, note=70, velocity=62, time=22),\n",
       "    Message('note_on', channel=0, note=67, velocity=52, time=17),\n",
       "    Message('note_on', channel=0, note=60, velocity=47, time=6),\n",
       "    Message('control_change', channel=0, control=64, value=31, time=89),\n",
       "    Message('control_change', channel=0, control=64, value=53, time=18),\n",
       "    Message('control_change', channel=0, control=64, value=65, time=19),\n",
       "    Message('control_change', channel=0, control=64, value=71, time=17),\n",
       "    Message('control_change', channel=0, control=64, value=76, time=18),\n",
       "    Message('control_change', channel=0, control=64, value=79, time=19),\n",
       "    Message('control_change', channel=0, control=64, value=75, time=112),\n",
       "    Message('note_on', channel=0, note=60, velocity=0, time=3),\n",
       "    Message('note_on', channel=0, note=67, velocity=0, time=7),\n",
       "    Message('control_change', channel=0, control=64, value=70, time=7),\n",
       "    Message('note_on', channel=0, note=70, velocity=0, time=18),\n",
       "    Message('control_change', channel=0, control=64, value=59, time=0),\n",
       "    Message('note_on', channel=0, note=76, velocity=0, time=8),\n",
       "    Message('control_change', channel=0, control=64, value=41, time=12),\n",
       "    Message('note_on', channel=0, note=77, velocity=55, time=12),\n",
       "    Message('control_change', channel=0, control=64, value=9, time=7),\n",
       "    Message('control_change', channel=0, control=64, value=0, time=16),\n",
       "    Message('note_on', channel=0, note=69, velocity=44, time=0),\n",
       "    Message('note_on', channel=0, note=65, velocity=45, time=7),\n",
       "    Message('control_change', channel=0, control=64, value=22, time=87),\n",
       "    Message('control_change', channel=0, control=64, value=47, time=18),\n",
       "    Message('control_change', channel=0, control=64, value=64, time=20),\n",
       "    Message('control_change', channel=0, control=64, value=76, time=15),\n",
       "    Message('note_on', channel=0, note=69, velocity=0, time=20),\n",
       "    Message('control_change', channel=0, control=64, value=91, time=0),\n",
       "    Message('control_change', channel=0, control=64, value=115, time=19),\n",
       "    Message('note_on', channel=0, note=77, velocity=0, time=4),\n",
       "    Message('note_on', channel=0, note=65, velocity=0, time=8),\n",
       "    Message('control_change', channel=0, control=64, value=127, time=7),\n",
       "    Message('control_change', channel=0, control=64, value=117, time=143),\n",
       "    Message('control_change', channel=0, control=64, value=92, time=19),\n",
       "    Message('control_change', channel=0, control=64, value=70, time=16),\n",
       "    Message('control_change', channel=0, control=64, value=47, time=19),\n",
       "    Message('control_change', channel=0, control=64, value=22, time=19),\n",
       "    Message('control_change', channel=0, control=64, value=0, time=19),\n",
       "    Message('note_on', channel=0, note=84, velocity=61, time=181),\n",
       "    Message('note_on', channel=0, note=70, velocity=46, time=22),\n",
       "    Message('note_on', channel=0, note=64, velocity=47, time=12),\n",
       "    Message('control_change', channel=0, control=64, value=21, time=4),\n",
       "    Message('note_on', channel=0, note=60, velocity=41, time=7),\n",
       "    Message('control_change', channel=0, control=64, value=47, time=14),\n",
       "    Message('control_change', channel=0, control=64, value=65, time=16),\n",
       "    Message('control_change', channel=0, control=64, value=77, time=19),\n",
       "    Message('control_change', channel=0, control=64, value=94, time=20),\n",
       "    Message('control_change', channel=0, control=64, value=119, time=17),\n",
       "    Message('control_change', channel=0, control=64, value=127, time=18),\n",
       "    Message('note_on', channel=0, note=60, velocity=0, time=97),\n",
       "    Message('note_on', channel=0, note=70, velocity=0, time=11),\n",
       "    Message('note_on', channel=0, note=64, velocity=0, time=11),\n",
       "    Message('control_change', channel=0, control=64, value=108, time=121),\n",
       "    Message('note_on', channel=0, note=77, velocity=60, time=3),\n",
       "    Message('control_change', channel=0, control=64, value=77, time=17),\n",
       "    Message('note_on', channel=0, note=84, velocity=0, time=3),\n",
       "    Message('note_on', channel=0, note=69, velocity=48, time=15),\n",
       "    Message('control_change', channel=0, control=64, value=47, time=1),\n",
       "    Message('note_on', channel=0, note=65, velocity=41, time=3),\n",
       "    Message('control_change', channel=0, control=64, value=0, time=15),\n",
       "    Message('control_change', channel=0, control=64, value=34, time=53),\n",
       "    Message('control_change', channel=0, control=64, value=62, time=20),\n",
       "    Message('control_change', channel=0, control=64, value=80, time=17),\n",
       "    Message('control_change', channel=0, control=64, value=105, time=18),\n",
       "    Message('note_on', channel=0, note=69, velocity=0, time=11),\n",
       "    Message('control_change', channel=0, control=64, value=127, time=8),\n",
       "    Message('note_on', channel=0, note=65, velocity=0, time=8),\n",
       "    Message('note_on', channel=0, note=77, velocity=0, time=3),\n",
       "    Message('control_change', channel=0, control=64, value=107, time=98),\n",
       "    Message('control_change', channel=0, control=64, value=85, time=16),\n",
       "    Message('control_change', channel=0, control=64, value=65, time=19),\n",
       "    Message('control_change', channel=0, control=64, value=46, time=19),\n",
       "    Message('control_change', channel=0, control=64, value=32, time=18),\n",
       "    Message('control_change', channel=0, control=64, value=22, time=19),\n",
       "    Message('control_change', channel=0, control=64, value=17, time=92),\n",
       "    Message('control_change', channel=0, control=64, value=12, time=18),\n",
       "    Message('control_change', channel=0, control=64, value=0, time=19),\n",
       "    Message('note_on', channel=0, note=72, velocity=58, time=138),\n",
       "    Message('note_on', channel=0, note=58, velocity=43, time=34),\n",
       "    Message('note_on', channel=0, note=52, velocity=42, time=15),\n",
       "    Message('note_on', channel=0, note=48, velocity=41, time=5),\n",
       "    Message('control_change', channel=0, control=64, value=36, time=11),\n",
       "    Message('control_change', channel=0, control=64, value=59, time=17),\n",
       "    Message('control_change', channel=0, control=64, value=72, time=19),\n",
       "    Message('control_change', channel=0, control=64, value=85, time=20),\n",
       "    Message('control_change', channel=0, control=64, value=102, time=16),\n",
       "    Message('control_change', channel=0, control=64, value=123, time=19),\n",
       "    Message('control_change', channel=0, control=64, value=127, time=19),\n",
       "    Message('note_on', channel=0, note=48, velocity=0, time=104),\n",
       "    Message('note_on', channel=0, note=52, velocity=0, time=1),\n",
       "    Message('note_on', channel=0, note=58, velocity=0, time=6),\n",
       "    Message('note_on', channel=0, note=65, velocity=59, time=108),\n",
       "    Message('control_change', channel=0, control=64, value=107, time=20),\n",
       "    Message('note_on', channel=0, note=57, velocity=51, time=7),\n",
       "    Message('note_on', channel=0, note=72, velocity=0, time=4),\n",
       "    Message('note_on', channel=0, note=53, velocity=52, time=7),\n",
       "    Message('control_change', channel=0, control=64, value=81, time=0),\n",
       "    Message('control_change', channel=0, control=64, value=54, time=17),\n",
       "    Message('control_change', channel=0, control=64, value=0, time=19),\n",
       "    Message('control_change', channel=0, control=64, value=34, time=90),\n",
       "    Message('control_change', channel=0, control=64, value=59, time=19),\n",
       "    Message('control_change', channel=0, control=64, value=73, time=17),\n",
       "    Message('control_change', channel=0, control=64, value=86, time=18),\n",
       "    Message('note_on', channel=0, note=65, velocity=0, time=10),\n",
       "    Message('control_change', channel=0, control=64, value=101, time=9),\n",
       "    Message('control_change', channel=0, control=64, value=116, time=19),\n",
       "    Message('note_on', channel=0, note=57, velocity=0, time=12),\n",
       "    Message('control_change', channel=0, control=64, value=123, time=7),\n",
       "    Message('note_on', channel=0, note=53, velocity=0, time=14),\n",
       "    Message('control_change', channel=0, control=64, value=118, time=57),\n",
       "    Message('control_change', channel=0, control=64, value=108, time=20),\n",
       "    Message('control_change', channel=0, control=64, value=96, time=19),\n",
       "    Message('control_change', channel=0, control=64, value=80, time=18),\n",
       "    Message('control_change', channel=0, control=64, value=63, time=19),\n",
       "    Message('control_change', channel=0, control=64, value=45, time=18),\n",
       "    Message('control_change', channel=0, control=64, value=26, time=19),\n",
       "    Message('control_change', channel=0, control=64, value=0, time=17),\n",
       "    Message('control_change', channel=0, control=67, value=115, time=0),\n",
       "    Message('control_change', channel=0, control=67, value=93, time=18),\n",
       "    Message('control_change', channel=0, control=67, value=68, time=18),\n",
       "    Message('control_change', channel=0, control=67, value=44, time=19),\n",
       "    Message('control_change', channel=0, control=67, value=20, time=18),\n",
       "    Message('control_change', channel=0, control=67, value=0, time=38),\n",
       "    Message('control_change', channel=0, control=64, value=25, time=74),\n",
       "    Message('control_change', channel=0, control=64, value=55, time=18),\n",
       "    Message('note_on', channel=0, note=61, velocity=86, time=10),\n",
       "    Message('control_change', channel=0, control=64, value=71, time=8),\n",
       "    Message('control_change', channel=0, control=64, value=87, time=19),\n",
       "    Message('note_on', channel=0, note=49, velocity=68, time=1),\n",
       "    Message('note_on', channel=0, note=37, velocity=67, time=0),\n",
       "    Message('control_change', channel=0, control=64, value=115, time=17),\n",
       "    Message('control_change', channel=0, control=64, value=127, time=18),\n",
       "    Message('note_on', channel=0, note=37, velocity=0, time=181),\n",
       "    Message('note_on', channel=0, note=49, velocity=0, time=16),\n",
       "    Message('control_change', channel=0, control=64, value=106, time=187),\n",
       "    Message('note_on', channel=0, note=62, velocity=82, time=6),\n",
       "    Message('control_change', channel=0, control=64, value=71, time=13),\n",
       "    Message('note_on', channel=0, note=61, velocity=0, time=5),\n",
       "    Message('note_on', channel=0, note=50, velocity=67, time=4),\n",
       "    Message('note_on', channel=0, note=38, velocity=65, time=2),\n",
       "    Message('control_change', channel=0, control=64, value=33, time=8),\n",
       "    Message('control_change', channel=0, control=67, value=8, time=1),\n",
       "    Message('control_change', channel=0, control=64, value=0, time=16),\n",
       "    Message('control_change', channel=0, control=64, value=41, time=55),\n",
       "    Message('control_change', channel=0, control=64, value=67, time=19),\n",
       "    Message('control_change', channel=0, control=67, value=12, time=1),\n",
       "    Message('control_change', channel=0, control=64, value=88, time=17),\n",
       "    Message('note_on', channel=0, note=38, velocity=0, time=2),\n",
       "    Message('control_change', channel=0, control=64, value=127, time=16),\n",
       "    Message('note_on', channel=0, note=50, velocity=0, time=14),\n",
       "    Message('note_on', channel=0, note=62, velocity=0, time=62),\n",
       "    Message('note_on', channel=0, note=53, velocity=64, time=135),\n",
       "    Message('note_on', channel=0, note=53, velocity=0, time=172),\n",
       "    Message('note_on', channel=0, note=57, velocity=66, time=2),\n",
       "    Message('note_on', channel=0, note=65, velocity=73, time=139),\n",
       "    Message('note_on', channel=0, note=57, velocity=0, time=15),\n",
       "    Message('control_change', channel=0, control=64, value=123, time=11),\n",
       "    Message('note_on', channel=0, note=53, velocity=63, time=2),\n",
       "    Message('control_change', channel=0, control=64, value=85, time=19),\n",
       "    Message('control_change', channel=0, control=64, value=56, time=19),\n",
       "    Message('note_on', channel=0, note=69, velocity=77, time=10),\n",
       "    Message('control_change', channel=0, control=64, value=29, time=6),\n",
       "    Message('control_change', channel=0, control=64, value=53, time=38),\n",
       "    Message('note_on', channel=0, note=65, velocity=0, time=3),\n",
       "    Message('control_change', channel=0, control=64, value=75, time=16),\n",
       "    Message('note_on', channel=0, note=74, velocity=77, time=14),\n",
       "    Message('control_change', channel=0, control=64, value=106, time=19),\n",
       "    Message('note_on', channel=0, note=57, velocity=69, time=9),\n",
       "    Message('note_on', channel=0, note=53, velocity=0, time=6),\n",
       "    Message('control_change', channel=0, control=64, value=127, time=4),\n",
       "    Message('note_on', channel=0, note=69, velocity=0, time=3),\n",
       "    Message('note_on', channel=0, note=74, velocity=0, time=23),\n",
       "    Message('note_on', channel=0, note=57, velocity=0, time=116),\n",
       "    Message('note_on', channel=0, note=69, velocity=67, time=0),\n",
       "    Message('note_on', channel=0, note=53, velocity=62, time=15),\n",
       "    Message('control_change', channel=0, control=64, value=106, time=27),\n",
       "    Message('control_change', channel=0, control=64, value=71, time=18),\n",
       "    Message('note_on', channel=0, note=74, velocity=80, time=13),\n",
       "    Message('control_change', channel=0, control=64, value=36, time=6),\n",
       "    Message('control_change', channel=0, control=64, value=0, time=18),\n",
       "    Message('note_on', channel=0, note=69, velocity=0, time=27),\n",
       "    Message('control_change', channel=0, control=64, value=30, time=10),\n",
       "    Message('note_on', channel=0, note=77, velocity=80, time=7),\n",
       "    Message('note_on', channel=0, note=53, velocity=0, time=2),\n",
       "    Message('note_on', channel=0, note=50, velocity=69, time=1),\n",
       "    Message('control_change', channel=0, control=64, value=63, time=8),\n",
       "    Message('control_change', channel=0, control=64, value=86, time=21),\n",
       "    Message('note_on', channel=0, note=74, velocity=0, time=4),\n",
       "    Message('control_change', channel=0, control=64, value=127, time=14),\n",
       "    Message('note_on', channel=0, note=77, velocity=0, time=17),\n",
       "    Message('note_on', channel=0, note=74, velocity=74, time=114),\n",
       "    Message('note_on', channel=0, note=53, velocity=68, time=10),\n",
       "    Message('control_change', channel=0, control=64, value=81, time=26),\n",
       "    Message('note_on', channel=0, note=50, velocity=0, time=9),\n",
       "    Message('control_change', channel=0, control=64, value=42, time=8),\n",
       "    Message('control_change', channel=0, control=67, value=8, time=4),\n",
       "    Message('note_on', channel=0, note=77, velocity=78, time=5),\n",
       "    Message('control_change', channel=0, control=64, value=0, time=8),\n",
       "    Message('note_on', channel=0, note=74, velocity=0, time=44),\n",
       "    Message('control_change', channel=0, control=64, value=49, time=14),\n",
       "    Message('note_on', channel=0, note=53, velocity=0, time=2),\n",
       "    Message('note_on', channel=0, note=81, velocity=80, time=3),\n",
       "    Message('note_on', channel=0, note=57, velocity=68, time=8),\n",
       "    Message('control_change', channel=0, control=64, value=75, time=3),\n",
       "    Message('control_change', channel=0, control=64, value=108, time=19),\n",
       "    Message('note_on', channel=0, note=77, velocity=0, time=12),\n",
       "    Message('control_change', channel=0, control=64, value=127, time=5),\n",
       "    Message('note_on', channel=0, note=81, velocity=0, time=43),\n",
       "    Message('note_on', channel=0, note=57, velocity=0, time=103),\n",
       "    Message('note_on', channel=0, note=81, velocity=83, time=2),\n",
       "    Message('note_on', channel=0, note=53, velocity=67, time=3),\n",
       "    Message('control_change', channel=0, control=64, value=116, time=18),\n",
       "    Message('control_change', channel=0, control=64, value=80, time=16),\n",
       "    Message('control_change', channel=0, control=64, value=49, time=19),\n",
       "    Message('control_change', channel=0, control=64, value=0, time=19),\n",
       "    Message('control_change', channel=0, control=64, value=32, time=70),\n",
       "    Message('note_on', channel=0, note=53, velocity=0, time=18),\n",
       "    Message('control_change', channel=0, control=64, value=63, time=1),\n",
       "    Message('note_on', channel=0, note=57, velocity=68, time=5),\n",
       "    Message('note_on', channel=0, note=77, velocity=85, time=1),\n",
       "    Message('control_change', channel=0, control=64, value=89, time=14),\n",
       "    Message('control_change', channel=0, control=64, value=127, time=17),\n",
       "    Message('note_on', channel=0, note=81, velocity=0, time=31),\n",
       "    Message('note_on', channel=0, note=53, velocity=67, time=92),\n",
       "    Message('note_on', channel=0, note=57, velocity=0, time=5),\n",
       "    Message('note_on', channel=0, note=74, velocity=81, time=4),\n",
       "    Message('note_on', channel=0, note=53, velocity=0, time=24),\n",
       "    Message('note_on', channel=0, note=77, velocity=0, time=2),\n",
       "    Message('note_on', channel=0, note=74, velocity=0, time=59),\n",
       "    Message('control_change', channel=0, control=64, value=101, time=77),\n",
       "    Message('control_change', channel=0, control=64, value=70, time=17),\n",
       "    Message('control_change', channel=0, control=64, value=39, time=19),\n",
       "    Message('control_change', channel=0, control=64, value=0, time=18),\n",
       "    Message('note_on', channel=0, note=52, velocity=73, time=23),\n",
       "    Message('note_on', channel=0, note=40, velocity=72, time=12),\n",
       "    Message('control_change', channel=0, control=64, value=23, time=3),\n",
       "    Message('note_on', channel=0, note=73, velocity=76, time=4),\n",
       "    Message('control_change', channel=0, control=64, value=56, time=14),\n",
       "    Message('control_change', channel=0, control=64, value=78, time=19),\n",
       "    Message('note_on', channel=0, note=76, velocity=77, time=14),\n",
       "    Message('control_change', channel=0, control=64, value=115, time=5),\n",
       "    Message('note_on', channel=0, note=40, velocity=0, time=9),\n",
       "    Message('note_on', channel=0, note=52, velocity=0, time=0),\n",
       "    Message('control_change', channel=0, control=64, value=127, time=10),\n",
       "    Message('note_on', channel=0, note=79, velocity=80, time=53),\n",
       "    Message('note_on', channel=0, note=82, velocity=86, time=57),\n",
       "    Message('control_change', channel=0, control=67, value=13, time=17),\n",
       "    Message('note_on', channel=0, note=79, velocity=0, time=80),\n",
       "    Message('note_on', channel=0, note=73, velocity=0, time=12),\n",
       "    Message('note_on', channel=0, note=76, velocity=0, time=24),\n",
       "    Message('note_on', channel=0, note=82, velocity=0, time=69),\n",
       "    Message('note_on', channel=0, note=61, velocity=76, time=5),\n",
       "    Message('note_on', channel=0, note=58, velocity=71, time=7),\n",
       "    Message('note_on', channel=0, note=52, velocity=69, time=2),\n",
       "    Message('note_on', channel=0, note=55, velocity=64, time=4),\n",
       "    Message('control_change', channel=0, control=67, value=17, time=18),\n",
       "    Message('note_on', channel=0, note=61, velocity=0, time=72),\n",
       "    Message('note_on', channel=0, note=52, velocity=0, time=4),\n",
       "    Message('control_change', channel=0, control=67, value=12, time=15),\n",
       "    Message('note_on', channel=0, note=55, velocity=0, time=8),\n",
       "    Message('note_on', channel=0, note=58, velocity=0, time=11),\n",
       "    Message('control_change', channel=0, control=67, value=8, time=52),\n",
       "    Message('polytouch', channel=0, note=76, value=0, time=9),\n",
       "    Message('note_on', channel=0, note=81, velocity=71, time=6),\n",
       "    Message('note_on', channel=0, note=79, velocity=77, time=73),\n",
       "    Message('control_change', channel=0, control=64, value=112, time=5),\n",
       "    Message('control_change', channel=0, control=64, value=89, time=18),\n",
       "    Message('control_change', channel=0, control=64, value=70, time=18),\n",
       "    Message('note_on', channel=0, note=81, velocity=0, time=9),\n",
       "    Message('control_change', channel=0, control=64, value=51, time=10),\n",
       "    Message('note_on', channel=0, note=77, velocity=78, time=18),\n",
       "    Message('control_change', channel=0, control=64, value=30, time=0),\n",
       "    Message('control_change', channel=0, control=64, value=0, time=20),\n",
       "    Message('note_on', channel=0, note=79, velocity=0, time=10),\n",
       "    Message('note_on', channel=0, note=76, velocity=84, time=51),\n",
       "    Message('note_on', channel=0, note=77, velocity=0, time=25),\n",
       "    Message('note_on', channel=0, note=76, velocity=0, time=43),\n",
       "    Message('note_on', channel=0, note=74, velocity=79, time=4),\n",
       "    Message('note_on', channel=0, note=74, velocity=0, time=79),\n",
       "    Message('note_on', channel=0, note=73, velocity=83, time=3),\n",
       "    Message('control_change', channel=0, control=67, value=12, time=43),\n",
       "    Message('note_on', channel=0, note=73, velocity=0, time=5),\n",
       "    Message('note_on', channel=0, note=82, velocity=83, time=28),\n",
       "    Message('note_on', channel=0, note=40, velocity=73, time=7),\n",
       "    Message('note_on', channel=0, note=52, velocity=72, time=3),\n",
       "    Message('control_change', channel=0, control=64, value=43, time=14),\n",
       "    Message('control_change', channel=0, control=67, value=16, time=2),\n",
       "    Message('control_change', channel=0, control=64, value=69, time=14),\n",
       "    Message('note_on', channel=0, note=40, velocity=0, time=9),\n",
       "    Message('control_change', channel=0, control=64, value=91, time=9),\n",
       "    Message('note_on', channel=0, note=52, velocity=0, time=13),\n",
       "    Message('control_change', channel=0, control=64, value=127, time=5),\n",
       "    Message('note_on', channel=0, note=82, velocity=0, time=162),\n",
       "    Message('note_on', channel=0, note=61, velocity=72, time=125),\n",
       "    Message('note_on', channel=0, note=52, velocity=67, time=1),\n",
       "    Message('note_on', channel=0, note=58, velocity=67, time=5),\n",
       "    Message('note_on', channel=0, note=55, velocity=59, time=9),\n",
       "    Message('note_on', channel=0, note=52, velocity=0, time=67),\n",
       "    Message('note_on', channel=0, note=61, velocity=0, time=4),\n",
       "    Message('note_on', channel=0, note=55, velocity=0, time=25),\n",
       "    Message('note_on', channel=0, note=58, velocity=0, time=5),\n",
       "    Message('note_on', channel=0, note=81, velocity=70, time=54),\n",
       "    Message('note_on', channel=0, note=79, velocity=74, time=73),\n",
       "    Message('note_on', channel=0, note=81, velocity=0, time=46),\n",
       "    Message('note_on', channel=0, note=77, velocity=78, time=24),\n",
       "    Message('note_on', channel=0, note=79, velocity=0, time=21),\n",
       "    Message('control_change', channel=0, control=64, value=110, time=2),\n",
       "    Message('control_change', channel=0, control=64, value=90, time=19),\n",
       "    Message('control_change', channel=0, control=64, value=70, time=18),\n",
       "    Message('control_change', channel=0, control=64, value=53, time=19),\n",
       "    Message('note_on', channel=0, note=76, velocity=78, time=10),\n",
       "    Message('note_on', channel=0, note=77, velocity=0, time=4),\n",
       "    Message('control_change', channel=0, control=64, value=42, time=4),\n",
       "    Message('control_change', channel=0, control=64, value=37, time=19),\n",
       "    Message('note_on', channel=0, note=76, velocity=0, time=33),\n",
       "    Message('note_on', channel=0, note=74, velocity=76, time=15),\n",
       "    Message('note_on', channel=0, note=74, velocity=0, time=40),\n",
       "    Message('note_on', channel=0, note=73, velocity=72, time=44),\n",
       "    Message('note_on', channel=0, note=73, velocity=0, time=36),\n",
       "    Message('control_change', channel=0, control=64, value=28, time=34),\n",
       "    Message('control_change', channel=0, control=64, value=14, time=18),\n",
       "    Message('note_on', channel=0, note=74, velocity=68, time=13),\n",
       "    Message('note_on', channel=0, note=53, velocity=55, time=3),\n",
       "    Message('control_change', channel=0, control=64, value=0, time=2),\n",
       "    Message('control_change', channel=0, control=64, value=33, time=93),\n",
       "    Message('control_change', channel=0, control=64, value=54, time=19),\n",
       "    Message('control_change', channel=0, control=64, value=68, time=19),\n",
       "    Message('control_change', channel=0, control=64, value=79, time=18),\n",
       "    Message('control_change', channel=0, control=64, value=93, time=18),\n",
       "    Message('note_on', channel=0, note=57, velocity=58, time=15),\n",
       "    Message('control_change', channel=0, control=64, value=110, time=2),\n",
       "    Message('control_change', channel=0, control=67, value=12, time=1),\n",
       "    Message('control_change', channel=0, control=64, value=127, time=18),\n",
       "    Message('note_on', channel=0, note=53, velocity=0, time=1),\n",
       "    Message('control_change', channel=0, control=67, value=8, time=125),\n",
       "    Message('note_on', channel=0, note=74, velocity=0, time=2),\n",
       "    Message('note_on', channel=0, note=57, velocity=0, time=18),\n",
       "    Message('note_on', channel=0, note=62, velocity=60, time=22),\n",
       "    Message('note_on', channel=0, note=62, velocity=0, time=131),\n",
       "    Message('note_on', channel=0, note=65, velocity=73, time=30),\n",
       "    Message('note_on', channel=0, note=57, velocity=59, time=5),\n",
       "    Message('control_change', channel=0, control=64, value=121, time=31),\n",
       "    Message('control_change', channel=0, control=64, value=91, time=20),\n",
       "    Message('control_change', channel=0, control=64, value=66, time=18),\n",
       "    Message('note_on', channel=0, note=69, velocity=76, time=7),\n",
       "    Message('control_change', channel=0, control=64, value=42, time=13),\n",
       "    Message('control_change', channel=0, control=64, value=35, time=15),\n",
       "    Message('note_on', channel=0, note=65, velocity=0, time=9),\n",
       "    Message('control_change', channel=0, control=64, value=43, time=9),\n",
       "    Message('control_change', channel=0, control=64, value=63, time=19),\n",
       "    Message('note_on', channel=0, note=62, velocity=62, time=4),\n",
       "    Message('note_on', channel=0, note=57, velocity=0, time=1),\n",
       "    Message('note_on', channel=0, note=74, velocity=77, time=8),\n",
       "    Message('control_change', channel=0, control=64, value=80, time=6),\n",
       "    Message('control_change', channel=0, control=64, value=111, time=19),\n",
       "    Message('note_on', channel=0, note=69, velocity=0, time=5),\n",
       "    Message('control_change', channel=0, control=64, value=127, time=12),\n",
       "    Message('note_on', channel=0, note=74, velocity=0, time=8),\n",
       "    Message('note_on', channel=0, note=62, velocity=0, time=96),\n",
       "    Message('note_on', channel=0, note=57, velocity=57, time=20),\n",
       "    Message('note_on', channel=0, note=69, velocity=77, time=11),\n",
       "    Message('control_change', channel=0, control=64, value=100, time=33),\n",
       "    Message('control_change', channel=0, control=64, value=67, time=19),\n",
       "    Message('control_change', channel=0, control=64, value=33, time=19),\n",
       "    Message('note_on', channel=0, note=74, velocity=80, time=13),\n",
       "    Message('control_change', channel=0, control=64, value=0, time=4),\n",
       "    Message('control_change', channel=0, control=64, value=21, time=39),\n",
       "    Message('note_on', channel=0, note=57, velocity=0, time=8),\n",
       "    Message('control_change', channel=0, control=64, value=55, time=12),\n",
       "    Message('note_on', channel=0, note=53, velocity=65, time=0),\n",
       "    Message('note_on', channel=0, note=69, velocity=0, time=1),\n",
       "    Message('note_on', channel=0, note=77, velocity=78, time=12),\n",
       "    Message('control_change', channel=0, control=64, value=78, time=4),\n",
       "    Message('control_change', channel=0, control=64, value=109, time=19),\n",
       "    Message('note_on', channel=0, note=74, velocity=0, time=10),\n",
       "    Message('control_change', channel=0, control=64, value=127, time=8),\n",
       "    Message('note_on', channel=0, note=77, velocity=0, time=34),\n",
       "    Message('note_on', channel=0, note=74, velocity=83, time=106),\n",
       "    Message('note_on', channel=0, note=57, velocity=65, time=11),\n",
       "    Message('control_change', channel=0, control=64, value=112, time=12),\n",
       "    Message('note_on', channel=0, note=53, velocity=0, time=14),\n",
       "    Message('control_change', channel=0, control=64, value=75, time=4),\n",
       "    Message('control_change', channel=0, control=64, value=40, time=20),\n",
       "    Message('control_change', channel=0, control=64, value=0, time=17),\n",
       "    Message('note_on', channel=0, note=77, velocity=81, time=5),\n",
       "    Message('control_change', channel=0, control=67, value=0, time=31),\n",
       "    Message('note_on', channel=0, note=74, velocity=0, time=9),\n",
       "    Message('control_change', channel=0, control=64, value=40, time=12),\n",
       "    Message('note_on', channel=0, note=81, velocity=82, time=9),\n",
       "    Message('note_on', channel=0, note=62, velocity=67, time=1),\n",
       "    Message('note_on', channel=0, note=57, velocity=0, time=6),\n",
       "    Message('control_change', channel=0, control=64, value=70, time=3),\n",
       "    Message('control_change', channel=0, control=64, value=96, time=14),\n",
       "    Message('note_on', channel=0, note=77, velocity=0, time=0),\n",
       "    Message('control_change', channel=0, control=64, value=127, time=7),\n",
       "    Message('note_on', channel=0, note=81, velocity=0, time=48),\n",
       "    Message('note_on', channel=0, note=62, velocity=0, time=81),\n",
       "    Message('note_on', channel=0, note=57, velocity=65, time=7),\n",
       "    Message('note_on', channel=0, note=81, velocity=85, time=7),\n",
       "    Message('control_change', channel=0, control=64, value=85, time=25),\n",
       "    Message('control_change', channel=0, control=64, value=54, time=16),\n",
       "    Message('control_change', channel=0, control=64, value=0, time=37),\n",
       "    Message('control_change', channel=0, control=64, value=20, time=39),\n",
       "    Message('control_change', channel=0, control=64, value=53, time=18),\n",
       "    Message('control_change', channel=0, control=64, value=76, time=18),\n",
       "    Message('note_on', channel=0, note=62, velocity=66, time=13),\n",
       "    Message('note_on', channel=0, note=57, velocity=0, time=1),\n",
       "    Message('note_on', channel=0, note=77, velocity=81, time=4),\n",
       "    Message('control_change', channel=0, control=64, value=102, time=1),\n",
       "    Message('control_change', channel=0, control=64, value=127, time=19),\n",
       "    Message('note_on', channel=0, note=81, velocity=0, time=40),\n",
       "    Message('note_on', channel=0, note=62, velocity=0, time=82),\n",
       "    Message('note_on', channel=0, note=57, velocity=66, time=10),\n",
       "    Message('note_on', channel=0, note=74, velocity=82, time=12),\n",
       "    Message('note_on', channel=0, note=57, velocity=0, time=17),\n",
       "    Message('note_on', channel=0, note=77, velocity=0, time=14),\n",
       "    Message('note_on', channel=0, note=74, velocity=0, time=34),\n",
       "    Message('control_change', channel=0, control=64, value=117, time=85),\n",
       "    Message('control_change', channel=0, control=67, value=8, time=1),\n",
       "    Message('control_change', channel=0, control=64, value=82, time=15),\n",
       "    Message('polytouch', channel=0, note=57, value=0, time=11),\n",
       "    Message('control_change', channel=0, control=64, value=51, time=8),\n",
       "    Message('control_change', channel=0, control=64, value=0, time=19),\n",
       "    Message('note_on', channel=0, note=80, velocity=81, time=34),\n",
       "    Message('note_on', channel=0, note=50, velocity=76, time=27),\n",
       "    Message('note_on', channel=0, note=77, velocity=74, time=0),\n",
       "    Message('note_on', channel=0, note=71, velocity=71, time=1),\n",
       "    Message('note_on', channel=0, note=74, velocity=77, time=4),\n",
       "    Message('note_on', channel=0, note=38, velocity=74, time=1),\n",
       "    Message('control_change', channel=0, control=64, value=25, time=3),\n",
       "    Message('control_change', channel=0, control=67, value=12, time=1),\n",
       "    Message('control_change', channel=0, control=64, value=59, time=19),\n",
       "    Message('control_change', channel=0, control=64, value=82, time=18),\n",
       "    Message('control_change', channel=0, control=64, value=120, time=19),\n",
       "    Message('note_on', channel=0, note=38, velocity=0, time=1),\n",
       "    Message('note_on', channel=0, note=50, velocity=0, time=8),\n",
       "    Message('control_change', channel=0, control=64, value=127, time=6),\n",
       "    Message('control_change', channel=0, control=67, value=0, time=39),\n",
       "    Message('note_on', channel=0, note=77, velocity=0, time=98),\n",
       "    Message('note_on', channel=0, note=80, velocity=0, time=79),\n",
       "    Message('control_change', channel=0, control=67, value=8, time=44),\n",
       "    Message('note_on', channel=0, note=59, velocity=75, time=10),\n",
       "    Message('note_on', channel=0, note=56, velocity=69, time=10),\n",
       "    Message('note_on', channel=0, note=50, velocity=69, time=4),\n",
       "    Message('note_on', channel=0, note=53, velocity=64, time=4),\n",
       "    Message('note_on', channel=0, note=59, velocity=0, time=134),\n",
       "    Message('note_on', channel=0, note=71, velocity=0, time=13),\n",
       "    Message('note_on', channel=0, note=50, velocity=0, time=6),\n",
       "    Message('note_on', channel=0, note=56, velocity=0, time=21),\n",
       "    Message('note_on', channel=0, note=53, velocity=0, time=12),\n",
       "    Message('note_on', channel=0, note=79, velocity=69, time=1),\n",
       "    Message('polytouch', channel=0, note=74, value=24, time=7),\n",
       "    Message('note_on', channel=0, note=74, velocity=0, time=10),\n",
       "    Message('control_change', channel=0, control=67, value=0, time=6),\n",
       "    Message('control_change', channel=0, control=64, value=123, time=21),\n",
       "    Message('control_change', channel=0, control=64, value=98, time=15),\n",
       "    Message('control_change', channel=0, control=64, value=77, time=20),\n",
       "    Message('note_on', channel=0, note=77, velocity=73, time=8),\n",
       "    Message('control_change', channel=0, control=64, value=58, time=10),\n",
       "    Message('control_change', channel=0, control=64, value=38, time=20),\n",
       "    Message('control_change', channel=0, control=64, value=16, time=15),\n",
       "    Message('note_on', channel=0, note=79, velocity=0, time=9),\n",
       "    Message('control_change', channel=0, control=64, value=0, time=11),\n",
       "    Message('note_on', channel=0, note=75, velocity=81, time=8),\n",
       "    Message('note_on', channel=0, note=77, velocity=0, time=28),\n",
       "    Message('note_on', channel=0, note=74, velocity=80, time=57),\n",
       "    Message('note_on', channel=0, note=75, velocity=0, time=38),\n",
       "    Message('note_on', channel=0, note=74, velocity=0, time=28),\n",
       "    Message('polytouch', channel=0, note=42, value=0, time=3),\n",
       "    Message('note_on', channel=0, note=72, velocity=77, time=0),\n",
       "    Message('note_on', channel=0, note=71, velocity=80, time=92),\n",
       "    Message('note_on', channel=0, note=72, velocity=0, time=3),\n",
       "    Message('note_on', channel=0, note=71, velocity=0, time=34),\n",
       "    Message('note_on', channel=0, note=80, velocity=86, time=52),\n",
       "    Message('control_change', channel=0, control=64, value=11, time=4),\n",
       "    Message('note_on', channel=0, note=38, velocity=74, time=3),\n",
       "    Message('note_on', channel=0, note=50, velocity=73, time=6),\n",
       "    Message('control_change', channel=0, control=64, value=44, time=11),\n",
       "    Message('control_change', channel=0, control=67, value=8, time=1),\n",
       "    Message('control_change', channel=0, control=64, value=68, time=15),\n",
       "    Message('note_on', channel=0, note=38, velocity=0, time=8),\n",
       "    Message('note_on', channel=0, note=50, velocity=0, time=7),\n",
       "    Message('control_change', channel=0, control=64, value=88, time=5),\n",
       "    Message('control_change', channel=0, control=67, value=13, time=1),\n",
       "    Message('control_change', channel=0, control=64, value=127, time=16),\n",
       "    Message('control_change', channel=0, control=67, value=19, time=19),\n",
       "    Message('control_change', channel=0, control=67, value=25, time=38),\n",
       "    Message('control_change', channel=0, control=67, value=31, time=37),\n",
       "    Message('control_change', channel=0, control=67, value=35, time=18),\n",
       "    Message('control_change', channel=0, control=67, value=39, time=18),\n",
       "    Message('control_change', channel=0, control=67, value=43, time=17),\n",
       "    Message('control_change', channel=0, control=67, value=48, time=21),\n",
       "    Message('control_change', channel=0, control=67, value=53, time=16),\n",
       "    Message('note_on', channel=0, note=80, velocity=0, time=3),\n",
       "    Message('control_change', channel=0, control=67, value=59, time=16),\n",
       "    Message('control_change', channel=0, control=67, value=64, time=18),\n",
       "    Message('control_change', channel=0, control=67, value=69, time=19),\n",
       "    Message('control_change', channel=0, control=67, value=75, time=19),\n",
       "    Message('note_on', channel=0, note=59, velocity=77, time=6),\n",
       "    Message('control_change', channel=0, control=67, value=80, time=10),\n",
       "    Message('note_on', channel=0, note=50, velocity=70, time=0),\n",
       "    Message('note_on', channel=0, note=56, velocity=70, time=1),\n",
       "    Message('note_on', channel=0, note=53, velocity=66, time=3),\n",
       "    Message('control_change', channel=0, control=67, value=86, time=14),\n",
       "    Message('control_change', channel=0, control=67, value=91, time=20),\n",
       "    Message('control_change', channel=0, control=67, value=96, time=18),\n",
       "    Message('control_change', channel=0, control=67, value=100, time=19),\n",
       "    Message('note_on', channel=0, note=59, velocity=0, time=10),\n",
       "    Message('note_on', channel=0, note=50, velocity=0, time=4),\n",
       "    Message('control_change', channel=0, control=67, value=105, time=24),\n",
       "    Message('note_on', channel=0, note=56, velocity=0, time=16),\n",
       "    Message('note_on', channel=0, note=53, velocity=0, time=10),\n",
       "    Message('control_change', channel=0, control=67, value=110, time=48),\n",
       "    Message('note_on', channel=0, note=79, velocity=72, time=12),\n",
       "    Message('control_change', channel=0, control=67, value=119, time=22),\n",
       "    Message('control_change', channel=0, control=67, value=126, time=18),\n",
       "    Message('control_change', channel=0, control=64, value=122, time=20),\n",
       "    Message('control_change', channel=0, control=64, value=106, time=19),\n",
       "    Message('note_on', channel=0, note=77, velocity=74, time=0),\n",
       "    Message('control_change', channel=0, control=64, value=90, time=18),\n",
       "    Message('control_change', channel=0, control=64, value=75, time=19),\n",
       "    Message('note_on', channel=0, note=79, velocity=0, time=16),\n",
       "    Message('control_change', channel=0, control=64, value=61, time=1),\n",
       "    Message('control_change', channel=0, control=64, value=50, time=20),\n",
       "    Message('note_on', channel=0, note=75, velocity=77, time=9),\n",
       "    Message('control_change', channel=0, control=64, value=44, time=8),\n",
       "    Message('note_on', channel=0, note=77, velocity=0, time=13),\n",
       "    Message('control_change', channel=0, control=64, value=39, time=5),\n",
       "    Message('note_on', channel=0, note=74, velocity=76, time=53),\n",
       "    Message('control_change', channel=0, control=64, value=34, time=3),\n",
       "    Message('note_on', channel=0, note=75, velocity=0, time=55),\n",
       "    Message('note_on', channel=0, note=74, velocity=0, time=23),\n",
       "    Message('note_on', channel=0, note=72, velocity=72, time=2),\n",
       "    Message('note_on', channel=0, note=72, velocity=0, time=61),\n",
       "    Message('note_on', channel=0, note=71, velocity=71, time=22),\n",
       "    Message('control_change', channel=0, control=64, value=28, time=0),\n",
       "    Message('control_change', channel=0, control=64, value=24, time=36),\n",
       "    Message('note_on', channel=0, note=71, velocity=0, time=4),\n",
       "    Message('control_change', channel=0, control=64, value=19, time=33),\n",
       "    Message('control_change', channel=0, control=64, value=15, time=18),\n",
       "    Message('note_on', channel=0, note=72, velocity=72, time=8),\n",
       "    Message('note_on', channel=0, note=51, velocity=53, time=7),\n",
       "    Message('control_change', channel=0, control=64, value=10, time=4),\n",
       "    Message('note_on', channel=0, note=55, velocity=56, time=173),\n",
       "    Message('note_on', channel=0, note=51, velocity=0, time=5),\n",
       "    Message('control_change', channel=0, control=64, value=0, time=27),\n",
       "    Message('note_on', channel=0, note=55, velocity=0, time=105),\n",
       "    Message('note_on', channel=0, note=60, velocity=53, time=29),\n",
       "    Message('note_on', channel=0, note=72, velocity=0, time=59),\n",
       "    Message('note_on', channel=0, note=67, velocity=60, time=22),\n",
       "    Message('note_on', channel=0, note=60, velocity=0, time=59),\n",
       "    Message('note_on', channel=0, note=67, velocity=0, time=3),\n",
       "    Message('note_on', channel=0, note=55, velocity=54, time=17),\n",
       "    Message('note_on', channel=0, note=72, velocity=68, time=15),\n",
       "    Message('note_on', channel=0, note=72, velocity=0, time=58),\n",
       "    Message('note_on', channel=0, note=67, velocity=69, time=7),\n",
       "    Message('note_on', channel=0, note=75, velocity=68, time=69),\n",
       "    Message('note_on', channel=0, note=55, velocity=0, time=14),\n",
       "    Message('note_on', channel=0, note=67, velocity=0, time=27),\n",
       "    Message('note_on', channel=0, note=60, velocity=57, time=3),\n",
       "    Message('note_on', channel=0, note=72, velocity=74, time=49),\n",
       "    Message('note_on', channel=0, note=75, velocity=0, time=0),\n",
       "    Message('note_on', channel=0, note=75, velocity=74, time=90),\n",
       "    Message('note_on', channel=0, note=72, velocity=0, time=3),\n",
       "    Message('note_on', channel=0, note=60, velocity=0, time=1),\n",
       "    Message('note_on', channel=0, note=55, velocity=59, time=6),\n",
       "    Message('note_on', channel=0, note=75, velocity=0, time=45),\n",
       "    Message('note_on', channel=0, note=72, velocity=68, time=27),\n",
       "    Message('note_on', channel=0, note=55, velocity=0, time=71),\n",
       "    Message('note_on', channel=0, note=79, velocity=74, time=9),\n",
       "    Message('note_on', channel=0, note=51, velocity=57, time=17),\n",
       "    Message('note_on', channel=0, note=72, velocity=0, time=1),\n",
       "    Message('note_on', channel=0, note=79, velocity=0, time=60),\n",
       "    Message('note_on', channel=0, note=75, velocity=71, time=4),\n",
       "    Message('note_on', channel=0, note=55, velocity=53, time=82),\n",
       "    Message('note_on', channel=0, note=51, velocity=0, time=0),\n",
       "    Message('note_on', channel=0, note=75, velocity=0, time=7),\n",
       "    Message('note_on', channel=0, note=79, velocity=72, time=8),\n",
       "    Message('note_on', channel=0, note=79, velocity=0, time=74),\n",
       "    Message('note_on', channel=0, note=75, velocity=68, time=10),\n",
       "    Message('note_on', channel=0, note=75, velocity=0, time=34),\n",
       "    Message('note_on', channel=0, note=55, velocity=0, time=10),\n",
       "    Message('note_on', channel=0, note=60, velocity=55, time=24),\n",
       "    Message('note_on', channel=0, note=84, velocity=74, time=16),\n",
       "    Message('note_on', channel=0, note=75, velocity=18, time=80),\n",
       "    Message('note_on', channel=0, note=75, velocity=0, time=0),\n",
       "    Message('note_on', channel=0, note=60, velocity=0, time=68),\n",
       "    Message('note_on', channel=0, note=55, velocity=60, time=8),\n",
       "    Message('note_on', channel=0, note=84, velocity=0, time=168),\n",
       "    Message('note_on', channel=0, note=55, velocity=0, time=16),\n",
       "    Message('note_on', channel=0, note=60, velocity=61, time=10),\n",
       "    Message('note_on', channel=0, note=55, velocity=61, time=159),\n",
       "    Message('note_on', channel=0, note=60, velocity=0, time=8),\n",
       "    Message('note_on', channel=0, note=55, velocity=0, time=157),\n",
       "    Message('note_on', channel=0, note=48, velocity=61, time=23),\n",
       "    Message('note_on', channel=0, note=72, velocity=77, time=2),\n",
       "    Message('note_on', channel=0, note=51, velocity=60, time=156),\n",
       "    Message('note_on', channel=0, note=48, velocity=0, time=9),\n",
       "    Message('note_on', channel=0, note=56, velocity=63, time=163),\n",
       "    Message('note_on', channel=0, note=51, velocity=0, time=2),\n",
       "    Message('note_on', channel=0, note=72, velocity=0, time=61),\n",
       "    Message('note_on', channel=0, note=68, velocity=69, time=19),\n",
       "    Message('note_on', channel=0, note=56, velocity=0, time=78),\n",
       "    Message('note_on', channel=0, note=68, velocity=0, time=3),\n",
       "    Message('note_on', channel=0, note=51, velocity=63, time=26),\n",
       "    Message('note_on', channel=0, note=72, velocity=70, time=2),\n",
       "    Message('note_on', channel=0, note=68, velocity=70, time=61),\n",
       "    Message('note_on', channel=0, note=72, velocity=0, time=17),\n",
       "    Message('note_on', channel=0, note=51, velocity=0, time=70),\n",
       "    Message('note_on', channel=0, note=68, velocity=0, time=0),\n",
       "    Message('note_on', channel=0, note=75, velocity=74, time=1),\n",
       "    Message('note_on', channel=0, note=56, velocity=63, time=6),\n",
       "    Message('note_on', channel=0, note=72, velocity=76, time=72),\n",
       "    Message('note_on', channel=0, note=75, velocity=0, time=8),\n",
       "    Message('note_on', channel=0, note=56, velocity=0, time=57),\n",
       "    Message('note_on', channel=0, note=51, velocity=68, time=4),\n",
       "    Message('note_on', channel=0, note=75, velocity=75, time=33),\n",
       "    Message('note_on', channel=0, note=72, velocity=0, time=2),\n",
       "    Message('note_on', channel=0, note=75, velocity=0, time=38),\n",
       "    Message('note_on', channel=0, note=72, velocity=67, time=14),\n",
       "    Message('note_on', channel=0, note=51, velocity=0, time=61),\n",
       "    Message('note_on', channel=0, note=48, velocity=63, time=23),\n",
       "    Message('note_on', channel=0, note=80, velocity=75, time=3),\n",
       "    Message('note_on', channel=0, note=72, velocity=0, time=24),\n",
       "    Message('note_on', channel=0, note=75, velocity=71, time=55),\n",
       "    Message('note_on', channel=0, note=80, velocity=0, time=5),\n",
       "    Message('note_on', channel=0, note=48, velocity=0, time=66),\n",
       "    Message('note_on', channel=0, note=51, velocity=59, time=5),\n",
       "    Message('note_on', channel=0, note=75, velocity=0, time=15),\n",
       "    Message('note_on', channel=0, note=80, velocity=74, time=3),\n",
       "    Message('note_on', channel=0, note=75, velocity=64, time=93),\n",
       "    Message('note_on', channel=0, note=80, velocity=0, time=2),\n",
       "    Message('note_on', channel=0, note=75, velocity=0, time=21),\n",
       "    Message('note_on', channel=0, note=51, velocity=0, time=6),\n",
       "    Message('note_on', channel=0, note=56, velocity=64, time=20),\n",
       "    Message('note_on', channel=0, note=84, velocity=74, time=24),\n",
       "    Message('note_on', channel=0, note=56, velocity=0, time=169),\n",
       "    Message('note_on', channel=0, note=51, velocity=59, time=9),\n",
       "    Message('note_on', channel=0, note=84, velocity=0, time=128),\n",
       "    Message('note_on', channel=0, note=56, velocity=66, time=30),\n",
       "    Message('note_on', channel=0, note=51, velocity=0, time=8),\n",
       "    Message('note_on', channel=0, note=51, velocity=65, time=153),\n",
       "    Message('note_on', channel=0, note=56, velocity=0, time=12),\n",
       "    Message('note_on', channel=0, note=44, velocity=68, time=164),\n",
       "    Message('note_on', channel=0, note=72, velocity=81, time=1),\n",
       "    Message('note_on', channel=0, note=51, velocity=0, time=6),\n",
       "    Message('note_on', channel=0, note=48, velocity=68, time=152),\n",
       "    Message('note_on', channel=0, note=44, velocity=0, time=9),\n",
       "    Message('note_on', channel=0, note=48, velocity=0, time=132),\n",
       "    Message('note_on', channel=0, note=51, velocity=69, time=22),\n",
       "    Message('note_on', channel=0, note=72, velocity=0, time=90),\n",
       "    Message('note_on', channel=0, note=66, velocity=70, time=5),\n",
       "    Message('note_on', channel=0, note=51, velocity=0, time=66),\n",
       "    Message('note_on', channel=0, note=66, velocity=0, time=12),\n",
       "    Message('note_on', channel=0, note=48, velocity=67, time=6),\n",
       "    Message('note_on', channel=0, note=72, velocity=72, time=18),\n",
       "    Message('note_on', channel=0, note=66, velocity=73, time=66),\n",
       "    Message('note_on', channel=0, note=72, velocity=0, time=14),\n",
       "    Message('note_on', channel=0, note=48, velocity=0, time=32),\n",
       "    Message('note_on', channel=0, note=51, velocity=69, time=14),\n",
       "    Message('note_on', channel=0, note=75, velocity=71, time=3),\n",
       "    Message('note_on', channel=0, note=66, velocity=0, time=14),\n",
       "    Message('note_on', channel=0, note=72, velocity=77, time=66),\n",
       "    Message('note_on', channel=0, note=75, velocity=0, time=1),\n",
       "    Message('note_on', channel=0, note=51, velocity=0, time=53),\n",
       "    Message('note_on', channel=0, note=48, velocity=64, time=26),\n",
       "    Message('note_on', channel=0, note=75, velocity=78, time=9),\n",
       "    Message('note_on', channel=0, note=72, velocity=0, time=5),\n",
       "    Message('note_on', channel=0, note=75, velocity=0, time=50),\n",
       "    Message('note_on', channel=0, note=72, velocity=78, time=22),\n",
       "    Message('note_on', channel=0, note=48, velocity=0, time=66),\n",
       "    Message('note_on', channel=0, note=44, velocity=73, time=12),\n",
       "    Message('note_on', channel=0, note=78, velocity=75, time=12),\n",
       "    Message('note_on', channel=0, note=72, velocity=0, time=26),\n",
       "    Message('note_on', channel=0, note=75, velocity=77, time=38),\n",
       "    Message('note_on', channel=0, note=78, velocity=0, time=10),\n",
       "    Message('note_on', channel=0, note=48, velocity=70, time=61),\n",
       "    Message('note_on', channel=0, note=44, velocity=0, time=6),\n",
       "    Message('note_on', channel=0, note=78, velocity=83, time=8),\n",
       "    Message('note_on', channel=0, note=75, velocity=0, time=6),\n",
       "    Message('note_on', channel=0, note=75, velocity=77, time=82),\n",
       "    Message('note_on', channel=0, note=78, velocity=0, time=5),\n",
       "    Message('note_on', channel=0, note=75, velocity=0, time=22),\n",
       "    Message('note_on', channel=0, note=48, velocity=0, time=14),\n",
       "    Message('note_on', channel=0, note=51, velocity=71, time=30),\n",
       "    Message('note_on', channel=0, note=84, velocity=90, time=2),\n",
       "    Message('note_on', channel=0, note=75, velocity=10, time=59),\n",
       "    Message('note_on', channel=0, note=75, velocity=0, time=69),\n",
       "    Message('note_on', channel=0, note=51, velocity=0, time=55),\n",
       "    Message('note_on', channel=0, note=48, velocity=68, time=9),\n",
       "    Message('control_change', channel=0, control=64, value=27, time=144),\n",
       "    Message('note_on', channel=0, note=48, velocity=0, time=6),\n",
       "    Message('control_change', channel=0, control=64, value=55, time=11),\n",
       "    Message('note_on', channel=0, note=78, velocity=85, time=1),\n",
       "    Message('note_on', channel=0, note=51, velocity=65, time=3),\n",
       "    Message('control_change', channel=0, control=64, value=72, time=16),\n",
       "    Message('control_change', channel=0, control=64, value=89, time=19),\n",
       "    Message('note_on', channel=0, note=84, velocity=0, time=8),\n",
       "    Message('control_change', channel=0, control=64, value=118, time=10),\n",
       "    Message('control_change', channel=0, control=64, value=127, time=17),\n",
       "    Message('note_on', channel=0, note=78, velocity=0, time=6),\n",
       "    Message('note_on', channel=0, note=51, velocity=0, time=52),\n",
       "    Message('note_on', channel=0, note=48, velocity=71, time=32),\n",
       "    Message('control_change', channel=0, control=64, value=104, time=151),\n",
       "    Message('note_on', channel=0, note=48, velocity=0, time=10),\n",
       "    Message('note_on', channel=0, note=67, velocity=76, time=1),\n",
       "    Message('control_change', channel=0, control=64, value=80, time=6),\n",
       "    Message('note_on', channel=0, note=43, velocity=72, time=3),\n",
       "    Message('control_change', channel=0, control=64, value=59, time=17),\n",
       "    Message('control_change', channel=0, control=64, value=37, time=16),\n",
       "    Message('note_on', channel=0, note=71, velocity=81, time=14),\n",
       "    Message('control_change', channel=0, control=64, value=14, time=3),\n",
       "    Message('note_on', channel=0, note=67, velocity=0, time=12),\n",
       "    Message('control_change', channel=0, control=64, value=0, time=7),\n",
       "    Message('note_on', channel=0, note=74, velocity=79, time=41),\n",
       "    Message('note_on', channel=0, note=71, velocity=0, time=41),\n",
       "    Message('note_on', channel=0, note=79, velocity=81, time=12),\n",
       "    Message('note_on', channel=0, note=74, velocity=0, time=18),\n",
       "    Message('note_on', channel=0, note=47, velocity=68, time=0),\n",
       "    Message('note_on', channel=0, note=43, velocity=0, time=20),\n",
       "    Message('note_on', channel=0, note=50, velocity=70, time=169),\n",
       "    Message('note_on', channel=0, note=47, velocity=0, time=12),\n",
       "    Message('control_change', channel=0, control=67, value=122, time=34),\n",
       "    Message('control_change', channel=0, control=67, value=118, time=38),\n",
       "    Message('control_change', channel=0, control=67, value=112, time=19),\n",
       "    Message('control_change', channel=0, control=67, value=104, time=18),\n",
       "    Message('control_change', channel=0, control=67, value=97, time=17),\n",
       "    Message('control_change', channel=0, control=67, value=91, time=20),\n",
       "    Message('note_on', channel=0, note=55, velocity=69, time=1),\n",
       "    Message('note_on', channel=0, note=50, velocity=0, time=3),\n",
       "    Message('control_change', channel=0, control=67, value=87, time=70),\n",
       "    Message('note_on', channel=0, note=79, velocity=0, time=14),\n",
       "    Message('control_change', channel=0, control=67, value=80, time=42),\n",
       "    Message('control_change', channel=0, control=67, value=76, time=17),\n",
       "    Message('note_on', channel=0, note=55, velocity=0, time=6),\n",
       "    Message('control_change', channel=0, control=67, value=68, time=12),\n",
       "    Message('note_on', channel=0, note=77, velocity=81, time=1),\n",
       "    Message('note_on', channel=0, note=48, velocity=67, time=12),\n",
       "    Message('control_change', channel=0, control=67, value=58, time=3),\n",
       "    Message('control_change', channel=0, control=67, value=46, time=19),\n",
       "    Message('control_change', channel=0, control=67, value=32, time=16),\n",
       "    Message('control_change', channel=0, control=67, value=20, time=19),\n",
       "    Message('note_on', channel=0, note=75, velocity=81, time=17),\n",
       "    Message('control_change', channel=0, control=67, value=10, time=0),\n",
       "    Message('control_change', channel=0, control=67, value=0, time=20),\n",
       "    Message('note_on', channel=0, note=77, velocity=0, time=17),\n",
       "    Message('note_on', channel=0, note=48, velocity=0, time=25),\n",
       "    Message('note_on', channel=0, note=51, velocity=65, time=9),\n",
       "    Message('note_on', channel=0, note=74, velocity=80, time=0),\n",
       "    Message('note_on', channel=0, note=72, velocity=82, time=67),\n",
       "    Message('note_on', channel=0, note=75, velocity=0, time=6),\n",
       "    Message('note_on', channel=0, note=74, velocity=0, time=13),\n",
       "    Message('note_on', channel=0, note=51, velocity=0, time=22),\n",
       "    Message('note_on', channel=0, note=72, velocity=0, time=26),\n",
       "    Message('note_on', channel=0, note=79, velocity=87, time=31),\n",
       "    Message('note_on', channel=0, note=43, velocity=78, time=2),\n",
       "    Message('note_on', channel=0, note=47, velocity=74, time=193),\n",
       "    Message('note_on', channel=0, note=43, velocity=0, time=58),\n",
       "    Message('note_on', channel=0, note=50, velocity=78, time=114),\n",
       "    Message('note_on', channel=0, note=47, velocity=0, time=38),\n",
       "    Message('note_on', channel=0, note=55, velocity=72, time=128),\n",
       "    Message('note_on', channel=0, note=50, velocity=0, time=12),\n",
       "    Message('note_on', channel=0, note=79, velocity=0, time=136),\n",
       "    Message('note_on', channel=0, note=55, velocity=0, time=10),\n",
       "    Message('note_on', channel=0, note=77, velocity=76, time=18),\n",
       "    Message('note_on', channel=0, note=48, velocity=76, time=4),\n",
       "    Message('note_on', channel=0, note=75, velocity=80, time=79),\n",
       "    Message('note_on', channel=0, note=77, velocity=0, time=40),\n",
       "    Message('note_on', channel=0, note=48, velocity=0, time=22),\n",
       "    Message('note_on', channel=0, note=51, velocity=69, time=10),\n",
       "    Message('note_on', channel=0, note=74, velocity=81, time=9),\n",
       "    Message('note_on', channel=0, note=75, velocity=0, time=48),\n",
       "    Message('note_on', channel=0, note=72, velocity=77, time=26),\n",
       "    Message('note_on', channel=0, note=74, velocity=0, time=7),\n",
       "    Message('note_on', channel=0, note=51, velocity=0, time=27),\n",
       "    Message('note_on', channel=0, note=72, velocity=0, time=24),\n",
       "    Message('note_on', channel=0, note=79, velocity=82, time=48),\n",
       "    Message('note_on', channel=0, note=43, velocity=72, time=14),\n",
       "    Message('note_on', channel=0, note=55, velocity=70, time=2),\n",
       "    Message('control_change', channel=0, control=64, value=31, time=40),\n",
       "    Message('control_change', channel=0, control=64, value=70, time=30),\n",
       "    Message('control_change', channel=0, control=64, value=93, time=20),\n",
       "    Message('note_on', channel=0, note=43, velocity=0, time=17),\n",
       "    Message('note_on', channel=0, note=55, velocity=0, time=1),\n",
       "    Message('control_change', channel=0, control=64, value=127, time=0),\n",
       "    Message('note_on', channel=0, note=79, velocity=0, time=35),\n",
       "    Message('control_change', channel=0, control=67, value=8, time=131),\n",
       "    Message('control_change', channel=0, control=67, value=12, time=127),\n",
       "    Message('note_on', channel=0, note=56, velocity=67, time=84),\n",
       "    Message('note_on', channel=0, note=80, velocity=77, time=1),\n",
       "    Message('control_change', channel=0, control=67, value=16, time=8),\n",
       "    Message('control_change', channel=0, control=64, value=119, time=19),\n",
       "    Message('control_change', channel=0, control=64, value=95, time=19),\n",
       "    Message('note_on', channel=0, note=56, velocity=0, time=12),\n",
       "    Message('control_change', channel=0, control=64, value=74, time=0),\n",
       "    Message('note_on', channel=0, note=55, velocity=75, time=0),\n",
       "    Message('control_change', channel=0, control=64, value=55, time=16),\n",
       "    Message('note_on', channel=0, note=79, velocity=75, time=7),\n",
       "    Message('control_change', channel=0, control=64, value=38, time=12),\n",
       "    Message('control_change', channel=0, control=64, value=20, time=20),\n",
       "    Message('note_on', channel=0, note=80, velocity=0, time=6),\n",
       "    Message('note_on', channel=0, note=53, velocity=81, time=28),\n",
       "    Message('control_change', channel=0, control=64, value=0, time=3),\n",
       "    Message('note_on', channel=0, note=77, velocity=82, time=4),\n",
       "    Message('note_on', channel=0, note=55, velocity=0, time=2),\n",
       "    Message('note_on', channel=0, note=79, velocity=0, time=3),\n",
       "    Message('note_on', channel=0, note=77, velocity=0, time=69),\n",
       "    Message('note_on', channel=0, note=51, velocity=80, time=3),\n",
       "    Message('note_on', channel=0, note=75, velocity=84, time=0),\n",
       "    Message('control_change', channel=0, control=67, value=12, time=29),\n",
       "    Message('note_on', channel=0, note=53, velocity=0, time=2),\n",
       "    Message('control_change', channel=0, control=67, value=8, time=33),\n",
       "    Message('note_on', channel=0, note=74, velocity=82, time=14),\n",
       "    Message('note_on', channel=0, note=51, velocity=0, time=3),\n",
       "    Message('note_on', channel=0, note=50, velocity=74, time=2),\n",
       "    Message('note_on', channel=0, note=75, velocity=0, time=26),\n",
       "    Message('control_change', channel=0, control=67, value=0, time=30),\n",
       "    Message('note_on', channel=0, note=74, velocity=0, time=10),\n",
       "    Message('note_on', channel=0, note=72, velocity=82, time=8),\n",
       "    Message('note_on', channel=0, note=50, velocity=0, time=1),\n",
       "    Message('note_on', channel=0, note=48, velocity=72, time=2),\n",
       "    Message('note_on', channel=0, note=48, velocity=0, time=44),\n",
       "    Message('note_on', channel=0, note=72, velocity=0, time=2),\n",
       "    Message('note_on', channel=0, note=79, velocity=85, time=41),\n",
       "    Message('note_on', channel=0, note=55, velocity=80, time=10),\n",
       "    Message('note_on', channel=0, note=55, velocity=0, time=68),\n",
       "    Message('note_on', channel=0, note=79, velocity=0, time=5),\n",
       "    Message('control_change', channel=0, control=67, value=12, time=82),\n",
       "    Message('control_change', channel=0, control=67, value=17, time=35),\n",
       "    Message('control_change', channel=0, control=67, value=22, time=111),\n",
       "    Message('control_change', channel=0, control=67, value=27, time=18),\n",
       "    Message('control_change', channel=0, control=67, value=33, time=18),\n",
       "    Message('polytouch', channel=0, note=75, value=127, time=17),\n",
       "    Message('control_change', channel=0, control=64, value=24, time=1),\n",
       "    Message('control_change', channel=0, control=67, value=40, time=1),\n",
       "    Message('control_change', channel=0, control=64, value=40, time=18),\n",
       "    Message('control_change', channel=0, control=67, value=46, time=2),\n",
       "    Message('control_change', channel=0, control=64, value=53, time=17),\n",
       "    Message('control_change', channel=0, control=67, value=52, time=1),\n",
       "    Message('note_on', channel=0, note=67, velocity=63, time=15),\n",
       "    Message('control_change', channel=0, control=64, value=63, time=2),\n",
       "    Message('control_change', channel=0, control=67, value=59, time=1),\n",
       "    Message('polytouch', channel=0, note=75, value=0, time=8),\n",
       "    Message('note_on', channel=0, note=43, velocity=58, time=4),\n",
       "    Message('control_change', channel=0, control=64, value=72, time=6),\n",
       "    Message('control_change', channel=0, control=67, value=66, time=1),\n",
       "    Message('control_change', channel=0, control=64, value=84, time=18),\n",
       "    Message('control_change', channel=0, control=67, value=75, time=3),\n",
       "    Message('control_change', channel=0, control=64, value=105, time=16),\n",
       "    Message('control_change', channel=0, control=67, value=84, time=2),\n",
       "    Message('note_on', channel=0, note=43, velocity=0, time=9),\n",
       "    Message('note_on', channel=0, note=67, velocity=0, time=3),\n",
       "    Message('control_change', channel=0, control=64, value=127, time=3),\n",
       "    Message('control_change', channel=0, control=67, value=93, time=0),\n",
       "    Message('control_change', channel=0, control=67, value=101, time=18),\n",
       "    Message('control_change', channel=0, control=67, value=105, time=19),\n",
       "    Message('control_change', channel=0, control=67, value=109, time=38),\n",
       "    Message('control_change', channel=0, control=67, value=117, time=37),\n",
       "    Message('control_change', channel=0, control=67, value=123, time=19),\n",
       "    Message('control_change', channel=0, control=67, value=127, time=17),\n",
       "    Message('control_change', channel=0, control=64, value=114, time=257),\n",
       "    Message('control_change', channel=0, control=64, value=93, time=20),\n",
       "    Message('control_change', channel=0, control=64, value=73, time=19),\n",
       "    Message('control_change', channel=0, control=64, value=53, time=31),\n",
       "    Message('control_change', channel=0, control=64, value=34, time=19),\n",
       "    Message('control_change', channel=0, control=64, value=16, time=19),\n",
       "    Message('note_on', channel=0, note=48, velocity=58, time=154),\n",
       "    Message('note_on', channel=0, note=67, velocity=56, time=59),\n",
       "    Message('control_change', channel=0, control=64, value=0, time=7),\n",
       "    Message('note_on', channel=0, note=55, velocity=63, time=15),\n",
       "    Message('note_on', channel=0, note=48, velocity=0, time=3),\n",
       "    Message('note_on', channel=0, note=67, velocity=0, time=59),\n",
       "    Message('note_on', channel=0, note=76, velocity=69, time=2),\n",
       "    Message('note_on', channel=0, note=60, velocity=65, time=22),\n",
       "    Message('note_on', channel=0, note=55, velocity=0, time=0),\n",
       "    Message('note_on', channel=0, note=76, velocity=0, time=63),\n",
       "    Message('note_on', channel=0, note=76, velocity=69, time=294),\n",
       "    Message('note_on', channel=0, note=60, velocity=0, time=64),\n",
       "    Message('note_on', channel=0, note=76, velocity=0, time=8),\n",
       "    Message('note_on', channel=0, note=76, velocity=71, time=284),\n",
       "    Message('note_on', channel=0, note=76, velocity=0, time=80),\n",
       "    Message('note_on', channel=0, note=55, velocity=55, time=45),\n",
       "    Message('note_on', channel=0, note=62, velocity=62, time=81),\n",
       "    Message('note_on', channel=0, note=55, velocity=0, time=22),\n",
       "    Message('note_on', channel=0, note=71, velocity=57, time=50),\n",
       "    Message('note_on', channel=0, note=65, velocity=60, time=0),\n",
       "    Message('note_on', channel=0, note=62, velocity=0, time=21),\n",
       "    Message('note_on', channel=0, note=79, velocity=68, time=59),\n",
       "    Message('note_on', channel=0, note=71, velocity=0, time=23),\n",
       "    Message('control_change', channel=0, control=64, value=29, time=183),\n",
       "    Message('control_change', channel=0, control=64, value=53, time=18),\n",
       "    Message('control_change', channel=0, control=64, value=70, time=18),\n",
       "    Message('control_change', channel=0, control=64, value=84, time=21),\n",
       "    Message('control_change', channel=0, control=64, value=104, time=15),\n",
       "    Message('note_on', channel=0, note=65, velocity=0, time=18),\n",
       "    Message('control_change', channel=0, control=64, value=127, time=0),\n",
       "    Message('control_change', channel=0, control=64, value=122, time=113),\n",
       "    Message('control_change', channel=0, control=64, value=115, time=31),\n",
       "    Message('control_change', channel=0, control=64, value=106, time=19),\n",
       "    Message('control_change', channel=0, control=64, value=96, time=19),\n",
       "    Message('control_change', channel=0, control=64, value=87, time=18),\n",
       "    Message('note_on', channel=0, note=77, velocity=68, time=5),\n",
       "    Message('note_on', channel=0, note=79, velocity=0, time=12),\n",
       "    Message('control_change', channel=0, control=64, value=79, time=0),\n",
       "    Message('control_change', channel=0, control=64, value=72, time=19),\n",
       "    Message('control_change', channel=0, control=64, value=63, time=20),\n",
       "    Message('control_change', channel=0, control=64, value=51, time=18),\n",
       "    Message('control_change', channel=0, control=64, value=31, time=18),\n",
       "    Message('control_change', channel=0, control=64, value=0, time=19),\n",
       "    Message('note_on', channel=0, note=77, velocity=0, time=24),\n",
       "    Message('control_change', channel=0, control=64, value=28, time=49),\n",
       "    Message('note_on', channel=0, note=74, velocity=67, time=17),\n",
       "    Message('control_change', channel=0, control=64, value=55, time=1),\n",
       "    Message('control_change', channel=0, control=64, value=72, time=20),\n",
       "    Message('control_change', channel=0, control=64, value=88, time=19),\n",
       "    Message('control_change', channel=0, control=64, value=112, time=18),\n",
       "    Message('control_change', channel=0, control=64, value=127, time=17),\n",
       "    Message('note_on', channel=0, note=74, velocity=0, time=2),\n",
       "    Message('control_change', channel=0, control=64, value=114, time=200),\n",
       "    Message('control_change', channel=0, control=64, value=91, time=19),\n",
       "    Message('control_change', channel=0, control=64, value=69, time=18),\n",
       "    Message('note_on', channel=0, note=74, velocity=72, time=15),\n",
       "    Message('control_change', channel=0, control=64, value=45, time=3),\n",
       "    Message('note_on', channel=0, note=64, velocity=59, time=16),\n",
       "    Message('control_change', channel=0, control=64, value=13, time=3),\n",
       "    Message('note_on', channel=0, note=48, velocity=54, time=4),\n",
       "    Message('control_change', channel=0, control=64, value=0, time=15),\n",
       "    Message('note_on', channel=0, note=72, velocity=75, time=131),\n",
       "    Message('note_on', channel=0, note=64, velocity=0, time=23),\n",
       "    Message('note_on', channel=0, note=48, velocity=0, time=12),\n",
       "    Message('note_on', channel=0, note=74, velocity=0, time=5),\n",
       "    Message('note_on', channel=0, note=72, velocity=0, time=49),\n",
       "    Message('note_on', channel=0, note=72, velocity=74, time=112),\n",
       "    Message('note_on', channel=0, note=52, velocity=61, time=10),\n",
       "    Message('note_on', channel=0, note=67, velocity=63, time=4),\n",
       "    Message('note_on', channel=0, note=52, velocity=0, time=142),\n",
       "    Message('note_on', channel=0, note=55, velocity=62, time=186),\n",
       "    Message('note_on', channel=0, note=55, velocity=0, time=123),\n",
       "    Message('note_on', channel=0, note=74, velocity=67, time=49),\n",
       "    Message('note_on', channel=0, note=67, velocity=0, time=9),\n",
       "    Message('note_on', channel=0, note=71, velocity=65, time=6),\n",
       "    Message('note_on', channel=0, note=72, velocity=0, time=3),\n",
       "    Message('note_on', channel=0, note=71, velocity=0, time=81),\n",
       "    Message('note_on', channel=0, note=74, velocity=0, time=19),\n",
       "    Message('note_on', channel=0, note=60, velocity=56, time=106),\n",
       "    Message('note_on', channel=0, note=74, velocity=70, time=2),\n",
       "    Message('note_on', channel=0, note=71, velocity=59, time=13),\n",
       "    Message('note_on', channel=0, note=60, velocity=0, time=159),\n",
       "    Message('note_on', channel=0, note=48, velocity=50, time=235),\n",
       "    Message('note_on', channel=0, note=48, velocity=0, time=190),\n",
       "    Message('note_on', channel=0, note=76, velocity=53, time=180),\n",
       "    Message('note_on', channel=0, note=72, velocity=55, time=16),\n",
       "    Message('note_on', channel=0, note=71, velocity=0, time=20),\n",
       "    Message('control_change', channel=0, control=64, value=32, time=6),\n",
       "    Message('note_on', channel=0, note=74, velocity=0, time=7),\n",
       "    Message('control_change', channel=0, control=64, value=55, time=13),\n",
       "    Message('control_change', channel=0, control=64, value=71, time=18),\n",
       "    Message('control_change', channel=0, control=64, value=84, time=18),\n",
       "    Message('control_change', channel=0, control=64, value=105, time=17),\n",
       "    Message('control_change', channel=0, control=64, value=127, time=20),\n",
       "    Message('note_on', channel=0, note=72, velocity=0, time=15),\n",
       "    Message('note_on', channel=0, note=76, velocity=0, time=12),\n",
       "    Message('control_change', channel=0, control=64, value=119, time=190),\n",
       "    Message('control_change', channel=0, control=64, value=100, time=20),\n",
       "    Message('control_change', channel=0, control=64, value=80, time=17),\n",
       "    Message('note_on', channel=0, note=77, velocity=69, time=11),\n",
       "    Message('control_change', channel=0, control=64, value=62, time=5),\n",
       "    Message('note_on', channel=0, note=57, velocity=51, time=9),\n",
       "    Message('control_change', channel=0, control=64, value=43, time=10),\n",
       "    Message('control_change', channel=0, control=64, value=28, time=20),\n",
       "    Message('control_change', channel=0, control=64, value=10, time=18),\n",
       "    Message('control_change', channel=0, control=64, value=0, time=110),\n",
       "    Message('control_change', channel=0, control=64, value=30, time=129),\n",
       "    Message('control_change', channel=0, control=64, value=49, time=20),\n",
       "    Message('control_change', channel=0, control=64, value=63, time=19),\n",
       "    Message('control_change', channel=0, control=64, value=72, time=18),\n",
       "    Message('note_on', channel=0, note=65, velocity=47, time=8),\n",
       "    Message('note_on', channel=0, note=60, velocity=43, time=8),\n",
       "    Message('control_change', channel=0, control=64, value=80, time=3),\n",
       "    Message('note_on', channel=0, note=57, velocity=0, time=10),\n",
       "    Message('control_change', channel=0, control=64, value=91, time=6),\n",
       "    Message('control_change', channel=0, control=64, value=99, time=19),\n",
       "    Message('note_on', channel=0, note=77, velocity=0, time=16),\n",
       "    Message('control_change', channel=0, control=64, value=104, time=2),\n",
       "    Message('note_on', channel=0, note=79, velocity=64, time=30),\n",
       "    Message('control_change', channel=0, control=64, value=109, time=5),\n",
       "    Message('note_on', channel=0, note=60, velocity=0, time=3),\n",
       "    Message('note_on', channel=0, note=65, velocity=0, time=13),\n",
       "    Message('note_on', channel=0, note=79, velocity=0, time=40),\n",
       "    Message('note_on', channel=0, note=77, velocity=68, time=9),\n",
       "    Message('control_change', channel=0, control=64, value=101, time=30),\n",
       "    Message('note_on', channel=0, note=77, velocity=0, time=4),\n",
       "    Message('note_on', channel=0, note=76, velocity=75, time=12),\n",
       "    Message('control_change', channel=0, control=64, value=89, time=2),\n",
       "    Message('control_change', channel=0, control=64, value=74, time=19),\n",
       "    Message('control_change', channel=0, control=64, value=56, time=18),\n",
       "    Message('note_on', channel=0, note=76, velocity=0, time=15),\n",
       "    Message('control_change', channel=0, control=64, value=38, time=1),\n",
       "    Message('note_on', channel=0, note=77, velocity=77, time=5),\n",
       "    Message('control_change', channel=0, control=64, value=19, time=15),\n",
       "    Message('control_change', channel=0, control=64, value=0, time=18),\n",
       "    Message('note_on', channel=0, note=79, velocity=75, time=128),\n",
       "    Message('note_on', channel=0, note=77, velocity=0, time=24),\n",
       "    Message('control_change', channel=0, control=64, value=27, time=103),\n",
       "    Message('control_change', channel=0, control=64, value=49, time=17),\n",
       "    Message('control_change', channel=0, control=64, value=62, time=18),\n",
       "    Message('note_on', channel=0, note=81, velocity=71, time=14),\n",
       "    Message('control_change', channel=0, control=64, value=70, time=5),\n",
       "    Message('note_on', channel=0, note=79, velocity=0, time=16),\n",
       "    Message('control_change', channel=0, control=64, value=77, time=2),\n",
       "    Message('control_change', channel=0, control=64, value=86, time=20),\n",
       "    Message('control_change', channel=0, control=64, value=92, time=18),\n",
       "    Message('note_on', channel=0, note=81, velocity=0, time=24),\n",
       "    Message('control_change', channel=0, control=64, value=96, time=15),\n",
       "    Message('control_change', channel=0, control=64, value=92, time=54),\n",
       "    Message('control_change', channel=0, control=64, value=83, time=19),\n",
       "    Message('note_on', channel=0, note=81, velocity=71, time=8),\n",
       "    Message('note_on', channel=0, note=59, velocity=54, time=9),\n",
       "    Message('control_change', channel=0, control=64, value=71, time=0),\n",
       "    Message('control_change', channel=0, control=64, value=55, time=18),\n",
       "    Message('control_change', channel=0, control=64, value=39, time=18),\n",
       "    Message('control_change', channel=0, control=64, value=27, time=20),\n",
       "    Message('control_change', channel=0, control=64, value=14, time=17),\n",
       "    Message('control_change', channel=0, control=64, value=9, time=20),\n",
       "    Message('note_on', channel=0, note=79, velocity=72, time=64),\n",
       "    Message('control_change', channel=0, control=64, value=0, time=27),\n",
       "    Message('note_on', channel=0, note=81, velocity=0, time=32),\n",
       "    Message('note_on', channel=0, note=78, velocity=72, time=122),\n",
       "    Message('note_on', channel=0, note=67, velocity=52, time=14),\n",
       "    Message('note_on', channel=0, note=62, velocity=53, time=7),\n",
       "    Message('note_on', channel=0, note=79, velocity=0, time=11),\n",
       "    Message('note_on', channel=0, note=59, velocity=0, time=22),\n",
       "    Message('note_on', channel=0, note=79, velocity=71, time=129),\n",
       "    Message('note_on', channel=0, note=67, velocity=0, time=21),\n",
       "    Message('note_on', channel=0, note=78, velocity=0, time=41),\n",
       "    Message('note_on', channel=0, note=62, velocity=0, time=4),\n",
       "    Message('note_on', channel=0, note=77, velocity=70, time=122),\n",
       "    Message('note_on', channel=0, note=79, velocity=0, time=58),\n",
       "    Message('note_on', channel=0, note=74, velocity=67, time=98),\n",
       "    Message('note_on', channel=0, note=77, velocity=0, time=36),\n",
       "    Message('note_on', channel=0, note=74, velocity=0, time=87),\n",
       "    Message('note_on', channel=0, note=75, velocity=71, time=49),\n",
       "    Message('note_on', channel=0, note=60, velocity=60, time=2),\n",
       "    Message('note_on', channel=0, note=60, velocity=0, time=158),\n",
       "    Message('note_on', channel=0, note=76, velocity=75, time=19),\n",
       "    Message('note_on', channel=0, note=75, velocity=0, time=41),\n",
       "    Message('note_on', channel=0, note=77, velocity=72, time=132),\n",
       "    Message('note_on', channel=0, note=60, velocity=54, time=3),\n",
       "    Message('note_on', channel=0, note=76, velocity=0, time=0),\n",
       "    Message('note_on', channel=0, note=57, velocity=56, time=1),\n",
       "    Message('note_on', channel=0, note=76, velocity=65, time=186),\n",
       "    Message('note_on', channel=0, note=77, velocity=0, time=56),\n",
       "    Message('note_on', channel=0, note=79, velocity=62, time=132),\n",
       "    Message('note_on', channel=0, note=57, velocity=0, time=1),\n",
       "    Message('note_on', channel=0, note=62, velocity=53, time=1),\n",
       "    Message('note_on', channel=0, note=60, velocity=0, time=0),\n",
       "    Message('note_on', channel=0, note=53, velocity=48, time=12),\n",
       "    Message('note_on', channel=0, note=76, velocity=0, time=8),\n",
       "    Message('note_on', channel=0, note=77, velocity=65, time=147),\n",
       "    Message('note_on', channel=0, note=53, velocity=0, time=11),\n",
       "    Message('note_on', channel=0, note=62, velocity=0, time=32),\n",
       "    Message('note_on', channel=0, note=79, velocity=0, time=17),\n",
       "    Message('note_on', channel=0, note=77, velocity=0, time=94),\n",
       "    Message('note_on', channel=0, note=76, velocity=57, time=28),\n",
       "    Message('note_on', channel=0, note=59, velocity=48, time=15),\n",
       "    Message('note_on', channel=0, note=55, velocity=45, time=9),\n",
       "    Message('note_on', channel=0, note=74, velocity=61, time=167),\n",
       "    Message('note_on', channel=0, note=76, velocity=0, time=38),\n",
       "    Message('note_on', channel=0, note=72, velocity=55, time=145),\n",
       "    Message('note_on', channel=0, note=74, velocity=0, time=2),\n",
       "    Message('note_on', channel=0, note=59, velocity=0, time=175),\n",
       "    Message('note_on', channel=0, note=71, velocity=64, time=3),\n",
       "    Message('note_on', channel=0, note=55, velocity=0, time=4),\n",
       "    Message('note_on', channel=0, note=72, velocity=0, time=27),\n",
       "    Message('note_on', channel=0, note=69, velocity=56, time=149),\n",
       "    Message('note_on', channel=0, note=71, velocity=0, time=25),\n",
       "    Message('note_on', channel=0, note=69, velocity=0, time=144),\n",
       "    Message('note_on', channel=0, note=67, velocity=58, time=13),\n",
       "    Message('note_on', channel=0, note=67, velocity=0, time=161),\n",
       "    Message('note_on', channel=0, note=75, velocity=61, time=12),\n",
       "    Message('note_on', channel=0, note=60, velocity=46, time=3),\n",
       "    Message('control_change', channel=0, control=64, value=15, time=93),\n",
       "    Message('control_change', channel=0, control=64, value=37, time=18),\n",
       "    Message('control_change', channel=0, control=64, value=53, time=19),\n",
       "    Message('control_change', channel=0, control=64, value=61, time=19),\n",
       "    Message('note_on', channel=0, note=64, velocity=47, time=9),\n",
       "    Message('control_change', channel=0, control=64, value=66, time=8),\n",
       "    Message('control_change', channel=0, control=64, value=69, time=20),\n",
       "    Message('note_on', channel=0, note=76, velocity=57, time=12),\n",
       "    Message('control_change', channel=0, control=64, value=71, time=7),\n",
       "    Message('note_on', channel=0, note=60, velocity=0, time=10),\n",
       "    Message('note_on', channel=0, note=75, velocity=0, time=3),\n",
       "    Message('control_change', channel=0, control=64, value=74, time=37),\n",
       "    Message('note_on', channel=0, note=67, velocity=53, time=36),\n",
       "    Message('note_on', channel=0, note=76, velocity=0, time=6),\n",
       "    Message('note_on', channel=0, note=64, velocity=0, time=20),\n",
       "    Message('control_change', channel=0, control=64, value=62, time=50),\n",
       "    Message('note_on', channel=0, note=67, velocity=0, time=9),\n",
       "    Message('note_on', channel=0, note=75, velocity=60, time=8),\n",
       "    Message('control_change', channel=0, control=64, value=39, time=0),\n",
       "    Message('note_on', channel=0, note=60, velocity=54, time=14),\n",
       "    Message('control_change', channel=0, control=64, value=0, time=5),\n",
       "    Message('control_change', channel=0, control=64, value=26, time=73),\n",
       "    Message('control_change', channel=0, control=64, value=51, time=19),\n",
       "    Message('control_change', channel=0, control=64, value=66, time=19),\n",
       "    Message('control_change', channel=0, control=64, value=76, time=18),\n",
       "    Message('note_on', channel=0, note=64, velocity=55, time=9),\n",
       "    Message('control_change', channel=0, control=64, value=88, time=11),\n",
       "    Message('note_on', channel=0, note=76, velocity=67, time=6),\n",
       "    Message('control_change', channel=0, control=64, value=102, time=12),\n",
       "    Message('control_change', channel=0, control=64, value=115, time=20),\n",
       "    Message('note_on', channel=0, note=60, velocity=0, time=16),\n",
       "    Message('control_change', channel=0, control=64, value=125, time=0),\n",
       "    Message('note_on', channel=0, note=75, velocity=0, time=5),\n",
       "    Message('note_on', channel=0, note=67, velocity=61, time=35),\n",
       "    Message('note_on', channel=0, note=76, velocity=0, time=1),\n",
       "    Message('note_on', channel=0, note=64, velocity=0, time=31),\n",
       "    Message('control_change', channel=0, control=64, value=104, time=40),\n",
       "    Message('control_change', channel=0, control=64, value=77, time=19),\n",
       "    Message('note_on', channel=0, note=75, velocity=74, time=1),\n",
       "    Message('note_on', channel=0, note=67, velocity=0, time=3),\n",
       "    Message('control_change', channel=0, control=64, value=50, time=14),\n",
       "    Message('note_on', channel=0, note=60, velocity=58, time=1),\n",
       "    Message('control_change', channel=0, control=64, value=0, time=17),\n",
       "    Message('control_change', channel=0, control=64, value=17, time=54),\n",
       "    Message('control_change', channel=0, control=64, value=46, time=20),\n",
       "    Message('control_change', channel=0, control=64, value=65, time=19),\n",
       "    Message('note_on', channel=0, note=64, velocity=53, time=16),\n",
       "    Message('control_change', channel=0, control=64, value=77, time=1),\n",
       "    Message('note_on', channel=0, note=76, velocity=73, time=14),\n",
       "    Message('control_change', channel=0, control=64, value=93, time=5),\n",
       "    Message('control_change', channel=0, control=64, value=112, time=20),\n",
       "    Message('control_change', channel=0, control=64, value=127, time=16),\n",
       "    Message('note_on', channel=0, note=60, velocity=0, time=12),\n",
       "    Message('note_on', channel=0, note=75, velocity=0, time=5),\n",
       "    Message('note_on', channel=0, note=67, velocity=59, time=22),\n",
       "    Message('note_on', channel=0, note=76, velocity=0, time=0),\n",
       "    Message('note_on', channel=0, note=64, velocity=0, time=44),\n",
       "    Message('control_change', channel=0, control=64, value=106, time=27),\n",
       "    Message('control_change', channel=0, control=64, value=78, time=21),\n",
       "    Message('note_on', channel=0, note=78, velocity=71, time=14),\n",
       "    Message('note_on', channel=0, note=67, velocity=0, time=5),\n",
       "    Message('control_change', channel=0, control=64, value=47, time=0),\n",
       "    Message('note_on', channel=0, note=59, velocity=56, time=10),\n",
       "    Message('control_change', channel=0, control=64, value=0, time=8),\n",
       "    Message('control_change', channel=0, control=64, value=28, time=88),\n",
       "    Message('control_change', channel=0, control=64, value=58, time=20),\n",
       "    Message('control_change', channel=0, control=64, value=73, time=18),\n",
       "    Message('note_on', channel=0, note=62, velocity=60, time=3),\n",
       "    Message('control_change', channel=0, control=64, value=91, time=15),\n",
       "    Message('note_on', channel=0, note=79, velocity=75, time=11),\n",
       "    Message('control_change', channel=0, control=64, value=118, time=6),\n",
       "    Message('control_change', channel=0, control=64, value=127, time=20),\n",
       "    Message('note_on', channel=0, note=59, velocity=0, time=18),\n",
       "    Message('note_on', channel=0, note=78, velocity=0, time=13),\n",
       "    Message('note_on', channel=0, note=67, velocity=67, time=22),\n",
       "    Message('note_on', channel=0, note=79, velocity=0, time=17),\n",
       "    Message('note_on', channel=0, note=62, velocity=0, time=4),\n",
       "    Message('control_change', channel=0, control=64, value=104, time=54),\n",
       "    Message('control_change', channel=0, control=64, value=71, time=19),\n",
       "    Message('note_on', channel=0, note=78, velocity=80, time=7),\n",
       "    Message('control_change', channel=0, control=64, value=36, time=12),\n",
       "    Message('note_on', channel=0, note=59, velocity=60, time=5),\n",
       "    Message('note_on', channel=0, note=67, velocity=0, time=2),\n",
       "    Message('control_change', channel=0, control=64, value=0, time=12),\n",
       "    Message('control_change', channel=0, control=64, value=32, time=55),\n",
       "    Message('control_change', channel=0, control=64, value=61, time=17),\n",
       "    Message('control_change', channel=0, control=64, value=80, time=20),\n",
       "    Message('control_change', channel=0, control=64, value=109, time=18),\n",
       "    Message('note_on', channel=0, note=62, velocity=66, time=3),\n",
       "    Message('control_change', channel=0, control=64, value=127, time=15),\n",
       "    Message('note_on', channel=0, note=79, velocity=79, time=13),\n",
       "    Message('note_on', channel=0, note=59, velocity=0, time=18),\n",
       "    Message('note_on', channel=0, note=78, velocity=0, time=41),\n",
       "    Message('note_on', channel=0, note=67, velocity=61, time=15),\n",
       "    Message('note_on', channel=0, note=79, velocity=0, time=4),\n",
       "    Message('note_on', channel=0, note=62, velocity=0, time=57),\n",
       "    Message('control_change', channel=0, control=64, value=108, time=17),\n",
       "    Message('note_on', channel=0, note=77, velocity=76, time=16),\n",
       "    Message('control_change', channel=0, control=64, value=76, time=3),\n",
       "    Message('note_on', channel=0, note=59, velocity=66, time=2),\n",
       "    Message('note_on', channel=0, note=67, velocity=0, time=0),\n",
       "    Message('control_change', channel=0, control=64, value=43, time=16),\n",
       "    Message('control_change', channel=0, control=64, value=0, time=18),\n",
       "    Message('control_change', channel=0, control=64, value=9, time=57),\n",
       "    Message('control_change', channel=0, control=64, value=46, time=19),\n",
       "    Message('control_change', channel=0, control=64, value=68, time=18),\n",
       "    Message('note_on', channel=0, note=65, velocity=62, time=9),\n",
       "    Message('control_change', channel=0, control=64, value=86, time=9),\n",
       "    Message('note_on', channel=0, note=74, velocity=77, time=15),\n",
       "    Message('control_change', channel=0, control=64, value=114, time=2),\n",
       "    Message('note_on', channel=0, note=59, velocity=0, time=17),\n",
       "    Message('control_change', channel=0, control=64, value=127, time=0),\n",
       "    Message('note_on', channel=0, note=77, velocity=0, time=35),\n",
       "    Message('note_on', channel=0, note=65, velocity=0, time=23),\n",
       "    Message('note_on', channel=0, note=67, velocity=67, time=5),\n",
       "    Message('note_on', channel=0, note=74, velocity=0, time=9),\n",
       "    Message('control_change', channel=0, control=64, value=90, time=59),\n",
       "    Message('control_change', channel=0, control=64, value=56, time=34),\n",
       "    Message('note_on', channel=0, note=74, velocity=74, time=10),\n",
       "    Message('control_change', channel=0, control=64, value=0, time=9),\n",
       "    Message('note_on', channel=0, note=64, velocity=65, time=10),\n",
       "    Message('note_on', channel=0, note=67, velocity=0, time=2),\n",
       "    Message('note_on', channel=0, note=60, velocity=54, time=17),\n",
       "    Message('control_change', channel=0, control=64, value=34, time=43),\n",
       "    Message('control_change', channel=0, control=64, value=63, time=20),\n",
       "    Message('note_on', channel=0, note=64, velocity=0, time=8),\n",
       "    Message('control_change', channel=0, control=64, value=81, time=8),\n",
       "    Message('note_on', channel=0, note=60, velocity=0, time=13),\n",
       "    Message('control_change', channel=0, control=64, value=104, time=5),\n",
       "    Message('control_change', channel=0, control=64, value=127, time=20),\n",
       "    Message('note_on', channel=0, note=72, velocity=77, time=23),\n",
       "    Message('note_on', channel=0, note=74, velocity=0, time=26),\n",
       "    Message('note_on', channel=0, note=72, velocity=0, time=59),\n",
       "    Message('control_change', channel=0, control=64, value=112, time=39),\n",
       "    Message('control_change', channel=0, control=64, value=81, time=19),\n",
       "    Message('note_on', channel=0, note=74, velocity=76, time=13),\n",
       "    Message('control_change', channel=0, control=64, value=50, time=7),\n",
       "    Message('note_on', channel=0, note=67, velocity=68, time=14),\n",
       "    Message('control_change', channel=0, control=64, value=0, time=5),\n",
       "    Message('note_on', channel=0, note=52, velocity=67, time=0),\n",
       "    Message('control_change', channel=0, control=64, value=33, time=91),\n",
       "    Message('control_change', channel=0, control=64, value=61, time=18),\n",
       "    Message('control_change', channel=0, control=64, value=74, time=19),\n",
       "    Message('control_change', channel=0, control=64, value=87, time=18),\n",
       "    Message('note_on', channel=0, note=72, velocity=76, time=9),\n",
       "    Message('control_change', channel=0, control=64, value=98, time=8),\n",
       "    Message('control_change', channel=0, control=64, value=105, time=19),\n",
       "    Message('note_on', channel=0, note=52, velocity=0, time=9),\n",
       "    Message('note_on', channel=0, note=74, velocity=0, time=16),\n",
       "    Message('note_on', channel=0, note=67, velocity=0, time=5),\n",
       "    Message('control_change', channel=0, control=64, value=100, time=46),\n",
       "    Message('note_on', channel=0, note=72, velocity=0, time=8),\n",
       "    Message('control_change', channel=0, control=64, value=86, time=9),\n",
       "    Message('control_change', channel=0, control=64, value=67, time=19),\n",
       "    Message('control_change', channel=0, control=64, value=38, time=18),\n",
       "    Message('note_on', channel=0, note=76, velocity=72, time=15),\n",
       "    Message('control_change', channel=0, control=64, value=0, time=2),\n",
       "    Message('note_on', channel=0, note=55, velocity=61, time=9),\n",
       "    Message('note_on', channel=0, note=71, velocity=61, time=9),\n",
       "    Message('control_change', channel=0, control=64, value=25, time=93),\n",
       "    Message('control_change', channel=0, control=64, value=59, time=18),\n",
       "    Message('control_change', channel=0, control=64, value=76, time=17),\n",
       "    Message('control_change', channel=0, control=64, value=94, time=20),\n",
       "    Message('note_on', channel=0, note=74, velocity=76, time=7),\n",
       "    Message('control_change', channel=0, control=64, value=120, time=12),\n",
       "    Message('note_on', channel=0, note=55, velocity=0, time=10),\n",
       "    Message('control_change', channel=0, control=64, value=127, time=7),\n",
       "    Message('note_on', channel=0, note=71, velocity=0, time=30),\n",
       "    Message('note_on', channel=0, note=76, velocity=0, time=0),\n",
       "    Message('note_on', channel=0, note=74, velocity=0, time=52),\n",
       "    Message('control_change', channel=0, control=64, value=122, time=8),\n",
       "    Message('control_change', channel=0, control=64, value=98, time=17),\n",
       "    Message('control_change', channel=0, control=64, value=74, time=19),\n",
       "    Message('control_change', channel=0, control=64, value=48, time=19),\n",
       "    Message('control_change', channel=0, control=64, value=0, time=17),\n",
       "    Message('note_on', channel=0, note=74, velocity=67, time=10),\n",
       "    Message('note_on', channel=0, note=71, velocity=59, time=6),\n",
       "    Message('note_on', channel=0, note=60, velocity=53, time=21),\n",
       "    Message('note_on', channel=0, note=60, velocity=0, time=178),\n",
       "    Message('note_on', channel=0, note=55, velocity=51, time=153),\n",
       "    Message('note_on', channel=0, note=55, velocity=0, time=139),\n",
       "    Message('note_on', channel=0, note=75, velocity=64, time=37),\n",
       "    Message('note_on', channel=0, note=74, velocity=0, time=40),\n",
       "    Message('note_on', channel=0, note=71, velocity=0, time=6),\n",
       "    Message('note_on', channel=0, note=76, velocity=54, time=214),\n",
       "    Message('note_on', channel=0, note=75, velocity=0, time=1),\n",
       "    Message('note_on', channel=0, note=72, velocity=50, time=19),\n",
       "    Message('note_on', channel=0, note=48, velocity=39, time=9),\n",
       "    Message('control_change', channel=0, control=64, value=11, time=32),\n",
       "    Message('control_change', channel=0, control=64, value=40, time=18),\n",
       "    Message('control_change', channel=0, control=64, value=61, time=18),\n",
       "    Message('control_change', channel=0, control=64, value=74, time=20),\n",
       "    Message('control_change', channel=0, control=64, value=88, time=17),\n",
       "    Message('note_on', channel=0, note=48, velocity=0, time=9),\n",
       "    Message('control_change', channel=0, control=64, value=107, time=8),\n",
       "    Message('note_on', channel=0, note=72, velocity=0, time=4),\n",
       "    Message('control_change', channel=0, control=64, value=127, time=16),\n",
       "    Message('note_on', channel=0, note=76, velocity=0, time=8),\n",
       "    Message('control_change', channel=0, control=64, value=103, time=212),\n",
       "    Message('control_change', channel=0, control=64, value=80, time=19),\n",
       "    Message('note_on', channel=0, note=77, velocity=69, time=12),\n",
       "    Message('control_change', channel=0, control=64, value=57, time=7),\n",
       "    Message('note_on', channel=0, note=57, velocity=48, time=12),\n",
       "    Message('control_change', channel=0, control=64, value=28, time=6),\n",
       "    Message('control_change', channel=0, control=64, value=0, time=19),\n",
       "    Message('note_on', channel=0, note=60, velocity=58, time=140),\n",
       "    Message('note_on', channel=0, note=57, velocity=0, time=5),\n",
       "    Message('note_on', channel=0, note=60, velocity=0, time=161),\n",
       "    Message('note_on', channel=0, note=65, velocity=53, time=12),\n",
       "    Message('note_on', channel=0, note=77, velocity=0, time=33),\n",
       "    Message('note_on', channel=0, note=79, velocity=65, time=31),\n",
       "    Message('note_on', channel=0, note=79, velocity=0, time=83),\n",
       "    Message('note_on', channel=0, note=77, velocity=69, time=2),\n",
       "    Message('note_on', channel=0, note=77, velocity=0, time=32),\n",
       "    Message('note_on', channel=0, note=76, velocity=72, time=8),\n",
       "    Message('note_on', channel=0, note=65, velocity=0, time=8),\n",
       "    Message('note_on', channel=0, note=60, velocity=53, time=28),\n",
       "    Message('note_on', channel=0, note=76, velocity=0, time=12),\n",
       "    Message('note_on', channel=0, note=77, velocity=82, time=5),\n",
       "    Message('note_on', channel=0, note=60, velocity=0, time=132),\n",
       "    Message('note_on', channel=0, note=79, velocity=72, time=18),\n",
       "    Message('note_on', channel=0, note=57, velocity=58, time=1),\n",
       "    Message('note_on', channel=0, note=77, velocity=0, time=42),\n",
       "    Message('control_change', channel=0, control=64, value=21, time=54),\n",
       "    Message('control_change', channel=0, control=64, value=44, time=20),\n",
       "    Message('control_change', channel=0, control=64, value=60, time=16),\n",
       "    Message('control_change', channel=0, control=64, value=68, time=20),\n",
       "    Message('note_on', channel=0, note=60, velocity=56, time=14),\n",
       "    Message('note_on', channel=0, note=81, velocity=70, time=1),\n",
       "    Message('control_change', channel=0, control=64, value=76, time=3),\n",
       "    Message('note_on', channel=0, note=57, velocity=0, time=2),\n",
       "    Message('control_change', channel=0, control=64, value=84, time=17),\n",
       "    Message('note_on', channel=0, note=79, velocity=0, time=7),\n",
       "    Message('control_change', channel=0, control=64, value=92, time=13),\n",
       "    Message('control_change', channel=0, control=64, value=97, time=18),\n",
       "    Message('note_on', channel=0, note=81, velocity=0, time=23),\n",
       "    Message('control_change', channel=0, control=64, value=87, time=50),\n",
       "    Message('control_change', channel=0, control=64, value=73, time=19),\n",
       "    Message('note_on', channel=0, note=60, velocity=0, time=4),\n",
       "    Message('note_on', channel=0, note=59, velocity=63, time=9),\n",
       "    Message('note_on', channel=0, note=81, velocity=74, time=4),\n",
       "    Message('control_change', channel=0, control=64, value=53, time=1),\n",
       "    Message('control_change', channel=0, control=64, value=25, time=18),\n",
       "    Message('control_change', channel=0, control=64, value=0, time=18),\n",
       "    Message('note_on', channel=0, note=79, velocity=75, time=130),\n",
       "    Message('note_on', channel=0, note=62, velocity=66, time=7),\n",
       "    Message('note_on', channel=0, note=59, velocity=0, time=40),\n",
       "    Message('note_on', channel=0, note=81, velocity=0, time=1),\n",
       "    Message('note_on', channel=0, note=78, velocity=75, time=144),\n",
       "    Message('note_on', channel=0, note=67, velocity=54, time=9),\n",
       "    Message('note_on', channel=0, note=62, velocity=0, time=17),\n",
       "    Message('note_on', channel=0, note=79, velocity=0, time=12),\n",
       "    Message('note_on', channel=0, note=79, velocity=74, time=133),\n",
       "    Message('note_on', channel=0, note=62, velocity=60, time=9),\n",
       "    Message('note_on', channel=0, note=67, velocity=0, time=3),\n",
       "    Message('note_on', channel=0, note=78, velocity=0, time=51),\n",
       "    Message('note_on', channel=0, note=77, velocity=74, time=108),\n",
       "    Message('note_on', channel=0, note=62, velocity=0, time=1),\n",
       "    Message('note_on', channel=0, note=59, velocity=58, time=8),\n",
       "    Message('note_on', channel=0, note=79, velocity=0, time=38),\n",
       "    Message('note_on', channel=0, note=74, velocity=76, time=122),\n",
       "    Message('note_on', channel=0, note=62, velocity=63, time=2),\n",
       "    Message('note_on', channel=0, note=59, velocity=0, time=13),\n",
       "    Message('note_on', channel=0, note=77, velocity=0, time=20),\n",
       "    Message('note_on', channel=0, note=74, velocity=0, time=67),\n",
       "    Message('note_on', channel=0, note=62, velocity=0, time=38),\n",
       "    Message('note_on', channel=0, note=75, velocity=78, time=31),\n",
       "    Message('note_on', channel=0, note=60, velocity=71, time=8),\n",
       "    Message('note_on', channel=0, note=60, velocity=0, time=112),\n",
       "    Message('note_on', channel=0, note=76, velocity=80, time=53),\n",
       "    Message('note_on', channel=0, note=75, velocity=0, time=98),\n",
       "    Message('note_on', channel=0, note=79, velocity=77, time=92),\n",
       "    Message('note_on', channel=0, note=62, velocity=67, time=8),\n",
       "    Message('note_on', channel=0, note=53, velocity=66, time=0),\n",
       "    Message('note_on', channel=0, note=76, velocity=0, time=29),\n",
       "    Message('note_on', channel=0, note=53, velocity=0, time=81),\n",
       "    Message('note_on', channel=0, note=62, velocity=0, time=5),\n",
       "    Message('note_on', channel=0, note=77, velocity=80, time=48),\n",
       "    Message('note_on', channel=0, note=79, velocity=0, time=76),\n",
       "    Message('note_on', channel=0, note=74, velocity=79, time=97),\n",
       "    Message('note_on', channel=0, note=55, velocity=60, time=5),\n",
       "    Message('note_on', channel=0, note=65, velocity=56, time=6),\n",
       "    Message('note_on', channel=0, note=64, velocity=50, time=31),\n",
       "    Message('note_on', channel=0, note=64, velocity=0, time=32),\n",
       "    Message('note_on', channel=0, note=77, velocity=0, time=10),\n",
       "    Message('note_on', channel=0, note=55, velocity=0, time=33),\n",
       "    Message('note_on', channel=0, note=65, velocity=0, time=2),\n",
       "    Message('note_on', channel=0, note=71, velocity=76, time=44),\n",
       "    Message('note_on', channel=0, note=74, velocity=0, time=28),\n",
       "    Message('note_on', channel=0, note=71, velocity=0, time=73),\n",
       "    Message('note_on', channel=0, note=72, velocity=73, time=73),\n",
       "    Message('note_on', channel=0, note=64, velocity=60, time=5),\n",
       "    Message('note_on', channel=0, note=60, velocity=58, time=9),\n",
       "    Message('note_on', channel=0, note=64, velocity=0, time=162),\n",
       "    Message('note_on', channel=0, note=67, velocity=73, time=10),\n",
       "    Message('note_on', channel=0, note=60, velocity=0, time=12),\n",
       "    Message('note_on', channel=0, note=72, velocity=0, time=39),\n",
       "    Message('note_on', channel=0, note=67, velocity=0, time=45),\n",
       "    Message('note_on', channel=0, note=64, velocity=71, time=78),\n",
       "    Message('note_on', channel=0, note=67, velocity=69, time=164),\n",
       "    Message('note_on', channel=0, note=64, velocity=0, time=32),\n",
       "    Message('note_on', channel=0, note=67, velocity=0, time=58),\n",
       "    Message('note_on', channel=0, note=60, velocity=69, time=84),\n",
       "    Message('note_on', channel=0, note=67, velocity=68, time=158),\n",
       "    Message('note_on', channel=0, note=60, velocity=0, time=13),\n",
       "    Message('note_on', channel=0, note=67, velocity=0, time=60),\n",
       "    Message('note_on', channel=0, note=62, velocity=62, time=109),\n",
       "    Message('note_on', channel=0, note=67, velocity=64, time=0),\n",
       "    Message('note_on', channel=0, note=65, velocity=61, time=0),\n",
       "    Message('note_on', channel=0, note=67, velocity=0, time=82),\n",
       "    Message('note_on', channel=0, note=65, velocity=0, time=5),\n",
       "    Message('note_on', channel=0, note=62, velocity=0, time=87),\n",
       "    Message('note_on', channel=0, note=67, velocity=58, time=20),\n",
       "    Message('note_on', channel=0, note=65, velocity=66, time=6),\n",
       "    Message('note_on', channel=0, note=67, velocity=0, time=42),\n",
       "    Message('note_on', channel=0, note=65, velocity=0, time=16),\n",
       "    Message('note_on', channel=0, note=59, velocity=60, time=109),\n",
       "    Message('note_on', channel=0, note=67, velocity=56, time=168),\n",
       "    Message('note_on', channel=0, note=59, velocity=0, time=6),\n",
       "    Message('note_on', channel=0, note=65, velocity=58, time=1),\n",
       "    Message('note_on', channel=0, note=67, velocity=0, time=73),\n",
       "    Message('note_on', channel=0, note=65, velocity=0, time=6),\n",
       "    Message('note_on', channel=0, note=55, velocity=58, time=82),\n",
       "    Message('note_on', channel=0, note=55, velocity=0, time=116),\n",
       "    Message('note_on', channel=0, note=67, velocity=60, time=52),\n",
       "    Message('note_on', channel=0, note=65, velocity=60, time=7),\n",
       "    Message('note_on', channel=0, note=67, velocity=0, time=65),\n",
       "    Message('note_on', channel=0, note=65, velocity=0, time=11),\n",
       "    Message('note_on', channel=0, note=67, velocity=58, time=99),\n",
       "    Message('note_on', channel=0, note=48, velocity=65, time=6),\n",
       "    Message('note_on', channel=0, note=63, velocity=53, time=17),\n",
       "    Message('note_on', channel=0, note=67, velocity=0, time=55),\n",
       "    Message('note_on', channel=0, note=63, velocity=0, time=3),\n",
       "    Message('note_on', channel=0, note=63, velocity=56, time=103),\n",
       "    Message('note_on', channel=0, note=48, velocity=0, time=2),\n",
       "    Message('note_on', channel=0, note=67, velocity=49, time=4),\n",
       "    Message('note_on', channel=0, note=67, velocity=0, time=42),\n",
       "    Message('note_on', channel=0, note=63, velocity=0, time=8),\n",
       "    Message('note_on', channel=0, note=51, velocity=59, time=104),\n",
       "    Message('note_on', channel=0, note=63, velocity=56, time=167),\n",
       "    Message('note_on', channel=0, note=67, velocity=50, time=0),\n",
       "    Message('note_on', channel=0, note=51, velocity=0, time=7),\n",
       "    Message('note_on', channel=0, note=67, velocity=0, time=53),\n",
       "    Message('note_on', channel=0, note=63, velocity=0, time=15),\n",
       "    Message('note_on', channel=0, note=48, velocity=56, time=92),\n",
       "    Message('note_on', channel=0, note=48, velocity=0, time=141),\n",
       "    Message('note_on', channel=0, note=67, velocity=51, time=16),\n",
       "    Message('note_on', channel=0, note=63, velocity=53, time=24),\n",
       "    Message('note_on', channel=0, note=67, velocity=0, time=52),\n",
       "    Message('note_on', channel=0, note=63, velocity=0, time=13),\n",
       "    Message('note_on', channel=0, note=67, velocity=59, time=97),\n",
       "    Message('note_on', channel=0, note=65, velocity=58, time=0),\n",
       "    Message('note_on', channel=0, note=50, velocity=59, time=2),\n",
       "    Message('note_on', channel=0, note=67, velocity=0, time=54),\n",
       "    Message('note_on', channel=0, note=65, velocity=0, time=4),\n",
       "    Message('note_on', channel=0, note=67, velocity=59, time=107),\n",
       "    Message('note_on', channel=0, note=50, velocity=0, time=1),\n",
       "    Message('note_on', channel=0, note=65, velocity=56, time=11),\n",
       "    Message('note_on', channel=0, note=67, velocity=0, time=40),\n",
       "    Message('note_on', channel=0, note=65, velocity=0, time=1),\n",
       "    Message('note_on', channel=0, note=47, velocity=58, time=129),\n",
       "    Message('note_on', channel=0, note=67, velocity=58, time=157),\n",
       "    Message('note_on', channel=0, note=65, velocity=53, time=6),\n",
       "    Message('note_on', channel=0, note=47, velocity=0, time=38),\n",
       "    Message('note_on', channel=0, note=65, velocity=0, time=22),\n",
       "    Message('note_on', channel=0, note=67, velocity=0, time=9),\n",
       "    Message('note_on', channel=0, note=43, velocity=62, time=98),\n",
       "    Message('note_on', channel=0, note=43, velocity=0, time=112),\n",
       "    Message('note_on', channel=0, note=67, velocity=56, time=62),\n",
       "    Message('note_on', channel=0, note=65, velocity=57, time=1),\n",
       "    Message('note_on', channel=0, note=67, velocity=0, time=59),\n",
       "    Message('note_on', channel=0, note=65, velocity=0, time=7),\n",
       "    Message('control_change', channel=0, control=67, value=95, time=50),\n",
       "    Message('control_change', channel=0, control=67, value=57, time=18),\n",
       "    Message('control_change', channel=0, control=67, value=20, time=21),\n",
       "    Message('note_on', channel=0, note=48, velocity=75, time=1),\n",
       "    Message('note_on', channel=0, note=67, velocity=75, time=2),\n",
       "    Message('note_on', channel=0, note=36, velocity=71, time=2),\n",
       "    Message('note_on', channel=0, note=63, velocity=70, time=6),\n",
       "    Message('control_change', channel=0, control=64, value=53, time=7),\n",
       "    Message('control_change', channel=0, control=67, value=0, time=2),\n",
       "    Message('control_change', channel=0, control=64, value=79, time=17),\n",
       "    Message('note_on', channel=0, note=36, velocity=0, time=8),\n",
       "    Message('control_change', channel=0, control=64, value=126, time=10),\n",
       "    Message('note_on', channel=0, note=48, velocity=0, time=2),\n",
       "    Message('note_on', channel=0, note=63, velocity=0, time=2),\n",
       "    Message('note_on', channel=0, note=67, velocity=0, time=14),\n",
       "    Message('note_on', channel=0, note=67, velocity=62, time=98),\n",
       "    Message('note_on', channel=0, note=63, velocity=68, time=5),\n",
       "    Message('control_change', channel=0, control=67, value=10, time=25),\n",
       "    Message('note_on', channel=0, note=67, velocity=0, time=14),\n",
       "    Message('control_change', channel=0, control=67, value=18, time=3),\n",
       "    Message('note_on', channel=0, note=63, velocity=0, time=9),\n",
       "    Message('control_change', channel=0, control=64, value=106, time=13),\n",
       "    Message('control_change', channel=0, control=67, value=27, time=1),\n",
       "    Message('control_change', channel=0, control=64, value=79, time=16),\n",
       "    Message('control_change', channel=0, control=67, value=35, time=3),\n",
       "    Message('control_change', channel=0, control=64, value=54, time=16),\n",
       "    Message('control_change', channel=0, control=67, value=44, time=1),\n",
       "    Message('control_change', channel=0, control=64, value=21, time=17),\n",
       "    Message('control_change', channel=0, control=67, value=52, time=2),\n",
       "    Message('control_change', channel=0, control=64, value=0, time=15),\n",
       "    Message('control_change', channel=0, control=67, value=60, time=1),\n",
       "    Message('control_change', channel=0, control=67, value=67, time=18),\n",
       "    Message('note_on', channel=0, note=51, velocity=66, time=7),\n",
       "    Message('control_change', channel=0, control=67, value=73, time=12),\n",
       "    Message('note_on', channel=0, note=51, velocity=0, time=72),\n",
       "    Message('note_on', channel=0, note=67, velocity=58, time=93),\n",
       "    Message('note_on', channel=0, note=63, velocity=59, time=10),\n",
       "    Message('note_on', channel=0, note=67, velocity=0, time=49),\n",
       "    Message('note_on', channel=0, note=63, velocity=0, time=12),\n",
       "    Message('note_on', channel=0, note=55, velocity=64, time=100),\n",
       "    Message('note_on', channel=0, note=55, velocity=0, time=77),\n",
       "    Message('control_change', channel=0, control=67, value=69, time=52),\n",
       "    Message('note_on', channel=0, note=67, velocity=61, time=39),\n",
       "    Message('note_on', channel=0, note=63, velocity=62, time=4),\n",
       "    Message('note_on', channel=0, note=67, velocity=0, time=47),\n",
       "    Message('control_change', channel=0, control=67, value=64, time=1),\n",
       "    Message('note_on', channel=0, note=63, velocity=0, time=7),\n",
       "    Message('control_change', channel=0, control=67, value=56, time=12),\n",
       "    Message('control_change', channel=0, control=67, value=43, time=19),\n",
       "    Message('control_change', channel=0, control=67, value=21, time=20),\n",
       "    Message('control_change', channel=0, control=67, value=0, time=17),\n",
       "    Message('control_change', channel=0, control=64, value=51, time=18),\n",
       "    Message('note_on', channel=0, note=53, velocity=78, time=2),\n",
       "    Message('note_on', channel=0, note=41, velocity=77, time=3),\n",
       "    Message('note_on', channel=0, note=68, velocity=79, time=1),\n",
       "    Message('note_on', channel=0, note=63, velocity=77, time=6),\n",
       "    Message('control_change', channel=0, control=64, value=91, time=7),\n",
       "    Message('control_change', channel=0, control=64, value=127, time=18),\n",
       "    Message('control_change', channel=0, control=67, value=14, time=1),\n",
       "    Message('note_on', channel=0, note=41, velocity=0, time=14),\n",
       "    Message('note_on', channel=0, note=53, velocity=0, time=0),\n",
       "    Message('control_change', channel=0, control=67, value=26, time=4),\n",
       "    Message('control_change', channel=0, control=67, value=35, time=18),\n",
       "    Message('note_on', channel=0, note=63, velocity=0, time=2),\n",
       "    Message('note_on', channel=0, note=68, velocity=0, time=5),\n",
       "    Message('control_change', channel=0, control=67, value=44, time=10),\n",
       "    Message('control_change', channel=0, control=67, value=52, time=21),\n",
       "    Message('control_change', channel=0, control=67, value=61, time=17),\n",
       "    Message('control_change', channel=0, control=67, value=77, time=19),\n",
       "    Message('control_change', channel=0, control=67, value=97, time=17),\n",
       "    Message('control_change', channel=0, control=67, value=123, time=17),\n",
       "    Message('note_on', channel=0, note=63, velocity=74, time=1),\n",
       "    Message('note_on', channel=0, note=68, velocity=67, time=6),\n",
       "    Message('control_change', channel=0, control=67, value=127, time=14),\n",
       "    Message('control_change', channel=0, control=64, value=113, time=18),\n",
       "    Message('note_on', channel=0, note=63, velocity=0, time=11),\n",
       "    Message('note_on', channel=0, note=68, velocity=0, time=0),\n",
       "    Message('control_change', channel=0, control=64, value=83, time=7),\n",
       "    Message('control_change', channel=0, control=64, value=59, time=19),\n",
       "    Message('control_change', channel=0, control=64, value=32, time=20),\n",
       "    Message('control_change', channel=0, control=64, value=0, time=17),\n",
       "    Message('note_on', channel=0, note=56, velocity=66, time=59),\n",
       "    Message('note_on', channel=0, note=56, velocity=0, time=109),\n",
       "    Message('note_on', channel=0, note=68, velocity=61, time=50),\n",
       "    Message('note_on', channel=0, note=63, velocity=55, time=8),\n",
       "    Message('note_on', channel=0, note=63, velocity=0, time=64),\n",
       "    Message('note_on', channel=0, note=68, velocity=0, time=11),\n",
       "    Message('note_on', channel=0, note=60, velocity=62, time=102),\n",
       "    Message('note_on', channel=0, note=60, velocity=0, time=48),\n",
       "    Message('note_on', channel=0, note=68, velocity=66, time=107),\n",
       "    Message('note_on', channel=0, note=63, velocity=60, time=11),\n",
       "    Message('note_on', channel=0, note=63, velocity=0, time=51),\n",
       "    Message('note_on', channel=0, note=68, velocity=0, time=13),\n",
       "    Message('control_change', channel=0, control=67, value=88, time=47),\n",
       "    Message('control_change', channel=0, control=67, value=42, time=18),\n",
       "    Message('note_on', channel=0, note=68, velocity=79, time=15),\n",
       "    Message('control_change', channel=0, control=64, value=46, time=4),\n",
       "    Message('control_change', channel=0, control=67, value=0, time=1),\n",
       "    Message('note_on', channel=0, note=46, velocity=80, time=0),\n",
       "    Message('note_on', channel=0, note=34, velocity=80, time=3),\n",
       "    Message('note_on', channel=0, note=62, velocity=71, time=9),\n",
       "    Message('control_change', channel=0, control=64, value=76, time=5),\n",
       "    Message('control_change', channel=0, control=64, value=112, time=21),\n",
       "    Message('note_on', channel=0, note=34, velocity=0, time=11),\n",
       "    Message('control_change', channel=0, control=64, value=127, time=6),\n",
       "    Message('note_on', channel=0, note=46, velocity=0, time=14),\n",
       "    Message('note_on', channel=0, note=62, velocity=0, time=12),\n",
       "    Message('note_on', channel=0, note=68, velocity=0, time=12),\n",
       "    Message('note_on', channel=0, note=68, velocity=68, time=67),\n",
       "    Message('control_change', channel=0, control=67, value=8, time=5),\n",
       "    Message('note_on', channel=0, note=62, velocity=69, time=13),\n",
       "    Message('control_change', channel=0, control=67, value=15, time=7),\n",
       "    Message('control_change', channel=0, control=67, value=21, time=17),\n",
       "    Message('note_on', channel=0, note=62, velocity=0, time=23),\n",
       "    Message('note_on', channel=0, note=68, velocity=0, time=10),\n",
       "    Message('control_change', channel=0, control=64, value=106, time=2),\n",
       "    Message('control_change', channel=0, control=64, value=81, time=21),\n",
       "    Message('control_change', channel=0, control=64, value=58, time=19),\n",
       "    Message('control_change', channel=0, control=64, value=32, time=17),\n",
       "    Message('control_change', channel=0, control=64, value=0, time=18),\n",
       "    Message('control_change', channel=0, control=67, value=25, time=1),\n",
       "    Message('note_on', channel=0, note=50, velocity=69, time=35),\n",
       "    Message('note_on', channel=0, note=50, velocity=0, time=81),\n",
       "    Message('note_on', channel=0, note=68, velocity=66, time=86),\n",
       "    Message('note_on', channel=0, note=62, velocity=61, time=2),\n",
       "    Message('note_on', channel=0, note=62, velocity=0, time=72),\n",
       "    Message('note_on', channel=0, note=68, velocity=0, time=23),\n",
       "    Message('note_on', channel=0, note=53, velocity=60, time=80),\n",
       "    Message('control_change', channel=0, control=67, value=21, time=41),\n",
       "    Message('note_on', channel=0, note=53, velocity=0, time=9),\n",
       "    Message('note_on', channel=0, note=68, velocity=69, time=110),\n",
       "    Message('note_on', channel=0, note=62, velocity=58, time=14),\n",
       "    Message('control_change', channel=0, control=67, value=15, time=15),\n",
       "    Message('control_change', channel=0, control=67, value=10, time=18),\n",
       "    Message('note_on', channel=0, note=62, velocity=0, time=10),\n",
       "    Message('note_on', channel=0, note=68, velocity=0, time=24),\n",
       "    Message('control_change', channel=0, control=67, value=0, time=21),\n",
       "    Message('control_change', channel=0, control=64, value=54, time=38),\n",
       "    Message('note_on', channel=0, note=62, velocity=74, time=8),\n",
       "    Message('note_on', channel=0, note=67, velocity=73, time=6),\n",
       "    Message('control_change', channel=0, control=64, value=83, time=4),\n",
       "    Message('note_on', channel=0, note=51, velocity=73, time=1),\n",
       "    Message('note_on', channel=0, note=39, velocity=68, time=6),\n",
       "    Message('control_change', channel=0, control=64, value=127, time=12),\n",
       "    Message('note_on', channel=0, note=39, velocity=0, time=18),\n",
       "    Message('note_on', channel=0, note=51, velocity=0, time=21),\n",
       "    Message('note_on', channel=0, note=62, velocity=0, time=7),\n",
       "    Message('note_on', channel=0, note=67, velocity=0, time=13),\n",
       "    Message('note_on', channel=0, note=67, velocity=63, time=92),\n",
       "    Message('note_on', channel=0, note=62, velocity=72, time=4),\n",
       "    Message('note_on', channel=0, note=67, velocity=0, time=39),\n",
       "    Message('note_on', channel=0, note=62, velocity=0, time=2),\n",
       "    Message('control_change', channel=0, control=64, value=120, time=27),\n",
       "    Message('control_change', channel=0, control=64, value=92, time=18),\n",
       "    Message('control_change', channel=0, control=64, value=69, time=19),\n",
       "    Message('control_change', channel=0, control=64, value=46, time=18),\n",
       "    Message('control_change', channel=0, control=64, value=24, time=19),\n",
       "    Message('control_change', channel=0, control=64, value=0, time=16),\n",
       "    Message('note_on', channel=0, note=55, velocity=67, time=16),\n",
       "    Message('note_on', channel=0, note=55, velocity=0, time=68),\n",
       "    Message('note_on', channel=0, note=67, velocity=63, time=102),\n",
       "    Message('note_on', channel=0, note=62, velocity=64, time=2),\n",
       "    Message('note_on', channel=0, note=62, velocity=0, time=53),\n",
       "    Message('note_on', channel=0, note=67, velocity=0, time=9),\n",
       "    Message('note_on', channel=0, note=58, velocity=69, time=102),\n",
       "    Message('note_on', channel=0, note=58, velocity=0, time=46),\n",
       "    Message('note_on', channel=0, note=67, velocity=68, time=98),\n",
       "    Message('note_on', channel=0, note=62, velocity=63, time=9),\n",
       "    Message('note_on', channel=0, note=62, velocity=0, time=52),\n",
       "    Message('note_on', channel=0, note=67, velocity=0, time=11),\n",
       "    Message('control_change', channel=0, control=64, value=17, time=74),\n",
       "    Message('note_on', channel=0, note=60, velocity=78, time=17),\n",
       "    Message('note_on', channel=0, note=67, velocity=80, time=0),\n",
       "    Message('control_change', channel=0, control=64, value=56, time=1),\n",
       "    Message('note_on', channel=0, note=44, velocity=82, time=0),\n",
       "    Message('note_on', channel=0, note=32, velocity=78, time=2),\n",
       "    Message('control_change', channel=0, control=64, value=81, time=17),\n",
       "    Message('control_change', channel=0, control=64, value=127, time=18),\n",
       "    Message('note_on', channel=0, note=32, velocity=0, time=4),\n",
       "    Message('note_on', channel=0, note=44, velocity=0, time=9),\n",
       "    Message('note_on', channel=0, note=67, velocity=0, time=20),\n",
       "    Message('note_on', channel=0, note=60, velocity=0, time=7),\n",
       "    Message('note_on', channel=0, note=67, velocity=73, time=90),\n",
       "    Message('note_on', channel=0, note=60, velocity=70, time=6),\n",
       "    Message('note_on', channel=0, note=67, velocity=0, time=43),\n",
       "    Message('note_on', channel=0, note=60, velocity=0, time=2),\n",
       "    Message('control_change', channel=0, control=64, value=100, time=20),\n",
       "    Message('control_change', channel=0, control=64, value=75, time=20),\n",
       "    Message('control_change', channel=0, control=64, value=51, time=19),\n",
       "    Message('control_change', channel=0, control=64, value=22, time=17),\n",
       "    Message('control_change', channel=0, control=64, value=0, time=19),\n",
       "    Message('note_on', channel=0, note=56, velocity=75, time=22),\n",
       "    Message('note_on', channel=0, note=56, velocity=0, time=37),\n",
       "    Message('note_on', channel=0, note=67, velocity=69, time=138),\n",
       "    Message('note_on', channel=0, note=60, velocity=68, time=4),\n",
       "    Message('note_on', channel=0, note=60, velocity=0, time=48),\n",
       "    Message('note_on', channel=0, note=67, velocity=0, time=21),\n",
       "    Message('note_on', channel=0, note=50, velocity=81, time=77),\n",
       "    Message('control_change', channel=0, control=64, value=44, time=0),\n",
       "    Message('note_on', channel=0, note=38, velocity=72, time=4),\n",
       "    Message('note_on', channel=0, note=65, velocity=78, time=7),\n",
       "    Message('note_on', channel=0, note=60, velocity=74, time=1),\n",
       "    Message('control_change', channel=0, control=64, value=76, time=8),\n",
       "    Message('note_on', channel=0, note=38, velocity=0, time=18),\n",
       "    Message('control_change', channel=0, control=64, value=105, time=0),\n",
       "    Message('note_on', channel=0, note=50, velocity=0, time=8),\n",
       "    Message('control_change', channel=0, control=64, value=127, time=11),\n",
       "    Message('note_on', channel=0, note=60, velocity=0, time=16),\n",
       "    Message('note_on', channel=0, note=65, velocity=0, time=28),\n",
       "    Message('note_on', channel=0, note=65, velocity=66, time=72),\n",
       "    Message('note_on', channel=0, note=60, velocity=68, time=3),\n",
       "    Message('note_on', channel=0, note=60, velocity=0, time=38),\n",
       "    Message('note_on', channel=0, note=62, velocity=6, time=28),\n",
       "    Message('note_on', channel=0, note=62, velocity=0, time=0),\n",
       "    Message('note_on', channel=0, note=65, velocity=0, time=0),\n",
       "    Message('control_change', channel=0, control=64, value=113, time=18),\n",
       "    Message('control_change', channel=0, control=64, value=91, time=19),\n",
       "    Message('control_change', channel=0, control=64, value=71, time=18),\n",
       "    Message('control_change', channel=0, control=64, value=52, time=17),\n",
       "    Message('control_change', channel=0, control=64, value=37, time=20),\n",
       "    Message('note_on', channel=0, note=62, velocity=33, time=14),\n",
       "    Message('control_change', channel=0, control=64, value=21, time=2),\n",
       "    Message('control_change', channel=0, control=64, value=12, time=20),\n",
       "    Message('note_on', channel=0, note=62, velocity=0, time=30),\n",
       "    Message('control_change', channel=0, control=64, value=0, time=23),\n",
       "    Message('note_on', channel=0, note=65, velocity=68, time=92),\n",
       "    Message('note_on', channel=0, note=60, velocity=68, time=6),\n",
       "    Message('note_on', channel=0, note=60, velocity=0, time=65),\n",
       "    Message('note_on', channel=0, note=65, velocity=0, time=9),\n",
       "    Message('control_change', channel=0, control=64, value=15, time=69),\n",
       "    Message('note_on', channel=0, note=65, velocity=75, time=7),\n",
       "    Message('note_on', channel=0, note=31, velocity=79, time=4),\n",
       "    Message('note_on', channel=0, note=43, velocity=80, time=1),\n",
       "    Message('note_on', channel=0, note=59, velocity=72, time=5),\n",
       "    Message('control_change', channel=0, control=64, value=60, time=15),\n",
       "    Message('control_change', channel=0, control=64, value=85, time=18),\n",
       "    Message('note_on', channel=0, note=31, velocity=0, time=3),\n",
       "    Message('control_change', channel=0, control=64, value=127, time=16),\n",
       "    Message('note_on', channel=0, note=43, velocity=0, time=1),\n",
       "    Message('note_on', channel=0, note=65, velocity=0, time=23),\n",
       "    Message('note_on', channel=0, note=59, velocity=0, time=1),\n",
       "    Message('note_on', channel=0, note=59, velocity=71, time=97),\n",
       "    Message('note_on', channel=0, note=65, velocity=75, time=1),\n",
       "    Message('note_on', channel=0, note=59, velocity=0, time=44),\n",
       "    Message('note_on', channel=0, note=65, velocity=0, time=10),\n",
       "    Message('control_change', channel=0, control=64, value=106, time=43),\n",
       "    Message('control_change', channel=0, control=64, value=84, time=20),\n",
       "    Message('control_change', channel=0, control=64, value=62, time=19),\n",
       "    Message('control_change', channel=0, control=67, value=11, time=2),\n",
       "    Message('control_change', channel=0, control=64, value=39, time=15),\n",
       "    Message('note_on', channel=0, note=55, velocity=78, time=5),\n",
       "    Message('control_change', channel=0, control=67, value=18, time=15),\n",
       "    Message('control_change', channel=0, control=64, value=0, time=18),\n",
       "    Message('control_change', channel=0, control=67, value=23, time=18),\n",
       "    Message('control_change', channel=0, control=67, value=30, time=19),\n",
       "    Message('control_change', channel=0, control=67, value=40, time=17),\n",
       "    Message('note_on', channel=0, note=55, velocity=0, time=9),\n",
       "    Message('control_change', channel=0, control=67, value=54, time=9),\n",
       "    Message('control_change', channel=0, control=67, value=67, time=19),\n",
       "    Message('control_change', channel=0, control=67, value=77, time=20),\n",
       "    Message('control_change', channel=0, control=67, value=82, time=15),\n",
       "    Message('note_on', channel=0, note=65, velocity=69, time=3),\n",
       "    Message('note_on', channel=0, note=59, velocity=67, time=7),\n",
       "    Message('control_change', channel=0, control=67, value=86, time=9),\n",
       "    Message('control_change', channel=0, control=67, value=92, time=38),\n",
       "    Message('control_change', channel=0, control=67, value=98, time=19),\n",
       "    Message('note_on', channel=0, note=59, velocity=0, time=6),\n",
       "    Message('note_on', channel=0, note=65, velocity=0, time=2),\n",
       "    Message('control_change', channel=0, control=67, value=107, time=12),\n",
       "    Message('control_change', channel=0, control=67, value=120, time=17),\n",
       "    Message('control_change', channel=0, control=67, value=127, time=20),\n",
       "    Message('note_on', channel=0, note=56, velocity=69, time=51),\n",
       "    Message('note_on', channel=0, note=63, velocity=63, time=154),\n",
       "    Message('note_on', channel=0, note=60, velocity=58, time=12),\n",
       "    Message('note_on', channel=0, note=63, velocity=0, time=61),\n",
       "    Message('note_on', channel=0, note=60, velocity=0, time=8),\n",
       "    Message('note_on', channel=0, note=55, velocity=68, time=108),\n",
       "    Message('note_on', channel=0, note=56, velocity=0, time=38),\n",
       "    Message('note_on', channel=0, note=63, velocity=57, time=134),\n",
       "    Message('note_on', channel=0, note=60, velocity=56, time=9),\n",
       "    Message('note_on', channel=0, note=63, velocity=0, time=79),\n",
       "    Message('note_on', channel=0, note=60, velocity=0, time=15),\n",
       "    Message('note_on', channel=0, note=54, velocity=62, time=66),\n",
       "    Message('note_on', channel=0, note=55, velocity=0, time=9),\n",
       "    Message('note_on', channel=0, note=60, velocity=58, time=147),\n",
       "    Message('note_on', channel=0, note=63, velocity=55, time=2),\n",
       "    Message('note_on', channel=0, note=60, velocity=0, time=60),\n",
       "    Message('note_on', channel=0, note=63, velocity=0, time=45),\n",
       "    Message('note_on', channel=0, note=54, velocity=0, time=50),\n",
       "    Message('note_on', channel=0, note=62, velocity=63, time=10),\n",
       "    Message('note_on', channel=0, note=55, velocity=54, time=3),\n",
       "    Message('note_on', channel=0, note=59, velocity=55, time=11),\n",
       "    Message('control_change', channel=0, control=64, value=19, time=31),\n",
       "    Message('control_change', channel=0, control=64, value=51, time=19),\n",
       "    Message('control_change', channel=0, control=64, value=73, time=18),\n",
       "    Message('note_on', channel=0, note=59, velocity=0, time=7),\n",
       "    Message('control_change', channel=0, control=64, value=99, time=12),\n",
       "    Message('control_change', channel=0, control=64, value=127, time=19),\n",
       "    Message('note_on', channel=0, note=62, velocity=0, time=36),\n",
       "    Message('note_on', channel=0, note=67, velocity=67, time=8),\n",
       "    Message('note_on', channel=0, note=63, velocity=63, time=5),\n",
       "    Message('note_on', channel=0, note=55, velocity=0, time=17),\n",
       "    Message('control_change', channel=0, control=64, value=120, time=58),\n",
       "    Message('control_change', channel=0, control=64, value=105, time=18),\n",
       "    Message('control_change', channel=0, control=64, value=92, time=20),\n",
       "    Message('control_change', channel=0, control=64, value=82, time=17),\n",
       "    Message('control_change', channel=0, control=64, value=75, time=20),\n",
       "    Message('control_change', channel=0, control=64, value=70, time=17),\n",
       "    Message('note_on', channel=0, note=65, velocity=69, time=3),\n",
       "    Message('note_on', channel=0, note=62, velocity=61, time=6),\n",
       "    Message('note_on', channel=0, note=63, velocity=0, time=2),\n",
       "    Message('control_change', channel=0, control=64, value=67, time=7),\n",
       "    Message('note_on', channel=0, note=67, velocity=0, time=17),\n",
       "    Message('control_change', channel=0, control=64, value=65, time=1),\n",
       "    Message('control_change', channel=0, control=64, value=61, time=19),\n",
       "    Message('control_change', channel=0, control=64, value=56, time=19),\n",
       "    Message('control_change', channel=0, control=64, value=50, time=18),\n",
       "    Message('control_change', channel=0, control=64, value=43, time=20),\n",
       "    Message('control_change', channel=0, control=64, value=34, time=16),\n",
       "    Message('control_change', channel=0, control=64, value=21, time=18),\n",
       "    Message('note_on', channel=0, note=60, velocity=68, time=6),\n",
       "    Message('note_on', channel=0, note=63, velocity=74, time=5),\n",
       "    Message('note_on', channel=0, note=62, velocity=0, time=7),\n",
       "    Message('control_change', channel=0, control=64, value=0, time=0),\n",
       "    Message('note_on', channel=0, note=65, velocity=0, time=49),\n",
       "    Message('note_on', channel=0, note=60, velocity=0, time=2),\n",
       "    Message('note_on', channel=0, note=62, velocity=63, time=99),\n",
       "    Message('note_on', channel=0, note=59, velocity=66, time=9),\n",
       "    Message('note_on', channel=0, note=63, velocity=0, time=20),\n",
       "    Message('note_on', channel=0, note=59, velocity=0, time=39),\n",
       "    Message('note_on', channel=0, note=62, velocity=0, time=96),\n",
       "    Message('note_on', channel=0, note=63, velocity=67, time=5),\n",
       "    Message('note_on', channel=0, note=54, velocity=59, time=1),\n",
       "    Message('note_on', channel=0, note=60, velocity=65, time=6),\n",
       "    Message('note_on', channel=0, note=60, velocity=0, time=82),\n",
       "    Message('note_on', channel=0, note=62, velocity=64, time=76),\n",
       "    Message('note_on', channel=0, note=59, velocity=66, time=23),\n",
       "    Message('note_on', channel=0, note=54, velocity=0, time=10),\n",
       "    Message('note_on', channel=0, note=55, velocity=57, time=2),\n",
       "    Message('note_on', channel=0, note=63, velocity=0, time=7),\n",
       "    Message('control_change', channel=0, control=64, value=23, time=9),\n",
       "    Message('control_change', channel=0, control=64, value=52, time=20),\n",
       "    Message('control_change', channel=0, control=64, value=73, time=18),\n",
       "    Message('note_on', channel=0, note=59, velocity=0, time=4),\n",
       "    Message('control_change', channel=0, control=64, value=96, time=13),\n",
       "    Message('note_on', channel=0, note=62, velocity=0, time=17),\n",
       "    Message('control_change', channel=0, control=64, value=127, time=4),\n",
       "    Message('note_on', channel=0, note=55, velocity=0, time=28),\n",
       "    Message('note_on', channel=0, note=67, velocity=70, time=40),\n",
       "    Message('note_on', channel=0, note=63, velocity=73, time=1),\n",
       "    Message('control_change', channel=0, control=64, value=114, time=36),\n",
       "    Message('control_change', channel=0, control=64, value=98, time=18),\n",
       "    Message('control_change', channel=0, control=64, value=83, time=20),\n",
       "    Message('control_change', channel=0, control=64, value=70, time=20),\n",
       "    Message('control_change', channel=0, control=64, value=61, time=16),\n",
       "    Message('control_change', channel=0, control=64, value=56, time=20),\n",
       "    Message('note_on', channel=0, note=65, velocity=72, time=24),\n",
       "    Message('note_on', channel=0, note=62, velocity=69, time=13),\n",
       "    Message('note_on', channel=0, note=63, velocity=0, time=7),\n",
       "    Message('control_change', channel=0, control=64, value=54, time=30),\n",
       "    Message('control_change', channel=0, control=64, value=49, time=15),\n",
       "    Message('note_on', channel=0, note=67, velocity=0, time=1),\n",
       "    Message('control_change', channel=0, control=64, value=43, time=19),\n",
       "    Message('control_change', channel=0, control=64, value=35, time=19),\n",
       "    Message('control_change', channel=0, control=64, value=22, time=17),\n",
       "    Message('control_change', channel=0, control=64, value=0, time=20),\n",
       "    Message('note_on', channel=0, note=63, velocity=72, time=19),\n",
       "    Message('note_on', channel=0, note=60, velocity=65, time=3),\n",
       "    Message('note_on', channel=0, note=62, velocity=0, time=2),\n",
       "    Message('note_on', channel=0, note=65, velocity=0, time=49),\n",
       "    Message('note_on', channel=0, note=60, velocity=0, time=9),\n",
       "    Message('note_on', channel=0, note=62, velocity=70, time=88),\n",
       "    Message('note_on', channel=0, note=59, velocity=63, time=19),\n",
       "    Message('note_on', channel=0, note=63, velocity=0, time=38),\n",
       "    Message('note_on', channel=0, note=59, velocity=0, time=16),\n",
       "    Message('note_on', channel=0, note=54, velocity=59, time=96),\n",
       "    Message('note_on', channel=0, note=63, velocity=67, time=4),\n",
       "    Message('note_on', channel=0, note=60, velocity=62, time=19),\n",
       "    Message('note_on', channel=0, note=62, velocity=0, time=1),\n",
       "    Message('note_on', channel=0, note=60, velocity=0, time=67),\n",
       "    Message('note_on', channel=0, note=62, velocity=70, time=87),\n",
       "    Message('note_on', channel=0, note=54, velocity=0, time=5),\n",
       "    Message('note_on', channel=0, note=55, velocity=59, time=2),\n",
       "    Message('note_on', channel=0, note=59, velocity=66, time=12),\n",
       "    Message('note_on', channel=0, note=63, velocity=0, time=25),\n",
       "    Message('note_on', channel=0, note=55, velocity=0, time=125),\n",
       "    Message('note_on', channel=0, note=63, velocity=75, time=6),\n",
       "    Message('note_on', channel=0, note=54, velocity=68, time=0),\n",
       "    Message('note_on', channel=0, note=59, velocity=0, time=3),\n",
       "    Message('note_on', channel=0, note=60, velocity=69, time=4),\n",
       "    Message('note_on', channel=0, note=62, velocity=0, time=2),\n",
       "    Message('note_on', channel=0, note=62, velocity=65, time=152),\n",
       "    Message('note_on', channel=0, note=59, velocity=63, time=2),\n",
       "    Message('note_on', channel=0, note=55, velocity=64, time=3),\n",
       "    Message('note_on', channel=0, note=54, velocity=0, time=5),\n",
       "    Message('note_on', channel=0, note=60, velocity=0, time=25),\n",
       "    Message('note_on', channel=0, note=63, velocity=0, time=2),\n",
       "    Message('note_on', channel=0, note=59, velocity=0, time=123),\n",
       "    Message('note_on', channel=0, note=55, velocity=0, time=5),\n",
       "    Message('note_on', channel=0, note=63, velocity=71, time=6),\n",
       "    Message('note_on', channel=0, note=62, velocity=0, time=3),\n",
       "    Message('note_on', channel=0, note=54, velocity=63, time=3),\n",
       "    Message('note_on', channel=0, note=60, velocity=64, time=4),\n",
       "    Message('note_on', channel=0, note=62, velocity=65, time=159),\n",
       "    Message('note_on', channel=0, note=55, velocity=59, time=1),\n",
       "    Message('note_on', channel=0, note=54, velocity=0, time=2),\n",
       "    Message('note_on', channel=0, note=59, velocity=62, time=8),\n",
       "    Message('note_on', channel=0, note=60, velocity=0, time=27),\n",
       "    Message('note_on', channel=0, note=63, velocity=0, time=0),\n",
       "    Message('note_on', channel=0, note=54, velocity=64, time=126),\n",
       "    Message('note_on', channel=0, note=63, velocity=71, time=5),\n",
       "    Message('note_on', channel=0, note=62, velocity=0, time=1),\n",
       "    Message('note_on', channel=0, note=60, velocity=65, time=7),\n",
       "    Message('note_on', channel=0, note=55, velocity=0, time=2),\n",
       "    Message('note_on', channel=0, note=59, velocity=0, time=9),\n",
       "    Message('note_on', channel=0, note=55, velocity=63, time=145),\n",
       "    Message('note_on', channel=0, note=62, velocity=66, time=2),\n",
       "    Message('note_on', channel=0, note=60, velocity=0, time=4),\n",
       "    Message('note_on', channel=0, note=54, velocity=0, time=17),\n",
       "    Message('note_on', channel=0, note=59, velocity=67, time=2),\n",
       "    Message('note_on', channel=0, note=63, velocity=0, time=22),\n",
       "    Message('note_on', channel=0, note=59, velocity=0, time=88),\n",
       "    Message('note_on', channel=0, note=61, velocity=69, time=55),\n",
       "    Message('note_on', channel=0, note=58, velocity=61, time=2),\n",
       "    Message('note_on', channel=0, note=62, velocity=0, time=28),\n",
       "    Message('note_on', channel=0, note=61, velocity=0, time=129),\n",
       "    Message('note_on', channel=0, note=62, velocity=72, time=3),\n",
       "    Message('note_on', channel=0, note=59, velocity=64, time=3),\n",
       "    Message('note_on', channel=0, note=58, velocity=0, time=7),\n",
       "    Message('note_on', channel=0, note=64, velocity=69, time=153),\n",
       "    Message('note_on', channel=0, note=61, velocity=70, time=6),\n",
       "    Message('note_on', channel=0, note=59, velocity=0, time=26),\n",
       "    Message('note_on', channel=0, note=62, velocity=0, time=7),\n",
       "    Message('note_on', channel=0, note=55, velocity=0, time=71),\n",
       "    Message('note_on', channel=0, note=61, velocity=0, time=35),\n",
       "    Message('note_on', channel=0, note=65, velocity=66, time=36),\n",
       "    Message('note_on', channel=0, note=62, velocity=62, time=6),\n",
       "    Message('note_on', channel=0, note=64, velocity=0, time=13),\n",
       "    Message('note_on', channel=0, note=62, velocity=0, time=115),\n",
       "    Message('note_on', channel=0, note=67, velocity=67, time=23),\n",
       "    Message('note_on', channel=0, note=64, velocity=70, time=4),\n",
       "    Message('note_on', channel=0, note=65, velocity=0, time=15),\n",
       "    Message('note_on', channel=0, note=64, velocity=0, time=68),\n",
       "    Message('note_on', channel=0, note=67, velocity=0, time=5),\n",
       "    Message('note_on', channel=0, note=69, velocity=69, time=123),\n",
       "    Message('note_on', channel=0, note=65, velocity=63, time=2),\n",
       "    Message('note_on', channel=0, note=53, velocity=56, time=14),\n",
       "    Message('note_on', channel=0, note=65, velocity=0, time=84),\n",
       "    Message('note_on', channel=0, note=53, velocity=0, time=2),\n",
       "    Message('note_on', channel=0, note=69, velocity=0, time=1),\n",
       "    Message('note_on', channel=0, note=69, velocity=66, time=229),\n",
       "    Message('note_on', channel=0, note=65, velocity=66, time=6),\n",
       "    Message('note_on', channel=0, note=60, velocity=62, time=1),\n",
       "    Message('note_on', channel=0, note=53, velocity=64, time=5),\n",
       "    Message('note_on', channel=0, note=53, velocity=0, time=83),\n",
       "    Message('note_on', channel=0, note=60, velocity=0, time=11),\n",
       "    Message('note_on', channel=0, note=65, velocity=0, time=3),\n",
       "    Message('note_on', channel=0, note=69, velocity=0, time=7),\n",
       "    Message('note_on', channel=0, note=69, velocity=66, time=230),\n",
       "    Message('note_on', channel=0, note=65, velocity=57, time=3),\n",
       "    Message('note_on', channel=0, note=53, velocity=65, time=4),\n",
       "    Message('note_on', channel=0, note=60, velocity=61, time=2),\n",
       "    Message('note_on', channel=0, note=53, velocity=0, time=90),\n",
       "    Message('note_on', channel=0, note=60, velocity=0, time=7),\n",
       "    Message('note_on', channel=0, note=65, velocity=0, time=16),\n",
       "    Message('note_on', channel=0, note=69, velocity=0, time=0),\n",
       "    Message('note_on', channel=0, note=69, velocity=62, time=271),\n",
       "    Message('note_on', channel=0, note=65, velocity=59, time=8),\n",
       "    Message('note_on', channel=0, note=53, velocity=63, time=9),\n",
       "    Message('note_on', channel=0, note=60, velocity=53, time=2),\n",
       "    Message('control_change', channel=0, control=67, value=120, time=224),\n",
       "    Message('control_change', channel=0, control=64, value=31, time=18),\n",
       "    Message('control_change', channel=0, control=67, value=115, time=2),\n",
       "    Message('control_change', channel=0, control=64, value=51, time=17),\n",
       "    Message('control_change', channel=0, control=64, value=64, time=20),\n",
       "    Message('control_change', channel=0, control=64, value=71, time=17),\n",
       "    Message('control_change', channel=0, control=64, value=77, time=19),\n",
       "    Message('control_change', channel=0, control=67, value=119, time=2),\n",
       "    Message('control_change', channel=0, control=64, value=81, time=18),\n",
       "    Message('control_change', channel=0, control=64, value=83, time=18),\n",
       "    Message('control_change', channel=0, control=67, value=123, time=17),\n",
       "    Message('control_change', channel=0, control=64, value=86, time=17),\n",
       "    Message('control_change', channel=0, control=67, value=127, time=55),\n",
       "    Message('control_change', channel=0, control=64, value=84, time=19),\n",
       "    Message('control_change', channel=0, control=64, value=81, time=18),\n",
       "    Message('control_change', channel=0, control=64, value=78, time=20),\n",
       "    Message('control_change', channel=0, control=64, value=74, time=18),\n",
       "    Message('control_change', channel=0, control=64, value=68, time=18),\n",
       "    Message('control_change', channel=0, control=64, value=61, time=20),\n",
       "    Message('control_change', channel=0, control=64, value=52, time=18),\n",
       "    Message('control_change', channel=0, control=64, value=42, time=17),\n",
       "    Message('control_change', channel=0, control=64, value=25, time=18),\n",
       "    Message('control_change', channel=0, control=64, value=0, time=20),\n",
       "    Message('note_on', channel=0, note=53, velocity=0, time=60),\n",
       "    Message('note_on', channel=0, note=60, velocity=0, time=4),\n",
       "    Message('note_on', channel=0, note=67, velocity=61, time=14),\n",
       "    Message('note_on', channel=0, note=48, velocity=55, time=8),\n",
       "    Message('control_change', channel=0, control=64, value=25, time=0),\n",
       "    Message('note_on', channel=0, note=64, velocity=56, time=12),\n",
       "    Message('control_change', channel=0, control=64, value=55, time=8),\n",
       "    Message('note_on', channel=0, note=69, velocity=0, time=12),\n",
       "    Message('control_change', channel=0, control=64, value=75, time=6),\n",
       "    Message('control_change', channel=0, control=64, value=101, time=19),\n",
       "    Message('control_change', channel=0, control=64, value=127, time=19),\n",
       "    Message('note_on', channel=0, note=65, velocity=0, time=4),\n",
       "    Message('note_on', channel=0, note=67, velocity=0, time=30),\n",
       "    Message('note_on', channel=0, note=64, velocity=0, time=2),\n",
       "    Message('note_on', channel=0, note=48, velocity=0, time=2),\n",
       "    Message('control_change', channel=0, control=64, value=103, time=166),\n",
       "    Message('control_change', channel=0, control=64, value=78, time=19),\n",
       "    Message('note_on', channel=0, note=67, velocity=68, time=1),\n",
       "    Message('control_change', channel=0, control=64, value=55, time=19),\n",
       "    Message('note_on', channel=0, note=62, velocity=64, time=8),\n",
       "    Message('note_on', channel=0, note=59, velocity=58, time=5),\n",
       "    Message('note_on', channel=0, note=43, velocity=57, time=4),\n",
       "    Message('control_change', channel=0, control=64, value=29, time=1),\n",
       "    Message('control_change', channel=0, control=64, value=0, time=15),\n",
       "    Message('polytouch', channel=0, note=45, value=0, time=31),\n",
       "    Message('polytouch', channel=0, note=45, value=0, time=16),\n",
       "    Message('note_on', channel=0, note=65, velocity=73, time=22),\n",
       "    Message('note_on', channel=0, note=43, velocity=0, time=10),\n",
       "    Message('note_on', channel=0, note=59, velocity=0, time=16),\n",
       "    Message('note_on', channel=0, note=67, velocity=0, time=9),\n",
       "    Message('note_on', channel=0, note=62, velocity=0, time=14),\n",
       "    Message('note_on', channel=0, note=65, velocity=0, time=43),\n",
       "    Message('note_on', channel=0, note=65, velocity=75, time=124),\n",
       "    Message('note_on', channel=0, note=62, velocity=65, time=13),\n",
       "    Message('note_on', channel=0, note=59, velocity=60, time=1),\n",
       "    Message('note_on', channel=0, note=43, velocity=63, time=3),\n",
       "    Message('note_on', channel=0, note=59, velocity=0, time=52),\n",
       "    Message('note_on', channel=0, note=43, velocity=0, time=3),\n",
       "    Message('note_on', channel=0, note=62, velocity=0, time=15),\n",
       "    Message('note_on', channel=0, note=65, velocity=0, time=3),\n",
       "    Message('note_on', channel=0, note=65, velocity=75, time=252),\n",
       "    Message('note_on', channel=0, note=59, velocity=62, time=8),\n",
       "    Message('note_on', channel=0, note=43, velocity=68, time=1),\n",
       "    Message('note_on', channel=0, note=62, velocity=72, time=4),\n",
       "    Message('note_on', channel=0, note=43, velocity=0, time=74),\n",
       "    Message('note_on', channel=0, note=62, velocity=0, time=5),\n",
       "    Message('note_on', channel=0, note=59, velocity=0, time=3),\n",
       "    Message('note_on', channel=0, note=65, velocity=0, time=7),\n",
       "    Message('note_on', channel=0, note=65, velocity=57, time=282),\n",
       "    Message('note_on', channel=0, note=59, velocity=58, time=7),\n",
       "    Message('note_on', channel=0, note=62, velocity=56, time=8),\n",
       "    Message('note_on', channel=0, note=43, velocity=53, time=1),\n",
       "    Message('note_on', channel=0, note=64, velocity=59, time=690),\n",
       "    Message('note_on', channel=0, note=59, velocity=0, time=7),\n",
       "    Message('note_on', channel=0, note=43, velocity=0, time=11),\n",
       "    Message('note_on', channel=0, note=45, velocity=46, time=8),\n",
       "    Message('note_on', channel=0, note=60, velocity=51, time=3),\n",
       "    Message('control_change', channel=0, control=64, value=28, time=15),\n",
       "    Message('control_change', channel=0, control=64, value=58, time=19),\n",
       "    Message('note_on', channel=0, note=65, velocity=0, time=1),\n",
       "    Message('note_on', channel=0, note=62, velocity=0, time=9),\n",
       "    Message('control_change', channel=0, control=64, value=77, time=7),\n",
       "    Message('control_change', channel=0, control=64, value=100, time=19),\n",
       "    Message('note_on', channel=0, note=60, velocity=0, time=7),\n",
       "    Message('note_on', channel=0, note=64, velocity=0, time=11),\n",
       "    Message('control_change', channel=0, control=64, value=127, time=0),\n",
       "    Message('note_on', channel=0, note=45, velocity=0, time=54),\n",
       "    Message('control_change', channel=0, control=64, value=117, time=94),\n",
       "    Message('control_change', channel=0, control=64, value=93, time=19),\n",
       "    Message('control_change', channel=0, control=64, value=70, time=20),\n",
       "    Message('control_change', channel=0, control=64, value=49, time=18),\n",
       "    Message('note_on', channel=0, note=67, velocity=62, time=2),\n",
       "    Message('note_on', channel=0, note=64, velocity=56, time=9),\n",
       "    Message('note_on', channel=0, note=41, velocity=58, time=4),\n",
       "    Message('control_change', channel=0, control=64, value=24, time=3),\n",
       "    Message('control_change', channel=0, control=64, value=0, time=19),\n",
       "    Message('note_on', channel=0, note=65, velocity=70, time=115),\n",
       "    Message('note_on', channel=0, note=62, velocity=66, time=12),\n",
       "    Message('note_on', channel=0, note=64, velocity=0, time=9),\n",
       "    Message('note_on', channel=0, note=41, velocity=0, time=14),\n",
       "    Message('note_on', channel=0, note=67, velocity=0, time=3),\n",
       "    Message('note_on', channel=0, note=62, velocity=0, time=28),\n",
       "    Message('note_on', channel=0, note=65, velocity=0, time=15),\n",
       "    Message('note_on', channel=0, note=64, velocity=66, time=106),\n",
       "    Message('note_on', channel=0, note=43, velocity=63, time=12),\n",
       "    Message('note_on', channel=0, note=60, velocity=61, time=11),\n",
       "    Message('note_on', channel=0, note=60, velocity=0, time=67),\n",
       "    Message('note_on', channel=0, note=64, velocity=0, time=15),\n",
       "    Message('note_on', channel=0, note=43, velocity=0, time=7),\n",
       "    Message('note_on', channel=0, note=62, velocity=69, time=248),\n",
       "    Message('note_on', channel=0, note=43, velocity=64, time=7),\n",
       "    Message('note_on', channel=0, note=59, velocity=58, time=17),\n",
       "    Message('note_on', channel=0, note=43, velocity=0, time=32),\n",
       "    Message('note_on', channel=0, note=59, velocity=0, time=20),\n",
       "    Message('note_on', channel=0, note=62, velocity=0, time=8),\n",
       "    Message('control_change', channel=0, control=64, value=17, time=262),\n",
       "    Message('control_change', channel=0, control=64, value=42, time=20),\n",
       "    Message('note_on', channel=0, note=64, velocity=62, time=12),\n",
       "    Message('control_change', channel=0, control=64, value=60, time=6),\n",
       "    Message('note_on', channel=0, note=60, velocity=54, time=13),\n",
       "    Message('control_change', channel=0, control=64, value=71, time=5),\n",
       "    Message('note_on', channel=0, note=48, velocity=46, time=4),\n",
       "    Message('control_change', channel=0, control=64, value=80, time=15),\n",
       "    Message('note_on', channel=0, note=64, velocity=0, time=9),\n",
       "    Message('control_change', channel=0, control=64, value=91, time=9),\n",
       "    Message('control_change', channel=0, control=64, value=102, time=19),\n",
       "    Message('control_change', channel=0, control=64, value=110, time=19),\n",
       "    Message('control_change', channel=0, control=64, value=116, time=19),\n",
       "    Message('note_on', channel=0, note=60, velocity=0, time=11),\n",
       "    Message('control_change', channel=0, control=64, value=121, time=7),\n",
       "    Message('note_on', channel=0, note=72, velocity=65, time=116),\n",
       "    Message('control_change', channel=0, control=64, value=114, time=6),\n",
       "    Message('control_change', channel=0, control=64, value=100, time=21),\n",
       "    Message('control_change', channel=0, control=64, value=84, time=18),\n",
       "    Message('note_on', channel=0, note=72, velocity=0, time=2),\n",
       "    Message('control_change', channel=0, control=64, value=66, time=17),\n",
       "    Message('control_change', channel=0, control=64, value=49, time=17),\n",
       "    Message('control_change', channel=0, control=64, value=38, time=19),\n",
       "    Message('control_change', channel=0, control=64, value=31, time=19),\n",
       "    Message('note_on', channel=0, note=74, velocity=79, time=35),\n",
       "    Message('note_on', channel=0, note=48, velocity=0, time=35),\n",
       "    Message('control_change', channel=0, control=64, value=25, time=3),\n",
       "    Message('control_change', channel=0, control=64, value=19, time=20),\n",
       "    Message('note_on', channel=0, note=74, velocity=0, time=7),\n",
       "    Message('control_change', channel=0, control=64, value=14, time=10),\n",
       "    Message('control_change', channel=0, control=64, value=8, time=19),\n",
       "    Message('note_on', channel=0, note=76, velocity=81, time=53),\n",
       "    Message('control_change', channel=0, control=64, value=0, time=0),\n",
       "    Message('note_on', channel=0, note=76, velocity=0, time=56),\n",
       "    Message('note_on', channel=0, note=77, velocity=79, time=95),\n",
       "    Message('note_on', channel=0, note=77, velocity=0, time=69),\n",
       "    Message('note_on', channel=0, note=79, velocity=81, time=82),\n",
       "    Message('note_on', channel=0, note=79, velocity=0, time=67),\n",
       "    Message('control_change', channel=0, control=67, value=121, time=40),\n",
       "    Message('control_change', channel=0, control=67, value=116, time=37),\n",
       "    Message('note_on', channel=0, note=81, velocity=83, time=25),\n",
       "    Message('note_on', channel=0, note=65, velocity=64, time=11),\n",
       "    Message('note_on', channel=0, note=60, velocity=60, time=2),\n",
       "    Message('control_change', channel=0, control=67, value=110, time=35),\n",
       "    Message('note_on', channel=0, note=65, velocity=0, time=20),\n",
       "    Message('note_on', channel=0, note=81, velocity=0, time=5),\n",
       "    Message('note_on', channel=0, note=60, velocity=0, time=5),\n",
       "    Message('control_change', channel=0, control=67, value=105, time=6),\n",
       "    Message('note_on', channel=0, note=81, velocity=78, time=271),\n",
       "    Message('note_on', channel=0, note=65, velocity=62, time=9),\n",
       "    Message('note_on', channel=0, note=60, velocity=58, time=5),\n",
       "    Message('control_change', channel=0, control=67, value=101, time=44),\n",
       "    Message('note_on', channel=0, note=65, velocity=0, time=14),\n",
       "    Message('note_on', channel=0, note=81, velocity=0, time=2),\n",
       "    Message('note_on', channel=0, note=60, velocity=0, time=9),\n",
       "    Message('note_on', channel=0, note=81, velocity=78, time=250),\n",
       "    Message('note_on', channel=0, note=65, velocity=61, time=2),\n",
       "    Message('note_on', channel=0, note=60, velocity=61, time=0),\n",
       "    Message('note_on', channel=0, note=65, velocity=0, time=61),\n",
       "    Message('note_on', channel=0, note=60, velocity=0, time=13),\n",
       "    Message('note_on', channel=0, note=81, velocity=0, time=0),\n",
       "    Message('note_on', channel=0, note=81, velocity=70, time=266),\n",
       "    Message('note_on', channel=0, note=65, velocity=56, time=21),\n",
       "    Message('note_on', channel=0, note=60, velocity=56, time=4),\n",
       "    Message('control_change', channel=0, control=67, value=97, time=209),\n",
       "    Message('control_change', channel=0, control=64, value=29, time=38),\n",
       "    Message('control_change', channel=0, control=64, value=49, time=16),\n",
       "    Message('control_change', channel=0, control=64, value=62, time=19),\n",
       "    Message('control_change', channel=0, control=67, value=93, time=1),\n",
       "    Message('control_change', channel=0, control=64, value=70, time=18),\n",
       "    Message('control_change', channel=0, control=64, value=76, time=18),\n",
       "    Message('control_change', channel=0, control=64, value=83, time=18),\n",
       "    Message('control_change', channel=0, control=67, value=89, time=1),\n",
       "    Message('control_change', channel=0, control=64, value=88, time=17),\n",
       "    Message('control_change', channel=0, control=67, value=85, time=18),\n",
       "    Message('control_change', channel=0, control=64, value=92, time=39),\n",
       "    Message('control_change', channel=0, control=67, value=80, time=1),\n",
       "    Message('note_on', channel=0, note=81, velocity=0, time=93),\n",
       "    Message('note_on', channel=0, note=83, velocity=67, time=12),\n",
       "    Message('control_change', channel=0, control=64, value=84, time=41),\n",
       "    Message('control_change', channel=0, control=64, value=71, time=16),\n",
       "    Message('note_on', channel=0, note=83, velocity=0, time=14),\n",
       "    Message('control_change', channel=0, control=64, value=53, time=6),\n",
       "    Message('note_on', channel=0, note=65, velocity=0, time=1),\n",
       "    Message('note_on', channel=0, note=81, velocity=73, time=8),\n",
       "    Message('control_change', channel=0, control=64, value=26, time=10),\n",
       "    Message('control_change', channel=0, control=64, value=0, time=19),\n",
       "    Message('control_change', channel=0, control=67, value=76, time=0),\n",
       "    Message('control_change', channel=0, control=64, value=41, time=56),\n",
       "    Message('control_change', channel=0, control=67, value=72, time=1),\n",
       "    Message('note_on', channel=0, note=81, velocity=0, time=3),\n",
       "    Message('note_on', channel=0, note=79, velocity=79, time=2),\n",
       "    Message('note_on', channel=0, note=64, velocity=60, time=0),\n",
       "    Message('control_change', channel=0, control=64, value=64, time=11),\n",
       "    Message('control_change', channel=0, control=64, value=81, time=17),\n",
       "    Message('control_change', channel=0, control=64, value=104, time=19),\n",
       "    Message('note_on', channel=0, note=60, velocity=0, time=8),\n",
       "    Message('note_on', channel=0, note=79, velocity=0, time=0),\n",
       "    Message('note_on', channel=0, note=64, velocity=0, time=2),\n",
       "    Message('control_change', channel=0, control=64, value=127, time=9),\n",
       "    Message('control_change', channel=0, control=64, value=122, time=185),\n",
       "    Message('control_change', channel=0, control=64, value=94, time=33),\n",
       "    Message('control_change', channel=0, control=64, value=68, time=18),\n",
       "    Message('note_on', channel=0, note=79, velocity=75, time=7),\n",
       "    Message('control_change', channel=0, control=64, value=40, time=12),\n",
       "    Message('note_on', channel=0, note=71, velocity=69, time=0),\n",
       "    Message('note_on', channel=0, note=62, velocity=63, time=6),\n",
       "    Message('note_on', channel=0, note=55, velocity=55, time=6),\n",
       "    Message('control_change', channel=0, control=64, value=0, time=6),\n",
       "    Message('control_change', channel=0, control=67, value=76, time=1),\n",
       "    Message('note_on', channel=0, note=55, velocity=0, time=32),\n",
       "    Message('note_on', channel=0, note=62, velocity=0, time=11),\n",
       "    Message('control_change', channel=0, control=67, value=80, time=30),\n",
       "    Message('note_on', channel=0, note=77, velocity=74, time=16),\n",
       "    Message('note_on', channel=0, note=71, velocity=0, time=7),\n",
       "    Message('note_on', channel=0, note=79, velocity=0, time=19),\n",
       "    Message('note_on', channel=0, note=77, velocity=0, time=52),\n",
       "    Message('note_on', channel=0, note=77, velocity=81, time=118),\n",
       "    Message('note_on', channel=0, note=71, velocity=66, time=6),\n",
       "    Message('note_on', channel=0, note=55, velocity=56, time=9),\n",
       "    Message('note_on', channel=0, note=62, velocity=62, time=3),\n",
       "    Message('note_on', channel=0, note=55, velocity=0, time=49),\n",
       "    Message('note_on', channel=0, note=77, velocity=0, time=7),\n",
       "    Message('note_on', channel=0, note=71, velocity=0, time=4),\n",
       "    Message('note_on', channel=0, note=62, velocity=0, time=2),\n",
       "    Message('control_change', channel=0, control=67, value=76, time=242),\n",
       "    Message('note_on', channel=0, note=77, velocity=73, time=18),\n",
       "    Message('note_on', channel=0, note=62, velocity=59, time=8),\n",
       "    Message('note_on', channel=0, note=55, velocity=55, time=6),\n",
       "    Message('note_on', channel=0, note=71, velocity=68, time=0),\n",
       "    Message('note_on', channel=0, note=55, velocity=0, time=55),\n",
       "    Message('control_change', channel=0, control=67, value=80, time=4),\n",
       "    Message('note_on', channel=0, note=62, velocity=0, time=0),\n",
       "    Message('note_on', channel=0, note=71, velocity=0, time=9),\n",
       "    Message('note_on', channel=0, note=77, velocity=0, time=3),\n",
       "    Message('note_on', channel=0, note=77, velocity=68, time=306),\n",
       "    Message('note_on', channel=0, note=71, velocity=57, time=21),\n",
       "    Message('note_on', channel=0, note=62, velocity=49, time=6),\n",
       "    Message('note_on', channel=0, note=55, velocity=46, time=10),\n",
       "    Message('control_change', channel=0, control=67, value=76, time=288),\n",
       "    Message('note_on', channel=0, note=55, velocity=0, time=343),\n",
       "    Message('note_on', channel=0, note=62, velocity=0, time=14),\n",
       "    Message('note_on', channel=0, note=76, velocity=57, time=7),\n",
       "    Message('note_on', channel=0, note=71, velocity=0, time=19),\n",
       "    Message('control_change', channel=0, control=64, value=26, time=4),\n",
       "    Message('note_on', channel=0, note=72, velocity=55, time=6),\n",
       "    Message('note_on', channel=0, note=60, velocity=46, time=2),\n",
       "    Message('note_on', channel=0, note=57, velocity=44, time=1),\n",
       "    Message('note_on', channel=0, note=77, velocity=0, time=7),\n",
       "    Message('control_change', channel=0, control=64, value=54, time=2),\n",
       "    Message('control_change', channel=0, control=64, value=71, time=18),\n",
       "    Message('control_change', channel=0, control=64, value=87, time=20),\n",
       "    Message('control_change', channel=0, control=64, value=112, time=32),\n",
       "    Message('note_on', channel=0, note=72, velocity=0, time=15),\n",
       "    Message('control_change', channel=0, control=64, value=127, time=2),\n",
       "    Message('note_on', channel=0, note=76, velocity=0, time=2),\n",
       "    Message('note_on', channel=0, note=60, velocity=0, time=8),\n",
       "    Message('note_on', channel=0, note=57, velocity=0, time=4),\n",
       "    Message('control_change', channel=0, control=64, value=113, time=154),\n",
       "    Message('control_change', channel=0, control=64, value=89, time=18),\n",
       "    Message('control_change', channel=0, control=64, value=66, time=18),\n",
       "    Message('note_on', channel=0, note=79, velocity=69, time=14),\n",
       "    Message('control_change', channel=0, control=64, value=42, time=4),\n",
       "    Message('note_on', channel=0, note=76, velocity=65, time=1),\n",
       "    Message('note_on', channel=0, note=53, velocity=68, time=11),\n",
       "    Message('control_change', channel=0, control=64, value=15, time=6),\n",
       "    Message('control_change', channel=0, control=64, value=0, time=20),\n",
       "    Message('note_on', channel=0, note=77, velocity=72, time=108),\n",
       "    Message('note_on', channel=0, note=74, velocity=70, time=9),\n",
       "    Message('note_on', channel=0, note=76, velocity=0, time=6),\n",
       "    Message('note_on', channel=0, note=53, velocity=0, time=4),\n",
       "    Message('note_on', channel=0, note=79, velocity=0, time=11),\n",
       "    Message('note_on', channel=0, note=77, velocity=0, time=43),\n",
       "    Message('note_on', channel=0, note=74, velocity=0, time=3),\n",
       "    Message('control_change', channel=0, control=67, value=80, time=108),\n",
       "    Message('note_on', channel=0, note=76, velocity=68, time=3),\n",
       "    Message('note_on', channel=0, note=55, velocity=61, time=18),\n",
       "    Message('note_on', channel=0, note=72, velocity=56, time=4),\n",
       "    Message('control_change', channel=0, control=67, value=85, time=13),\n",
       "    Message('note_on', channel=0, note=76, velocity=0, time=78),\n",
       "    Message('note_on', channel=0, note=72, velocity=0, time=18),\n",
       "    Message('note_on', channel=0, note=55, velocity=0, time=12),\n",
       "    Message('control_change', channel=0, control=67, value=78, time=22),\n",
       "    Message('control_change', channel=0, control=67, value=73, time=35),\n",
       "    Message('note_on', channel=0, note=74, velocity=61, time=199),\n",
       "    Message('note_on', channel=0, note=71, velocity=56, time=3),\n",
       "    Message('note_on', channel=0, note=53, velocity=57, time=4),\n",
       "    Message('note_on', channel=0, note=74, velocity=0, time=65),\n",
       "    Message('note_on', channel=0, note=71, velocity=0, time=1),\n",
       "    Message('note_on', channel=0, note=53, velocity=0, time=14),\n",
       "    Message('control_change', channel=0, control=67, value=67, time=171),\n",
       "    Message('control_change', channel=0, control=67, value=61, time=19),\n",
       "    Message('note_on', channel=0, note=79, velocity=82, time=14),\n",
       "    Message('control_change', channel=0, control=64, value=38, time=3),\n",
       "    Message('note_on', channel=0, note=52, velocity=80, time=0),\n",
       "    Message('control_change', channel=0, control=67, value=55, time=1),\n",
       "    Message('note_on', channel=0, note=40, velocity=80, time=2),\n",
       "    Message('note_on', channel=0, note=76, velocity=80, time=0),\n",
       "    Message('control_change', channel=0, control=64, value=67, time=18),\n",
       "    Message('control_change', channel=0, control=67, value=51, time=1),\n",
       "    Message('control_change', channel=0, control=64, value=91, time=17),\n",
       "    Message('note_on', channel=0, note=40, velocity=0, time=2),\n",
       "    Message('note_on', channel=0, note=52, velocity=0, time=1),\n",
       "    Message('control_change', channel=0, control=67, value=46, time=0),\n",
       "    Message('control_change', channel=0, control=64, value=127, time=15),\n",
       "    Message('control_change', channel=0, control=67, value=39, time=2),\n",
       "    Message('note_on', channel=0, note=76, velocity=0, time=9),\n",
       "    Message('control_change', channel=0, control=67, value=31, time=8),\n",
       "    Message('note_on', channel=0, note=79, velocity=0, time=6),\n",
       "    Message('control_change', channel=0, control=67, value=36, time=66),\n",
       "    Message('control_change', channel=0, control=67, value=41, time=18),\n",
       "    Message('note_on', channel=0, note=79, velocity=77, time=2),\n",
       "    Message('note_on', channel=0, note=76, velocity=75, time=6),\n",
       "    Message('control_change', channel=0, control=64, value=104, time=12),\n",
       "    Message('control_change', channel=0, control=64, value=84, time=17),\n",
       "    Message('control_change', channel=0, control=67, value=50, time=1),\n",
       "    Message('note_on', channel=0, note=76, velocity=0, time=9),\n",
       "    Message('control_change', channel=0, control=64, value=65, time=8),\n",
       "    Message('control_change', channel=0, control=67, value=58, time=3),\n",
       "    Message('note_on', channel=0, note=79, velocity=0, time=12),\n",
       "    Message('control_change', channel=0, control=64, value=45, time=6),\n",
       "    Message('control_change', channel=0, control=67, value=69, time=1),\n",
       "    Message('control_change', channel=0, control=64, value=21, time=16),\n",
       "    Message('control_change', channel=0, control=67, value=83, time=1),\n",
       "    Message('control_change', channel=0, control=64, value=0, time=18),\n",
       "    Message('control_change', channel=0, control=67, value=97, time=1),\n",
       "    Message('control_change', channel=0, control=67, value=110, time=18),\n",
       "    Message('control_change', channel=0, control=67, value=119, time=19),\n",
       "    Message('note_on', channel=0, note=56, velocity=74, time=16),\n",
       "    Message('control_change', channel=0, control=67, value=126, time=2),\n",
       "    Message('note_on', channel=0, note=56, velocity=0, time=39),\n",
       "    Message('note_on', channel=0, note=77, velocity=71, time=128),\n",
       "    Message('note_on', channel=0, note=74, velocity=61, time=19),\n",
       "    Message('note_on', channel=0, note=74, velocity=0, time=40),\n",
       "    Message('note_on', channel=0, note=77, velocity=0, time=6),\n",
       "    Message('note_on', channel=0, note=57, velocity=58, time=130),\n",
       "    Message('note_on', channel=0, note=55, velocity=22, time=35),\n",
       "    Message('note_on', channel=0, note=55, velocity=0, time=0),\n",
       "    Message('note_on', channel=0, note=57, velocity=0, time=4),\n",
       "    Message('note_on', channel=0, note=76, velocity=65, time=115),\n",
       "    Message('note_on', channel=0, note=72, velocity=69, time=2),\n",
       "    Message('note_on', channel=0, note=76, velocity=0, time=30),\n",
       "    Message('note_on', channel=0, note=72, velocity=0, time=6),\n",
       "    Message('note_on', channel=0, note=53, velocity=68, time=132),\n",
       "    Message('note_on', channel=0, note=53, velocity=0, time=41),\n",
       "    Message('note_on', channel=0, note=74, velocity=72, time=122),\n",
       "    Message('note_on', channel=0, note=65, velocity=67, time=11),\n",
       "    Message('note_on', channel=0, note=74, velocity=0, time=36),\n",
       "    Message('note_on', channel=0, note=65, velocity=0, time=7),\n",
       "    Message('note_on', channel=0, note=55, velocity=72, time=111),\n",
       "    Message('note_on', channel=0, note=55, velocity=0, time=40),\n",
       "    Message('polytouch', channel=0, note=70, value=0, time=102),\n",
       "    Message('note_on', channel=0, note=72, velocity=72, time=13),\n",
       "    Message('note_on', channel=0, note=64, velocity=67, time=28),\n",
       "    Message('note_on', channel=0, note=64, velocity=0, time=45),\n",
       "    Message('note_on', channel=0, note=72, velocity=0, time=14),\n",
       "    Message('note_on', channel=0, note=53, velocity=76, time=103),\n",
       "    Message('note_on', channel=0, note=53, velocity=0, time=43),\n",
       "    Message('control_change', channel=0, control=67, value=109, time=45),\n",
       "    Message('control_change', channel=0, control=67, value=91, time=17),\n",
       "    Message('control_change', channel=0, control=67, value=74, time=19),\n",
       "    Message('control_change', channel=0, control=67, value=62, time=18),\n",
       "    Message('note_on', channel=0, note=71, velocity=73, time=3),\n",
       "    Message('note_on', channel=0, note=62, velocity=72, time=2),\n",
       "    Message('control_change', channel=0, control=67, value=56, time=15),\n",
       "    Message('note_on', channel=0, note=62, velocity=0, time=24),\n",
       "    Message('note_on', channel=0, note=71, velocity=0, time=24),\n",
       "    Message('note_on', channel=0, note=52, velocity=82, time=105),\n",
       "    Message('note_on', channel=0, note=40, velocity=81, time=12),\n",
       "    Message('control_change', channel=0, control=67, value=52, time=20),\n",
       "    Message('note_on', channel=0, note=76, velocity=85, time=56),\n",
       "    Message('note_on', channel=0, note=40, velocity=0, time=35),\n",
       "    Message('control_change', channel=0, control=67, value=48, time=0),\n",
       "    Message('polytouch', channel=0, note=78, value=0, time=7),\n",
       "    Message('note_on', channel=0, note=52, velocity=0, time=2),\n",
       "    Message('note_on', channel=0, note=79, velocity=83, time=32),\n",
       "    Message('note_on', channel=0, note=76, velocity=0, time=27),\n",
       "    Message('note_on', channel=0, note=76, velocity=86, time=69),\n",
       "    Message('note_on', channel=0, note=79, velocity=0, time=17),\n",
       "    Message('note_on', channel=0, note=76, velocity=0, time=35),\n",
       "    Message('note_on', channel=0, note=56, velocity=81, time=20),\n",
       "    Message('note_on', channel=0, note=44, velocity=83, time=10),\n",
       "    Message('note_on', channel=0, note=74, velocity=80, time=79),\n",
       "    Message('note_on', channel=0, note=56, velocity=0, time=85),\n",
       "    Message('note_on', channel=0, note=77, velocity=86, time=2),\n",
       "    Message('note_on', channel=0, note=44, velocity=0, time=17),\n",
       "    Message('note_on', channel=0, note=74, velocity=0, time=8),\n",
       "    Message('control_change', channel=0, control=67, value=44, time=48),\n",
       "    Message('note_on', channel=0, note=74, velocity=79, time=12),\n",
       "    Message('note_on', channel=0, note=77, velocity=0, time=25),\n",
       "    Message('note_on', channel=0, note=74, velocity=0, time=40),\n",
       "    Message('note_on', channel=0, note=57, velocity=82, time=25),\n",
       "    Message('note_on', channel=0, note=45, velocity=80, time=9),\n",
       "    Message('note_on', channel=0, note=72, velocity=77, time=77),\n",
       "    Message('note_on', channel=0, note=57, velocity=0, time=24),\n",
       "    Message('note_on', channel=0, note=45, velocity=0, time=11),\n",
       "    Message('note_on', channel=0, note=76, velocity=84, time=40),\n",
       "    Message('note_on', channel=0, note=72, velocity=0, time=24),\n",
       "    Message('note_on', channel=0, note=72, velocity=77, time=61),\n",
       "    Message('note_on', channel=0, note=76, velocity=0, time=22),\n",
       "    Message('note_on', channel=0, note=72, velocity=0, time=37),\n",
       "    Message('note_on', channel=0, note=53, velocity=79, time=19),\n",
       "    Message('note_on', channel=0, note=41, velocity=78, time=11),\n",
       "    Message('note_on', channel=0, note=65, velocity=80, time=68),\n",
       "    Message('note_on', channel=0, note=41, velocity=0, time=34),\n",
       "    Message('note_on', channel=0, note=53, velocity=0, time=9),\n",
       "    Message('control_change', channel=0, control=67, value=40, time=41),\n",
       "    Message('note_on', channel=0, note=74, velocity=80, time=2),\n",
       "    Message('note_on', channel=0, note=65, velocity=0, time=1),\n",
       "    Message('note_on', channel=0, note=65, velocity=76, time=84),\n",
       "    Message('note_on', channel=0, note=74, velocity=0, time=27),\n",
       "    Message('note_on', channel=0, note=65, velocity=0, time=18),\n",
       "    Message('note_on', channel=0, note=55, velocity=82, time=30),\n",
       "    Message('note_on', channel=0, note=43, velocity=80, time=12),\n",
       "    Message('note_on', channel=0, note=64, velocity=81, time=87),\n",
       "    Message('note_on', channel=0, note=43, velocity=0, time=55),\n",
       "    Message('note_on', channel=0, note=55, velocity=0, time=18),\n",
       "    Message('note_on', channel=0, note=64, velocity=0, time=14),\n",
       "    Message('note_on', channel=0, note=72, velocity=82, time=7),\n",
       "    Message('note_on', channel=0, note=64, velocity=77, time=88),\n",
       "    Message('note_on', channel=0, note=72, velocity=0, time=15),\n",
       "    Message('note_on', channel=0, note=64, velocity=0, time=27),\n",
       "    Message('note_on', channel=0, note=55, velocity=76, time=27),\n",
       "    Message('note_on', channel=0, note=43, velocity=73, time=9),\n",
       "    Message('note_on', channel=0, note=62, velocity=84, time=60),\n",
       "    Message('note_on', channel=0, note=43, velocity=0, time=18),\n",
       "    Message('note_on', channel=0, note=55, velocity=0, time=17),\n",
       "    Message('control_change', channel=0, control=67, value=44, time=26),\n",
       "    Message('note_on', channel=0, note=62, velocity=0, time=11),\n",
       "    Message('note_on', channel=0, note=71, velocity=80, time=28),\n",
       "    Message('control_change', channel=0, control=67, value=48, time=16),\n",
       "    Message('note_on', channel=0, note=62, velocity=70, time=60),\n",
       "    Message('note_on', channel=0, note=71, velocity=0, time=13),\n",
       "    Message('control_change', channel=0, control=67, value=52, time=18),\n",
       "    Message('note_on', channel=0, note=62, velocity=0, time=6),\n",
       "    Message('note_on', channel=0, note=48, velocity=72, time=53),\n",
       "    Message('note_on', channel=0, note=72, velocity=83, time=1),\n",
       "    Message('note_on', channel=0, note=64, velocity=73, time=7),\n",
       "    Message('note_on', channel=0, note=67, velocity=69, time=2),\n",
       "    Message('note_on', channel=0, note=52, velocity=67, time=78),\n",
       "    Message('control_change', channel=0, control=64, value=27, time=56),\n",
       "    Message('control_change', channel=0, control=64, value=57, time=18),\n",
       "    Message('note_on', channel=0, note=48, velocity=0, time=6),\n",
       "    Message('control_change', channel=0, control=64, value=73, time=14),\n",
       "    Message('note_on', channel=0, note=55, velocity=55, time=4),\n",
       "    Message('control_change', channel=0, control=64, value=90, time=14),\n",
       "    Message('note_on', channel=0, note=56, velocity=29, time=10),\n",
       "    Message('control_change', channel=0, control=64, value=118, time=7),\n",
       "    Message('control_change', channel=0, control=64, value=127, time=20),\n",
       "    Message('note_on', channel=0, note=52, velocity=0, time=18),\n",
       "    Message('note_on', channel=0, note=56, velocity=0, time=3),\n",
       "    Message('note_on', channel=0, note=60, velocity=72, time=2),\n",
       "    Message('note_on', channel=0, note=55, velocity=0, time=19),\n",
       "    Message('note_on', channel=0, note=67, velocity=0, time=1),\n",
       "    Message('control_change', channel=0, control=67, value=48, time=13),\n",
       "    Message('note_on', channel=0, note=64, velocity=0, time=22),\n",
       "    Message('note_on', channel=0, note=60, velocity=0, time=18),\n",
       "    Message('note_on', channel=0, note=72, velocity=0, time=5),\n",
       "    Message('note_on', channel=0, note=48, velocity=73, time=38),\n",
       "    Message('control_change', channel=0, control=64, value=108, time=59),\n",
       "    Message('control_change', channel=0, control=64, value=75, time=21),\n",
       "    Message('note_on', channel=0, note=52, velocity=67, time=6),\n",
       "    Message('control_change', channel=0, control=64, value=46, time=12),\n",
       "    Message('control_change', channel=0, control=64, value=0, time=18),\n",
       "    Message('note_on', channel=0, note=48, velocity=0, time=28),\n",
       "    Message('control_change', channel=0, control=64, value=19, time=9),\n",
       "    Message('note_on', channel=0, note=55, velocity=72, time=0),\n",
       "    Message('control_change', channel=0, control=64, value=50, time=17),\n",
       "    Message('control_change', channel=0, control=64, value=69, time=19),\n",
       "    Message('control_change', channel=0, control=64, value=87, time=18),\n",
       "    Message('note_on', channel=0, note=52, velocity=0, time=2),\n",
       "    Message('note_on', channel=0, note=60, velocity=72, time=14),\n",
       "    Message('control_change', channel=0, control=64, value=118, time=3),\n",
       "    Message('note_on', channel=0, note=55, velocity=0, time=11),\n",
       "    Message('control_change', channel=0, control=64, value=127, time=7),\n",
       "    Message('note_on', channel=0, note=77, velocity=67, time=32),\n",
       "    Message('note_on', channel=0, note=60, velocity=0, time=13),\n",
       "    Message('note_on', channel=0, note=48, velocity=68, time=22),\n",
       "    Message('note_on', channel=0, note=77, velocity=0, time=2),\n",
       "    Message('note_on', channel=0, note=76, velocity=80, time=20),\n",
       "    Message('control_change', channel=0, control=64, value=105, time=42),\n",
       "    Message('note_on', channel=0, note=77, velocity=78, time=13),\n",
       "    Message('note_on', channel=0, note=76, velocity=0, time=3),\n",
       "    Message('control_change', channel=0, control=64, value=82, time=1),\n",
       "    Message('control_change', channel=0, control=64, value=62, time=17),\n",
       "    Message('note_on', channel=0, note=52, velocity=67, time=2),\n",
       "    Message('control_change', channel=0, control=64, value=42, time=18),\n",
       "    Message('control_change', channel=0, control=64, value=27, time=19),\n",
       "    Message('note_on', channel=0, note=76, velocity=70, time=7),\n",
       "    Message('note_on', channel=0, note=48, velocity=0, time=5),\n",
       "    Message('note_on', channel=0, note=77, velocity=0, time=3),\n",
       "    Message('control_change', channel=0, control=64, value=12, time=4),\n",
       "    Message('note_on', channel=0, note=55, velocity=67, time=35),\n",
       "    Message('note_on', channel=0, note=74, velocity=80, time=9),\n",
       "    Message('note_on', channel=0, note=76, velocity=0, time=8),\n",
       "    Message('control_change', channel=0, control=64, value=0, time=20),\n",
       "    Message('note_on', channel=0, note=52, velocity=0, time=26),\n",
       "    Message('note_on', channel=0, note=72, velocity=74, time=9),\n",
       "    Message('note_on', channel=0, note=60, velocity=71, time=2),\n",
       "    Message('note_on', channel=0, note=74, velocity=0, time=1),\n",
       "    Message('note_on', channel=0, note=55, velocity=0, time=14),\n",
       "    Message('note_on', channel=0, note=72, velocity=0, time=27),\n",
       "    Message('note_on', channel=0, note=60, velocity=0, time=12),\n",
       "    Message('note_on', channel=0, note=79, velocity=84, time=34),\n",
       "    Message('note_on', channel=0, note=48, velocity=71, time=12),\n",
       "    Message('note_on', channel=0, note=52, velocity=69, time=81),\n",
       "    Message('note_on', channel=0, note=48, velocity=0, time=25),\n",
       "    Message('note_on', channel=0, note=55, velocity=68, time=64),\n",
       "    Message('note_on', channel=0, note=52, velocity=0, time=67),\n",
       "    Message('note_on', channel=0, note=60, velocity=73, time=16),\n",
       "    Message('note_on', channel=0, note=55, velocity=0, time=11),\n",
       "    Message('note_on', channel=0, note=60, velocity=0, time=41),\n",
       "    Message('note_on', channel=0, note=48, velocity=73, time=30),\n",
       "    Message('note_on', channel=0, note=52, velocity=70, time=73),\n",
       "    Message('control_change', channel=0, control=67, value=44, time=21),\n",
       "    Message('note_on', channel=0, note=48, velocity=0, time=21),\n",
       "    Message('note_on', channel=0, note=55, velocity=70, time=37),\n",
       "    Message('note_on', channel=0, note=52, velocity=0, time=55),\n",
       "    Message('note_on', channel=0, note=79, velocity=0, time=6),\n",
       "    Message('note_on', channel=0, note=60, velocity=71, time=4),\n",
       "    Message('note_on', channel=0, note=55, velocity=0, time=27),\n",
       "    Message('note_on', channel=0, note=60, velocity=0, time=29),\n",
       "    Message('note_on', channel=0, note=48, velocity=66, time=26),\n",
       "    Message('note_on', channel=0, note=84, velocity=71, time=1),\n",
       "    Message('control_change', channel=0, control=67, value=39, time=35),\n",
       "    Message('note_on', channel=0, note=84, velocity=0, time=16),\n",
       "    Message('control_change', channel=0, control=64, value=26, time=1),\n",
       "    Message('note_on', channel=0, note=83, velocity=78, time=3),\n",
       "    Message('control_change', channel=0, control=64, value=52, time=16),\n",
       "    Message('note_on', channel=0, note=53, velocity=74, time=18),\n",
       "    Message('control_change', channel=0, control=64, value=69, time=1),\n",
       "    Message('control_change', channel=0, control=64, value=83, time=17),\n",
       "    Message('note_on', channel=0, note=48, velocity=0, time=8),\n",
       "    Message('note_on', channel=0, note=84, velocity=72, time=7),\n",
       "    Message('note_on', channel=0, note=83, velocity=0, time=1),\n",
       "    Message('control_change', channel=0, control=64, value=101, time=3),\n",
       "    Message('control_change', channel=0, control=67, value=35, time=2),\n",
       "    Message('control_change', channel=0, control=64, value=126, time=17),\n",
       "    Message('note_on', channel=0, note=83, velocity=74, time=35),\n",
       "    Message('note_on', channel=0, note=55, velocity=69, time=7),\n",
       "    Message('note_on', channel=0, note=84, velocity=0, time=3),\n",
       "    Message('note_on', channel=0, note=53, velocity=0, time=38),\n",
       "    Message('note_on', channel=0, note=81, velocity=82, time=15),\n",
       "    Message('note_on', channel=0, note=60, velocity=70, time=10),\n",
       "    Message('note_on', channel=0, note=83, velocity=0, time=4),\n",
       "    Message('note_on', channel=0, note=55, velocity=0, time=18),\n",
       "    Message('control_change', channel=0, control=64, value=110, time=18),\n",
       "    Message('note_on', channel=0, note=79, velocity=75, time=1),\n",
       "    Message('note_on', channel=0, note=81, velocity=0, time=6),\n",
       "    Message('control_change', channel=0, control=64, value=85, time=11),\n",
       "    Message('note_on', channel=0, note=79, velocity=0, time=12),\n",
       "    Message('control_change', channel=0, control=64, value=61, time=6),\n",
       "    Message('note_on', channel=0, note=60, velocity=0, time=1),\n",
       "    Message('control_change', channel=0, control=64, value=32, time=17),\n",
       "    Message('control_change', channel=0, control=64, value=0, time=17),\n",
       "    Message('note_on', channel=0, note=48, velocity=75, time=2),\n",
       "    Message('note_on', channel=0, note=84, velocity=82, time=11),\n",
       "    Message('note_on', channel=0, note=52, velocity=70, time=82),\n",
       "    Message('note_on', channel=0, note=48, velocity=0, time=47),\n",
       "    Message('note_on', channel=0, note=55, velocity=70, time=51),\n",
       "    Message('note_on', channel=0, note=52, velocity=0, time=64),\n",
       "    Message('note_on', channel=0, note=60, velocity=74, time=12),\n",
       "    Message('note_on', channel=0, note=55, velocity=0, time=19),\n",
       "    Message('control_change', channel=0, control=67, value=31, time=5),\n",
       "    Message('note_on', channel=0, note=60, velocity=0, time=50),\n",
       "    Message('note_on', channel=0, note=48, velocity=75, time=27),\n",
       "    Message('note_on', channel=0, note=84, velocity=0, time=11),\n",
       "    Message('control_change', channel=0, control=64, value=20, time=62),\n",
       "    Message('note_on', channel=0, note=52, velocity=69, time=4),\n",
       "    Message('control_change', channel=0, control=64, value=48, time=13),\n",
       "    Message('control_change', channel=0, control=64, value=67, time=19),\n",
       "    Message('note_on', channel=0, note=48, velocity=0, time=1),\n",
       "    Message('control_change', channel=0, control=64, value=81, time=17),\n",
       "    Message('control_change', channel=0, control=64, value=101, time=19),\n",
       "    Message('note_on', channel=0, note=55, velocity=69, time=17),\n",
       "    Message('control_change', channel=0, control=64, value=127, time=0),\n",
       "    Message('note_on', channel=0, note=52, velocity=0, time=44),\n",
       "    Message('note_on', channel=0, note=60, velocity=74, time=0),\n",
       "    Message('note_on', channel=0, note=55, velocity=0, time=32),\n",
       "    Message('note_on', channel=0, note=60, velocity=0, time=31),\n",
       "    Message('note_on', channel=0, note=77, velocity=77, time=33),\n",
       "    Message('note_on', channel=0, note=48, velocity=75, time=1),\n",
       "    Message('control_change', channel=0, control=64, value=101, time=27),\n",
       "    Message('note_on', channel=0, note=77, velocity=0, time=7),\n",
       "    Message('control_change', channel=0, control=64, value=80, time=11),\n",
       "    Message('note_on', channel=0, note=76, velocity=70, time=0),\n",
       "    Message('control_change', channel=0, control=64, value=60, time=20),\n",
       "    Message('control_change', channel=0, control=67, value=27, time=3),\n",
       "    Message('control_change', channel=0, control=64, value=40, time=15),\n",
       "    Message('note_on', channel=0, note=52, velocity=72, time=4),\n",
       "    Message('note_on', channel=0, note=76, velocity=0, time=2),\n",
       "    Message('note_on', channel=0, note=48, velocity=0, time=9),\n",
       "    Message('control_change', channel=0, control=64, value=21, time=4),\n",
       "    Message('note_on', channel=0, note=77, velocity=75, time=20),\n",
       "    Message('control_change', channel=0, control=64, value=0, time=1),\n",
       "    Message('note_on', channel=0, note=77, velocity=0, time=35),\n",
       "    Message('note_on', channel=0, note=76, velocity=81, time=8),\n",
       "    Message('note_on', channel=0, note=55, velocity=72, time=23),\n",
       "    Message('note_on', channel=0, note=74, velocity=81, time=31),\n",
       "    Message('note_on', channel=0, note=76, velocity=0, time=8),\n",
       "    Message('note_on', channel=0, note=52, velocity=0, time=7),\n",
       "    Message('note_on', channel=0, note=72, velocity=80, time=28),\n",
       "    Message('note_on', channel=0, note=60, velocity=70, time=3),\n",
       "    Message('note_on', channel=0, note=55, velocity=0, time=2),\n",
       "    Message('note_on', channel=0, note=74, velocity=0, time=1),\n",
       "    Message('control_change', channel=0, control=67, value=23, time=16),\n",
       "    Message('note_on', channel=0, note=72, velocity=0, time=4),\n",
       "    Message('note_on', channel=0, note=60, velocity=0, time=19),\n",
       "    Message('control_change', channel=0, control=67, value=18, time=4),\n",
       "    Message('control_change', channel=0, control=67, value=12, time=38),\n",
       "    Message('note_on', channel=0, note=48, velocity=76, time=0),\n",
       "    Message('note_on', channel=0, note=79, velocity=87, time=7),\n",
       "    Message('control_change', channel=0, control=67, value=8, time=47),\n",
       "    Message('note_on', channel=0, note=52, velocity=73, time=64),\n",
       "    Message('note_on', channel=0, note=48, velocity=0, time=39),\n",
       "    Message('note_on', channel=0, note=55, velocity=73, time=56),\n",
       "    Message('note_on', channel=0, note=79, velocity=0, time=22),\n",
       "    Message('note_on', channel=0, note=52, velocity=0, time=29),\n",
       "    Message('note_on', channel=0, note=60, velocity=73, time=23),\n",
       "    Message('note_on', channel=0, note=55, velocity=0, time=17),\n",
       "    Message('note_on', channel=0, note=60, velocity=0, time=56),\n",
       "    Message('note_on', channel=0, note=48, velocity=76, time=16),\n",
       "    Message('note_on', channel=0, note=79, velocity=81, time=17),\n",
       "    Message('note_on', channel=0, note=52, velocity=74, time=74),\n",
       "    Message('note_on', channel=0, note=48, velocity=0, time=36),\n",
       "    Message('control_change', channel=0, control=64, value=26, time=12),\n",
       "    Message('control_change', channel=0, control=64, value=49, time=19),\n",
       "    Message('note_on', channel=0, note=55, velocity=73, time=10),\n",
       "    Message('control_change', channel=0, control=64, value=62, time=9),\n",
       "    Message('control_change', channel=0, control=64, value=71, time=19),\n",
       "    Message('control_change', channel=0, control=64, value=79, time=16),\n",
       "    Message('note_on', channel=0, note=79, velocity=0, time=7),\n",
       "    Message('note_on', channel=0, note=52, velocity=0, time=4),\n",
       "    Message('control_change', channel=0, control=64, value=88, time=9),\n",
       "    Message('note_on', channel=0, note=60, velocity=72, time=4),\n",
       "    Message('control_change', channel=0, control=64, value=96, time=15),\n",
       "    Message('control_change', channel=0, control=64, value=100, time=18),\n",
       "    Message('note_on', channel=0, note=55, velocity=0, time=2),\n",
       "    Message('control_change', channel=0, control=67, value=0, time=14),\n",
       "    Message('note_on', channel=0, note=60, velocity=0, time=8),\n",
       "    Message('note_on', channel=0, note=48, velocity=73, time=27),\n",
       "    Message('note_on', channel=0, note=84, velocity=80, time=12),\n",
       "    Message('control_change', channel=0, control=64, value=90, time=8),\n",
       "    Message('control_change', channel=0, control=64, value=75, time=22),\n",
       "    Message('control_change', channel=0, control=64, value=58, time=17),\n",
       "    Message('note_on', channel=0, note=83, velocity=76, time=14),\n",
       "    Message('note_on', channel=0, note=84, velocity=0, time=1),\n",
       "    Message('control_change', channel=0, control=64, value=38, time=3),\n",
       "    Message('note_on', channel=0, note=53, velocity=73, time=4),\n",
       "    Message('control_change', channel=0, control=64, value=21, time=15),\n",
       "    Message('note_on', channel=0, note=48, velocity=0, time=11),\n",
       "    Message('control_change', channel=0, control=64, value=0, time=7),\n",
       "    Message('note_on', channel=0, note=83, velocity=0, time=11),\n",
       "    Message('note_on', channel=0, note=84, velocity=69, time=12),\n",
       "    Message('note_on', channel=0, note=55, velocity=68, time=0),\n",
       "    Message('note_on', channel=0, note=53, velocity=0, time=53),\n",
       "    Message('note_on', channel=0, note=83, velocity=74, time=5),\n",
       "    Message('note_on', channel=0, note=84, velocity=0, time=6),\n",
       "    Message('note_on', channel=0, note=60, velocity=66, time=13),\n",
       "    Message('note_on', channel=0, note=55, velocity=0, time=14),\n",
       "    Message('note_on', channel=0, note=81, velocity=86, time=25),\n",
       "    Message('note_on', channel=0, note=83, velocity=0, time=8),\n",
       "    Message('note_on', channel=0, note=60, velocity=0, time=39),\n",
       "    Message('note_on', channel=0, note=79, velocity=75, time=17),\n",
       "    Message('note_on', channel=0, note=81, velocity=0, time=11),\n",
       "    Message('note_on', channel=0, note=79, velocity=0, time=20),\n",
       "    Message('note_on', channel=0, note=84, velocity=90, time=53),\n",
       "    Message('note_on', channel=0, note=55, velocity=72, time=8),\n",
       "    Message('note_on', channel=0, note=48, velocity=79, time=0),\n",
       "    Message('note_on', channel=0, note=60, velocity=84, time=1),\n",
       "    Message('note_on', channel=0, note=52, velocity=68, time=7),\n",
       "    Message('note_on', channel=0, note=48, velocity=0, time=29),\n",
       "    Message('note_on', channel=0, note=60, velocity=0, time=3),\n",
       "    Message('note_on', channel=0, note=52, velocity=0, time=18),\n",
       "    Message('note_on', channel=0, note=55, velocity=0, time=1),\n",
       "    Message('note_on', channel=0, note=84, velocity=0, time=23),\n",
       "    Message('polytouch', channel=0, note=85, value=0, time=214),\n",
       "    Message('note_on', channel=0, note=88, velocity=91, time=62),\n",
       "    Message('note_on', channel=0, note=64, velocity=80, time=6),\n",
       "    Message('control_change', channel=0, control=64, value=10, time=1),\n",
       "    Message('note_on', channel=0, note=52, velocity=79, time=1),\n",
       "    Message('control_change', channel=0, control=64, value=44, time=20),\n",
       "    Message('control_change', channel=0, control=64, value=67, time=19),\n",
       "    Message('control_change', channel=0, control=64, value=87, time=16),\n",
       "    Message('note_on', channel=0, note=64, velocity=0, time=17),\n",
       "    Message('control_change', channel=0, control=64, value=119, time=3),\n",
       "    Message('note_on', channel=0, note=52, velocity=0, time=6),\n",
       "    Message('control_change', channel=0, control=64, value=127, time=12),\n",
       "    Message('note_on', channel=0, note=88, velocity=0, time=9),\n",
       "    Message('control_change', channel=0, control=64, value=122, time=355),\n",
       "    Message('control_change', channel=0, control=64, value=117, time=37),\n",
       "    Message('control_change', channel=0, control=64, value=109, time=20),\n",
       "    Message('control_change', channel=0, control=64, value=95, time=16),\n",
       "    Message('control_change', channel=0, control=64, value=77, time=18),\n",
       "    Message('note_on', channel=0, note=56, velocity=80, time=2),\n",
       "    Message('note_on', channel=0, note=80, velocity=87, time=4),\n",
       "    Message('note_on', channel=0, note=44, velocity=81, time=1),\n",
       "    Message('control_change', channel=0, control=64, value=59, time=14),\n",
       "    Message('control_change', channel=0, control=64, value=41, time=17),\n",
       "    Message('control_change', channel=0, control=64, value=20, time=18),\n",
       "    Message('control_change', channel=0, control=64, value=0, time=17),\n",
       "    Message('note_on', channel=0, note=44, velocity=0, time=5),\n",
       "    Message('note_on', channel=0, note=56, velocity=0, time=1),\n",
       "    Message('note_on', channel=0, note=80, velocity=0, time=20),\n",
       "    Message('note_on', channel=0, note=81, velocity=92, time=94),\n",
       "    Message('note_on', channel=0, note=57, velocity=87, time=2),\n",
       "    Message('note_on', channel=0, note=45, velocity=83, time=5),\n",
       "    Message('note_on', channel=0, note=45, velocity=0, time=63),\n",
       "    Message('note_on', channel=0, note=57, velocity=0, time=0),\n",
       "    Message('note_on', channel=0, note=81, velocity=0, time=14),\n",
       "    Message('polytouch', channel=0, note=46, value=0, time=8),\n",
       "    Message('note_on', channel=0, note=84, velocity=89, time=270),\n",
       "    Message('note_on', channel=0, note=60, velocity=80, time=0),\n",
       "    Message('control_change', channel=0, control=64, value=10, time=1),\n",
       "    Message('note_on', channel=0, note=48, velocity=79, time=3),\n",
       "    Message('control_change', channel=0, control=64, value=39, time=14),\n",
       "    Message('control_change', channel=0, control=64, value=60, time=19),\n",
       "    Message('control_change', channel=0, control=64, value=74, time=19),\n",
       "    Message('control_change', channel=0, control=64, value=88, time=18),\n",
       "    Message('control_change', channel=0, control=64, value=105, time=18),\n",
       "    Message('control_change', channel=0, control=64, value=119, time=20),\n",
       "    Message('note_on', channel=0, note=84, velocity=0, time=40),\n",
       "    Message('note_on', channel=0, note=60, velocity=0, time=84),\n",
       "    Message('note_on', channel=0, note=48, velocity=0, time=56),\n",
       "    Message('control_change', channel=0, control=64, value=106, time=183),\n",
       "    Message('note_on', channel=0, note=76, velocity=84, time=15),\n",
       "    Message('note_on', channel=0, note=52, velocity=80, time=3),\n",
       "    Message('control_change', channel=0, control=64, value=93, time=1),\n",
       "    Message('control_change', channel=0, control=64, value=80, time=18),\n",
       "    Message('control_change', channel=0, control=64, value=69, time=19),\n",
       "    Message('note_on', channel=0, note=52, velocity=0, time=15),\n",
       "    Message('control_change', channel=0, control=64, value=60, time=3),\n",
       "    Message('note_on', channel=0, note=76, velocity=0, time=11),\n",
       "    Message('control_change', channel=0, control=64, value=53, time=6),\n",
       "    Message('control_change', channel=0, control=64, value=49, time=20),\n",
       "    Message('control_change', channel=0, control=64, value=46, time=18),\n",
       "    Message('control_change', channel=0, control=64, value=42, time=38),\n",
       "    Message('note_on', channel=0, note=55, velocity=76, time=3),\n",
       "    Message('note_on', channel=0, note=79, velocity=80, time=3),\n",
       "    Message('control_change', channel=0, control=64, value=40, time=12),\n",
       "    Message('control_change', channel=0, control=64, value=36, time=17),\n",
       "    Message('control_change', channel=0, control=64, value=29, time=19),\n",
       "    Message('note_on', channel=0, note=77, velocity=73, time=11),\n",
       "    Message('note_on', channel=0, note=53, velocity=78, time=2),\n",
       "    Message('note_on', channel=0, note=55, velocity=0, time=1),\n",
       "    Message('note_on', channel=0, note=79, velocity=0, time=1),\n",
       "    Message('control_change', channel=0, control=64, value=19, time=4),\n",
       "    Message('control_change', channel=0, control=64, value=10, time=18),\n",
       "    Message('note_on', channel=0, note=77, velocity=0, time=18),\n",
       "    Message('note_on', channel=0, note=79, velocity=62, time=7),\n",
       "    Message('note_on', channel=0, note=55, velocity=61, time=12),\n",
       "    Message('note_on', channel=0, note=53, velocity=0, time=7),\n",
       "    Message('note_on', channel=0, note=77, velocity=77, time=37),\n",
       "    Message('note_on', channel=0, note=53, velocity=63, time=4),\n",
       "    Message('note_on', channel=0, note=79, velocity=0, time=3),\n",
       "    Message('control_change', channel=0, control=64, value=0, time=4),\n",
       "    Message('note_on', channel=0, note=55, velocity=0, time=1),\n",
       "    Message('note_on', channel=0, note=52, velocity=71, time=39),\n",
       "    Message('note_on', channel=0, note=76, velocity=88, time=1),\n",
       "    Message('note_on', channel=0, note=77, velocity=0, time=11),\n",
       "    Message('note_on', channel=0, note=53, velocity=0, time=18),\n",
       "    Message('note_on', channel=0, note=74, velocity=74, time=10),\n",
       "    Message('note_on', channel=0, note=52, velocity=0, time=4),\n",
       "    Message('note_on', channel=0, note=76, velocity=0, time=3),\n",
       "    Message('note_on', channel=0, note=50, velocity=79, time=2),\n",
       "    Message('note_on', channel=0, note=74, velocity=0, time=21),\n",
       "    Message('note_on', channel=0, note=50, velocity=0, time=17),\n",
       "    Message('note_on', channel=0, note=79, velocity=87, time=58),\n",
       "    Message('note_on', channel=0, note=55, velocity=82, time=5),\n",
       "    Message('note_on', channel=0, note=55, velocity=0, time=36),\n",
       "    Message('note_on', channel=0, note=79, velocity=0, time=16),\n",
       "    Message('note_on', channel=0, note=80, velocity=39, time=131),\n",
       "    Message('note_on', channel=0, note=80, velocity=0, time=53),\n",
       "    Message('note_on', channel=0, note=83, velocity=83, time=101),\n",
       "    Message('note_on', channel=0, note=79, velocity=82, time=9),\n",
       "    Message('note_on', channel=0, note=55, velocity=83, time=0),\n",
       "    Message('note_on', channel=0, note=74, velocity=80, time=0),\n",
       "    Message('note_on', channel=0, note=43, velocity=82, time=2),\n",
       "    Message('note_on', channel=0, note=43, velocity=0, time=40),\n",
       "    Message('note_on', channel=0, note=55, velocity=0, time=0),\n",
       "    Message('note_on', channel=0, note=74, velocity=0, time=20),\n",
       "    Message('note_on', channel=0, note=79, velocity=0, time=9),\n",
       "    Message('note_on', channel=0, note=83, velocity=0, time=12),\n",
       "    Message('control_change', channel=0, control=64, value=23, time=224),\n",
       "    Message('control_change', channel=0, control=64, value=48, time=20),\n",
       "    Message('control_change', channel=0, control=64, value=69, time=18),\n",
       "    Message('note_on', channel=0, note=84, velocity=83, time=13),\n",
       "    Message('control_change', channel=0, control=64, value=92, time=6),\n",
       "    Message('note_on', channel=0, note=48, velocity=79, time=3),\n",
       "    Message('note_on', channel=0, note=60, velocity=78, time=1),\n",
       "    Message('note_on', channel=0, note=79, velocity=82, time=2),\n",
       "    Message('note_on', channel=0, note=76, velocity=80, time=1),\n",
       "    Message('control_change', channel=0, control=64, value=127, time=19),\n",
       "    Message('note_on', channel=0, note=60, velocity=0, time=15),\n",
       "    Message('note_on', channel=0, note=76, velocity=0, time=4),\n",
       "    Message('note_on', channel=0, note=84, velocity=0, time=5),\n",
       "    Message('note_on', channel=0, note=79, velocity=0, time=7),\n",
       "    Message('note_on', channel=0, note=48, velocity=0, time=1),\n",
       "    Message('control_change', channel=0, control=64, value=100, time=51),\n",
       "    Message('control_change', channel=0, control=64, value=67, time=19),\n",
       "    Message('control_change', channel=0, control=64, value=24, time=18),\n",
       "    Message('control_change', channel=0, control=64, value=0, time=19),\n",
       "    Message('control_change', channel=0, control=64, value=28, time=184),\n",
       "    Message('control_change', channel=0, control=64, value=46, time=17),\n",
       "    Message('control_change', channel=0, control=64, value=57, time=21),\n",
       "    Message('control_change', channel=0, control=64, value=64, time=17),\n",
       "    Message('control_change', channel=0, control=64, value=69, time=35),\n",
       "    Message('control_change', channel=0, control=64, value=76, time=17),\n",
       "    Message('control_change', channel=0, control=64, value=92, time=20),\n",
       "    Message('note_on', channel=0, note=60, velocity=75, time=8),\n",
       "    Message('control_change', channel=0, control=64, value=127, time=10),\n",
       "    Message('note_on', channel=0, note=36, velocity=65, time=13),\n",
       "    Message('note_on', channel=0, note=48, velocity=63, time=0),\n",
       "    Message('note_on', channel=0, note=36, velocity=0, time=33),\n",
       "    Message('note_on', channel=0, note=48, velocity=0, time=0),\n",
       "    Message('note_on', channel=0, note=60, velocity=0, time=8),\n",
       "    Message('control_change', channel=0, control=64, value=115, time=462),\n",
       "    Message('control_change', channel=0, control=64, value=102, time=18),\n",
       "    Message('control_change', channel=0, control=64, value=88, time=18),\n",
       "    Message('control_change', channel=0, control=64, value=74, time=18),\n",
       "    Message('control_change', channel=0, control=64, value=60, time=18),\n",
       "    Message('control_change', channel=0, control=64, value=43, time=20),\n",
       "    Message('control_change', channel=0, control=64, value=28, time=18),\n",
       "    Message('control_change', channel=0, control=64, value=18, time=20),\n",
       "    Message('control_change', channel=0, control=64, value=14, time=91),\n",
       "    Message('control_change', channel=0, control=67, value=9, time=328),\n",
       "    Message('control_change', channel=0, control=67, value=14, time=18),\n",
       "    Message('note_on', channel=0, note=67, velocity=56, time=12),\n",
       "    Message('control_change', channel=0, control=67, value=20, time=6),\n",
       "    Message('control_change', channel=0, control=67, value=26, time=19),\n",
       "    Message('control_change', channel=0, control=64, value=0, time=19),\n",
       "    Message('control_change', channel=0, control=67, value=33, time=1),\n",
       "    Message('control_change', channel=0, control=67, value=43, time=17),\n",
       "    Message('control_change', channel=0, control=67, value=57, time=19),\n",
       "    Message('control_change', channel=0, control=67, value=75, time=16),\n",
       "    Message('control_change', channel=0, control=67, value=93, time=20),\n",
       "    Message('control_change', channel=0, control=67, value=110, time=19),\n",
       "    Message('control_change', channel=0, control=67, value=123, time=18),\n",
       "    Message('control_change', channel=0, control=67, value=127, time=17),\n",
       "    Message('note_on', channel=0, note=72, velocity=67, time=209),\n",
       "    Message('note_on', channel=0, note=52, velocity=54, time=11),\n",
       "    Message('note_on', channel=0, note=76, velocity=70, time=370),\n",
       "    Message('note_on', channel=0, note=52, velocity=0, time=3),\n",
       "    Message('note_on', channel=0, note=48, velocity=56, time=15),\n",
       "    Message('control_change', channel=0, control=64, value=14, time=73),\n",
       "    Message('control_change', channel=0, control=64, value=35, time=18),\n",
       "    Message('note_on', channel=0, note=72, velocity=0, time=9),\n",
       "    Message('control_change', channel=0, control=64, value=57, time=8),\n",
       "    Message('control_change', channel=0, control=64, value=73, time=19),\n",
       "    Message('note_on', channel=0, note=76, velocity=0, time=1),\n",
       "    Message('control_change', channel=0, control=64, value=90, time=19),\n",
       "    Message('control_change', channel=0, control=64, value=125, time=17),\n",
       "    Message('note_on', channel=0, note=67, velocity=0, time=15),\n",
       "    Message('note_on', channel=0, note=48, velocity=0, time=46),\n",
       "    Message('control_change', channel=0, control=64, value=100, time=160),\n",
       "    Message('control_change', channel=0, control=64, value=77, time=20),\n",
       "    Message('note_on', channel=0, note=76, velocity=63, time=3),\n",
       "    Message('control_change', channel=0, control=64, value=56, time=15),\n",
       "    Message('note_on', channel=0, note=55, velocity=55, time=8),\n",
       "    Message('note_on', channel=0, note=67, velocity=49, time=0),\n",
       "    Message('control_change', channel=0, control=64, value=31, time=10),\n",
       "    Message('note_on', channel=0, note=72, velocity=49, time=0),\n",
       "    Message('control_change', channel=0, control=64, value=0, time=18),\n",
       "    Message('note_on', channel=0, note=74, velocity=59, time=775),\n",
       "    Message('note_on', channel=0, note=71, velocity=55, time=11),\n",
       "    Message('note_on', channel=0, note=72, velocity=0, time=6),\n",
       "    Message('note_on', channel=0, note=76, velocity=0, time=6),\n",
       "    Message('control_change', channel=0, control=64, value=37, time=27),\n",
       "    Message('control_change', channel=0, control=64, value=60, time=19),\n",
       "    Message('control_change', channel=0, control=64, value=76, time=17),\n",
       "    Message('control_change', channel=0, control=64, value=97, time=20),\n",
       "    Message('control_change', channel=0, control=64, value=127, time=18),\n",
       "    Message('note_on', channel=0, note=71, velocity=0, time=29),\n",
       "    Message('note_on', channel=0, note=74, velocity=0, time=3),\n",
       "    Message('note_on', channel=0, note=67, velocity=0, time=1),\n",
       "    Message('note_on', channel=0, note=55, velocity=0, time=89),\n",
       "    Message('control_change', channel=0, control=64, value=100, time=61),\n",
       "    Message('control_change', channel=0, control=64, value=78, time=20),\n",
       "    Message('control_change', channel=0, control=64, value=59, time=19),\n",
       "    Message('control_change', channel=0, control=64, value=43, time=17),\n",
       "    Message('note_on', channel=0, note=79, velocity=72, time=4),\n",
       "    Message('control_change', channel=0, control=64, value=34, time=15),\n",
       "    Message('control_change', channel=0, control=64, value=25, time=20),\n",
       "    Message('control_change', channel=0, control=64, value=21, time=16),\n",
       "    Message('control_change', channel=0, control=64, value=14, time=37),\n",
       "    Message('control_change', channel=0, control=64, value=0, time=36),\n",
       "    Message('note_on', channel=0, note=72, velocity=66, time=241),\n",
       "    Message('note_on', channel=0, note=67, velocity=55, time=12),\n",
       "    Message('note_on', channel=0, note=52, velocity=57, time=2),\n",
       "    Message('note_on', channel=0, note=79, velocity=0, time=36),\n",
       "    Message('note_on', channel=0, note=76, velocity=71, time=313),\n",
       "    Message('note_on', channel=0, note=52, velocity=0, time=3),\n",
       "    Message('note_on', channel=0, note=48, velocity=57, time=14),\n",
       "    Message('control_change', channel=0, control=64, value=29, time=94),\n",
       "    Message('note_on', channel=0, note=72, velocity=0, time=3),\n",
       "    Message('control_change', channel=0, control=64, value=56, time=15),\n",
       "    Message('note_on', channel=0, note=76, velocity=0, time=13),\n",
       "    Message('control_change', channel=0, control=64, value=73, time=5),\n",
       "    Message('control_change', channel=0, control=64, value=92, time=19),\n",
       "    Message('note_on', channel=0, note=67, velocity=0, time=3),\n",
       "    Message('control_change', channel=0, control=64, value=127, time=16),\n",
       "    Message('note_on', channel=0, note=48, velocity=0, time=56),\n",
       "    Message('control_change', channel=0, control=64, value=103, time=147),\n",
       "    Message('control_change', channel=0, control=64, value=80, time=34),\n",
       "    Message('control_change', channel=0, control=64, value=59, time=18),\n",
       "    Message('note_on', channel=0, note=76, velocity=62, time=4),\n",
       "    Message('control_change', channel=0, control=64, value=35, time=13),\n",
       "    Message('note_on', channel=0, note=72, velocity=49, time=3),\n",
       "    Message('note_on', channel=0, note=55, velocity=54, time=2),\n",
       "    Message('note_on', channel=0, note=67, velocity=47, time=6),\n",
       "    Message('control_change', channel=0, control=64, value=0, time=8),\n",
       "    Message('note_on', channel=0, note=74, velocity=56, time=743),\n",
       "    Message('note_on', channel=0, note=71, velocity=54, time=9),\n",
       "    Message('note_on', channel=0, note=72, velocity=0, time=12),\n",
       "    Message('control_change', channel=0, control=64, value=33, time=9),\n",
       "    Message('note_on', channel=0, note=76, velocity=0, time=11),\n",
       "    Message('control_change', channel=0, control=64, value=58, time=6),\n",
       "    Message('control_change', channel=0, control=64, value=75, time=19),\n",
       "    Message('control_change', channel=0, control=64, value=97, time=19),\n",
       "    Message('control_change', channel=0, control=64, value=127, time=19),\n",
       "    Message('note_on', channel=0, note=55, velocity=0, time=45),\n",
       "    Message('note_on', channel=0, note=67, velocity=0, time=2),\n",
       "    Message('note_on', channel=0, note=71, velocity=0, time=4),\n",
       "    Message('note_on', channel=0, note=74, velocity=0, time=7),\n",
       "    Message('control_change', channel=0, control=64, value=122, time=140),\n",
       "    Message('control_change', channel=0, control=64, value=97, time=18),\n",
       "    Message('control_change', channel=0, control=64, value=75, time=21),\n",
       "    Message('control_change', channel=0, control=64, value=53, time=17),\n",
       "    Message('control_change', channel=0, control=64, value=32, time=19),\n",
       "    Message('note_on', channel=0, note=69, velocity=70, time=10),\n",
       "    Message('control_change', channel=0, control=64, value=0, time=9),\n",
       "    Message('note_on', channel=0, note=62, velocity=51, time=25),\n",
       "    Message('note_on', channel=0, note=53, velocity=49, time=6),\n",
       "    Message('note_on', channel=0, note=57, velocity=47, time=8),\n",
       "    Message('note_on', channel=0, note=74, velocity=73, time=325),\n",
       "    Message('note_on', channel=0, note=62, velocity=0, time=54),\n",
       "    Message('note_on', channel=0, note=53, velocity=0, time=38),\n",
       "    Message('note_on', channel=0, note=57, velocity=0, time=25),\n",
       "    Message('note_on', channel=0, note=69, velocity=0, time=21),\n",
       "    Message('note_on', channel=0, note=77, velocity=74, time=231),\n",
       "    Message('note_on', channel=0, note=74, velocity=0, time=138),\n",
       "    Message('note_on', channel=0, note=76, velocity=68, time=211),\n",
       "    Message('note_on', channel=0, note=62, velocity=54, time=28),\n",
       "    Message('note_on', channel=0, note=57, velocity=49, time=10),\n",
       "    Message('note_on', channel=0, note=53, velocity=45, time=7),\n",
       "    Message('note_on', channel=0, note=77, velocity=0, time=18),\n",
       "    Message('note_on', channel=0, note=74, velocity=68, time=315),\n",
       "    Message('control_change', channel=0, control=64, value=30, time=28),\n",
       "    Message('note_on', channel=0, note=62, velocity=0, time=6),\n",
       "    Message('control_change', channel=0, control=64, value=55, time=11),\n",
       "    Message('note_on', channel=0, note=53, velocity=0, time=7),\n",
       "    Message('note_on', channel=0, note=76, velocity=0, time=10),\n",
       "    Message('control_change', channel=0, control=64, value=73, time=1),\n",
       "    Message('note_on', channel=0, note=57, velocity=0, time=14),\n",
       "    Message('control_change', channel=0, control=64, value=93, time=4),\n",
       "    Message('control_change', channel=0, control=64, value=127, time=18),\n",
       "    Message('note_on', channel=0, note=74, velocity=0, time=20),\n",
       "    Message('control_change', channel=0, control=64, value=114, time=144),\n",
       "    Message('control_change', channel=0, control=64, value=100, time=18),\n",
       "    Message('control_change', channel=0, control=64, value=85, time=20),\n",
       "    Message('control_change', channel=0, control=64, value=68, time=15),\n",
       "    Message('control_change', channel=0, control=64, value=51, time=20),\n",
       "    Message('control_change', channel=0, control=64, value=33, time=18),\n",
       "    Message('control_change', channel=0, control=64, value=0, time=19),\n",
       "    Message('note_on', channel=0, note=81, velocity=71, time=0),\n",
       "    Message('note_on', channel=0, note=65, velocity=56, time=376),\n",
       "    Message('note_on', channel=0, note=62, velocity=53, time=5),\n",
       "    Message('note_on', channel=0, note=55, velocity=49, time=8),\n",
       "    Message('note_on', channel=0, note=79, velocity=63, time=375),\n",
       "    Message('note_on', channel=0, note=81, velocity=0, time=69),\n",
       "    Message('note_on', channel=0, note=79, velocity=0, time=74),\n",
       "    Message('note_on', channel=0, note=71, velocity=66, time=224),\n",
       "    Message('control_change', channel=0, control=64, value=29, time=62),\n",
       "    Message('control_change', channel=0, control=64, value=54, time=18),\n",
       "    Message('note_on', channel=0, note=71, velocity=0, time=15),\n",
       "    Message('control_change', channel=0, control=64, value=69, time=4),\n",
       "    Message('control_change', channel=0, control=64, value=82, time=18),\n",
       "    Message('note_on', channel=0, note=65, velocity=0, time=5),\n",
       "    Message('control_change', channel=0, control=64, value=97, time=14),\n",
       "    Message('note_on', channel=0, note=62, velocity=0, time=13),\n",
       "    Message('control_change', channel=0, control=64, value=112, time=5),\n",
       "    Message('control_change', channel=0, control=64, value=116, time=19),\n",
       "    Message('control_change', channel=0, control=64, value=109, time=109),\n",
       "    Message('control_change', channel=0, control=64, value=100, time=20),\n",
       "    Message('control_change', channel=0, control=64, value=86, time=18),\n",
       "    Message('note_on', channel=0, note=55, velocity=0, time=2),\n",
       "    Message('control_change', channel=0, control=64, value=69, time=16),\n",
       "    Message('note_on', channel=0, note=72, velocity=63, time=15),\n",
       "    Message('control_change', channel=0, control=64, value=52, time=5),\n",
       "    Message('control_change', channel=0, control=64, value=36, time=18),\n",
       "    Message('note_on', channel=0, note=64, velocity=54, time=16),\n",
       "    Message('note_on', channel=0, note=60, velocity=51, time=1),\n",
       "    Message('control_change', channel=0, control=64, value=15, time=1),\n",
       "    Message('control_change', channel=0, control=64, value=0, time=19),\n",
       "    Message('note_on', channel=0, note=67, velocity=70, time=131),\n",
       "    Message('note_on', channel=0, note=64, velocity=0, time=68),\n",
       "    Message('note_on', channel=0, note=72, velocity=0, time=32),\n",
       "    Message('note_on', channel=0, note=60, velocity=0, time=40),\n",
       "    Message('note_on', channel=0, note=64, velocity=77, time=45),\n",
       "    Message('note_on', channel=0, note=67, velocity=0, time=1),\n",
       "    Message('note_on', channel=0, note=67, velocity=73, time=165),\n",
       "    Message('note_on', channel=0, note=64, velocity=0, time=44),\n",
       "    Message('note_on', channel=0, note=65, velocity=67, time=144),\n",
       "    Message('note_on', channel=0, note=67, velocity=0, time=49),\n",
       "    Message('control_change', channel=0, control=67, value=114, time=50),\n",
       "    Message('control_change', channel=0, control=67, value=101, time=19),\n",
       "    Message('control_change', channel=0, control=64, value=30, time=18),\n",
       "    Message('control_change', channel=0, control=67, value=89, time=2),\n",
       "    Message('control_change', channel=0, control=64, value=54, time=16),\n",
       "    Message('control_change', channel=0, control=67, value=82, time=1),\n",
       "    Message('control_change', channel=0, control=64, value=68, time=17),\n",
       "    Message('control_change', channel=0, control=67, value=77, time=2),\n",
       "    Message('note_on', channel=0, note=62, velocity=69, time=4),\n",
       "    Message('note_on', channel=0, note=65, velocity=0, time=8),\n",
       "    Message('control_change', channel=0, control=64, value=76, time=3),\n",
       "    Message('control_change', channel=0, control=64, value=82, time=20),\n",
       "    Message('note_on', channel=0, note=62, velocity=0, time=55),\n",
       "    Message('control_change', channel=0, control=64, value=77, time=38),\n",
       "    Message('control_change', channel=0, control=64, value=68, time=18),\n",
       "    Message('control_change', channel=0, control=67, value=82, time=1),\n",
       "    Message('control_change', channel=0, control=64, value=56, time=19),\n",
       "    Message('control_change', channel=0, control=64, value=43, time=17),\n",
       "    Message('control_change', channel=0, control=67, value=86, time=14),\n",
       "    Message('note_on', channel=0, note=60, velocity=68, time=4),\n",
       "    Message('control_change', channel=0, control=64, value=30, time=14),\n",
       "    Message('control_change', channel=0, control=64, value=12, time=19),\n",
       "    Message('control_change', channel=0, control=64, value=0, time=19),\n",
       "    Message('control_change', channel=0, control=67, value=91, time=3),\n",
       "    Message('control_change', channel=0, control=67, value=95, time=107),\n",
       "    Message('note_on', channel=0, note=60, velocity=0, time=90),\n",
       "    Message('note_on', channel=0, note=55, velocity=61, time=14),\n",
       "    Message('note_on', channel=0, note=55, velocity=0, time=98),\n",
       "    Message('note_on', channel=0, note=60, velocity=70, time=16),\n",
       "    Message('note_on', channel=0, note=52, velocity=53, time=20),\n",
       "    Message('control_change', channel=0, control=67, value=99, time=0),\n",
       "    Message('control_change', channel=0, control=67, value=105, time=38),\n",
       "    Message('control_change', channel=0, control=67, value=110, time=19),\n",
       "    Message('control_change', channel=0, control=67, value=116, time=17),\n",
       "    Message('control_change', channel=0, control=67, value=121, time=20),\n",
       "    Message('control_change', channel=0, control=67, value=125, time=17),\n",
       "    Message('note_on', channel=0, note=52, velocity=0, time=239),\n",
       "    Message('note_on', channel=0, note=64, velocity=65, time=8),\n",
       "    Message('note_on', channel=0, note=48, velocity=59, time=18),\n",
       "    Message('note_on', channel=0, note=60, velocity=0, time=29),\n",
       "    Message('control_change', channel=0, control=64, value=15, time=38),\n",
       "    Message('control_change', channel=0, control=64, value=46, time=19),\n",
       "    Message('control_change', channel=0, control=64, value=67, time=20),\n",
       "    Message('control_change', channel=0, control=64, value=82, time=17),\n",
       "    Message('note_on', channel=0, note=64, velocity=0, time=15),\n",
       "    Message('control_change', channel=0, control=64, value=105, time=3),\n",
       "    Message('control_change', channel=0, control=64, value=127, time=32),\n",
       "    Message('note_on', channel=0, note=48, velocity=0, time=27),\n",
       "    Message('control_change', channel=0, control=64, value=108, time=178),\n",
       "    Message('control_change', channel=0, control=64, value=84, time=16),\n",
       "    Message('note_on', channel=0, note=64, velocity=56, time=16),\n",
       "    Message('control_change', channel=0, control=64, value=60, time=5),\n",
       "    Message('control_change', channel=0, control=64, value=32, time=16),\n",
       "    Message('note_on', channel=0, note=55, velocity=55, time=8),\n",
       "    Message('note_on', channel=0, note=60, velocity=45, time=2),\n",
       "    Message('note_on', channel=0, note=43, velocity=57, time=1),\n",
       "    Message('control_change', channel=0, control=64, value=0, time=7),\n",
       "    Message('note_on', channel=0, note=64, velocity=0, time=779),\n",
       "    Message('note_on', channel=0, note=62, velocity=56, time=12),\n",
       "    Message('note_on', channel=0, note=59, velocity=45, time=17),\n",
       "    Message('note_on', channel=0, note=60, velocity=0, time=11),\n",
       "    Message('control_change', channel=0, control=64, value=37, time=61),\n",
       "    Message('control_change', channel=0, control=64, value=63, time=19),\n",
       "    Message('control_change', channel=0, control=64, value=81, time=19),\n",
       "    Message('control_change', channel=0, control=64, value=114, time=19),\n",
       "    Message('note_on', channel=0, note=59, velocity=0, time=14),\n",
       "    Message('control_change', channel=0, control=64, value=127, time=3),\n",
       "    Message('note_on', channel=0, note=55, velocity=0, time=57),\n",
       "    Message('note_on', channel=0, note=43, velocity=0, time=27),\n",
       "    Message('control_change', channel=0, control=64, value=102, time=47),\n",
       "    Message('control_change', channel=0, control=64, value=81, time=18),\n",
       "    Message('note_on', channel=0, note=62, velocity=0, time=7),\n",
       "    Message('control_change', channel=0, control=64, value=60, time=10),\n",
       "    Message('control_change', channel=0, control=64, value=37, time=18),\n",
       "    Message('note_on', channel=0, note=67, velocity=68, time=0),\n",
       "    Message('control_change', channel=0, control=64, value=0, time=37),\n",
       "    Message('note_on', channel=0, note=60, velocity=65, time=312),\n",
       "    Message('note_on', channel=0, note=55, velocity=51, time=18),\n",
       "    Message('note_on', channel=0, note=52, velocity=52, time=16),\n",
       "    Message('note_on', channel=0, note=67, velocity=0, time=13),\n",
       "    Message('note_on', channel=0, note=55, velocity=0, time=290),\n",
       "    Message('note_on', channel=0, note=52, velocity=0, time=43),\n",
       "    Message('note_on', channel=0, note=64, velocity=65, time=12),\n",
       "    Message('note_on', channel=0, note=48, velocity=56, time=10),\n",
       "    Message('control_change', channel=0, control=64, value=8, time=58),\n",
       "    Message('control_change', channel=0, control=64, value=49, time=18),\n",
       "    Message('note_on', channel=0, note=60, velocity=0, time=0),\n",
       "    Message('control_change', channel=0, control=64, value=68, time=18),\n",
       "    Message('control_change', channel=0, control=64, value=81, time=19),\n",
       "    Message('note_on', channel=0, note=64, velocity=0, time=10),\n",
       "    Message('control_change', channel=0, control=64, value=100, time=8),\n",
       "    Message('control_change', channel=0, control=64, value=127, time=20),\n",
       "    Message('note_on', channel=0, note=48, velocity=0, time=65),\n",
       "    Message('control_change', channel=0, control=64, value=118, time=118),\n",
       "    Message('control_change', channel=0, control=64, value=96, time=19),\n",
       "    Message('control_change', channel=0, control=64, value=73, time=18),\n",
       "    Message('control_change', channel=0, control=64, value=50, time=17),\n",
       "    Message('note_on', channel=0, note=64, velocity=56, time=7),\n",
       "    Message('control_change', channel=0, control=64, value=19, time=14),\n",
       "    Message('note_on', channel=0, note=60, velocity=49, time=10),\n",
       "    Message('control_change', channel=0, control=64, value=0, time=8),\n",
       "    Message('note_on', channel=0, note=55, velocity=52, time=2),\n",
       "    Message('note_on', channel=0, note=43, velocity=50, time=5),\n",
       "    Message('note_on', channel=0, note=64, velocity=0, time=724),\n",
       "    Message('note_on', channel=0, note=62, velocity=48, time=52),\n",
       "    Message('note_on', channel=0, note=60, velocity=0, time=6),\n",
       "    Message('note_on', channel=0, note=59, velocity=43, time=3),\n",
       "    Message('control_change', channel=0, control=64, value=22, time=51),\n",
       "    Message('control_change', channel=0, control=64, value=51, time=18),\n",
       "    Message('control_change', channel=0, control=64, value=69, time=18),\n",
       "    Message('control_change', channel=0, control=64, value=82, time=18),\n",
       "    Message('control_change', channel=0, control=64, value=101, time=18),\n",
       "    Message('note_on', channel=0, note=55, velocity=0, time=1),\n",
       "    Message('note_on', channel=0, note=59, velocity=0, time=10),\n",
       "    Message('note_on', channel=0, note=43, velocity=0, time=2),\n",
       "    Message('control_change', channel=0, control=64, value=120, time=5),\n",
       "    Message('note_on', channel=0, note=62, velocity=0, time=4),\n",
       "    Message('control_change', channel=0, control=64, value=127, time=16),\n",
       "    Message('control_change', channel=0, control=64, value=120, time=38),\n",
       "    Message('control_change', channel=0, control=64, value=107, time=17),\n",
       "    Message('control_change', channel=0, control=64, value=90, time=20),\n",
       "    Message('control_change', channel=0, control=64, value=73, time=18),\n",
       "    Message('control_change', channel=0, control=64, value=57, time=17),\n",
       "    Message('control_change', channel=0, control=64, value=43, time=18),\n",
       "    Message('control_change', channel=0, control=64, value=32, time=19),\n",
       "    Message('control_change', channel=0, control=64, value=17, time=19),\n",
       "    Message('control_change', channel=0, control=64, value=0, time=32),\n",
       "    Message('note_on', channel=0, note=57, velocity=61, time=19),\n",
       "    Message('note_on', channel=0, note=50, velocity=57, time=26),\n",
       "    Message('note_on', channel=0, note=45, velocity=50, time=12),\n",
       "    Message('note_on', channel=0, note=41, velocity=48, time=5),\n",
       "    Message('note_on', channel=0, note=62, velocity=73, time=309),\n",
       "    Message('note_on', channel=0, note=50, velocity=0, time=22),\n",
       "    Message('note_on', channel=0, note=41, velocity=0, time=21),\n",
       "    Message('note_on', channel=0, note=45, velocity=0, time=40),\n",
       "    Message('note_on', channel=0, note=57, velocity=0, time=13),\n",
       "    Message('note_on', channel=0, note=65, velocity=72, time=272),\n",
       "    Message('note_on', channel=0, note=62, velocity=0, time=79),\n",
       "    Message('note_on', channel=0, note=64, velocity=64, time=316),\n",
       "    Message('note_on', channel=0, note=50, velocity=47, time=20),\n",
       "    Message('note_on', channel=0, note=45, velocity=47, time=10),\n",
       "    Message('note_on', channel=0, note=41, velocity=45, time=1),\n",
       "    Message('note_on', channel=0, note=65, velocity=0, time=43),\n",
       "    Message('note_on', channel=0, note=50, velocity=0, time=257),\n",
       "    Message('note_on', channel=0, note=41, velocity=0, time=21),\n",
       "    Message('note_on', channel=0, note=62, velocity=65, time=36),\n",
       "    Message('note_on', channel=0, note=45, velocity=0, time=3),\n",
       "    Message('note_on', channel=0, note=64, velocity=0, time=57),\n",
       "    Message('note_on', channel=0, note=62, velocity=0, time=183),\n",
       "    Message('note_on', channel=0, note=69, velocity=67, time=130),\n",
       "    Message('note_on', channel=0, note=53, velocity=48, time=383),\n",
       "    Message('note_on', channel=0, note=50, velocity=46, time=1),\n",
       "    Message('note_on', channel=0, note=43, velocity=42, time=18),\n",
       "    Message('note_on', channel=0, note=53, velocity=0, time=217),\n",
       "    Message('note_on', channel=0, note=43, velocity=0, time=5),\n",
       "    Message('note_on', channel=0, note=50, velocity=0, time=3),\n",
       "    Message('note_on', channel=0, note=67, velocity=59, time=165),\n",
       "    Message('note_on', channel=0, note=69, velocity=0, time=49),\n",
       "    Message('note_on', channel=0, note=67, velocity=0, time=158),\n",
       "    Message('note_on', channel=0, note=59, velocity=53, time=158),\n",
       "    Message('note_on', channel=0, note=59, velocity=0, time=95),\n",
       "    Message('note_on', channel=0, note=60, velocity=52, time=249),\n",
       "    Message('note_on', channel=0, note=48, velocity=38, time=6),\n",
       "    Message('note_on', channel=0, note=52, velocity=45, time=1),\n",
       "    Message('control_change', channel=0, control=64, value=20, time=15),\n",
       "    Message('control_change', channel=0, control=64, value=51, time=19),\n",
       "    Message('control_change', channel=0, control=64, value=71, time=18),\n",
       "    Message('control_change', channel=0, control=64, value=89, time=19),\n",
       "    Message('note_on', channel=0, note=48, velocity=0, time=7),\n",
       "    Message('control_change', channel=0, control=64, value=121, time=9),\n",
       "    Message('note_on', channel=0, note=52, velocity=0, time=14),\n",
       "    Message('control_change', channel=0, control=64, value=127, time=6),\n",
       "    Message('note_on', channel=0, note=67, velocity=59, time=51),\n",
       "    Message('note_on', channel=0, note=60, velocity=0, time=8),\n",
       "    Message('note_on', channel=0, note=67, velocity=0, time=41),\n",
       "    Message('control_change', channel=0, control=64, value=120, time=66),\n",
       "    Message('control_change', channel=0, control=64, value=95, time=18),\n",
       "    Message('control_change', channel=0, control=64, value=73, time=20),\n",
       "    Message('note_on', channel=0, note=64, velocity=66, time=31),\n",
       "    Message('control_change', channel=0, control=64, value=50, time=0),\n",
       "    Message('control_change', channel=0, control=64, value=25, time=18),\n",
       "    Message('control_change', channel=0, control=64, value=0, time=20),\n",
       "    Message('note_on', channel=0, note=64, velocity=0, time=113),\n",
       "    Message('note_on', channel=0, note=67, velocity=59, time=24),\n",
       "    Message('note_on', channel=0, note=67, velocity=0, time=61),\n",
       "    Message('note_on', channel=0, note=60, velocity=54, time=109),\n",
       "    Message('note_on', channel=0, note=67, velocity=63, time=158),\n",
       "    Message('note_on', channel=0, note=60, velocity=0, time=17),\n",
       "    Message('note_on', channel=0, note=67, velocity=0, time=47),\n",
       "    Message('note_on', channel=0, note=67, velocity=60, time=115),\n",
       "    Message('note_on', channel=0, note=65, velocity=56, time=5),\n",
       "    Message('note_on', channel=0, note=62, velocity=43, time=2),\n",
       "    Message('note_on', channel=0, note=67, velocity=0, time=42),\n",
       "    Message('note_on', channel=0, note=65, velocity=0, time=14),\n",
       "    Message('note_on', channel=0, note=62, velocity=0, time=85),\n",
       "    Message('note_on', channel=0, note=67, velocity=58, time=7),\n",
       "    Message('note_on', channel=0, note=65, velocity=60, time=19),\n",
       "    Message('note_on', channel=0, note=67, velocity=0, time=32),\n",
       "    Message('note_on', channel=0, note=65, velocity=0, time=16),\n",
       "    Message('note_on', channel=0, note=59, velocity=53, time=135),\n",
       "    Message('note_on', channel=0, note=67, velocity=55, time=161),\n",
       "    Message('note_on', channel=0, note=65, velocity=52, time=4),\n",
       "    Message('note_on', channel=0, note=59, velocity=0, time=9),\n",
       "    Message('note_on', channel=0, note=67, velocity=0, time=60),\n",
       "    Message('note_on', channel=0, note=65, velocity=0, time=2),\n",
       "    Message('note_on', channel=0, note=55, velocity=58, time=100),\n",
       "    Message('note_on', channel=0, note=55, velocity=0, time=113),\n",
       "    Message('note_on', channel=0, note=65, velocity=61, time=51),\n",
       "    Message('note_on', channel=0, note=67, velocity=58, time=3),\n",
       "    Message('note_on', channel=0, note=67, velocity=0, time=53),\n",
       "    Message('note_on', channel=0, note=65, velocity=0, time=5),\n",
       "    Message('note_on', channel=0, note=67, velocity=59, time=105),\n",
       "    Message('note_on', channel=0, note=48, velocity=69, time=10),\n",
       "    Message('note_on', channel=0, note=63, velocity=59, time=3),\n",
       "    Message('note_on', channel=0, note=67, velocity=0, time=58),\n",
       "    Message('note_on', channel=0, note=63, velocity=0, time=11),\n",
       "    Message('note_on', channel=0, note=48, velocity=0, time=86),\n",
       "    Message('note_on', channel=0, note=67, velocity=52, time=21),\n",
       "    Message('note_on', channel=0, note=63, velocity=56, time=1),\n",
       "    Message('note_on', channel=0, note=67, velocity=0, time=59),\n",
       "    Message('note_on', channel=0, note=63, velocity=0, time=11),\n",
       "    Message('note_on', channel=0, note=51, velocity=59, time=104),\n",
       "    Message('note_on', channel=0, note=67, velocity=56, time=159),\n",
       "    Message('note_on', channel=0, note=63, velocity=56, time=4),\n",
       "    Message('note_on', channel=0, note=51, velocity=0, time=33),\n",
       "    Message('note_on', channel=0, note=67, velocity=0, time=36),\n",
       "    Message('note_on', channel=0, note=63, velocity=0, time=12),\n",
       "    Message('note_on', channel=0, note=48, velocity=54, time=89),\n",
       "    Message('note_on', channel=0, note=63, velocity=56, time=163),\n",
       "    Message('note_on', channel=0, note=67, velocity=59, time=0),\n",
       "    Message('note_on', channel=0, note=48, velocity=0, time=11),\n",
       "    Message('note_on', channel=0, note=67, velocity=0, time=51),\n",
       "    Message('note_on', channel=0, note=63, velocity=0, time=16),\n",
       "    Message('note_on', channel=0, note=65, velocity=58, time=104),\n",
       "    Message('note_on', channel=0, note=67, velocity=61, time=4),\n",
       "    Message('note_on', channel=0, note=50, velocity=58, time=7),\n",
       "    Message('note_on', channel=0, note=67, velocity=0, time=60),\n",
       "    Message('note_on', channel=0, note=65, velocity=0, time=8),\n",
       "    Message('note_on', channel=0, note=50, velocity=0, time=101),\n",
       "    Message('note_on', channel=0, note=67, velocity=57, time=4),\n",
       "    Message('note_on', channel=0, note=65, velocity=56, time=0),\n",
       "    Message('note_on', channel=0, note=65, velocity=0, time=52),\n",
       "    Message('note_on', channel=0, note=67, velocity=0, time=1),\n",
       "    Message('note_on', channel=0, note=47, velocity=54, time=117),\n",
       "    Message('note_on', channel=0, note=67, velocity=57, time=161),\n",
       "    Message('note_on', channel=0, note=65, velocity=56, time=6),\n",
       "    Message('note_on', channel=0, note=47, velocity=0, time=33),\n",
       "    Message('note_on', channel=0, note=65, velocity=0, time=23),\n",
       "    Message('note_on', channel=0, note=67, velocity=0, time=4),\n",
       "    Message('note_on', channel=0, note=43, velocity=62, time=109),\n",
       "    Message('note_on', channel=0, note=43, velocity=0, time=52),\n",
       "    Message('note_on', channel=0, note=65, velocity=64, time=98),\n",
       "    Message('note_on', channel=0, note=67, velocity=58, time=5),\n",
       "    Message('note_on', channel=0, note=67, velocity=0, time=50),\n",
       "    Message('note_on', channel=0, note=65, velocity=0, time=9),\n",
       "    Message('control_change', channel=0, control=67, value=109, time=4),\n",
       "    Message('control_change', channel=0, control=67, value=67, time=19),\n",
       "    Message('control_change', channel=0, control=67, value=16, time=20),\n",
       "    Message('control_change', channel=0, control=64, value=21, time=18),\n",
       "    Message('control_change', channel=0, control=67, value=0, time=2),\n",
       "    Message('control_change', channel=0, control=64, value=60, time=31),\n",
       "    Message('note_on', channel=0, note=48, velocity=74, time=0),\n",
       "    Message('note_on', channel=0, note=36, velocity=70, time=1),\n",
       "    Message('note_on', channel=0, note=67, velocity=78, time=4),\n",
       "    Message('note_on', channel=0, note=63, velocity=71, time=9),\n",
       "    Message('control_change', channel=0, control=64, value=89, time=4),\n",
       "    Message('control_change', channel=0, control=64, value=127, time=18),\n",
       "    Message('note_on', channel=0, note=36, velocity=0, time=3),\n",
       "    Message('note_on', channel=0, note=48, velocity=0, time=1),\n",
       "    Message('control_change', channel=0, control=67, value=16, time=15),\n",
       "    Message('control_change', channel=0, control=67, value=22, time=17),\n",
       "    Message('note_on', channel=0, note=67, velocity=0, time=1),\n",
       "    Message('note_on', channel=0, note=63, velocity=0, time=9),\n",
       "    Message('control_change', channel=0, control=67, value=31, time=82),\n",
       "    Message('control_change', channel=0, control=64, value=111, time=20),\n",
       "    Message('control_change', channel=0, control=67, value=48, time=1),\n",
       "    Message('note_on', channel=0, note=63, velocity=59, time=3),\n",
       "    Message('note_on', channel=0, note=67, velocity=57, time=2),\n",
       "    Message('control_change', channel=0, control=64, value=90, time=14),\n",
       "    Message('control_change', channel=0, control=67, value=72, time=0),\n",
       "    Message('control_change', channel=0, control=64, value=71, time=15),\n",
       "    Message('control_change', channel=0, control=67, value=99, time=3),\n",
       "    Message('note_on', channel=0, note=67, velocity=0, time=2),\n",
       "    Message('note_on', channel=0, note=63, velocity=0, time=6),\n",
       "    Message('control_change', channel=0, control=64, value=51, time=8),\n",
       "    Message('control_change', channel=0, control=67, value=121, time=1),\n",
       "    Message('control_change', channel=0, control=64, value=31, time=18),\n",
       "    Message('control_change', channel=0, control=67, value=127, time=1),\n",
       "    Message('control_change', channel=0, control=64, value=0, time=18),\n",
       "    Message('note_on', channel=0, note=60, velocity=63, time=60),\n",
       "    Message('note_on', channel=0, note=60, velocity=0, time=61),\n",
       "    Message('note_on', channel=0, note=67, velocity=59, time=101),\n",
       "    Message('note_on', channel=0, note=63, velocity=55, time=11),\n",
       "    Message('note_on', channel=0, note=67, velocity=0, time=46),\n",
       "    Message('note_on', channel=0, note=63, velocity=0, time=10),\n",
       "    Message('note_on', channel=0, note=48, velocity=56, time=118),\n",
       "    Message('note_on', channel=0, note=48, velocity=0, time=40),\n",
       "    Message('note_on', channel=0, note=67, velocity=57, time=100),\n",
       "    Message('note_on', channel=0, note=63, velocity=62, time=11),\n",
       "    Message('note_on', channel=0, note=63, velocity=0, time=58),\n",
       "    Message('note_on', channel=0, note=67, velocity=0, time=0),\n",
       "    Message('control_change', channel=0, control=67, value=106, time=61),\n",
       "    Message('control_change', channel=0, control=64, value=23, time=20),\n",
       "    Message('control_change', channel=0, control=67, value=88, time=1),\n",
       "    Message('control_change', channel=0, control=64, value=59, time=17),\n",
       "    Message('control_change', channel=0, control=67, value=77, time=1),\n",
       "    Message('note_on', channel=0, note=33, velocity=72, time=6),\n",
       "    Message('note_on', channel=0, note=66, velocity=74, time=0),\n",
       "    Message('note_on', channel=0, note=45, velocity=78, time=1),\n",
       "    Message('note_on', channel=0, note=60, velocity=76, time=3),\n",
       "    Message('control_change', channel=0, control=64, value=85, time=7),\n",
       "    Message('note_on', channel=0, note=63, velocity=67, time=4),\n",
       "    Message('control_change', channel=0, control=64, value=127, time=13),\n",
       "    Message('note_on', channel=0, note=33, velocity=0, time=5),\n",
       "    Message('note_on', channel=0, note=45, velocity=0, time=13),\n",
       "    Message('control_change', channel=0, control=67, value=82, time=0),\n",
       "    Message('note_on', channel=0, note=63, velocity=0, time=7),\n",
       "    Message('note_on', channel=0, note=60, velocity=0, time=12),\n",
       "    Message('note_on', channel=0, note=66, velocity=0, time=4),\n",
       "    Message('note_on', channel=0, note=63, velocity=47, time=90),\n",
       "    Message('note_on', channel=0, note=66, velocity=67, time=11),\n",
       "    Message('note_on', channel=0, note=60, velocity=68, time=2),\n",
       "    Message('note_on', channel=0, note=66, velocity=0, time=31),\n",
       "    Message('note_on', channel=0, note=63, velocity=0, time=4),\n",
       "    Message('control_change', channel=0, control=64, value=104, time=5),\n",
       "    Message('note_on', channel=0, note=60, velocity=0, time=1),\n",
       "    Message('control_change', channel=0, control=64, value=83, time=19),\n",
       "    Message('control_change', channel=0, control=64, value=63, time=16),\n",
       "    Message('control_change', channel=0, control=64, value=41, time=20),\n",
       "    Message('control_change', channel=0, control=64, value=17, time=18),\n",
       "    Message('control_change', channel=0, control=64, value=0, time=18),\n",
       "    Message('note_on', channel=0, note=57, velocity=69, time=28),\n",
       "    Message('note_on', channel=0, note=57, velocity=0, time=55),\n",
       "    Message('note_on', channel=0, note=63, velocity=61, time=106),\n",
       "    Message('note_on', channel=0, note=60, velocity=58, time=5),\n",
       "    Message('note_on', channel=0, note=66, velocity=58, time=1),\n",
       "    Message('note_on', channel=0, note=60, velocity=0, time=27),\n",
       "    Message('note_on', channel=0, note=63, velocity=0, time=6),\n",
       "    Message('note_on', channel=0, note=66, velocity=0, time=4),\n",
       "    Message('note_on', channel=0, note=45, velocity=67, time=87),\n",
       "    Message('note_on', channel=0, note=45, velocity=0, time=48),\n",
       "    Message('note_on', channel=0, note=60, velocity=60, time=115),\n",
       "    Message('note_on', channel=0, note=66, velocity=62, time=7),\n",
       "    Message('note_on', channel=0, note=63, velocity=54, time=5),\n",
       "    Message('control_change', channel=0, control=67, value=78, time=43),\n",
       "    Message('note_on', channel=0, note=60, velocity=0, time=15),\n",
       "    Message('control_change', channel=0, control=67, value=74, time=2),\n",
       "    Message('note_on', channel=0, note=63, velocity=0, time=1),\n",
       "    Message('control_change', channel=0, control=67, value=68, time=19),\n",
       "    Message('note_on', channel=0, note=66, velocity=0, time=3),\n",
       "    Message('control_change', channel=0, control=67, value=60, time=16),\n",
       "    Message('control_change', channel=0, control=67, value=54, time=17),\n",
       "    Message('control_change', channel=0, control=64, value=47, time=18),\n",
       "    Message('control_change', channel=0, control=64, value=79, time=18),\n",
       "    Message('note_on', channel=0, note=46, velocity=74, time=0),\n",
       "    Message('note_on', channel=0, note=34, velocity=74, time=0),\n",
       "    Message('note_on', channel=0, note=67, velocity=78, time=4),\n",
       "    Message('note_on', channel=0, note=62, velocity=76, time=2),\n",
       "    Message('control_change', channel=0, control=64, value=127, time=15),\n",
       "    Message('note_on', channel=0, note=34, velocity=0, time=11),\n",
       "    Message('note_on', channel=0, note=46, velocity=0, time=9),\n",
       "    Message('note_on', channel=0, note=67, velocity=0, time=27),\n",
       "    Message('note_on', channel=0, note=62, velocity=0, time=7),\n",
       "    Message('note_on', channel=0, note=67, velocity=74, time=90),\n",
       "    Message('note_on', channel=0, note=62, velocity=65, time=9),\n",
       "    Message('control_change', channel=0, control=64, value=123, time=29),\n",
       "    Message('note_on', channel=0, note=67, velocity=0, time=10),\n",
       "    Message('note_on', channel=0, note=62, velocity=0, time=2),\n",
       "    Message('control_change', channel=0, control=64, value=98, time=6),\n",
       "    Message('control_change', channel=0, control=64, value=77, time=19),\n",
       "    Message('control_change', channel=0, control=64, value=57, time=19),\n",
       "    Message('control_change', channel=0, control=64, value=37, time=19),\n",
       "    Message('control_change', channel=0, control=64, value=15, time=19),\n",
       "    Message('control_change', channel=0, control=64, value=0, time=19),\n",
       "    Message('note_on', channel=0, note=58, velocity=64, time=15),\n",
       "    Message('note_on', channel=0, note=58, velocity=0, time=48),\n",
       "    Message('note_on', channel=0, note=67, velocity=62, time=123),\n",
       "    Message('note_on', channel=0, note=62, velocity=58, time=2),\n",
       "    Message('note_on', channel=0, note=62, velocity=0, time=48),\n",
       "    Message('note_on', channel=0, note=67, velocity=0, time=5),\n",
       "    Message('control_change', channel=0, control=67, value=50, time=72),\n",
       "    Message('note_on', channel=0, note=46, velocity=66, time=24),\n",
       "    Message('note_on', channel=0, note=46, velocity=0, time=58),\n",
       "    Message('control_change', channel=0, control=67, value=46, time=10),\n",
       "    Message('note_on', channel=0, note=62, velocity=65, time=102),\n",
       "    Message('note_on', channel=0, note=67, velocity=68, time=3),\n",
       "    Message('control_change', channel=0, control=67, value=40, time=1),\n",
       "    Message('control_change', channel=0, control=67, value=36, time=19),\n",
       "    Message('control_change', channel=0, control=67, value=30, time=20),\n",
       "    Message('note_on', channel=0, note=62, velocity=0, time=10),\n",
       "    Message('control_change', channel=0, control=67, value=21, time=8),\n",
       "    Message('note_on', channel=0, note=67, velocity=0, time=13),\n",
       "    Message('control_change', channel=0, control=67, value=0, time=24),\n",
       "    Message('control_change', channel=0, control=64, value=35, time=38),\n",
       "    Message('note_on', channel=0, note=42, velocity=79, time=15),\n",
       "    Message('control_change', channel=0, control=64, value=72, time=3),\n",
       "    Message('note_on', channel=0, note=30, velocity=73, time=0),\n",
       "    Message('note_on', channel=0, note=72, velocity=80, time=2),\n",
       "    Message('note_on', channel=0, note=62, velocity=80, time=4),\n",
       "    Message('note_on', channel=0, note=69, velocity=79, time=1),\n",
       "    Message('control_change', channel=0, control=64, value=113, time=16),\n",
       "    Message('note_on', channel=0, note=30, velocity=0, time=12),\n",
       "    Message('control_change', channel=0, control=64, value=127, time=3),\n",
       "    Message('note_on', channel=0, note=42, velocity=0, time=4),\n",
       "    Message('note_on', channel=0, note=62, velocity=0, time=29),\n",
       "    Message('note_on', channel=0, note=69, velocity=0, time=4),\n",
       "    Message('note_on', channel=0, note=72, velocity=0, time=6),\n",
       "    Message('note_on', channel=0, note=69, velocity=73, time=89),\n",
       "    Message('note_on', channel=0, note=72, velocity=68, time=3),\n",
       "    Message('note_on', channel=0, note=62, velocity=63, time=4),\n",
       "    Message('note_on', channel=0, note=62, velocity=0, time=40),\n",
       "    Message('note_on', channel=0, note=69, velocity=0, time=2),\n",
       "    Message('note_on', channel=0, note=72, velocity=0, time=2),\n",
       "    Message('control_change', channel=0, control=64, value=103, time=19),\n",
       "    Message('control_change', channel=0, control=64, value=81, time=19),\n",
       "    Message('control_change', channel=0, control=64, value=61, time=18),\n",
       "    Message('control_change', channel=0, control=64, value=40, time=19),\n",
       "    Message('control_change', channel=0, control=64, value=22, time=18),\n",
       "    Message('control_change', channel=0, control=64, value=0, time=18),\n",
       "    Message('note_on', channel=0, note=54, velocity=68, time=10),\n",
       "    Message('note_on', channel=0, note=54, velocity=0, time=65),\n",
       "    Message('note_on', channel=0, note=69, velocity=63, time=100),\n",
       "    Message('note_on', channel=0, note=72, velocity=59, time=1),\n",
       "    Message('note_on', channel=0, note=62, velocity=59, time=2),\n",
       "    Message('note_on', channel=0, note=69, velocity=0, time=44),\n",
       "    Message('note_on', channel=0, note=72, velocity=0, time=8),\n",
       "    Message('note_on', channel=0, note=62, velocity=0, time=2),\n",
       "    Message('note_on', channel=0, note=42, velocity=66, time=94),\n",
       "    Message('note_on', channel=0, note=42, velocity=0, time=58),\n",
       "    Message('note_on', channel=0, note=69, velocity=66, time=130),\n",
       "    Message('note_on', channel=0, note=72, velocity=68, time=0),\n",
       "    Message('note_on', channel=0, note=62, velocity=60, time=9),\n",
       "    Message('note_on', channel=0, note=69, velocity=0, time=40),\n",
       "    Message('note_on', channel=0, note=62, velocity=0, time=4),\n",
       "    Message('note_on', channel=0, note=72, velocity=0, time=15),\n",
       "    Message('control_change', channel=0, control=64, value=52, time=60),\n",
       "    Message('note_on', channel=0, note=31, velocity=77, time=10),\n",
       "    Message('note_on', channel=0, note=43, velocity=74, time=4),\n",
       "    Message('note_on', channel=0, note=62, velocity=79, time=1),\n",
       "    Message('control_change', channel=0, control=64, value=84, time=4),\n",
       "    Message('note_on', channel=0, note=70, velocity=82, time=1),\n",
       "    Message('note_on', channel=0, note=67, velocity=75, time=12),\n",
       "    Message('control_change', channel=0, control=64, value=127, time=5),\n",
       "    Message('note_on', channel=0, note=31, velocity=0, time=10),\n",
       "    Message('note_on', channel=0, note=43, velocity=0, time=11),\n",
       "    Message('note_on', channel=0, note=67, velocity=0, time=20),\n",
       "    Message('note_on', channel=0, note=62, velocity=0, time=5),\n",
       "    Message('note_on', channel=0, note=70, velocity=0, time=12),\n",
       "    Message('note_on', channel=0, note=70, velocity=77, time=84),\n",
       "    Message('note_on', channel=0, note=67, velocity=62, time=13),\n",
       "    Message('note_on', channel=0, note=62, velocity=69, time=1),\n",
       "    Message('note_on', channel=0, note=62, velocity=0, time=39),\n",
       "    Message('note_on', channel=0, note=67, velocity=0, time=1),\n",
       "    Message('control_change', channel=0, control=64, value=120, time=8),\n",
       "    Message('note_on', channel=0, note=70, velocity=0, time=16),\n",
       "    Message('control_change', channel=0, control=64, value=95, time=1),\n",
       "    Message('control_change', channel=0, control=64, value=72, time=18),\n",
       "    Message('control_change', channel=0, control=64, value=51, time=19),\n",
       "    Message('control_change', channel=0, control=64, value=32, time=18),\n",
       "    Message('note_on', channel=0, note=55, velocity=65, time=33),\n",
       "    Message('control_change', channel=0, control=64, value=0, time=2),\n",
       "    Message('note_on', channel=0, note=55, velocity=0, time=56),\n",
       "    Message('note_on', channel=0, note=70, velocity=65, time=112),\n",
       "    Message('note_on', channel=0, note=62, velocity=62, time=5),\n",
       "    Message('note_on', channel=0, note=67, velocity=64, time=0),\n",
       "    Message('note_on', channel=0, note=67, velocity=0, time=43),\n",
       "    Message('note_on', channel=0, note=62, velocity=0, time=3),\n",
       "    Message('note_on', channel=0, note=70, velocity=0, time=12),\n",
       "    Message('note_on', channel=0, note=43, velocity=73, time=101),\n",
       "    Message('note_on', channel=0, note=43, velocity=0, time=46),\n",
       "    Message('note_on', channel=0, note=62, velocity=64, time=112),\n",
       "    Message('note_on', channel=0, note=70, velocity=69, time=3),\n",
       "    Message('note_on', channel=0, note=67, velocity=60, time=6),\n",
       "    Message('note_on', channel=0, note=62, velocity=0, time=34),\n",
       "    Message('note_on', channel=0, note=67, velocity=0, time=11),\n",
       "    Message('note_on', channel=0, note=70, velocity=0, time=24),\n",
       "    Message('control_change', channel=0, control=64, value=49, time=75),\n",
       "    Message('note_on', channel=0, note=67, velocity=74, time=4),\n",
       "    Message('note_on', channel=0, note=73, velocity=84, time=0),\n",
       "    Message('note_on', channel=0, note=52, velocity=81, time=0),\n",
       "    Message('note_on', channel=0, note=40, velocity=75, time=1),\n",
       "    Message('note_on', channel=0, note=70, velocity=74, time=8),\n",
       "    Message('control_change', channel=0, control=64, value=78, time=6),\n",
       "    Message('note_on', channel=0, note=40, velocity=0, time=15),\n",
       "    Message('control_change', channel=0, control=64, value=124, time=2),\n",
       "    Message('note_on', channel=0, note=52, velocity=0, time=8),\n",
       "    Message('note_on', channel=0, note=70, velocity=0, time=22),\n",
       "    Message('note_on', channel=0, note=67, velocity=0, time=3),\n",
       "    Message('note_on', channel=0, note=73, velocity=0, time=13),\n",
       "    Message('note_on', channel=0, note=70, velocity=74, time=97),\n",
       "    Message('note_on', channel=0, note=73, velocity=72, time=1),\n",
       "    Message('note_on', channel=0, note=67, velocity=77, time=1),\n",
       "    Message('note_on', channel=0, note=70, velocity=0, time=43),\n",
       "    Message('note_on', channel=0, note=67, velocity=0, time=2),\n",
       "    Message('control_change', channel=0, control=64, value=116, time=14),\n",
       "    Message('note_on', channel=0, note=73, velocity=0, time=2),\n",
       "    Message('control_change', channel=0, control=64, value=93, time=16),\n",
       "    Message('control_change', channel=0, control=64, value=72, time=19),\n",
       "    Message('control_change', channel=0, control=64, value=51, time=16),\n",
       "    Message('control_change', channel=0, control=64, value=30, time=20),\n",
       "    Message('control_change', channel=0, control=64, value=0, time=17),\n",
       "    Message('note_on', channel=0, note=64, velocity=74, time=4),\n",
       "    Message('note_on', channel=0, note=64, velocity=0, time=70),\n",
       "    Message('note_on', channel=0, note=67, velocity=63, time=98),\n",
       "    Message('note_on', channel=0, note=73, velocity=65, time=4),\n",
       "    Message('note_on', channel=0, note=70, velocity=59, time=8),\n",
       "    Message('note_on', channel=0, note=67, velocity=0, time=37),\n",
       "    Message('note_on', channel=0, note=70, velocity=0, time=9),\n",
       "    Message('note_on', channel=0, note=73, velocity=0, time=7),\n",
       "    Message('note_on', channel=0, note=52, velocity=68, time=90),\n",
       "    Message('note_on', channel=0, note=52, velocity=0, time=59),\n",
       "    Message('note_on', channel=0, note=67, velocity=60, time=110),\n",
       "    Message('note_on', channel=0, note=73, velocity=60, time=0),\n",
       "    Message('note_on', channel=0, note=70, velocity=57, time=8),\n",
       "    Message('note_on', channel=0, note=67, velocity=0, time=44),\n",
       "    Message('note_on', channel=0, note=70, velocity=0, time=7),\n",
       "    Message('note_on', channel=0, note=73, velocity=0, time=23),\n",
       "    Message('control_change', channel=0, control=64, value=25, time=47),\n",
       "    Message('note_on', channel=0, note=41, velocity=78, time=13),\n",
       "    Message('note_on', channel=0, note=53, velocity=78, time=1),\n",
       "    Message('control_change', channel=0, control=64, value=63, time=4),\n",
       "    Message('note_on', channel=0, note=74, velocity=85, time=1),\n",
       "    Message('note_on', channel=0, note=69, velocity=80, time=2),\n",
       "    Message('control_change', channel=0, control=64, value=96, time=15),\n",
       "    Message('note_on', channel=0, note=41, velocity=0, time=16),\n",
       "    Message('control_change', channel=0, control=64, value=127, time=1),\n",
       "    Message('note_on', channel=0, note=53, velocity=0, time=13),\n",
       "    Message('note_on', channel=0, note=74, velocity=0, time=15),\n",
       "    Message('note_on', channel=0, note=69, velocity=0, time=2),\n",
       "    Message('control_change', channel=0, control=67, value=9, time=27),\n",
       "    Message('control_change', channel=0, control=67, value=16, time=38),\n",
       "    Message('note_on', channel=0, note=74, velocity=80, time=31),\n",
       "    Message('control_change', channel=0, control=67, value=22, time=5),\n",
       "    Message('note_on', channel=0, note=69, velocity=73, time=7),\n",
       "    Message('note_on', channel=0, note=69, velocity=0, time=43),\n",
       "    Message('note_on', channel=0, note=74, velocity=0, time=6),\n",
       "    Message('control_change', channel=0, control=64, value=114, time=17),\n",
       "    Message('control_change', channel=0, control=64, value=87, time=17),\n",
       "    Message('control_change', channel=0, control=64, value=63, time=20),\n",
       "    Message('control_change', channel=0, control=67, value=17, time=1),\n",
       "    Message('control_change', channel=0, control=64, value=37, time=15),\n",
       "    Message('control_change', channel=0, control=64, value=0, time=20),\n",
       "    Message('control_change', channel=0, control=67, value=13, time=1),\n",
       "    Message('note_on', channel=0, note=65, velocity=72, time=11),\n",
       "    Message('note_on', channel=0, note=65, velocity=0, time=57),\n",
       "    Message('note_on', channel=0, note=74, velocity=67, time=113),\n",
       "    Message('note_on', channel=0, note=69, velocity=63, time=0),\n",
       "    Message('note_on', channel=0, note=69, velocity=0, time=51),\n",
       "    Message('note_on', channel=0, note=74, velocity=0, time=20),\n",
       "    Message('control_change', channel=0, control=67, value=9, time=93),\n",
       "    Message('note_on', channel=0, note=53, velocity=61, time=11),\n",
       "    Message('note_on', channel=0, note=53, velocity=0, time=47),\n",
       "    Message('note_on', channel=0, note=69, velocity=67, time=106),\n",
       "    Message('note_on', channel=0, note=74, velocity=68, time=4),\n",
       "    Message('control_change', channel=0, control=67, value=0, time=54),\n",
       "    Message('note_on', channel=0, note=69, velocity=0, time=4),\n",
       "    Message('note_on', channel=0, note=74, velocity=0, time=17),\n",
       "    Message('control_change', channel=0, control=64, value=50, time=55),\n",
       "    Message('note_on', channel=0, note=49, velocity=85, time=6),\n",
       "    Message('note_on', channel=0, note=37, velocity=78, time=11),\n",
       "    Message('control_change', channel=0, control=64, value=82, time=0),\n",
       "    Message('note_on', channel=0, note=79, velocity=85, time=1),\n",
       "    Message('note_on', channel=0, note=76, velocity=81, time=3),\n",
       "    Message('note_on', channel=0, note=69, velocity=80, time=2),\n",
       "    Message('control_change', channel=0, control=64, value=127, time=14),\n",
       "    Message('note_on', channel=0, note=37, velocity=0, time=8),\n",
       "    Message('note_on', channel=0, note=49, velocity=0, time=15),\n",
       "    Message('note_on', channel=0, note=69, velocity=0, time=18),\n",
       "    Message('note_on', channel=0, note=76, velocity=0, time=3),\n",
       "    Message('note_on', channel=0, note=79, velocity=0, time=10),\n",
       "    Message('note_on', channel=0, note=76, velocity=75, time=81),\n",
       "    Message('note_on', channel=0, note=79, velocity=71, time=3),\n",
       "    Message('note_on', channel=0, note=69, velocity=73, time=0),\n",
       "    Message('note_on', channel=0, note=69, velocity=0, time=45),\n",
       "    Message('note_on', channel=0, note=76, velocity=0, time=8),\n",
       "    Message('control_change', channel=0, control=64, value=107, time=10),\n",
       "    Message('note_on', channel=0, note=79, velocity=0, time=5),\n",
       "    Message('control_change', channel=0, control=64, value=80, time=14),\n",
       "    Message('control_change', channel=0, control=64, value=56, time=17),\n",
       "    Message('control_change', channel=0, control=64, value=27, time=20),\n",
       "    Message('control_change', channel=0, control=64, value=0, time=18),\n",
       "    Message('note_on', channel=0, note=61, velocity=73, time=26),\n",
       "    Message('control_change', channel=0, control=67, value=8, time=30),\n",
       "    Message('note_on', channel=0, note=61, velocity=0, time=61),\n",
       "    Message('note_on', channel=0, note=76, velocity=64, time=75),\n",
       "    Message('note_on', channel=0, note=79, velocity=60, time=7),\n",
       "    Message('note_on', channel=0, note=69, velocity=58, time=0),\n",
       "    Message('note_on', channel=0, note=69, velocity=0, time=48),\n",
       "    Message('note_on', channel=0, note=79, velocity=0, time=0),\n",
       "    Message('note_on', channel=0, note=76, velocity=0, time=3),\n",
       "    Message('note_on', channel=0, note=49, velocity=68, time=114),\n",
       "    Message('control_change', channel=0, control=67, value=0, time=55),\n",
       "    Message('note_on', channel=0, note=49, velocity=0, time=7),\n",
       "    Message('note_on', channel=0, note=79, velocity=67, time=95),\n",
       "    Message('note_on', channel=0, note=76, velocity=66, time=1),\n",
       "    Message('note_on', channel=0, note=69, velocity=64, time=5),\n",
       "    Message('note_on', channel=0, note=69, velocity=0, time=44),\n",
       "    Message('note_on', channel=0, note=76, velocity=0, time=5),\n",
       "    Message('note_on', channel=0, note=79, velocity=0, time=21),\n",
       "    Message('control_change', channel=0, control=64, value=42, time=62),\n",
       "    Message('note_on', channel=0, note=38, velocity=80, time=7),\n",
       "    Message('note_on', channel=0, note=50, velocity=84, time=1),\n",
       "    Message('note_on', channel=0, note=69, velocity=84, time=4),\n",
       "    Message('note_on', channel=0, note=77, velocity=83, time=4),\n",
       "    Message('control_change', channel=0, control=64, value=76, time=4),\n",
       "    Message('note_on', channel=0, note=74, velocity=78, time=3),\n",
       "    Message('control_change', channel=0, control=64, value=127, time=15),\n",
       "    Message('note_on', channel=0, note=38, velocity=0, time=7),\n",
       "    Message('note_on', channel=0, note=74, velocity=0, time=14),\n",
       "    Message('note_on', channel=0, note=50, velocity=0, time=7),\n",
       "    Message('note_on', channel=0, note=69, velocity=0, time=7),\n",
       "    Message('note_on', channel=0, note=77, velocity=0, time=3),\n",
       "    Message('note_on', channel=0, note=69, velocity=77, time=99),\n",
       "    Message('note_on', channel=0, note=77, velocity=77, time=2),\n",
       "    Message('note_on', channel=0, note=74, velocity=66, time=2),\n",
       "    Message('note_on', channel=0, note=69, velocity=0, time=34),\n",
       "    Message('note_on', channel=0, note=74, velocity=0, time=9),\n",
       "    Message('note_on', channel=0, note=77, velocity=0, time=15),\n",
       "    Message('control_change', channel=0, control=64, value=105, time=2),\n",
       "    Message('control_change', channel=0, control=64, value=80, time=19),\n",
       "    Message('control_change', channel=0, control=64, value=55, time=18),\n",
       "    Message('control_change', channel=0, control=64, value=16, time=18),\n",
       "    Message('control_change', channel=0, control=64, value=0, time=17),\n",
       "    Message('note_on', channel=0, note=62, velocity=72, time=21),\n",
       "    Message('note_on', channel=0, note=62, velocity=0, time=76),\n",
       "    Message('note_on', channel=0, note=77, velocity=69, time=91),\n",
       "    Message('note_on', channel=0, note=69, velocity=63, time=6),\n",
       "    Message('note_on', channel=0, note=74, velocity=65, time=5),\n",
       "    Message('note_on', channel=0, note=69, velocity=0, time=40),\n",
       "    Message('note_on', channel=0, note=74, velocity=0, time=2),\n",
       "    Message('note_on', channel=0, note=77, velocity=0, time=15),\n",
       "    Message('note_on', channel=0, note=50, velocity=71, time=104),\n",
       "    Message('note_on', channel=0, note=50, velocity=0, time=36),\n",
       "    Message('note_on', channel=0, note=77, velocity=71, time=133),\n",
       "    Message('note_on', channel=0, note=69, velocity=55, time=14),\n",
       "    Message('note_on', channel=0, note=74, velocity=54, time=1),\n",
       "    Message('note_on', channel=0, note=69, velocity=0, time=20),\n",
       "    Message('note_on', channel=0, note=74, velocity=0, time=10),\n",
       "    Message('note_on', channel=0, note=77, velocity=0, time=23),\n",
       "    Message('control_change', channel=0, control=64, value=52, time=67),\n",
       "    Message('note_on', channel=0, note=46, velocity=82, time=10),\n",
       "    Message('note_on', channel=0, note=80, velocity=87, time=2),\n",
       "    Message('note_on', channel=0, note=74, velocity=74, time=2),\n",
       "    Message('note_on', channel=0, note=34, velocity=78, time=3),\n",
       "    Message('control_change', channel=0, control=64, value=81, time=1),\n",
       "    Message('control_change', channel=0, control=64, value=127, time=19),\n",
       "    Message('note_on', channel=0, note=34, velocity=0, time=14),\n",
       "    Message('note_on', channel=0, note=46, velocity=0, time=8),\n",
       "    Message('note_on', channel=0, note=74, velocity=0, time=22),\n",
       "    Message('note_on', channel=0, note=80, velocity=0, time=12),\n",
       "    Message('note_on', channel=0, note=80, velocity=75, time=93),\n",
       "    Message('note_on', channel=0, note=74, velocity=73, time=7),\n",
       "    Message('note_on', channel=0, note=74, velocity=0, time=34),\n",
       "    Message('note_on', channel=0, note=80, velocity=0, time=0),\n",
       "    Message('control_change', channel=0, control=64, value=104, time=30),\n",
       "    Message('control_change', channel=0, control=64, value=81, time=20),\n",
       "    Message('control_change', channel=0, control=64, value=59, time=18),\n",
       "    Message('control_change', channel=0, control=64, value=37, time=18),\n",
       "    Message('control_change', channel=0, control=64, value=8, time=18),\n",
       "    Message('note_on', channel=0, note=58, velocity=76, time=10),\n",
       "    Message('control_change', channel=0, control=64, value=0, time=8),\n",
       "    Message('note_on', channel=0, note=58, velocity=0, time=63),\n",
       "    Message('note_on', channel=0, note=80, velocity=74, time=79),\n",
       "    Message('note_on', channel=0, note=74, velocity=68, time=7),\n",
       "    Message('note_on', channel=0, note=74, velocity=0, time=69),\n",
       "    Message('note_on', channel=0, note=80, velocity=0, time=9),\n",
       "    Message('note_on', channel=0, note=46, velocity=66, time=92),\n",
       "    Message('note_on', channel=0, note=46, velocity=0, time=52),\n",
       "    Message('note_on', channel=0, note=80, velocity=70, time=95),\n",
       "    Message('note_on', channel=0, note=74, velocity=62, time=11),\n",
       "    Message('note_on', channel=0, note=74, velocity=0, time=46),\n",
       "    Message('control_change', channel=0, control=67, value=9, time=5),\n",
       "    Message('note_on', channel=0, note=80, velocity=0, time=20),\n",
       "    Message('control_change', channel=0, control=67, value=13, time=0),\n",
       "    Message('control_change', channel=0, control=67, value=20, time=20),\n",
       "    Message('control_change', channel=0, control=67, value=27, time=17),\n",
       "    Message('control_change', channel=0, control=67, value=33, time=19),\n",
       "    Message('control_change', channel=0, control=64, value=19, time=20),\n",
       "    Message('control_change', channel=0, control=67, value=40, time=2),\n",
       "    Message('note_on', channel=0, note=81, velocity=73, time=7),\n",
       "    Message('note_on', channel=0, note=45, velocity=69, time=3),\n",
       "    Message('note_on', channel=0, note=73, velocity=72, time=3),\n",
       "    Message('control_change', channel=0, control=64, value=48, time=4),\n",
       "    Message('control_change', channel=0, control=67, value=48, time=1),\n",
       "    Message('control_change', channel=0, control=64, value=68, time=16),\n",
       "    Message('control_change', channel=0, control=67, value=56, time=2),\n",
       "    Message('control_change', channel=0, control=64, value=85, time=16),\n",
       "    Message('control_change', channel=0, control=67, value=63, time=3),\n",
       "    Message('control_change', channel=0, control=64, value=110, time=16),\n",
       "    Message('control_change', channel=0, control=67, value=69, time=0),\n",
       "    Message('note_on', channel=0, note=81, velocity=0, time=10),\n",
       "    Message('note_on', channel=0, note=73, velocity=0, time=2),\n",
       "    Message('control_change', channel=0, control=64, value=127, time=5),\n",
       "    Message('control_change', channel=0, control=67, value=76, time=2),\n",
       "    Message('note_on', channel=0, note=45, velocity=0, time=9),\n",
       "    Message('control_change', channel=0, control=67, value=81, time=7),\n",
       "    Message('control_change', channel=0, control=67, value=86, time=18),\n",
       "    Message('control_change', channel=0, control=67, value=92, time=19),\n",
       "    Message('control_change', channel=0, control=67, value=98, time=20),\n",
       "    Message('note_on', channel=0, note=81, velocity=66, time=3),\n",
       "    Message('note_on', channel=0, note=77, velocity=70, time=11),\n",
       "    Message('control_change', channel=0, control=67, value=105, time=5),\n",
       "    Message('control_change', channel=0, control=67, value=113, time=17),\n",
       "    Message('control_change', channel=0, control=67, value=120, time=19),\n",
       "    Message('control_change', channel=0, control=67, value=127, time=18),\n",
       "    Message('control_change', channel=0, control=64, value=119, time=55),\n",
       "    Message('control_change', channel=0, control=64, value=105, time=18),\n",
       "    Message('note_on', channel=0, note=79, velocity=77, time=7),\n",
       "    Message('control_change', channel=0, control=64, value=89, time=12),\n",
       "    Message('note_on', channel=0, note=77, velocity=0, time=4),\n",
       "    Message('note_on', channel=0, note=76, velocity=70, time=1),\n",
       "    Message('control_change', channel=0, control=64, value=74, time=15),\n",
       "    Message('note_on', channel=0, note=81, velocity=0, time=11),\n",
       "    Message('control_change', channel=0, control=64, value=61, time=5),\n",
       "    Message('control_change', channel=0, control=64, value=51, time=18),\n",
       "    Message('control_change', channel=0, control=64, value=48, time=20),\n",
       "    Message('note_on', channel=0, note=77, velocity=77, time=63),\n",
       "    Message('control_change', channel=0, control=64, value=44, time=7),\n",
       "    Message('note_on', channel=0, note=74, velocity=78, time=7),\n",
       "    Message('control_change', channel=0, control=64, value=39, time=14),\n",
       "    Message('note_on', channel=0, note=79, velocity=0, time=7),\n",
       "    Message('note_on', channel=0, note=76, velocity=0, time=24),\n",
       "    Message('control_change', channel=0, control=64, value=33, time=1),\n",
       "    Message('control_change', channel=0, control=64, value=28, time=20),\n",
       "    Message('note_on', channel=0, note=77, velocity=0, time=9),\n",
       "    Message('control_change', channel=0, control=64, value=24, time=10),\n",
       "    Message('control_change', channel=0, control=64, value=20, time=18),\n",
       "    Message('note_on', channel=0, note=76, velocity=73, time=67),\n",
       "    Message('note_on', channel=0, note=73, velocity=68, time=7),\n",
       "    Message('note_on', channel=0, note=74, velocity=0, time=34),\n",
       "    Message('control_change', channel=0, control=64, value=16, time=21),\n",
       "    Message('control_change', channel=0, control=64, value=10, time=74),\n",
       "    Message('note_on', channel=0, note=76, velocity=0, time=15),\n",
       "    Message('control_change', channel=0, control=64, value=0, time=3),\n",
       "    Message('note_on', channel=0, note=77, velocity=67, time=1),\n",
       "    Message('note_on', channel=0, note=68, velocity=60, time=8),\n",
       "    Message('note_on', channel=0, note=73, velocity=0, time=2),\n",
       "    Message('note_on', channel=0, note=74, velocity=70, time=6),\n",
       "    Message('note_on', channel=0, note=74, velocity=0, time=103),\n",
       "    Message('control_change', channel=0, control=64, value=26, time=26),\n",
       "    Message('control_change', channel=0, control=64, value=52, time=19),\n",
       "    Message('note_on', channel=0, note=76, velocity=68, time=0),\n",
       "    Message('note_on', channel=0, note=68, velocity=0, time=1),\n",
       "    Message('note_on', channel=0, note=73, velocity=67, time=4),\n",
       "    Message('note_on', channel=0, note=69, velocity=63, time=13),\n",
       "    Message('control_change', channel=0, control=64, value=69, time=0),\n",
       "    Message('note_on', channel=0, note=77, velocity=0, time=3),\n",
       "    Message('note_on', channel=0, note=76, velocity=0, time=14),\n",
       "    Message('control_change', channel=0, control=64, value=82, time=3),\n",
       "    Message('note_on', channel=0, note=69, velocity=0, time=10),\n",
       "    Message('note_on', channel=0, note=73, velocity=0, time=6),\n",
       "    Message('control_change', channel=0, control=64, value=100, time=1),\n",
       "    Message('control_change', channel=0, control=64, value=123, time=20),\n",
       "    Message('control_change', channel=0, control=64, value=127, time=17),\n",
       "    Message('note_on', channel=0, note=69, velocity=64, time=68),\n",
       "    Message('note_on', channel=0, note=65, velocity=78, time=11),\n",
       "    Message('control_change', channel=0, control=64, value=105, time=49),\n",
       "    Message('control_change', channel=0, control=64, value=83, time=19),\n",
       "    Message('control_change', channel=0, control=64, value=64, time=20),\n",
       "    Message('control_change', channel=0, control=64, value=48, time=17),\n",
       "    Message('control_change', channel=0, control=64, value=39, time=20),\n",
       "    Message('control_change', channel=0, control=64, value=33, time=18),\n",
       "    Message('note_on', channel=0, note=67, velocity=72, time=10),\n",
       "    Message('note_on', channel=0, note=64, velocity=73, time=8),\n",
       "    Message('note_on', channel=0, note=65, velocity=0, time=11),\n",
       "    Message('note_on', channel=0, note=69, velocity=0, time=25),\n",
       "    Message('control_change', channel=0, control=64, value=29, time=1),\n",
       "    Message('control_change', channel=0, control=64, value=22, time=21),\n",
       "    Message('control_change', channel=0, control=64, value=12, time=18),\n",
       "    Message('control_change', channel=0, control=64, value=0, time=8),\n",
       "    Message('note_on', channel=0, note=65, velocity=75, time=49),\n",
       "    Message('note_on', channel=0, note=62, velocity=73, time=32),\n",
       "    Message('note_on', channel=0, note=67, velocity=0, time=15),\n",
       "    Message('note_on', channel=0, note=64, velocity=0, time=12),\n",
       "    Message('note_on', channel=0, note=65, velocity=0, time=29),\n",
       "    Message('note_on', channel=0, note=64, velocity=73, time=92),\n",
       "    Message('note_on', channel=0, note=61, velocity=67, time=13),\n",
       "    Message('note_on', channel=0, note=62, velocity=0, time=2),\n",
       "    Message('note_on', channel=0, note=56, velocity=58, time=138),\n",
       "    Message('note_on', channel=0, note=65, velocity=67, time=5),\n",
       "    Message('note_on', channel=0, note=64, velocity=0, time=1),\n",
       "    Message('note_on', channel=0, note=62, velocity=62, time=11),\n",
       "    Message('note_on', channel=0, note=61, velocity=0, time=6),\n",
       "    Message('note_on', channel=0, note=56, velocity=0, time=143),\n",
       "    Message('note_on', channel=0, note=61, velocity=67, time=1),\n",
       "    Message('note_on', channel=0, note=64, velocity=63, time=0),\n",
       "    Message('note_on', channel=0, note=57, velocity=53, time=4),\n",
       "    Message('note_on', channel=0, note=62, velocity=0, time=4),\n",
       "    Message('note_on', channel=0, note=65, velocity=0, time=15),\n",
       "    Message('note_on', channel=0, note=57, velocity=0, time=120),\n",
       "    Message('note_on', channel=0, note=64, velocity=0, time=18),\n",
       "    Message('note_on', channel=0, note=56, velocity=56, time=0),\n",
       "    Message('note_on', channel=0, note=62, velocity=60, time=2),\n",
       "    Message('note_on', channel=0, note=65, velocity=63, time=1),\n",
       "    Message('note_on', channel=0, note=61, velocity=0, time=5),\n",
       "    Message('note_on', channel=0, note=62, velocity=0, time=152),\n",
       "    Message('note_on', channel=0, note=64, velocity=62, time=2),\n",
       "    Message('note_on', channel=0, note=61, velocity=59, time=1),\n",
       "    Message('note_on', channel=0, note=56, velocity=0, time=0),\n",
       "    Message('note_on', channel=0, note=57, velocity=51, time=11),\n",
       "    Message('note_on', channel=0, note=65, velocity=0, time=1),\n",
       "    Message('note_on', channel=0, note=64, velocity=0, time=143),\n",
       "    Message('note_on', channel=0, note=57, velocity=0, time=10),\n",
       "    Message('note_on', channel=0, note=61, velocity=0, time=3),\n",
       "    Message('note_on', channel=0, note=62, velocity=55, time=5),\n",
       "    Message('note_on', channel=0, note=65, velocity=55, time=6),\n",
       "    Message('note_on', channel=0, note=56, velocity=53, time=2),\n",
       "    Message('note_on', channel=0, note=56, velocity=0, time=149),\n",
       "    Message('note_on', channel=0, note=62, velocity=0, time=1),\n",
       "    Message('note_on', channel=0, note=64, velocity=57, time=6),\n",
       "    Message('note_on', channel=0, note=61, velocity=52, time=5),\n",
       "    Message('note_on', channel=0, note=65, velocity=0, time=0),\n",
       "    Message('note_on', channel=0, note=57, velocity=39, time=18),\n",
       "    Message('note_on', channel=0, note=57, velocity=0, time=115),\n",
       "    Message('note_on', channel=0, note=64, velocity=0, time=0),\n",
       "    Message('note_on', channel=0, note=61, velocity=0, time=2),\n",
       "    Message('note_on', channel=0, note=65, velocity=52, time=19),\n",
       "    Message('note_on', channel=0, note=62, velocity=47, time=12),\n",
       "    Message('note_on', channel=0, note=56, velocity=44, time=2),\n",
       "    Message('note_on', channel=0, note=62, velocity=0, time=174),\n",
       "    Message('note_on', channel=0, note=56, velocity=0, time=5),\n",
       "    Message('note_on', channel=0, note=65, velocity=0, time=3),\n",
       "    Message('note_on', channel=0, note=61, velocity=45, time=2),\n",
       "    Message('note_on', channel=0, note=64, velocity=51, time=1),\n",
       "    Message('note_on', channel=0, note=57, velocity=36, time=33),\n",
       "    Message('note_on', channel=0, note=57, velocity=0, time=192),\n",
       "    Message('note_on', channel=0, note=64, velocity=0, time=0),\n",
       "    Message('note_on', channel=0, note=61, velocity=0, time=14),\n",
       "    Message('note_on', channel=0, note=64, velocity=53, time=696),\n",
       "    Message('note_on', channel=0, note=60, velocity=45, time=16),\n",
       "    Message('note_on', channel=0, note=57, velocity=42, time=6),\n",
       "    Message('note_on', channel=0, note=57, velocity=0, time=106),\n",
       "    Message('note_on', channel=0, note=60, velocity=0, time=26),\n",
       "    Message('note_on', channel=0, note=56, velocity=51, time=4),\n",
       "    Message('note_on', channel=0, note=65, velocity=51, time=10),\n",
       "    Message('note_on', channel=0, note=62, velocity=49, time=6),\n",
       "    Message('note_on', channel=0, note=64, velocity=0, time=7),\n",
       "    Message('note_on', channel=0, note=56, velocity=0, time=140),\n",
       "    Message('note_on', channel=0, note=64, velocity=64, time=11),\n",
       "    Message('note_on', channel=0, note=60, velocity=45, time=7),\n",
       "    Message('note_on', channel=0, note=57, velocity=42, time=3),\n",
       "    Message('note_on', channel=0, note=62, velocity=0, time=2),\n",
       "    Message('note_on', channel=0, note=65, velocity=0, time=10),\n",
       "    Message('note_on', channel=0, note=57, velocity=0, time=131),\n",
       "    Message('note_on', channel=0, note=56, velocity=58, time=13),\n",
       "    Message('note_on', channel=0, note=60, velocity=0, time=2),\n",
       "    Message('note_on', channel=0, note=64, velocity=0, time=0),\n",
       "    Message('note_on', channel=0, note=65, velocity=62, time=7),\n",
       "    Message('note_on', channel=0, note=62, velocity=56, time=8),\n",
       "    Message('note_on', channel=0, note=56, velocity=0, time=143),\n",
       "    Message('note_on', channel=0, note=64, velocity=58, time=8),\n",
       "    Message('note_on', channel=0, note=60, velocity=48, time=8),\n",
       "    Message('note_on', channel=0, note=65, velocity=0, time=4),\n",
       "    Message('note_on', channel=0, note=57, velocity=46, time=4),\n",
       "    Message('note_on', channel=0, note=62, velocity=0, time=1),\n",
       "    Message('note_on', channel=0, note=57, velocity=0, time=141),\n",
       "    Message('note_on', channel=0, note=64, velocity=0, time=0),\n",
       "    Message('note_on', channel=0, note=56, velocity=51, time=9),\n",
       "    Message('note_on', channel=0, note=60, velocity=0, time=2),\n",
       "    Message('note_on', channel=0, note=65, velocity=57, time=1),\n",
       "    Message('note_on', channel=0, note=62, velocity=51, time=11),\n",
       "    Message('note_on', channel=0, note=56, velocity=0, time=172),\n",
       "    Message('note_on', channel=0, note=65, velocity=0, time=22),\n",
       "    Message('note_on', channel=0, note=64, velocity=54, time=3),\n",
       "    Message('note_on', channel=0, note=60, velocity=34, time=16),\n",
       "    Message('note_on', channel=0, note=62, velocity=0, time=4),\n",
       "    Message('note_on', channel=0, note=57, velocity=39, time=12),\n",
       "    Message('note_on', channel=0, note=57, velocity=0, time=234),\n",
       "    Message('note_on', channel=0, note=64, velocity=0, time=7),\n",
       "    Message('note_on', channel=0, note=60, velocity=0, time=4),\n",
       "    Message('control_change', channel=0, control=67, value=86, time=319),\n",
       "    Message('control_change', channel=0, control=67, value=29, time=18),\n",
       "    Message('control_change', channel=0, control=67, value=0, time=18),\n",
       "    Message('note_on', channel=0, note=64, velocity=76, time=295),\n",
       "    Message('note_on', channel=0, note=58, velocity=70, time=9),\n",
       "    Message('note_on', channel=0, note=60, velocity=68, time=8),\n",
       "    Message('note_on', channel=0, note=55, velocity=62, time=4),\n",
       "    Message('note_on', channel=0, note=65, velocity=78, time=146),\n",
       "    Message('note_on', channel=0, note=57, velocity=60, time=7),\n",
       "    Message('note_on', channel=0, note=55, velocity=0, time=2),\n",
       "    Message('note_on', channel=0, note=64, velocity=0, time=37),\n",
       "    Message('note_on', channel=0, note=55, velocity=65, time=135),\n",
       "    Message('note_on', channel=0, note=64, velocity=79, time=1),\n",
       "    Message('note_on', channel=0, note=57, velocity=0, time=2),\n",
       "    Message('note_on', channel=0, note=65, velocity=0, time=40),\n",
       "    Message('note_on', channel=0, note=57, velocity=64, time=109),\n",
       "    Message('note_on', channel=0, note=55, velocity=0, time=5),\n",
       "    Message('note_on', channel=0, note=65, velocity=78, time=6),\n",
       "    Message('note_on', channel=0, note=64, velocity=0, time=23),\n",
       "    Message('note_on', channel=0, note=64, velocity=73, time=135),\n",
       "    Message('note_on', channel=0, note=55, velocity=60, time=2),\n",
       "    Message('note_on', channel=0, note=57, velocity=0, time=1),\n",
       "    Message('note_on', channel=0, note=65, velocity=0, time=27),\n",
       "    Message('note_on', channel=0, note=65, velocity=71, time=138),\n",
       "    Message('note_on', channel=0, note=57, velocity=59, time=8),\n",
       "    Message('note_on', channel=0, note=55, velocity=0, time=1),\n",
       "    Message('note_on', channel=0, note=64, velocity=0, time=6),\n",
       "    Message('note_on', channel=0, note=64, velocity=61, time=190),\n",
       "    Message('note_on', channel=0, note=57, velocity=0, time=5),\n",
       "    Message('note_on', channel=0, note=65, velocity=0, time=1),\n",
       "    Message('note_on', channel=0, note=55, velocity=52, time=3),\n",
       "    Message('control_change', channel=0, control=64, value=26, time=194),\n",
       "    Message('control_change', channel=0, control=64, value=50, time=20),\n",
       "    Message('control_change', channel=0, control=64, value=66, time=17),\n",
       "    Message('control_change', channel=0, control=64, value=80, time=18),\n",
       "    Message('control_change', channel=0, control=64, value=100, time=19),\n",
       "    Message('note_on', channel=0, note=55, velocity=0, time=11),\n",
       "    Message('control_change', channel=0, control=64, value=127, time=7),\n",
       "    Message('note_on', channel=0, note=58, velocity=0, time=6),\n",
       "    Message('note_on', channel=0, note=64, velocity=0, time=5),\n",
       "    Message('control_change', channel=0, control=67, value=11, time=7),\n",
       "    Message('note_on', channel=0, note=60, velocity=0, time=7),\n",
       "    Message('control_change', channel=0, control=67, value=19, time=10),\n",
       "    Message('control_change', channel=0, control=67, value=27, time=20),\n",
       "    Message('control_change', channel=0, control=67, value=38, time=18),\n",
       "    Message('control_change', channel=0, control=67, value=52, time=18),\n",
       "    Message('control_change', channel=0, control=64, value=114, time=21),\n",
       "    Message('control_change', channel=0, control=67, value=72, time=1),\n",
       "    Message('control_change', channel=0, control=64, value=101, time=17),\n",
       "    Message('control_change', channel=0, control=67, value=95, time=1),\n",
       "    Message('control_change', channel=0, control=64, value=86, time=17),\n",
       "    Message('control_change', channel=0, control=67, value=120, time=1),\n",
       "    Message('control_change', channel=0, control=64, value=72, time=18),\n",
       "    Message('control_change', channel=0, control=67, value=127, time=3),\n",
       "    Message('control_change', channel=0, control=64, value=59, time=14),\n",
       "    Message('control_change', channel=0, control=64, value=50, time=19),\n",
       "    Message('control_change', channel=0, control=64, value=46, time=18),\n",
       "    Message('control_change', channel=0, control=64, value=44, time=18),\n",
       "    Message('control_change', channel=0, control=64, value=40, time=36),\n",
       "    Message('control_change', channel=0, control=64, value=32, time=37),\n",
       "    Message('control_change', channel=0, control=64, value=26, time=20),\n",
       "    Message('control_change', channel=0, control=64, value=21, time=37),\n",
       "    Message('control_change', channel=0, control=64, value=15, time=109),\n",
       "    Message('control_change', channel=0, control=64, value=10, time=37),\n",
       "    Message('control_change', channel=0, control=64, value=0, time=56),\n",
       "    Message('note_on', channel=0, note=82, velocity=61, time=297),\n",
       "    Message('note_on', channel=0, note=60, velocity=48, time=25),\n",
       "    Message('note_on', channel=0, note=76, velocity=48, time=0),\n",
       "    Message('note_on', channel=0, note=67, velocity=44, time=12),\n",
       "    Message('note_on', channel=0, note=81, velocity=64, time=123),\n",
       "    Message('note_on', channel=0, note=67, velocity=0, time=0),\n",
       "    Message('note_on', channel=0, note=82, velocity=0, time=3),\n",
       "    Message('note_on', channel=0, note=66, velocity=53, time=12),\n",
       "    Message('note_on', channel=0, note=82, velocity=59, time=151),\n",
       "    Message('note_on', channel=0, note=66, velocity=0, time=4),\n",
       "    Message('note_on', channel=0, note=81, velocity=0, time=7),\n",
       "    Message('note_on', channel=0, note=67, velocity=47, time=2),\n",
       "    Message('note_on', channel=0, note=67, velocity=0, time=137),\n",
       "    Message('note_on', channel=0, note=81, velocity=64, time=12),\n",
       "    Message('note_on', channel=0, note=82, velocity=0, time=4),\n",
       "    Message('note_on', channel=0, note=66, velocity=50, time=13),\n",
       "    Message('note_on', channel=0, note=66, velocity=0, time=151),\n",
       "    Message('note_on', channel=0, note=81, velocity=0, time=11),\n",
       "    Message('note_on', channel=0, note=67, velocity=41, time=5),\n",
       "    Message('note_on', channel=0, note=82, velocity=50, time=10),\n",
       "    Message('note_on', channel=0, note=67, velocity=0, time=136),\n",
       "    Message('note_on', channel=0, note=81, velocity=54, time=22),\n",
       "    Message('note_on', channel=0, note=82, velocity=0, time=1),\n",
       "    Message('note_on', channel=0, note=66, velocity=44, time=3),\n",
       "    Message('note_on', channel=0, note=66, velocity=0, time=196),\n",
       "    Message('note_on', channel=0, note=81, velocity=0, time=32),\n",
       "    Message('note_on', channel=0, note=82, velocity=44, time=3),\n",
       "    Message('note_on', channel=0, note=67, velocity=34, time=14),\n",
       "    Message('note_on', channel=0, note=60, velocity=0, time=302),\n",
       "    Message('polytouch', channel=0, note=76, value=24, time=11),\n",
       "    Message('note_on', channel=0, note=67, velocity=0, time=8),\n",
       "    Message('note_on', channel=0, note=76, velocity=0, time=4),\n",
       "    Message('note_on', channel=0, note=82, velocity=0, time=22),\n",
       "    Message('note_on', channel=0, note=65, velocity=58, time=860),\n",
       "    Message('note_on', channel=0, note=53, velocity=41, time=24),\n",
       "    Message('note_on', channel=0, note=57, velocity=46, time=154),\n",
       "    Message('note_on', channel=0, note=53, velocity=0, time=13),\n",
       "    Message('note_on', channel=0, note=57, velocity=0, time=138),\n",
       "    Message('note_on', channel=0, note=60, velocity=49, time=9),\n",
       "    Message('note_on', channel=0, note=60, velocity=0, time=173),\n",
       "    Message('note_on', channel=0, note=57, velocity=54, time=4),\n",
       "    Message('note_on', channel=0, note=57, velocity=0, time=141),\n",
       "    Message('note_on', channel=0, note=69, velocity=67, time=18),\n",
       "    Message('note_on', channel=0, note=60, velocity=53, time=2),\n",
       "    Message('note_on', channel=0, note=65, velocity=0, time=68),\n",
       "    Message('note_on', channel=0, note=60, velocity=0, time=70),\n",
       "    Message('note_on', channel=0, note=57, velocity=60, time=4),\n",
       "    Message('note_on', channel=0, note=69, velocity=0, time=116),\n",
       "    Message('note_on', channel=0, note=57, velocity=0, time=13),\n",
       "    Message('note_on', channel=0, note=72, velocity=66, time=44),\n",
       "    Message('note_on', channel=0, note=53, velocity=40, time=29),\n",
       "    Message('note_on', channel=0, note=60, velocity=55, time=153),\n",
       "    Message('note_on', channel=0, note=53, velocity=0, time=10),\n",
       "    Message('note_on', channel=0, note=60, velocity=0, time=151),\n",
       "    Message('note_on', channel=0, note=63, velocity=59, time=8),\n",
       "    Message('note_on', channel=0, note=63, velocity=0, time=119),\n",
       "    Message('note_on', channel=0, note=60, velocity=60, time=45),\n",
       "    Message('note_on', channel=0, note=69, velocity=77, time=155),\n",
       "    Message('note_on', channel=0, note=63, velocity=48, time=3),\n",
       "    Message('note_on', channel=0, note=60, velocity=0, time=5),\n",
       "    Message('note_on', channel=0, note=72, velocity=0, time=106),\n",
       "    Message('note_on', channel=0, note=63, velocity=0, time=24),\n",
       "    Message('note_on', channel=0, note=60, velocity=62, time=15),\n",
       "    Message('note_on', channel=0, note=69, velocity=0, time=89),\n",
       "    Message('note_on', channel=0, note=60, velocity=0, time=77),\n",
       "    Message('note_on', channel=0, note=70, velocity=72, time=2),\n",
       "    Message('note_on', channel=0, note=53, velocity=53, time=13),\n",
       "    Message('note_on', channel=0, note=58, velocity=57, time=154),\n",
       "    Message('note_on', channel=0, note=53, velocity=0, time=11),\n",
       "    Message('note_on', channel=0, note=58, velocity=0, time=142),\n",
       "    Message('note_on', channel=0, note=62, velocity=55, time=13),\n",
       "    Message('note_on', channel=0, note=62, velocity=0, time=160),\n",
       "    Message('note_on', channel=0, note=58, velocity=58, time=1),\n",
       "    Message('note_on', channel=0, note=79, velocity=71, time=163),\n",
       "    Message('note_on', channel=0, note=62, velocity=54, time=10),\n",
       "    Message('note_on', channel=0, note=58, velocity=0, time=12),\n",
       "    Message('note_on', channel=0, note=70, velocity=0, time=42),\n",
       "    Message('note_on', channel=0, note=58, velocity=62, time=104),\n",
       "    Message('note_on', channel=0, note=62, velocity=0, time=1),\n",
       "    Message('note_on', channel=0, note=79, velocity=0, time=74),\n",
       "    Message('note_on', channel=0, note=77, velocity=73, time=70),\n",
       "    Message('note_on', channel=0, note=58, velocity=0, time=1),\n",
       "    Message('note_on', channel=0, note=53, velocity=55, time=13),\n",
       "    Message('note_on', channel=0, note=76, velocity=73, time=133),\n",
       "    Message('note_on', channel=0, note=55, velocity=56, time=9),\n",
       "    Message('note_on', channel=0, note=77, velocity=0, time=6),\n",
       "    Message('note_on', channel=0, note=53, velocity=0, time=17),\n",
       "    Message('note_on', channel=0, note=76, velocity=0, time=50),\n",
       "    Message('note_on', channel=0, note=55, velocity=0, time=61),\n",
       "    Message('note_on', channel=0, note=76, velocity=71, time=36),\n",
       "    Message('note_on', channel=0, note=58, velocity=55, time=6),\n",
       "    Message('note_on', channel=0, note=58, velocity=0, time=123),\n",
       "    Message('note_on', channel=0, note=55, velocity=55, time=20),\n",
       "    Message('note_on', channel=0, note=55, velocity=0, time=155),\n",
       "    Message('note_on', channel=0, note=58, velocity=58, time=8),\n",
       "    Message('control_change', channel=0, control=64, value=17, time=1),\n",
       "    Message('control_change', channel=0, control=64, value=45, time=20),\n",
       "    Message('note_on', channel=0, note=76, velocity=0, time=11),\n",
       "    Message('control_change', channel=0, control=64, value=62, time=5),\n",
       "    Message('control_change', channel=0, control=64, value=71, time=21),\n",
       "    Message('control_change', channel=0, control=64, value=80, time=17),\n",
       "    Message('control_change', channel=0, control=64, value=90, time=19),\n",
       "    Message('control_change', channel=0, control=64, value=97, time=18),\n",
       "    Message('note_on', channel=0, note=58, velocity=0, time=31),\n",
       "    Message('note_on', channel=0, note=55, velocity=64, time=10),\n",
       "    Message('control_change', channel=0, control=64, value=93, time=52),\n",
       "    Message('control_change', channel=0, control=64, value=87, time=18),\n",
       "    Message('control_change', channel=0, control=64, value=78, time=17),\n",
       "    Message('note_on', channel=0, note=55, velocity=0, time=17),\n",
       "    Message('control_change', channel=0, control=64, value=67, time=2),\n",
       "    Message('control_change', channel=0, control=64, value=55, time=20),\n",
       "    Message('control_change', channel=0, control=64, value=44, time=16),\n",
       "    Message('control_change', channel=0, control=64, value=34, time=19),\n",
       "    Message('control_change', channel=0, control=64, value=21, time=18),\n",
       "    Message('note_on', channel=0, note=77, velocity=71, time=5),\n",
       "    Message('note_on', channel=0, note=57, velocity=58, time=21),\n",
       "    Message('control_change', channel=0, control=64, value=0, time=12),\n",
       "    Message('note_on', channel=0, note=53, velocity=49, time=3),\n",
       "    Message('note_on', channel=0, note=69, velocity=68, time=303),\n",
       "    Message('note_on', channel=0, note=77, velocity=0, time=63),\n",
       "    Message('note_on', channel=0, note=57, velocity=0, time=184),\n",
       "    Message('note_on', channel=0, note=53, velocity=0, time=14),\n",
       "    Message('note_on', channel=0, note=74, velocity=71, time=62),\n",
       "    Message('note_on', channel=0, note=69, velocity=0, time=61),\n",
       "    Message('note_on', channel=0, note=67, velocity=64, time=260),\n",
       "    Message('note_on', channel=0, note=74, velocity=0, time=60),\n",
       "    Message('note_on', channel=0, note=72, velocity=62, time=311),\n",
       "    Message('note_on', channel=0, note=67, velocity=0, time=76),\n",
       "    Message('note_on', channel=0, note=69, velocity=71, time=354),\n",
       "    Message('note_on', channel=0, note=72, velocity=0, time=64),\n",
       "    Message('note_on', channel=0, note=69, velocity=0, time=61),\n",
       "    Message('note_on', channel=0, note=65, velocity=72, time=60),\n",
       "    Message('note_on', channel=0, note=53, velocity=61, time=17),\n",
       "    Message('note_on', channel=0, note=45, velocity=68, time=338),\n",
       "    Message('note_on', channel=0, note=53, velocity=0, time=27),\n",
       "    Message('note_on', channel=0, note=50, velocity=66, time=290),\n",
       "    Message('note_on', channel=0, note=45, velocity=0, time=73),\n",
       "    Message('note_on', channel=0, note=67, velocity=68, time=256),\n",
       "    Message('note_on', channel=0, note=43, velocity=62, time=13),\n",
       "    Message('note_on', channel=0, note=50, velocity=0, time=79),\n",
       "    Message('note_on', channel=0, note=65, velocity=0, time=8),\n",
       "    Message('note_on', channel=0, note=64, velocity=66, time=117),\n",
       "    Message('note_on', channel=0, note=65, velocity=63, time=43),\n",
       "    Message('note_on', channel=0, note=64, velocity=0, time=3),\n",
       "    Message('note_on', channel=0, note=48, velocity=64, time=71),\n",
       "    Message('note_on', channel=0, note=64, velocity=68, time=8),\n",
       "    Message('note_on', channel=0, note=65, velocity=0, time=6),\n",
       "    Message('note_on', channel=0, note=43, velocity=0, time=18),\n",
       "    Message('note_on', channel=0, note=64, velocity=0, time=107),\n",
       "    Message('note_on', channel=0, note=62, velocity=66, time=29),\n",
       "    Message('note_on', channel=0, note=64, velocity=65, time=161),\n",
       "    Message('control_change', channel=0, control=64, value=11, time=18),\n",
       "    Message('control_change', channel=0, control=64, value=45, time=19),\n",
       "    Message('note_on', channel=0, note=62, velocity=0, time=3),\n",
       "    Message('control_change', channel=0, control=64, value=65, time=16),\n",
       "    Message('control_change', channel=0, control=64, value=78, time=17),\n",
       "    Message('note_on', channel=0, note=67, velocity=0, time=6),\n",
       "    Message('note_on', channel=0, note=64, velocity=0, time=3),\n",
       "    Message('control_change', channel=0, control=64, value=95, time=9),\n",
       "    Message('control_change', channel=0, control=64, value=120, time=20),\n",
       "    Message('control_change', channel=0, control=64, value=127, time=18),\n",
       "    Message('note_on', channel=0, note=48, velocity=0, time=1),\n",
       "    Message('note_on', channel=0, note=45, velocity=74, time=16),\n",
       "    Message('control_change', channel=0, control=64, value=111, time=74),\n",
       "    Message('control_change', channel=0, control=64, value=90, time=19),\n",
       "    Message('control_change', channel=0, control=64, value=69, time=20),\n",
       "    Message('control_change', channel=0, control=64, value=47, time=19),\n",
       "    Message('note_on', channel=0, note=45, velocity=0, time=0),\n",
       "    Message('control_change', channel=0, control=64, value=21, time=17),\n",
       "    Message('control_change', channel=0, control=64, value=0, time=16),\n",
       "    Message('note_on', channel=0, note=69, velocity=76, time=13),\n",
       "    Message('note_on', channel=0, note=41, velocity=66, time=21),\n",
       "    Message('note_on', channel=0, note=65, velocity=63, time=2),\n",
       "    Message('note_on', channel=0, note=70, velocity=72, time=325),\n",
       "    Message('note_on', channel=0, note=50, velocity=56, time=16),\n",
       "    Message('note_on', channel=0, note=69, velocity=0, time=57),\n",
       "    Message('note_on', channel=0, note=41, velocity=0, time=17),\n",
       "    Message('note_on', channel=0, note=74, velocity=70, time=233),\n",
       "    Message('note_on', channel=0, note=50, velocity=0, time=10),\n",
       "    Message('note_on', channel=0, note=46, velocity=53, time=3),\n",
       "    Message('note_on', channel=0, note=70, velocity=0, time=27),\n",
       "    Message('control_change', channel=0, control=64, value=25, time=84),\n",
       "    Message('control_change', channel=0, control=64, value=54, time=18),\n",
       "    Message('control_change', channel=0, control=64, value=68, time=19),\n",
       "    Message('control_change', channel=0, control=64, value=78, time=18),\n",
       "    Message('note_on', channel=0, note=74, velocity=0, time=8),\n",
       "    Message('control_change', channel=0, control=64, value=89, time=12),\n",
       "    Message('control_change', channel=0, control=64, value=98, time=18),\n",
       "    Message('note_on', channel=0, note=46, velocity=0, time=58),\n",
       "    Message('control_change', channel=0, control=64, value=94, time=15),\n",
       "    Message('note_on', channel=0, note=74, velocity=68, time=15),\n",
       "    Message('control_change', channel=0, control=64, value=80, time=2),\n",
       "    Message('note_on', channel=0, note=45, velocity=58, time=28),\n",
       "    Message('control_change', channel=0, control=64, value=63, time=6),\n",
       "    Message('control_change', channel=0, control=64, value=42, time=18),\n",
       "    Message('control_change', channel=0, control=64, value=20, time=18),\n",
       "    Message('control_change', channel=0, control=64, value=0, time=19),\n",
       "    Message('note_on', channel=0, note=72, velocity=70, time=81),\n",
       "    Message('note_on', channel=0, note=74, velocity=0, time=60),\n",
       "    Message('note_on', channel=0, note=45, velocity=0, time=8),\n",
       "    Message('note_on', channel=0, note=65, velocity=0, time=23),\n",
       "    Message('note_on', channel=0, note=70, velocity=72, time=60),\n",
       "    Message('note_on', channel=0, note=72, velocity=0, time=55),\n",
       "    Message('note_on', channel=0, note=69, velocity=71, time=89),\n",
       "    Message('note_on', channel=0, note=70, velocity=0, time=52),\n",
       "    Message('note_on', channel=0, note=50, velocity=54, time=102),\n",
       "    Message('note_on', channel=0, note=67, velocity=67, time=1),\n",
       "    Message('note_on', channel=0, note=69, velocity=0, time=9),\n",
       "    Message('note_on', channel=0, note=50, velocity=0, time=114),\n",
       "    Message('note_on', channel=0, note=65, velocity=68, time=17),\n",
       "    Message('note_on', channel=0, note=67, velocity=0, time=35),\n",
       "    Message('note_on', channel=0, note=65, velocity=0, time=66),\n",
       "    Message('note_on', channel=0, note=67, velocity=65, time=101),\n",
       "    Message('note_on', channel=0, note=46, velocity=52, time=23),\n",
       "    Message('note_on', channel=0, note=46, velocity=0, time=276),\n",
       "    Message('note_on', channel=0, note=70, velocity=63, time=59),\n",
       "    Message('note_on', channel=0, note=67, velocity=0, time=35),\n",
       "    Message('note_on', channel=0, note=70, velocity=0, time=48),\n",
       "    Message('note_on', channel=0, note=64, velocity=59, time=234),\n",
       "    Message('note_on', channel=0, note=58, velocity=57, time=14),\n",
       "    Message('note_on', channel=0, note=48, velocity=49, time=5),\n",
       "    Message('note_on', channel=0, note=58, velocity=0, time=59),\n",
       "    Message('note_on', channel=0, note=64, velocity=0, time=8),\n",
       "    Message('note_on', channel=0, note=48, velocity=0, time=5),\n",
       "    Message('note_on', channel=0, note=65, velocity=55, time=309),\n",
       "    Message('note_on', channel=0, note=57, velocity=40, time=37),\n",
       "    Message('control_change', channel=0, control=64, value=18, time=0),\n",
       "    Message('note_on', channel=0, note=41, velocity=48, time=13),\n",
       "    Message('control_change', channel=0, control=64, value=39, time=4),\n",
       "    Message('control_change', channel=0, control=64, value=55, time=20),\n",
       "    Message('control_change', channel=0, control=64, value=65, time=18),\n",
       "    Message('control_change', channel=0, control=64, value=72, time=17),\n",
       "    Message('control_change', channel=0, control=64, value=79, time=19),\n",
       "    Message('note_on', channel=0, note=65, velocity=0, time=7),\n",
       "    Message('note_on', channel=0, note=57, velocity=0, time=8),\n",
       "    Message('control_change', channel=0, control=64, value=90, time=1),\n",
       "    Message('note_on', channel=0, note=41, velocity=0, time=9),\n",
       "    Message('control_change', channel=0, control=64, value=101, time=12),\n",
       "    Message('control_change', channel=0, control=64, value=116, time=18),\n",
       "    Message('control_change', channel=0, control=64, value=127, time=19),\n",
       "    Message('control_change', channel=0, control=64, value=113, time=293),\n",
       "    Message('control_change', channel=0, control=64, value=100, time=19),\n",
       "    Message('control_change', channel=0, control=64, value=87, time=20),\n",
       "    Message('control_change', channel=0, control=64, value=73, time=17),\n",
       "    Message('control_change', channel=0, control=64, value=60, time=18),\n",
       "    Message('control_change', channel=0, control=64, value=49, time=18),\n",
       "    Message('control_change', channel=0, control=64, value=41, time=20),\n",
       "    Message('control_change', channel=0, control=64, value=35, time=17),\n",
       "    Message('control_change', channel=0, control=64, value=31, time=20),\n",
       "    Message('control_change', channel=0, control=64, value=25, time=19),\n",
       "    Message('note_on', channel=0, note=84, velocity=76, time=16),\n",
       "    Message('control_change', channel=0, control=64, value=15, time=1),\n",
       "    Message('note_on', channel=0, note=72, velocity=66, time=12),\n",
       "    Message('note_on', channel=0, note=69, velocity=61, time=4),\n",
       "    Message('control_change', channel=0, control=64, value=0, time=2),\n",
       "    Message('note_on', channel=0, note=72, velocity=0, time=100),\n",
       "    Message('note_on', channel=0, note=69, velocity=0, time=1),\n",
       "    Message('note_on', channel=0, note=84, velocity=0, time=9),\n",
       "    Message('note_on', channel=0, note=82, velocity=80, time=95),\n",
       "    Message('note_on', channel=0, note=70, velocity=66, time=3),\n",
       "    Message('note_on', channel=0, note=67, velocity=64, time=8),\n",
       "    Message('note_on', channel=0, note=70, velocity=0, time=26),\n",
       "    Message('note_on', channel=0, note=82, velocity=0, time=19),\n",
       "    Message('note_on', channel=0, note=67, velocity=0, time=40),\n",
       "    Message('note_on', channel=0, note=81, velocity=81, time=1),\n",
       "    Message('note_on', channel=0, note=69, velocity=69, time=1),\n",
       "    Message('note_on', channel=0, note=65, velocity=50, time=16),\n",
       "    Message('note_on', channel=0, note=69, velocity=0, time=15),\n",
       "    Message('note_on', channel=0, note=65, velocity=0, time=12),\n",
       "    Message('note_on', channel=0, note=81, velocity=0, time=2),\n",
       "    Message('note_on', channel=0, note=81, velocity=81, time=260),\n",
       "    Message('note_on', channel=0, note=69, velocity=71, time=11),\n",
       "    Message('note_on', channel=0, note=65, velocity=63, time=5),\n",
       "    Message('note_on', channel=0, note=69, velocity=0, time=32),\n",
       "    Message('note_on', channel=0, note=65, velocity=0, time=8),\n",
       "    Message('note_on', channel=0, note=81, velocity=0, time=5),\n",
       "    Message('control_change', channel=0, control=64, value=29, time=231),\n",
       "    Message('control_change', channel=0, control=64, value=50, time=18),\n",
       "    Message('note_on', channel=0, note=81, velocity=76, time=2),\n",
       "    Message('note_on', channel=0, note=69, velocity=68, time=2),\n",
       "    Message('note_on', channel=0, note=65, velocity=57, time=10),\n",
       "    Message('control_change', channel=0, control=64, value=64, time=4),\n",
       "    Message('control_change', channel=0, control=64, value=73, time=18),\n",
       "    Message('control_change', channel=0, control=64, value=82, time=19),\n",
       "    Message('control_change', channel=0, control=64, value=91, time=19),\n",
       "    Message('note_on', channel=0, note=69, velocity=0, time=11),\n",
       "    Message('control_change', channel=0, control=64, value=98, time=6),\n",
       "    Message('note_on', channel=0, note=81, velocity=0, time=45),\n",
       "    Message('control_change', channel=0, control=64, value=103, time=6),\n",
       "    Message('note_on', channel=0, note=65, velocity=0, time=2),\n",
       "    Message('note_on', channel=0, note=79, velocity=81, time=87),\n",
       "    Message('control_change', channel=0, control=64, value=91, time=4),\n",
       "    Message('note_on', channel=0, note=60, velocity=69, time=2),\n",
       "    Message('note_on', channel=0, note=67, velocity=65, time=0),\n",
       "    Message('control_change', channel=0, control=64, value=76, time=16),\n",
       "    Message('control_change', channel=0, control=64, value=56, time=19),\n",
       "    Message('note_on', channel=0, note=67, velocity=0, time=6),\n",
       "    Message('note_on', channel=0, note=60, velocity=0, time=8),\n",
       "    Message('control_change', channel=0, control=64, value=30, time=5),\n",
       "    Message('note_on', channel=0, note=79, velocity=0, time=7),\n",
       "    Message('control_change', channel=0, control=64, value=0, time=10),\n",
       "    Message('note_on', channel=0, note=77, velocity=86, time=33),\n",
       "    Message('note_on', channel=0, note=65, velocity=75, time=2),\n",
       "    Message('note_on', channel=0, note=57, velocity=70, time=3),\n",
       "    Message('note_on', channel=0, note=57, velocity=0, time=32),\n",
       "    Message('note_on', channel=0, note=65, velocity=0, time=12),\n",
       "    Message('note_on', channel=0, note=77, velocity=0, time=1),\n",
       "    Message('note_on', channel=0, note=57, velocity=64, time=271),\n",
       "    Message('note_on', channel=0, note=77, velocity=80, time=0),\n",
       "    Message('note_on', channel=0, note=65, velocity=72, time=8),\n",
       "    Message('note_on', channel=0, note=57, velocity=0, time=38),\n",
       "    Message('note_on', channel=0, note=65, velocity=0, time=9),\n",
       "    Message('note_on', channel=0, note=77, velocity=0, time=8),\n",
       "    Message('note_on', channel=0, note=77, velocity=80, time=256),\n",
       "    Message('control_change', channel=0, control=64, value=30, time=9),\n",
       "    Message('note_on', channel=0, note=65, velocity=59, time=6),\n",
       "    Message('control_change', channel=0, control=64, value=51, time=12),\n",
       "    Message('note_on', channel=0, note=57, velocity=54, time=3),\n",
       "    Message('control_change', channel=0, control=64, value=65, time=17),\n",
       "    Message('control_change', channel=0, control=64, value=76, time=31),\n",
       "    Message('control_change', channel=0, control=64, value=90, time=20),\n",
       "    Message('control_change', channel=0, control=67, value=120, time=3),\n",
       "    Message('control_change', channel=0, control=64, value=108, time=16),\n",
       "    Message('control_change', channel=0, control=67, value=113, time=2),\n",
       "    Message('control_change', channel=0, control=64, value=127, time=15),\n",
       "    Message('control_change', channel=0, control=67, value=109, time=1),\n",
       "    Message('note_on', channel=0, note=57, velocity=0, time=29),\n",
       "    Message('note_on', channel=0, note=65, velocity=0, time=3),\n",
       "    Message('note_on', channel=0, note=77, velocity=0, time=108),\n",
       "    Message('control_change', channel=0, control=64, value=119, time=43),\n",
       "    Message('control_change', channel=0, control=64, value=95, time=18),\n",
       "    Message('note_on', channel=0, note=79, velocity=80, time=12),\n",
       "    Message('control_change', channel=0, control=64, value=71, time=6),\n",
       "    Message('note_on', channel=0, note=60, velocity=68, time=6),\n",
       "    Message('note_on', channel=0, note=67, velocity=62, time=5),\n",
       "    Message('note_on', channel=0, note=76, velocity=62, time=4),\n",
       "    Message('control_change', channel=0, control=64, value=46, time=5),\n",
       "    Message('control_change', channel=0, control=64, value=10, time=17),\n",
       "    Message('note_on', channel=0, note=76, velocity=0, time=12),\n",
       "    Message('note_on', channel=0, note=60, velocity=0, time=2),\n",
       "    Message('note_on', channel=0, note=67, velocity=0, time=3),\n",
       "    Message('control_change', channel=0, control=64, value=0, time=0),\n",
       "    Message('note_on', channel=0, note=79, velocity=0, time=1),\n",
       "    Message('note_on', channel=0, note=79, velocity=74, time=280),\n",
       "    Message('note_on', channel=0, note=60, velocity=69, time=3),\n",
       "    Message('note_on', channel=0, note=76, velocity=70, time=2),\n",
       "    Message('note_on', channel=0, note=67, velocity=66, time=1),\n",
       "    Message('note_on', channel=0, note=67, velocity=0, time=49),\n",
       "    Message('note_on', channel=0, note=60, velocity=0, time=2),\n",
       "    Message('note_on', channel=0, note=79, velocity=0, time=11),\n",
       "    Message('note_on', channel=0, note=76, velocity=0, time=2),\n",
       "    Message('note_on', channel=0, note=79, velocity=74, time=263),\n",
       "    Message('note_on', channel=0, note=76, velocity=71, time=7),\n",
       "    Message('note_on', channel=0, note=67, velocity=64, time=3),\n",
       "    Message('note_on', channel=0, note=60, velocity=64, time=1),\n",
       "    Message('note_on', channel=0, note=60, velocity=0, time=46),\n",
       "    Message('note_on', channel=0, note=67, velocity=0, time=4),\n",
       "    Message('control_change', channel=0, control=67, value=113, time=4),\n",
       "    Message('note_on', channel=0, note=79, velocity=0, time=7),\n",
       "    Message('note_on', channel=0, note=76, velocity=0, time=4),\n",
       "    Message('note_on', channel=0, note=79, velocity=66, time=266),\n",
       "    Message('note_on', channel=0, note=76, velocity=59, time=7),\n",
       "    Message('note_on', channel=0, note=60, velocity=51, time=9),\n",
       "    Message('note_on', channel=0, note=67, velocity=52, time=0),\n",
       "    Message('control_change', channel=0, control=67, value=117, time=39),\n",
       "    Message('note_on', channel=0, note=76, velocity=0, time=257),\n",
       "    Message('note_on', channel=0, note=60, velocity=0, time=13),\n",
       "    Message('note_on', channel=0, note=67, velocity=0, time=18),\n",
       "    Message('note_on', channel=0, note=81, velocity=64, time=17),\n",
       "    Message('note_on', channel=0, note=79, velocity=0, time=1),\n",
       "    Message('note_on', channel=0, note=77, velocity=62, time=11),\n",
       "    Message('note_on', channel=0, note=65, velocity=56, time=5),\n",
       "    Message('note_on', channel=0, note=69, velocity=54, time=1),\n",
       "    Message('control_change', channel=0, control=64, value=13, time=8),\n",
       "    Message('control_change', channel=0, control=67, value=113, time=1),\n",
       "    Message('control_change', channel=0, control=64, value=43, time=18),\n",
       "    Message('note_on', channel=0, note=77, velocity=0, time=13),\n",
       "    Message('control_change', channel=0, control=64, value=63, time=3),\n",
       "    Message('note_on', channel=0, note=65, velocity=0, time=11),\n",
       "    Message('note_on', channel=0, note=81, velocity=0, time=4),\n",
       "    Message('control_change', channel=0, control=64, value=76, time=3),\n",
       "    Message('note_on', channel=0, note=69, velocity=0, time=15),\n",
       "    Message('control_change', channel=0, control=64, value=91, time=5),\n",
       "    Message('control_change', channel=0, control=64, value=109, time=19),\n",
       "    Message('control_change', channel=0, control=64, value=127, time=19),\n",
       "    Message('control_change', channel=0, control=64, value=120, time=126),\n",
       "    Message('control_change', channel=0, control=64, value=102, time=17),\n",
       "    Message('control_change', channel=0, control=64, value=81, time=20),\n",
       "    Message('control_change', channel=0, control=64, value=61, time=20),\n",
       "    Message('note_on', channel=0, note=84, velocity=75, time=14),\n",
       "    Message('control_change', channel=0, control=64, value=39, time=4),\n",
       "    Message('control_change', channel=0, control=64, value=19, time=16),\n",
       "    Message('note_on', channel=0, note=72, velocity=63, time=1),\n",
       "    Message('note_on', channel=0, note=69, velocity=57, time=6),\n",
       "    Message('control_change', channel=0, control=64, value=0, time=14),\n",
       "    Message('note_on', channel=0, note=84, velocity=0, time=29),\n",
       "    Message('note_on', channel=0, note=86, velocity=74, time=7),\n",
       "    Message('note_on', channel=0, note=72, velocity=0, time=46),\n",
       "    Message('note_on', channel=0, note=69, velocity=0, time=4),\n",
       "    Message('note_on', channel=0, note=84, velocity=80, time=29),\n",
       "    Message('note_on', channel=0, note=86, velocity=0, time=9),\n",
       "    Message('control_change', channel=0, control=67, value=109, time=38),\n",
       "    Message('note_on', channel=0, note=84, velocity=0, time=20),\n",
       "    Message('note_on', channel=0, note=70, velocity=61, time=1),\n",
       "    Message('note_on', channel=0, note=67, velocity=58, time=3),\n",
       "    Message('note_on', channel=0, note=82, velocity=85, time=10),\n",
       "    Message('note_on', channel=0, note=70, velocity=0, time=27),\n",
       "    Message('note_on', channel=0, note=69, velocity=74, time=26),\n",
       "    Message('note_on', channel=0, note=81, velocity=86, time=11),\n",
       "    Message('note_on', channel=0, note=65, velocity=66, time=7),\n",
       "    Message('note_on', channel=0, note=67, velocity=0, time=3),\n",
       "    Message('note_on', channel=0, note=69, velocity=0, time=11),\n",
       "    Message('note_on', channel=0, note=82, velocity=0, time=7),\n",
       "    Message('note_on', channel=0, note=65, velocity=0, time=17),\n",
       "    Message('note_on', channel=0, note=81, velocity=0, time=8),\n",
       "    Message('note_on', channel=0, note=65, velocity=73, time=263),\n",
       "    Message('note_on', channel=0, note=81, velocity=81, time=1),\n",
       "    Message('note_on', channel=0, note=69, velocity=74, time=3),\n",
       "    Message('note_on', channel=0, note=69, velocity=0, time=32),\n",
       "    Message('note_on', channel=0, note=65, velocity=0, time=10),\n",
       "    Message('note_on', channel=0, note=81, velocity=0, time=9),\n",
       "    Message('note_on', channel=0, note=81, velocity=75, time=262),\n",
       "    Message('control_change', channel=0, control=64, value=21, time=2),\n",
       "    Message('note_on', channel=0, note=69, velocity=64, time=6),\n",
       "    Message('note_on', channel=0, note=65, velocity=56, time=9),\n",
       "    Message('control_change', channel=0, control=64, value=45, time=3),\n",
       "    Message('control_change', channel=0, control=64, value=63, time=20),\n",
       "    Message('control_change', channel=0, control=64, value=75, time=19),\n",
       "    Message('note_on', channel=0, note=81, velocity=0, time=19),\n",
       "    Message('control_change', channel=0, control=64, value=87, time=0),\n",
       "    Message('note_on', channel=0, note=82, velocity=80, time=3),\n",
       "    Message('control_change', channel=0, control=64, value=103, time=16),\n",
       "    Message('note_on', channel=0, note=69, velocity=0, time=10),\n",
       "    Message('control_change', channel=0, control=64, value=119, time=7),\n",
       "    Message('control_change', channel=0, control=67, value=104, time=1),\n",
       "    Message('control_change', channel=0, control=64, value=127, time=17),\n",
       "    Message('note_on', channel=0, note=82, velocity=0, time=27),\n",
       "    Message('note_on', channel=0, note=81, velocity=78, time=5),\n",
       "    Message('control_change', channel=0, control=67, value=100, time=5),\n",
       "    Message('note_on', channel=0, note=65, velocity=0, time=2),\n",
       "    Message('control_change', channel=0, control=67, value=93, time=34),\n",
       "    Message('note_on', channel=0, note=81, velocity=0, time=14),\n",
       "    Message('note_on', channel=0, note=67, velocity=69, time=5),\n",
       "    Message('control_change', channel=0, control=67, value=87, time=0),\n",
       "    Message('note_on', channel=0, note=60, velocity=56, time=15),\n",
       "    Message('control_change', channel=0, control=64, value=119, time=2),\n",
       "    Message('control_change', channel=0, control=67, value=78, time=1),\n",
       "    Message('note_on', channel=0, note=79, velocity=79, time=4),\n",
       "    Message('note_on', channel=0, note=67, velocity=0, time=12),\n",
       "    Message('control_change', channel=0, control=64, value=98, time=2),\n",
       "    Message('control_change', channel=0, control=67, value=70, time=1),\n",
       "    Message('control_change', channel=0, control=64, value=75, time=19),\n",
       "    Message('control_change', channel=0, control=67, value=62, time=3),\n",
       "    Message('control_change', channel=0, control=64, value=52, time=15),\n",
       "    Message('control_change', channel=0, control=67, value=56, time=1),\n",
       "    Message('note_on', channel=0, note=65, velocity=80, time=12),\n",
       "    Message('control_change', channel=0, control=64, value=23, time=6),\n",
       "    Message('note_on', channel=0, note=57, velocity=70, time=4),\n",
       "    Message('note_on', channel=0, note=79, velocity=0, time=0),\n",
       "    Message('note_on', channel=0, note=77, velocity=84, time=3),\n",
       "    Message('note_on', channel=0, note=60, velocity=0, time=6),\n",
       "    Message('control_change', channel=0, control=64, value=0, time=5),\n",
       "    Message('control_change', channel=0, control=67, value=52, time=1),\n",
       "    Message('note_on', channel=0, note=57, velocity=0, time=18),\n",
       "    Message('note_on', channel=0, note=65, velocity=0, time=7),\n",
       "    Message('note_on', channel=0, note=77, velocity=0, time=4),\n",
       "    Message('control_change', channel=0, control=67, value=44, time=246),\n",
       "    Message('control_change', channel=0, control=67, value=39, time=18),\n",
       "    Message('note_on', channel=0, note=57, velocity=64, time=19),\n",
       "    Message('note_on', channel=0, note=77, velocity=80, time=0),\n",
       "    Message('note_on', channel=0, note=65, velocity=71, time=4),\n",
       "    Message('control_change', channel=0, control=67, value=34, time=12),\n",
       "    Message('note_on', channel=0, note=57, velocity=0, time=28),\n",
       "    Message('note_on', channel=0, note=65, velocity=0, time=17),\n",
       "    Message('note_on', channel=0, note=77, velocity=0, time=3),\n",
       "    Message('note_on', channel=0, note=77, velocity=74, time=271),\n",
       "    Message('note_on', channel=0, note=65, velocity=70, time=2),\n",
       "    Message('note_on', channel=0, note=57, velocity=65, time=1),\n",
       "    Message('note_on', channel=0, note=57, velocity=0, time=40),\n",
       "    Message('control_change', channel=0, control=67, value=39, time=24),\n",
       "    Message('note_on', channel=0, note=77, velocity=0, time=1),\n",
       "    Message('note_on', channel=0, note=65, velocity=0, time=2),\n",
       "    Message('control_change', channel=0, control=67, value=43, time=34),\n",
       "    Message('control_change', channel=0, control=67, value=39, time=219),\n",
       "    Message('note_on', channel=0, note=79, velocity=66, time=25),\n",
       "    Message('note_on', channel=0, note=67, velocity=51, time=15),\n",
       "    Message('note_on', channel=0, note=60, velocity=50, time=6),\n",
       "    Message('control_change', channel=0, control=64, value=16, time=84),\n",
       "    Message('control_change', channel=0, control=64, value=37, time=18),\n",
       "    Message('control_change', channel=0, control=64, value=55, time=19),\n",
       "    Message('control_change', channel=0, control=67, value=43, time=1),\n",
       "    Message('control_change', channel=0, control=64, value=67, time=18),\n",
       "    Message('control_change', channel=0, control=64, value=77, time=19),\n",
       "    Message('control_change', channel=0, control=64, value=91, time=16),\n",
       "    Message('control_change', channel=0, control=64, value=110, time=21),\n",
       "    Message('control_change', channel=0, control=64, value=127, time=17),\n",
       "    Message('note_on', channel=0, note=67, velocity=0, time=12),\n",
       "    Message('control_change', channel=0, control=67, value=47, time=5),\n",
       "    Message('note_on', channel=0, note=60, velocity=0, time=46),\n",
       "    Message('note_on', channel=0, note=82, velocity=68, time=48),\n",
       "    Message('control_change', channel=0, control=67, value=51, time=18),\n",
       "    Message('note_on', channel=0, note=79, velocity=0, time=20),\n",
       "    Message('control_change', channel=0, control=67, value=58, time=18),\n",
       "    Message('note_on', channel=0, note=82, velocity=0, time=2),\n",
       "    Message('control_change', channel=0, control=67, value=65, time=29),\n",
       "    Message('control_change', channel=0, control=67, value=75, time=18),\n",
       "    Message('control_change', channel=0, control=67, value=88, time=20),\n",
       "    Message('control_change', channel=0, control=67, value=100, time=18),\n",
       "    Message('control_change', channel=0, control=67, value=111, time=19),\n",
       "    Message('control_change', channel=0, control=64, value=122, time=17),\n",
       "    Message('control_change', channel=0, control=67, value=119, time=1),\n",
       "    Message('control_change', channel=0, control=64, value=108, time=20),\n",
       "    Message('control_change', channel=0, control=67, value=125, time=1),\n",
       "    Message('control_change', channel=0, control=64, value=95, time=15),\n",
       "    Message('control_change', channel=0, control=64, value=83, time=19),\n",
       "    Message('control_change', channel=0, control=64, value=71, time=19),\n",
       "    Message('control_change', channel=0, control=64, value=60, time=19),\n",
       "    Message('control_change', channel=0, control=64, value=49, time=17),\n",
       "    Message('control_change', channel=0, control=64, value=42, time=20),\n",
       "    Message('control_change', channel=0, control=64, value=35, time=16),\n",
       "    Message('control_change', channel=0, control=64, value=26, time=19),\n",
       "    Message('note_on', channel=0, note=76, velocity=65, time=2),\n",
       "    Message('control_change', channel=0, control=64, value=15, time=17),\n",
       "    Message('note_on', channel=0, note=60, velocity=54, time=11),\n",
       "    Message('note_on', channel=0, note=70, velocity=56, time=1),\n",
       "    Message('control_change', channel=0, control=64, value=0, time=7),\n",
       "    Message('note_on', channel=0, note=67, velocity=49, time=5),\n",
       "    Message('note_on', channel=0, note=67, velocity=0, time=334),\n",
       "    Message('note_on', channel=0, note=60, velocity=0, time=21),\n",
       "    Message('note_on', channel=0, note=77, velocity=55, time=10),\n",
       "    Message('note_on', channel=0, note=76, velocity=0, time=11),\n",
       "    Message('note_on', channel=0, note=69, velocity=52, time=8),\n",
       "    Message('note_on', channel=0, note=65, velocity=44, time=11),\n",
       "    Message('note_on', channel=0, note=70, velocity=0, time=2),\n",
       "    Message('control_change', channel=0, control=64, value=37, time=112),\n",
       "    Message('control_change', channel=0, control=64, value=59, time=19),\n",
       "    Message('note_on', channel=0, note=69, velocity=0, time=14),\n",
       "    Message('control_change', channel=0, control=64, value=73, time=3),\n",
       "    Message('control_change', channel=0, control=64, value=87, time=21),\n",
       "    Message('note_on', channel=0, note=77, velocity=0, time=2),\n",
       "    Message('control_change', channel=0, control=64, value=108, time=16),\n",
       "    Message('note_on', channel=0, note=65, velocity=0, time=5),\n",
       "    Message('control_change', channel=0, control=64, value=127, time=15),\n",
       "    Message('control_change', channel=0, control=64, value=113, time=105),\n",
       "    Message('control_change', channel=0, control=64, value=98, time=19),\n",
       "    Message('control_change', channel=0, control=64, value=81, time=17),\n",
       "    Message('control_change', channel=0, control=64, value=63, time=19),\n",
       "    Message('control_change', channel=0, control=64, value=45, time=18),\n",
       "    Message('control_change', channel=0, control=64, value=29, time=18),\n",
       "    Message('control_change', channel=0, control=64, value=11, time=20),\n",
       "    Message('control_change', channel=0, control=64, value=0, time=18),\n",
       "    Message('note_on', channel=0, note=84, velocity=61, time=209),\n",
       "    Message('note_on', channel=0, note=64, velocity=39, time=37),\n",
       "    Message('note_on', channel=0, note=70, velocity=45, time=2),\n",
       "    Message('note_on', channel=0, note=60, velocity=49, time=5),\n",
       "    Message('control_change', channel=0, control=64, value=16, time=42),\n",
       "    Message('control_change', channel=0, control=64, value=44, time=20),\n",
       "    Message('control_change', channel=0, control=64, value=63, time=18),\n",
       "    Message('control_change', channel=0, control=64, value=76, time=18),\n",
       "    Message('control_change', channel=0, control=64, value=90, time=17),\n",
       "    Message('control_change', channel=0, control=64, value=109, time=19),\n",
       "    Message('control_change', channel=0, control=64, value=126, time=20),\n",
       "    Message('note_on', channel=0, note=70, velocity=0, time=87),\n",
       "    Message('note_on', channel=0, note=60, velocity=0, time=31),\n",
       "    Message('control_change', channel=0, control=64, value=119, time=10),\n",
       "    Message('note_on', channel=0, note=64, velocity=0, time=5),\n",
       "    Message('control_change', channel=0, control=64, value=96, time=14),\n",
       "    Message('control_change', channel=0, control=64, value=69, time=17),\n",
       "    Message('control_change', channel=0, control=64, value=40, time=18),\n",
       "    Message('note_on', channel=0, note=77, velocity=55, time=2),\n",
       "    Message('note_on', channel=0, note=84, velocity=0, time=11),\n",
       "    Message('note_on', channel=0, note=65, velocity=40, time=12),\n",
       "    Message('note_on', channel=0, note=69, velocity=41, time=3),\n",
       "    Message('control_change', channel=0, control=64, value=0, time=8),\n",
       "    Message('control_change', channel=0, control=64, value=28, time=21),\n",
       "    Message('control_change', channel=0, control=64, value=57, time=18),\n",
       "    Message('control_change', channel=0, control=64, value=74, time=20),\n",
       "    Message('control_change', channel=0, control=64, value=93, time=18),\n",
       "    Message('control_change', channel=0, control=64, value=127, time=18),\n",
       "    Message('note_on', channel=0, note=69, velocity=0, time=51),\n",
       "    Message('note_on', channel=0, note=77, velocity=0, time=6),\n",
       "    Message('note_on', channel=0, note=65, velocity=0, time=17),\n",
       "    Message('control_change', channel=0, control=64, value=116, time=68),\n",
       "    Message('control_change', channel=0, control=64, value=102, time=21),\n",
       "    Message('control_change', channel=0, control=64, value=87, time=17),\n",
       "    Message('control_change', channel=0, control=64, value=71, time=20),\n",
       "    Message('control_change', channel=0, control=64, value=54, time=17),\n",
       "    Message('control_change', channel=0, control=64, value=38, time=19),\n",
       "    Message('control_change', channel=0, control=64, value=24, time=17),\n",
       "    Message('control_change', channel=0, control=64, value=16, time=19),\n",
       "    Message('control_change', channel=0, control=64, value=10, time=74),\n",
       "    Message('control_change', channel=0, control=64, value=0, time=92),\n",
       "    Message('note_on', channel=0, note=72, velocity=59, time=102),\n",
       "    Message('note_on', channel=0, note=58, velocity=44, time=21),\n",
       "    Message('control_change', channel=0, control=64, value=21, time=5),\n",
       "    Message('note_on', channel=0, note=52, velocity=43, time=5),\n",
       "    Message('note_on', channel=0, note=48, velocity=41, time=4),\n",
       "    Message('control_change', channel=0, control=64, value=46, time=8),\n",
       "    Message('control_change', channel=0, control=64, value=64, time=20),\n",
       "    Message('control_change', channel=0, control=64, value=77, time=20),\n",
       "    Message('control_change', channel=0, control=64, value=94, time=17),\n",
       "    Message('control_change', channel=0, control=64, value=119, time=19),\n",
       "    Message('control_change', channel=0, control=64, value=127, time=19),\n",
       "    Message('control_change', channel=0, control=67, value=120, time=108),\n",
       "    Message('note_on', channel=0, note=48, velocity=0, time=15),\n",
       "    Message('note_on', channel=0, note=52, velocity=0, time=0),\n",
       "    Message('note_on', channel=0, note=58, velocity=0, time=7),\n",
       "    Message('control_change', channel=0, control=67, value=115, time=17),\n",
       "    Message('control_change', channel=0, control=64, value=114, time=92),\n",
       "    Message('note_on', channel=0, note=65, velocity=62, time=12),\n",
       "    Message('control_change', channel=0, control=64, value=89, time=7),\n",
       "    Message('note_on', channel=0, note=72, velocity=0, time=27),\n",
       "    Message('control_change', channel=0, control=64, value=64, time=4),\n",
       "    Message('note_on', channel=0, note=53, velocity=41, time=13),\n",
       "    Message('note_on', channel=0, note=57, velocity=43, time=1),\n",
       "    Message('control_change', channel=0, control=64, value=34, time=5),\n",
       "    Message('control_change', channel=0, control=67, value=111, time=2),\n",
       "    Message('control_change', channel=0, control=64, value=0, time=17),\n",
       "    Message('control_change', channel=0, control=67, value=103, time=19),\n",
       "    Message('control_change', channel=0, control=67, value=97, time=16),\n",
       "    Message('control_change', channel=0, control=67, value=88, time=20),\n",
       "    Message('control_change', channel=0, control=64, value=36, time=18),\n",
       "    Message('control_change', channel=0, control=67, value=80, time=1),\n",
       "    Message('control_change', channel=0, control=64, value=55, time=18),\n",
       "    Message('control_change', channel=0, control=67, value=70, time=1),\n",
       "    Message('control_change', channel=0, control=64, value=66, time=18),\n",
       "    Message('control_change', channel=0, control=67, value=59, time=2),\n",
       "    Message('control_change', channel=0, control=64, value=74, time=18),\n",
       "    Message('control_change', channel=0, control=67, value=45, time=1),\n",
       "    Message('note_on', channel=0, note=65, velocity=0, time=3),\n",
       "    Message('control_change', channel=0, control=64, value=81, time=13),\n",
       "    Message('control_change', channel=0, control=67, value=27, time=2),\n",
       "    Message('note_on', channel=0, note=57, velocity=0, time=5),\n",
       "    Message('note_on', channel=0, note=53, velocity=0, time=4),\n",
       "    Message('control_change', channel=0, control=64, value=87, time=8),\n",
       "    Message('control_change', channel=0, control=67, value=8, time=2),\n",
       "    Message('control_change', channel=0, control=67, value=0, time=15),\n",
       "    Message('control_change', channel=0, control=64, value=83, time=92),\n",
       "    Message('control_change', channel=0, control=64, value=76, time=18),\n",
       "    Message('control_change', channel=0, control=64, value=67, time=18),\n",
       "    Message('control_change', channel=0, control=64, value=57, time=20),\n",
       "    Message('control_change', channel=0, control=64, value=48, time=18),\n",
       "    Message('control_change', channel=0, control=64, value=40, time=19),\n",
       "    Message('control_change', channel=0, control=64, value=35, time=18),\n",
       "    Message('control_change', channel=0, control=64, value=30, time=20),\n",
       "    Message('control_change', channel=0, control=64, value=20, time=16),\n",
       "    Message('control_change', channel=0, control=64, value=0, time=19),\n",
       "    Message('control_change', channel=0, control=64, value=25, time=166),\n",
       "    Message('control_change', channel=0, control=64, value=49, time=18),\n",
       "    Message('note_on', channel=0, note=61, velocity=88, time=3),\n",
       "    Message('control_change', channel=0, control=64, value=66, time=1),\n",
       "    Message('note_on', channel=0, note=49, velocity=65, time=12),\n",
       "    Message('note_on', channel=0, note=37, velocity=66, time=3),\n",
       "    Message('control_change', channel=0, control=64, value=79, time=3),\n",
       "    Message('control_change', channel=0, control=64, value=95, time=19),\n",
       "    Message('control_change', channel=0, control=64, value=119, time=20),\n",
       "    Message('control_change', channel=0, control=64, value=127, time=16),\n",
       "    Message('note_on', channel=0, note=37, velocity=0, time=204),\n",
       "    Message('note_on', channel=0, note=49, velocity=0, time=8),\n",
       "    Message('control_change', channel=0, control=64, value=100, time=98),\n",
       "    Message('control_change', channel=0, control=64, value=66, time=19),\n",
       "    Message('note_on', channel=0, note=62, velocity=83, time=4),\n",
       "    Message('control_change', channel=0, control=64, value=24, time=16),\n",
       "    Message('note_on', channel=0, note=50, velocity=67, time=2),\n",
       "    Message('note_on', channel=0, note=38, velocity=67, time=6),\n",
       "    Message('note_on', channel=0, note=61, velocity=0, time=1),\n",
       "    Message('control_change', channel=0, control=64, value=0, time=8),\n",
       "    Message('control_change', channel=0, control=64, value=45, time=55),\n",
       "    Message('note_on', channel=0, note=38, velocity=0, time=8),\n",
       "    Message('control_change', channel=0, control=64, value=69, time=10),\n",
       "    Message('note_on', channel=0, note=50, velocity=0, time=18),\n",
       "    Message('control_change', channel=0, control=64, value=89, time=0),\n",
       "    Message('control_change', channel=0, control=64, value=124, time=18),\n",
       "    Message('note_on', channel=0, note=62, velocity=0, time=53),\n",
       "    Message('note_on', channel=0, note=53, velocity=62, time=114),\n",
       "    Message('note_on', channel=0, note=53, velocity=0, time=154),\n",
       "    Message('note_on', channel=0, note=57, velocity=65, time=6),\n",
       "    Message('note_on', channel=0, note=65, velocity=73, time=156),\n",
       "    Message('note_on', channel=0, note=57, velocity=0, time=1),\n",
       "    Message('note_on', channel=0, note=53, velocity=61, time=10),\n",
       "    Message('control_change', channel=0, control=64, value=98, time=22),\n",
       "    Message('control_change', channel=0, control=64, value=67, time=19),\n",
       "    Message('control_change', channel=0, control=64, value=37, time=17),\n",
       "    Message('note_on', channel=0, note=69, velocity=77, time=2),\n",
       "    Message('control_change', channel=0, control=64, value=15, time=18),\n",
       "    Message('control_change', channel=0, control=64, value=20, time=20),\n",
       "    Message('note_on', channel=0, note=65, velocity=0, time=10),\n",
       "    Message('control_change', channel=0, control=64, value=52, time=6),\n",
       "    Message('note_on', channel=0, note=74, velocity=79, time=27),\n",
       "    Message('control_change', channel=0, control=64, value=76, time=5),\n",
       "    Message('note_on', channel=0, note=57, velocity=65, time=10),\n",
       "    Message('note_on', channel=0, note=53, velocity=0, time=6),\n",
       "    Message('control_change', channel=0, control=64, value=109, time=4),\n",
       "    Message('note_on', channel=0, note=69, velocity=0, time=7),\n",
       "    Message('control_change', channel=0, control=64, value=127, time=12),\n",
       "    Message('note_on', channel=0, note=74, velocity=0, time=14),\n",
       "    Message('note_on', channel=0, note=57, velocity=0, time=111),\n",
       "    Message('note_on', channel=0, note=69, velocity=67, time=7),\n",
       "    Message('note_on', channel=0, note=53, velocity=59, time=10),\n",
       "    Message('control_change', channel=0, control=64, value=95, time=24),\n",
       "    Message('control_change', channel=0, control=64, value=64, time=19),\n",
       "    Message('control_change', channel=0, control=64, value=30, time=16),\n",
       "    Message('note_on', channel=0, note=74, velocity=80, time=2),\n",
       "    Message('control_change', channel=0, control=64, value=0, time=18),\n",
       "    Message('note_on', channel=0, note=69, velocity=0, time=28),\n",
       "    Message('control_change', channel=0, control=64, value=37, time=7),\n",
       "    Message('note_on', channel=0, note=77, velocity=82, time=16),\n",
       "    Message('control_change', channel=0, control=64, value=67, time=3),\n",
       "    Message('note_on', channel=0, note=53, velocity=0, time=0),\n",
       "    Message('note_on', channel=0, note=50, velocity=66, time=1),\n",
       "    Message('control_change', channel=0, control=64, value=91, time=18),\n",
       "    Message('note_on', channel=0, note=74, velocity=0, time=11),\n",
       "    Message('control_change', channel=0, control=64, value=127, time=6),\n",
       "    Message('note_on', channel=0, note=77, velocity=0, time=26),\n",
       "    Message('note_on', channel=0, note=74, velocity=76, time=115),\n",
       "    Message('note_on', channel=0, note=53, velocity=62, time=9),\n",
       "    Message('control_change', channel=0, control=64, value=96, time=19),\n",
       "    Message('control_change', channel=0, control=64, value=60, time=16),\n",
       "    Message('note_on', channel=0, note=77, velocity=80, time=12),\n",
       "    Message('note_on', channel=0, note=50, velocity=0, time=2),\n",
       "    Message('control_change', channel=0, control=64, value=0, time=4),\n",
       "    Message('note_on', channel=0, note=74, velocity=0, time=41),\n",
       "    Message('control_change', channel=0, control=64, value=22, time=16),\n",
       "    Message('note_on', channel=0, note=81, velocity=78, time=5),\n",
       "    Message('note_on', channel=0, note=57, velocity=64, time=12),\n",
       "    Message('control_change', channel=0, control=64, value=59, time=1),\n",
       "    Message('note_on', channel=0, note=53, velocity=0, time=0),\n",
       "    Message('control_change', channel=0, control=64, value=83, time=19),\n",
       "    Message('note_on', channel=0, note=77, velocity=0, time=4),\n",
       "    Message('control_change', channel=0, control=64, value=114, time=15),\n",
       "    Message('control_change', channel=0, control=64, value=127, time=17),\n",
       "    Message('note_on', channel=0, note=81, velocity=0, time=4),\n",
       "    Message('note_on', channel=0, note=81, velocity=83, time=92),\n",
       "    Message('note_on', channel=0, note=57, velocity=0, time=10),\n",
       "    Message('note_on', channel=0, note=53, velocity=67, time=1),\n",
       "    Message('control_change', channel=0, control=64, value=97, time=21),\n",
       "    Message('control_change', channel=0, control=64, value=65, time=18),\n",
       "    Message('control_change', channel=0, control=64, value=39, time=18),\n",
       "    Message('control_change', channel=0, control=64, value=33, time=18),\n",
       "    Message('control_change', channel=0, control=64, value=40, time=20),\n",
       "    Message('control_change', channel=0, control=64, value=60, time=18),\n",
       "    Message('control_change', channel=0, control=64, value=80, time=34),\n",
       "    Message('control_change', channel=0, control=64, value=117, time=19),\n",
       "    Message('note_on', channel=0, note=53, velocity=0, time=0),\n",
       "    Message('note_on', channel=0, note=57, velocity=70, time=5),\n",
       "    Message('note_on', channel=0, note=77, velocity=85, time=5),\n",
       "    Message('control_change', channel=0, control=64, value=127, time=8),\n",
       "    Message('note_on', channel=0, note=81, velocity=0, time=46),\n",
       "    Message('note_on', channel=0, note=53, velocity=68, time=98),\n",
       "    Message('note_on', channel=0, note=57, velocity=0, time=3),\n",
       "    Message('note_on', channel=0, note=74, velocity=81, time=4),\n",
       "    Message('note_on', channel=0, note=53, velocity=0, time=26),\n",
       "    Message('note_on', channel=0, note=77, velocity=0, time=4),\n",
       "    Message('note_on', channel=0, note=74, velocity=0, time=57),\n",
       "    Message('control_change', channel=0, control=64, value=101, time=57),\n",
       "    Message('control_change', channel=0, control=64, value=72, time=18),\n",
       "    Message('control_change', channel=0, control=64, value=40, time=19),\n",
       "    Message('control_change', channel=0, control=64, value=0, time=18),\n",
       "    Message('note_on', channel=0, note=52, velocity=74, time=23),\n",
       "    Message('note_on', channel=0, note=73, velocity=78, time=3),\n",
       "    Message('note_on', channel=0, note=40, velocity=66, time=7),\n",
       "    Message('control_change', channel=0, control=64, value=45, time=23),\n",
       "    Message('note_on', channel=0, note=76, velocity=68, time=15),\n",
       "    Message('control_change', channel=0, control=64, value=71, time=2),\n",
       "    Message('note_on', channel=0, note=40, velocity=0, time=8),\n",
       "    Message('note_on', channel=0, note=52, velocity=0, time=10),\n",
       "    Message('control_change', channel=0, control=64, value=97, time=0),\n",
       "    Message('control_change', channel=0, control=64, value=127, time=20),\n",
       "    Message('note_on', channel=0, note=79, velocity=78, time=25),\n",
       "    Message('note_on', channel=0, note=82, velocity=82, time=53),\n",
       "    Message('note_on', channel=0, note=79, velocity=0, time=112),\n",
       "    Message('note_on', channel=0, note=73, velocity=0, time=13),\n",
       "    Message('note_on', channel=0, note=82, velocity=0, time=89),\n",
       "    Message('note_on', channel=0, note=61, velocity=80, time=4),\n",
       "    Message('note_on', channel=0, note=58, velocity=73, time=7),\n",
       "    Message('note_on', channel=0, note=52, velocity=63, time=7),\n",
       "    Message('note_on', channel=0, note=55, velocity=69, time=5),\n",
       "    Message('note_on', channel=0, note=61, velocity=0, time=73),\n",
       "    Message('note_on', channel=0, note=52, velocity=0, time=10),\n",
       "    Message('note_on', channel=0, note=55, velocity=0, time=35),\n",
       "    Message('note_on', channel=0, note=58, velocity=0, time=4),\n",
       "    Message('note_on', channel=0, note=81, velocity=73, time=71),\n",
       "    Message('note_on', channel=0, note=76, velocity=0, time=1),\n",
       "    Message('control_change', channel=0, control=64, value=113, time=22),\n",
       "    Message('control_change', channel=0, control=64, value=89, time=19),\n",
       "    Message('control_change', channel=0, control=64, value=68, time=18),\n",
       "    Message('control_change', channel=0, control=64, value=49, time=16),\n",
       "    Message('note_on', channel=0, note=79, velocity=75, time=1),\n",
       "    Message('control_change', channel=0, control=64, value=33, time=19),\n",
       "    Message('control_change', channel=0, control=64, value=16, time=19),\n",
       "    Message('note_on', channel=0, note=81, velocity=0, time=12),\n",
       "    Message('note_on', channel=0, note=77, velocity=80, time=18),\n",
       "    Message('control_change', channel=0, control=64, value=0, time=7),\n",
       "    Message('note_on', channel=0, note=79, velocity=0, time=22),\n",
       "    Message('note_on', channel=0, note=76, velocity=84, time=50),\n",
       "    Message('note_on', channel=0, note=77, velocity=0, time=23),\n",
       "    Message('note_on', channel=0, note=74, velocity=83, time=51),\n",
       "    Message('note_on', channel=0, note=76, velocity=0, time=2),\n",
       "    Message('note_on', channel=0, note=74, velocity=0, time=77),\n",
       "    Message('note_on', channel=0, note=73, velocity=83, time=5),\n",
       "    Message('note_on', channel=0, note=73, velocity=0, time=49),\n",
       "    Message('note_on', channel=0, note=52, velocity=75, time=30),\n",
       "    Message('note_on', channel=0, note=82, velocity=85, time=1),\n",
       "    Message('note_on', channel=0, note=40, velocity=75, time=0),\n",
       "    Message('control_change', channel=0, control=64, value=38, time=23),\n",
       "    Message('note_on', channel=0, note=40, velocity=0, time=8),\n",
       "    Message('control_change', channel=0, control=64, value=62, time=11),\n",
       "    Message('note_on', channel=0, note=52, velocity=0, time=2),\n",
       "    Message('control_change', channel=0, control=64, value=79, time=18),\n",
       "    Message('control_change', channel=0, control=64, value=103, time=17),\n",
       "    Message('control_change', channel=0, control=64, value=127, time=18),\n",
       "    Message('control_change', channel=0, control=67, value=9, time=111),\n",
       "    Message('control_change', channel=0, control=67, value=13, time=73),\n",
       "    Message('note_on', channel=0, note=82, velocity=0, time=19),\n",
       "    Message('note_on', channel=0, note=61, velocity=76, time=50),\n",
       "    Message('control_change', channel=0, control=67, value=17, time=5),\n",
       "    Message('note_on', channel=0, note=58, velocity=67, time=1),\n",
       "    Message('note_on', channel=0, note=55, velocity=64, time=2),\n",
       "    Message('note_on', channel=0, note=52, velocity=66, time=2),\n",
       "    Message('note_on', channel=0, note=52, velocity=0, time=77),\n",
       "    Message('note_on', channel=0, note=61, velocity=0, time=6),\n",
       "    Message('note_on', channel=0, note=55, velocity=0, time=21),\n",
       "    Message('note_on', channel=0, note=58, velocity=0, time=14),\n",
       "    Message('note_on', channel=0, note=81, velocity=73, time=64),\n",
       "    Message('note_on', channel=0, note=79, velocity=77, time=79),\n",
       "    Message('control_change', channel=0, control=64, value=112, time=7),\n",
       "    Message('control_change', channel=0, control=64, value=96, time=18),\n",
       "    Message('note_on', channel=0, note=81, velocity=0, time=17),\n",
       "    Message('control_change', channel=0, control=64, value=80, time=1),\n",
       "    Message('control_change', channel=0, control=64, value=65, time=20),\n",
       "    Message('note_on', channel=0, note=77, velocity=74, time=8),\n",
       "    Message('control_change', channel=0, control=64, value=52, time=8),\n",
       "    Message('note_on', channel=0, note=79, velocity=0, time=17),\n",
       "    Message('control_change', channel=0, control=64, value=45, time=3),\n",
       "    Message('control_change', channel=0, control=64, value=42, time=18),\n",
       "    Message('control_change', channel=0, control=67, value=21, time=1),\n",
       "    Message('control_change', channel=0, control=64, value=40, time=37),\n",
       "    Message('note_on', channel=0, note=76, velocity=78, time=0),\n",
       "    Message('note_on', channel=0, note=77, velocity=0, time=13),\n",
       "    Message('control_change', channel=0, control=67, value=25, time=4),\n",
       "    Message('control_change', channel=0, control=67, value=34, time=39),\n",
       "    Message('note_on', channel=0, note=76, velocity=0, time=12),\n",
       "    Message('control_change', channel=0, control=64, value=35, time=5),\n",
       "    Message('control_change', channel=0, control=67, value=41, time=0),\n",
       "    Message('note_on', channel=0, note=74, velocity=79, time=3),\n",
       "    Message('control_change', channel=0, control=67, value=47, time=16),\n",
       "    Message('control_change', channel=0, control=67, value=51, time=18),\n",
       "    Message('control_change', channel=0, control=67, value=55, time=19),\n",
       "    Message('note_on', channel=0, note=74, velocity=0, time=7),\n",
       "    Message('control_change', channel=0, control=67, value=59, time=28),\n",
       "    Message('note_on', channel=0, note=73, velocity=68, time=1),\n",
       "    Message('control_change', channel=0, control=64, value=30, time=18),\n",
       "    Message('control_change', channel=0, control=64, value=25, time=38),\n",
       "    Message('note_on', channel=0, note=73, velocity=0, time=10),\n",
       "    Message('note_on', channel=0, note=53, velocity=54, time=21),\n",
       "    Message('note_on', channel=0, note=74, velocity=72, time=6),\n",
       "    Message('control_change', channel=0, control=64, value=16, time=38),\n",
       "    Message('control_change', channel=0, control=64, value=0, time=35),\n",
       "    Message('control_change', channel=0, control=64, value=19, time=74),\n",
       "    Message('control_change', channel=0, control=67, value=53, time=2),\n",
       "    Message('control_change', channel=0, control=64, value=44, time=16),\n",
       "    Message('note_on', channel=0, note=57, velocity=58, time=3),\n",
       "    Message('control_change', channel=0, control=64, value=62, time=16),\n",
       "    Message('control_change', channel=0, control=67, value=46, time=1),\n",
       "    Message('control_change', channel=0, control=64, value=74, time=16),\n",
       "    Message('note_on', channel=0, note=53, velocity=0, time=8),\n",
       "    Message('control_change', channel=0, control=64, value=86, time=11),\n",
       "    Message('control_change', channel=0, control=67, value=41, time=3),\n",
       "    Message('control_change', channel=0, control=64, value=102, time=15),\n",
       "    Message('control_change', channel=0, control=64, value=117, time=19),\n",
       "    Message('control_change', channel=0, control=67, value=37, time=1),\n",
       "    Message('control_change', channel=0, control=64, value=127, time=16),\n",
       "    Message('control_change', channel=0, control=67, value=32, time=35),\n",
       "    Message('note_on', channel=0, note=57, velocity=0, time=13),\n",
       "    Message('control_change', channel=0, control=67, value=27, time=4),\n",
       "    Message('control_change', channel=0, control=67, value=19, time=20),\n",
       "    Message('note_on', channel=0, note=62, velocity=58, time=10),\n",
       "    Message('note_on', channel=0, note=74, velocity=0, time=3),\n",
       "    Message('control_change', channel=0, control=67, value=11, time=6),\n",
       "    Message('note_on', channel=0, note=62, velocity=0, time=127),\n",
       "    Message('note_on', channel=0, note=65, velocity=73, time=23),\n",
       "    Message('note_on', channel=0, note=57, velocity=59, time=4),\n",
       "    Message('control_change', channel=0, control=64, value=113, time=11),\n",
       "    Message('control_change', channel=0, control=64, value=87, time=19),\n",
       "    Message('control_change', channel=0, control=64, value=60, time=18),\n",
       "    Message('control_change', channel=0, control=64, value=26, time=19),\n",
       "    Message('control_change', channel=0, control=67, value=0, time=1),\n",
       "    Message('note_on', channel=0, note=69, velocity=80, time=5),\n",
       "    Message('control_change', channel=0, control=64, value=0, time=11),\n",
       "    Message('note_on', channel=0, note=65, velocity=0, time=27),\n",
       "    Message('control_change', channel=0, control=64, value=35, time=8),\n",
       "    Message('note_on', channel=0, note=62, velocity=61, time=19),\n",
       "    Message('control_change', channel=0, control=64, value=63, time=3),\n",
       "    Message('note_on', channel=0, note=74, velocity=79, time=6),\n",
       "    Message('note_on', channel=0, note=57, velocity=0, time=6),\n",
       "    Message('control_change', channel=0, control=64, value=83, time=5),\n",
       "    Message('control_change', channel=0, control=64, value=121, time=18),\n",
       "    Message('note_on', channel=0, note=69, velocity=0, time=2),\n",
       "    Message('control_change', channel=0, control=64, value=127, time=17),\n",
       "    Message('note_on', channel=0, note=74, velocity=0, time=9),\n",
       "    Message('note_on', channel=0, note=62, velocity=0, time=96),\n",
       "    Message('note_on', channel=0, note=69, velocity=78, time=10),\n",
       "    Message('note_on', channel=0, note=57, velocity=60, time=8),\n",
       "    Message('control_change', channel=0, control=64, value=91, time=44),\n",
       "    Message('control_change', channel=0, control=64, value=58, time=18),\n",
       "    Message('note_on', channel=0, note=74, velocity=80, time=17),\n",
       "    Message('control_change', channel=0, control=64, value=0, time=0),\n",
       "    Message('control_change', channel=0, control=64, value=39, time=60),\n",
       "    Message('note_on', channel=0, note=57, velocity=0, time=2),\n",
       "    Message('note_on', channel=0, note=69, velocity=0, time=3),\n",
       "    Message('note_on', channel=0, note=53, velocity=66, time=2),\n",
       "    Message('note_on', channel=0, note=77, velocity=79, time=1),\n",
       "    Message('control_change', channel=0, control=64, value=67, time=10),\n",
       "    Message('control_change', channel=0, control=64, value=92, time=18),\n",
       "    Message('note_on', channel=0, note=74, velocity=0, time=7),\n",
       "    Message('control_change', channel=0, control=64, value=127, time=11),\n",
       "    Message('note_on', channel=0, note=77, velocity=0, time=16),\n",
       "    Message('note_on', channel=0, note=74, velocity=82, time=111),\n",
       "    Message('note_on', channel=0, note=57, velocity=67, time=2),\n",
       "    Message('control_change', channel=0, control=64, value=81, time=35),\n",
       "    Message('control_change', channel=0, control=64, value=43, time=20),\n",
       "    Message('control_change', channel=0, control=64, value=0, time=33),\n",
       "    Message('note_on', channel=0, note=77, velocity=82, time=3),\n",
       "    Message('note_on', channel=0, note=74, velocity=0, time=46),\n",
       "    Message('control_change', channel=0, control=64, value=39, time=7),\n",
       "    Message('note_on', channel=0, note=62, velocity=70, time=10),\n",
       "    Message('note_on', channel=0, note=81, velocity=82, time=5),\n",
       "    Message('control_change', channel=0, control=64, value=72, time=2),\n",
       "    Message('note_on', channel=0, note=57, velocity=0, time=3),\n",
       "    Message('control_change', channel=0, control=64, value=101, time=17),\n",
       "    Message('note_on', channel=0, note=77, velocity=0, time=8),\n",
       "    Message('control_change', channel=0, control=64, value=127, time=10),\n",
       "    Message('note_on', channel=0, note=81, velocity=0, time=17),\n",
       "    Message('note_on', channel=0, note=53, velocity=0, time=52),\n",
       "    Message('note_on', channel=0, note=62, velocity=0, time=34),\n",
       "    Message('note_on', channel=0, note=81, velocity=85, time=27),\n",
       "    Message('note_on', channel=0, note=57, velocity=65, time=8),\n",
       "    Message('control_change', channel=0, control=64, value=106, time=28),\n",
       "    Message('control_change', channel=0, control=64, value=68, time=17),\n",
       "    Message('control_change', channel=0, control=64, value=28, time=18),\n",
       "    Message('control_change', channel=0, control=64, value=0, time=19),\n",
       "    Message('control_change', channel=0, control=64, value=27, time=54),\n",
       "    Message('control_change', channel=0, control=64, value=49, time=19),\n",
       "    Message('note_on', channel=0, note=77, velocity=83, time=10),\n",
       "    Message('note_on', channel=0, note=62, velocity=70, time=2),\n",
       "    Message('note_on', channel=0, note=57, velocity=0, time=5),\n",
       "    Message('control_change', channel=0, control=64, value=61, time=3),\n",
       "    Message('control_change', channel=0, control=64, value=70, time=18),\n",
       "    Message('control_change', channel=0, control=64, value=80, time=19),\n",
       "    Message('control_change', channel=0, control=64, value=99, time=18),\n",
       "    Message('note_on', channel=0, note=81, velocity=0, time=6),\n",
       "    Message('control_change', channel=0, control=64, value=127, time=13),\n",
       "    Message('note_on', channel=0, note=62, velocity=0, time=68),\n",
       "    Message('note_on', channel=0, note=57, velocity=67, time=10),\n",
       "    Message('note_on', channel=0, note=74, velocity=85, time=4),\n",
       "    Message('note_on', channel=0, note=57, velocity=0, time=29),\n",
       "    Message('note_on', channel=0, note=77, velocity=0, time=8),\n",
       "    Message('note_on', channel=0, note=74, velocity=0, time=24),\n",
       "    Message('control_change', channel=0, control=64, value=100, time=78),\n",
       "    Message('control_change', channel=0, control=64, value=69, time=18),\n",
       "    Message('control_change', channel=0, control=64, value=34, time=18),\n",
       "    Message('control_change', channel=0, control=64, value=0, time=18),\n",
       "    Message('note_on', channel=0, note=80, velocity=82, time=53),\n",
       "    Message('note_on', channel=0, note=50, velocity=77, time=9),\n",
       "    Message('note_on', channel=0, note=71, velocity=73, time=2),\n",
       "    Message('note_on', channel=0, note=77, velocity=77, time=0),\n",
       "    Message('note_on', channel=0, note=74, velocity=73, time=2),\n",
       "    Message('note_on', channel=0, note=38, velocity=74, time=2),\n",
       "    Message('control_change', channel=0, control=64, value=30, time=8),\n",
       "    Message('control_change', channel=0, control=64, value=55, time=18),\n",
       "    Message('control_change', channel=0, control=64, value=72, time=18),\n",
       "    Message('note_on', channel=0, note=38, velocity=0, time=10),\n",
       "    Message('control_change', channel=0, control=64, value=88, time=7),\n",
       "    Message('note_on', channel=0, note=50, velocity=0, time=27),\n",
       "    Message('control_change', channel=0, control=64, value=112, time=7),\n",
       "    Message('control_change', channel=0, control=64, value=127, time=20),\n",
       "    Message('note_on', channel=0, note=77, velocity=0, time=88),\n",
       "    Message('control_change', channel=0, control=67, value=8, time=40),\n",
       "    Message('note_on', channel=0, note=80, velocity=0, time=35),\n",
       "    Message('control_change', channel=0, control=67, value=12, time=76),\n",
       "    Message('note_on', channel=0, note=59, velocity=74, time=21),\n",
       "    Message('note_on', channel=0, note=56, velocity=68, time=6),\n",
       "    Message('note_on', channel=0, note=53, velocity=65, time=6),\n",
       "    Message('note_on', channel=0, note=50, velocity=70, time=2),\n",
       "    Message('control_change', channel=0, control=67, value=18, time=2),\n",
       "    Message('control_change', channel=0, control=67, value=22, time=38),\n",
       "    Message('note_on', channel=0, note=59, velocity=0, time=60),\n",
       "    Message('note_on', channel=0, note=50, velocity=0, time=16),\n",
       "    Message('note_on', channel=0, note=71, velocity=0, time=5),\n",
       "    Message('note_on', channel=0, note=56, velocity=0, time=11),\n",
       "    Message('note_on', channel=0, note=53, velocity=0, time=15),\n",
       "    Message('control_change', channel=0, control=67, value=15, time=3),\n",
       "    Message('control_change', channel=0, control=67, value=10, time=19),\n",
       "    Message('note_on', channel=0, note=79, velocity=79, time=19),\n",
       "    Message('note_on', channel=0, note=74, velocity=0, time=19),\n",
       "    Message('control_change', channel=0, control=64, value=107, time=19),\n",
       "    Message('control_change', channel=0, control=64, value=85, time=16),\n",
       "    Message('control_change', channel=0, control=64, value=65, time=20),\n",
       "    Message('note_on', channel=0, note=77, velocity=75, time=13),\n",
       "    Message('control_change', channel=0, control=64, value=45, time=6),\n",
       "    Message('control_change', channel=0, control=64, value=27, time=18),\n",
       "    Message('note_on', channel=0, note=79, velocity=0, time=25),\n",
       "    Message('control_change', channel=0, control=64, value=0, time=12),\n",
       "    Message('control_change', channel=0, control=67, value=0, time=1),\n",
       "    Message('note_on', channel=0, note=75, velocity=81, time=9),\n",
       "    Message('note_on', channel=0, note=77, velocity=0, time=23),\n",
       "    Message('note_on', channel=0, note=74, velocity=82, time=63),\n",
       "    Message('note_on', channel=0, note=75, velocity=0, time=45),\n",
       "    Message('note_on', channel=0, note=72, velocity=81, time=20),\n",
       "    Message('note_on', channel=0, note=74, velocity=0, time=6),\n",
       "    Message('polytouch', channel=0, note=42, value=0, time=21),\n",
       "    Message('note_on', channel=0, note=71, velocity=81, time=52),\n",
       "    Message('note_on', channel=0, note=72, velocity=0, time=0),\n",
       "    Message('note_on', channel=0, note=71, velocity=0, time=30),\n",
       "    Message('note_on', channel=0, note=80, velocity=85, time=77),\n",
       "    Message('note_on', channel=0, note=38, velocity=72, time=5),\n",
       "    Message('note_on', channel=0, note=50, velocity=73, time=3),\n",
       "    Message('control_change', channel=0, control=64, value=32, time=16),\n",
       "    Message('control_change', channel=0, control=64, value=58, time=18),\n",
       "    Message('note_on', channel=0, note=38, velocity=0, time=3),\n",
       "    Message('control_change', channel=0, control=64, value=76, time=15),\n",
       "    Message('note_on', channel=0, note=50, velocity=0, time=10),\n",
       "    Message('control_change', channel=0, control=64, value=96, time=9),\n",
       "    Message('control_change', channel=0, control=64, value=127, time=19),\n",
       "    Message('note_on', channel=0, note=80, velocity=0, time=104),\n",
       "    Message('note_on', channel=0, note=59, velocity=75, time=128),\n",
       "    Message('note_on', channel=0, note=56, velocity=65, time=18),\n",
       "    Message('note_on', channel=0, note=53, velocity=60, time=2),\n",
       "    Message('note_on', channel=0, note=50, velocity=63, time=2),\n",
       "    Message('note_on', channel=0, note=50, velocity=0, time=66),\n",
       "    Message('note_on', channel=0, note=59, velocity=0, time=3),\n",
       "    Message('control_change', channel=0, control=67, value=8, time=28),\n",
       "    Message('note_on', channel=0, note=56, velocity=0, time=8),\n",
       "    Message('note_on', channel=0, note=53, velocity=0, time=8),\n",
       "    Message('note_on', channel=0, note=79, velocity=74, time=63),\n",
       "    Message('control_change', channel=0, control=64, value=108, time=48),\n",
       "    Message('control_change', channel=0, control=64, value=90, time=19),\n",
       "    Message('note_on', channel=0, note=77, velocity=76, time=17),\n",
       "    Message('control_change', channel=0, control=64, value=73, time=4),\n",
       "    Message('control_change', channel=0, control=64, value=59, time=17),\n",
       "    Message('control_change', channel=0, control=64, value=47, time=17),\n",
       "    Message('note_on', channel=0, note=79, velocity=0, time=8),\n",
       "    Message('control_change', channel=0, control=64, value=42, time=11),\n",
       "    Message('note_on', channel=0, note=75, velocity=79, time=18),\n",
       "    Message('control_change', channel=0, control=64, value=40, time=0),\n",
       "    Message('note_on', channel=0, note=77, velocity=0, time=28),\n",
       "    Message('control_change', channel=0, control=64, value=35, time=27),\n",
       "    Message('control_change', channel=0, control=64, value=31, time=19),\n",
       "    Message('note_on', channel=0, note=74, velocity=80, time=9),\n",
       "    Message('control_change', channel=0, control=64, value=25, time=10),\n",
       "    Message('control_change', channel=0, control=67, value=12, time=0),\n",
       "    Message('note_on', channel=0, note=75, velocity=0, time=34),\n",
       "    Message('note_on', channel=0, note=74, velocity=0, time=28),\n",
       "    Message('note_on', channel=0, note=72, velocity=77, time=1),\n",
       "    Message('note_on', channel=0, note=72, velocity=0, time=86),\n",
       "    Message('note_on', channel=0, note=71, velocity=75, time=9),\n",
       "    Message('note_on', channel=0, note=71, velocity=0, time=43),\n",
       "    Message('control_change', channel=0, control=64, value=20, time=34),\n",
       "    Message('control_change', channel=0, control=64, value=13, time=18),\n",
       "    Message('control_change', channel=0, control=67, value=17, time=1),\n",
       "    Message('note_on', channel=0, note=72, velocity=70, time=9),\n",
       "    Message('control_change', channel=0, control=64, value=0, time=7),\n",
       "    Message('note_on', channel=0, note=51, velocity=54, time=2),\n",
       "    Message('control_change', channel=0, control=67, value=23, time=18),\n",
       "    Message('control_change', channel=0, control=67, value=27, time=37),\n",
       "    Message('control_change', channel=0, control=67, value=31, time=18),\n",
       "    Message('control_change', channel=0, control=67, value=37, time=18),\n",
       "    Message('control_change', channel=0, control=64, value=11, time=20),\n",
       "    Message('control_change', channel=0, control=67, value=45, time=2),\n",
       "    Message('control_change', channel=0, control=64, value=37, time=17),\n",
       "    Message('control_change', channel=0, control=67, value=53, time=0),\n",
       "    Message('control_change', channel=0, control=64, value=55, time=18),\n",
       "    Message('control_change', channel=0, control=67, value=58, time=1),\n",
       "    Message('control_change', channel=0, control=64, value=67, time=17),\n",
       "    Message('control_change', channel=0, control=64, value=74, time=21),\n",
       "    Message('control_change', channel=0, control=67, value=62, time=1),\n",
       "    Message('note_on', channel=0, note=55, velocity=55, time=0),\n",
       "    Message('control_change', channel=0, control=64, value=81, time=16),\n",
       "    Message('control_change', channel=0, control=64, value=89, time=16),\n",
       "    Message('control_change', channel=0, control=64, value=94, time=20),\n",
       "    Message('control_change', channel=0, control=64, value=101, time=37),\n",
       "    Message('control_change', channel=0, control=67, value=56, time=2),\n",
       "    Message('note_on', channel=0, note=51, velocity=0, time=15),\n",
       "    Message('control_change', channel=0, control=64, value=105, time=0),\n",
       "    Message('control_change', channel=0, control=64, value=109, time=20),\n",
       "    Message('note_on', channel=0, note=55, velocity=0, time=10),\n",
       "    Message('control_change', channel=0, control=64, value=114, time=7),\n",
       "    Message('note_on', channel=0, note=72, velocity=0, time=8),\n",
       "    Message('note_on', channel=0, note=60, velocity=63, time=7),\n",
       "    Message('control_change', channel=0, control=64, value=121, time=22),\n",
       "    Message('control_change', channel=0, control=64, value=125, time=38),\n",
       "    Message('note_on', channel=0, note=60, velocity=0, time=91),\n",
       "    Message('note_on', channel=0, note=55, velocity=58, time=14),\n",
       "    Message('control_change', channel=0, control=64, value=109, time=5),\n",
       "    Message('note_on', channel=0, note=63, velocity=75, time=4),\n",
       "    Message('control_change', channel=0, control=64, value=81, time=16),\n",
       "    Message('control_change', channel=0, control=64, value=53, time=18),\n",
       "    Message('control_change', channel=0, control=64, value=0, time=17),\n",
       "    Message('control_change', channel=0, control=67, value=52, time=20),\n",
       "    Message('note_on', channel=0, note=67, velocity=74, time=4),\n",
       "    Message('note_on', channel=0, note=63, velocity=0, time=6),\n",
       "    Message('control_change', channel=0, control=64, value=33, time=26),\n",
       "    Message('control_change', channel=0, control=67, value=48, time=1),\n",
       "    Message('control_change', channel=0, control=64, value=61, time=19),\n",
       "    Message('control_change', channel=0, control=64, value=81, time=18),\n",
       "    Message('note_on', channel=0, note=72, velocity=80, time=1),\n",
       "    Message('note_on', channel=0, note=60, velocity=60, time=2),\n",
       "    Message('note_on', channel=0, note=55, velocity=0, time=15),\n",
       "    Message('control_change', channel=0, control=64, value=112, time=1),\n",
       "    Message('note_on', channel=0, note=67, velocity=0, time=16),\n",
       "    Message('control_change', channel=0, control=64, value=127, time=3),\n",
       "    Message('control_change', channel=0, control=67, value=43, time=1),\n",
       "    Message('note_on', channel=0, note=72, velocity=0, time=35),\n",
       "    Message('control_change', channel=0, control=67, value=39, time=73),\n",
       "    Message('note_on', channel=0, note=67, velocity=79, time=50),\n",
       "    Message('note_on', channel=0, note=55, velocity=61, time=1),\n",
       "    Message('note_on', channel=0, note=60, velocity=0, time=6),\n",
       "    Message('control_change', channel=0, control=64, value=107, time=16),\n",
       "    Message('control_change', channel=0, control=64, value=76, time=19),\n",
       "    Message('control_change', channel=0, control=64, value=43, time=16),\n",
       "    Message('note_on', channel=0, note=72, velocity=77, time=12),\n",
       "    Message('control_change', channel=0, control=64, value=0, time=6),\n",
       "    Message('control_change', channel=0, control=67, value=32, time=1),\n",
       "    Message('control_change', channel=0, control=67, value=27, time=18),\n",
       "    Message('note_on', channel=0, note=67, velocity=0, time=15),\n",
       "    Message('control_change', channel=0, control=67, value=18, time=5),\n",
       "    Message('control_change', channel=0, control=64, value=20, time=18),\n",
       "    Message('note_on', channel=0, note=75, velocity=82, time=15),\n",
       "    Message('control_change', channel=0, control=64, value=56, time=3),\n",
       "    Message('note_on', channel=0, note=55, velocity=0, time=3),\n",
       "    Message('note_on', channel=0, note=51, velocity=69, time=2),\n",
       "    Message('control_change', channel=0, control=64, value=77, time=14),\n",
       "    Message('note_on', channel=0, note=72, velocity=0, time=16),\n",
       "    Message('control_change', channel=0, control=64, value=105, time=3),\n",
       "    Message('control_change', channel=0, control=64, value=127, time=19),\n",
       "    Message('note_on', channel=0, note=75, velocity=0, time=14),\n",
       "    Message('control_change', channel=0, control=67, value=0, time=1),\n",
       "    Message('note_on', channel=0, note=55, velocity=67, time=103),\n",
       "    Message('note_on', channel=0, note=72, velocity=82, time=1),\n",
       "    Message('control_change', channel=0, control=64, value=119, time=8),\n",
       "    Message('control_change', channel=0, control=64, value=86, time=19),\n",
       "    Message('control_change', channel=0, control=64, value=54, time=18),\n",
       "    Message('control_change', channel=0, control=64, value=0, time=19),\n",
       "    Message('note_on', channel=0, note=75, velocity=83, time=12),\n",
       "    Message('note_on', channel=0, note=51, velocity=0, time=18),\n",
       "    Message('note_on', channel=0, note=72, velocity=0, time=24),\n",
       "    Message('control_change', channel=0, control=64, value=15, time=20),\n",
       "    Message('note_on', channel=0, note=60, velocity=66, time=10),\n",
       "    Message('note_on', channel=0, note=79, velocity=83, time=2),\n",
       "    Message('control_change', channel=0, control=64, value=56, time=5),\n",
       "    Message('control_change', channel=0, control=64, value=78, time=20),\n",
       "    Message('note_on', channel=0, note=55, velocity=0, time=1),\n",
       "    Message('note_on', channel=0, note=75, velocity=0, time=8),\n",
       "    Message('control_change', channel=0, control=64, value=104, time=8),\n",
       "    Message('control_change', channel=0, control=64, value=127, time=18),\n",
       "    Message('note_on', channel=0, note=79, velocity=0, time=8),\n",
       "    Message('note_on', channel=0, note=60, velocity=0, time=105),\n",
       "    Message('note_on', channel=0, note=79, velocity=87, time=7),\n",
       "    Message('note_on', channel=0, note=55, velocity=70, time=0),\n",
       "    Message('control_change', channel=0, control=64, value=82, time=29),\n",
       "    Message('control_change', channel=0, control=64, value=48, time=17),\n",
       "    Message('control_change', channel=0, control=64, value=0, time=19),\n",
       "    Message('control_change', channel=0, control=64, value=38, time=73),\n",
       "    Message('control_change', channel=0, control=64, value=65, time=20),\n",
       "    Message('note_on', channel=0, note=55, velocity=0, time=24),\n",
       "    Message('note_on', channel=0, note=75, velocity=83, time=1),\n",
       "    Message('note_on', channel=0, note=60, velocity=70, time=6),\n",
       "    Message('control_change', channel=0, control=64, value=84, time=2),\n",
       "    Message('control_change', channel=0, control=64, value=112, time=18),\n",
       "    Message('control_change', channel=0, control=64, value=127, time=19),\n",
       "    Message('note_on', channel=0, note=79, velocity=0, time=14),\n",
       "    Message('note_on', channel=0, note=60, velocity=0, time=91),\n",
       "    Message('note_on', channel=0, note=72, velocity=83, time=3),\n",
       "    Message('note_on', channel=0, note=55, velocity=73, time=1),\n",
       "    Message('note_on', channel=0, note=55, velocity=0, time=31),\n",
       "    Message('note_on', channel=0, note=75, velocity=0, time=22),\n",
       "    Message('control_change', channel=0, control=64, value=121, time=5),\n",
       "    Message('note_on', channel=0, note=72, velocity=0, time=15),\n",
       "    Message('control_change', channel=0, control=64, value=99, time=4),\n",
       "    Message('control_change', channel=0, control=64, value=79, time=19),\n",
       "    Message('control_change', channel=0, control=64, value=58, time=18),\n",
       "    Message('control_change', channel=0, control=64, value=28, time=18),\n",
       "    Message('control_change', channel=0, control=64, value=0, time=18),\n",
       "    Message('note_on', channel=0, note=55, velocity=14, time=14),\n",
       "    Message('note_on', channel=0, note=55, velocity=0, time=0),\n",
       "    Message('note_on', channel=0, note=78, velocity=83, time=67),\n",
       "    Message('control_change', channel=0, control=64, value=40, time=11),\n",
       "    Message('note_on', channel=0, note=39, velocity=82, time=3),\n",
       "    Message('note_on', channel=0, note=69, velocity=74, time=1),\n",
       "    Message('note_on', channel=0, note=75, velocity=74, time=1),\n",
       "    Message('note_on', channel=0, note=72, velocity=66, time=16),\n",
       "    Message('control_change', channel=0, control=64, value=73, time=0),\n",
       "    Message('control_change', channel=0, control=64, value=105, time=17),\n",
       "    Message('note_on', channel=0, note=39, velocity=0, time=12),\n",
       "    Message('control_change', channel=0, control=64, value=127, time=6),\n",
       "    Message('control_change', channel=0, control=67, value=8, time=38),\n",
       "    Message('note_on', channel=0, note=69, velocity=0, time=79),\n",
       "    Message('note_on', channel=0, note=72, velocity=0, time=48),\n",
       "    Message('note_on', channel=0, note=78, velocity=0, time=21),\n",
       "    Message('note_on', channel=0, note=56, velocity=13, time=27),\n",
       "    Message('note_on', channel=0, note=56, velocity=0, time=66),\n",
       "    Message('note_on', channel=0, note=60, velocity=74, time=12),\n",
       "    Message('note_on', channel=0, note=57, velocity=65, time=7),\n",
       "    Message('note_on', channel=0, note=54, velocity=68, time=6),\n",
       "    Message('note_on', channel=0, note=51, velocity=64, time=5),\n",
       "    Message('note_on', channel=0, note=60, velocity=0, time=72),\n",
       "    Message('note_on', channel=0, note=57, velocity=0, time=18),\n",
       "    Message('note_on', channel=0, note=75, velocity=0, time=1),\n",
       "    Message('note_on', channel=0, note=51, velocity=0, time=5),\n",
       "    Message('note_on', channel=0, note=54, velocity=0, time=11),\n",
       "    Message('note_on', channel=0, note=77, velocity=80, time=48),\n",
       "    Message('control_change', channel=0, control=64, value=113, time=63),\n",
       "    Message('control_change', channel=0, control=64, value=91, time=18),\n",
       "    Message('note_on', channel=0, note=75, velocity=77, time=13),\n",
       "    Message('control_change', channel=0, control=64, value=71, time=6),\n",
       "    Message('note_on', channel=0, note=77, velocity=0, time=11),\n",
       "    Message('control_change', channel=0, control=64, value=51, time=6),\n",
       "    Message('control_change', channel=0, control=64, value=34, time=20),\n",
       "    Message('control_change', channel=0, control=64, value=17, time=19),\n",
       "    Message('note_on', channel=0, note=73, velocity=83, time=24),\n",
       "    Message('note_on', channel=0, note=75, velocity=0, time=34),\n",
       "    Message('note_on', channel=0, note=72, velocity=77, time=38),\n",
       "    Message('note_on', channel=0, note=73, velocity=0, time=12),\n",
       "    Message('note_on', channel=0, note=72, velocity=0, time=51),\n",
       "    Message('note_on', channel=0, note=70, velocity=83, time=22),\n",
       "    Message('note_on', channel=0, note=70, velocity=0, time=76),\n",
       "    Message('note_on', channel=0, note=69, velocity=81, time=7),\n",
       "    Message('control_change', channel=0, control=64, value=0, time=29),\n",
       "    Message('note_on', channel=0, note=69, velocity=0, time=38),\n",
       "    Message('control_change', channel=0, control=67, value=16, time=18),\n",
       "    Message('note_on', channel=0, note=78, velocity=85, time=14),\n",
       "    Message('control_change', channel=0, control=67, value=22, time=4),\n",
       "    Message('note_on', channel=0, note=39, velocity=79, time=6),\n",
       "    Message('control_change', channel=0, control=64, value=22, time=15),\n",
       "    Message('control_change', channel=0, control=67, value=28, time=1),\n",
       "    Message('control_change', channel=0, control=64, value=51, time=15),\n",
       "    Message('control_change', channel=0, control=67, value=33, time=1),\n",
       "    Message('note_on', channel=0, note=39, velocity=0, time=13),\n",
       "    Message('control_change', channel=0, control=64, value=70, time=3),\n",
       "    Message('control_change', channel=0, control=67, value=39, time=1),\n",
       "    Message('control_change', channel=0, control=64, value=88, time=20),\n",
       "    Message('control_change', channel=0, control=67, value=47, time=2),\n",
       "    Message('control_change', channel=0, control=64, value=118, time=16),\n",
       "    Message('control_change', channel=0, control=67, value=53, time=1),\n",
       "    Message('control_change', channel=0, control=64, value=127, time=18),\n",
       "    Message('control_change', channel=0, control=67, value=59, time=1),\n",
       "    Message('control_change', channel=0, control=67, value=63, time=15),\n",
       "    Message('note_on', channel=0, note=78, velocity=0, time=133),\n",
       "    Message('note_on', channel=0, note=60, velocity=70, time=77),\n",
       "    Message('note_on', channel=0, note=54, velocity=65, time=12),\n",
       "    Message('note_on', channel=0, note=51, velocity=63, time=3),\n",
       "    Message('note_on', channel=0, note=57, velocity=56, time=2),\n",
       "    Message('note_on', channel=0, note=60, velocity=0, time=78),\n",
       "    Message('note_on', channel=0, note=57, velocity=0, time=3),\n",
       "    Message('note_on', channel=0, note=51, velocity=0, time=7),\n",
       "    Message('note_on', channel=0, note=54, velocity=0, time=22),\n",
       "    Message('note_on', channel=0, note=77, velocity=74, time=47),\n",
       "    Message('control_change', channel=0, control=67, value=69, time=0),\n",
       "    Message('control_change', channel=0, control=67, value=73, time=18),\n",
       "    Message('control_change', channel=0, control=67, value=81, time=37),\n",
       "    Message('control_change', channel=0, control=64, value=115, time=18),\n",
       "    Message('control_change', channel=0, control=67, value=87, time=1),\n",
       "    Message('note_on', channel=0, note=75, velocity=82, time=9),\n",
       "    Message('control_change', channel=0, control=64, value=101, time=9),\n",
       "    Message('control_change', channel=0, control=67, value=93, time=1),\n",
       "    Message('note_on', channel=0, note=77, velocity=0, time=3),\n",
       "    Message('control_change', channel=0, control=64, value=86, time=15),\n",
       "    Message('control_change', channel=0, control=67, value=99, time=1),\n",
       "    Message('control_change', channel=0, control=64, value=72, time=17),\n",
       "    Message('control_change', channel=0, control=67, value=106, time=2),\n",
       "    Message('control_change', channel=0, control=64, value=57, time=18),\n",
       "    Message('control_change', channel=0, control=67, value=113, time=2),\n",
       "    Message('note_on', channel=0, note=73, velocity=78, time=15),\n",
       "    Message('control_change', channel=0, control=64, value=47, time=0),\n",
       "    Message('control_change', channel=0, control=67, value=119, time=1),\n",
       "    Message('note_on', channel=0, note=75, velocity=0, time=16),\n",
       "    Message('control_change', channel=0, control=64, value=41, time=4),\n",
       "    Message('control_change', channel=0, control=67, value=126, time=1),\n",
       "    Message('control_change', channel=0, control=64, value=37, time=17),\n",
       "    Message('note_on', channel=0, note=72, velocity=77, time=21),\n",
       "    Message('control_change', channel=0, control=64, value=31, time=16),\n",
       "    Message('note_on', channel=0, note=73, velocity=0, time=2),\n",
       "    Message('control_change', channel=0, control=64, value=25, time=35),\n",
       "    Message('note_on', channel=0, note=72, velocity=0, time=18),\n",
       "    Message('note_on', channel=0, note=70, velocity=80, time=29),\n",
       "    Message('note_on', channel=0, note=69, velocity=76, time=83),\n",
       "    Message('note_on', channel=0, note=70, velocity=0, time=5),\n",
       "    Message('control_change', channel=0, control=64, value=21, time=13),\n",
       "    Message('note_on', channel=0, note=69, velocity=0, time=20),\n",
       "    Message('control_change', channel=0, control=64, value=15, time=72),\n",
       "    Message('note_on', channel=0, note=70, velocity=74, time=12),\n",
       "    Message('note_on', channel=0, note=49, velocity=54, time=8),\n",
       "    Message('control_change', channel=0, control=64, value=10, time=14),\n",
       "    Message('note_on', channel=0, note=49, velocity=0, time=124),\n",
       "    Message('control_change', channel=0, control=64, value=0, time=23),\n",
       "    Message('note_on', channel=0, note=53, velocity=56, time=0),\n",
       "    Message('note_on', channel=0, note=53, velocity=0, time=171),\n",
       "    Message('note_on', channel=0, note=58, velocity=56, time=21),\n",
       "    Message('note_on', channel=0, note=70, velocity=0, time=49),\n",
       "    Message('note_on', channel=0, note=65, velocity=65, time=32),\n",
       "    Message('note_on', channel=0, note=65, velocity=0, time=60),\n",
       "    Message('note_on', channel=0, note=58, velocity=0, time=6),\n",
       "    Message('note_on', channel=0, note=53, velocity=53, time=26),\n",
       "    Message('note_on', channel=0, note=70, velocity=73, time=0),\n",
       "    Message('note_on', channel=0, note=70, velocity=0, time=79),\n",
       "    Message('note_on', channel=0, note=65, velocity=72, time=7),\n",
       "    Message('note_on', channel=0, note=73, velocity=67, time=54),\n",
       "    Message('note_on', channel=0, note=53, velocity=0, time=8),\n",
       "    Message('note_on', channel=0, note=65, velocity=0, time=11),\n",
       "    Message('note_on', channel=0, note=58, velocity=56, time=9),\n",
       "    Message('note_on', channel=0, note=70, velocity=78, time=51),\n",
       "    Message('note_on', channel=0, note=73, velocity=0, time=2),\n",
       "    Message('note_on', channel=0, note=58, velocity=0, time=81),\n",
       "    Message('note_on', channel=0, note=73, velocity=76, time=7),\n",
       "    Message('note_on', channel=0, note=70, velocity=0, time=10),\n",
       "    Message('note_on', channel=0, note=53, velocity=56, time=4),\n",
       "    Message('note_on', channel=0, note=73, velocity=0, time=39),\n",
       "    Message('note_on', channel=0, note=70, velocity=67, time=17),\n",
       "    Message('note_on', channel=0, note=70, velocity=0, time=63),\n",
       "    Message('note_on', channel=0, note=53, velocity=0, time=20),\n",
       "    Message('note_on', channel=0, note=77, velocity=77, time=13),\n",
       "    Message('note_on', channel=0, note=49, velocity=62, time=4),\n",
       "    Message('note_on', channel=0, note=77, velocity=0, time=75),\n",
       "    Message('note_on', channel=0, note=73, velocity=67, time=6),\n",
       "    Message('note_on', channel=0, note=77, velocity=73, time=68),\n",
       "    Message('note_on', channel=0, note=73, velocity=0, time=2),\n",
       "    Message('note_on', channel=0, note=49, velocity=0, time=3),\n",
       "    Message('note_on', channel=0, note=53, velocity=53, time=10),\n",
       "    Message('note_on', channel=0, note=77, velocity=0, time=54),\n",
       "    Message('note_on', channel=0, note=73, velocity=61, time=38),\n",
       "    Message('note_on', channel=0, note=73, velocity=0, time=42),\n",
       "    Message('note_on', channel=0, note=53, velocity=0, time=25),\n",
       "    Message('note_on', channel=0, note=58, velocity=59, time=19),\n",
       "    Message('note_on', channel=0, note=82, velocity=70, time=3),\n",
       "    Message('control_change', channel=0, control=64, value=27, time=76),\n",
       "    Message('control_change', channel=0, control=64, value=52, time=18),\n",
       "    Message('control_change', channel=0, control=64, value=70, time=19),\n",
       "    Message('control_change', channel=0, control=64, value=90, time=18),\n",
       "    Message('note_on', channel=0, note=58, velocity=0, time=3),\n",
       "    Message('note_on', channel=0, note=82, velocity=0, time=6),\n",
       "    Message('control_change', channel=0, control=64, value=127, time=10),\n",
       "    Message('note_on', channel=0, note=53, velocity=59, time=17),\n",
       "    Message('control_change', channel=0, control=64, value=110, time=130),\n",
       "    Message('note_on', channel=0, note=53, velocity=0, time=14),\n",
       "    Message('control_change', channel=0, control=64, value=90, time=3),\n",
       "    Message('control_change', channel=0, control=64, value=74, time=20),\n",
       "    Message('note_on', channel=0, note=58, velocity=62, time=8),\n",
       "    Message('control_change', channel=0, control=64, value=63, time=10),\n",
       "    Message('control_change', channel=0, control=64, value=56, time=20),\n",
       "    Message('control_change', channel=0, control=64, value=52, time=17),\n",
       "    Message('control_change', channel=0, control=64, value=48, time=19),\n",
       "    Message('control_change', channel=0, control=64, value=43, time=19),\n",
       "    Message('control_change', channel=0, control=64, value=35, time=17),\n",
       "    Message('control_change', channel=0, control=64, value=25, time=18),\n",
       "    Message('control_change', channel=0, control=64, value=18, time=19),\n",
       "    Message('note_on', channel=0, note=53, velocity=64, time=13),\n",
       "    Message('note_on', channel=0, note=58, velocity=0, time=10),\n",
       "    Message('control_change', channel=0, control=64, value=12, time=13),\n",
       "    Message('control_change', channel=0, control=64, value=0, time=57),\n",
       "    Message('note_on', channel=0, note=69, velocity=79, time=101),\n",
       "    Message('note_on', channel=0, note=53, velocity=0, time=3),\n",
       "    Message('note_on', channel=0, note=48, velocity=65, time=7),\n",
       "    Message('note_on', channel=0, note=53, velocity=62, time=165),\n",
       "    Message('note_on', channel=0, note=48, velocity=0, time=37),\n",
       "    Message('note_on', channel=0, note=53, velocity=0, time=120),\n",
       "    Message('note_on', channel=0, note=57, velocity=60, time=11),\n",
       "    Message('note_on', channel=0, note=69, velocity=0, time=52),\n",
       "    Message('note_on', channel=0, note=65, velocity=64, time=36),\n",
       "    Message('note_on', channel=0, note=65, velocity=0, time=52),\n",
       "    Message('note_on', channel=0, note=53, velocity=58, time=18),\n",
       "    Message('note_on', channel=0, note=57, velocity=0, time=2),\n",
       "    Message('note_on', channel=0, note=69, velocity=74, time=14),\n",
       "    Message('note_on', channel=0, note=65, velocity=76, time=70),\n",
       "    Message('note_on', channel=0, note=69, velocity=0, time=1),\n",
       "    Message('note_on', channel=0, note=53, velocity=0, time=49),\n",
       "    Message('note_on', channel=0, note=57, velocity=60, time=19),\n",
       "    Message('note_on', channel=0, note=72, velocity=76, time=1),\n",
       "    Message('note_on', channel=0, note=65, velocity=0, time=21),\n",
       "    Message('note_on', channel=0, note=69, velocity=79, time=51),\n",
       "    Message('note_on', channel=0, note=72, velocity=0, time=2),\n",
       "    Message('note_on', channel=0, note=57, velocity=0, time=72),\n",
       "    Message('note_on', channel=0, note=53, velocity=59, time=2),\n",
       "    Message('note_on', channel=0, note=69, velocity=0, time=7),\n",
       "    Message('note_on', channel=0, note=72, velocity=77, time=10),\n",
       "    Message('note_on', channel=0, note=72, velocity=0, time=50),\n",
       "    Message('note_on', channel=0, note=69, velocity=76, time=20),\n",
       "    Message('note_on', channel=0, note=53, velocity=0, time=73),\n",
       "    Message('note_on', channel=0, note=48, velocity=62, time=9),\n",
       "    Message('note_on', channel=0, note=77, velocity=78, time=2),\n",
       "    Message('note_on', channel=0, note=69, velocity=0, time=21),\n",
       "    Message('note_on', channel=0, note=77, velocity=0, time=42),\n",
       "    Message('note_on', channel=0, note=72, velocity=72, time=9),\n",
       "    Message('note_on', channel=0, note=48, velocity=0, time=87),\n",
       "    Message('note_on', channel=0, note=72, velocity=0, time=7),\n",
       "    Message('note_on', channel=0, note=77, velocity=73, time=4),\n",
       "    Message('note_on', channel=0, note=53, velocity=52, time=6),\n",
       "    Message('note_on', channel=0, note=77, velocity=0, time=67),\n",
       "    Message('note_on', channel=0, note=72, velocity=72, time=15),\n",
       "    Message('note_on', channel=0, note=72, velocity=0, time=37),\n",
       "    Message('note_on', channel=0, note=53, velocity=0, time=31),\n",
       "    Message('note_on', channel=0, note=81, velocity=75, time=9),\n",
       "    Message('note_on', channel=0, note=57, velocity=55, time=7),\n",
       "    Message('control_change', channel=0, control=64, value=30, time=65),\n",
       "    Message('control_change', channel=0, control=64, value=55, time=19),\n",
       "    Message('control_change', channel=0, control=64, value=72, time=16),\n",
       "    Message('note_on', channel=0, note=81, velocity=0, time=8),\n",
       "    Message('control_change', channel=0, control=64, value=87, time=12),\n",
       "    Message('control_change', channel=0, control=64, value=106, time=18),\n",
       "    Message('control_change', channel=0, control=64, value=122, time=19),\n",
       "    Message('note_on', channel=0, note=57, velocity=0, time=13),\n",
       "    Message('note_on', channel=0, note=53, velocity=56, time=1),\n",
       "    Message('control_change', channel=0, control=64, value=111, time=77),\n",
       "    Message('control_change', channel=0, control=64, value=95, time=19),\n",
       "    Message('control_change', channel=0, control=64, value=77, time=19),\n",
       "    Message('control_change', channel=0, control=64, value=59, time=19),\n",
       "    Message('control_change', channel=0, control=67, value=109, time=1),\n",
       "    Message('control_change', channel=0, control=64, value=44, time=18),\n",
       "    Message('control_change', channel=0, control=67, value=102, time=1),\n",
       "    Message('note_on', channel=0, note=57, velocity=64, time=13),\n",
       "    Message('note_on', channel=0, note=53, velocity=0, time=1),\n",
       "    Message('control_change', channel=0, control=64, value=35, time=3),\n",
       "    Message('control_change', channel=0, control=64, value=28, time=19),\n",
       "    Message('control_change', channel=0, control=67, value=109, time=2),\n",
       "    Message('control_change', channel=0, control=67, value=113, time=17),\n",
       "    Message('control_change', channel=0, control=67, value=119, time=17),\n",
       "    Message('control_change', channel=0, control=67, value=124, time=17),\n",
       "    Message('note_on', channel=0, note=57, velocity=0, time=75),\n",
       "    Message('note_on', channel=0, note=53, velocity=61, time=6),\n",
       "    Message('control_change', channel=0, control=64, value=23, time=12),\n",
       "    Message('control_change', channel=0, control=64, value=19, time=112),\n",
       "    Message('note_on', channel=0, note=53, velocity=0, time=19),\n",
       "    Message('control_change', channel=0, control=64, value=15, time=17),\n",
       "    Message('note_on', channel=0, note=68, velocity=76, time=9),\n",
       "    Message('control_change', channel=0, control=64, value=11, time=9),\n",
       "    Message('note_on', channel=0, note=47, velocity=62, time=4),\n",
       "    Message('control_change', channel=0, control=64, value=0, time=46),\n",
       "    Message('control_change', channel=0, control=67, value=119, time=20),\n",
       "    Message('control_change', channel=0, control=67, value=113, time=55),\n",
       "    Message('control_change', channel=0, control=67, value=106, time=38),\n",
       "    Message('note_on', channel=0, note=53, velocity=66, time=20),\n",
       "    Message('control_change', channel=0, control=67, value=101, time=16),\n",
       "    Message('note_on', channel=0, note=47, velocity=0, time=6),\n",
       "    Message('note_on', channel=0, note=53, velocity=0, time=127),\n",
       "    Message('note_on', channel=0, note=56, velocity=65, time=7),\n",
       "    Message('control_change', channel=0, control=67, value=105, time=10),\n",
       "    Message('note_on', channel=0, note=68, velocity=0, time=48),\n",
       "    Message('note_on', channel=0, note=65, velocity=72, time=22),\n",
       "    Message('note_on', channel=0, note=56, velocity=0, time=50),\n",
       "    Message('note_on', channel=0, note=65, velocity=0, time=23),\n",
       "    Message('note_on', channel=0, note=53, velocity=60, time=7),\n",
       "    Message('note_on', channel=0, note=68, velocity=76, time=16),\n",
       "    Message('note_on', channel=0, note=65, velocity=71, time=74),\n",
       "    Message('note_on', channel=0, note=68, velocity=0, time=6),\n",
       "    Message('note_on', channel=0, note=53, velocity=0, time=56),\n",
       "    Message('note_on', channel=0, note=56, velocity=68, time=6),\n",
       "    Message('note_on', channel=0, note=65, velocity=0, time=5),\n",
       "    Message('note_on', channel=0, note=74, velocity=72, time=6),\n",
       "    Message('note_on', channel=0, note=68, velocity=73, time=67),\n",
       "    Message('control_change', channel=0, control=67, value=101, time=15),\n",
       "    Message('note_on', channel=0, note=74, velocity=0, time=0),\n",
       "    Message('control_change', channel=0, control=67, value=97, time=38),\n",
       "    Message('note_on', channel=0, note=56, velocity=0, time=1),\n",
       "    Message('control_change', channel=0, control=67, value=92, time=18),\n",
       "    Message('control_change', channel=0, control=67, value=87, time=19),\n",
       "    Message('note_on', channel=0, note=53, velocity=60, time=0),\n",
       "    Message('note_on', channel=0, note=68, velocity=0, time=6),\n",
       "    Message('note_on', channel=0, note=74, velocity=76, time=3),\n",
       "    Message('control_change', channel=0, control=67, value=83, time=63),\n",
       "    Message('note_on', channel=0, note=68, velocity=78, time=17),\n",
       "    Message('note_on', channel=0, note=74, velocity=0, time=3),\n",
       "    Message('control_change', channel=0, control=67, value=76, time=36),\n",
       "    Message('control_change', channel=0, control=67, value=71, time=33),\n",
       "    Message('note_on', channel=0, note=53, velocity=0, time=3),\n",
       "    Message('note_on', channel=0, note=68, velocity=0, time=5),\n",
       "    Message('note_on', channel=0, note=77, velocity=78, time=11),\n",
       "    Message('control_change', channel=0, control=67, value=66, time=0),\n",
       "    Message('note_on', channel=0, note=47, velocity=70, time=2),\n",
       "    Message('note_on', channel=0, note=77, velocity=0, time=51),\n",
       "    Message('note_on', channel=0, note=74, velocity=81, time=23),\n",
       "    Message('control_change', channel=0, control=67, value=61, time=18),\n",
       "    Message('note_on', channel=0, note=74, velocity=0, time=57),\n",
       "    Message('note_on', channel=0, note=77, velocity=80, time=6),\n",
       "    Message('note_on', channel=0, note=53, velocity=68, time=3),\n",
       "    Message('note_on', channel=0, note=47, velocity=0, time=9),\n",
       "    Message('control_change', channel=0, control=64, value=9, time=70),\n",
       "    Message('note_on', channel=0, note=74, velocity=76, time=2),\n",
       "    Message('note_on', channel=0, note=77, velocity=0, time=3),\n",
       "    Message('control_change', channel=0, control=67, value=57, time=13),\n",
       "    Message('note_on', channel=0, note=74, velocity=0, time=22),\n",
       "    Message('control_change', channel=0, control=67, value=52, time=16),\n",
       "    Message('note_on', channel=0, note=53, velocity=0, time=9),\n",
       "    Message('note_on', channel=0, note=56, velocity=72, time=21),\n",
       "    Message('note_on', channel=0, note=80, velocity=74, time=6),\n",
       "    Message('control_change', channel=0, control=64, value=14, time=1),\n",
       "    Message('control_change', channel=0, control=64, value=20, time=55),\n",
       "    Message('control_change', channel=0, control=67, value=48, time=0),\n",
       "    Message('control_change', channel=0, control=64, value=25, time=17),\n",
       "    Message('control_change', channel=0, control=64, value=29, time=20),\n",
       "    Message('note_on', channel=0, note=56, velocity=0, time=35),\n",
       "    Message('control_change', channel=0, control=67, value=41, time=0),\n",
       "    Message('control_change', channel=0, control=64, value=22, time=18),\n",
       "    Message('control_change', channel=0, control=67, value=35, time=1),\n",
       "    Message('note_on', channel=0, note=53, velocity=63, time=17),\n",
       "    Message('control_change', channel=0, control=67, value=27, time=2),\n",
       "    Message('control_change', channel=0, control=64, value=0, time=19),\n",
       "    Message('control_change', channel=0, control=67, value=18, time=1),\n",
       "    Message('control_change', channel=0, control=67, value=9, time=18),\n",
       "    Message('control_change', channel=0, control=64, value=13, time=36),\n",
       "    Message('control_change', channel=0, control=64, value=34, time=19),\n",
       "    Message('control_change', channel=0, control=64, value=52, time=16),\n",
       "    Message('control_change', channel=0, control=64, value=66, time=20),\n",
       "    Message('control_change', channel=0, control=67, value=0, time=1),\n",
       "    Message('control_change', channel=0, control=64, value=78, time=18),\n",
       "    Message('note_on', channel=0, note=53, velocity=0, time=10),\n",
       "    Message('control_change', channel=0, control=64, value=94, time=7),\n",
       "    Message('note_on', channel=0, note=56, velocity=59, time=6),\n",
       "    Message('note_on', channel=0, note=77, velocity=83, time=6),\n",
       "    Message('control_change', channel=0, control=64, value=115, time=6),\n",
       "    Message('control_change', channel=0, control=64, value=127, time=20),\n",
       "    Message('note_on', channel=0, note=80, velocity=0, time=8),\n",
       "    Message('note_on', channel=0, note=56, velocity=0, time=67),\n",
       "    Message('note_on', channel=0, note=77, velocity=0, time=1),\n",
       "    Message('note_on', channel=0, note=53, velocity=61, time=56),\n",
       "    Message('control_change', channel=0, control=64, value=117, time=104),\n",
       "    Message('control_change', channel=0, control=64, value=96, time=20),\n",
       "    Message('control_change', channel=0, control=64, value=76, time=17),\n",
       "    Message('note_on', channel=0, note=53, velocity=0, time=1),\n",
       "    Message('control_change', channel=0, control=64, value=58, time=19),\n",
       "    Message('control_change', channel=0, control=64, value=42, time=17),\n",
       "    Message('note_on', channel=0, note=72, velocity=73, time=1),\n",
       "    Message('note_on', channel=0, note=48, velocity=62, time=1),\n",
       "    Message('control_change', channel=0, control=64, value=26, time=18),\n",
       "    Message('control_change', channel=0, control=64, value=0, time=18),\n",
       "    Message('note_on', channel=0, note=76, velocity=80, time=17),\n",
       "    Message('note_on', channel=0, note=72, velocity=0, time=18),\n",
       "    Message('note_on', channel=0, note=79, velocity=80, time=45),\n",
       "    Message('note_on', channel=0, note=76, velocity=0, time=19),\n",
       "    Message('note_on', channel=0, note=84, velocity=80, time=28),\n",
       "    Message('note_on', channel=0, note=52, velocity=68, time=5),\n",
       "    Message('note_on', channel=0, note=48, velocity=0, time=1),\n",
       "    Message('note_on', channel=0, note=79, velocity=0, time=0),\n",
       "    Message('note_on', channel=0, note=55, velocity=65, time=178),\n",
       "    Message('note_on', channel=0, note=52, velocity=0, time=5),\n",
       "    Message('note_on', channel=0, note=60, velocity=65, time=159),\n",
       "    Message('note_on', channel=0, note=55, velocity=0, time=4),\n",
       "    Message('note_on', channel=0, note=84, velocity=0, time=83),\n",
       "    Message('note_on', channel=0, note=60, velocity=0, time=48),\n",
       "    Message('note_on', channel=0, note=82, velocity=81, time=29),\n",
       "    Message('note_on', channel=0, note=53, velocity=66, time=21),\n",
       "    Message('note_on', channel=0, note=80, velocity=82, time=65),\n",
       "    Message('note_on', channel=0, note=82, velocity=0, time=72),\n",
       "    Message('note_on', channel=0, note=53, velocity=0, time=13),\n",
       "    Message('note_on', channel=0, note=56, velocity=68, time=6),\n",
       "    Message('note_on', channel=0, note=79, velocity=84, time=10),\n",
       "    Message('note_on', channel=0, note=80, velocity=0, time=56),\n",
       "    Message('note_on', channel=0, note=77, velocity=82, time=12),\n",
       "    Message('note_on', channel=0, note=79, velocity=0, time=13),\n",
       "    Message('note_on', channel=0, note=56, velocity=0, time=25),\n",
       "    Message('note_on', channel=0, note=77, velocity=0, time=14),\n",
       "    Message('note_on', channel=0, note=84, velocity=86, time=36),\n",
       "    Message('note_on', channel=0, note=48, velocity=77, time=9),\n",
       "    Message('note_on', channel=0, note=52, velocity=72, time=180),\n",
       "    Message('note_on', channel=0, note=48, velocity=0, time=31),\n",
       "    Message('note_on', channel=0, note=55, velocity=73, time=141),\n",
       "    Message('note_on', channel=0, note=52, velocity=0, time=49),\n",
       "    Message('note_on', channel=0, note=60, velocity=69, time=119),\n",
       "    Message('note_on', channel=0, note=55, velocity=0, time=26),\n",
       "    Message('note_on', channel=0, note=84, velocity=0, time=75),\n",
       "    Message('note_on', channel=0, note=60, velocity=0, time=55),\n",
       "    Message('note_on', channel=0, note=82, velocity=80, time=5),\n",
       "    Message('note_on', channel=0, note=53, velocity=74, time=13),\n",
       "    Message('note_on', channel=0, note=80, velocity=80, time=81),\n",
       "    Message('control_change', channel=0, control=64, value=28, time=21),\n",
       "    Message('control_change', channel=0, control=64, value=53, time=20),\n",
       "    Message('note_on', channel=0, note=82, velocity=0, time=15),\n",
       "    Message('control_change', channel=0, control=64, value=69, time=2),\n",
       "    Message('control_change', channel=0, control=64, value=81, time=20),\n",
       "    Message('note_on', channel=0, note=56, velocity=72, time=1),\n",
       "    Message('note_on', channel=0, note=53, velocity=0, time=4),\n",
       "    Message('note_on', channel=0, note=79, velocity=82, time=5),\n",
       "    Message('control_change', channel=0, control=64, value=92, time=8),\n",
       "    Message('control_change', channel=0, control=64, value=98, time=20),\n",
       "    Message('note_on', channel=0, note=80, velocity=0, time=25),\n",
       "    Message('note_on', channel=0, note=77, velocity=81, time=10),\n",
       "    Message('control_change', channel=0, control=64, value=93, time=19),\n",
       "    Message('note_on', channel=0, note=79, velocity=0, time=1),\n",
       "    Message('note_on', channel=0, note=56, velocity=0, time=2),\n",
       "    Message('note_on', channel=0, note=77, velocity=0, time=11),\n",
       "    Message('control_change', channel=0, control=64, value=80, time=4),\n",
       "    Message('control_change', channel=0, control=64, value=65, time=19),\n",
       "    Message('control_change', channel=0, control=64, value=48, time=18),\n",
       "    Message('control_change', channel=0, control=64, value=37, time=17),\n",
       "    Message('control_change', channel=0, control=64, value=29, time=19),\n",
       "    Message('note_on', channel=0, note=72, velocity=83, time=3),\n",
       "    Message('note_on', channel=0, note=60, velocity=80, time=10),\n",
       "    Message('control_change', channel=0, control=64, value=23, time=6),\n",
       "    Message('control_change', channel=0, control=64, value=14, time=38),\n",
       "    Message('control_change', channel=0, control=64, value=0, time=18),\n",
       "    Message('control_change', channel=0, control=64, value=19, time=128),\n",
       "    Message('control_change', channel=0, control=64, value=41, time=18),\n",
       "    Message('control_change', channel=0, control=64, value=55, time=19),\n",
       "    Message('control_change', channel=0, control=64, value=64, time=18),\n",
       "    Message('control_change', channel=0, control=64, value=70, time=19),\n",
       "    Message('control_change', channel=0, control=64, value=76, time=19),\n",
       "    Message('control_change', channel=0, control=64, value=85, time=19),\n",
       "    Message('control_change', channel=0, control=64, value=93, time=17),\n",
       "    Message('control_change', channel=0, control=64, value=101, time=18),\n",
       "    Message('control_change', channel=0, control=64, value=107, time=20),\n",
       "    Message('control_change', channel=0, control=64, value=113, time=18),\n",
       "    Message('control_change', channel=0, control=64, value=117, time=35),\n",
       "    Message('note_on', channel=0, note=72, velocity=0, time=4),\n",
       "    Message('note_on', channel=0, note=60, velocity=0, time=5),\n",
       "    Message('note_on', channel=0, note=61, velocity=70, time=36),\n",
       "    Message('control_change', channel=0, control=64, value=112, time=12),\n",
       "    Message('note_on', channel=0, note=73, velocity=76, time=1),\n",
       "    Message('control_change', channel=0, control=64, value=101, time=18),\n",
       "    Message('control_change', channel=0, control=64, value=85, time=18),\n",
       "    Message('control_change', channel=0, control=64, value=68, time=19),\n",
       "    Message('note_on', channel=0, note=61, velocity=0, time=9),\n",
       "    Message('control_change', channel=0, control=64, value=49, time=6),\n",
       "    Message('note_on', channel=0, note=60, velocity=78, time=3),\n",
       "    Message('note_on', channel=0, note=72, velocity=77, time=5),\n",
       "    Message('note_on', channel=0, note=73, velocity=0, time=2),\n",
       "    Message('control_change', channel=0, control=64, value=33, time=11),\n",
       "    Message('control_change', channel=0, control=64, value=15, time=18),\n",
       "    Message('control_change', channel=0, control=64, value=8, time=19),\n",
       "    Message('note_on', channel=0, note=58, velocity=81, time=40),\n",
       "    Message('note_on', channel=0, note=70, velocity=80, time=9),\n",
       "    Message('note_on', channel=0, note=60, velocity=0, time=3),\n",
       "    Message('note_on', channel=0, note=72, velocity=0, time=17),\n",
       "    Message('note_on', channel=0, note=56, velocity=74, time=54),\n",
       "    Message('note_on', channel=0, note=68, velocity=79, time=3),\n",
       "    Message('note_on', channel=0, note=58, velocity=0, time=38),\n",
       "    Message('note_on', channel=0, note=70, velocity=0, time=33),\n",
       "    Message('note_on', channel=0, note=67, velocity=82, time=8),\n",
       "    Message('note_on', channel=0, note=55, velocity=76, time=3),\n",
       "    Message('note_on', channel=0, note=56, velocity=0, time=4),\n",
       "    Message('note_on', channel=0, note=68, velocity=0, time=45),\n",
       "    Message('note_on', channel=0, note=65, velocity=82, time=19),\n",
       "    Message('note_on', channel=0, note=53, velocity=63, time=3),\n",
       "    Message('note_on', channel=0, note=55, velocity=0, time=2),\n",
       "    Message('note_on', channel=0, note=67, velocity=0, time=3),\n",
       "    Message('control_change', channel=0, control=64, value=0, time=24),\n",
       "    Message('note_on', channel=0, note=53, velocity=0, time=13),\n",
       "    Message('note_on', channel=0, note=65, velocity=0, time=40),\n",
       "    Message('note_on', channel=0, note=72, velocity=82, time=9),\n",
       "    Message('note_on', channel=0, note=60, velocity=83, time=8),\n",
       "    Message('note_on', channel=0, note=60, velocity=0, time=36),\n",
       "    Message('note_on', channel=0, note=72, velocity=0, time=16),\n",
       "    Message('control_change', channel=0, control=67, value=9, time=101),\n",
       "    Message('control_change', channel=0, control=67, value=15, time=38),\n",
       "    Message('control_change', channel=0, control=64, value=10, time=110),\n",
       "    Message('control_change', channel=0, control=64, value=25, time=19),\n",
       "    Message('control_change', channel=0, control=64, value=39, time=18),\n",
       "    Message('control_change', channel=0, control=64, value=50, time=17),\n",
       "    Message('control_change', channel=0, control=67, value=21, time=1),\n",
       "    Message('control_change', channel=0, control=64, value=59, time=19),\n",
       "    Message('control_change', channel=0, control=67, value=25, time=1),\n",
       "    Message('control_change', channel=0, control=64, value=66, time=17),\n",
       "    Message('control_change', channel=0, control=64, value=72, time=18),\n",
       "    Message('control_change', channel=0, control=67, value=32, time=3),\n",
       "    Message('note_on', channel=0, note=60, velocity=70, time=11),\n",
       "    Message('control_change', channel=0, control=64, value=81, time=5),\n",
       "    Message('note_on', channel=0, note=48, velocity=65, time=17),\n",
       "    Message('note_on', channel=0, note=36, velocity=54, time=0),\n",
       "    Message('control_change', channel=0, control=64, value=98, time=2),\n",
       "    Message('control_change', channel=0, control=67, value=38, time=3),\n",
       "    Message('control_change', channel=0, control=64, value=127, time=16),\n",
       "    Message('control_change', channel=0, control=67, value=43, time=0),\n",
       "    Message('note_on', channel=0, note=48, velocity=0, time=16),\n",
       "    Message('control_change', channel=0, control=67, value=49, time=0),\n",
       "    Message('control_change', channel=0, control=67, value=55, time=19),\n",
       "    Message('note_on', channel=0, note=36, velocity=0, time=3),\n",
       "    Message('note_on', channel=0, note=60, velocity=0, time=0),\n",
       "    Message('control_change', channel=0, control=67, value=60, time=35),\n",
       "    Message('control_change', channel=0, control=67, value=64, time=162),\n",
       "    Message('control_change', channel=0, control=67, value=68, time=54),\n",
       "    Message('control_change', channel=0, control=67, value=73, time=37),\n",
       "    Message('control_change', channel=0, control=67, value=80, time=36),\n",
       "    Message('control_change', channel=0, control=67, value=85, time=38),\n",
       "    Message('control_change', channel=0, control=64, value=103, time=38),\n",
       "    Message('control_change', channel=0, control=67, value=90, time=1),\n",
       "    Message('control_change', channel=0, control=64, value=80, time=18),\n",
       "    Message('control_change', channel=0, control=67, value=99, time=0),\n",
       "    Message('control_change', channel=0, control=64, value=58, time=17),\n",
       "    Message('control_change', channel=0, control=67, value=121, time=2),\n",
       "    Message('control_change', channel=0, control=64, value=36, time=17),\n",
       "    Message('control_change', channel=0, control=67, value=127, time=2),\n",
       "    Message('control_change', channel=0, control=64, value=16, time=16),\n",
       "    Message('control_change', channel=0, control=64, value=0, time=16),\n",
       "    Message('note_on', channel=0, note=41, velocity=59, time=211),\n",
       "    Message('note_on', channel=0, note=60, velocity=47, time=42),\n",
       "    Message('note_on', channel=0, note=48, velocity=60, time=48),\n",
       "    Message('note_on', channel=0, note=41, velocity=0, time=16),\n",
       "    Message('note_on', channel=0, note=69, velocity=66, time=23),\n",
       "    Message('note_on', channel=0, note=60, velocity=0, time=14),\n",
       "    Message('note_on', channel=0, note=53, velocity=64, time=21),\n",
       "    Message('note_on', channel=0, note=48, velocity=0, time=16),\n",
       "    Message('note_on', channel=0, note=69, velocity=0, time=23),\n",
       "    Message('note_on', channel=0, note=69, velocity=71, time=316),\n",
       "    Message('note_on', channel=0, note=69, velocity=0, time=63),\n",
       "    Message('note_on', channel=0, note=53, velocity=0, time=8),\n",
       "    Message('note_on', channel=0, note=69, velocity=66, time=260),\n",
       "    Message('note_on', channel=0, note=69, velocity=0, time=54),\n",
       "    Message('note_on', channel=0, note=48, velocity=62, time=63),\n",
       "    Message('note_on', channel=0, note=55, velocity=64, time=80),\n",
       "    Message('note_on', channel=0, note=48, velocity=0, time=8),\n",
       "    Message('note_on', channel=0, note=64, velocity=62, time=73),\n",
       "    Message('note_on', channel=0, note=58, velocity=61, time=2),\n",
       "    Message('note_on', channel=0, note=55, velocity=0, time=14),\n",
       "    Message('note_on', channel=0, note=72, velocity=72, time=56),\n",
       "    Message('note_on', channel=0, note=64, velocity=0, time=36),\n",
       "    Message('control_change', channel=0, control=64, value=11, time=206),\n",
       "    Message('control_change', channel=0, control=64, value=38, time=18),\n",
       "    Message('control_change', channel=0, control=64, value=58, time=20),\n",
       "    Message('control_change', channel=0, control=64, value=68, time=16),\n",
       "    Message('control_change', channel=0, control=64, value=73, time=18),\n",
       "    Message('note_on', channel=0, note=58, velocity=0, time=22),\n",
       "    Message('control_change', channel=0, control=64, value=68, time=35),\n",
       "    Message('control_change', channel=0, control=64, value=62, time=18),\n",
       "    Message('control_change', channel=0, control=64, value=53, time=19),\n",
       "    Message('control_change', channel=0, control=64, value=43, time=20),\n",
       "    Message('control_change', channel=0, control=64, value=32, time=16),\n",
       "    Message('control_change', channel=0, control=64, value=21, time=18),\n",
       "    Message('control_change', channel=0, control=64, value=14, time=19),\n",
       "    Message('control_change', channel=0, control=64, value=10, time=19),\n",
       "    Message('note_on', channel=0, note=70, velocity=71, time=11),\n",
       "    Message('note_on', channel=0, note=72, velocity=0, time=1),\n",
       "    Message('control_change', channel=0, control=64, value=0, time=4),\n",
       "    Message('note_on', channel=0, note=70, velocity=0, time=136),\n",
       "    Message('note_on', channel=0, note=67, velocity=68, time=46),\n",
       "    Message('control_change', channel=0, control=64, value=30, time=4),\n",
       "    Message('control_change', channel=0, control=64, value=56, time=19),\n",
       "    Message('control_change', channel=0, control=64, value=71, time=18),\n",
       "    Message('control_change', channel=0, control=64, value=85, time=17),\n",
       "    Message('note_on', channel=0, note=67, velocity=0, time=18),\n",
       "    Message('control_change', channel=0, control=64, value=103, time=1),\n",
       "    Message('control_change', channel=0, control=64, value=127, time=18),\n",
       "    Message('control_change', channel=0, control=64, value=105, time=167),\n",
       "    Message('control_change', channel=0, control=64, value=83, time=32),\n",
       "    Message('control_change', channel=0, control=64, value=62, time=20),\n",
       "    Message('control_change', channel=0, control=64, value=37, time=17),\n",
       "    Message('note_on', channel=0, note=67, velocity=73, time=14),\n",
       "    Message('control_change', channel=0, control=64, value=0, time=4),\n",
       "    Message('note_on', channel=0, note=41, velocity=55, time=13),\n",
       "    Message('note_on', channel=0, note=57, velocity=52, time=18),\n",
       "    Message('note_on', channel=0, note=65, velocity=69, time=132),\n",
       "    Message('note_on', channel=0, note=57, velocity=0, time=25),\n",
       "    Message('note_on', channel=0, note=41, velocity=0, time=12),\n",
       "    Message('note_on', channel=0, note=67, velocity=0, time=13),\n",
       "    Message('note_on', channel=0, note=65, velocity=0, time=43),\n",
       "    Message('note_on', channel=0, note=65, velocity=68, time=80),\n",
       "    Message('note_on', channel=0, note=45, velocity=59, time=18),\n",
       "    Message('note_on', channel=0, note=60, velocity=59, time=2),\n",
       "    Message('note_on', channel=0, note=45, velocity=0, time=110),\n",
       "    Message('note_on', channel=0, note=48, velocity=57, time=213),\n",
       "    Message('note_on', channel=0, note=48, velocity=0, time=107),\n",
       "    Message('note_on', channel=0, note=67, velocity=64, time=46),\n",
       "    Message('note_on', channel=0, note=65, velocity=0, time=13),\n",
       "    Message('note_on', channel=0, note=64, velocity=64, time=3),\n",
       "    Message('note_on', channel=0, note=60, velocity=0, time=57),\n",
       "    Message('note_on', channel=0, note=64, velocity=0, time=19),\n",
       "    Message('note_on', channel=0, note=67, velocity=0, time=18),\n",
       "    Message('note_on', channel=0, note=67, velocity=66, time=114),\n",
       "    Message('note_on', channel=0, note=53, velocity=56, time=11),\n",
       "    Message('note_on', channel=0, note=64, velocity=59, time=6),\n",
       "    Message('note_on', channel=0, note=53, velocity=0, time=131),\n",
       "    Message('note_on', channel=0, note=41, velocity=49, time=248),\n",
       "    Message('note_on', channel=0, note=41, velocity=0, time=205),\n",
       "    Message('note_on', channel=0, note=64, velocity=0, time=70),\n",
       "    Message('note_on', channel=0, note=69, velocity=60, time=54),\n",
       "    Message('control_change', channel=0, control=64, value=13, time=5),\n",
       "    Message('note_on', channel=0, note=65, velocity=56, time=10),\n",
       "    Message('control_change', channel=0, control=64, value=48, time=8),\n",
       "    Message('control_change', channel=0, control=64, value=67, time=33),\n",
       "    Message('note_on', channel=0, note=67, velocity=0, time=1),\n",
       "    Message('control_change', channel=0, control=64, value=81, time=17),\n",
       "    Message('control_change', channel=0, control=64, value=102, time=19),\n",
       "    Message('control_change', channel=0, control=64, value=127, time=18),\n",
       "    Message('note_on', channel=0, note=65, velocity=0, time=14),\n",
       "    Message('note_on', channel=0, note=69, velocity=0, time=6),\n",
       "    Message('control_change', channel=0, control=64, value=112, time=146),\n",
       "    Message('control_change', channel=0, control=64, value=96, time=18),\n",
       "    Message('control_change', channel=0, control=64, value=79, time=19),\n",
       "    Message('control_change', channel=0, control=64, value=62, time=18),\n",
       "    Message('control_change', channel=0, control=64, value=45, time=19),\n",
       "    Message('control_change', channel=0, control=64, value=32, time=19),\n",
       "    Message('note_on', channel=0, note=70, velocity=62, time=9),\n",
       "    Message('control_change', channel=0, control=64, value=16, time=10),\n",
       "    Message('note_on', channel=0, note=50, velocity=51, time=7),\n",
       "    Message('control_change', channel=0, control=64, value=10, time=11),\n",
       "    Message('control_change', channel=0, control=64, value=0, time=55),\n",
       "    Message('note_on', channel=0, note=58, velocity=48, time=267),\n",
       "    Message('note_on', channel=0, note=53, velocity=50, time=15),\n",
       "    Message('control_change', channel=0, control=64, value=33, time=11),\n",
       "    Message('control_change', channel=0, control=64, value=53, time=19),\n",
       "    Message('note_on', channel=0, note=50, velocity=0, time=5),\n",
       "    Message('note_on', channel=0, note=70, velocity=0, time=1),\n",
       "    Message('control_change', channel=0, control=64, value=64, time=12),\n",
       "    Message('control_change', channel=0, control=64, value=71, time=19),\n",
       "    Message('control_change', channel=0, control=64, value=74, time=17),\n",
       "    Message('note_on', channel=0, note=72, velocity=46, time=1),\n",
       "    Message('note_on', channel=0, note=58, velocity=0, time=28),\n",
       "    Message('note_on', channel=0, note=53, velocity=0, time=22),\n",
       "    Message('note_on', channel=0, note=72, velocity=0, time=0),\n",
       "    Message('note_on', channel=0, note=70, velocity=65, time=2),\n",
       "    Message('control_change', channel=0, control=64, value=70, time=4),\n",
       "    Message('control_change', channel=0, control=64, value=63, time=20),\n",
       "    Message('control_change', channel=0, control=64, value=49, time=18),\n",
       "    Message('note_on', channel=0, note=70, velocity=0, time=2),\n",
       "    Message('note_on', channel=0, note=69, velocity=70, time=9),\n",
       "    Message('control_change', channel=0, control=64, value=33, time=8),\n",
       "    Message('control_change', channel=0, control=64, value=13, time=18),\n",
       "    Message('control_change', channel=0, control=64, value=0, time=33),\n",
       "    Message('note_on', channel=0, note=70, velocity=85, time=26),\n",
       "    Message('note_on', channel=0, note=69, velocity=0, time=2),\n",
       "    Message('note_on', channel=0, note=72, velocity=72, time=143),\n",
       "    Message('note_on', channel=0, note=70, velocity=0, time=69),\n",
       "    Message('control_change', channel=0, control=64, value=9, time=55),\n",
       "    Message('note_on', channel=0, note=74, velocity=71, time=37),\n",
       "    Message('note_on', channel=0, note=72, velocity=0, time=34),\n",
       "    Message('note_on', channel=0, note=74, velocity=0, time=40),\n",
       "    Message('note_on', channel=0, note=52, velocity=56, time=94),\n",
       "    Message('note_on', channel=0, note=74, velocity=65, time=5),\n",
       "    Message('control_change', channel=0, control=64, value=0, time=11),\n",
       "    Message('note_on', channel=0, note=72, velocity=66, time=147),\n",
       "    Message('note_on', channel=0, note=74, velocity=0, time=57),\n",
       "    Message('note_on', channel=0, note=71, velocity=68, time=119),\n",
       "    Message('note_on', channel=0, note=60, velocity=49, time=7),\n",
       "    Message('note_on', channel=0, note=55, velocity=49, time=8),\n",
       "    Message('note_on', channel=0, note=72, velocity=0, time=14),\n",
       "    Message('note_on', channel=0, note=52, velocity=0, time=12),\n",
       "    Message('note_on', channel=0, note=72, velocity=70, time=137),\n",
       "    Message('note_on', channel=0, note=60, velocity=0, time=9),\n",
       "    Message('note_on', channel=0, note=55, velocity=0, time=27),\n",
       "    Message('note_on', channel=0, note=71, velocity=0, time=3),\n",
       "    Message('note_on', channel=0, note=70, velocity=71, time=124),\n",
       "    Message('note_on', channel=0, note=72, velocity=0, time=47),\n",
       "    Message('note_on', channel=0, note=67, velocity=69, time=109),\n",
       "    Message('note_on', channel=0, note=70, velocity=0, time=58),\n",
       "    Message('note_on', channel=0, note=67, velocity=0, time=51),\n",
       "    Message('note_on', channel=0, note=68, velocity=73, time=64),\n",
       "    Message('note_on', channel=0, note=53, velocity=62, time=2),\n",
       "    Message('note_on', channel=0, note=53, velocity=0, time=145),\n",
       "    Message('note_on', channel=0, note=69, velocity=74, time=22),\n",
       "    Message('note_on', channel=0, note=68, velocity=0, time=36),\n",
       "    Message('note_on', channel=0, note=70, velocity=70, time=151),\n",
       "    Message('note_on', channel=0, note=53, velocity=54, time=3),\n",
       "    Message('note_on', channel=0, note=50, velocity=57, time=1),\n",
       "    Message('note_on', channel=0, note=69, velocity=0, time=6),\n",
       "    Message('note_on', channel=0, note=69, velocity=66, time=159),\n",
       "    Message('note_on', channel=0, note=70, velocity=0, time=155),\n",
       "    Message('note_on', channel=0, note=55, velocity=54, time=22),\n",
       "    Message('note_on', channel=0, note=72, velocity=61, time=11),\n",
       "    Message('note_on', channel=0, note=53, velocity=0, time=2),\n",
       "    Message('note_on', channel=0, note=46, velocity=54, time=2),\n",
       "    Message('note_on', channel=0, note=69, velocity=0, time=1),\n",
       "    Message('note_on', channel=0, note=50, velocity=0, time=39),\n",
       "    Message('note_on', channel=0, note=70, velocity=63, time=112),\n",
       "    Message('note_on', channel=0, note=55, velocity=0, time=15),\n",
       "    Message('note_on', channel=0, note=46, velocity=0, time=13),\n",
       "    Message('note_on', channel=0, note=72, velocity=0, time=8),\n",
       "    Message('note_on', channel=0, note=70, velocity=0, time=63),\n",
       "    Message('note_on', channel=0, note=69, velocity=60, time=68),\n",
       "    Message('note_on', channel=0, note=48, velocity=51, time=20),\n",
       "    Message('note_on', channel=0, note=52, velocity=47, time=7),\n",
       "    Message('note_on', channel=0, note=67, velocity=59, time=144),\n",
       "    Message('note_on', channel=0, note=69, velocity=0, time=42),\n",
       "    Message('note_on', channel=0, note=65, velocity=61, time=150),\n",
       "    Message('note_on', channel=0, note=67, velocity=0, time=4),\n",
       "    Message('note_on', channel=0, note=52, velocity=0, time=12),\n",
       "    Message('note_on', channel=0, note=48, velocity=0, time=5),\n",
       "    Message('note_on', channel=0, note=64, velocity=67, time=143),\n",
       "    Message('note_on', channel=0, note=65, velocity=0, time=26),\n",
       "    Message('note_on', channel=0, note=62, velocity=60, time=165),\n",
       "    Message('note_on', channel=0, note=64, velocity=0, time=21),\n",
       "    Message('control_change', channel=0, control=64, value=38, time=33),\n",
       "    Message('control_change', channel=0, control=64, value=59, time=17),\n",
       "    Message('note_on', channel=0, note=62, velocity=0, time=15),\n",
       "    Message('control_change', channel=0, control=64, value=69, time=3),\n",
       "    Message('control_change', channel=0, control=64, value=77, time=20),\n",
       "    Message('control_change', channel=0, control=64, value=86, time=18),\n",
       "    Message('control_change', channel=0, control=64, value=95, time=18),\n",
       "    Message('note_on', channel=0, note=60, velocity=54, time=1),\n",
       "    Message('control_change', channel=0, control=64, value=101, time=19),\n",
       "    Message('control_change', channel=0, control=64, value=90, time=126),\n",
       "    Message('note_on', channel=0, note=60, velocity=0, time=9),\n",
       "    Message('control_change', channel=0, control=64, value=73, time=11),\n",
       "    Message('control_change', channel=0, control=64, value=52, time=19),\n",
       "    Message('note_on', channel=0, note=80, velocity=62, time=18),\n",
       "    Message('control_change', channel=0, control=64, value=17, time=0),\n",
       "    Message('control_change', channel=0, control=64, value=0, time=18),\n",
       "    Message('note_on', channel=0, note=53, velocity=46, time=3),\n",
       "    Message('note_on', channel=0, note=68, velocity=44, time=17),\n",
       "    Message('control_change', channel=0, control=64, value=28, time=55),\n",
       "    Message('control_change', channel=0, control=64, value=49, time=32),\n",
       "    Message('control_change', channel=0, control=64, value=61, time=19),\n",
       "    Message('control_change', channel=0, control=64, value=69, time=18),\n",
       "    Message('note_on', channel=0, note=68, velocity=0, time=15),\n",
       "    Message('control_change', channel=0, control=64, value=74, time=1),\n",
       "    Message('control_change', channel=0, control=64, value=82, time=20),\n",
       "    Message('note_on', channel=0, note=57, velocity=43, time=7),\n",
       "    Message('note_on', channel=0, note=80, velocity=0, time=11),\n",
       "    Message('control_change', channel=0, control=64, value=90, time=0),\n",
       "    Message('note_on', channel=0, note=81, velocity=61, time=3),\n",
       "    Message('note_on', channel=0, note=53, velocity=0, time=10),\n",
       "    Message('control_change', channel=0, control=64, value=96, time=6),\n",
       "    Message('note_on', channel=0, note=69, velocity=39, time=11),\n",
       "    Message('control_change', channel=0, control=64, value=100, time=8),\n",
       "    Message('note_on', channel=0, note=69, velocity=0, time=21),\n",
       "    Message('note_on', channel=0, note=60, velocity=51, time=30),\n",
       "    Message('note_on', channel=0, note=57, velocity=0, time=0),\n",
       "    Message('control_change', channel=0, control=64, value=92, time=24),\n",
       "    Message('note_on', channel=0, note=81, velocity=0, time=5),\n",
       "    Message('control_change', channel=0, control=64, value=71, time=12),\n",
       "    Message('control_change', channel=0, control=64, value=44, time=19),\n",
       "    Message('control_change', channel=0, control=64, value=0, time=18),\n",
       "    Message('note_on', channel=0, note=80, velocity=62, time=4),\n",
       "    Message('note_on', channel=0, note=53, velocity=48, time=20),\n",
       "    Message('note_on', channel=0, note=60, velocity=0, time=0),\n",
       "    Message('note_on', channel=0, note=68, velocity=56, time=8),\n",
       "    Message('control_change', channel=0, control=64, value=42, time=41),\n",
       "    Message('control_change', channel=0, control=64, value=64, time=18),\n",
       "    Message('control_change', channel=0, control=64, value=79, time=20),\n",
       "    Message('control_change', channel=0, control=64, value=98, time=18),\n",
       "    Message('note_on', channel=0, note=68, velocity=0, time=17),\n",
       "    Message('control_change', channel=0, control=64, value=127, time=0),\n",
       "    Message('note_on', channel=0, note=57, velocity=55, time=23),\n",
       "    Message('note_on', channel=0, note=81, velocity=72, time=13),\n",
       "    Message('note_on', channel=0, note=69, velocity=52, time=5),\n",
       "    Message('note_on', channel=0, note=80, velocity=0, time=10),\n",
       "    Message('note_on', channel=0, note=53, velocity=0, time=4),\n",
       "    Message('note_on', channel=0, note=69, velocity=0, time=35),\n",
       "    Message('note_on', channel=0, note=60, velocity=51, time=14),\n",
       "    Message('control_change', channel=0, control=64, value=116, time=25),\n",
       "    Message('note_on', channel=0, note=57, velocity=0, time=5),\n",
       "    Message('note_on', channel=0, note=81, velocity=0, time=10),\n",
       "    Message('control_change', channel=0, control=64, value=83, time=2),\n",
       "    Message('control_change', channel=0, control=64, value=55, time=21),\n",
       "    Message('control_change', channel=0, control=64, value=14, time=19),\n",
       "    Message('note_on', channel=0, note=80, velocity=71, time=13),\n",
       "    Message('note_on', channel=0, note=60, velocity=0, time=1),\n",
       "    Message('control_change', channel=0, control=64, value=0, time=3),\n",
       "    Message('note_on', channel=0, note=53, velocity=58, time=9),\n",
       "    Message('note_on', channel=0, note=68, velocity=64, time=1),\n",
       "    Message('control_change', channel=0, control=64, value=25, time=29),\n",
       "    Message('control_change', channel=0, control=64, value=54, time=18),\n",
       "    Message('control_change', channel=0, control=64, value=72, time=17),\n",
       "    Message('control_change', channel=0, control=64, value=91, time=19),\n",
       "    Message('control_change', channel=0, control=64, value=127, time=19),\n",
       "    Message('note_on', channel=0, note=68, velocity=0, time=2),\n",
       "    Message('note_on', channel=0, note=57, velocity=51, time=26),\n",
       "    Message('note_on', channel=0, note=81, velocity=78, time=16),\n",
       "    Message('note_on', channel=0, note=69, velocity=60, time=1),\n",
       "    Message('note_on', channel=0, note=53, velocity=0, time=12),\n",
       "    Message('note_on', channel=0, note=69, velocity=0, time=29),\n",
       "    Message('note_on', channel=0, note=80, velocity=0, time=5),\n",
       "    Message('note_on', channel=0, note=60, velocity=56, time=8),\n",
       "    Message('note_on', channel=0, note=81, velocity=0, time=21),\n",
       "    Message('note_on', channel=0, note=57, velocity=0, time=16),\n",
       "    Message('control_change', channel=0, control=64, value=119, time=11),\n",
       "    Message('control_change', channel=0, control=64, value=86, time=18),\n",
       "    Message('control_change', channel=0, control=64, value=57, time=20),\n",
       "    Message('note_on', channel=0, note=60, velocity=0, time=23),\n",
       "    Message('control_change', channel=0, control=64, value=19, time=8),\n",
       "    Message('note_on', channel=0, note=83, velocity=74, time=10),\n",
       "    Message('control_change', channel=0, control=64, value=0, time=9),\n",
       "    Message('note_on', channel=0, note=52, velocity=55, time=10),\n",
       "    Message('note_on', channel=0, note=71, velocity=54, time=2),\n",
       "    Message('control_change', channel=0, control=64, value=36, time=43),\n",
       "    Message('note_on', channel=0, note=71, velocity=0, time=16),\n",
       "    Message('control_change', channel=0, control=64, value=59, time=3),\n",
       "    Message('control_change', channel=0, control=64, value=73, time=17),\n",
       "    Message('control_change', channel=0, control=64, value=89, time=20),\n",
       "    Message('note_on', channel=0, note=55, velocity=62, time=15),\n",
       "    Message('control_change', channel=0, control=64, value=113, time=3),\n",
       "    Message('control_change', channel=0, control=64, value=127, time=19),\n",
       "    Message('note_on', channel=0, note=84, velocity=77, time=8),\n",
       "    Message('note_on', channel=0, note=83, velocity=0, time=7),\n",
       "    Message('note_on', channel=0, note=52, velocity=0, time=10),\n",
       "    Message('note_on', channel=0, note=72, velocity=56, time=16),\n",
       "    Message('note_on', channel=0, note=60, velocity=60, time=39),\n",
       "    Message('note_on', channel=0, note=72, velocity=0, time=11),\n",
       "    Message('note_on', channel=0, note=55, velocity=0, time=2),\n",
       "    Message('note_on', channel=0, note=84, velocity=0, time=24),\n",
       "    Message('control_change', channel=0, control=64, value=91, time=30),\n",
       "    Message('control_change', channel=0, control=64, value=61, time=17),\n",
       "    Message('note_on', channel=0, note=83, velocity=64, time=11),\n",
       "    Message('control_change', channel=0, control=64, value=19, time=8),\n",
       "    Message('note_on', channel=0, note=60, velocity=0, time=2),\n",
       "    Message('note_on', channel=0, note=52, velocity=61, time=6),\n",
       "    Message('control_change', channel=0, control=64, value=0, time=9),\n",
       "    Message('note_on', channel=0, note=71, velocity=60, time=5),\n",
       "    Message('control_change', channel=0, control=64, value=40, time=54),\n",
       "    Message('note_on', channel=0, note=71, velocity=0, time=6),\n",
       "    Message('control_change', channel=0, control=64, value=64, time=13),\n",
       "    Message('control_change', channel=0, control=64, value=81, time=16),\n",
       "    Message('note_on', channel=0, note=55, velocity=58, time=8),\n",
       "    Message('control_change', channel=0, control=64, value=108, time=11),\n",
       "    Message('control_change', channel=0, control=64, value=127, time=18),\n",
       "    Message('note_on', channel=0, note=52, velocity=0, time=4),\n",
       "    Message('note_on', channel=0, note=84, velocity=72, time=8),\n",
       "    Message('note_on', channel=0, note=83, velocity=0, time=5),\n",
       "    Message('note_on', channel=0, note=60, velocity=60, time=44),\n",
       "    Message('note_on', channel=0, note=84, velocity=0, time=14),\n",
       "    Message('note_on', channel=0, note=55, velocity=0, time=29),\n",
       "    Message('polytouch', channel=0, note=72, value=0, time=47),\n",
       "    Message('control_change', channel=0, control=64, value=89, time=16),\n",
       "    Message('note_on', channel=0, note=60, velocity=0, time=8),\n",
       "    Message('note_on', channel=0, note=52, velocity=59, time=7),\n",
       "    Message('control_change', channel=0, control=64, value=59, time=4),\n",
       "    Message('note_on', channel=0, note=82, velocity=66, time=11),\n",
       "    Message('control_change', channel=0, control=64, value=21, time=8),\n",
       "    Message('control_change', channel=0, control=64, value=0, time=18),\n",
       "    Message('control_change', channel=0, control=64, value=43, time=54),\n",
       "    Message('note_on', channel=0, note=58, velocity=55, time=17),\n",
       "    Message('control_change', channel=0, control=64, value=68, time=0),\n",
       "    Message('control_change', channel=0, control=64, value=87, time=20),\n",
       "    Message('control_change', channel=0, control=64, value=122, time=21),\n",
       "    Message('note_on', channel=0, note=52, velocity=0, time=4),\n",
       "    Message('note_on', channel=0, note=79, velocity=74, time=11),\n",
       "    Message('control_change', channel=0, control=64, value=127, time=2),\n",
       "    Message('note_on', channel=0, note=82, velocity=0, time=24),\n",
       "    Message('note_on', channel=0, note=60, velocity=60, time=16),\n",
       "    Message('note_on', channel=0, note=58, velocity=0, time=14),\n",
       "    Message('note_on', channel=0, note=79, velocity=0, time=35),\n",
       "    Message('control_change', channel=0, control=64, value=91, time=72),\n",
       "    Message('control_change', channel=0, control=64, value=60, time=19),\n",
       "    Message('note_on', channel=0, note=60, velocity=0, time=2),\n",
       "    Message('note_on', channel=0, note=79, velocity=75, time=9),\n",
       "    Message('note_on', channel=0, note=53, velocity=58, time=4),\n",
       "    Message('note_on', channel=0, note=57, velocity=58, time=1),\n",
       "    Message('control_change', channel=0, control=64, value=0, time=20),\n",
       "    Message('control_change', channel=0, control=64, value=20, time=57),\n",
       "    Message('control_change', channel=0, control=64, value=54, time=19),\n",
       "    Message('control_change', channel=0, control=64, value=73, time=17),\n",
       "    Message('control_change', channel=0, control=64, value=91, time=18),\n",
       "    Message('control_change', channel=0, control=64, value=118, time=19),\n",
       "    Message('note_on', channel=0, note=77, velocity=80, time=8),\n",
       "    Message('control_change', channel=0, control=64, value=127, time=12),\n",
       "    Message('note_on', channel=0, note=53, velocity=0, time=3),\n",
       "    Message('note_on', channel=0, note=79, velocity=0, time=11),\n",
       "    Message('note_on', channel=0, note=57, velocity=0, time=21),\n",
       "    Message('control_change', channel=0, control=64, value=123, time=37),\n",
       "    Message('note_on', channel=0, note=77, velocity=0, time=3),\n",
       "    Message('control_change', channel=0, control=64, value=98, time=15),\n",
       "    Message('control_change', channel=0, control=64, value=73, time=21),\n",
       "    Message('control_change', channel=0, control=64, value=44, time=16),\n",
       "    Message('control_change', channel=0, control=64, value=0, time=19),\n",
       "    Message('note_on', channel=0, note=79, velocity=80, time=0),\n",
       "    Message('note_on', channel=0, note=57, velocity=68, time=27),\n",
       "    Message('note_on', channel=0, note=72, velocity=61, time=4),\n",
       "    Message('note_on', channel=0, note=77, velocity=77, time=135),\n",
       "    Message('note_on', channel=0, note=79, velocity=0, time=44),\n",
       "    Message('note_on', channel=0, note=57, velocity=0, time=14),\n",
       "    Message('note_on', channel=0, note=72, velocity=0, time=1),\n",
       "    Message('note_on', channel=0, note=77, velocity=0, time=33),\n",
       "    Message('note_on', channel=0, note=81, velocity=70, time=81),\n",
       "    Message('note_on', channel=0, note=60, velocity=59, time=12),\n",
       "    Message('note_on', channel=0, note=76, velocity=59, time=20),\n",
       "    Message('note_on', channel=0, note=79, velocity=77, time=150),\n",
       "    Message('note_on', channel=0, note=76, velocity=0, time=44),\n",
       "    Message('note_on', channel=0, note=81, velocity=0, time=5),\n",
       "    Message('note_on', channel=0, note=60, velocity=0, time=33),\n",
       "    Message('note_on', channel=0, note=79, velocity=0, time=16),\n",
       "    Message('note_on', channel=0, note=79, velocity=69, time=96),\n",
       "    Message('note_on', channel=0, note=76, velocity=56, time=9),\n",
       "    Message('note_on', channel=0, note=65, velocity=51, time=9),\n",
       "    Message('note_on', channel=0, note=65, velocity=0, time=164),\n",
       "    Message('note_on', channel=0, note=60, velocity=47, time=179),\n",
       "    Message('note_on', channel=0, note=60, velocity=0, time=154),\n",
       "    Message('note_on', channel=0, note=80, velocity=58, time=18),\n",
       "    Message('note_on', channel=0, note=79, velocity=0, time=45),\n",
       "    Message('note_on', channel=0, note=76, velocity=0, time=28),\n",
       "    Message('note_on', channel=0, note=80, velocity=0, time=165),\n",
       "    Message('note_on', channel=0, note=81, velocity=51, time=9),\n",
       "    Message('note_on', channel=0, note=77, velocity=54, time=16),\n",
       "    Message('note_on', channel=0, note=53, velocity=42, time=18),\n",
       "    Message('control_change', channel=0, control=64, value=24, time=10),\n",
       "    Message('control_change', channel=0, control=64, value=51, time=18),\n",
       "    Message('control_change', channel=0, control=64, value=70, time=19),\n",
       "    Message('control_change', channel=0, control=64, value=85, time=19),\n",
       "    Message('note_on', channel=0, note=53, velocity=0, time=2),\n",
       "    Message('note_on', channel=0, note=77, velocity=0, time=11),\n",
       "    Message('control_change', channel=0, control=64, value=105, time=5),\n",
       "    Message('control_change', channel=0, control=64, value=127, time=18),\n",
       "    Message('note_on', channel=0, note=81, velocity=0, time=4),\n",
       "    Message('control_change', channel=0, control=64, value=105, time=181),\n",
       "    Message('control_change', channel=0, control=64, value=80, time=17),\n",
       "    Message('note_on', channel=0, note=82, velocity=64, time=17),\n",
       "    Message('control_change', channel=0, control=64, value=56, time=2),\n",
       "    Message('note_on', channel=0, note=62, velocity=48, time=10),\n",
       "    Message('control_change', channel=0, control=64, value=31, time=8),\n",
       "    Message('control_change', channel=0, control=64, value=0, time=21),\n",
       "    Message('note_on', channel=0, note=65, velocity=58, time=128),\n",
       "    Message('note_on', channel=0, note=62, velocity=0, time=11),\n",
       "    Message('note_on', channel=0, note=65, velocity=0, time=163),\n",
       "    Message('note_on', channel=0, note=70, velocity=57, time=1),\n",
       "    Message('note_on', channel=0, note=82, velocity=0, time=42),\n",
       "    Message('note_on', channel=0, note=84, velocity=61, time=22),\n",
       "    Message('note_on', channel=0, note=82, velocity=68, time=58),\n",
       "    Message('note_on', channel=0, note=84, velocity=0, time=2),\n",
       "    Message('note_on', channel=0, note=70, velocity=0, time=71),\n",
       "    Message('note_on', channel=0, note=81, velocity=73, time=6),\n",
       "    Message('note_on', channel=0, note=82, velocity=0, time=2),\n",
       "    Message('note_on', channel=0, note=65, velocity=55, time=56),\n",
       "    Message('note_on', channel=0, note=82, velocity=75, time=15),\n",
       "    Message('note_on', channel=0, note=81, velocity=0, time=23),\n",
       "    Message('note_on', channel=0, note=84, velocity=72, time=125),\n",
       "    Message('note_on', channel=0, note=65, velocity=0, time=2),\n",
       "    Message('note_on', channel=0, note=62, velocity=45, time=19),\n",
       "    Message('note_on', channel=0, note=82, velocity=0, time=60),\n",
       "    Message('note_on', channel=0, note=86, velocity=67, time=93),\n",
       "    Message('note_on', channel=0, note=65, velocity=55, time=0),\n",
       "    Message('note_on', channel=0, note=62, velocity=0, time=1),\n",
       "    Message('note_on', channel=0, note=84, velocity=0, time=45),\n",
       "    Message('note_on', channel=0, note=86, velocity=0, time=26),\n",
       "    Message('note_on', channel=0, note=64, velocity=62, time=90),\n",
       "    Message('note_on', channel=0, note=65, velocity=0, time=0),\n",
       "    Message('note_on', channel=0, note=86, velocity=71, time=13),\n",
       "    Message('note_on', channel=0, note=84, velocity=68, time=164),\n",
       "    Message('note_on', channel=0, note=67, velocity=59, time=7),\n",
       "    Message('note_on', channel=0, note=64, velocity=0, time=26),\n",
       "    Message('note_on', channel=0, note=86, velocity=0, time=23),\n",
       "    Message('note_on', channel=0, note=72, velocity=56, time=130),\n",
       "    Message('note_on', channel=0, note=83, velocity=70, time=1),\n",
       "    Message('note_on', channel=0, note=67, velocity=0, time=4),\n",
       "    Message('note_on', channel=0, note=84, velocity=0, time=28),\n",
       "    Message('note_on', channel=0, note=84, velocity=69, time=137),\n",
       "    Message('note_on', channel=0, note=67, velocity=55, time=5),\n",
       "    Message('note_on', channel=0, note=72, velocity=0, time=5),\n",
       "    Message('note_on', channel=0, note=83, velocity=0, time=40),\n",
       "    Message('note_on', channel=0, note=67, velocity=0, time=109),\n",
       "    Message('note_on', channel=0, note=82, velocity=71, time=7),\n",
       "    Message('note_on', channel=0, note=64, velocity=55, time=12),\n",
       "    Message('note_on', channel=0, note=84, velocity=0, time=35),\n",
       "    Message('note_on', channel=0, note=79, velocity=71, time=128),\n",
       "    Message('note_on', channel=0, note=67, velocity=59, time=4),\n",
       "    Message('note_on', channel=0, note=64, velocity=0, time=28),\n",
       "    Message('note_on', channel=0, note=82, velocity=0, time=15),\n",
       "    Message('note_on', channel=0, note=79, velocity=0, time=47),\n",
       "    Message('note_on', channel=0, note=67, velocity=0, time=25),\n",
       "    Message('note_on', channel=0, note=80, velocity=79, time=53),\n",
       "    Message('note_on', channel=0, note=65, velocity=65, time=11),\n",
       "    Message('note_on', channel=0, note=65, velocity=0, time=137),\n",
       "    Message('note_on', channel=0, note=81, velocity=82, time=23),\n",
       "    Message('note_on', channel=0, note=80, velocity=0, time=89),\n",
       "    Message('control_change', channel=0, control=67, value=122, time=67),\n",
       "    Message('control_change', channel=0, control=67, value=114, time=20),\n",
       "    Message('note_on', channel=0, note=84, velocity=77, time=7),\n",
       "    Message('note_on', channel=0, note=67, velocity=69, time=3),\n",
       "    Message('note_on', channel=0, note=58, velocity=68, time=2),\n",
       "    Message('control_change', channel=0, control=67, value=106, time=7),\n",
       "    Message('note_on', channel=0, note=81, velocity=0, time=7),\n",
       "    Message('control_change', channel=0, control=67, value=98, time=11),\n",
       "    Message('control_change', channel=0, control=67, value=93, time=18),\n",
       "    Message('control_change', channel=0, control=67, value=88, time=20),\n",
       "    Message('control_change', channel=0, control=67, value=81, time=17),\n",
       "    Message('control_change', channel=0, control=67, value=74, time=20),\n",
       "    Message('control_change', channel=0, control=67, value=70, time=18),\n",
       "    Message('note_on', channel=0, note=67, velocity=0, time=0),\n",
       "    Message('note_on', channel=0, note=58, velocity=0, time=6),\n",
       "    Message('note_on', channel=0, note=82, velocity=80, time=31),\n",
       "    Message('control_change', channel=0, control=67, value=74, time=54),\n",
       "    Message('note_on', channel=0, note=84, velocity=0, time=14),\n",
       "    Message('control_change', channel=0, control=67, value=79, time=41),\n",
       "    Message('note_on', channel=0, note=79, velocity=79, time=64),\n",
       "    Message('note_on', channel=0, note=60, velocity=63, time=7),\n",
       "    Message('note_on', channel=0, note=70, velocity=65, time=1),\n",
       "    Message('note_on', channel=0, note=82, velocity=0, time=79),\n",
       "    Message('note_on', channel=0, note=60, velocity=0, time=31),\n",
       "    Message('note_on', channel=0, note=70, velocity=0, time=12),\n",
       "    Message('note_on', channel=0, note=76, velocity=75, time=25),\n",
       "    Message('note_on', channel=0, note=79, velocity=0, time=7),\n",
       "    Message('control_change', channel=0, control=67, value=83, time=52),\n",
       "    Message('note_on', channel=0, note=76, velocity=0, time=32),\n",
       "    Message('control_change', channel=0, control=67, value=87, time=21),\n",
       "    Message('control_change', channel=0, control=67, value=92, time=57),\n",
       "    Message('note_on', channel=0, note=77, velocity=74, time=5),\n",
       "    Message('note_on', channel=0, note=69, velocity=64, time=5),\n",
       "    Message('note_on', channel=0, note=65, velocity=60, time=7),\n",
       "    Message('control_change', channel=0, control=67, value=96, time=20),\n",
       "    Message('control_change', channel=0, control=67, value=101, time=36),\n",
       "    Message('control_change', channel=0, control=67, value=106, time=56),\n",
       "    Message('note_on', channel=0, note=69, velocity=0, time=21),\n",
       "    Message('note_on', channel=0, note=65, velocity=0, time=9),\n",
       "    Message('note_on', channel=0, note=72, velocity=73, time=23),\n",
       "    Message('control_change', channel=0, control=67, value=111, time=17),\n",
       "    Message('note_on', channel=0, note=77, velocity=0, time=17),\n",
       "    Message('control_change', channel=0, control=67, value=120, time=20),\n",
       "    Message('control_change', channel=0, control=67, value=127, time=16),\n",
       "    Message('note_on', channel=0, note=72, velocity=0, time=19),\n",
       "    Message('note_on', channel=0, note=69, velocity=74, time=83),\n",
       "    Message('note_on', channel=0, note=69, velocity=0, time=152),\n",
       "    Message('note_on', channel=0, note=72, velocity=69, time=12),\n",
       "    Message('note_on', channel=0, note=72, velocity=0, time=88),\n",
       "    Message('note_on', channel=0, note=65, velocity=66, time=86),\n",
       "    Message('note_on', channel=0, note=72, velocity=69, time=151),\n",
       "    Message('note_on', channel=0, note=65, velocity=0, time=3),\n",
       "    Message('note_on', channel=0, note=72, velocity=0, time=71),\n",
       "    Message('note_on', channel=0, note=72, velocity=64, time=91),\n",
       "    Message('note_on', channel=0, note=67, velocity=66, time=6),\n",
       "    Message('note_on', channel=0, note=70, velocity=64, time=4),\n",
       "    Message('note_on', channel=0, note=72, velocity=0, time=65),\n",
       "    Message('note_on', channel=0, note=70, velocity=0, time=4),\n",
       "    Message('note_on', channel=0, note=67, velocity=0, time=97),\n",
       "    Message('note_on', channel=0, note=70, velocity=68, time=24),\n",
       "    Message('note_on', channel=0, note=72, velocity=54, time=2),\n",
       "    Message('note_on', channel=0, note=72, velocity=0, time=30),\n",
       "    Message('note_on', channel=0, note=70, velocity=0, time=21),\n",
       "    Message('note_on', channel=0, note=64, velocity=62, time=112),\n",
       "    Message('note_on', channel=0, note=64, velocity=0, time=144),\n",
       "    Message('note_on', channel=0, note=72, velocity=58, time=5),\n",
       "    Message('note_on', channel=0, note=70, velocity=61, time=16),\n",
       "    Message('note_on', channel=0, note=70, velocity=0, time=66),\n",
       "    Message('note_on', channel=0, note=72, velocity=0, time=7),\n",
       "    Message('note_on', channel=0, note=60, velocity=63, time=85),\n",
       "    Message('note_on', channel=0, note=60, velocity=0, time=114),\n",
       "    Message('note_on', channel=0, note=72, velocity=62, time=44),\n",
       "    Message('note_on', channel=0, note=70, velocity=63, time=4),\n",
       "    Message('note_on', channel=0, note=72, velocity=0, time=63),\n",
       "    Message('note_on', channel=0, note=70, velocity=0, time=10),\n",
       "    Message('note_on', channel=0, note=72, velocity=59, time=93),\n",
       "    Message('note_on', channel=0, note=53, velocity=65, time=4),\n",
       "    Message('note_on', channel=0, note=68, velocity=59, time=21),\n",
       "    Message('note_on', channel=0, note=72, velocity=0, time=67),\n",
       "    Message('note_on', channel=0, note=68, velocity=0, time=8),\n",
       "    Message('note_on', channel=0, note=53, velocity=0, time=72),\n",
       "    Message('note_on', channel=0, note=68, velocity=54, time=22),\n",
       "    Message('note_on', channel=0, note=72, velocity=48, time=10),\n",
       "    Message('note_on', channel=0, note=68, velocity=0, time=44),\n",
       "    Message('note_on', channel=0, note=72, velocity=0, time=5),\n",
       "    Message('note_on', channel=0, note=56, velocity=61, time=88),\n",
       "    Message('note_on', channel=0, note=72, velocity=57, time=165),\n",
       "    Message('note_on', channel=0, note=68, velocity=54, time=12),\n",
       "    Message('note_on', channel=0, note=56, velocity=0, time=8),\n",
       "    Message('note_on', channel=0, note=68, velocity=0, time=47),\n",
       "    Message('note_on', channel=0, note=72, velocity=0, time=0),\n",
       "    Message('note_on', channel=0, note=53, velocity=54, time=104),\n",
       "    Message('note_on', channel=0, note=72, velocity=59, time=148),\n",
       "    Message('note_on', channel=0, note=68, velocity=59, time=2),\n",
       "    Message('note_on', channel=0, note=53, velocity=0, time=5),\n",
       "    Message('note_on', channel=0, note=72, velocity=0, time=55),\n",
       "    Message('note_on', channel=0, note=68, velocity=0, time=8),\n",
       "    Message('note_on', channel=0, note=70, velocity=59, time=124),\n",
       "    Message('note_on', channel=0, note=55, velocity=55, time=2),\n",
       "    Message('note_on', channel=0, note=72, velocity=55, time=10),\n",
       "    Message('note_on', channel=0, note=70, velocity=0, time=45),\n",
       "    Message('note_on', channel=0, note=72, velocity=0, time=2),\n",
       "    Message('note_on', channel=0, note=72, velocity=58, time=95),\n",
       "    Message('note_on', channel=0, note=55, velocity=0, time=10),\n",
       "    Message('note_on', channel=0, note=70, velocity=64, time=4),\n",
       "    Message('note_on', channel=0, note=70, velocity=0, time=50),\n",
       "    Message('note_on', channel=0, note=72, velocity=0, time=8),\n",
       "    Message('note_on', channel=0, note=52, velocity=59, time=96),\n",
       "    Message('note_on', channel=0, note=52, velocity=0, time=165),\n",
       "    Message('note_on', channel=0, note=72, velocity=56, time=2),\n",
       "    Message('note_on', channel=0, note=70, velocity=56, time=14),\n",
       "    Message('note_on', channel=0, note=72, velocity=0, time=60),\n",
       "    Message('note_on', channel=0, note=70, velocity=0, time=2),\n",
       "    Message('note_on', channel=0, note=48, velocity=65, time=89),\n",
       "    Message('note_on', channel=0, note=48, velocity=0, time=78),\n",
       "    Message('control_change', channel=0, control=67, value=116, time=8),\n",
       "    Message('control_change', channel=0, control=67, value=100, time=18),\n",
       "    Message('control_change', channel=0, control=67, value=85, time=20),\n",
       "    Message('control_change', channel=0, control=67, value=73, time=18),\n",
       "    Message('note_on', channel=0, note=72, velocity=60, time=18),\n",
       "    Message('control_change', channel=0, control=67, value=65, time=2),\n",
       "    Message('note_on', channel=0, note=70, velocity=61, time=0),\n",
       "    Message('control_change', channel=0, control=67, value=59, time=18),\n",
       "    Message('control_change', channel=0, control=67, value=55, time=18),\n",
       "    Message('control_change', channel=0, control=67, value=47, time=32),\n",
       "    Message('note_on', channel=0, note=72, velocity=0, time=4),\n",
       "    Message('control_change', channel=0, control=67, value=35, time=16),\n",
       "    Message('note_on', channel=0, note=70, velocity=0, time=2),\n",
       "    Message('control_change', channel=0, control=67, value=20, time=15),\n",
       "    Message('control_change', channel=0, control=64, value=37, time=56),\n",
       "    Message('control_change', channel=0, control=67, value=0, time=1),\n",
       "    Message('note_on', channel=0, note=53, velocity=73, time=2),\n",
       "    Message('note_on', channel=0, note=41, velocity=69, time=6),\n",
       "    Message('note_on', channel=0, note=72, velocity=76, time=1),\n",
       "    Message('note_on', channel=0, note=68, velocity=74, time=3),\n",
       "    Message('control_change', channel=0, control=64, value=71, time=6),\n",
       "    Message('control_change', channel=0, control=64, value=101, time=17),\n",
       "    Message('note_on', channel=0, note=53, velocity=0, time=9),\n",
       "    Message('note_on', channel=0, note=41, velocity=0, time=7),\n",
       "    Message('control_change', channel=0, control=64, value=127, time=1),\n",
       "    Message('note_on', channel=0, note=72, velocity=0, time=14),\n",
       "    Message('note_on', channel=0, note=68, velocity=0, time=11),\n",
       "    Message('note_on', channel=0, note=68, velocity=70, time=92),\n",
       "    Message('note_on', channel=0, note=72, velocity=69, time=5),\n",
       "    Message('note_on', channel=0, note=72, velocity=0, time=39),\n",
       "    Message('control_change', channel=0, control=64, value=102, time=5),\n",
       "    Message('control_change', channel=0, control=67, value=10, time=1),\n",
       "    Message('note_on', channel=0, note=68, velocity=0, time=8),\n",
       "    Message('control_change', channel=0, control=64, value=76, time=11),\n",
       "    Message('control_change', channel=0, control=64, value=52, time=19),\n",
       "    Message('control_change', channel=0, control=64, value=26, time=18),\n",
       "    Message('control_change', channel=0, control=64, value=0, time=17),\n",
       "    Message('note_on', channel=0, note=56, velocity=65, time=43),\n",
       "    Message('note_on', channel=0, note=56, velocity=0, time=69),\n",
       "    Message('note_on', channel=0, note=72, velocity=56, time=97),\n",
       "    Message('note_on', channel=0, note=68, velocity=58, time=11),\n",
       "    Message('note_on', channel=0, note=72, velocity=0, time=49),\n",
       "    Message('note_on', channel=0, note=68, velocity=0, time=2),\n",
       "    Message('note_on', channel=0, note=60, velocity=62, time=87),\n",
       "    Message('note_on', channel=0, note=60, velocity=0, time=51),\n",
       "    Message('control_change', channel=0, control=67, value=0, time=88),\n",
       "    Message('note_on', channel=0, note=72, velocity=68, time=25),\n",
       "    Message('note_on', channel=0, note=68, velocity=65, time=6),\n",
       "    Message('note_on', channel=0, note=72, velocity=0, time=60),\n",
       "    Message('note_on', channel=0, note=68, velocity=0, time=5),\n",
       "    Message('control_change', channel=0, control=64, value=42, time=85),\n",
       "    Message('note_on', channel=0, note=73, velocity=79, time=9),\n",
       "    Message('note_on', channel=0, note=58, velocity=76, time=4),\n",
       "    Message('note_on', channel=0, note=68, velocity=79, time=1),\n",
       "    Message('note_on', channel=0, note=46, velocity=73, time=4),\n",
       "    Message('control_change', channel=0, control=64, value=76, time=1),\n",
       "    Message('control_change', channel=0, control=64, value=126, time=19),\n",
       "    Message('note_on', channel=0, note=46, velocity=0, time=13),\n",
       "    Message('note_on', channel=0, note=58, velocity=0, time=8),\n",
       "    Message('note_on', channel=0, note=68, velocity=0, time=23),\n",
       "    Message('note_on', channel=0, note=73, velocity=0, time=4),\n",
       "    Message('note_on', channel=0, note=73, velocity=69, time=93),\n",
       "    Message('note_on', channel=0, note=68, velocity=67, time=4),\n",
       "    Message('control_change', channel=0, control=64, value=120, time=43),\n",
       "    Message('note_on', channel=0, note=68, velocity=0, time=7),\n",
       "    Message('note_on', channel=0, note=73, velocity=0, time=11),\n",
       "    Message('control_change', channel=0, control=64, value=97, time=0),\n",
       "    Message('control_change', channel=0, control=64, value=76, time=17),\n",
       "    Message('control_change', channel=0, control=64, value=55, time=20),\n",
       "    Message('control_change', channel=0, control=64, value=36, time=18),\n",
       "    Message('control_change', channel=0, control=64, value=16, time=17),\n",
       "    Message('control_change', channel=0, control=64, value=0, time=19),\n",
       "    Message('note_on', channel=0, note=61, velocity=67, time=15),\n",
       "    Message('note_on', channel=0, note=61, velocity=0, time=80),\n",
       "    Message('note_on', channel=0, note=73, velocity=65, time=75),\n",
       "    Message('note_on', channel=0, note=68, velocity=65, time=5),\n",
       "    Message('note_on', channel=0, note=68, velocity=0, time=51),\n",
       "    Message('note_on', channel=0, note=73, velocity=0, time=11),\n",
       "    Message('note_on', channel=0, note=65, velocity=60, time=99),\n",
       "    Message('note_on', channel=0, note=65, velocity=0, time=41),\n",
       "    Message('note_on', channel=0, note=73, velocity=69, time=125),\n",
       "    Message('note_on', channel=0, note=68, velocity=61, time=13),\n",
       "    Message('note_on', channel=0, note=68, velocity=0, time=50),\n",
       "    Message('note_on', channel=0, note=73, velocity=0, time=9),\n",
       "    Message('control_change', channel=0, control=64, value=40, time=84),\n",
       "    Message('note_on', channel=0, note=51, velocity=81, time=2),\n",
       "    Message('note_on', channel=0, note=73, velocity=80, time=2),\n",
       "    Message('note_on', channel=0, note=39, velocity=74, time=4),\n",
       "    Message('note_on', channel=0, note=67, velocity=79, time=2),\n",
       "    Message('control_change', channel=0, control=64, value=70, time=13),\n",
       "    Message('note_on', channel=0, note=39, velocity=0, time=16),\n",
       "    Message('control_change', channel=0, control=64, value=101, time=0),\n",
       "    Message('note_on', channel=0, note=51, velocity=0, time=5),\n",
       "    Message('control_change', channel=0, control=64, value=127, time=12),\n",
       "    Message('note_on', channel=0, note=67, velocity=0, time=27),\n",
       "    Message('note_on', channel=0, note=73, velocity=0, time=4),\n",
       "    Message('note_on', channel=0, note=73, velocity=72, time=87),\n",
       "    Message('note_on', channel=0, note=67, velocity=73, time=6),\n",
       "    Message('note_on', channel=0, note=67, velocity=0, time=47),\n",
       "    Message('note_on', channel=0, note=73, velocity=0, time=5),\n",
       "    Message('control_change', channel=0, control=64, value=110, time=9),\n",
       "    Message('control_change', channel=0, control=64, value=87, time=18),\n",
       "    Message('control_change', channel=0, control=64, value=65, time=19),\n",
       "    Message('control_change', channel=0, control=64, value=43, time=19),\n",
       "    Message('control_change', channel=0, control=64, value=24, time=19),\n",
       "    Message('control_change', channel=0, control=64, value=0, time=18),\n",
       "    Message('note_on', channel=0, note=55, velocity=69, time=8),\n",
       "    Message('note_on', channel=0, note=55, velocity=0, time=63),\n",
       "    Message('note_on', channel=0, note=73, velocity=67, time=102),\n",
       "    Message('note_on', channel=0, note=67, velocity=60, time=6),\n",
       "    Message('note_on', channel=0, note=67, velocity=0, time=50),\n",
       "    Message('note_on', channel=0, note=73, velocity=0, time=21),\n",
       "    Message('note_on', channel=0, note=58, velocity=66, time=78),\n",
       "    Message('note_on', channel=0, note=58, velocity=0, time=48),\n",
       "    Message('note_on', channel=0, note=73, velocity=73, time=116),\n",
       "    Message('note_on', channel=0, note=67, velocity=62, time=15),\n",
       "    Message('note_on', channel=0, note=67, velocity=0, time=44),\n",
       "    Message('note_on', channel=0, note=73, velocity=0, time=19),\n",
       "    Message('control_change', channel=0, control=64, value=14, time=54),\n",
       "    Message('control_change', channel=0, control=64, value=57, time=19),\n",
       "    Message('note_on', channel=0, note=67, velocity=76, time=2),\n",
       "    Message('note_on', channel=0, note=56, velocity=81, time=3),\n",
       "    Message('note_on', channel=0, note=72, velocity=80, time=3),\n",
       "    Message('note_on', channel=0, note=44, velocity=78, time=4),\n",
       "    Message('control_change', channel=0, control=64, value=85, time=7),\n",
       "    Message('control_change', channel=0, control=64, value=127, time=18),\n",
       "    Message('note_on', channel=0, note=44, velocity=0, time=4),\n",
       "    Message('note_on', channel=0, note=56, velocity=0, time=14),\n",
       "    Message('note_on', channel=0, note=67, velocity=0, time=12),\n",
       "    Message('note_on', channel=0, note=72, velocity=0, time=6),\n",
       "    Message('note_on', channel=0, note=72, velocity=73, time=94),\n",
       "    Message('note_on', channel=0, note=67, velocity=71, time=7),\n",
       "    Message('note_on', channel=0, note=67, velocity=0, time=37),\n",
       "    Message('note_on', channel=0, note=72, velocity=0, time=0),\n",
       "    Message('control_change', channel=0, control=64, value=107, time=28),\n",
       "    Message('control_change', channel=0, control=64, value=82, time=18),\n",
       "    Message('control_change', channel=0, control=64, value=60, time=19),\n",
       "    Message('control_change', channel=0, control=64, value=35, time=19),\n",
       "    Message('control_change', channel=0, control=64, value=0, time=16),\n",
       "    Message('note_on', channel=0, note=60, velocity=71, time=20),\n",
       "    Message('note_on', channel=0, note=60, velocity=0, time=71),\n",
       "    Message('note_on', channel=0, note=72, velocity=68, time=81),\n",
       "    Message('note_on', channel=0, note=67, velocity=64, time=1),\n",
       "    Message('note_on', channel=0, note=67, velocity=0, time=61),\n",
       "    Message('note_on', channel=0, note=72, velocity=0, time=9),\n",
       "    Message('note_on', channel=0, note=63, velocity=70, time=90),\n",
       "    Message('note_on', channel=0, note=63, velocity=0, time=39),\n",
       "    Message('note_on', channel=0, note=67, velocity=67, time=133),\n",
       "    Message('note_on', channel=0, note=72, velocity=72, time=0),\n",
       "    Message('note_on', channel=0, note=67, velocity=0, time=57),\n",
       "    Message('note_on', channel=0, note=72, velocity=0, time=6),\n",
       "    Message('control_change', channel=0, control=64, value=34, time=75),\n",
       "    Message('note_on', channel=0, note=72, velocity=82, time=8),\n",
       "    Message('note_on', channel=0, note=49, velocity=83, time=2),\n",
       "    Message('note_on', channel=0, note=65, velocity=79, time=2),\n",
       "    Message('control_change', channel=0, control=64, value=68, time=6),\n",
       "    Message('note_on', channel=0, note=37, velocity=69, time=6),\n",
       "    Message('control_change', channel=0, control=64, value=100, time=14),\n",
       "    Message('control_change', channel=0, control=64, value=127, time=17),\n",
       "    Message('note_on', channel=0, note=49, velocity=0, time=4),\n",
       "    Message('note_on', channel=0, note=37, velocity=0, time=2),\n",
       "    Message('note_on', channel=0, note=72, velocity=0, time=13),\n",
       "    Message('note_on', channel=0, note=65, velocity=0, time=9),\n",
       "    Message('note_on', channel=0, note=72, velocity=79, time=93),\n",
       "    Message('note_on', channel=0, note=65, velocity=69, time=4),\n",
       "    Message('note_on', channel=0, note=72, velocity=0, time=33),\n",
       "    Message('note_on', channel=0, note=65, velocity=0, time=16),\n",
       "    Message('control_change', channel=0, control=64, value=115, time=8),\n",
       "    Message('control_change', channel=0, control=64, value=92, time=20),\n",
       "    Message('control_change', channel=0, control=64, value=71, time=19),\n",
       "    Message('control_change', channel=0, control=64, value=49, time=18),\n",
       "    Message('control_change', channel=0, control=64, value=29, time=17),\n",
       "    Message('control_change', channel=0, control=64, value=0, time=19),\n",
       "    Message('note_on', channel=0, note=61, velocity=75, time=10),\n",
       "    Message('note_on', channel=0, note=61, velocity=0, time=40),\n",
       "    Message('polytouch', channel=0, note=65, value=0, time=30),\n",
       "    Message('note_on', channel=0, note=72, velocity=79, time=80),\n",
       "    Message('note_on', channel=0, note=65, velocity=60, time=11),\n",
       "    Message('note_on', channel=0, note=65, velocity=0, time=52),\n",
       "    Message('note_on', channel=0, note=72, velocity=0, time=15),\n",
       "    Message('note_on', channel=0, note=43, velocity=80, time=77),\n",
       "    Message('note_on', channel=0, note=55, velocity=78, time=4),\n",
       "    Message('note_on', channel=0, note=70, velocity=80, time=2),\n",
       "    Message('note_on', channel=0, note=65, velocity=80, time=1),\n",
       "    Message('control_change', channel=0, control=64, value=27, time=13),\n",
       "    Message('control_change', channel=0, control=64, value=70, time=30),\n",
       "    Message('note_on', channel=0, note=43, velocity=0, time=2),\n",
       "    Message('note_on', channel=0, note=55, velocity=0, time=4),\n",
       "    Message('control_change', channel=0, control=64, value=100, time=0),\n",
       "    Message('note_on', channel=0, note=65, velocity=0, time=10),\n",
       "    Message('control_change', channel=0, control=64, value=127, time=11),\n",
       "    Message('note_on', channel=0, note=70, velocity=0, time=5),\n",
       "    Message('note_on', channel=0, note=70, velocity=73, time=97),\n",
       "    Message('note_on', channel=0, note=65, velocity=72, time=3),\n",
       "    Message('note_on', channel=0, note=65, velocity=0, time=35),\n",
       "    Message('note_on', channel=0, note=70, velocity=0, time=19),\n",
       "    Message('control_change', channel=0, control=64, value=113, time=42),\n",
       "    Message('control_change', channel=0, control=64, value=88, time=20),\n",
       "    Message('control_change', channel=0, control=64, value=66, time=18),\n",
       "    Message('control_change', channel=0, control=64, value=42, time=18),\n",
       "    Message('note_on', channel=0, note=67, velocity=83, time=3),\n",
       "    Message('control_change', channel=0, control=64, value=9, time=14),\n",
       "    Message('control_change', channel=0, control=64, value=0, time=19),\n",
       "    Message('note_on', channel=0, note=67, velocity=0, time=17),\n",
       "    Message('note_on', channel=0, note=70, velocity=73, time=108),\n",
       "    Message('note_on', channel=0, note=65, velocity=69, time=7),\n",
       "    Message('note_on', channel=0, note=70, velocity=0, time=66),\n",
       "    Message('note_on', channel=0, note=65, velocity=0, time=6),\n",
       "    Message('note_on', channel=0, note=48, velocity=85, time=85),\n",
       "    Message('note_on', channel=0, note=70, velocity=77, time=3),\n",
       "    Message('note_on', channel=0, note=64, velocity=74, time=1),\n",
       "    Message('note_on', channel=0, note=36, velocity=79, time=0),\n",
       "    Message('control_change', channel=0, control=64, value=32, time=2),\n",
       "    Message('control_change', channel=0, control=64, value=72, time=19),\n",
       "    Message('note_on', channel=0, note=36, velocity=0, time=10),\n",
       "    Message('note_on', channel=0, note=48, velocity=0, time=6),\n",
       "    Message('control_change', channel=0, control=64, value=108, time=2),\n",
       "    Message('control_change', channel=0, control=64, value=127, time=20),\n",
       "    Message('note_on', channel=0, note=70, velocity=0, time=9),\n",
       "    Message('note_on', channel=0, note=64, velocity=0, time=14),\n",
       "    Message('note_on', channel=0, note=70, velocity=75, time=82),\n",
       "    Message('note_on', channel=0, note=64, velocity=65, time=2),\n",
       "    Message('control_change', channel=0, control=64, value=123, time=58),\n",
       "    Message('control_change', channel=0, control=67, value=11, time=1),\n",
       "    Message('note_on', channel=0, note=70, velocity=0, time=12),\n",
       "    Message('note_on', channel=0, note=64, velocity=0, time=2),\n",
       "    Message('control_change', channel=0, control=64, value=103, time=3),\n",
       "    Message('control_change', channel=0, control=64, value=87, time=19),\n",
       "    Message('control_change', channel=0, control=67, value=18, time=2),\n",
       "    Message('control_change', channel=0, control=64, value=72, time=16),\n",
       "    Message('control_change', channel=0, control=64, value=58, time=35),\n",
       "    Message('control_change', channel=0, control=67, value=22, time=1),\n",
       "    Message('control_change', channel=0, control=64, value=46, time=17),\n",
       "    Message('note_on', channel=0, note=60, velocity=78, time=11),\n",
       "    Message('control_change', channel=0, control=64, value=36, time=9),\n",
       "    Message('control_change', channel=0, control=67, value=26, time=1),\n",
       "    Message('control_change', channel=0, control=64, value=26, time=16),\n",
       "    Message('control_change', channel=0, control=64, value=20, time=19),\n",
       "    Message('control_change', channel=0, control=67, value=35, time=0),\n",
       "    Message('control_change', channel=0, control=64, value=14, time=20),\n",
       "    Message('control_change', channel=0, control=67, value=43, time=2),\n",
       "    Message('note_on', channel=0, note=60, velocity=0, time=2),\n",
       "    Message('control_change', channel=0, control=64, value=0, time=12),\n",
       "    Message('control_change', channel=0, control=67, value=52, time=1),\n",
       "    Message('control_change', channel=0, control=67, value=61, time=19),\n",
       "    Message('control_change', channel=0, control=67, value=68, time=18),\n",
       "    Message('control_change', channel=0, control=67, value=75, time=16),\n",
       "    Message('control_change', channel=0, control=67, value=82, time=19),\n",
       "    Message('note_on', channel=0, note=70, velocity=71, time=8),\n",
       "    Message('note_on', channel=0, note=64, velocity=65, time=8),\n",
       "    Message('control_change', channel=0, control=67, value=90, time=3),\n",
       "    Message('control_change', channel=0, control=67, value=101, time=18),\n",
       "    Message('control_change', channel=0, control=67, value=116, time=20),\n",
       "    Message('note_on', channel=0, note=70, velocity=0, time=0),\n",
       "    Message('note_on', channel=0, note=64, velocity=0, time=2),\n",
       "    Message('control_change', channel=0, control=67, value=127, time=16),\n",
       "    Message('note_on', channel=0, note=61, velocity=68, time=98),\n",
       "    Message('note_on', channel=0, note=68, velocity=66, time=156),\n",
       "    Message('note_on', channel=0, note=65, velocity=60, time=9),\n",
       "    Message('note_on', channel=0, note=68, velocity=0, time=71),\n",
       "    Message('note_on', channel=0, note=65, velocity=0, time=3),\n",
       "    Message('note_on', channel=0, note=60, velocity=75, time=72),\n",
       "    Message('note_on', channel=0, note=61, velocity=0, time=58),\n",
       "    Message('note_on', channel=0, note=68, velocity=62, time=105),\n",
       "    Message('note_on', channel=0, note=65, velocity=59, time=8),\n",
       "    Message('note_on', channel=0, note=68, velocity=0, time=79),\n",
       "    Message('note_on', channel=0, note=65, velocity=0, time=45),\n",
       "    Message('note_on', channel=0, note=59, velocity=69, time=52),\n",
       "    Message('note_on', channel=0, note=60, velocity=0, time=1),\n",
       "    Message('note_on', channel=0, note=68, velocity=65, time=155),\n",
       "    Message('note_on', channel=0, note=65, velocity=49, time=17),\n",
       "    Message('note_on', channel=0, note=65, velocity=0, time=44),\n",
       "    Message('note_on', channel=0, note=59, velocity=0, time=98),\n",
       "    Message('note_on', channel=0, note=68, velocity=0, time=0),\n",
       "    Message('note_on', channel=0, note=60, velocity=58, time=7),\n",
       "    Message('note_on', channel=0, note=67, velocity=60, time=3),\n",
       "    Message('control_change', channel=0, control=64, value=20, time=3),\n",
       "    Message('note_on', channel=0, note=64, velocity=54, time=10),\n",
       "    Message('control_change', channel=0, control=64, value=51, time=8),\n",
       "    Message('control_change', channel=0, control=64, value=69, time=19),\n",
       "    Message('control_change', channel=0, control=64, value=84, time=18),\n",
       "    Message('control_change', channel=0, control=64, value=104, time=20),\n",
       "    Message('note_on', channel=0, note=64, velocity=0, time=2),\n",
       "    Message('control_change', channel=0, control=64, value=127, time=15),\n",
       "    Message('note_on', channel=0, note=67, velocity=0, time=46),\n",
       "    Message('note_on', channel=0, note=72, velocity=64, time=8),\n",
       "    Message('note_on', channel=0, note=68, velocity=58, time=10),\n",
       "    Message('note_on', channel=0, note=60, velocity=0, time=38),\n",
       "    Message('control_change', channel=0, control=64, value=119, time=27),\n",
       "    Message('control_change', channel=0, control=64, value=102, time=17),\n",
       "    Message('control_change', channel=0, control=64, value=85, time=20),\n",
       "    Message('control_change', channel=0, control=64, value=69, time=18),\n",
       "    Message('control_change', channel=0, control=64, value=57, time=20),\n",
       "    Message('note_on', channel=0, note=70, velocity=73, time=5),\n",
       "    Message('note_on', channel=0, note=68, velocity=0, time=11),\n",
       "    Message('note_on', channel=0, note=72, velocity=0, time=1),\n",
       "    Message('control_change', channel=0, control=64, value=51, time=1),\n",
       "    Message('note_on', channel=0, note=67, velocity=58, time=11),\n",
       "    Message('control_change', channel=0, control=64, value=47, time=100),\n",
       "    Message('control_change', channel=0, control=64, value=40, time=16),\n",
       "    Message('note_on', channel=0, note=68, velocity=72, time=13),\n",
       "    Message('control_change', channel=0, control=64, value=30, time=4),\n",
       "    Message('note_on', channel=0, note=67, velocity=0, time=4),\n",
       "    Message('note_on', channel=0, note=65, velocity=59, time=2),\n",
       "    Message('control_change', channel=0, control=64, value=12, time=14),\n",
       "    Message('control_change', channel=0, control=64, value=0, time=19),\n",
       "    Message('note_on', channel=0, note=65, velocity=0, time=15),\n",
       "    Message('note_on', channel=0, note=70, velocity=0, time=17),\n",
       "    Message('note_on', channel=0, note=64, velocity=68, time=100),\n",
       "    Message('note_on', channel=0, note=67, velocity=66, time=2),\n",
       "    Message('note_on', channel=0, note=68, velocity=0, time=36),\n",
       "    Message('note_on', channel=0, note=64, velocity=0, time=14),\n",
       "    Message('note_on', channel=0, note=59, velocity=56, time=106),\n",
       "    Message('note_on', channel=0, note=67, velocity=0, time=1),\n",
       "    Message('note_on', channel=0, note=65, velocity=63, time=5),\n",
       "    Message('note_on', channel=0, note=68, velocity=69, time=0),\n",
       "    Message('note_on', channel=0, note=65, velocity=0, time=78),\n",
       "    Message('note_on', channel=0, note=67, velocity=67, time=81),\n",
       "    Message('note_on', channel=0, note=59, velocity=0, time=2),\n",
       "    Message('note_on', channel=0, note=64, velocity=65, time=13),\n",
       "    Message('note_on', channel=0, note=60, velocity=56, time=2),\n",
       "    Message('note_on', channel=0, note=68, velocity=0, time=14),\n",
       "    Message('control_change', channel=0, control=64, value=31, time=5),\n",
       "    Message('control_change', channel=0, control=64, value=55, time=20),\n",
       "    Message('control_change', channel=0, control=64, value=72, time=19),\n",
       "    Message('note_on', channel=0, note=64, velocity=0, time=11),\n",
       "    Message('control_change', channel=0, control=64, value=86, time=7),\n",
       "    Message('note_on', channel=0, note=67, velocity=0, time=10),\n",
       "    Message('control_change', channel=0, control=64, value=107, time=8),\n",
       "    Message('control_change', channel=0, control=64, value=127, time=20),\n",
       "    Message('note_on', channel=0, note=60, velocity=0, time=11),\n",
       "    Message('note_on', channel=0, note=72, velocity=73, time=24),\n",
       "    Message('note_on', channel=0, note=68, velocity=66, time=12),\n",
       "    Message('control_change', channel=0, control=64, value=123, time=26),\n",
       "    Message('control_change', channel=0, control=64, value=103, time=18),\n",
       "    Message('control_change', channel=0, control=64, value=84, time=20),\n",
       "    Message('control_change', channel=0, control=64, value=65, time=18),\n",
       "    Message('control_change', channel=0, control=64, value=48, time=19),\n",
       "    Message('control_change', channel=0, control=64, value=43, time=18),\n",
       "    Message('note_on', channel=0, note=70, velocity=74, time=19),\n",
       "    Message('note_on', channel=0, note=68, velocity=0, time=8),\n",
       "    Message('note_on', channel=0, note=67, velocity=73, time=9),\n",
       "    Message('note_on', channel=0, note=72, velocity=0, time=12),\n",
       "    Message('control_change', channel=0, control=64, value=25, time=63),\n",
       "    Message('control_change', channel=0, control=64, value=0, time=16),\n",
       "    Message('note_on', channel=0, note=68, velocity=73, time=47),\n",
       "    Message('note_on', channel=0, note=65, velocity=68, time=2),\n",
       "    Message('note_on', channel=0, note=67, velocity=0, time=44),\n",
       "    Message('note_on', channel=0, note=65, velocity=0, time=39),\n",
       "    Message('note_on', channel=0, note=70, velocity=0, time=3),\n",
       "    Message('note_on', channel=0, note=67, velocity=74, time=86),\n",
       "    Message('note_on', channel=0, note=64, velocity=67, time=2),\n",
       "    Message('note_on', channel=0, note=68, velocity=0, time=55),\n",
       "    Message('note_on', channel=0, note=64, velocity=0, time=5),\n",
       "    Message('note_on', channel=0, note=59, velocity=56, time=93),\n",
       "    Message('note_on', channel=0, note=68, velocity=64, time=5),\n",
       "    Message('note_on', channel=0, note=65, velocity=71, time=6),\n",
       "    Message('note_on', channel=0, note=67, velocity=0, time=10),\n",
       "    Message('note_on', channel=0, note=65, velocity=0, time=64),\n",
       "    Message('note_on', channel=0, note=60, velocity=59, time=81),\n",
       "    Message('note_on', channel=0, note=67, velocity=67, time=1),\n",
       "    Message('note_on', channel=0, note=59, velocity=0, time=4),\n",
       "    Message('note_on', channel=0, note=64, velocity=65, time=11),\n",
       "    Message('note_on', channel=0, note=68, velocity=0, time=29),\n",
       "    Message('note_on', channel=0, note=60, velocity=0, time=110),\n",
       "    Message('note_on', channel=0, note=59, velocity=64, time=4),\n",
       "    Message('note_on', channel=0, note=64, velocity=0, time=0),\n",
       "    Message('note_on', channel=0, note=68, velocity=73, time=4),\n",
       "    Message('note_on', channel=0, note=65, velocity=67, time=3),\n",
       "    Message('note_on', channel=0, note=67, velocity=0, time=3),\n",
       "    Message('note_on', channel=0, note=67, velocity=68, time=148),\n",
       "    Message('note_on', channel=0, note=60, velocity=64, time=1),\n",
       "    Message('note_on', channel=0, note=64, velocity=62, time=12),\n",
       "    Message('note_on', channel=0, note=59, velocity=0, time=0),\n",
       "    Message('note_on', channel=0, note=65, velocity=0, time=20),\n",
       "    Message('note_on', channel=0, note=68, velocity=0, time=8),\n",
       "    Message('note_on', channel=0, note=67, velocity=0, time=131),\n",
       "    Message('note_on', channel=0, note=60, velocity=0, time=2),\n",
       "    Message('note_on', channel=0, note=59, velocity=60, time=6),\n",
       "    Message('note_on', channel=0, note=68, velocity=69, time=2),\n",
       "    Message('note_on', channel=0, note=64, velocity=0, time=1),\n",
       "    Message('note_on', channel=0, note=65, velocity=58, time=13),\n",
       "    Message('note_on', channel=0, note=59, velocity=0, time=141),\n",
       "    Message('note_on', channel=0, note=60, velocity=54, time=1),\n",
       "    Message('note_on', channel=0, note=64, velocity=59, time=15),\n",
       "    Message('note_on', channel=0, note=67, velocity=62, time=0),\n",
       "    Message('note_on', channel=0, note=65, velocity=0, time=11),\n",
       "    Message('note_on', channel=0, note=68, velocity=0, time=26),\n",
       "    Message('note_on', channel=0, note=60, velocity=0, time=110),\n",
       "    Message('note_on', channel=0, note=59, velocity=57, time=5),\n",
       "    Message('note_on', channel=0, note=67, velocity=0, time=2),\n",
       "    Message('note_on', channel=0, note=68, velocity=69, time=11),\n",
       "    Message('note_on', channel=0, note=65, velocity=56, time=3),\n",
       "    Message('note_on', channel=0, note=64, velocity=0, time=13),\n",
       "    Message('note_on', channel=0, note=59, velocity=0, time=129),\n",
       "    Message('note_on', channel=0, note=65, velocity=0, time=1),\n",
       "    Message('note_on', channel=0, note=67, velocity=63, time=2),\n",
       "    Message('note_on', channel=0, note=60, velocity=59, time=7),\n",
       "    Message('note_on', channel=0, note=64, velocity=64, time=18),\n",
       "    Message('note_on', channel=0, note=68, velocity=0, time=15),\n",
       "    Message('note_on', channel=0, note=64, velocity=0, time=75),\n",
       "    Message('note_on', channel=0, note=66, velocity=68, time=51),\n",
       "    Message('note_on', channel=0, note=63, velocity=57, time=10),\n",
       "    Message('note_on', channel=0, note=67, velocity=0, time=13),\n",
       "    Message('note_on', channel=0, note=66, velocity=0, time=136),\n",
       "    Message('note_on', channel=0, note=64, velocity=64, time=7),\n",
       "    Message('note_on', channel=0, note=67, velocity=67, time=0),\n",
       "    Message('note_on', channel=0, note=63, velocity=0, time=13),\n",
       "    Message('note_on', channel=0, note=66, velocity=63, time=154),\n",
       "    Message('note_on', channel=0, note=69, velocity=69, time=11),\n",
       "    Message('note_on', channel=0, note=67, velocity=0, time=15),\n",
       "    Message('note_on', channel=0, note=64, velocity=0, time=20),\n",
       "    Message('note_on', channel=0, note=60, velocity=0, time=49),\n",
       "    Message('note_on', channel=0, note=66, velocity=0, time=31),\n",
       "    Message('note_on', channel=0, note=70, velocity=69, time=46),\n",
       "    Message('note_on', channel=0, note=67, velocity=56, time=13),\n",
       "    Message('note_on', channel=0, note=69, velocity=0, time=12),\n",
       "    Message('note_on', channel=0, note=72, velocity=68, time=135),\n",
       "    Message('note_on', channel=0, note=70, velocity=0, time=0),\n",
       "    Message('note_on', channel=0, note=69, velocity=65, time=15),\n",
       "    Message('note_on', channel=0, note=67, velocity=0, time=2),\n",
       "    Message('note_on', channel=0, note=69, velocity=0, time=45),\n",
       "    Message('note_on', channel=0, note=72, velocity=0, time=14),\n",
       "    Message('note_on', channel=0, note=74, velocity=71, time=115),\n",
       "    Message('note_on', channel=0, note=58, velocity=60, time=15),\n",
       "    Message('note_on', channel=0, note=70, velocity=71, time=2),\n",
       "    Message('note_on', channel=0, note=70, velocity=0, time=84),\n",
       "    Message('note_on', channel=0, note=74, velocity=0, time=0),\n",
       "    Message('note_on', channel=0, note=58, velocity=0, time=7),\n",
       "    Message('note_on', channel=0, note=74, velocity=68, time=221),\n",
       "    Message('note_on', channel=0, note=70, velocity=69, time=9),\n",
       "    Message('note_on', channel=0, note=65, velocity=63, time=18),\n",
       "    Message('note_on', channel=0, note=58, velocity=68, time=2),\n",
       "    Message('note_on', channel=0, note=58, velocity=0, time=80),\n",
       "    Message('note_on', channel=0, note=65, velocity=0, time=0),\n",
       "    Message('note_on', channel=0, note=74, velocity=0, time=4),\n",
       "    Message('note_on', channel=0, note=70, velocity=0, time=5),\n",
       "    Message('note_on', channel=0, note=74, velocity=68, time=239),\n",
       "    Message('note_on', channel=0, note=70, velocity=71, time=6),\n",
       "    Message('note_on', channel=0, note=65, velocity=63, time=6),\n",
       "    Message('note_on', channel=0, note=58, velocity=66, time=4),\n",
       "    Message('note_on', channel=0, note=58, velocity=0, time=84),\n",
       "    Message('note_on', channel=0, note=65, velocity=0, time=2),\n",
       "    Message('note_on', channel=0, note=70, velocity=0, time=4),\n",
       "    Message('note_on', channel=0, note=74, velocity=0, time=20),\n",
       "    Message('note_on', channel=0, note=74, velocity=62, time=263),\n",
       "    Message('note_on', channel=0, note=70, velocity=51, time=16),\n",
       "    Message('note_on', channel=0, note=58, velocity=51, time=2),\n",
       "    Message('note_on', channel=0, note=65, velocity=52, time=1),\n",
       "    Message('control_change', channel=0, control=64, value=31, time=677),\n",
       "    Message('note_on', channel=0, note=72, velocity=59, time=13),\n",
       "    Message('note_on', channel=0, note=58, velocity=0, time=2),\n",
       "    Message('control_change', channel=0, control=64, value=58, time=4),\n",
       "    Message('note_on', channel=0, note=69, velocity=59, time=0),\n",
       "    Message('note_on', channel=0, note=53, velocity=51, time=15),\n",
       "    Message('control_change', channel=0, control=64, value=76, time=2),\n",
       "    Message('control_change', channel=0, control=64, value=98, time=20),\n",
       "    Message('note_on', channel=0, note=74, velocity=0, time=8),\n",
       "    Message('control_change', channel=0, control=64, value=127, time=10),\n",
       "    Message('note_on', channel=0, note=70, velocity=0, time=9),\n",
       "    Message('note_on', channel=0, note=69, velocity=0, time=18),\n",
       "    Message('note_on', channel=0, note=72, velocity=0, time=1),\n",
       "    Message('note_on', channel=0, note=65, velocity=0, time=9),\n",
       "    Message('note_on', channel=0, note=53, velocity=0, time=14),\n",
       "    Message('control_change', channel=0, control=64, value=100, time=152),\n",
       "    Message('control_change', channel=0, control=64, value=77, time=18),\n",
       "    Message('control_change', channel=0, control=64, value=54, time=20),\n",
       "    Message('control_change', channel=0, control=64, value=23, time=17),\n",
       "    Message('note_on', channel=0, note=72, velocity=66, time=3),\n",
       "    Message('note_on', channel=0, note=67, velocity=58, time=11),\n",
       "    Message('note_on', channel=0, note=48, velocity=66, time=1),\n",
       "    Message('control_change', channel=0, control=64, value=0, time=4),\n",
       "    Message('note_on', channel=0, note=64, velocity=58, time=1),\n",
       "    Message('note_on', channel=0, note=48, velocity=0, time=70),\n",
       "    Message('note_on', channel=0, note=70, velocity=80, time=4),\n",
       "    Message('note_on', channel=0, note=72, velocity=0, time=42),\n",
       "    Message('note_on', channel=0, note=67, velocity=0, time=7),\n",
       "    Message('note_on', channel=0, note=64, velocity=0, time=2),\n",
       "    Message('note_on', channel=0, note=70, velocity=0, time=23),\n",
       "    Message('note_on', channel=0, note=70, velocity=66, time=169),\n",
       "    Message('note_on', channel=0, note=48, velocity=68, time=16),\n",
       "    Message('note_on', channel=0, note=67, velocity=70, time=1),\n",
       "    Message('note_on', channel=0, note=64, velocity=63, time=1),\n",
       "    Message('note_on', channel=0, note=48, velocity=0, time=49),\n",
       "    Message('note_on', channel=0, note=64, velocity=0, time=1),\n",
       "    Message('note_on', channel=0, note=67, velocity=0, time=12),\n",
       "    Message('note_on', channel=0, note=70, velocity=0, time=9),\n",
       "    Message('note_on', channel=0, note=70, velocity=70, time=244),\n",
       "    Message('note_on', channel=0, note=64, velocity=57, time=17),\n",
       "    Message('note_on', channel=0, note=48, velocity=63, time=1),\n",
       "    Message('note_on', channel=0, note=67, velocity=68, time=2),\n",
       "    Message('note_on', channel=0, note=48, velocity=0, time=56),\n",
       "    Message('note_on', channel=0, note=64, velocity=0, time=26),\n",
       "    Message('note_on', channel=0, note=67, velocity=0, time=0),\n",
       "    Message('note_on', channel=0, note=70, velocity=0, time=9),\n",
       "    Message('note_on', channel=0, note=70, velocity=65, time=290),\n",
       "    Message('note_on', channel=0, note=64, velocity=47, time=13),\n",
       "    Message('note_on', channel=0, note=67, velocity=56, time=2),\n",
       "    Message('note_on', channel=0, note=48, velocity=49, time=6),\n",
       "    Message('note_on', channel=0, note=69, velocity=61, time=670),\n",
       "    Message('note_on', channel=0, note=50, velocity=49, time=15),\n",
       "    Message('control_change', channel=0, control=64, value=12, time=2),\n",
       "    Message('note_on', channel=0, note=65, velocity=57, time=0),\n",
       "    Message('note_on', channel=0, note=48, velocity=0, time=10),\n",
       "    Message('control_change', channel=0, control=64, value=47, time=9),\n",
       "    Message('note_on', channel=0, note=70, velocity=0, time=9),\n",
       "    Message('control_change', channel=0, control=64, value=70, time=9),\n",
       "    Message('note_on', channel=0, note=64, velocity=0, time=4),\n",
       "    Message('note_on', channel=0, note=67, velocity=0, time=1),\n",
       "    Message('control_change', channel=0, control=64, value=89, time=15),\n",
       "    Message('note_on', channel=0, note=69, velocity=0, time=9),\n",
       "    Message('control_change', channel=0, control=64, value=124, time=9),\n",
       "    Message('note_on', channel=0, note=65, velocity=0, time=5),\n",
       "    Message('note_on', channel=0, note=50, velocity=0, time=77),\n",
       "    Message('note_on', channel=0, note=70, velocity=14, time=76),\n",
       "    Message('control_change', channel=0, control=64, value=98, time=22),\n",
       "    Message('control_change', channel=0, control=64, value=74, time=20),\n",
       "    Message('note_on', channel=0, note=70, velocity=0, time=12),\n",
       "    Message('control_change', channel=0, control=64, value=50, time=5),\n",
       "    Message('control_change', channel=0, control=64, value=21, time=19),\n",
       "    Message('note_on', channel=0, note=72, velocity=68, time=6),\n",
       "    Message('note_on', channel=0, note=69, velocity=65, time=9),\n",
       "    Message('control_change', channel=0, control=64, value=0, time=4),\n",
       "    Message('note_on', channel=0, note=46, velocity=58, time=9),\n",
       "    Message('note_on', channel=0, note=70, velocity=71, time=127),\n",
       "    Message('note_on', channel=0, note=67, velocity=56, time=12),\n",
       "    Message('note_on', channel=0, note=69, velocity=0, time=21),\n",
       "    Message('note_on', channel=0, note=72, velocity=0, time=7),\n",
       "    Message('note_on', channel=0, note=46, velocity=0, time=8),\n",
       "    Message('note_on', channel=0, note=67, velocity=0, time=20),\n",
       "    Message('note_on', channel=0, note=70, velocity=0, time=20),\n",
       "    Message('note_on', channel=0, note=69, velocity=70, time=105),\n",
       "    Message('note_on', channel=0, note=48, velocity=60, time=22),\n",
       "    Message('note_on', channel=0, note=65, velocity=64, time=6),\n",
       "    Message('note_on', channel=0, note=69, velocity=0, time=65),\n",
       "    Message('note_on', channel=0, note=65, velocity=0, time=15),\n",
       "    Message('note_on', channel=0, note=48, velocity=0, time=5),\n",
       "    Message('note_on', channel=0, note=48, velocity=63, time=242),\n",
       "    Message('note_on', channel=0, note=67, velocity=68, time=1),\n",
       "    Message('note_on', channel=0, note=64, velocity=62, time=14),\n",
       "    Message('note_on', channel=0, note=48, velocity=0, time=30),\n",
       "    Message('note_on', channel=0, note=64, velocity=0, time=17),\n",
       "    Message('note_on', channel=0, note=67, velocity=0, time=3),\n",
       "    Message('control_change', channel=0, control=64, value=21, time=242),\n",
       "    Message('control_change', channel=0, control=64, value=42, time=20),\n",
       "    Message('control_change', channel=0, control=64, value=58, time=17),\n",
       "    Message('control_change', channel=0, control=64, value=69, time=19),\n",
       "    Message('note_on', channel=0, note=69, velocity=66, time=1),\n",
       "    Message('control_change', channel=0, control=64, value=79, time=16),\n",
       "    Message('note_on', channel=0, note=65, velocity=61, time=12),\n",
       "    Message('control_change', channel=0, control=64, value=92, time=6),\n",
       "    Message('note_on', channel=0, note=53, velocity=53, time=7),\n",
       "    Message('note_on', channel=0, note=69, velocity=0, time=8),\n",
       "    Message('control_change', channel=0, control=64, value=106, time=3),\n",
       "    Message('control_change', channel=0, control=64, value=116, time=20),\n",
       "    Message('control_change', channel=0, control=64, value=123, time=2),\n",
       "    Message('control_change', channel=0, control=64, value=127, time=18),\n",
       "    Message('note_on', channel=0, note=65, velocity=0, time=27),\n",
       "    Message('note_on', channel=0, note=77, velocity=71, time=68),\n",
       "    Message('control_change', channel=0, control=64, value=121, time=16),\n",
       "    Message('control_change', channel=0, control=64, value=108, time=19),\n",
       "    Message('control_change', channel=0, control=64, value=92, time=16),\n",
       "    Message('control_change', channel=0, control=64, value=74, time=19),\n",
       "    Message('note_on', channel=0, note=77, velocity=0, time=9),\n",
       "    Message('control_change', channel=0, control=64, value=58, time=10),\n",
       "    Message('control_change', channel=0, control=64, value=44, time=19),\n",
       "    Message('control_change', channel=0, control=64, value=38, time=18),\n",
       "    Message('note_on', channel=0, note=79, velocity=75, time=23),\n",
       "    Message('note_on', channel=0, note=53, velocity=0, time=14),\n",
       "    Message('control_change', channel=0, control=64, value=34, time=19),\n",
       "    Message('note_on', channel=0, note=79, velocity=0, time=29),\n",
       "    Message('control_change', channel=0, control=64, value=26, time=5),\n",
       "    Message('control_change', channel=0, control=64, value=18, time=21),\n",
       "    Message('control_change', channel=0, control=64, value=10, time=19),\n",
       "    Message('control_change', channel=0, control=64, value=0, time=35),\n",
       "    Message('note_on', channel=0, note=81, velocity=79, time=10),\n",
       "    Message('note_on', channel=0, note=81, velocity=0, time=62),\n",
       "    Message('note_on', channel=0, note=82, velocity=76, time=90),\n",
       "    Message('note_on', channel=0, note=82, velocity=0, time=73),\n",
       "    Message('note_on', channel=0, note=84, velocity=78, time=76),\n",
       "    Message('note_on', channel=0, note=84, velocity=0, time=70),\n",
       "    Message('note_on', channel=0, note=86, velocity=82, time=102),\n",
       "    Message('note_on', channel=0, note=70, velocity=71, time=10),\n",
       "    Message('note_on', channel=0, note=65, velocity=67, time=2),\n",
       "    Message('note_on', channel=0, note=65, velocity=0, time=49),\n",
       "    Message('note_on', channel=0, note=86, velocity=0, time=5),\n",
       "    Message('note_on', channel=0, note=70, velocity=0, time=12),\n",
       "    Message('note_on', channel=0, note=86, velocity=80, time=251),\n",
       "    Message('note_on', channel=0, note=70, velocity=71, time=10),\n",
       "    Message('note_on', channel=0, note=65, velocity=66, time=5),\n",
       "    Message('note_on', channel=0, note=86, velocity=0, time=58),\n",
       "    Message('note_on', channel=0, note=65, velocity=0, time=6),\n",
       "    Message('note_on', channel=0, note=70, velocity=0, time=7),\n",
       "    Message('note_on', channel=0, note=86, velocity=80, time=260),\n",
       "    Message('note_on', channel=0, note=70, velocity=69, time=6),\n",
       "    Message('note_on', channel=0, note=65, velocity=60, time=13),\n",
       "    Message('note_on', channel=0, note=65, velocity=0, time=53),\n",
       "    Message('note_on', channel=0, note=86, velocity=0, time=5),\n",
       "    Message('note_on', channel=0, note=70, velocity=0, time=3),\n",
       "    Message('note_on', channel=0, note=86, velocity=70, time=275),\n",
       "    Message('note_on', channel=0, note=70, velocity=57, time=15),\n",
       "    Message('note_on', channel=0, note=65, velocity=52, time=12),\n",
       "    Message('control_change', channel=0, control=64, value=27, time=258),\n",
       "    Message('control_change', channel=0, control=64, value=46, time=18),\n",
       "    Message('control_change', channel=0, control=64, value=58, time=20),\n",
       "    Message('control_change', channel=0, control=64, value=63, time=15),\n",
       "    Message('control_change', channel=0, control=64, value=66, time=20),\n",
       "    Message('note_on', channel=0, note=86, velocity=0, time=119),\n",
       "    Message('note_on', channel=0, note=88, velocity=62, time=18),\n",
       "    Message('control_change', channel=0, control=64, value=61, time=48),\n",
       "    Message('control_change', channel=0, control=64, value=50, time=18),\n",
       "    Message('note_on', channel=0, note=88, velocity=0, time=20),\n",
       "    Message('control_change', channel=0, control=64, value=32, time=13),\n",
       "    Message('note_on', channel=0, note=86, velocity=74, time=6),\n",
       "    Message('control_change', channel=0, control=64, value=0, time=13),\n",
       "    Message('control_change', channel=0, control=64, value=41, time=74),\n",
       "    Message('note_on', channel=0, note=86, velocity=0, time=4),\n",
       "    Message('note_on', channel=0, note=84, velocity=77, time=6),\n",
       "    Message('control_change', channel=0, control=64, value=65, time=8),\n",
       "    Message('note_on', channel=0, note=69, velocity=56, time=2),\n",
       "    Message('note_on', channel=0, note=70, velocity=0, time=14),\n",
       "    Message('control_change', channel=0, control=64, value=83, time=2),\n",
       "    Message('control_change', channel=0, control=64, value=110, time=19),\n",
       "    Message('note_on', channel=0, note=84, velocity=0, time=13),\n",
       "    Message('control_change', channel=0, control=64, value=127, time=4),\n",
       "    Message('note_on', channel=0, note=65, velocity=0, time=3),\n",
       "    Message('note_on', channel=0, note=69, velocity=0, time=9),\n",
       "    Message('control_change', channel=0, control=64, value=101, time=194),\n",
       "    Message('control_change', channel=0, control=64, value=76, time=16),\n",
       "    Message('note_on', channel=0, note=84, velocity=72, time=15),\n",
       "    Message('control_change', channel=0, control=64, value=53, time=3),\n",
       "    Message('note_on', channel=0, note=76, velocity=69, time=5),\n",
       "    Message('note_on', channel=0, note=67, velocity=66, time=3),\n",
       "    Message('note_on', channel=0, note=60, velocity=60, time=5),\n",
       "    Message('control_change', channel=0, control=64, value=25, time=6),\n",
       "    Message('control_change', channel=0, control=64, value=0, time=19),\n",
       "    Message('note_on', channel=0, note=60, velocity=0, time=27),\n",
       "    Message('note_on', channel=0, note=67, velocity=0, time=11),\n",
       "    Message('note_on', channel=0, note=82, velocity=77, time=24),\n",
       "    Message('note_on', channel=0, note=76, velocity=0, time=17),\n",
       "    Message('note_on', channel=0, note=84, velocity=0, time=0),\n",
       "    Message('note_on', channel=0, note=82, velocity=0, time=55),\n",
       "    Message('note_on', channel=0, note=82, velocity=77, time=146),\n",
       "    Message('note_on', channel=0, note=60, velocity=61, time=12),\n",
       "    Message('note_on', channel=0, note=76, velocity=73, time=0),\n",
       "    Message('note_on', channel=0, note=67, velocity=66, time=2),\n",
       "    Message('note_on', channel=0, note=67, velocity=0, time=52),\n",
       "    Message('note_on', channel=0, note=60, velocity=0, time=2),\n",
       "    Message('note_on', channel=0, note=76, velocity=0, time=6),\n",
       "    Message('note_on', channel=0, note=82, velocity=0, time=12),\n",
       "    Message('note_on', channel=0, note=82, velocity=77, time=259),\n",
       "    Message('note_on', channel=0, note=76, velocity=69, time=9),\n",
       "    Message('note_on', channel=0, note=60, velocity=60, time=2),\n",
       "    Message('note_on', channel=0, note=67, velocity=58, time=6),\n",
       "    Message('note_on', channel=0, note=60, velocity=0, time=48),\n",
       "    Message('note_on', channel=0, note=67, velocity=0, time=6),\n",
       "    Message('note_on', channel=0, note=76, velocity=0, time=7),\n",
       "    Message('note_on', channel=0, note=82, velocity=0, time=9),\n",
       "    Message('note_on', channel=0, note=82, velocity=65, time=286),\n",
       "    Message('note_on', channel=0, note=76, velocity=54, time=15),\n",
       "    Message('note_on', channel=0, note=67, velocity=49, time=6),\n",
       "    Message('note_on', channel=0, note=60, velocity=49, time=12),\n",
       "    Message('note_on', channel=0, note=67, velocity=0, time=625),\n",
       "    Message('note_on', channel=0, note=60, velocity=0, time=16),\n",
       "    Message('note_on', channel=0, note=81, velocity=60, time=5),\n",
       "    Message('note_on', channel=0, note=82, velocity=0, time=2),\n",
       "    Message('control_change', channel=0, control=64, value=30, time=7),\n",
       "    Message('note_on', channel=0, note=76, velocity=0, time=9),\n",
       "    Message('note_on', channel=0, note=77, velocity=56, time=7),\n",
       "    Message('control_change', channel=0, control=64, value=56, time=3),\n",
       "    Message('note_on', channel=0, note=65, velocity=48, time=6),\n",
       "    Message('note_on', channel=0, note=62, velocity=42, time=5),\n",
       "    Message('control_change', channel=0, control=64, value=72, time=8),\n",
       "    Message('control_change', channel=0, control=64, value=88, time=19),\n",
       "    Message('control_change', channel=0, control=64, value=114, time=18),\n",
       "    Message('note_on', channel=0, note=81, velocity=0, time=6),\n",
       "    Message('note_on', channel=0, note=77, velocity=0, time=2),\n",
       "    Message('control_change', channel=0, control=64, value=127, time=11),\n",
       "    Message('note_on', channel=0, note=62, velocity=0, time=12),\n",
       "    Message('note_on', channel=0, note=65, velocity=0, time=0),\n",
       "    Message('control_change', channel=0, control=64, value=105, time=153),\n",
       "    Message('control_change', channel=0, control=64, value=82, time=18),\n",
       "    Message('control_change', channel=0, control=64, value=60, time=20),\n",
       "    Message('polytouch', channel=0, note=82, value=0, time=13),\n",
       "    Message('control_change', channel=0, control=64, value=36, time=5),\n",
       "    Message('note_on', channel=0, note=84, velocity=68, time=6),\n",
       "    Message('note_on', channel=0, note=58, velocity=66, time=3),\n",
       "    Message('note_on', channel=0, note=81, velocity=66, time=1),\n",
       "    Message('control_change', channel=0, control=64, value=0, time=8),\n",
       "    Message('note_on', channel=0, note=82, velocity=74, time=131),\n",
       "    Message('note_on', channel=0, note=79, velocity=71, time=13),\n",
       "    Message('note_on', channel=0, note=81, velocity=0, time=18),\n",
       "    Message('note_on', channel=0, note=84, velocity=0, time=4),\n",
       "    Message('note_on', channel=0, note=58, velocity=0, time=19),\n",
       "    Message('note_on', channel=0, note=79, velocity=0, time=27),\n",
       "    Message('note_on', channel=0, note=82, velocity=0, time=11),\n",
       "    Message('note_on', channel=0, note=81, velocity=61, time=90),\n",
       "    Message('note_on', channel=0, note=77, velocity=50, time=28),\n",
       "    Message('note_on', channel=0, note=60, velocity=56, time=6),\n",
       "    Message('note_on', channel=0, note=81, velocity=0, time=119),\n",
       "    Message('note_on', channel=0, note=77, velocity=0, time=12),\n",
       "    Message('note_on', channel=0, note=60, velocity=0, time=55),\n",
       "    Message('note_on', channel=0, note=79, velocity=64, time=161),\n",
       "    Message('note_on', channel=0, note=58, velocity=58, time=4),\n",
       "    Message('note_on', channel=0, note=76, velocity=52, time=15),\n",
       "    Message('note_on', channel=0, note=58, velocity=0, time=49),\n",
       "    Message('note_on', channel=0, note=79, velocity=0, time=0),\n",
       "    Message('note_on', channel=0, note=76, velocity=0, time=2),\n",
       "    Message('control_change', channel=0, control=64, value=23, time=4),\n",
       "    Message('control_change', channel=0, control=64, value=35, time=19),\n",
       "    Message('control_change', channel=0, control=64, value=45, time=17),\n",
       "    Message('control_change', channel=0, control=64, value=51, time=18),\n",
       "    Message('control_change', channel=0, control=64, value=53, time=19),\n",
       "    Message('control_change', channel=0, control=64, value=50, time=57),\n",
       "    Message('control_change', channel=0, control=64, value=33, time=18),\n",
       "    Message('control_change', channel=0, control=64, value=0, time=19),\n",
       "    Message('control_change', channel=0, control=67, value=114, time=36),\n",
       "    Message('note_on', channel=0, note=84, velocity=82, time=13),\n",
       "    Message('control_change', channel=0, control=64, value=20, time=6),\n",
       "    Message('control_change', channel=0, control=67, value=101, time=1),\n",
       "    Message('note_on', channel=0, note=57, velocity=83, time=0),\n",
       "    Message('note_on', channel=0, note=81, velocity=79, time=2),\n",
       "    Message('note_on', channel=0, note=45, velocity=76, time=2),\n",
       "    Message('control_change', channel=0, control=64, value=61, time=13),\n",
       "    Message('control_change', channel=0, control=67, value=91, time=1),\n",
       "    Message('note_on', channel=0, note=57, velocity=0, time=14),\n",
       "    Message('control_change', channel=0, control=64, value=86, time=1),\n",
       "    Message('note_on', channel=0, note=45, velocity=0, time=2),\n",
       "    Message('control_change', channel=0, control=67, value=79, time=0),\n",
       "    Message('control_change', channel=0, control=64, value=127, time=17),\n",
       "    Message('control_change', channel=0, control=67, value=64, time=1),\n",
       "    Message('note_on', channel=0, note=81, velocity=0, time=10),\n",
       "    Message('note_on', channel=0, note=84, velocity=0, time=6),\n",
       "    Message('control_change', channel=0, control=67, value=50, time=1),\n",
       "    Message('control_change', channel=0, control=67, value=36, time=20),\n",
       "    Message('control_change', channel=0, control=67, value=30, time=18),\n",
       "    Message('control_change', channel=0, control=64, value=119, time=19),\n",
       "    Message('control_change', channel=0, control=64, value=90, time=19),\n",
       "    Message('control_change', channel=0, control=67, value=36, time=1),\n",
       "    Message('control_change', channel=0, control=64, value=64, time=18),\n",
       "    Message('control_change', channel=0, control=67, value=43, time=2),\n",
       "    Message('note_on', channel=0, note=84, velocity=74, time=2),\n",
       "    Message('note_on', channel=0, note=81, velocity=61, time=14),\n",
       "    Message('control_change', channel=0, control=64, value=35, time=1),\n",
       "    Message('control_change', channel=0, control=67, value=48, time=0),\n",
       "    Message('control_change', channel=0, control=64, value=0, time=16),\n",
       "    Message('control_change', channel=0, control=67, value=54, time=1),\n",
       "    Message('note_on', channel=0, note=81, velocity=0, time=11),\n",
       "    Message('control_change', channel=0, control=67, value=61, time=6),\n",
       "    Message('note_on', channel=0, note=84, velocity=0, time=5),\n",
       "    Message('control_change', channel=0, control=67, value=72, time=15),\n",
       "    Message('control_change', channel=0, control=67, value=84, time=18),\n",
       "    Message('control_change', channel=0, control=67, value=92, time=32),\n",
       "    Message('note_on', channel=0, note=61, velocity=72, time=54),\n",
       "    Message('note_on', channel=0, note=61, velocity=0, time=40),\n",
       "    Message('control_change', channel=0, control=67, value=96, time=35),\n",
       "    Message('note_on', channel=0, note=82, velocity=66, time=82),\n",
       "    Message('note_on', channel=0, note=79, velocity=59, time=15),\n",
       "    Message('note_on', channel=0, note=79, velocity=0, time=43),\n",
       "    Message('note_on', channel=0, note=82, velocity=0, time=14),\n",
       "    Message('note_on', channel=0, note=62, velocity=69, time=94),\n",
       "    Message('note_on', channel=0, note=62, velocity=0, time=38),\n",
       "    Message('control_change', channel=0, control=67, value=100, time=84),\n",
       "    Message('control_change', channel=0, control=67, value=105, time=36),\n",
       "    Message('note_on', channel=0, note=81, velocity=63, time=5),\n",
       "    Message('note_on', channel=0, note=77, velocity=60, time=7),\n",
       "    Message('note_on', channel=0, note=81, velocity=0, time=32),\n",
       "    Message('note_on', channel=0, note=77, velocity=0, time=10),\n",
       "    Message('control_change', channel=0, control=67, value=112, time=77),\n",
       "    Message('control_change', channel=0, control=67, value=117, time=16),\n",
       "    Message('control_change', channel=0, control=67, value=126, time=20),\n",
       "    Message('note_on', channel=0, note=58, velocity=58, time=23),\n",
       "    Message('note_on', channel=0, note=58, velocity=0, time=40),\n",
       "    Message('note_on', channel=0, note=79, velocity=66, time=110),\n",
       "    Message('note_on', channel=0, note=70, velocity=63, time=6),\n",
       "    Message('note_on', channel=0, note=79, velocity=0, time=50),\n",
       "    Message('note_on', channel=0, note=70, velocity=0, time=9),\n",
       "    Message('note_on', channel=0, note=60, velocity=69, time=127),\n",
       "    Message('note_on', channel=0, note=60, velocity=0, time=43),\n",
       "    Message('note_on', channel=0, note=77, velocity=66, time=92),\n",
       "    Message('note_on', channel=0, note=69, velocity=67, time=13),\n",
       "    Message('note_on', channel=0, note=69, velocity=0, time=43),\n",
       "    Message('note_on', channel=0, note=77, velocity=0, time=8),\n",
       "    Message('note_on', channel=0, note=58, velocity=74, time=111),\n",
       "    Message('note_on', channel=0, note=58, velocity=0, time=51),\n",
       "    Message('control_change', channel=0, control=67, value=115, time=20),\n",
       "    Message('control_change', channel=0, control=67, value=107, time=17),\n",
       "    Message('control_change', channel=0, control=67, value=101, time=20),\n",
       "    Message('control_change', channel=0, control=67, value=97, time=17),\n",
       "    Message('note_on', channel=0, note=67, velocity=73, time=18),\n",
       "    Message('note_on', channel=0, note=76, velocity=71, time=5),\n",
       "    Message('control_change', channel=0, control=67, value=93, time=13),\n",
       "    Message('note_on', channel=0, note=67, velocity=0, time=20),\n",
       "    Message('note_on', channel=0, note=76, velocity=0, time=25),\n",
       "    Message('control_change', channel=0, control=67, value=89, time=29),\n",
       "    Message('control_change', channel=0, control=67, value=85, time=57),\n",
       "    Message('note_on', channel=0, note=57, velocity=86, time=14),\n",
       "    Message('note_on', channel=0, note=45, velocity=83, time=9),\n",
       "    Message('control_change', channel=0, control=67, value=80, time=32),\n",
       "    Message('note_on', channel=0, note=45, velocity=0, time=34),\n",
       "    Message('control_change', channel=0, control=67, value=74, time=5),\n",
       "    Message('note_on', channel=0, note=81, velocity=85, time=6),\n",
       "    Message('note_on', channel=0, note=57, velocity=0, time=1),\n",
       "    Message('control_change', channel=0, control=67, value=68, time=11),\n",
       "    Message('control_change', channel=0, control=67, value=63, time=18),\n",
       "    Message('control_change', channel=0, control=67, value=58, time=19),\n",
       "    Message('control_change', channel=0, control=67, value=54, time=19),\n",
       "    Message('note_on', channel=0, note=84, velocity=77, time=23),\n",
       "    Message('note_on', channel=0, note=86, velocity=58, time=12),\n",
       "    Message('note_on', channel=0, note=81, velocity=0, time=1),\n",
       "    Message('control_change', channel=0, control=67, value=47, time=14),\n",
       "    Message('note_on', channel=0, note=86, velocity=0, time=7),\n",
       "    Message('control_change', channel=0, control=67, value=42, time=30),\n",
       "    Message('note_on', channel=0, note=81, velocity=76, time=28),\n",
       "    Message('control_change', channel=0, control=67, value=35, time=8),\n",
       "    Message('note_on', channel=0, note=83, velocity=67, time=8),\n",
       "    Message('note_on', channel=0, note=84, velocity=0, time=5),\n",
       "    Message('note_on', channel=0, note=83, velocity=0, time=18),\n",
       "    Message('control_change', channel=0, control=67, value=31, time=7),\n",
       "    Message('note_on', channel=0, note=81, velocity=0, time=7),\n",
       "    Message('note_on', channel=0, note=61, velocity=86, time=23),\n",
       "    Message('note_on', channel=0, note=49, velocity=84, time=3),\n",
       "    Message('control_change', channel=0, control=67, value=26, time=42),\n",
       "    Message('note_on', channel=0, note=61, velocity=0, time=19),\n",
       "    Message('note_on', channel=0, note=49, velocity=0, time=3),\n",
       "    Message('note_on', channel=0, note=79, velocity=83, time=11),\n",
       "    Message('control_change', channel=0, control=67, value=20, time=1),\n",
       "    Message('control_change', channel=0, control=67, value=14, time=38),\n",
       "    Message('note_on', channel=0, note=82, velocity=82, time=34),\n",
       "    Message('control_change', channel=0, control=67, value=9, time=0),\n",
       "    Message('note_on', channel=0, note=79, velocity=0, time=16),\n",
       "    Message('note_on', channel=0, note=79, velocity=80, time=71),\n",
       "    Message('note_on', channel=0, note=82, velocity=0, time=22),\n",
       "    Message('note_on', channel=0, note=79, velocity=0, time=34),\n",
       "    Message('note_on', channel=0, note=62, velocity=87, time=34),\n",
       "    Message('note_on', channel=0, note=50, velocity=82, time=3),\n",
       "    Message('control_change', channel=0, control=67, value=0, time=44),\n",
       "    Message('note_on', channel=0, note=62, velocity=0, time=10),\n",
       "    Message('note_on', channel=0, note=50, velocity=0, time=5),\n",
       "    Message('note_on', channel=0, note=77, velocity=77, time=12),\n",
       "    Message('note_on', channel=0, note=81, velocity=81, time=63),\n",
       "    Message('note_on', channel=0, note=77, velocity=0, time=22),\n",
       "    Message('note_on', channel=0, note=77, velocity=81, time=75),\n",
       "    Message('note_on', channel=0, note=81, velocity=0, time=11),\n",
       "    Message('note_on', channel=0, note=77, velocity=0, time=28),\n",
       "    Message('note_on', channel=0, note=58, velocity=86, time=42),\n",
       "    Message('note_on', channel=0, note=46, velocity=81, time=6),\n",
       "    Message('note_on', channel=0, note=70, velocity=80, time=69),\n",
       "    Message('note_on', channel=0, note=58, velocity=0, time=1),\n",
       "    Message('note_on', channel=0, note=46, velocity=0, time=2),\n",
       "    Message('note_on', channel=0, note=70, velocity=0, time=87),\n",
       "    Message('note_on', channel=0, note=79, velocity=79, time=6),\n",
       "    Message('note_on', channel=0, note=70, velocity=80, time=74),\n",
       "    Message('note_on', channel=0, note=79, velocity=0, time=33),\n",
       "    Message('note_on', channel=0, note=70, velocity=0, time=34),\n",
       "    Message('note_on', channel=0, note=60, velocity=88, time=19),\n",
       "    Message('note_on', channel=0, note=48, velocity=82, time=9),\n",
       "    Message('note_on', channel=0, note=60, velocity=0, time=40),\n",
       "    Message('note_on', channel=0, note=48, velocity=0, time=23),\n",
       "    Message('note_on', channel=0, note=69, velocity=81, time=13),\n",
       "    Message('note_on', channel=0, note=69, velocity=0, time=73),\n",
       "    Message('note_on', channel=0, note=77, velocity=80, time=3),\n",
       "    Message('note_on', channel=0, note=69, velocity=80, time=86),\n",
       "    Message('note_on', channel=0, note=77, velocity=0, time=18),\n",
       "    Message('note_on', channel=0, note=69, velocity=0, time=16),\n",
       "    Message('note_on', channel=0, note=48, velocity=86, time=40),\n",
       "    Message('note_on', channel=0, note=36, velocity=80, time=7),\n",
       "    Message('note_on', channel=0, note=36, velocity=0, time=41),\n",
       "    Message('note_on', channel=0, note=48, velocity=0, time=13),\n",
       "    Message('note_on', channel=0, note=67, velocity=81, time=4),\n",
       "    Message('note_on', channel=0, note=67, velocity=0, time=75),\n",
       "    Message('note_on', channel=0, note=76, velocity=80, time=16),\n",
       "    Message('note_on', channel=0, note=67, velocity=79, time=79),\n",
       "    Message('note_on', channel=0, note=76, velocity=0, time=22),\n",
       "    Message('note_on', channel=0, note=67, velocity=0, time=20),\n",
       "    Message('note_on', channel=0, note=41, velocity=80, time=45),\n",
       "    Message('note_on', channel=0, note=77, velocity=88, time=9),\n",
       "    Message('note_on', channel=0, note=72, velocity=77, time=5),\n",
       "    Message('note_on', channel=0, note=69, velocity=79, time=0),\n",
       "    Message('note_on', channel=0, note=45, velocity=64, time=90),\n",
       "    Message('note_on', channel=0, note=48, velocity=72, time=88),\n",
       "    Message('note_on', channel=0, note=41, velocity=0, time=12),\n",
       "    Message('control_change', channel=0, control=64, value=33, time=39),\n",
       "    Message('control_change', channel=0, control=64, value=61, time=18),\n",
       "    Message('note_on', channel=0, note=45, velocity=0, time=8),\n",
       "    Message('note_on', channel=0, note=53, velocity=73, time=10),\n",
       "    Message('control_change', channel=0, control=64, value=74, time=0),\n",
       "    Message('note_on', channel=0, note=72, velocity=0, time=9),\n",
       "    Message('note_on', channel=0, note=77, velocity=0, time=0),\n",
       "    Message('control_change', channel=0, control=64, value=87, time=10),\n",
       "    Message('note_on', channel=0, note=48, velocity=0, time=2),\n",
       "    Message('control_change', channel=0, control=64, value=104, time=17),\n",
       "    Message('control_change', channel=0, control=64, value=127, time=17),\n",
       "    Message('note_on', channel=0, note=53, velocity=0, time=19),\n",
       "    Message('note_on', channel=0, note=41, velocity=75, time=13),\n",
       "    Message('note_on', channel=0, note=69, velocity=0, time=25),\n",
       "    Message('note_on', channel=0, note=45, velocity=71, time=49),\n",
       "    Message('note_on', channel=0, note=41, velocity=0, time=48),\n",
       "    Message('note_on', channel=0, note=48, velocity=72, time=35),\n",
       "    Message('control_change', channel=0, control=64, value=121, time=32),\n",
       "    Message('note_on', channel=0, note=45, velocity=0, time=16),\n",
       "    Message('control_change', channel=0, control=64, value=104, time=1),\n",
       "    Message('note_on', channel=0, note=53, velocity=71, time=15),\n",
       "    Message('control_change', channel=0, control=64, value=83, time=5),\n",
       "    Message('note_on', channel=0, note=48, velocity=0, time=15),\n",
       "    Message('control_change', channel=0, control=64, value=62, time=3),\n",
       "    Message('control_change', channel=0, control=64, value=38, time=18),\n",
       "    Message('note_on', channel=0, note=70, velocity=77, time=13),\n",
       "    Message('control_change', channel=0, control=64, value=0, time=4),\n",
       "    Message('note_on', channel=0, note=53, velocity=0, time=0),\n",
       "    Message('note_on', channel=0, note=41, velocity=69, time=19),\n",
       "    Message('note_on', channel=0, note=70, velocity=0, time=22),\n",
       "    Message('note_on', channel=0, note=69, velocity=70, time=9),\n",
       "    Message('note_on', channel=0, note=69, velocity=0, time=36),\n",
       "    Message('note_on', channel=0, note=45, velocity=67, time=14),\n",
       "    Message('note_on', channel=0, note=70, velocity=70, time=8),\n",
       "    Message('note_on', channel=0, note=41, velocity=0, time=17),\n",
       "    Message('note_on', channel=0, note=69, velocity=76, time=43),\n",
       "    Message('note_on', channel=0, note=70, velocity=0, time=13),\n",
       "    Message('note_on', channel=0, note=48, velocity=72, time=12),\n",
       "    Message('note_on', channel=0, note=67, velocity=85, time=21),\n",
       "    Message('note_on', channel=0, note=45, velocity=0, time=22),\n",
       "    Message('note_on', channel=0, note=69, velocity=0, time=3),\n",
       "    Message('note_on', channel=0, note=53, velocity=70, time=23),\n",
       "    Message('note_on', channel=0, note=65, velocity=73, time=5),\n",
       "    Message('note_on', channel=0, note=48, velocity=0, time=4),\n",
       "    Message('note_on', channel=0, note=67, velocity=0, time=1),\n",
       "    Message('note_on', channel=0, note=53, velocity=0, time=43),\n",
       "    Message('note_on', channel=0, note=65, velocity=0, time=0),\n",
       "    Message('note_on', channel=0, note=72, velocity=82, time=35),\n",
       "    Message('note_on', channel=0, note=41, velocity=75, time=9),\n",
       "    Message('note_on', channel=0, note=45, velocity=69, time=92),\n",
       "    Message('note_on', channel=0, note=41, velocity=0, time=19),\n",
       "    Message('note_on', channel=0, note=48, velocity=71, time=69),\n",
       "    Message('note_on', channel=0, note=45, velocity=0, time=51),\n",
       "    Message('note_on', channel=0, note=53, velocity=72, time=23),\n",
       "    Message('note_on', channel=0, note=48, velocity=0, time=16),\n",
       "    Message('note_on', channel=0, note=53, velocity=0, time=40),\n",
       "    Message('note_on', channel=0, note=41, velocity=73, time=22),\n",
       "    Message('note_on', channel=0, note=45, velocity=71, time=79),\n",
       "    Message('note_on', channel=0, note=41, velocity=0, time=32),\n",
       "    Message('note_on', channel=0, note=48, velocity=69, time=57),\n",
       "    Message('note_on', channel=0, note=72, velocity=0, time=38),\n",
       "    Message('note_on', channel=0, note=45, velocity=0, time=3),\n",
       "    Message('note_on', channel=0, note=53, velocity=68, time=16),\n",
       "    Message('control_change', channel=0, control=64, value=32, time=3),\n",
       "    Message('control_change', channel=0, control=64, value=53, time=17),\n",
       "    Message('note_on', channel=0, note=48, velocity=0, time=7),\n",
       "    Message('control_change', channel=0, control=64, value=66, time=13),\n",
       "    Message('note_on', channel=0, note=53, velocity=0, time=8),\n",
       "    Message('control_change', channel=0, control=64, value=76, time=10),\n",
       "    Message('note_on', channel=0, note=41, velocity=75, time=18),\n",
       "    Message('control_change', channel=0, control=64, value=87, time=0),\n",
       "    Message('note_on', channel=0, note=77, velocity=77, time=2),\n",
       "    Message('control_change', channel=0, control=64, value=96, time=17),\n",
       "    Message('note_on', channel=0, note=77, velocity=0, time=27),\n",
       "    Message('note_on', channel=0, note=76, velocity=77, time=0),\n",
       "    Message('note_on', channel=0, note=46, velocity=78, time=37),\n",
       "    Message('control_change', channel=0, control=64, value=88, time=8),\n",
       "    Message('note_on', channel=0, note=41, velocity=0, time=7),\n",
       "    Message('note_on', channel=0, note=76, velocity=0, time=12),\n",
       "    Message('control_change', channel=0, control=64, value=77, time=1),\n",
       "    Message('note_on', channel=0, note=77, velocity=74, time=8),\n",
       "    Message('control_change', channel=0, control=64, value=65, time=11),\n",
       "    Message('control_change', channel=0, control=64, value=54, time=18),\n",
       "    Message('control_change', channel=0, control=64, value=47, time=17),\n",
       "    Message('note_on', channel=0, note=76, velocity=77, time=14),\n",
       "    Message('control_change', channel=0, control=64, value=43, time=5),\n",
       "    Message('note_on', channel=0, note=48, velocity=73, time=2),\n",
       "    Message('note_on', channel=0, note=77, velocity=0, time=2),\n",
       "    Message('control_change', channel=0, control=64, value=39, time=32),\n",
       "    Message('note_on', channel=0, note=74, velocity=79, time=3),\n",
       "    Message('note_on', channel=0, note=76, velocity=0, time=14),\n",
       "    Message('control_change', channel=0, control=64, value=33, time=4),\n",
       "    Message('note_on', channel=0, note=46, velocity=0, time=9),\n",
       "    Message('control_change', channel=0, control=64, value=19, time=8),\n",
       "    Message('note_on', channel=0, note=53, velocity=66, time=6),\n",
       "    Message('control_change', channel=0, control=64, value=0, time=13),\n",
       "    Message('note_on', channel=0, note=72, velocity=78, time=1),\n",
       "    Message('note_on', channel=0, note=74, velocity=0, time=6),\n",
       "    Message('note_on', channel=0, note=48, velocity=0, time=2),\n",
       "    Message('note_on', channel=0, note=72, velocity=0, time=41),\n",
       "    Message('note_on', channel=0, note=53, velocity=0, time=6),\n",
       "    Message('note_on', channel=0, note=41, velocity=74, time=44),\n",
       "    Message('note_on', channel=0, note=77, velocity=82, time=6),\n",
       "    Message('note_on', channel=0, note=45, velocity=71, time=85),\n",
       "    Message('note_on', channel=0, note=41, velocity=0, time=10),\n",
       "    Message('note_on', channel=0, note=48, velocity=71, time=79),\n",
       "    Message('note_on', channel=0, note=45, velocity=0, time=47),\n",
       "    Message('note_on', channel=0, note=53, velocity=72, time=30),\n",
       "    Message('note_on', channel=0, note=48, velocity=0, time=13),\n",
       "    Message('note_on', channel=0, note=53, velocity=0, time=35),\n",
       "    Message('note_on', channel=0, note=41, velocity=73, time=33),\n",
       "    Message('note_on', channel=0, note=45, velocity=69, time=80),\n",
       "    Message('note_on', channel=0, note=41, velocity=0, time=35),\n",
       "    Message('note_on', channel=0, note=48, velocity=72, time=48),\n",
       "    Message('note_on', channel=0, note=77, velocity=0, time=38),\n",
       "    Message('note_on', channel=0, note=45, velocity=0, time=7),\n",
       "    Message('note_on', channel=0, note=53, velocity=63, time=16),\n",
       "    Message('note_on', channel=0, note=48, velocity=0, time=19),\n",
       "    Message('note_on', channel=0, note=53, velocity=0, time=34),\n",
       "    Message('note_on', channel=0, note=82, velocity=78, time=17),\n",
       "    Message('note_on', channel=0, note=41, velocity=71, time=11),\n",
       "    Message('note_on', channel=0, note=82, velocity=0, time=33),\n",
       "    Message('note_on', channel=0, note=81, velocity=67, time=18),\n",
       "    Message('note_on', channel=0, note=81, velocity=0, time=20),\n",
       "    Message('note_on', channel=0, note=45, velocity=70, time=5),\n",
       "    Message('note_on', channel=0, note=41, velocity=0, time=11),\n",
       "    Message('note_on', channel=0, note=82, velocity=80, time=20),\n",
       "    Message('note_on', channel=0, note=81, velocity=77, time=39),\n",
       "    Message('note_on', channel=0, note=82, velocity=0, time=17),\n",
       "    Message('note_on', channel=0, note=48, velocity=72, time=5),\n",
       "    Message('note_on', channel=0, note=79, velocity=82, time=31),\n",
       "    Message('note_on', channel=0, note=81, velocity=0, time=17),\n",
       "    Message('note_on', channel=0, note=45, velocity=0, time=4),\n",
       "    Message('note_on', channel=0, note=53, velocity=74, time=37),\n",
       "    Message('note_on', channel=0, note=77, velocity=74, time=5),\n",
       "    Message('note_on', channel=0, note=48, velocity=0, time=2),\n",
       "    Message('note_on', channel=0, note=79, velocity=0, time=1),\n",
       "    Message('note_on', channel=0, note=77, velocity=0, time=30),\n",
       "    Message('note_on', channel=0, note=53, velocity=0, time=19),\n",
       "    Message('note_on', channel=0, note=84, velocity=85, time=33),\n",
       "    Message('note_on', channel=0, note=41, velocity=77, time=2),\n",
       "    Message('note_on', channel=0, note=45, velocity=73, time=94),\n",
       "    Message('note_on', channel=0, note=41, velocity=0, time=27),\n",
       "    Message('note_on', channel=0, note=48, velocity=76, time=63),\n",
       "    Message('note_on', channel=0, note=84, velocity=0, time=6),\n",
       "    Message('note_on', channel=0, note=45, velocity=0, time=44),\n",
       "    Message('note_on', channel=0, note=53, velocity=70, time=22),\n",
       "    Message('note_on', channel=0, note=48, velocity=0, time=14),\n",
       "    Message('note_on', channel=0, note=53, velocity=0, time=58),\n",
       "    Message('note_on', channel=0, note=84, velocity=84, time=14),\n",
       "    Message('note_on', channel=0, note=41, velocity=79, time=6),\n",
       "    Message('note_on', channel=0, note=45, velocity=73, time=75),\n",
       "    Message('note_on', channel=0, note=41, velocity=0, time=49),\n",
       "    Message('note_on', channel=0, note=48, velocity=77, time=43),\n",
       "    Message('note_on', channel=0, note=84, velocity=0, time=40),\n",
       "    Message('note_on', channel=0, note=53, velocity=69, time=11),\n",
       "    Message('note_on', channel=0, note=45, velocity=0, time=2),\n",
       "    Message('note_on', channel=0, note=48, velocity=0, time=45),\n",
       "    Message('note_on', channel=0, note=53, velocity=0, time=29),\n",
       "    Message('note_on', channel=0, note=41, velocity=77, time=16),\n",
       "    Message('note_on', channel=0, note=89, velocity=77, time=13),\n",
       "    Message('note_on', channel=0, note=89, velocity=0, time=34),\n",
       "    Message('note_on', channel=0, note=88, velocity=75, time=4),\n",
       "    Message('note_on', channel=0, note=46, velocity=74, time=21),\n",
       "    Message('note_on', channel=0, note=88, velocity=0, time=22),\n",
       "    Message('note_on', channel=0, note=41, velocity=0, time=13),\n",
       "    Message('note_on', channel=0, note=89, velocity=79, time=13),\n",
       "    Message('note_on', channel=0, note=48, velocity=71, time=15),\n",
       "    Message('note_on', channel=0, note=53, velocity=66, time=46),\n",
       "    Message('note_on', channel=0, note=46, velocity=0, time=5),\n",
       "    Message('note_on', channel=0, note=89, velocity=0, time=14),\n",
       "    Message('note_on', channel=0, note=88, velocity=78, time=2),\n",
       "    Message('note_on', channel=0, note=48, velocity=0, time=41),\n",
       "    Message('note_on', channel=0, note=86, velocity=81, time=1),\n",
       "    Message('note_on', channel=0, note=88, velocity=0, time=1),\n",
       "    Message('note_on', channel=0, note=53, velocity=0, time=29),\n",
       "    Message('note_on', channel=0, note=86, velocity=0, time=27),\n",
       "    Message('note_on', channel=0, note=84, velocity=66, time=2),\n",
       "    Message('note_on', channel=0, note=84, velocity=0, time=19),\n",
       "    Message('note_on', channel=0, note=53, velocity=83, time=50),\n",
       "    Message('note_on', channel=0, note=89, velocity=92, time=4),\n",
       "    Message('note_on', channel=0, note=48, velocity=78, time=1),\n",
       "    Message('note_on', channel=0, note=41, velocity=77, time=1),\n",
       "    Message('control_change', channel=0, control=64, value=35, time=3),\n",
       "    Message('note_on', channel=0, note=45, velocity=72, time=1),\n",
       "    Message('control_change', channel=0, control=64, value=70, time=19),\n",
       "    Message('note_on', channel=0, note=53, velocity=0, time=10),\n",
       "    Message('note_on', channel=0, note=41, velocity=0, time=1),\n",
       "    Message('control_change', channel=0, control=64, value=100, time=4),\n",
       "    Message('note_on', channel=0, note=48, velocity=0, time=5),\n",
       "    Message('note_on', channel=0, note=89, velocity=0, time=4),\n",
       "    Message('note_on', channel=0, note=45, velocity=0, time=1),\n",
       "    Message('control_change', channel=0, control=64, value=127, time=8),\n",
       "    Message('control_change', channel=0, control=64, value=115, time=95),\n",
       "    Message('control_change', channel=0, control=64, value=96, time=17),\n",
       "    Message('control_change', channel=0, control=64, value=78, time=19),\n",
       "    Message('control_change', channel=0, control=64, value=60, time=19),\n",
       "    Message('control_change', channel=0, control=64, value=43, time=18),\n",
       "    Message('control_change', channel=0, control=64, value=28, time=19),\n",
       "    Message('control_change', channel=0, control=64, value=8, time=16),\n",
       "    Message('control_change', channel=0, control=64, value=0, time=20),\n",
       "    Message('note_on', channel=0, note=81, velocity=92, time=83),\n",
       "    Message('note_on', channel=0, note=57, velocity=87, time=5),\n",
       "    Message('note_on', channel=0, note=45, velocity=83, time=4),\n",
       "    Message('control_change', channel=0, control=64, value=20, time=36),\n",
       "    Message('control_change', channel=0, control=64, value=60, time=19),\n",
       "    Message('control_change', channel=0, control=64, value=81, time=19),\n",
       "    Message('note_on', channel=0, note=57, velocity=0, time=8),\n",
       "    Message('note_on', channel=0, note=45, velocity=0, time=9),\n",
       "    Message('control_change', channel=0, control=64, value=113, time=1),\n",
       "    Message('control_change', channel=0, control=64, value=127, time=20),\n",
       "    Message('note_on', channel=0, note=81, velocity=0, time=36),\n",
       "    Message('control_change', channel=0, control=64, value=121, time=308),\n",
       "    Message('control_change', channel=0, control=64, value=110, time=19),\n",
       "    Message('control_change', channel=0, control=64, value=96, time=18),\n",
       "    Message('control_change', channel=0, control=64, value=78, time=20),\n",
       "    Message('control_change', channel=0, control=64, value=59, time=17),\n",
       "    Message('note_on', channel=0, note=73, velocity=87, time=5),\n",
       "    Message('note_on', channel=0, note=61, velocity=81, time=4),\n",
       "    Message('note_on', channel=0, note=49, velocity=77, time=3),\n",
       "    Message('control_change', channel=0, control=64, value=36, time=6),\n",
       "    Message('control_change', channel=0, control=64, value=0, time=21),\n",
       "    Message('note_on', channel=0, note=61, velocity=0, time=45),\n",
       "    Message('note_on', channel=0, note=49, velocity=0, time=2),\n",
       "    Message('note_on', channel=0, note=73, velocity=0, time=15),\n",
       "    Message('note_on', channel=0, note=74, velocity=94, time=97),\n",
       "    Message('note_on', channel=0, note=62, velocity=87, time=6),\n",
       "    Message('note_on', channel=0, note=50, velocity=86, time=2),\n",
       "    Message('note_on', channel=0, note=62, velocity=0, time=58),\n",
       "    Message('note_on', channel=0, note=50, velocity=0, time=2),\n",
       "    Message('note_on', channel=0, note=74, velocity=0, time=11),\n",
       "    Message('note_on', channel=0, note=77, velocity=91, time=272),\n",
       "    Message('note_on', channel=0, note=53, velocity=78, time=1),\n",
       "    Message('note_on', channel=0, note=65, velocity=80, time=1),\n",
       "    Message('control_change', channel=0, control=64, value=31, time=20),\n",
       "    Message('control_change', channel=0, control=64, value=55, time=18),\n",
       "    Message('control_change', channel=0, control=64, value=71, time=18),\n",
       "    Message('control_change', channel=0, control=64, value=85, time=19),\n",
       "    Message('control_change', channel=0, control=64, value=106, time=18),\n",
       "    Message('control_change', channel=0, control=64, value=127, time=18),\n",
       "    Message('note_on', channel=0, note=77, velocity=0, time=29),\n",
       "    Message('control_change', channel=0, control=67, value=9, time=8),\n",
       "    Message('control_change', channel=0, control=67, value=16, time=38),\n",
       "    Message('control_change', channel=0, control=67, value=21, time=34),\n",
       "    Message('control_change', channel=0, control=67, value=26, time=36),\n",
       "    Message('note_on', channel=0, note=65, velocity=0, time=9),\n",
       "    Message('note_on', channel=0, note=53, velocity=0, time=73),\n",
       "    Message('control_change', channel=0, control=64, value=110, time=84),\n",
       "    Message('control_change', channel=0, control=64, value=95, time=20),\n",
       "    Message('control_change', channel=0, control=64, value=79, time=16),\n",
       "    Message('note_on', channel=0, note=57, velocity=66, time=14),\n",
       "    Message('control_change', channel=0, control=64, value=64, time=4),\n",
       "    Message('note_on', channel=0, note=69, velocity=80, time=1),\n",
       "    Message('control_change', channel=0, control=64, value=52, time=18),\n",
       "    Message('control_change', channel=0, control=64, value=47, time=19),\n",
       "    Message('note_on', channel=0, note=57, velocity=0, time=5),\n",
       "    Message('note_on', channel=0, note=69, velocity=0, time=20),\n",
       "    Message('control_change', channel=0, control=64, value=44, time=66),\n",
       "    Message('note_on', channel=0, note=60, velocity=76, time=3),\n",
       "    Message('control_change', channel=0, control=64, value=42, time=15),\n",
       "    Message('control_change', channel=0, control=67, value=20, time=1),\n",
       "    Message('note_on', channel=0, note=72, velocity=76, time=1),\n",
       "    Message('control_change', channel=0, control=64, value=40, time=18),\n",
       "    Message('note_on', channel=0, note=60, velocity=0, time=28),\n",
       "    Message('note_on', channel=0, note=72, velocity=0, time=1),\n",
       "    Message('note_on', channel=0, note=70, velocity=61, time=5),\n",
       "    Message('control_change', channel=0, control=64, value=33, time=3),\n",
       "    Message('control_change', channel=0, control=67, value=15, time=2),\n",
       "    Message('note_on', channel=0, note=58, velocity=71, time=4),\n",
       "    Message('note_on', channel=0, note=70, velocity=0, time=24),\n",
       "    Message('control_change', channel=0, control=64, value=29, time=7),\n",
       "    Message('control_change', channel=0, control=67, value=10, time=1),\n",
       "    Message('note_on', channel=0, note=72, velocity=60, time=9),\n",
       "    Message('note_on', channel=0, note=60, velocity=74, time=8),\n",
       "    Message('note_on', channel=0, note=58, velocity=0, time=22),\n",
       "    Message('note_on', channel=0, note=70, velocity=89, time=20),\n",
       "    Message('note_on', channel=0, note=72, velocity=0, time=9),\n",
       "    Message('control_change', channel=0, control=67, value=0, time=4),\n",
       "    Message('note_on', channel=0, note=57, velocity=75, time=14),\n",
       "    Message('control_change', channel=0, control=64, value=23, time=5),\n",
       "    Message('note_on', channel=0, note=60, velocity=0, time=9),\n",
       "    Message('note_on', channel=0, note=69, velocity=82, time=12),\n",
       "    Message('control_change', channel=0, control=64, value=16, time=17),\n",
       "    Message('polytouch', channel=0, note=58, value=0, time=16),\n",
       "    Message('note_on', channel=0, note=70, velocity=0, time=0),\n",
       "    Message('note_on', channel=0, note=55, velocity=80, time=1),\n",
       "    Message('control_change', channel=0, control=64, value=12, time=1),\n",
       "    Message('note_on', channel=0, note=67, velocity=73, time=6),\n",
       "    Message('note_on', channel=0, note=57, velocity=0, time=2),\n",
       "    Message('note_on', channel=0, note=69, velocity=0, time=9),\n",
       "    Message('control_change', channel=0, control=64, value=0, time=22),\n",
       "    Message('note_on', channel=0, note=55, velocity=0, time=2),\n",
       "    Message('note_on', channel=0, note=67, velocity=0, time=0),\n",
       "    Message('note_on', channel=0, note=72, velocity=91, time=64),\n",
       "    Message('note_on', channel=0, note=60, velocity=82, time=1),\n",
       "    Message('note_on', channel=0, note=60, velocity=0, time=58),\n",
       "    Message('note_on', channel=0, note=72, velocity=0, time=7),\n",
       "    Message('note_on', channel=0, note=76, velocity=85, time=279),\n",
       "    Message('note_on', channel=0, note=60, velocity=84, time=4),\n",
       "    Message('note_on', channel=0, note=48, velocity=80, time=2),\n",
       "    Message('note_on', channel=0, note=72, velocity=86, time=1),\n",
       "    Message('note_on', channel=0, note=67, velocity=80, time=1),\n",
       "    Message('note_on', channel=0, note=48, velocity=0, time=39),\n",
       "    Message('note_on', channel=0, note=60, velocity=0, time=4),\n",
       "    Message('note_on', channel=0, note=67, velocity=0, time=19),\n",
       "    Message('note_on', channel=0, note=72, velocity=0, time=5),\n",
       "    Message('note_on', channel=0, note=76, velocity=0, time=8),\n",
       "    Message('control_change', channel=0, control=64, value=22, time=258),\n",
       "    Message('control_change', channel=0, control=64, value=52, time=17),\n",
       "    Message('note_on', channel=0, note=77, velocity=83, time=10),\n",
       "    Message('control_change', channel=0, control=64, value=77, time=6),\n",
       "    Message('note_on', channel=0, note=53, velocity=78, time=1),\n",
       "    Message('note_on', channel=0, note=65, velocity=79, time=1),\n",
       "    Message('note_on', channel=0, note=69, velocity=79, time=1),\n",
       "    Message('note_on', channel=0, note=72, velocity=79, time=2),\n",
       "    Message('control_change', channel=0, control=64, value=124, time=20),\n",
       "    Message('note_on', channel=0, note=65, velocity=0, time=11),\n",
       "    Message('note_on', channel=0, note=72, velocity=0, time=3),\n",
       "    Message('note_on', channel=0, note=53, velocity=0, time=3),\n",
       "    Message('note_on', channel=0, note=69, velocity=0, time=1),\n",
       "    Message('note_on', channel=0, note=77, velocity=0, time=7),\n",
       "    Message('control_change', channel=0, control=64, value=100, time=64),\n",
       "    Message('control_change', channel=0, control=64, value=72, time=19),\n",
       "    Message('control_change', channel=0, control=64, value=44, time=18),\n",
       "    Message('control_change', channel=0, control=64, value=14, time=18),\n",
       "    Message('control_change', channel=0, control=64, value=0, time=18),\n",
       "    Message('control_change', channel=0, control=64, value=18, time=183),\n",
       "    Message('control_change', channel=0, control=64, value=34, time=35),\n",
       "    Message('control_change', channel=0, control=64, value=45, time=17),\n",
       "    Message('control_change', channel=0, control=64, value=54, time=19),\n",
       "    Message('control_change', channel=0, control=64, value=64, time=19),\n",
       "    Message('control_change', channel=0, control=64, value=77, time=17),\n",
       "    Message('note_on', channel=0, note=65, velocity=73, time=5),\n",
       "    Message('control_change', channel=0, control=64, value=100, time=13),\n",
       "    Message('note_on', channel=0, note=53, velocity=65, time=11),\n",
       "    Message('note_on', channel=0, note=41, velocity=62, time=3),\n",
       "    Message('control_change', channel=0, control=64, value=127, time=5),\n",
       "    Message('note_on', channel=0, note=53, velocity=0, time=28),\n",
       "    Message('note_on', channel=0, note=65, velocity=0, time=9),\n",
       "    Message('note_on', channel=0, note=41, velocity=0, time=19),\n",
       "    Message('control_change', channel=0, control=64, value=110, time=442),\n",
       "    Message('control_change', channel=0, control=64, value=95, time=19),\n",
       "    Message('control_change', channel=0, control=64, value=82, time=19),\n",
       "    Message('control_change', channel=0, control=64, value=71, time=18),\n",
       "    Message('control_change', channel=0, control=64, value=61, time=18),\n",
       "    Message('control_change', channel=0, control=64, value=52, time=18),\n",
       "    Message('control_change', channel=0, control=64, value=46, time=18),\n",
       "    Message('control_change', channel=0, control=64, value=43, time=19),\n",
       "    Message('control_change', channel=0, control=64, value=41, time=19),\n",
       "    Message('control_change', channel=0, control=64, value=35, time=35),\n",
       "    Message('control_change', channel=0, control=64, value=27, time=19),\n",
       "    Message('control_change', channel=0, control=64, value=12, time=18),\n",
       "    Message('control_change', channel=0, control=64, value=0, time=18),\n",
       "    Message('control_change', channel=0, control=64, value=8, time=4396),\n",
       "    Message('control_change', channel=0, control=67, value=8, time=1),\n",
       "    Message('control_change', channel=0, control=64, value=13, time=17),\n",
       "    Message('control_change', channel=0, control=64, value=17, time=20),\n",
       "    Message('control_change', channel=0, control=67, value=13, time=37),\n",
       "    Message('control_change', channel=0, control=67, value=17, time=94),\n",
       "    Message('control_change', channel=0, control=64, value=21, time=55),\n",
       "    Message('control_change', channel=0, control=64, value=25, time=19),\n",
       "    Message('control_change', channel=0, control=64, value=30, time=18),\n",
       "    Message('control_change', channel=0, control=64, value=34, time=19),\n",
       "    Message('control_change', channel=0, control=67, value=13, time=227),\n",
       "    Message('control_change', channel=0, control=64, value=30, time=35),\n",
       "    Message('control_change', channel=0, control=67, value=8, time=75),\n",
       "    Message('control_change', channel=0, control=64, value=22, time=20),\n",
       "    Message('control_change', channel=0, control=64, value=18, time=18),\n",
       "    Message('control_change', channel=0, control=67, value=0, time=0),\n",
       "    Message('control_change', channel=0, control=64, value=14, time=18),\n",
       "    Message('control_change', channel=0, control=64, value=9, time=19),\n",
       "    Message('control_change', channel=0, control=64, value=0, time=37),\n",
       "    MetaMessage('end_of_track', time=0)])\n",
       "])"
      ]
     },
     "execution_count": 3,
     "metadata": {},
     "output_type": "execute_result"
    }
   ],
   "source": [
    "test_file = mido.MidiFile(\"midi/ADIG01.mid\")\n",
    "test_file"
   ]
  },
  {
   "cell_type": "code",
   "execution_count": 4,
   "metadata": {},
   "outputs": [
    {
     "data": {
      "text/plain": [
       "array(['control_change', 'end_of_track', 'note_on', 'polytouch',\n",
       "       'program_change', 'sequencer_specific', 'set_tempo', 'sysex',\n",
       "       'time_signature'], dtype='<U18')"
      ]
     },
     "execution_count": 4,
     "metadata": {},
     "output_type": "execute_result"
    }
   ],
   "source": [
    "np.unique([x.type for x in test_file.tracks[0]])"
   ]
  },
  {
   "cell_type": "code",
   "execution_count": 5,
   "metadata": {},
   "outputs": [
    {
     "data": {
      "text/plain": [
       "MidiTrack([\n",
       "  Message('control_change', channel=0, control=64, value=47, time=3),\n",
       "  Message('control_change', channel=0, control=64, value=0, time=36),\n",
       "  Message('note_on', channel=0, note=69, velocity=74, time=3),\n",
       "  Message('note_on', channel=0, note=65, velocity=60, time=12),\n",
       "  Message('note_on', channel=0, note=41, velocity=60, time=1),\n",
       "  Message('polytouch', channel=0, note=73, value=127, time=18),\n",
       "  Message('polytouch', channel=0, note=73, value=0, time=34),\n",
       "  Message('note_on', channel=0, note=70, velocity=70, time=258),\n",
       "  Message('note_on', channel=0, note=50, velocity=57, time=18),\n",
       "  Message('note_on', channel=0, note=41, velocity=0, time=15),\n",
       "  Message('note_on', channel=0, note=69, velocity=0, time=33),\n",
       "  Message('polytouch', channel=0, note=50, value=22, time=240),\n",
       "  Message('note_on', channel=0, note=74, velocity=66, time=2),\n",
       "  Message('note_on', channel=0, note=50, velocity=0, time=3),\n",
       "  Message('note_on', channel=0, note=46, velocity=53, time=13)])"
      ]
     },
     "execution_count": 5,
     "metadata": {},
     "output_type": "execute_result"
    }
   ],
   "source": [
    "test_file.tracks[0][150:165]"
   ]
  },
  {
   "cell_type": "code",
   "execution_count": 6,
   "metadata": {},
   "outputs": [
    {
     "name": "stdout",
     "output_type": "stream",
     "text": [
      "note_on channel=0 note=53 velocity=52 time=10 53\n",
      "note_on channel=0 note=58 velocity=52 time=10 58\n",
      "note_on channel=0 note=65 velocity=0 time=10 65\n",
      "note_on channel=0 note=69 velocity=0 time=10 69\n",
      "note_on channel=0 note=69 velocity=65 time=10 69\n",
      "note_on channel=0 note=65 velocity=60 time=10 65\n",
      "note_on channel=0 note=69 velocity=66 time=10 69\n",
      "note_on channel=0 note=65 velocity=58 time=10 65\n",
      "note_on channel=0 note=65 velocity=69 time=10 65\n",
      "note_on channel=0 note=65 velocity=0 time=10 65\n",
      "note_on channel=0 note=61 velocity=86 time=10 61\n",
      "note_on channel=0 note=69 velocity=77 time=10 69\n",
      "note_on channel=0 note=53 velocity=68 time=10 53\n",
      "note_on channel=0 note=79 velocity=0 time=10 79\n",
      "note_on channel=0 note=76 velocity=78 time=10 76\n",
      "note_on channel=0 note=74 velocity=0 time=10 74\n",
      "note_on channel=0 note=57 velocity=66 time=10 57\n",
      "note_on channel=0 note=59 velocity=75 time=10 59\n",
      "note_on channel=0 note=56 velocity=69 time=10 56\n",
      "note_on channel=0 note=74 velocity=0 time=10 74\n",
      "note_on channel=0 note=59 velocity=0 time=10 59\n",
      "note_on channel=0 note=53 velocity=0 time=10 53\n",
      "note_on channel=0 note=75 velocity=68 time=10 75\n",
      "note_on channel=0 note=55 velocity=0 time=10 55\n",
      "note_on channel=0 note=60 velocity=61 time=10 60\n",
      "note_on channel=0 note=78 velocity=0 time=10 78\n",
      "note_on channel=0 note=48 velocity=0 time=10 48\n",
      "note_on channel=0 note=55 velocity=0 time=10 55\n",
      "note_on channel=0 note=51 velocity=69 time=10 51\n",
      "note_on channel=0 note=74 velocity=0 time=10 74\n",
      "note_on channel=0 note=55 velocity=80 time=10 55\n",
      "note_on channel=0 note=52 velocity=61 time=10 52\n",
      "note_on channel=0 note=57 velocity=0 time=10 57\n",
      "note_on channel=0 note=60 velocity=0 time=10 60\n",
      "note_on channel=0 note=59 velocity=56 time=10 59\n",
      "note_on channel=0 note=74 velocity=74 time=10 74\n",
      "note_on channel=0 note=64 velocity=65 time=10 64\n",
      "note_on channel=0 note=55 velocity=0 time=10 55\n",
      "note_on channel=0 note=74 velocity=67 time=10 74\n",
      "note_on channel=0 note=77 velocity=0 time=10 77\n",
      "note_on channel=0 note=67 velocity=73 time=10 67\n",
      "note_on channel=0 note=63 velocity=59 time=10 63\n",
      "note_on channel=0 note=68 velocity=0 time=10 68\n",
      "note_on channel=0 note=62 velocity=0 time=10 62\n",
      "note_on channel=0 note=65 velocity=0 time=10 65\n",
      "note_on channel=0 note=62 velocity=63 time=10 62\n",
      "note_on channel=0 note=54 velocity=0 time=10 54\n",
      "note_on channel=0 note=43 velocity=0 time=10 43\n",
      "note_on channel=0 note=55 velocity=46 time=10 55\n",
      "note_on channel=0 note=44 velocity=83 time=10 44\n",
      "note_on channel=0 note=56 velocity=29 time=10 56\n",
      "note_on channel=0 note=60 velocity=70 time=10 60\n",
      "note_on channel=0 note=55 velocity=73 time=10 55\n",
      "note_on channel=0 note=74 velocity=74 time=10 74\n",
      "note_on channel=0 note=69 velocity=70 time=10 69\n",
      "note_on channel=0 note=57 velocity=49 time=10 57\n",
      "note_on channel=0 note=76 velocity=0 time=10 76\n",
      "note_on channel=0 note=48 velocity=56 time=10 48\n",
      "note_on channel=0 note=64 velocity=0 time=10 64\n",
      "note_on channel=0 note=60 velocity=49 time=10 60\n",
      "note_on channel=0 note=59 velocity=0 time=10 59\n",
      "note_on channel=0 note=45 velocity=47 time=10 45\n",
      "note_on channel=0 note=48 velocity=69 time=10 48\n",
      "note_on channel=0 note=63 velocity=0 time=10 63\n",
      "note_on channel=0 note=67 velocity=0 time=10 67\n",
      "note_on channel=0 note=62 velocity=0 time=10 62\n",
      "note_on channel=0 note=54 velocity=68 time=10 54\n",
      "note_on channel=0 note=31 velocity=77 time=10 31\n",
      "note_on channel=0 note=31 velocity=0 time=10 31\n",
      "note_on channel=0 note=79 velocity=0 time=10 79\n",
      "note_on channel=0 note=74 velocity=0 time=10 74\n",
      "note_on channel=0 note=46 velocity=82 time=10 46\n",
      "note_on channel=0 note=58 velocity=76 time=10 58\n",
      "note_on channel=0 note=81 velocity=0 time=10 81\n",
      "note_on channel=0 note=69 velocity=0 time=10 69\n",
      "note_on channel=0 note=67 velocity=72 time=10 67\n",
      "note_on channel=0 note=57 velocity=0 time=10 57\n",
      "note_on channel=0 note=65 velocity=51 time=10 65\n",
      "note_on channel=0 note=65 velocity=0 time=10 65\n",
      "note_on channel=0 note=82 velocity=50 time=10 82\n",
      "note_on channel=0 note=53 velocity=0 time=10 53\n",
      "note_on channel=0 note=62 velocity=54 time=10 62\n",
      "note_on channel=0 note=55 velocity=64 time=10 55\n",
      "note_on channel=0 note=50 velocity=0 time=10 50\n",
      "note_on channel=0 note=65 velocity=57 time=10 65\n",
      "note_on channel=0 note=82 velocity=85 time=10 82\n",
      "note_on channel=0 note=65 velocity=0 time=10 65\n",
      "note_on channel=0 note=69 velocity=0 time=10 69\n",
      "note_on channel=0 note=77 velocity=55 time=10 77\n",
      "note_on channel=0 note=53 velocity=61 time=10 53\n",
      "note_on channel=0 note=65 velocity=0 time=10 65\n",
      "note_on channel=0 note=57 velocity=65 time=10 57\n",
      "note_on channel=0 note=53 velocity=59 time=10 53\n",
      "note_on channel=0 note=57 velocity=0 time=10 57\n",
      "note_on channel=0 note=52 velocity=0 time=10 52\n",
      "note_on channel=0 note=52 velocity=0 time=10 52\n",
      "note_on channel=0 note=73 velocity=0 time=10 73\n",
      "note_on channel=0 note=62 velocity=58 time=10 62\n",
      "note_on channel=0 note=69 velocity=78 time=10 69\n",
      "note_on channel=0 note=62 velocity=70 time=10 62\n",
      "note_on channel=0 note=77 velocity=83 time=10 77\n",
      "note_on channel=0 note=57 velocity=67 time=10 57\n",
      "note_on channel=0 note=38 velocity=0 time=10 38\n",
      "note_on channel=0 note=50 velocity=0 time=10 50\n",
      "note_on channel=0 note=55 velocity=0 time=10 55\n",
      "note_on channel=0 note=60 velocity=66 time=10 60\n",
      "note_on channel=0 note=70 velocity=0 time=10 70\n",
      "note_on channel=0 note=53 velocity=53 time=10 53\n",
      "note_on channel=0 note=58 velocity=0 time=10 58\n",
      "note_on channel=0 note=72 velocity=77 time=10 72\n",
      "note_on channel=0 note=53 velocity=0 time=10 53\n",
      "note_on channel=0 note=79 velocity=84 time=10 79\n",
      "note_on channel=0 note=77 velocity=81 time=10 77\n",
      "note_on channel=0 note=60 velocity=80 time=10 60\n",
      "note_on channel=0 note=65 velocity=56 time=10 65\n",
      "note_on channel=0 note=53 velocity=0 time=10 53\n",
      "note_on channel=0 note=80 velocity=0 time=10 80\n",
      "note_on channel=0 note=81 velocity=0 time=10 81\n",
      "note_on channel=0 note=83 velocity=74 time=10 83\n",
      "note_on channel=0 note=52 velocity=55 time=10 52\n",
      "note_on channel=0 note=52 velocity=0 time=10 52\n",
      "note_on channel=0 note=62 velocity=48 time=10 62\n",
      "note_on channel=0 note=70 velocity=0 time=10 70\n",
      "note_on channel=0 note=72 velocity=48 time=10 72\n",
      "note_on channel=0 note=72 velocity=55 time=10 72\n",
      "note_on channel=0 note=55 velocity=0 time=10 55\n",
      "note_on channel=0 note=61 velocity=75 time=10 61\n",
      "note_on channel=0 note=65 velocity=0 time=10 65\n",
      "note_on channel=0 note=36 velocity=0 time=10 36\n",
      "note_on channel=0 note=64 velocity=54 time=10 64\n",
      "note_on channel=0 note=68 velocity=58 time=10 68\n",
      "note_on channel=0 note=67 velocity=0 time=10 67\n",
      "note_on channel=0 note=67 velocity=0 time=10 67\n",
      "note_on channel=0 note=63 velocity=57 time=10 63\n",
      "note_on channel=0 note=48 velocity=0 time=10 48\n",
      "note_on channel=0 note=81 velocity=79 time=10 81\n",
      "note_on channel=0 note=70 velocity=71 time=10 70\n",
      "note_on channel=0 note=70 velocity=71 time=10 70\n",
      "note_on channel=0 note=81 velocity=0 time=10 81\n",
      "note_on channel=0 note=77 velocity=0 time=10 77\n",
      "note_on channel=0 note=62 velocity=0 time=10 62\n",
      "note_on channel=0 note=53 velocity=73 time=10 53\n",
      "note_on channel=0 note=41 velocity=0 time=10 41\n",
      "note_on channel=0 note=53 velocity=0 time=10 53\n",
      "note_on channel=0 note=77 velocity=83 time=10 77\n"
     ]
    }
   ],
   "source": [
    "for message in test_file.tracks[0]:\n",
    "    if message.time == 10 and message.type in [\"note_on\", \"note_off\"]:\n",
    "        print(message, message.note)"
   ]
  },
  {
   "cell_type": "code",
   "execution_count": 7,
   "metadata": {},
   "outputs": [
    {
     "name": "stdout",
     "output_type": "stream",
     "text": [
      "480 3600.0\n"
     ]
    }
   ],
   "source": [
    "print(test_file.ticks_per_beat, test_file.ticks_per_beat*30/4)"
   ]
  },
  {
   "cell_type": "code",
   "execution_count": 8,
   "metadata": {},
   "outputs": [
    {
     "name": "stdout",
     "output_type": "stream",
     "text": [
      "type:0 ; num. tracks: 1  ;  261.4196103749941 seconds ;  7874messages\n"
     ]
    }
   ],
   "source": [
    "print(\"type:\" + str(test_file.type), \"; num. tracks: \" + str(len(test_file.tracks)), \" ; \", str(test_file.length) + \" seconds\", \"; \", str(len(test_file.tracks[0])) + \"messages\")\n",
    "    "
   ]
  },
  {
   "cell_type": "code",
   "execution_count": 9,
   "metadata": {},
   "outputs": [
    {
     "name": "stdout",
     "output_type": "stream",
     "text": [
      "2431 files\n"
     ]
    }
   ],
   "source": [
    "midi_dir = os.listdir(\"midi/\")\n",
    "print(f'{len(midi_dir)} files')"
   ]
  },
  {
   "attachments": {},
   "cell_type": "markdown",
   "metadata": {},
   "source": [
    "## The Model  \n",
    "Using Keras (from the tensorflow library), we can build a model with a few lines of code.\n",
    "In the reference paper by Oore et. al they used a model with an input layer that takes a one-hot 413-dimensional vector, then has three hidden LSTM layers with 512 cells each, then followed by an output layer, which is similar to the input layer."
   ]
  },
  {
   "attachments": {},
   "cell_type": "markdown",
   "metadata": {},
   "source": [
    "Following keras documentation: https://keras.io/api/models/model/  \n",
    "and: https://keras.io/examples/nlp/lstm_seq2seq/"
   ]
  },
  {
   "cell_type": "code",
   "execution_count": 109,
   "metadata": {},
   "outputs": [],
   "source": [
    "# define input shape: 128 note-on events; 128 note-off events;\n",
    "# The reference paper also included 125 time-shift events and 32 velocity events, however I am using a simplified model\n",
    "input_size = 128 + 128 + 125\n",
    "num_messages = 800\n",
    "inputs = keras.layers.Input(shape=(input_size, num_messages), name=\"Input\")\n",
    "\n",
    "lstm0, state_h, state_c = keras.layers.LSTM(512, name=\"LSTM-0\", return_sequences=True, return_state=True) (inputs)\n",
    "zero_states = [state_h, state_c]\n",
    "\n",
    "# The reference paper uses 3 LSTM layers, I use 2 for simplicity and faster training\n",
    "lstm1_layer= keras.layers.LSTM(512, name=\"LSTM-1\", return_sequences=True, return_state=True)\n",
    "lstm1, state_h, state_c = lstm1_layer(lstm0, initial_state=zero_states)\n",
    "first_states = [state_h, state_c]\n",
    "\n",
    "inputs3 = keras.layers.Input(shape=(input_size, num_messages), name=\"Input3\")\n",
    "lstm3, _, _ = keras.layers.LSTM(512, name=\"LSTM-3\", return_sequences=True, return_state=True) (inputs3, initial_state=first_states)\n",
    "\n",
    "outputs = keras.layers.Dense(num_messages, name=\"Output\", activation=\"softmax\") (lstm3)\n",
    "\n",
    "model = keras.Model(inputs=[inputs, inputs3], outputs=outputs)\n",
    "model.compile(loss=keras.losses.categorical_crossentropy, optimizer=keras.optimizers.RMSprop(learning_rate=0.01))"
   ]
  },
  {
   "attachments": {},
   "cell_type": "markdown",
   "metadata": {},
   "source": [
    "## Training  \n",
    "we loop over a subset of training data, in order to make training faster."
   ]
  },
  {
   "cell_type": "code",
   "execution_count": 20,
   "metadata": {},
   "outputs": [],
   "source": [
    "# set random seeds for reproducability\n",
    "random.seed(0)\n",
    "np.random.seed(0)\n",
    "tf.random.set_seed(0)"
   ]
  },
  {
   "cell_type": "code",
   "execution_count": 12,
   "metadata": {},
   "outputs": [
    {
     "name": "stdout",
     "output_type": "stream",
     "text": [
      "['ParkJH05.mid' 'KaszoS07.mid' 'Jussow01.mid' 'Richardson02.mid'\n",
      " 'Kociuban14.mid' 'ChowK05.mid' 'Savitski09.mid' 'Shamray03.mid'\n",
      " 'ZhangH06.mid' 'Izzard01.mid' 'Wang08.mid' 'Woo05.mid'\n",
      " 'PrjevalskayaM10.mid' 'GonzalezJ01.mid' 'Verbaite03.mid' 'Staupe01.mid'\n",
      " 'WangY02.mid' 'KiselevaD16.mid' 'JohannsonP24.mid' 'Tetzloff08.mid'\n",
      " 'Shilyaev03.mid' 'BENABD09.mid' 'Tario07.mid' 'JohannsonP24.mid'\n",
      " 'KaiRuiR08.mid' 'HuangSW06.mid' 'FALIKS01.mid' 'Huang12.mid'\n",
      " 'GonzalezJ08.mid' 'JeonH06.mid' 'Yeletskiy04.mid' 'BuiJL02.mid'\n",
      " 'Lee_E03.mid' 'Tsianos02.mid' 'KanM02.mid' 'Wilshire04.mid'\n",
      " 'Wilshire04.mid' 'Sun02.mid' 'Song05.mid' 'JohannsonP25.mid'\n",
      " 'ChowK01.mid' 'ZhaoK02.mid' 'Eras01.mid' 'Park09.mid' 'Mizumoto02.mid'\n",
      " 'KimG06.mid' 'ChernovA22.mid' 'LiYZ08.mid' 'Tysman09.mid' 'YuP04.mid'\n",
      " 'Falzone02.mid' 'BENABD01.mid' 'SOLOM05.mid' 'Nikiforov01.mid'\n",
      " 'Avila01.mid' 'Yang03.mid' 'Denisova09.mid' 'KabuliL01.mid'\n",
      " 'KotysV16.mid' 'Huang12.mid' 'TET01.mid' 'Lee02.mid' 'KiselevaD12.mid'\n",
      " 'LeeSH14.mid' 'Teo05.mid' 'LeeE04.mid' 'ParkS15.mid' 'DupreeF08.mid'\n",
      " 'SHYBAY05.mid' 'Guo03.mid' 'LiuY06.mid' 'OUSSET02.mid' 'WongWY11.mid'\n",
      " 'PrjevalskayaM08.mid' 'Mizumoto08.mid' 'ChernovA21.mid' 'SirajA01.mid'\n",
      " 'Liu01.mid' 'SUDBIN03.mid' 'KanM16.mid' 'Park02.mid' 'KiselevaD13.mid'\n",
      " 'DupreeF03.mid' 'Teo04.mid' 'Chenguang02.mid' 'MunA17.mid'\n",
      " 'Soukhovetski03.mid' 'Zuber04.mid' 'Gryaznov07.mid' 'KIM_J01.mid'\n",
      " 'Tran03.mid' 'RAN02.mid' 'BLINOV05.mid' 'Zukiewicz03.mid' 'WangA07.mid'\n",
      " 'KimSY11.mid' 'WangY10.mid' 'Tan03.mid' 'SunY05.mid' 'ChenGuang10.mid']\n"
     ]
    }
   ],
   "source": [
    "training_files = np.random.choice(midi_dir, 100)\n",
    "print(training_files)"
   ]
  },
  {
   "cell_type": "code",
   "execution_count": 13,
   "metadata": {},
   "outputs": [],
   "source": [
    "def convertMidiToArray(messages, num_messages = -1, input_size=128*2):\n",
    "    ret_arr = np.empty((input_size,0), np.int8)\n",
    "    current_message = 0\n",
    "    template_vector = np.zeros((input_size,1), np.int8)\n",
    "    for m in messages:\n",
    "        if num_messages >= 0 and current_message >= num_messages/2.0:\n",
    "            break\n",
    "\n",
    "        if (m.type == \"note_on\"):\n",
    "            # add time shift vector\n",
    "            tmp_vector = template_vector.copy()\n",
    "            tmp_vector[128*2+int(min(m.time/8.0, 124))] = 1\n",
    "            ret_arr = np.hstack((ret_arr, tmp_vector))\n",
    "\n",
    "            # add note vector\n",
    "            tmp_vector = template_vector.copy()\n",
    "            tmp_vector[m.note] = 1\n",
    "            ret_arr = np.hstack((ret_arr, tmp_vector))\n",
    "            current_message += 1\n",
    "        \n",
    "        elif (m.type == \"note_off\"):\n",
    "            # add time shift vector\n",
    "            tmp_vector = template_vector.copy()\n",
    "            tmp_vector[128*2+int(min(m.time/8.0, 124))] = 1\n",
    "            ret_arr = np.hstack((ret_arr, tmp_vector))\n",
    "\n",
    "            tmp_vector = template_vector.copy()\n",
    "            tmp_vector[m.note+128] = 1\n",
    "            ret_arr = np.hstack((ret_arr, tmp_vector))\n",
    "            current_message += 1\n",
    "        \n",
    "        \n",
    "    \n",
    "    return ret_arr.reshape((1, input_size, -1))"
   ]
  },
  {
   "cell_type": "code",
   "execution_count": 14,
   "metadata": {},
   "outputs": [
    {
     "name": "stdout",
     "output_type": "stream",
     "text": [
      "(0, 381, 800) (1, 381, 800)\n",
      "(1, 381, 800) (1, 381, 800)\n",
      "(2, 381, 800) (1, 381, 800)\n",
      "(3, 381, 800) (1, 381, 800)\n",
      "(4, 381, 800) (1, 381, 800)\n",
      "(5, 381, 800) (1, 381, 800)\n",
      "(6, 381, 800) (1, 381, 800)\n",
      "(7, 381, 800) (1, 381, 800)\n",
      "(8, 381, 800) (1, 381, 800)\n",
      "(9, 381, 800) (1, 381, 800)\n",
      "(10, 381, 800) (1, 381, 800)\n",
      "(11, 381, 800) (1, 381, 800)\n",
      "(12, 381, 800) (1, 381, 800)\n",
      "(13, 381, 800) (1, 381, 800)\n",
      "(14, 381, 800) (1, 381, 800)\n",
      "(15, 381, 800) (1, 381, 800)\n",
      "(16, 381, 800) (1, 381, 800)\n",
      "(17, 381, 800) (1, 381, 800)\n",
      "(18, 381, 800) (1, 381, 800)\n",
      "(19, 381, 800) (1, 381, 800)\n",
      "(20, 381, 800) (1, 381, 800)\n",
      "(21, 381, 800) (1, 381, 800)\n",
      "(22, 381, 800) (1, 381, 800)\n",
      "(23, 381, 800) (1, 381, 800)\n",
      "(24, 381, 800) (1, 381, 800)\n",
      "(25, 381, 800) (1, 381, 800)\n",
      "(26, 381, 800) (1, 381, 800)\n",
      "(27, 381, 800) (1, 381, 800)\n",
      "(28, 381, 800) (1, 381, 800)\n",
      "(29, 381, 800) (1, 381, 800)\n",
      "(30, 381, 800) (1, 381, 800)\n",
      "(31, 381, 800) (1, 381, 800)\n",
      "(32, 381, 800) (1, 381, 800)\n",
      "(33, 381, 800) (1, 381, 800)\n",
      "(34, 381, 800) (1, 381, 800)\n",
      "(35, 381, 800) (1, 381, 800)\n",
      "(36, 381, 800) (1, 381, 800)\n",
      "(37, 381, 800) (1, 381, 800)\n",
      "(38, 381, 800) (1, 381, 800)\n",
      "(39, 381, 800) (1, 381, 800)\n",
      "(40, 381, 800) (1, 381, 800)\n",
      "(41, 381, 800) (1, 381, 800)\n",
      "(42, 381, 800) (1, 381, 800)\n",
      "(43, 381, 800) (1, 381, 800)\n",
      "(44, 381, 800) (1, 381, 800)\n",
      "(45, 381, 800) (1, 381, 800)\n",
      "(46, 381, 800) (1, 381, 800)\n",
      "(47, 381, 800) (1, 381, 800)\n",
      "(48, 381, 800) (1, 381, 800)\n",
      "(49, 381, 800) (1, 381, 800)\n",
      "(50, 381, 800) (1, 381, 800)\n",
      "(51, 381, 800) (1, 381, 800)\n",
      "(52, 381, 800) (1, 381, 800)\n",
      "(53, 381, 800) (1, 381, 800)\n",
      "(54, 381, 800) (1, 381, 800)\n",
      "(55, 381, 800) (1, 381, 800)\n",
      "(56, 381, 800) (1, 381, 800)\n",
      "(57, 381, 800) (1, 381, 800)\n",
      "(58, 381, 800) (1, 381, 800)\n",
      "(59, 381, 800) (1, 381, 800)\n",
      "(60, 381, 800) (1, 381, 800)\n",
      "(61, 381, 800) (1, 381, 800)\n",
      "(62, 381, 800) (1, 381, 800)\n",
      "(63, 381, 800) (1, 381, 800)\n",
      "(64, 381, 800) (1, 381, 800)\n",
      "(65, 381, 800) (1, 381, 800)\n",
      "(66, 381, 800) (1, 381, 800)\n",
      "(67, 381, 800) (1, 381, 800)\n",
      "(68, 381, 800) (1, 381, 800)\n",
      "(69, 381, 800) (1, 381, 800)\n",
      "(70, 381, 800) (1, 381, 800)\n",
      "(71, 381, 800) (1, 381, 800)\n",
      "(72, 381, 800) (1, 381, 800)\n",
      "(73, 381, 800) (1, 381, 800)\n",
      "(74, 381, 800) (1, 381, 800)\n",
      "(75, 381, 800) (1, 381, 800)\n",
      "(76, 381, 800) (1, 381, 800)\n",
      "(77, 381, 800) (1, 381, 800)\n",
      "(78, 381, 800) (1, 381, 800)\n",
      "(79, 381, 800) (1, 381, 800)\n",
      "(80, 381, 800) (1, 381, 800)\n",
      "(81, 381, 800) (1, 381, 800)\n",
      "(82, 381, 800) (1, 381, 800)\n",
      "(83, 381, 800) (1, 381, 800)\n",
      "(84, 381, 800) (1, 381, 800)\n",
      "(85, 381, 800) (1, 381, 800)\n",
      "(86, 381, 800) (1, 381, 800)\n",
      "(87, 381, 800) (1, 381, 800)\n",
      "(88, 381, 800) (1, 381, 800)\n",
      "(89, 381, 800) (1, 381, 800)\n",
      "(90, 381, 800) (1, 381, 800)\n"
     ]
    }
   ],
   "source": [
    "training_data = np.empty((0, input_size, num_messages))\n",
    "for file in training_files:\n",
    "    tmp = mido.MidiFile(f\"midi/{file}\")\n",
    "    \n",
    "    test_if_valid = np.unique([x.type for x in tmp.tracks[0]])\n",
    "    if not (\"note_on\" in test_if_valid and \"note_off\" in test_if_valid):\n",
    "        continue\n",
    "    new_data = convertMidiToArray(tmp.tracks[0], num_messages=num_messages, input_size=input_size)\n",
    "    print(training_data.shape, new_data.shape)\n",
    "    if (new_data.shape == (1, input_size, num_messages)):\n",
    "        training_data = np.vstack((training_data, new_data))"
   ]
  },
  {
   "cell_type": "code",
   "execution_count": 15,
   "metadata": {},
   "outputs": [
    {
     "data": {
      "text/plain": [
       "(91, 381, 800)"
      ]
     },
     "execution_count": 15,
     "metadata": {},
     "output_type": "execute_result"
    }
   ],
   "source": [
    "training_data.shape"
   ]
  },
  {
   "cell_type": "code",
   "execution_count": 16,
   "metadata": {},
   "outputs": [],
   "source": [
    "target_data = np.zeros(training_data.shape)\n",
    "target_data[:, :, 0:-1] = training_data[:, :, 1:]"
   ]
  },
  {
   "cell_type": "code",
   "execution_count": 98,
   "metadata": {},
   "outputs": [],
   "source": [
    "# set random seeds for reproducability\n",
    "random.seed(0)\n",
    "np.random.seed(0)\n",
    "tf.random.set_seed(0)"
   ]
  },
  {
   "cell_type": "code",
   "execution_count": 99,
   "metadata": {},
   "outputs": [
    {
     "name": "stdout",
     "output_type": "stream",
     "text": [
      "Epoch 1/20\n",
      "2/2 [==============================] - 22s 7s/step - loss: 14.1374 - val_loss: 14.8687\n",
      "Epoch 2/20\n",
      "2/2 [==============================] - 18s 6s/step - loss: 14.8123 - val_loss: 15.2855\n",
      "Epoch 3/20\n",
      "2/2 [==============================] - 18s 6s/step - loss: 15.2194 - val_loss: 15.2357\n",
      "Epoch 4/20\n",
      "2/2 [==============================] - 18s 6s/step - loss: 15.0289 - val_loss: 15.1210\n",
      "Epoch 5/20\n",
      "2/2 [==============================] - 19s 6s/step - loss: 14.8429 - val_loss: 15.1054\n",
      "Epoch 6/20\n",
      "2/2 [==============================] - 18s 6s/step - loss: 14.8706 - val_loss: 15.3274\n",
      "Epoch 7/20\n",
      "2/2 [==============================] - 18s 6s/step - loss: 15.0691 - val_loss: 15.0417\n",
      "Epoch 8/20\n",
      "2/2 [==============================] - 18s 6s/step - loss: 14.7573 - val_loss: 14.9059\n",
      "Epoch 9/20\n",
      "2/2 [==============================] - 18s 6s/step - loss: 14.6716 - val_loss: 15.0658\n",
      "Epoch 10/20\n",
      "2/2 [==============================] - 18s 6s/step - loss: 14.7326 - val_loss: 15.1454\n",
      "Epoch 11/20\n",
      "2/2 [==============================] - 18s 6s/step - loss: 14.7597 - val_loss: 15.1414\n",
      "Epoch 12/20\n",
      "2/2 [==============================] - 18s 6s/step - loss: 14.6927 - val_loss: 14.7890\n",
      "Epoch 13/20\n",
      "2/2 [==============================] - 18s 6s/step - loss: 14.4256 - val_loss: 14.9388\n",
      "Epoch 14/20\n",
      "2/2 [==============================] - 18s 6s/step - loss: 14.6127 - val_loss: 14.7428\n",
      "Epoch 15/20\n",
      "2/2 [==============================] - 18s 6s/step - loss: 14.4476 - val_loss: 14.5182\n",
      "Epoch 16/20\n",
      "2/2 [==============================] - 18s 6s/step - loss: 14.3312 - val_loss: 14.7641\n",
      "Epoch 17/20\n",
      "2/2 [==============================] - 18s 6s/step - loss: 14.5584 - val_loss: 14.4988\n",
      "Epoch 18/20\n",
      "2/2 [==============================] - 18s 6s/step - loss: 14.3540 - val_loss: 14.4001\n",
      "Epoch 19/20\n",
      "2/2 [==============================] - 18s 7s/step - loss: 14.2623 - val_loss: 14.1355\n",
      "Epoch 20/20\n",
      "2/2 [==============================] - 18s 6s/step - loss: 13.9724 - val_loss: 14.4983\n"
     ]
    },
    {
     "data": {
      "text/plain": [
       "<keras.callbacks.History at 0x238a25f0eb0>"
      ]
     },
     "execution_count": 99,
     "metadata": {},
     "output_type": "execute_result"
    }
   ],
   "source": [
    "model.fit([training_data, training_data], target_data, batch_size=64, epochs=20, validation_split=0.2)"
   ]
  },
  {
   "cell_type": "code",
   "execution_count": 102,
   "metadata": {},
   "outputs": [
    {
     "name": "stderr",
     "output_type": "stream",
     "text": [
      "WARNING:absl:Function `_wrapped_model` contains input name(s) Input, Input3 with unsupported characters which will be renamed to input, input3 in the SavedModel.\n",
      "WARNING:absl:Found untraced functions such as _update_step_xla, lstm_cell_26_layer_call_fn, lstm_cell_26_layer_call_and_return_conditional_losses, lstm_cell_27_layer_call_fn, lstm_cell_27_layer_call_and_return_conditional_losses while saving (showing 5 of 5). These functions will not be directly callable after loading.\n"
     ]
    },
    {
     "name": "stdout",
     "output_type": "stream",
     "text": [
      "INFO:tensorflow:Assets written to: test1\\assets\n"
     ]
    },
    {
     "name": "stderr",
     "output_type": "stream",
     "text": [
      "INFO:tensorflow:Assets written to: test1\\assets\n"
     ]
    }
   ],
   "source": [
    "model.save(\"test1\")"
   ]
  },
  {
   "attachments": {},
   "cell_type": "markdown",
   "metadata": {},
   "source": [
    "## Generating predictions  \n",
    "Now we can make the model 'predict' in order to make it generate new music."
   ]
  },
  {
   "attachments": {},
   "cell_type": "markdown",
   "metadata": {},
   "source": [
    "Relying on Keras documentation examples for code: https://keras.io/examples/nlp/lstm_seq2seq/"
   ]
  },
  {
   "cell_type": "code",
   "execution_count": 103,
   "metadata": {},
   "outputs": [
    {
     "data": {
      "text/plain": [
       "[<keras.engine.input_layer.InputLayer at 0x238a724bbb0>,\n",
       " <keras.engine.input_layer.InputLayer at 0x238a71a75b0>,\n",
       " <keras.layers.rnn.lstm.LSTM at 0x238a369f340>,\n",
       " <keras.layers.rnn.lstm.LSTM at 0x238a73eabc0>,\n",
       " <keras.layers.core.dense.Dense at 0x238bf0fa0b0>]"
      ]
     },
     "execution_count": 103,
     "metadata": {},
     "output_type": "execute_result"
    }
   ],
   "source": [
    "model.layers"
   ]
  },
  {
   "cell_type": "code",
   "execution_count": 104,
   "metadata": {},
   "outputs": [],
   "source": [
    "model = keras.models.load_model(\"test1\")\n",
    "\n",
    "encoder_inputs = model.input[0]  # input_1\n",
    "encoder_outputs, state_h_enc, state_c_enc = model.layers[2].output  # lstm_1\n",
    "encoder_states = [state_h_enc, state_c_enc]\n",
    "encoder_model = keras.Model(encoder_inputs, encoder_states)\n",
    "\n",
    "decoder_inputs = model.input[1]  # input_2\n",
    "decoder_state_input_h = keras.Input(shape=(512,))\n",
    "decoder_state_input_c = keras.Input(shape=(512,))\n",
    "decoder_states_inputs = [decoder_state_input_h, decoder_state_input_c]\n",
    "decoder_lstm = model.layers[3]\n",
    "decoder_outputs, state_h_dec, state_c_dec = decoder_lstm(\n",
    "    decoder_inputs, initial_state=decoder_states_inputs\n",
    ")\n",
    "decoder_states = [state_h_dec, state_c_dec]\n",
    "decoder_dense = model.layers[4]\n",
    "decoder_outputs = decoder_dense(decoder_outputs)\n",
    "decoder_model = keras.Model(\n",
    "    [decoder_inputs] + decoder_states_inputs, [decoder_outputs] + decoder_states\n",
    ")"
   ]
  },
  {
   "cell_type": "code",
   "execution_count": 105,
   "metadata": {},
   "outputs": [],
   "source": [
    "def decode_sequence(input_seq = np.zeros((1, input_size, num_messages))):\n",
    "    # Encode the input as state vectors.\n",
    "    states_value = encoder_model.predict(input_seq)\n",
    "\n",
    "    ret_seq = np.empty((input_size,0), np.int8)\n",
    "    # Generate empty target sequence of length 1.\n",
    "    target_seq = np.zeros((1, input_size, num_messages))\n",
    "    # Populate the first character of target sequence with the start character.\n",
    "    target_seq[0, np.random.randint(35,100), 0] = 1\n",
    "\n",
    "    # Sampling loop for a batch of sequences\n",
    "    # (to simplify, here we assume a batch of size 1).\n",
    "    stop_condition = False\n",
    "    current_messages = 0\n",
    "    output_tokens, h, c = decoder_model.predict([target_seq] + states_value)\n",
    "    ret_seq = output_tokens\n",
    "    # while not stop_condition:\n",
    "    #     output_tokens, h, c = decoder_model.predict([target_seq] + states_value)\n",
    "\n",
    "    #     # Sample a token\n",
    "    #     sampled_token_index = np.argmax(output_tokens[0, -1, :])\n",
    "    #     current_messages += 1\n",
    "\n",
    "    #     print(current_messages)\n",
    "    #     # Exit condition: either hit max length\n",
    "    #     # or find stop character.\n",
    "    #     if current_messages > num_messages:\n",
    "    #         stop_condition = True\n",
    "\n",
    "    #     # Update the target sequence (of length 1).\n",
    "    #     target_seq = np.zeros((1, input_size, 1))\n",
    "    #     target_seq[0, sampled_token_index, 0] = 1\n",
    "\n",
    "    #     ret_seq = np.hstack((ret_seq, target_seq[0]))\n",
    "\n",
    "    #     # Update states\n",
    "    #     states_value = [h, c]\n",
    "    return ret_seq"
   ]
  },
  {
   "cell_type": "code",
   "execution_count": 106,
   "metadata": {},
   "outputs": [],
   "source": [
    "# set random seeds for reproducability\n",
    "random.seed(0)\n",
    "np.random.seed(0)\n",
    "tf.random.set_seed(0)"
   ]
  },
  {
   "cell_type": "code",
   "execution_count": 107,
   "metadata": {},
   "outputs": [
    {
     "name": "stdout",
     "output_type": "stream",
     "text": [
      "1/1 [==============================] - 0s 471ms/step\n",
      "1/1 [==============================] - 0s 453ms/step\n"
     ]
    }
   ],
   "source": [
    "output_sequence = decode_sequence()"
   ]
  },
  {
   "cell_type": "code",
   "execution_count": 94,
   "metadata": {},
   "outputs": [
    {
     "name": "stdout",
     "output_type": "stream",
     "text": [
      "(1, 381, 800)\n"
     ]
    }
   ],
   "source": [
    "print(output_sequence.shape)"
   ]
  },
  {
   "attachments": {},
   "cell_type": "markdown",
   "metadata": {},
   "source": [
    "## Exporting  \n",
    "Now we have to convert the output back to the midi file."
   ]
  },
  {
   "cell_type": "code",
   "execution_count": 95,
   "metadata": {},
   "outputs": [],
   "source": [
    "def convertArrayToMidi(arr, filename = None):\n",
    "    ret_file = mido.MidiFile(type=0) # create empty midi file\n",
    "    track = mido.MidiTrack()\n",
    "    ret_file.tracks.append(track)\n",
    "\n",
    "    # track.append(mido.Message('program_change', program=12, time=0))\n",
    "    time = 0\n",
    "    prev_was_time_event = True\n",
    "    for col in range(arr.shape[-1]):\n",
    "        tmp_col = arr[:, col]\n",
    "        tmp_note = np.argmax(tmp_col)\n",
    "\n",
    "        if tmp_note < 128: # note on event\n",
    "            if not (prev_was_time_event):\n",
    "                time = 32\n",
    "                print(\"no time\")\n",
    "            track.append(mido.Message('note_on', note=tmp_note, velocity=64, time=time))\n",
    "            time = 0\n",
    "            prev_was_time_event = False\n",
    "        elif tmp_note >= 128 and tmp_note < 128*2:\n",
    "            if not (prev_was_time_event):\n",
    "                print(\"no time\")\n",
    "                time = 32\n",
    "            track.append(mido.Message('note_off', note=tmp_note-128, velocity=127, time=time))\n",
    "            time = 0\n",
    "            prev_was_time_event = False\n",
    "        else:\n",
    "            time += int((tmp_note-128*2)*8*2)\n",
    "            prev_was_time_event = True\n",
    "        \n",
    "    \n",
    "\n",
    "    if (filename is not None):\n",
    "        ret_file.save(filename)\n",
    "    \n",
    "    return ret_file"
   ]
  },
  {
   "cell_type": "code",
   "execution_count": 96,
   "metadata": {},
   "outputs": [
    {
     "name": "stdout",
     "output_type": "stream",
     "text": [
      "ParkJH05.mid\n"
     ]
    }
   ],
   "source": [
    "print(training_files[0])\n",
    "_ = convertArrayToMidi(training_data[0], \"ParkJH05-decoded.mid\")"
   ]
  },
  {
   "cell_type": "code",
   "execution_count": 108,
   "metadata": {},
   "outputs": [
    {
     "name": "stdout",
     "output_type": "stream",
     "text": [
      "no time\n",
      "no time\n",
      "no time\n",
      "no time\n",
      "no time\n",
      "no time\n",
      "no time\n",
      "no time\n",
      "no time\n",
      "no time\n",
      "no time\n",
      "no time\n",
      "no time\n",
      "no time\n",
      "no time\n",
      "no time\n",
      "no time\n",
      "no time\n",
      "no time\n",
      "no time\n",
      "no time\n",
      "no time\n",
      "no time\n",
      "no time\n",
      "no time\n",
      "no time\n",
      "no time\n",
      "no time\n",
      "no time\n",
      "no time\n",
      "no time\n",
      "no time\n",
      "no time\n",
      "no time\n",
      "no time\n",
      "no time\n",
      "no time\n",
      "no time\n",
      "no time\n",
      "no time\n",
      "no time\n",
      "no time\n",
      "no time\n",
      "no time\n",
      "no time\n",
      "no time\n",
      "no time\n",
      "no time\n",
      "no time\n",
      "no time\n",
      "no time\n",
      "no time\n",
      "no time\n",
      "no time\n",
      "no time\n",
      "no time\n",
      "no time\n",
      "no time\n",
      "no time\n",
      "no time\n",
      "no time\n",
      "no time\n",
      "no time\n",
      "no time\n",
      "no time\n",
      "no time\n",
      "no time\n",
      "no time\n",
      "no time\n",
      "no time\n",
      "no time\n",
      "no time\n",
      "no time\n",
      "no time\n",
      "no time\n",
      "no time\n",
      "no time\n",
      "no time\n",
      "no time\n",
      "no time\n",
      "no time\n",
      "no time\n",
      "no time\n",
      "no time\n",
      "no time\n",
      "no time\n",
      "no time\n",
      "no time\n",
      "no time\n",
      "no time\n",
      "no time\n",
      "no time\n",
      "no time\n",
      "no time\n",
      "no time\n",
      "no time\n",
      "no time\n",
      "no time\n",
      "no time\n",
      "no time\n",
      "no time\n",
      "no time\n",
      "no time\n",
      "no time\n",
      "no time\n",
      "no time\n",
      "no time\n",
      "no time\n",
      "no time\n",
      "no time\n",
      "no time\n",
      "no time\n",
      "no time\n",
      "no time\n",
      "no time\n",
      "no time\n",
      "no time\n",
      "no time\n",
      "no time\n",
      "no time\n",
      "no time\n",
      "no time\n",
      "no time\n",
      "no time\n",
      "no time\n",
      "no time\n",
      "no time\n",
      "no time\n",
      "no time\n",
      "no time\n",
      "no time\n",
      "no time\n",
      "no time\n",
      "no time\n",
      "no time\n",
      "no time\n",
      "no time\n",
      "no time\n",
      "no time\n",
      "no time\n",
      "no time\n",
      "no time\n",
      "no time\n",
      "no time\n",
      "no time\n",
      "no time\n",
      "no time\n",
      "no time\n",
      "no time\n",
      "no time\n",
      "no time\n",
      "no time\n",
      "no time\n",
      "no time\n",
      "no time\n",
      "no time\n",
      "no time\n",
      "no time\n",
      "no time\n",
      "no time\n",
      "no time\n",
      "no time\n",
      "no time\n",
      "no time\n",
      "no time\n",
      "no time\n",
      "no time\n",
      "no time\n",
      "no time\n",
      "no time\n",
      "no time\n",
      "no time\n",
      "no time\n",
      "no time\n",
      "no time\n",
      "no time\n",
      "no time\n",
      "no time\n",
      "no time\n",
      "no time\n",
      "no time\n",
      "no time\n",
      "no time\n",
      "no time\n",
      "no time\n",
      "no time\n",
      "no time\n",
      "no time\n",
      "no time\n",
      "no time\n",
      "no time\n",
      "no time\n",
      "no time\n",
      "no time\n",
      "no time\n",
      "no time\n",
      "no time\n",
      "no time\n",
      "no time\n",
      "no time\n",
      "no time\n",
      "no time\n",
      "no time\n",
      "no time\n",
      "no time\n",
      "no time\n",
      "no time\n",
      "no time\n",
      "no time\n",
      "no time\n",
      "no time\n",
      "no time\n",
      "no time\n",
      "no time\n",
      "no time\n",
      "no time\n",
      "no time\n",
      "no time\n",
      "no time\n",
      "no time\n",
      "no time\n",
      "no time\n",
      "no time\n",
      "no time\n",
      "no time\n",
      "no time\n",
      "no time\n",
      "no time\n",
      "no time\n",
      "no time\n",
      "no time\n",
      "no time\n",
      "no time\n",
      "no time\n",
      "no time\n",
      "no time\n",
      "no time\n",
      "no time\n",
      "no time\n",
      "no time\n",
      "no time\n",
      "no time\n",
      "no time\n",
      "no time\n",
      "no time\n",
      "no time\n",
      "no time\n",
      "no time\n",
      "no time\n",
      "no time\n",
      "no time\n",
      "no time\n",
      "no time\n",
      "no time\n",
      "no time\n",
      "no time\n",
      "no time\n",
      "no time\n",
      "no time\n",
      "no time\n",
      "no time\n",
      "no time\n",
      "no time\n",
      "no time\n",
      "no time\n",
      "no time\n",
      "no time\n",
      "no time\n",
      "no time\n",
      "no time\n",
      "no time\n",
      "no time\n",
      "no time\n",
      "no time\n",
      "no time\n",
      "no time\n",
      "no time\n",
      "no time\n",
      "no time\n",
      "no time\n",
      "no time\n",
      "no time\n",
      "no time\n",
      "no time\n",
      "no time\n",
      "no time\n",
      "no time\n",
      "no time\n",
      "no time\n",
      "no time\n",
      "no time\n",
      "no time\n",
      "no time\n",
      "no time\n",
      "no time\n",
      "no time\n",
      "no time\n",
      "no time\n",
      "no time\n",
      "no time\n",
      "no time\n",
      "no time\n",
      "no time\n",
      "no time\n",
      "no time\n",
      "no time\n",
      "no time\n",
      "no time\n",
      "no time\n",
      "no time\n",
      "no time\n",
      "no time\n",
      "no time\n",
      "no time\n",
      "no time\n",
      "no time\n",
      "no time\n",
      "no time\n",
      "no time\n",
      "no time\n",
      "no time\n",
      "no time\n",
      "no time\n",
      "no time\n",
      "no time\n",
      "no time\n",
      "no time\n",
      "no time\n",
      "no time\n",
      "no time\n",
      "no time\n",
      "no time\n",
      "no time\n",
      "no time\n",
      "no time\n",
      "no time\n",
      "no time\n",
      "no time\n",
      "no time\n",
      "no time\n",
      "no time\n",
      "no time\n",
      "no time\n",
      "no time\n",
      "no time\n",
      "no time\n",
      "no time\n",
      "no time\n",
      "no time\n",
      "no time\n",
      "no time\n",
      "no time\n",
      "no time\n",
      "no time\n",
      "no time\n",
      "no time\n",
      "no time\n",
      "no time\n",
      "no time\n",
      "no time\n",
      "no time\n",
      "no time\n",
      "no time\n",
      "no time\n",
      "no time\n",
      "no time\n",
      "no time\n",
      "no time\n",
      "no time\n",
      "no time\n",
      "no time\n",
      "no time\n",
      "no time\n",
      "no time\n",
      "no time\n",
      "no time\n",
      "no time\n",
      "no time\n",
      "no time\n",
      "no time\n",
      "no time\n",
      "no time\n",
      "no time\n",
      "no time\n",
      "no time\n",
      "no time\n",
      "no time\n",
      "no time\n",
      "no time\n",
      "no time\n",
      "no time\n",
      "no time\n",
      "no time\n",
      "no time\n",
      "no time\n",
      "no time\n",
      "no time\n",
      "no time\n",
      "no time\n",
      "no time\n",
      "no time\n",
      "no time\n",
      "no time\n",
      "no time\n",
      "no time\n",
      "no time\n",
      "no time\n",
      "no time\n",
      "no time\n",
      "no time\n",
      "no time\n",
      "no time\n",
      "no time\n",
      "no time\n",
      "no time\n",
      "no time\n",
      "no time\n",
      "no time\n",
      "no time\n",
      "no time\n",
      "no time\n",
      "no time\n",
      "no time\n",
      "no time\n",
      "no time\n",
      "no time\n",
      "no time\n",
      "no time\n",
      "no time\n",
      "no time\n",
      "no time\n",
      "no time\n",
      "no time\n",
      "no time\n",
      "no time\n",
      "no time\n",
      "no time\n",
      "no time\n",
      "no time\n",
      "no time\n",
      "no time\n",
      "no time\n",
      "no time\n",
      "no time\n",
      "no time\n",
      "no time\n",
      "no time\n",
      "no time\n",
      "no time\n",
      "no time\n",
      "no time\n",
      "no time\n",
      "no time\n",
      "no time\n",
      "no time\n",
      "no time\n",
      "no time\n",
      "no time\n",
      "no time\n",
      "no time\n",
      "no time\n",
      "no time\n",
      "no time\n",
      "no time\n",
      "no time\n",
      "no time\n",
      "no time\n",
      "no time\n",
      "no time\n",
      "no time\n",
      "no time\n",
      "no time\n",
      "no time\n",
      "no time\n",
      "no time\n",
      "no time\n",
      "no time\n",
      "no time\n",
      "no time\n",
      "no time\n",
      "no time\n",
      "no time\n",
      "no time\n",
      "no time\n",
      "no time\n",
      "no time\n",
      "no time\n",
      "no time\n",
      "no time\n",
      "no time\n",
      "no time\n",
      "no time\n",
      "no time\n",
      "no time\n",
      "no time\n",
      "no time\n",
      "no time\n",
      "no time\n",
      "no time\n",
      "no time\n",
      "no time\n",
      "no time\n",
      "no time\n",
      "no time\n",
      "no time\n",
      "no time\n",
      "no time\n",
      "no time\n",
      "no time\n",
      "no time\n",
      "no time\n",
      "no time\n",
      "no time\n",
      "no time\n",
      "no time\n",
      "no time\n",
      "no time\n",
      "no time\n",
      "no time\n",
      "no time\n",
      "no time\n",
      "no time\n",
      "no time\n",
      "no time\n",
      "no time\n",
      "no time\n",
      "no time\n",
      "no time\n",
      "no time\n",
      "no time\n",
      "no time\n",
      "no time\n",
      "no time\n",
      "no time\n",
      "no time\n",
      "no time\n",
      "no time\n",
      "no time\n",
      "no time\n",
      "no time\n",
      "no time\n",
      "no time\n",
      "no time\n",
      "no time\n",
      "no time\n",
      "no time\n",
      "no time\n",
      "no time\n",
      "no time\n",
      "no time\n",
      "no time\n",
      "no time\n",
      "no time\n",
      "no time\n",
      "no time\n",
      "no time\n",
      "no time\n",
      "no time\n",
      "no time\n",
      "no time\n",
      "no time\n",
      "no time\n",
      "no time\n",
      "no time\n",
      "no time\n",
      "no time\n",
      "no time\n",
      "no time\n",
      "no time\n",
      "no time\n",
      "no time\n",
      "no time\n",
      "no time\n",
      "no time\n",
      "no time\n",
      "no time\n",
      "no time\n",
      "no time\n",
      "no time\n",
      "no time\n",
      "no time\n",
      "no time\n",
      "no time\n",
      "no time\n",
      "no time\n",
      "no time\n",
      "no time\n",
      "no time\n",
      "no time\n",
      "no time\n",
      "no time\n",
      "no time\n",
      "no time\n",
      "no time\n",
      "no time\n",
      "no time\n",
      "no time\n",
      "no time\n",
      "no time\n",
      "no time\n",
      "no time\n",
      "no time\n",
      "no time\n",
      "no time\n",
      "no time\n",
      "no time\n",
      "no time\n",
      "no time\n",
      "no time\n",
      "no time\n",
      "no time\n",
      "no time\n",
      "no time\n",
      "no time\n",
      "no time\n",
      "no time\n",
      "no time\n",
      "no time\n",
      "no time\n",
      "no time\n",
      "no time\n",
      "no time\n",
      "no time\n",
      "no time\n",
      "no time\n",
      "no time\n",
      "no time\n",
      "no time\n",
      "no time\n",
      "no time\n",
      "no time\n",
      "no time\n",
      "no time\n",
      "no time\n",
      "no time\n",
      "no time\n",
      "no time\n",
      "no time\n",
      "no time\n",
      "no time\n",
      "no time\n",
      "no time\n",
      "no time\n",
      "no time\n",
      "no time\n",
      "no time\n",
      "no time\n",
      "no time\n",
      "no time\n",
      "no time\n",
      "no time\n",
      "no time\n",
      "no time\n",
      "no time\n",
      "no time\n",
      "no time\n",
      "no time\n",
      "no time\n",
      "no time\n",
      "no time\n",
      "no time\n",
      "no time\n",
      "no time\n",
      "no time\n",
      "no time\n",
      "no time\n",
      "no time\n",
      "no time\n",
      "no time\n",
      "no time\n",
      "no time\n",
      "no time\n",
      "no time\n",
      "no time\n",
      "no time\n",
      "no time\n",
      "no time\n",
      "no time\n",
      "no time\n",
      "no time\n",
      "no time\n",
      "no time\n",
      "no time\n",
      "no time\n",
      "no time\n",
      "no time\n",
      "no time\n",
      "no time\n",
      "no time\n",
      "no time\n",
      "no time\n",
      "no time\n",
      "no time\n",
      "no time\n",
      "no time\n",
      "no time\n",
      "no time\n",
      "no time\n",
      "no time\n",
      "no time\n",
      "no time\n",
      "no time\n",
      "no time\n",
      "no time\n",
      "no time\n",
      "no time\n",
      "no time\n",
      "no time\n",
      "no time\n",
      "no time\n",
      "no time\n",
      "no time\n",
      "no time\n",
      "no time\n",
      "no time\n",
      "no time\n",
      "no time\n",
      "no time\n",
      "no time\n",
      "no time\n",
      "no time\n",
      "no time\n",
      "no time\n",
      "no time\n",
      "no time\n",
      "no time\n",
      "no time\n",
      "no time\n",
      "no time\n",
      "no time\n",
      "no time\n",
      "no time\n",
      "no time\n",
      "no time\n",
      "no time\n",
      "no time\n",
      "no time\n",
      "no time\n",
      "no time\n",
      "no time\n",
      "no time\n",
      "no time\n",
      "no time\n",
      "no time\n",
      "no time\n"
     ]
    }
   ],
   "source": [
    "ret_midi = convertArrayToMidi(output_sequence[0], \"test1.mid\")\n",
    "ret_midi.ticks_per_beat = mido.MidiFile(f'midi/{training_files[0]}').ticks_per_beat\n",
    "ret_midi.save(\"test1.mid\")"
   ]
  },
  {
   "cell_type": "code",
   "execution_count": 50,
   "metadata": {},
   "outputs": [],
   "source": [
    "testing = mido.MidiFile(f'midi/{training_files[0]}')"
   ]
  },
  {
   "cell_type": "code",
   "execution_count": 51,
   "metadata": {},
   "outputs": [
    {
     "data": {
      "text/plain": [
       "MidiFile(type=0, ticks_per_beat=384, tracks=[\n",
       "  MidiTrack([\n",
       "    MetaMessage('track_name', name='SchumannOp16_2ParkJooHyeon', time=0),\n",
       "    MetaMessage('text', text='2014 Alaska International Piano-e-Competition', time=0),\n",
       "    MetaMessage('text', text='captured in June and July 2014 in Alaska', time=0),\n",
       "    MetaMessage('text', text='http://www.piano-e-competition.com', time=0),\n",
       "    MetaMessage('text', text='standard-resolution version', time=0),\n",
       "    MetaMessage('text', text='File processed for distribution with software designed and coded by Dr. John Q. Walker', time=0),\n",
       "    MetaMessage('text', text='Title: Kreisleriana, Op. 16: II. Sehr inning und nicht zu rasch', time=0),\n",
       "    MetaMessage('text', text='Composer: Robert Alexander Schumann', time=0),\n",
       "    MetaMessage('text', text='Performer: Joo Hyeon Park', time=0),\n",
       "    MetaMessage('instrument_name', name='Yamaha Disklavier Pro Mark IV concert grand piano, model DCFIIISM4PRO', time=0),\n",
       "    MetaMessage('sequencer_specific', data=(67, 113, 0, 1, 0, 1, 0, 83, 99, 104, 117, 109, 97, 110, 110, 79, 112, 49, 54, 95, 50, 32, 32, 80, 97, 114, 107, 74, 111, 111, 72, 121, 101, 111, 110, 32, 32, 32, 32), time=0),\n",
       "    MetaMessage('sequencer_specific', data=(67, 113, 0, 0, 0, 69), time=0),\n",
       "    Message('sysex', data=(67, 113, 126, 21, 0, 2, 2, 2, 8, 5, 13, 5, 3, 11, 2, 2, 3, 12, 5, 1), time=0),\n",
       "    MetaMessage('sequencer_specific', data=(67, 123, 12, 2, 1), time=0),\n",
       "    MetaMessage('set_tempo', tempo=512820, time=0),\n",
       "    MetaMessage('time_signature', numerator=4, denominator=4, clocks_per_click=24, notated_32nd_notes_per_beat=8, time=0),\n",
       "    Message('sysex', data=(126, 127, 9, 1), time=0),\n",
       "    Message('sysex', data=(67, 16, 76, 0, 0, 126, 0), time=1),\n",
       "    Message('sysex', data=(67, 16, 76, 8, 9, 7, 1), time=1),\n",
       "    Message('control_change', channel=0, control=0, value=108, time=1),\n",
       "    Message('control_change', channel=1, control=0, value=108, time=0),\n",
       "    Message('control_change', channel=2, control=0, value=0, time=0),\n",
       "    Message('control_change', channel=3, control=0, value=0, time=0),\n",
       "    Message('control_change', channel=4, control=0, value=0, time=0),\n",
       "    Message('control_change', channel=5, control=0, value=0, time=0),\n",
       "    Message('control_change', channel=6, control=0, value=0, time=0),\n",
       "    Message('control_change', channel=7, control=0, value=0, time=0),\n",
       "    Message('control_change', channel=8, control=0, value=0, time=0),\n",
       "    Message('control_change', channel=9, control=0, value=127, time=0),\n",
       "    Message('control_change', channel=10, control=0, value=0, time=0),\n",
       "    Message('control_change', channel=11, control=0, value=0, time=0),\n",
       "    Message('control_change', channel=12, control=0, value=0, time=0),\n",
       "    Message('control_change', channel=13, control=0, value=0, time=0),\n",
       "    Message('control_change', channel=14, control=0, value=0, time=0),\n",
       "    Message('control_change', channel=15, control=0, value=0, time=0),\n",
       "    Message('control_change', channel=0, control=32, value=0, time=1),\n",
       "    Message('control_change', channel=1, control=32, value=0, time=0),\n",
       "    Message('control_change', channel=2, control=32, value=0, time=0),\n",
       "    Message('control_change', channel=3, control=32, value=0, time=0),\n",
       "    Message('control_change', channel=4, control=32, value=0, time=0),\n",
       "    Message('control_change', channel=5, control=32, value=0, time=0),\n",
       "    Message('control_change', channel=6, control=32, value=0, time=0),\n",
       "    Message('control_change', channel=7, control=32, value=0, time=0),\n",
       "    Message('control_change', channel=8, control=32, value=0, time=0),\n",
       "    Message('control_change', channel=9, control=32, value=0, time=0),\n",
       "    Message('control_change', channel=10, control=32, value=0, time=0),\n",
       "    Message('control_change', channel=11, control=32, value=0, time=0),\n",
       "    Message('control_change', channel=12, control=32, value=0, time=0),\n",
       "    Message('control_change', channel=13, control=32, value=0, time=0),\n",
       "    Message('control_change', channel=14, control=32, value=0, time=0),\n",
       "    Message('control_change', channel=15, control=32, value=0, time=0),\n",
       "    Message('program_change', channel=0, program=0, time=1),\n",
       "    Message('program_change', channel=1, program=0, time=0),\n",
       "    Message('program_change', channel=2, program=0, time=0),\n",
       "    Message('program_change', channel=3, program=0, time=0),\n",
       "    Message('program_change', channel=4, program=0, time=0),\n",
       "    Message('program_change', channel=5, program=0, time=0),\n",
       "    Message('program_change', channel=6, program=0, time=0),\n",
       "    Message('program_change', channel=7, program=0, time=0),\n",
       "    Message('program_change', channel=8, program=0, time=0),\n",
       "    Message('program_change', channel=9, program=0, time=0),\n",
       "    Message('program_change', channel=10, program=0, time=0),\n",
       "    Message('program_change', channel=11, program=0, time=0),\n",
       "    Message('program_change', channel=12, program=0, time=0),\n",
       "    Message('program_change', channel=13, program=0, time=0),\n",
       "    Message('program_change', channel=14, program=0, time=0),\n",
       "    Message('program_change', channel=15, program=0, time=0),\n",
       "    Message('control_change', channel=0, control=7, value=100, time=1),\n",
       "    Message('control_change', channel=1, control=7, value=100, time=0),\n",
       "    Message('control_change', channel=2, control=7, value=100, time=0),\n",
       "    Message('control_change', channel=3, control=7, value=100, time=0),\n",
       "    Message('control_change', channel=4, control=7, value=100, time=0),\n",
       "    Message('control_change', channel=5, control=7, value=100, time=0),\n",
       "    Message('control_change', channel=6, control=7, value=100, time=0),\n",
       "    Message('control_change', channel=7, control=7, value=100, time=0),\n",
       "    Message('control_change', channel=8, control=7, value=100, time=0),\n",
       "    Message('control_change', channel=9, control=7, value=100, time=0),\n",
       "    Message('control_change', channel=10, control=7, value=100, time=0),\n",
       "    Message('control_change', channel=11, control=7, value=100, time=0),\n",
       "    Message('control_change', channel=12, control=7, value=100, time=0),\n",
       "    Message('control_change', channel=13, control=7, value=100, time=0),\n",
       "    Message('control_change', channel=14, control=7, value=100, time=0),\n",
       "    Message('control_change', channel=15, control=7, value=100, time=0),\n",
       "    Message('control_change', channel=0, control=64, value=15, time=36),\n",
       "    Message('control_change', channel=0, control=67, value=15, time=0),\n",
       "    Message('control_change', channel=0, control=64, value=31, time=37),\n",
       "    Message('control_change', channel=0, control=67, value=31, time=0),\n",
       "    Message('control_change', channel=0, control=64, value=46, time=37),\n",
       "    Message('control_change', channel=0, control=67, value=46, time=0),\n",
       "    Message('control_change', channel=0, control=64, value=63, time=37),\n",
       "    Message('control_change', channel=0, control=67, value=63, time=0),\n",
       "    Message('control_change', channel=0, control=64, value=77, time=37),\n",
       "    Message('control_change', channel=0, control=67, value=77, time=0),\n",
       "    Message('control_change', channel=0, control=64, value=94, time=36),\n",
       "    Message('control_change', channel=0, control=67, value=94, time=0),\n",
       "    Message('control_change', channel=0, control=64, value=108, time=37),\n",
       "    Message('control_change', channel=0, control=67, value=108, time=0),\n",
       "    Message('control_change', channel=0, control=64, value=127, time=37),\n",
       "    Message('control_change', channel=0, control=67, value=127, time=0),\n",
       "    Message('note_on', channel=0, note=70, velocity=46, time=87),\n",
       "    Message('note_on', channel=0, note=50, velocity=26, time=7),\n",
       "    Message('note_on', channel=0, note=58, velocity=33, time=6),\n",
       "    Message('note_off', channel=0, note=58, velocity=52, time=136),\n",
       "    Message('note_off', channel=0, note=50, velocity=38, time=232),\n",
       "    Message('note_on', channel=0, note=72, velocity=60, time=9),\n",
       "    Message('note_off', channel=0, note=70, velocity=53, time=2),\n",
       "    Message('note_on', channel=0, note=60, velocity=20, time=27),\n",
       "    Message('note_on', channel=0, note=53, velocity=36, time=5),\n",
       "    Message('note_off', channel=0, note=60, velocity=46, time=111),\n",
       "    Message('note_off', channel=0, note=53, velocity=51, time=135),\n",
       "    Message('note_on', channel=0, note=58, velocity=32, time=39),\n",
       "    Message('note_on', channel=0, note=74, velocity=68, time=10),\n",
       "    Message('note_on', channel=0, note=46, velocity=38, time=2),\n",
       "    Message('note_on', channel=0, note=62, velocity=44, time=5),\n",
       "    Message('control_change', channel=0, control=64, value=113, time=1),\n",
       "    Message('control_change', channel=0, control=64, value=70, time=15),\n",
       "    Message('control_change', channel=0, control=64, value=44, time=15),\n",
       "    Message('control_change', channel=0, control=64, value=0, time=15),\n",
       "    Message('note_off', channel=0, note=72, velocity=43, time=3),\n",
       "    Message('control_change', channel=0, control=64, value=49, time=41),\n",
       "    Message('control_change', channel=0, control=64, value=65, time=15),\n",
       "    Message('control_change', channel=0, control=64, value=79, time=15),\n",
       "    Message('note_off', channel=0, note=46, velocity=59, time=1),\n",
       "    Message('control_change', channel=0, control=64, value=127, time=14),\n",
       "    Message('note_off', channel=0, note=62, velocity=42, time=24),\n",
       "    Message('note_off', channel=0, note=58, velocity=46, time=51),\n",
       "    Message('note_off', channel=0, note=74, velocity=62, time=37),\n",
       "    Message('note_on', channel=0, note=77, velocity=75, time=148),\n",
       "    Message('note_on', channel=0, note=65, velocity=59, time=7),\n",
       "    Message('note_on', channel=0, note=62, velocity=38, time=7),\n",
       "    Message('note_off', channel=0, note=65, velocity=39, time=176),\n",
       "    Message('note_off', channel=0, note=62, velocity=38, time=7),\n",
       "    Message('note_on', channel=0, note=63, velocity=47, time=104),\n",
       "    Message('note_on', channel=0, note=79, velocity=82, time=5),\n",
       "    Message('note_off', channel=0, note=77, velocity=36, time=5),\n",
       "    Message('note_on', channel=0, note=67, velocity=51, time=10),\n",
       "    Message('note_off', channel=0, note=67, velocity=55, time=93),\n",
       "    Message('note_off', channel=0, note=63, velocity=60, time=7),\n",
       "    Message('note_off', channel=0, note=79, velocity=64, time=132),\n",
       "    Message('note_on', channel=0, note=77, velocity=75, time=16),\n",
       "    Message('note_on', channel=0, note=65, velocity=63, time=4),\n",
       "    Message('note_on', channel=0, note=62, velocity=52, time=5),\n",
       "    Message('note_off', channel=0, note=65, velocity=68, time=24),\n",
       "    Message('note_off', channel=0, note=77, velocity=62, time=35),\n",
       "    Message('note_off', channel=0, note=62, velocity=62, time=3),\n",
       "    Message('note_on', channel=0, note=74, velocity=74, time=203),\n",
       "    Message('control_change', channel=0, control=64, value=76, time=8),\n",
       "    Message('note_on', channel=0, note=58, velocity=46, time=3),\n",
       "    Message('note_on', channel=0, note=62, velocity=63, time=0),\n",
       "    Message('control_change', channel=0, control=64, value=65, time=12),\n",
       "    Message('control_change', channel=0, control=64, value=61, time=14),\n",
       "    Message('control_change', channel=0, control=64, value=65, time=15),\n",
       "    Message('control_change', channel=0, control=64, value=71, time=15),\n",
       "    Message('note_off', channel=0, note=58, velocity=59, time=2),\n",
       "    Message('control_change', channel=0, control=64, value=96, time=13),\n",
       "    Message('control_change', channel=0, control=64, value=127, time=15),\n",
       "    Message('note_off', channel=0, note=62, velocity=56, time=15),\n",
       "    Message('note_off', channel=0, note=74, velocity=62, time=6),\n",
       "    Message('note_on', channel=0, note=53, velocity=49, time=171),\n",
       "    Message('note_on', channel=0, note=70, velocity=67, time=6),\n",
       "    Message('note_on', channel=0, note=58, velocity=56, time=8),\n",
       "    Message('note_off', channel=0, note=53, velocity=62, time=30),\n",
       "    Message('note_off', channel=0, note=58, velocity=64, time=2),\n",
       "    Message('note_off', channel=0, note=70, velocity=64, time=28),\n",
       "    Message('note_on', channel=0, note=41, velocity=60, time=138),\n",
       "    Message('note_on', channel=0, note=53, velocity=38, time=352),\n",
       "    Message('note_on', channel=0, note=51, velocity=42, time=1),\n",
       "    Message('note_on', channel=0, note=65, velocity=57, time=19),\n",
       "    Message('note_on', channel=0, note=57, velocity=43, time=13),\n",
       "    Message('note_on', channel=0, note=60, velocity=44, time=1),\n",
       "    Message('control_change', channel=0, control=64, value=113, time=92),\n",
       "    Message('control_change', channel=0, control=64, value=88, time=16),\n",
       "    Message('control_change', channel=0, control=64, value=76, time=15),\n",
       "    Message('control_change', channel=0, control=64, value=66, time=15),\n",
       "    Message('control_change', channel=0, control=64, value=60, time=14),\n",
       "    Message('control_change', channel=0, control=64, value=32, time=15),\n",
       "    Message('control_change', channel=0, control=64, value=0, time=15),\n",
       "    Message('control_change', channel=0, control=64, value=42, time=764),\n",
       "    Message('control_change', channel=0, control=64, value=52, time=15),\n",
       "    Message('control_change', channel=0, control=64, value=58, time=14),\n",
       "    Message('control_change', channel=0, control=64, value=62, time=15),\n",
       "    Message('control_change', channel=0, control=64, value=64, time=15),\n",
       "    Message('control_change', channel=0, control=64, value=67, time=14),\n",
       "    Message('control_change', channel=0, control=64, value=72, time=15),\n",
       "    Message('control_change', channel=0, control=64, value=84, time=15),\n",
       "    Message('control_change', channel=0, control=64, value=127, time=15),\n",
       "    Message('note_off', channel=0, note=65, velocity=34, time=80),\n",
       "    Message('note_off', channel=0, note=41, velocity=38, time=65),\n",
       "    Message('note_off', channel=0, note=60, velocity=44, time=18),\n",
       "    Message('note_off', channel=0, note=57, velocity=36, time=42),\n",
       "    Message('note_off', channel=0, note=51, velocity=38, time=92),\n",
       "    Message('note_on', channel=0, note=70, velocity=47, time=911),\n",
       "    Message('note_on', channel=0, note=50, velocity=27, time=2),\n",
       "    Message('note_on', channel=0, note=58, velocity=38, time=6),\n",
       "    Message('control_change', channel=0, control=64, value=97, time=30),\n",
       "    Message('note_off', channel=0, note=53, velocity=43, time=14),\n",
       "    Message('control_change', channel=0, control=64, value=75, time=0),\n",
       "    Message('control_change', channel=0, control=64, value=64, time=15),\n",
       "    Message('control_change', channel=0, control=64, value=26, time=15),\n",
       "    Message('control_change', channel=0, control=64, value=0, time=14),\n",
       "    Message('control_change', channel=0, control=64, value=53, time=30),\n",
       "    Message('control_change', channel=0, control=64, value=63, time=15),\n",
       "    Message('control_change', channel=0, control=64, value=67, time=15),\n",
       "    Message('control_change', channel=0, control=64, value=75, time=15),\n",
       "    Message('control_change', channel=0, control=64, value=98, time=15),\n",
       "    Message('note_off', channel=0, note=58, velocity=38, time=14),\n",
       "    Message('control_change', channel=0, control=64, value=127, time=1),\n",
       "    Message('note_off', channel=0, note=50, velocity=39, time=208),\n",
       "    Message('note_on', channel=0, note=60, velocity=44, time=36),\n",
       "    Message('note_on', channel=0, note=72, velocity=52, time=3),\n",
       "    Message('note_on', channel=0, note=53, velocity=30, time=22),\n",
       "    Message('note_off', channel=0, note=70, velocity=57, time=23),\n",
       "    Message('note_off', channel=0, note=60, velocity=36, time=124),\n",
       "    Message('note_off', channel=0, note=53, velocity=44, time=129),\n",
       "    Message('note_on', channel=0, note=58, velocity=36, time=28),\n",
       "    Message('note_on', channel=0, note=74, velocity=63, time=11),\n",
       "    Message('note_on', channel=0, note=46, velocity=32, time=5),\n",
       "    Message('note_on', channel=0, note=62, velocity=50, time=3),\n",
       "    Message('control_change', channel=0, control=64, value=84, time=7),\n",
       "    Message('control_change', channel=0, control=64, value=67, time=15),\n",
       "    Message('control_change', channel=0, control=64, value=36, time=15),\n",
       "    Message('note_off', channel=0, note=72, velocity=39, time=15),\n",
       "    Message('control_change', channel=0, control=64, value=0, time=0),\n",
       "    Message('control_change', channel=0, control=64, value=34, time=29),\n",
       "    Message('control_change', channel=0, control=64, value=64, time=15),\n",
       "    Message('control_change', channel=0, control=64, value=71, time=15),\n",
       "    Message('control_change', channel=0, control=64, value=91, time=15),\n",
       "    Message('note_off', channel=0, note=46, velocity=50, time=9),\n",
       "    Message('control_change', channel=0, control=64, value=127, time=6),\n",
       "    Message('note_off', channel=0, note=62, velocity=39, time=27),\n",
       "    Message('note_off', channel=0, note=58, velocity=47, time=33),\n",
       "    Message('note_off', channel=0, note=74, velocity=60, time=34),\n",
       "    Message('note_on', channel=0, note=77, velocity=76, time=145),\n",
       "    Message('note_on', channel=0, note=62, velocity=45, time=11),\n",
       "    Message('note_on', channel=0, note=65, velocity=56, time=2),\n",
       "    Message('note_off', channel=0, note=65, velocity=40, time=156),\n",
       "    Message('note_off', channel=0, note=62, velocity=39, time=18),\n",
       "    Message('note_off', channel=0, note=77, velocity=60, time=54),\n",
       "    Message('note_on', channel=0, note=79, velocity=87, time=59),\n",
       "    Message('note_on', channel=0, note=63, velocity=46, time=15),\n",
       "    Message('note_on', channel=0, note=67, velocity=59, time=6),\n",
       "    Message('note_off', channel=0, note=67, velocity=55, time=66),\n",
       "    Message('note_off', channel=0, note=63, velocity=55, time=39),\n",
       "    Message('note_off', channel=0, note=79, velocity=61, time=89),\n",
       "    Message('note_on', channel=0, note=77, velocity=74, time=48),\n",
       "    Message('note_on', channel=0, note=62, velocity=48, time=8),\n",
       "    Message('note_on', channel=0, note=65, velocity=57, time=1),\n",
       "    Message('note_off', channel=0, note=65, velocity=62, time=38),\n",
       "    Message('note_off', channel=0, note=77, velocity=61, time=18),\n",
       "    Message('note_off', channel=0, note=62, velocity=63, time=6),\n",
       "    Message('note_on', channel=0, note=74, velocity=72, time=199),\n",
       "    Message('note_on', channel=0, note=58, velocity=45, time=10),\n",
       "    Message('note_on', channel=0, note=62, velocity=37, time=23),\n",
       "    Message('note_on', channel=0, note=60, velocity=31, time=10),\n",
       "    Message('note_off', channel=0, note=58, velocity=63, time=9),\n",
       "    Message('note_off', channel=0, note=62, velocity=51, time=19),\n",
       "    Message('note_off', channel=0, note=60, velocity=55, time=9),\n",
       "    Message('note_off', channel=0, note=74, velocity=62, time=9),\n",
       "    Message('note_on', channel=0, note=70, velocity=70, time=195),\n",
       "    Message('note_on', channel=0, note=53, velocity=44, time=2),\n",
       "    Message('note_on', channel=0, note=58, velocity=52, time=4),\n",
       "    Message('note_off', channel=0, note=58, velocity=59, time=24),\n",
       "    Message('note_off', channel=0, note=53, velocity=62, time=3),\n",
       "    Message('note_off', channel=0, note=70, velocity=63, time=42),\n",
       "    Message('note_on', channel=0, note=41, velocity=59, time=131),\n",
       "    Message('note_on', channel=0, note=53, velocity=42, time=293),\n",
       "    Message('note_on', channel=0, note=51, velocity=45, time=10),\n",
       "    Message('note_on', channel=0, note=65, velocity=61, time=17),\n",
       "    Message('note_on', channel=0, note=57, velocity=51, time=5),\n",
       "    Message('note_on', channel=0, note=60, velocity=50, time=6),\n",
       "    Message('control_change', channel=0, control=64, value=100, time=43),\n",
       "    Message('control_change', channel=0, control=64, value=85, time=15),\n",
       "    Message('control_change', channel=0, control=64, value=73, time=15),\n",
       "    Message('control_change', channel=0, control=64, value=67, time=14),\n",
       "    Message('control_change', channel=0, control=64, value=63, time=15),\n",
       "    Message('control_change', channel=0, control=64, value=54, time=15),\n",
       "    Message('control_change', channel=0, control=64, value=24, time=15),\n",
       "    Message('control_change', channel=0, control=64, value=0, time=15),\n",
       "    Message('control_change', channel=0, control=64, value=56, time=808),\n",
       "    Message('control_change', channel=0, control=64, value=64, time=15),\n",
       "    Message('control_change', channel=0, control=64, value=66, time=14),\n",
       "    Message('control_change', channel=0, control=64, value=71, time=15),\n",
       "    Message('control_change', channel=0, control=64, value=81, time=15),\n",
       "    Message('control_change', channel=0, control=64, value=127, time=15),\n",
       "    Message('note_off', channel=0, note=65, velocity=37, time=60),\n",
       "    Message('note_off', channel=0, note=60, velocity=45, time=67),\n",
       "    Message('note_off', channel=0, note=57, velocity=39, time=5),\n",
       "    Message('note_off', channel=0, note=41, velocity=42, time=1),\n",
       "    Message('note_off', channel=0, note=51, velocity=42, time=128),\n",
       "    Message('note_on', channel=0, note=70, velocity=54, time=613),\n",
       "    Message('note_on', channel=0, note=50, velocity=34, time=9),\n",
       "    Message('note_on', channel=0, note=58, velocity=39, time=3),\n",
       "    Message('control_change', channel=0, control=64, value=99, time=10),\n",
       "    Message('control_change', channel=0, control=64, value=74, time=15),\n",
       "    Message('control_change', channel=0, control=64, value=63, time=15),\n",
       "    Message('control_change', channel=0, control=64, value=17, time=15),\n",
       "    Message('note_off', channel=0, note=53, velocity=37, time=1),\n",
       "    Message('control_change', channel=0, control=64, value=0, time=14),\n",
       "    Message('control_change', channel=0, control=64, value=41, time=15),\n",
       "    Message('control_change', channel=0, control=64, value=62, time=14),\n",
       "    Message('control_change', channel=0, control=64, value=70, time=15),\n",
       "    Message('control_change', channel=0, control=64, value=86, time=15),\n",
       "    Message('control_change', channel=0, control=64, value=127, time=14),\n",
       "    Message('note_off', channel=0, note=58, velocity=39, time=57),\n",
       "    Message('note_off', channel=0, note=50, velocity=41, time=178),\n",
       "    Message('note_on', channel=0, note=72, velocity=72, time=17),\n",
       "    Message('note_off', channel=0, note=70, velocity=58, time=13),\n",
       "    Message('note_on', channel=0, note=60, velocity=49, time=3),\n",
       "    Message('note_on', channel=0, note=53, velocity=36, time=8),\n",
       "    Message('note_off', channel=0, note=60, velocity=37, time=119),\n",
       "    Message('note_off', channel=0, note=53, velocity=35, time=179),\n",
       "    Message('note_on', channel=0, note=46, velocity=36, time=54),\n",
       "    Message('note_on', channel=0, note=58, velocity=25, time=5),\n",
       "    Message('note_off', channel=0, note=72, velocity=59, time=6),\n",
       "    Message('note_on', channel=0, note=74, velocity=82, time=6),\n",
       "    Message('control_change', channel=0, control=64, value=88, time=0),\n",
       "    Message('note_on', channel=0, note=62, velocity=56, time=14),\n",
       "    Message('control_change', channel=0, control=64, value=68, time=1),\n",
       "    Message('control_change', channel=0, control=64, value=29, time=15),\n",
       "    Message('control_change', channel=0, control=64, value=0, time=15),\n",
       "    Message('control_change', channel=0, control=64, value=63, time=74),\n",
       "    Message('control_change', channel=0, control=64, value=73, time=22),\n",
       "    Message('control_change', channel=0, control=64, value=107, time=15),\n",
       "    Message('control_change', channel=0, control=64, value=127, time=15),\n",
       "    Message('note_off', channel=0, note=46, velocity=60, time=9),\n",
       "    Message('note_off', channel=0, note=62, velocity=56, time=26),\n",
       "    Message('note_off', channel=0, note=58, velocity=40, time=81),\n",
       "    Message('note_on', channel=0, note=65, velocity=39, time=230),\n",
       "    Message('note_on', channel=0, note=62, velocity=30, time=22),\n",
       "    Message('note_off', channel=0, note=65, velocity=57, time=126),\n",
       "    Message('note_off', channel=0, note=62, velocity=42, time=91),\n",
       "    Message('note_on', channel=0, note=63, velocity=39, time=88),\n",
       "    Message('note_on', channel=0, note=67, velocity=48, time=3),\n",
       "    Message('note_off', channel=0, note=67, velocity=55, time=119),\n",
       "    Message('note_off', channel=0, note=63, velocity=60, time=11),\n",
       "    Message('note_on', channel=0, note=62, velocity=50, time=132),\n",
       "    Message('note_on', channel=0, note=65, velocity=52, time=11),\n",
       "    Message('note_off', channel=0, note=62, velocity=47, time=73),\n",
       "    Message('note_off', channel=0, note=74, velocity=48, time=121),\n",
       "    Message('note_on', channel=0, note=62, velocity=50, time=30),\n",
       "    Message('note_on', channel=0, note=58, velocity=44, time=18),\n",
       "    Message('control_change', channel=0, control=67, value=121, time=19),\n",
       "    Message('control_change', channel=0, control=67, value=96, time=14),\n",
       "    Message('control_change', channel=0, control=67, value=61, time=15),\n",
       "    Message('note_off', channel=0, note=58, velocity=58, time=7),\n",
       "    Message('control_change', channel=0, control=67, value=14, time=8),\n",
       "    Message('control_change', channel=0, control=67, value=0, time=15),\n",
       "    Message('note_on', channel=0, note=53, velocity=39, time=179),\n",
       "    Message('note_on', channel=0, note=58, velocity=36, time=6),\n",
       "    Message('note_off', channel=0, note=53, velocity=56, time=63),\n",
       "    Message('note_off', channel=0, note=58, velocity=52, time=20),\n",
       "    Message('note_on', channel=0, note=70, velocity=76, time=15),\n",
       "    Message('note_off', channel=0, note=65, velocity=49, time=31),\n",
       "    Message('note_off', channel=0, note=62, velocity=34, time=43),\n",
       "    Message('note_on', channel=0, note=57, velocity=45, time=149),\n",
       "    Message('note_on', channel=0, note=48, velocity=37, time=6),\n",
       "    Message('control_change', channel=0, control=64, value=105, time=44),\n",
       "    Message('note_on', channel=0, note=77, velocity=80, time=7),\n",
       "    Message('control_change', channel=0, control=64, value=79, time=8),\n",
       "    Message('note_on', channel=0, note=65, velocity=53, time=6),\n",
       "    Message('note_off', channel=0, note=70, velocity=35, time=6),\n",
       "    Message('control_change', channel=0, control=64, value=65, time=3),\n",
       "    Message('control_change', channel=0, control=64, value=0, time=15),\n",
       "    Message('control_change', channel=0, control=64, value=60, time=74),\n",
       "    Message('control_change', channel=0, control=64, value=67, time=14),\n",
       "    Message('control_change', channel=0, control=64, value=78, time=15),\n",
       "    Message('control_change', channel=0, control=64, value=127, time=15),\n",
       "    Message('note_off', channel=0, note=65, velocity=44, time=35),\n",
       "    Message('note_off', channel=0, note=48, velocity=36, time=66),\n",
       "    Message('note_off', channel=0, note=57, velocity=38, time=49),\n",
       "    Message('note_on', channel=0, note=60, velocity=40, time=81),\n",
       "    Message('note_on', channel=0, note=69, velocity=46, time=4),\n",
       "    Message('note_off', channel=0, note=60, velocity=63, time=119),\n",
       "    Message('note_off', channel=0, note=69, velocity=56, time=0),\n",
       "    Message('note_on', channel=0, note=62, velocity=45, time=144),\n",
       "    Message('note_on', channel=0, note=70, velocity=55, time=9),\n",
       "    Message('note_off', channel=0, note=62, velocity=54, time=106),\n",
       "    Message('note_off', channel=0, note=77, velocity=51, time=30),\n",
       "    Message('note_off', channel=0, note=70, velocity=38, time=61),\n",
       "    Message('note_on', channel=0, note=60, velocity=39, time=38),\n",
       "    Message('note_on', channel=0, note=69, velocity=57, time=2),\n",
       "    Message('note_off', channel=0, note=69, velocity=60, time=72),\n",
       "    Message('note_on', channel=0, note=76, velocity=76, time=24),\n",
       "    Message('note_off', channel=0, note=60, velocity=35, time=49),\n",
       "    Message('note_off', channel=0, note=76, velocity=60, time=21),\n",
       "    Message('note_on', channel=0, note=57, velocity=51, time=26),\n",
       "    Message('note_on', channel=0, note=74, velocity=83, time=22),\n",
       "    Message('note_on', channel=0, note=65, velocity=42, time=2),\n",
       "    Message('note_off', channel=0, note=57, velocity=64, time=23),\n",
       "    Message('note_off', channel=0, note=65, velocity=62, time=117),\n",
       "    Message('note_on', channel=0, note=53, velocity=48, time=119),\n",
       "    Message('note_on', channel=0, note=60, velocity=47, time=6),\n",
       "    Message('note_off', channel=0, note=74, velocity=38, time=3),\n",
       "    Message('note_off', channel=0, note=60, velocity=63, time=21),\n",
       "    Message('note_off', channel=0, note=53, velocity=64, time=17),\n",
       "    Message('note_on', channel=0, note=72, velocity=78, time=70),\n",
       "    Message('note_off', channel=0, note=72, velocity=63, time=85),\n",
       "    Message('note_on', channel=0, note=36, velocity=58, time=33),\n",
       "    Message('control_change', channel=0, control=64, value=106, time=191),\n",
       "    Message('note_on', channel=0, note=72, velocity=74, time=12),\n",
       "    Message('control_change', channel=0, control=64, value=75, time=2),\n",
       "    Message('note_on', channel=0, note=51, velocity=49, time=13),\n",
       "    Message('note_on', channel=0, note=58, velocity=44, time=2),\n",
       "    Message('control_change', channel=0, control=64, value=56, time=0),\n",
       "    Message('control_change', channel=0, control=64, value=0, time=15),\n",
       "    Message('control_change', channel=0, control=64, value=47, time=97),\n",
       "    Message('control_change', channel=0, control=64, value=68, time=14),\n",
       "    Message('control_change', channel=0, control=64, value=93, time=15),\n",
       "    Message('control_change', channel=0, control=64, value=127, time=15),\n",
       "    Message('note_off', channel=0, note=58, velocity=38, time=59),\n",
       "    Message('polytouch', channel=0, note=38, value=127, time=15),\n",
       "    Message('note_off', channel=0, note=36, velocity=39, time=11),\n",
       "    Message('polytouch', channel=0, note=38, value=0, time=43),\n",
       "    Message('note_off', channel=0, note=51, velocity=54, time=28),\n",
       "    Message('note_on', channel=0, note=60, velocity=44, time=142),\n",
       "    Message('control_change', channel=0, control=64, value=94, time=0),\n",
       "    Message('control_change', channel=0, control=64, value=74, time=15),\n",
       "    Message('note_on', channel=0, note=52, velocity=35, time=4),\n",
       "    Message('control_change', channel=0, control=64, value=66, time=11),\n",
       "    Message('control_change', channel=0, control=64, value=64, time=14),\n",
       "    Message('control_change', channel=0, control=64, value=66, time=15),\n",
       "    Message('control_change', channel=0, control=64, value=71, time=15),\n",
       "    Message('control_change', channel=0, control=64, value=86, time=14),\n",
       "    Message('control_change', channel=0, control=64, value=127, time=15),\n",
       "    Message('note_off', channel=0, note=52, velocity=58, time=5),\n",
       "    Message('note_off', channel=0, note=60, velocity=37, time=32),\n",
       "    Message('note_on', channel=0, note=60, velocity=38, time=177),\n",
       "    Message('note_on', channel=0, note=69, velocity=53, time=6),\n",
       "    Message('note_off', channel=0, note=69, velocity=61, time=154),\n",
       "    Message('note_off', channel=0, note=60, velocity=36, time=33),\n",
       "    Message('note_off', channel=0, note=72, velocity=36, time=49),\n",
       "    Message('note_on', channel=0, note=58, velocity=46, time=27),\n",
       "    Message('note_on', channel=0, note=70, velocity=74, time=0),\n",
       "    Message('note_on', channel=0, note=67, velocity=52, time=10),\n",
       "    Message('note_off', channel=0, note=67, velocity=66, time=30),\n",
       "    Message('note_off', channel=0, note=70, velocity=42, time=107),\n",
       "    Message('note_off', channel=0, note=58, velocity=60, time=3),\n",
       "    Message('note_on', channel=0, note=55, velocity=48, time=100),\n",
       "    Message('note_on', channel=0, note=69, velocity=74, time=37),\n",
       "    Message('note_on', channel=0, note=64, velocity=63, time=21),\n",
       "    Message('control_change', channel=0, control=64, value=93, time=17),\n",
       "    Message('control_change', channel=0, control=64, value=68, time=15),\n",
       "    Message('control_change', channel=0, control=64, value=0, time=15),\n",
       "    Message('control_change', channel=0, control=64, value=64, time=59),\n",
       "    Message('control_change', channel=0, control=64, value=75, time=15),\n",
       "    Message('control_change', channel=0, control=64, value=127, time=15),\n",
       "    Message('note_off', channel=0, note=55, velocity=54, time=67),\n",
       "    Message('note_on', channel=0, note=60, velocity=47, time=21),\n",
       "    Message('note_on', channel=0, note=52, velocity=42, time=17),\n",
       "    Message('control_change', channel=0, control=64, value=71, time=50),\n",
       "    Message('control_change', channel=0, control=64, value=40, time=14),\n",
       "    Message('control_change', channel=0, control=64, value=54, time=15),\n",
       "    Message('note_on', channel=0, note=67, velocity=67, time=11),\n",
       "    Message('control_change', channel=0, control=64, value=66, time=4),\n",
       "    Message('note_off', channel=0, note=69, velocity=64, time=11),\n",
       "    Message('control_change', channel=0, control=64, value=93, time=3),\n",
       "    Message('control_change', channel=0, control=64, value=127, time=15),\n",
       "    Message('note_off', channel=0, note=52, velocity=57, time=36),\n",
       "    Message('note_off', channel=0, note=60, velocity=27, time=13),\n",
       "    Message('note_on', channel=0, note=58, velocity=49, time=23),\n",
       "    Message('note_on', channel=0, note=49, velocity=48, time=2),\n",
       "    Message('note_off', channel=0, note=58, velocity=64, time=27),\n",
       "    Message('note_off', channel=0, note=49, velocity=62, time=17),\n",
       "    Message('note_off', channel=0, note=64, velocity=60, time=9),\n",
       "    Message('note_off', channel=0, note=67, velocity=45, time=147),\n",
       "    Message('note_on', channel=0, note=47, velocity=46, time=121),\n",
       "    Message('note_on', channel=0, note=41, velocity=32, time=31),\n",
       "    Message('note_on', channel=0, note=65, velocity=63, time=15),\n",
       "    Message('note_on', channel=0, note=56, velocity=44, time=13),\n",
       "    Message('control_change', channel=0, control=64, value=98, time=7),\n",
       "    Message('control_change', channel=0, control=64, value=82, time=14),\n",
       "    Message('control_change', channel=0, control=64, value=70, time=15),\n",
       "    Message('control_change', channel=0, control=64, value=62, time=15),\n",
       "    Message('control_change', channel=0, control=64, value=0, time=15),\n",
       "    Message('control_change', channel=0, control=64, value=62, time=67),\n",
       "    Message('control_change', channel=0, control=64, value=70, time=15),\n",
       "    Message('control_change', channel=0, control=64, value=108, time=14),\n",
       "    Message('control_change', channel=0, control=64, value=127, time=15),\n",
       "    Message('note_off', channel=0, note=47, velocity=52, time=49),\n",
       "    Message('note_off', channel=0, note=56, velocity=37, time=34),\n",
       "    Message('control_change', channel=0, control=64, value=104, time=80),\n",
       "    Message('note_on', channel=0, note=48, velocity=38, time=8),\n",
       "    Message('note_on', channel=0, note=57, velocity=39, time=3),\n",
       "    Message('control_change', channel=0, control=64, value=69, time=3),\n",
       "    Message('control_change', channel=0, control=64, value=0, time=15),\n",
       "    Message('control_change', channel=0, control=64, value=36, time=45),\n",
       "    Message('control_change', channel=0, control=64, value=68, time=14),\n",
       "    Message('control_change', channel=0, control=64, value=103, time=15),\n",
       "    Message('control_change', channel=0, control=64, value=127, time=15),\n",
       "    Message('note_off', channel=0, note=48, velocity=49, time=24),\n",
       "    Message('note_off', channel=0, note=57, velocity=39, time=81),\n",
       "    Message('control_change', channel=0, control=64, value=90, time=14),\n",
       "    Message('control_change', channel=0, control=64, value=67, time=15),\n",
       "    Message('note_on', channel=0, note=58, velocity=50, time=3),\n",
       "    Message('control_change', channel=0, control=64, value=0, time=12),\n",
       "    Message('note_on', channel=0, note=50, velocity=36, time=0),\n",
       "    Message('control_change', channel=0, control=64, value=43, time=44),\n",
       "    Message('control_change', channel=0, control=64, value=63, time=16),\n",
       "    Message('control_change', channel=0, control=64, value=68, time=15),\n",
       "    Message('control_change', channel=0, control=64, value=78, time=15),\n",
       "    Message('control_change', channel=0, control=64, value=127, time=14),\n",
       "    Message('note_off', channel=0, note=50, velocity=36, time=81),\n",
       "    Message('note_off', channel=0, note=58, velocity=55, time=68),\n",
       "    Message('note_on', channel=0, note=57, velocity=30, time=113),\n",
       "    Message('note_on', channel=0, note=48, velocity=25, time=21),\n",
       "    Message('control_change', channel=0, control=64, value=83, time=6),\n",
       "    Message('control_change', channel=0, control=64, value=69, time=15),\n",
       "    Message('control_change', channel=0, control=64, value=52, time=15),\n",
       "    Message('control_change', channel=0, control=64, value=0, time=15),\n",
       "    Message('control_change', channel=0, control=64, value=17, time=103),\n",
       "    Message('control_change', channel=0, control=64, value=62, time=15),\n",
       "    Message('control_change', channel=0, control=64, value=66, time=14),\n",
       "    Message('control_change', channel=0, control=64, value=70, time=15),\n",
       "    Message('control_change', channel=0, control=64, value=81, time=15),\n",
       "    Message('note_off', channel=0, note=48, velocity=54, time=12),\n",
       "    Message('control_change', channel=0, control=64, value=127, time=3),\n",
       "    Message('note_off', channel=0, note=65, velocity=37, time=92),\n",
       "    Message('note_off', channel=0, note=57, velocity=37, time=24),\n",
       "    Message('note_off', channel=0, note=41, velocity=42, time=10),\n",
       "    Message('control_change', channel=0, control=64, value=109, time=431),\n",
       "    Message('control_change', channel=0, control=64, value=97, time=14),\n",
       "    Message('control_change', channel=0, control=64, value=87, time=15),\n",
       "    Message('control_change', channel=0, control=64, value=79, time=15),\n",
       "    Message('control_change', channel=0, control=64, value=72, time=15),\n",
       "    Message('control_change', channel=0, control=64, value=68, time=15),\n",
       "    Message('control_change', channel=0, control=64, value=66, time=15),\n",
       "    Message('control_change', channel=0, control=64, value=64, time=15),\n",
       "    Message('control_change', channel=0, control=64, value=60, time=15),\n",
       "    Message('control_change', channel=0, control=64, value=54, time=15),\n",
       "    Message('control_change', channel=0, control=64, value=47, time=14),\n",
       "    Message('control_change', channel=0, control=64, value=37, time=15),\n",
       "    Message('control_change', channel=0, control=64, value=0, time=15),\n",
       "    Message('note_on', channel=0, note=50, velocity=34, time=105),\n",
       "    Message('note_on', channel=0, note=70, velocity=61, time=18),\n",
       "    Message('note_on', channel=0, note=58, velocity=35, time=9),\n",
       "    Message('control_change', channel=0, control=64, value=51, time=1),\n",
       "    Message('control_change', channel=0, control=64, value=62, time=15),\n",
       "    Message('control_change', channel=0, control=64, value=64, time=14),\n",
       "    Message('control_change', channel=0, control=64, value=67, time=15),\n",
       "    Message('control_change', channel=0, control=64, value=72, time=15),\n",
       "    Message('control_change', channel=0, control=64, value=86, time=15),\n",
       "    Message('control_change', channel=0, control=64, value=127, time=15),\n",
       "    Message('note_off', channel=0, note=58, velocity=38, time=89),\n",
       "    Message('note_on', channel=0, note=72, velocity=79, time=209),\n",
       "    Message('note_off', channel=0, note=50, velocity=36, time=6),\n",
       "    Message('note_on', channel=0, note=53, velocity=45, time=4),\n",
       "    Message('note_on', channel=0, note=60, velocity=60, time=4),\n",
       "    Message('note_off', channel=0, note=70, velocity=60, time=26),\n",
       "    Message('note_off', channel=0, note=60, velocity=56, time=37),\n",
       "    Message('note_off', channel=0, note=53, velocity=58, time=186),\n",
       "    Message('note_off', channel=0, note=72, velocity=37, time=22),\n",
       "    Message('note_on', channel=0, note=58, velocity=49, time=15),\n",
       "    Message('control_change', channel=0, control=64, value=99, time=3),\n",
       "    Message('note_on', channel=0, note=46, velocity=45, time=0),\n",
       "    Message('note_on', channel=0, note=74, velocity=84, time=9),\n",
       "    Message('control_change', channel=0, control=64, value=68, time=6),\n",
       "    Message('note_on', channel=0, note=62, velocity=69, time=6),\n",
       "    Message('control_change', channel=0, control=64, value=0, time=9),\n",
       "    Message('control_change', channel=0, control=64, value=40, time=59),\n",
       "    Message('note_off', channel=0, note=46, velocity=63, time=15),\n",
       "    Message('control_change', channel=0, control=64, value=67, time=0),\n",
       "    Message('control_change', channel=0, control=64, value=86, time=14),\n",
       "    Message('control_change', channel=0, control=64, value=127, time=15),\n",
       "    Message('note_off', channel=0, note=62, velocity=57, time=31),\n",
       "    Message('note_off', channel=0, note=58, velocity=62, time=8),\n",
       "    Message('note_off', channel=0, note=74, velocity=63, time=70),\n",
       "    Message('note_on', channel=0, note=77, velocity=84, time=118),\n",
       "    Message('note_on', channel=0, note=65, velocity=72, time=10),\n",
       "    Message('note_on', channel=0, note=62, velocity=46, time=12),\n",
       "    Message('note_off', channel=0, note=65, velocity=54, time=152),\n",
       "    Message('note_off', channel=0, note=62, velocity=38, time=17),\n",
       "    Message('note_on', channel=0, note=63, velocity=51, time=97),\n",
       "    Message('note_on', channel=0, note=79, velocity=89, time=3),\n",
       "    Message('note_on', channel=0, note=67, velocity=68, time=13),\n",
       "    Message('note_off', channel=0, note=77, velocity=45, time=3),\n",
       "    Message('note_off', channel=0, note=67, velocity=38, time=132),\n",
       "    Message('note_off', channel=0, note=63, velocity=60, time=13),\n",
       "    Message('note_off', channel=0, note=79, velocity=66, time=24),\n",
       "    Message('note_on', channel=0, note=77, velocity=78, time=72),\n",
       "    Message('note_on', channel=0, note=62, velocity=59, time=2),\n",
       "    Message('note_on', channel=0, note=65, velocity=61, time=9),\n",
       "    Message('note_off', channel=0, note=65, velocity=69, time=26),\n",
       "    Message('note_off', channel=0, note=77, velocity=63, time=21),\n",
       "    Message('note_off', channel=0, note=62, velocity=63, time=3),\n",
       "    Message('note_on', channel=0, note=74, velocity=82, time=199),\n",
       "    Message('note_on', channel=0, note=62, velocity=72, time=10),\n",
       "    Message('note_on', channel=0, note=58, velocity=42, time=3),\n",
       "    Message('note_off', channel=0, note=58, velocity=62, time=40),\n",
       "    Message('note_off', channel=0, note=62, velocity=58, time=14),\n",
       "    Message('note_off', channel=0, note=74, velocity=55, time=30),\n",
       "    Message('note_on', channel=0, note=70, velocity=73, time=179),\n",
       "    Message('note_on', channel=0, note=53, velocity=45, time=1),\n",
       "    Message('note_on', channel=0, note=58, velocity=61, time=9),\n",
       "    Message('note_off', channel=0, note=53, velocity=63, time=31),\n",
       "    Message('note_off', channel=0, note=58, velocity=64, time=0),\n",
       "    Message('note_off', channel=0, note=70, velocity=64, time=12),\n",
       "    Message('note_on', channel=0, note=41, velocity=63, time=118),\n",
       "    Message('note_on', channel=0, note=53, velocity=31, time=315),\n",
       "    Message('note_on', channel=0, note=65, velocity=65, time=14),\n",
       "    Message('note_on', channel=0, note=51, velocity=43, time=2),\n",
       "    Message('note_on', channel=0, note=57, velocity=50, time=8),\n",
       "    Message('control_change', channel=0, control=64, value=90, time=11),\n",
       "    Message('note_on', channel=0, note=60, velocity=50, time=3),\n",
       "    Message('control_change', channel=0, control=64, value=74, time=11),\n",
       "    Message('control_change', channel=0, control=64, value=65, time=15),\n",
       "    Message('control_change', channel=0, control=64, value=51, time=15),\n",
       "    Message('control_change', channel=0, control=64, value=0, time=15),\n",
       "    Message('control_change', channel=0, control=64, value=34, time=705),\n",
       "    Message('control_change', channel=0, control=64, value=62, time=14),\n",
       "    Message('control_change', channel=0, control=64, value=67, time=15),\n",
       "    Message('control_change', channel=0, control=64, value=74, time=15),\n",
       "    Message('control_change', channel=0, control=64, value=102, time=14),\n",
       "    Message('control_change', channel=0, control=64, value=127, time=15),\n",
       "    Message('note_off', channel=0, note=65, velocity=56, time=101),\n",
       "    Message('note_off', channel=0, note=57, velocity=39, time=47),\n",
       "    Message('note_off', channel=0, note=60, velocity=37, time=0),\n",
       "    Message('note_off', channel=0, note=41, velocity=43, time=40),\n",
       "    Message('note_off', channel=0, note=51, velocity=36, time=63),\n",
       "    Message('note_off', channel=0, note=53, velocity=44, time=676),\n",
       "    Message('note_on', channel=0, note=58, velocity=41, time=12),\n",
       "    Message('note_on', channel=0, note=70, velocity=47, time=3),\n",
       "    Message('note_on', channel=0, note=50, velocity=35, time=9),\n",
       "    Message('control_change', channel=0, control=64, value=76, time=21),\n",
       "    Message('control_change', channel=0, control=64, value=64, time=15),\n",
       "    Message('control_change', channel=0, control=64, value=36, time=14),\n",
       "    Message('control_change', channel=0, control=64, value=0, time=15),\n",
       "    Message('control_change', channel=0, control=64, value=13, time=15),\n",
       "    Message('control_change', channel=0, control=64, value=54, time=15),\n",
       "    Message('control_change', channel=0, control=64, value=63, time=15),\n",
       "    Message('control_change', channel=0, control=64, value=67, time=15),\n",
       "    Message('control_change', channel=0, control=64, value=75, time=14),\n",
       "    Message('control_change', channel=0, control=64, value=101, time=15),\n",
       "    Message('control_change', channel=0, control=64, value=127, time=15),\n",
       "    Message('note_off', channel=0, note=58, velocity=56, time=24),\n",
       "    Message('note_on', channel=0, note=72, velocity=63, time=193),\n",
       "    Message('note_on', channel=0, note=53, velocity=38, time=2),\n",
       "    Message('note_off', channel=0, note=50, velocity=40, time=0),\n",
       "    Message('note_on', channel=0, note=60, velocity=47, time=9),\n",
       "    Message('note_off', channel=0, note=70, velocity=54, time=20),\n",
       "    Message('note_off', channel=0, note=60, velocity=36, time=133),\n",
       "    Message('note_off', channel=0, note=53, velocity=54, time=93),\n",
       "    Message('control_change', channel=0, control=64, value=104, time=37),\n",
       "    Message('note_on', channel=0, note=58, velocity=38, time=13),\n",
       "    Message('note_on', channel=0, note=46, velocity=38, time=1),\n",
       "    Message('note_on', channel=0, note=74, velocity=70, time=0),\n",
       "    Message('control_change', channel=0, control=64, value=70, time=1),\n",
       "    Message('note_on', channel=0, note=62, velocity=53, time=9),\n",
       "    Message('control_change', channel=0, control=64, value=38, time=6),\n",
       "    Message('control_change', channel=0, control=64, value=0, time=15),\n",
       "    Message('note_off', channel=0, note=72, velocity=37, time=17),\n",
       "    Message('control_change', channel=0, control=64, value=57, time=42),\n",
       "    Message('control_change', channel=0, control=64, value=64, time=15),\n",
       "    Message('note_off', channel=0, note=46, velocity=61, time=8),\n",
       "    Message('control_change', channel=0, control=64, value=70, time=7),\n",
       "    Message('control_change', channel=0, control=64, value=87, time=15),\n",
       "    Message('control_change', channel=0, control=64, value=127, time=15),\n",
       "    Message('note_off', channel=0, note=62, velocity=38, time=31),\n",
       "    Message('note_off', channel=0, note=58, velocity=57, time=7),\n",
       "    Message('note_off', channel=0, note=74, velocity=63, time=42),\n",
       "    Message('note_on', channel=0, note=77, velocity=76, time=143),\n",
       "    Message('note_on', channel=0, note=62, velocity=46, time=17),\n",
       "    Message('note_on', channel=0, note=65, velocity=59, time=1),\n",
       "    Message('note_off', channel=0, note=65, velocity=56, time=104),\n",
       "    Message('note_off', channel=0, note=62, velocity=55, time=16),\n",
       "    Message('note_off', channel=0, note=77, velocity=58, time=72),\n",
       "    Message('note_on', channel=0, note=63, velocity=48, time=80),\n",
       "    Message('note_on', channel=0, note=79, velocity=84, time=1),\n",
       "    Message('note_on', channel=0, note=67, velocity=62, time=13),\n",
       "    Message('note_off', channel=0, note=63, velocity=58, time=91),\n",
       "    Message('note_off', channel=0, note=67, velocity=60, time=20),\n",
       "    Message('note_off', channel=0, note=79, velocity=61, time=56),\n",
       "    Message('note_on', channel=0, note=77, velocity=78, time=67),\n",
       "    Message('note_on', channel=0, note=65, velocity=68, time=6),\n",
       "    Message('note_on', channel=0, note=62, velocity=52, time=2),\n",
       "    Message('note_off', channel=0, note=65, velocity=61, time=42),\n",
       "    Message('note_off', channel=0, note=77, velocity=61, time=2),\n",
       "    Message('note_off', channel=0, note=62, velocity=62, time=10),\n",
       "    Message('control_change', channel=0, control=64, value=112, time=184),\n",
       "    Message('note_on', channel=0, note=74, velocity=74, time=9),\n",
       "    Message('control_change', channel=0, control=64, value=71, time=6),\n",
       "    Message('note_on', channel=0, note=62, velocity=66, time=3),\n",
       "    Message('note_on', channel=0, note=58, velocity=42, time=5),\n",
       "    Message('control_change', channel=0, control=64, value=52, time=7),\n",
       "    Message('control_change', channel=0, control=64, value=49, time=15),\n",
       "    Message('control_change', channel=0, control=64, value=63, time=14),\n",
       "    Message('control_change', channel=0, control=64, value=70, time=15),\n",
       "    Message('note_off', channel=0, note=58, velocity=60, time=1),\n",
       "    Message('control_change', channel=0, control=64, value=104, time=14),\n",
       "    Message('control_change', channel=0, control=64, value=127, time=14),\n",
       "    Message('note_off', channel=0, note=62, velocity=59, time=17),\n",
       "    Message('note_off', channel=0, note=74, velocity=59, time=13),\n",
       "    Message('note_on', channel=0, note=53, velocity=45, time=172),\n",
       "    Message('note_on', channel=0, note=70, velocity=69, time=7),\n",
       "    Message('note_on', channel=0, note=58, velocity=60, time=4),\n",
       "    Message('note_off', channel=0, note=53, velocity=61, time=19),\n",
       "    Message('note_off', channel=0, note=58, velocity=60, time=23),\n",
       "    Message('note_off', channel=0, note=70, velocity=64, time=21),\n",
       "    Message('note_on', channel=0, note=41, velocity=51, time=125),\n",
       "    Message('note_on', channel=0, note=53, velocity=43, time=295),\n",
       "    Message('note_on', channel=0, note=51, velocity=43, time=5),\n",
       "    Message('note_on', channel=0, note=65, velocity=57, time=36),\n",
       "    Message('note_on', channel=0, note=57, velocity=53, time=4),\n",
       "    Message('note_on', channel=0, note=60, velocity=50, time=9),\n",
       "    Message('control_change', channel=0, control=64, value=100, time=73),\n",
       "    Message('control_change', channel=0, control=64, value=84, time=15),\n",
       "    Message('control_change', channel=0, control=64, value=73, time=15),\n",
       "    Message('control_change', channel=0, control=64, value=66, time=15),\n",
       "    Message('control_change', channel=0, control=64, value=59, time=15),\n",
       "    Message('control_change', channel=0, control=64, value=0, time=14),\n",
       "    Message('control_change', channel=0, control=64, value=34, time=586),\n",
       "    Message('control_change', channel=0, control=64, value=50, time=15),\n",
       "    Message('control_change', channel=0, control=64, value=56, time=15),\n",
       "    Message('control_change', channel=0, control=64, value=60, time=14),\n",
       "    Message('control_change', channel=0, control=64, value=63, time=15),\n",
       "    Message('control_change', channel=0, control=64, value=64, time=15),\n",
       "    Message('control_change', channel=0, control=64, value=68, time=15),\n",
       "    Message('control_change', channel=0, control=64, value=73, time=15),\n",
       "    Message('control_change', channel=0, control=64, value=84, time=14),\n",
       "    Message('control_change', channel=0, control=64, value=127, time=15),\n",
       "    Message('note_off', channel=0, note=65, velocity=50, time=95),\n",
       "    Message('note_off', channel=0, note=57, velocity=39, time=33),\n",
       "    Message('note_off', channel=0, note=60, velocity=43, time=15),\n",
       "    Message('note_off', channel=0, note=41, velocity=42, time=27),\n",
       "    Message('note_off', channel=0, note=51, velocity=37, time=127),\n",
       "    Message('note_on', channel=0, note=70, velocity=58, time=497),\n",
       "    Message('note_on', channel=0, note=58, velocity=47, time=7),\n",
       "    Message('note_on', channel=0, note=50, velocity=31, time=5),\n",
       "    Message('control_change', channel=0, control=64, value=101, time=2),\n",
       "    Message('control_change', channel=0, control=64, value=73, time=15),\n",
       "    Message('note_off', channel=0, note=53, velocity=53, time=13),\n",
       "    Message('control_change', channel=0, control=64, value=62, time=2),\n",
       "    Message('control_change', channel=0, control=64, value=0, time=14),\n",
       "    Message('control_change', channel=0, control=64, value=59, time=45),\n",
       "    Message('control_change', channel=0, control=64, value=66, time=15),\n",
       "    Message('control_change', channel=0, control=64, value=75, time=14),\n",
       "    Message('control_change', channel=0, control=64, value=103, time=15),\n",
       "    Message('control_change', channel=0, control=64, value=127, time=16),\n",
       "    Message('note_off', channel=0, note=58, velocity=39, time=72),\n",
       "    Message('note_on', channel=0, note=72, velocity=76, time=195),\n",
       "    Message('note_off', channel=0, note=50, velocity=40, time=7),\n",
       "    Message('note_on', channel=0, note=53, velocity=39, time=10),\n",
       "    Message('note_off', channel=0, note=70, velocity=59, time=2),\n",
       "    Message('note_on', channel=0, note=60, velocity=52, time=1),\n",
       "    Message('note_off', channel=0, note=60, velocity=35, time=117),\n",
       "    Message('note_off', channel=0, note=53, velocity=57, time=160),\n",
       "    Message('note_off', channel=0, note=72, velocity=39, time=31),\n",
       "    Message('control_change', channel=0, control=64, value=119, time=5),\n",
       "    Message('note_on', channel=0, note=46, velocity=37, time=12),\n",
       "    Message('control_change', channel=0, control=64, value=74, time=3),\n",
       "    Message('note_on', channel=0, note=58, velocity=31, time=7),\n",
       "    Message('note_on', channel=0, note=74, velocity=78, time=3),\n",
       "    Message('control_change', channel=0, control=64, value=46, time=5),\n",
       "    Message('note_on', channel=0, note=62, velocity=52, time=15),\n",
       "    Message('control_change', channel=0, control=64, value=0, time=0),\n",
       "    Message('control_change', channel=0, control=64, value=60, time=60),\n",
       "    Message('control_change', channel=0, control=64, value=68, time=14),\n",
       "    Message('control_change', channel=0, control=64, value=91, time=15),\n",
       "    Message('note_off', channel=0, note=46, velocity=61, time=4),\n",
       "    Message('control_change', channel=0, control=64, value=127, time=11),\n",
       "    Message('note_off', channel=0, note=62, velocity=33, time=33),\n",
       "    Message('note_off', channel=0, note=58, velocity=39, time=60),\n",
       "    Message('note_on', channel=0, note=65, velocity=38, time=206),\n",
       "    Message('note_on', channel=0, note=62, velocity=35, time=8),\n",
       "    Message('note_off', channel=0, note=65, velocity=56, time=114),\n",
       "    Message('note_off', channel=0, note=62, velocity=37, time=98),\n",
       "    Message('note_on', channel=0, note=67, velocity=46, time=69),\n",
       "    Message('note_on', channel=0, note=63, velocity=40, time=14),\n",
       "    Message('note_off', channel=0, note=67, velocity=56, time=78),\n",
       "    Message('note_off', channel=0, note=63, velocity=57, time=66),\n",
       "    Message('note_on', channel=0, note=62, velocity=49, time=102),\n",
       "    Message('note_on', channel=0, note=65, velocity=52, time=2),\n",
       "    Message('note_off', channel=0, note=62, velocity=50, time=86),\n",
       "    Message('note_on', channel=0, note=62, velocity=50, time=136),\n",
       "    Message('note_on', channel=0, note=58, velocity=42, time=27),\n",
       "    Message('note_off', channel=0, note=74, velocity=38, time=1),\n",
       "    Message('note_off', channel=0, note=58, velocity=56, time=56),\n",
       "    Message('note_on', channel=0, note=53, velocity=50, time=165),\n",
       "    Message('note_on', channel=0, note=58, velocity=51, time=12),\n",
       "    Message('note_off', channel=0, note=53, velocity=61, time=33),\n",
       "    Message('note_off', channel=0, note=58, velocity=50, time=20),\n",
       "    Message('note_on', channel=0, note=70, velocity=87, time=41),\n",
       "    Message('note_off', channel=0, note=62, velocity=35, time=38),\n",
       "    Message('note_off', channel=0, note=65, velocity=59, time=0),\n",
       "    Message('note_on', channel=0, note=48, velocity=42, time=146),\n",
       "    Message('note_on', channel=0, note=57, velocity=53, time=0),\n",
       "    Message('control_change', channel=0, control=64, value=80, time=65),\n",
       "    Message('note_on', channel=0, note=77, velocity=90, time=12),\n",
       "    Message('control_change', channel=0, control=64, value=60, time=3),\n",
       "    Message('note_on', channel=0, note=65, velocity=66, time=9),\n",
       "    Message('note_off', channel=0, note=70, velocity=34, time=1),\n",
       "    Message('control_change', channel=0, control=64, value=0, time=5),\n",
       "    Message('control_change', channel=0, control=64, value=64, time=74),\n",
       "    Message('control_change', channel=0, control=64, value=77, time=22),\n",
       "    Message('control_change', channel=0, control=64, value=127, time=14),\n",
       "    Message('note_off', channel=0, note=65, velocity=52, time=42),\n",
       "    Message('note_off', channel=0, note=48, velocity=35, time=77),\n",
       "    Message('note_off', channel=0, note=57, velocity=39, time=96),\n",
       "    Message('note_on', channel=0, note=60, velocity=38, time=58),\n",
       "    Message('note_on', channel=0, note=69, velocity=51, time=1),\n",
       "    Message('note_off', channel=0, note=60, velocity=61, time=177),\n",
       "    Message('note_on', channel=0, note=62, velocity=48, time=77),\n",
       "    Message('note_off', channel=0, note=69, velocity=49, time=8),\n",
       "    Message('note_on', channel=0, note=70, velocity=63, time=9),\n",
       "    Message('note_off', channel=0, note=77, velocity=47, time=95),\n",
       "    Message('note_off', channel=0, note=62, velocity=56, time=98),\n",
       "    Message('note_on', channel=0, note=60, velocity=47, time=25),\n",
       "    Message('note_on', channel=0, note=69, velocity=70, time=11),\n",
       "    Message('note_off', channel=0, note=69, velocity=56, time=84),\n",
       "    Message('note_on', channel=0, note=76, velocity=83, time=12),\n",
       "    Message('note_off', channel=0, note=76, velocity=62, time=76),\n",
       "    Message('note_off', channel=0, note=70, velocity=22, time=2),\n",
       "    Message('note_off', channel=0, note=60, velocity=55, time=3),\n",
       "    Message('note_on', channel=0, note=57, velocity=53, time=20),\n",
       "    Message('note_on', channel=0, note=65, velocity=54, time=9),\n",
       "    Message('note_on', channel=0, note=74, velocity=87, time=14),\n",
       "    Message('note_off', channel=0, note=57, velocity=63, time=19),\n",
       "    Message('note_off', channel=0, note=65, velocity=63, time=128),\n",
       "    Message('note_off', channel=0, note=74, velocity=38, time=90),\n",
       "    Message('note_on', channel=0, note=60, velocity=52, time=15),\n",
       "    Message('note_on', channel=0, note=53, velocity=50, time=7),\n",
       "    Message('note_off', channel=0, note=60, velocity=63, time=22),\n",
       "    Message('note_off', channel=0, note=53, velocity=64, time=14),\n",
       "    Message('note_on', channel=0, note=72, velocity=84, time=80),\n",
       "    Message('note_off', channel=0, note=72, velocity=62, time=84),\n",
       "    Message('note_on', channel=0, note=36, velocity=61, time=24),\n",
       "    Message('control_change', channel=0, control=64, value=107, time=199),\n",
       "    Message('control_change', channel=0, control=64, value=78, time=15),\n",
       "    Message('control_change', channel=0, control=64, value=64, time=15),\n",
       "    Message('note_on', channel=0, note=72, velocity=76, time=3),\n",
       "    Message('note_on', channel=0, note=51, velocity=54, time=8),\n",
       "    Message('note_on', channel=0, note=58, velocity=53, time=3),\n",
       "    Message('control_change', channel=0, control=64, value=0, time=0),\n",
       "    Message('control_change', channel=0, control=64, value=62, time=119),\n",
       "    Message('control_change', channel=0, control=64, value=69, time=15),\n",
       "    Message('control_change', channel=0, control=64, value=93, time=15),\n",
       "    Message('control_change', channel=0, control=64, value=127, time=15),\n",
       "    Message('note_off', channel=0, note=58, velocity=38, time=77),\n",
       "    Message('note_off', channel=0, note=36, velocity=32, time=8),\n",
       "    Message('note_off', channel=0, note=51, velocity=49, time=82),\n",
       "    Message('control_change', channel=0, control=64, value=81, time=84),\n",
       "    Message('control_change', channel=0, control=64, value=64, time=15),\n",
       "    Message('note_on', channel=0, note=52, velocity=46, time=8),\n",
       "    Message('note_on', channel=0, note=60, velocity=48, time=0),\n",
       "    Message('control_change', channel=0, control=64, value=0, time=7),\n",
       "    Message('control_change', channel=0, control=64, value=13, time=15),\n",
       "    Message('control_change', channel=0, control=64, value=60, time=14),\n",
       "    Message('control_change', channel=0, control=64, value=68, time=15),\n",
       "    Message('control_change', channel=0, control=64, value=85, time=23),\n",
       "    Message('control_change', channel=0, control=64, value=127, time=15),\n",
       "    Message('note_off', channel=0, note=52, velocity=61, time=30),\n",
       "    Message('note_off', channel=0, note=60, velocity=39, time=16),\n",
       "    Message('note_on', channel=0, note=69, velocity=60, time=184),\n",
       "    Message('note_on', channel=0, note=60, velocity=49, time=4),\n",
       "    Message('note_off', channel=0, note=69, velocity=60, time=159),\n",
       "    Message('note_off', channel=0, note=60, velocity=56, time=11),\n",
       "    Message('note_off', channel=0, note=72, velocity=62, time=8),\n",
       "    Message('note_on', channel=0, note=70, velocity=75, time=59),\n",
       "    Message('note_on', channel=0, note=58, velocity=52, time=6),\n",
       "    Message('note_on', channel=0, note=67, velocity=51, time=18),\n",
       "    Message('note_off', channel=0, note=67, velocity=61, time=24),\n",
       "    Message('note_off', channel=0, note=70, velocity=55, time=108),\n",
       "    Message('note_off', channel=0, note=58, velocity=60, time=31),\n",
       "    Message('note_on', channel=0, note=55, velocity=51, time=76),\n",
       "    Message('note_on', channel=0, note=69, velocity=76, time=23),\n",
       "    Message('control_change', channel=0, control=64, value=104, time=6),\n",
       "    Message('note_on', channel=0, note=64, velocity=64, time=14),\n",
       "    Message('control_change', channel=0, control=64, value=78, time=2),\n",
       "    Message('control_change', channel=0, control=64, value=64, time=15),\n",
       "    Message('control_change', channel=0, control=64, value=0, time=14),\n",
       "    Message('control_change', channel=0, control=64, value=56, time=60),\n",
       "    Message('control_change', channel=0, control=64, value=68, time=15),\n",
       "    Message('control_change', channel=0, control=64, value=87, time=15),\n",
       "    Message('control_change', channel=0, control=64, value=127, time=14),\n",
       "    Message('note_off', channel=0, note=55, velocity=53, time=31),\n",
       "    Message('note_on', channel=0, note=60, velocity=44, time=39),\n",
       "    Message('note_on', channel=0, note=52, velocity=42, time=29),\n",
       "    Message('note_off', channel=0, note=60, velocity=61, time=42),\n",
       "    Message('note_off', channel=0, note=69, velocity=62, time=21),\n",
       "    Message('note_on', channel=0, note=67, velocity=70, time=12),\n",
       "    Message('control_change', channel=0, control=64, value=82, time=34),\n",
       "    Message('control_change', channel=0, control=64, value=68, time=14),\n",
       "    Message('note_off', channel=0, note=52, velocity=59, time=4),\n",
       "    Message('control_change', channel=0, control=64, value=69, time=11),\n",
       "    Message('control_change', channel=0, control=64, value=95, time=15),\n",
       "    Message('control_change', channel=0, control=64, value=127, time=15),\n",
       "    Message('note_on', channel=0, note=49, velocity=54, time=6),\n",
       "    Message('note_on', channel=0, note=58, velocity=49, time=9),\n",
       "    Message('note_off', channel=0, note=58, velocity=63, time=38),\n",
       "    Message('note_off', channel=0, note=64, velocity=50, time=6),\n",
       "    Message('note_off', channel=0, note=49, velocity=60, time=11),\n",
       "    Message('note_off', channel=0, note=67, velocity=54, time=153),\n",
       "    Message('note_on', channel=0, note=47, velocity=46, time=112),\n",
       "    Message('note_on', channel=0, note=41, velocity=39, time=6),\n",
       "    Message('note_on', channel=0, note=65, velocity=65, time=48),\n",
       "    Message('control_change', channel=0, control=64, value=86, time=4),\n",
       "    Message('control_change', channel=0, control=64, value=70, time=15),\n",
       "    Message('note_on', channel=0, note=56, velocity=49, time=8),\n",
       "    Message('control_change', channel=0, control=64, value=56, time=7),\n",
       "    Message('control_change', channel=0, control=64, value=0, time=15),\n",
       "    Message('control_change', channel=0, control=64, value=52, time=59),\n",
       "    Message('control_change', channel=0, control=64, value=67, time=14),\n",
       "    Message('control_change', channel=0, control=64, value=87, time=15),\n",
       "    Message('control_change', channel=0, control=64, value=127, time=15),\n",
       "    Message('note_off', channel=0, note=56, velocity=50, time=115),\n",
       "    Message('note_off', channel=0, note=47, velocity=37, time=25),\n",
       "    Message('control_change', channel=0, control=64, value=105, time=9),\n",
       "    Message('control_change', channel=0, control=64, value=67, time=14),\n",
       "    Message('control_change', channel=0, control=64, value=0, time=15),\n",
       "    Message('note_on', channel=0, note=57, velocity=46, time=8),\n",
       "    Message('note_on', channel=0, note=48, velocity=36, time=10),\n",
       "    Message('control_change', channel=0, control=64, value=31, time=71),\n",
       "    Message('control_change', channel=0, control=64, value=69, time=14),\n",
       "    Message('control_change', channel=0, control=64, value=127, time=15),\n",
       "    Message('note_off', channel=0, note=48, velocity=50, time=2),\n",
       "    Message('note_off', channel=0, note=57, velocity=49, time=89),\n",
       "    Message('control_change', channel=0, control=64, value=115, time=13),\n",
       "    Message('control_change', channel=0, control=64, value=74, time=15),\n",
       "    Message('control_change', channel=0, control=64, value=61, time=15),\n",
       "    Message('control_change', channel=0, control=64, value=0, time=14),\n",
       "    Message('note_on', channel=0, note=50, velocity=35, time=1),\n",
       "    Message('note_on', channel=0, note=58, velocity=36, time=4),\n",
       "    Message('control_change', channel=0, control=64, value=31, time=62),\n",
       "    Message('control_change', channel=0, control=64, value=55, time=15),\n",
       "    Message('control_change', channel=0, control=64, value=62, time=15),\n",
       "    Message('control_change', channel=0, control=64, value=66, time=14),\n",
       "    Message('control_change', channel=0, control=64, value=80, time=15),\n",
       "    Message('control_change', channel=0, control=64, value=127, time=15),\n",
       "    Message('note_off', channel=0, note=50, velocity=37, time=231),\n",
       "    Message('control_change', channel=0, control=64, value=122, time=7),\n",
       "    Message('note_off', channel=0, note=58, velocity=43, time=11),\n",
       "    Message('control_change', channel=0, control=64, value=107, time=4),\n",
       "    Message('control_change', channel=0, control=64, value=102, time=15),\n",
       "    Message('control_change', channel=0, control=64, value=95, time=15),\n",
       "    Message('note_on', channel=0, note=57, velocity=40, time=2),\n",
       "    Message('control_change', channel=0, control=64, value=85, time=13),\n",
       "    Message('note_on', channel=0, note=48, velocity=27, time=1),\n",
       "    Message('control_change', channel=0, control=64, value=76, time=13),\n",
       "    Message('control_change', channel=0, control=64, value=69, time=15),\n",
       "    Message('control_change', channel=0, control=64, value=63, time=15),\n",
       "    Message('control_change', channel=0, control=64, value=36, time=15),\n",
       "    Message('control_change', channel=0, control=64, value=0, time=15),\n",
       "    Message('control_change', channel=0, control=64, value=37, time=133),\n",
       "    Message('control_change', channel=0, control=64, value=59, time=14),\n",
       "    Message('control_change', channel=0, control=64, value=63, time=15),\n",
       "    Message('control_change', channel=0, control=64, value=65, time=15),\n",
       "    Message('control_change', channel=0, control=64, value=67, time=15),\n",
       "    Message('control_change', channel=0, control=64, value=71, time=15),\n",
       "    Message('control_change', channel=0, control=64, value=83, time=14),\n",
       "    Message('control_change', channel=0, control=64, value=127, time=15),\n",
       "    Message('note_off', channel=0, note=57, velocity=33, time=89),\n",
       "    Message('note_off', channel=0, note=48, velocity=40, time=33),\n",
       "    Message('note_off', channel=0, note=41, velocity=38, time=37),\n",
       "    Message('note_off', channel=0, note=65, velocity=29, time=74),\n",
       "    Message('control_change', channel=0, control=64, value=103, time=354),\n",
       "    Message('control_change', channel=0, control=64, value=91, time=14),\n",
       "    Message('control_change', channel=0, control=64, value=82, time=15),\n",
       "    Message('control_change', channel=0, control=64, value=75, time=15),\n",
       "    Message('control_change', channel=0, control=64, value=69, time=15),\n",
       "    Message('control_change', channel=0, control=64, value=65, time=15),\n",
       "    Message('control_change', channel=0, control=64, value=62, time=14),\n",
       "    Message('control_change', channel=0, control=64, value=57, time=15),\n",
       "    Message('control_change', channel=0, control=64, value=46, time=15),\n",
       "    Message('note_on', channel=0, note=46, velocity=58, time=11),\n",
       "    Message('control_change', channel=0, control=64, value=0, time=4),\n",
       "    Message('control_change', channel=0, control=64, value=57, time=214),\n",
       "    Message('control_change', channel=0, control=64, value=70, time=15),\n",
       "    Message('control_change', channel=0, control=64, value=103, time=15),\n",
       "    Message('control_change', channel=0, control=64, value=127, time=15),\n",
       "    Message('note_on', channel=0, note=48, velocity=73, time=141),\n",
       "    Message('note_off', channel=0, note=46, velocity=63, time=3),\n",
       "    Message('note_off', channel=0, note=48, velocity=61, time=64),\n",
       "    Message('note_on', channel=0, note=34, velocity=75, time=121),\n",
       "    Message('control_change', channel=0, control=64, value=96, time=27),\n",
       "    Message('control_change', channel=0, control=64, value=68, time=15),\n",
       "    Message('control_change', channel=0, control=64, value=29, time=15),\n",
       "    Message('control_change', channel=0, control=64, value=0, time=15),\n",
       "    Message('control_change', channel=0, control=64, value=42, time=15),\n",
       "    Message('control_change', channel=0, control=64, value=67, time=15),\n",
       "    Message('control_change', channel=0, control=64, value=127, time=14),\n",
       "    Message('note_off', channel=0, note=34, velocity=62, time=19),\n",
       "    Message('note_on', channel=0, note=50, velocity=67, time=145),\n",
       "    Message('note_on', channel=0, note=70, velocity=57, time=79),\n",
       "    Message('note_on', channel=0, note=56, velocity=46, time=3),\n",
       "    Message('control_change', channel=0, control=64, value=89, time=13),\n",
       "    Message('control_change', channel=0, control=64, value=69, time=15),\n",
       "    Message('control_change', channel=0, control=64, value=62, time=15),\n",
       "    Message('control_change', channel=0, control=64, value=63, time=15),\n",
       "    Message('control_change', channel=0, control=64, value=67, time=15),\n",
       "    Message('control_change', channel=0, control=64, value=74, time=14),\n",
       "    Message('control_change', channel=0, control=64, value=99, time=15),\n",
       "    Message('control_change', channel=0, control=64, value=127, time=15),\n",
       "    Message('note_off', channel=0, note=56, velocity=55, time=58),\n",
       "    Message('note_on', channel=0, note=58, velocity=47, time=234),\n",
       "    Message('note_off', channel=0, note=58, velocity=38, time=179),\n",
       "    Message('note_on', channel=0, note=67, velocity=49, time=108),\n",
       "    Message('note_on', channel=0, note=65, velocity=55, time=233),\n",
       "    Message('note_on', channel=0, note=46, velocity=60, time=195),\n",
       "    Message('note_off', channel=0, note=70, velocity=42, time=25),\n",
       "    Message('note_off', channel=0, note=67, velocity=38, time=40),\n",
       "    Message('note_on', channel=0, note=60, velocity=62, time=35),\n",
       "    Message('note_off', channel=0, note=50, velocity=44, time=0),\n",
       "    Message('note_off', channel=0, note=65, velocity=61, time=45),\n",
       "    Message('note_on', channel=0, note=48, velocity=67, time=114),\n",
       "    Message('note_on', channel=0, note=58, velocity=72, time=83),\n",
       "    Message('note_off', channel=0, note=46, velocity=61, time=26),\n",
       "    Message('note_off', channel=0, note=60, velocity=61, time=9),\n",
       "    Message('note_off', channel=0, note=48, velocity=62, time=13),\n",
       "    Message('note_on', channel=0, note=50, velocity=73, time=4),\n",
       "    Message('note_off', channel=0, note=58, velocity=62, time=46),\n",
       "    Message('note_off', channel=0, note=50, velocity=60, time=24),\n",
       "    Message('note_on', channel=0, note=36, velocity=71, time=52),\n",
       "    Message('note_on', channel=0, note=51, velocity=72, time=238),\n",
       "    Message('note_off', channel=0, note=36, velocity=31, time=11),\n",
       "    Message('control_change', channel=0, control=64, value=87, time=7),\n",
       "    Message('control_change', channel=0, control=64, value=61, time=15),\n",
       "    Message('control_change', channel=0, control=64, value=0, time=15),\n",
       "    Message('note_on', channel=0, note=70, velocity=61, time=2),\n",
       "    Message('note_on', channel=0, note=56, velocity=50, time=11),\n",
       "    Message('control_change', channel=0, control=64, value=65, time=61),\n",
       "    Message('control_change', channel=0, control=64, value=87, time=14),\n",
       "    Message('control_change', channel=0, control=64, value=127, time=15),\n",
       "    Message('note_off', channel=0, note=56, velocity=56, time=57),\n",
       "    Message('note_on', channel=0, note=58, velocity=47, time=205),\n",
       "    Message('note_on', channel=0, note=65, velocity=48, time=288),\n",
       "    Message('note_off', channel=0, note=58, velocity=37, time=200),\n",
       "    Message('note_on', channel=0, note=63, velocity=49, time=29),\n",
       "    Message('note_off', channel=0, note=70, velocity=36, time=124),\n",
       "    Message('note_on', channel=0, note=46, velocity=50, time=63),\n",
       "    Message('note_off', channel=0, note=65, velocity=37, time=48),\n",
       "    Message('note_on', channel=0, note=60, velocity=51, time=8),\n",
       "    Message('note_off', channel=0, note=63, velocity=38, time=23),\n",
       "    Message('note_off', channel=0, note=51, velocity=38, time=19),\n",
       "    Message('note_on', channel=0, note=48, velocity=59, time=67),\n",
       "    Message('note_off', channel=0, note=46, velocity=38, time=87),\n",
       "    Message('note_on', channel=0, note=58, velocity=61, time=36),\n",
       "    Message('note_on', channel=0, note=50, velocity=68, time=16),\n",
       "    Message('note_off', channel=0, note=60, velocity=61, time=9),\n",
       "    Message('note_off', channel=0, note=48, velocity=59, time=8),\n",
       "    Message('note_off', channel=0, note=58, velocity=62, time=51),\n",
       "    Message('note_off', channel=0, note=50, velocity=63, time=25),\n",
       "    Message('note_on', channel=0, note=51, velocity=76, time=8),\n",
       "    Message('note_off', channel=0, note=51, velocity=58, time=113),\n",
       "    Message('note_on', channel=0, note=37, velocity=76, time=43),\n",
       "    Message('polytouch', channel=0, note=42, value=127, time=50),\n",
       "    Message('control_change', channel=0, control=64, value=87, time=10),\n",
       "    Message('control_change', channel=0, control=64, value=63, time=23),\n",
       "    Message('note_off', channel=0, note=37, velocity=64, time=7),\n",
       "    Message('control_change', channel=0, control=64, value=0, time=6),\n",
       "    Message('polytouch', channel=0, note=42, value=0, time=2),\n",
       "    Message('note_on', channel=0, note=52, velocity=80, time=20),\n",
       "    Message('note_on', channel=0, note=70, velocity=70, time=15),\n",
       "    Message('control_change', channel=0, control=64, value=65, time=8),\n",
       "    Message('note_on', channel=0, note=56, velocity=52, time=7),\n",
       "    Message('control_change', channel=0, control=64, value=81, time=8),\n",
       "    Message('control_change', channel=0, control=64, value=127, time=14),\n",
       "    Message('note_off', channel=0, note=52, velocity=41, time=206),\n",
       "    Message('note_on', channel=0, note=64, velocity=59, time=81),\n",
       "    Message('note_off', channel=0, note=70, velocity=53, time=31),\n",
       "    Message('note_off', channel=0, note=56, velocity=38, time=25),\n",
       "    Message('control_change', channel=0, control=64, value=68, time=28),\n",
       "    Message('control_change', channel=0, control=64, value=0, time=15),\n",
       "    Message('note_on', channel=0, note=38, velocity=74, time=1),\n",
       "    Message('control_change', channel=0, control=64, value=33, time=43),\n",
       "    Message('control_change', channel=0, control=64, value=83, time=15),\n",
       "    Message('control_change', channel=0, control=64, value=127, time=16),\n",
       "    Message('note_off', channel=0, note=38, velocity=57, time=6),\n",
       "    Message('note_on', channel=0, note=53, velocity=79, time=76),\n",
       "    Message('note_off', channel=0, note=64, velocity=61, time=8),\n",
       "    Message('note_on', channel=0, note=70, velocity=76, time=6),\n",
       "    Message('note_on', channel=0, note=56, velocity=62, time=15),\n",
       "    Message('note_off', channel=0, note=53, velocity=63, time=27),\n",
       "    Message('note_on', channel=0, note=65, velocity=69, time=256),\n",
       "    Message('note_off', channel=0, note=56, velocity=49, time=67),\n",
       "    Message('note_off', channel=0, note=70, velocity=60, time=78),\n",
       "    Message('note_on', channel=0, note=46, velocity=78, time=112),\n",
       "    Message('note_on', channel=0, note=38, velocity=68, time=2),\n",
       "    Message('control_change', channel=0, control=64, value=81, time=51),\n",
       "    Message('control_change', channel=0, control=64, value=61, time=14),\n",
       "    Message('control_change', channel=0, control=64, value=0, time=15),\n",
       "    Message('note_on', channel=0, note=56, velocity=71, time=23),\n",
       "    Message('control_change', channel=0, control=64, value=61, time=37),\n",
       "    Message('control_change', channel=0, control=64, value=72, time=15),\n",
       "    Message('control_change', channel=0, control=64, value=104, time=15),\n",
       "    Message('note_off', channel=0, note=65, velocity=54, time=7),\n",
       "    Message('control_change', channel=0, control=64, value=127, time=8),\n",
       "    Message('note_off', channel=0, note=38, velocity=36, time=68),\n",
       "    Message('note_off', channel=0, note=46, velocity=61, time=63),\n",
       "    Message('note_on', channel=0, note=48, velocity=60, time=11),\n",
       "    Message('note_off', channel=0, note=48, velocity=53, time=90),\n",
       "    Message('note_on', channel=0, note=46, velocity=66, time=5),\n",
       "    Message('note_on', channel=0, note=66, velocity=71, time=40),\n",
       "    Message('note_off', channel=0, note=46, velocity=61, time=28),\n",
       "    Message('note_on', channel=0, note=48, velocity=50, time=32),\n",
       "    Message('note_off', channel=0, note=48, velocity=59, time=31),\n",
       "    Message('note_on', channel=0, note=46, velocity=60, time=10),\n",
       "    Message('note_off', channel=0, note=46, velocity=60, time=59),\n",
       "    Message('note_on', channel=0, note=48, velocity=67, time=3),\n",
       "    Message('note_off', channel=0, note=48, velocity=59, time=56),\n",
       "    Message('note_on', channel=0, note=46, velocity=52, time=2),\n",
       "    Message('note_on', channel=0, note=45, velocity=72, time=59),\n",
       "    Message('note_off', channel=0, note=46, velocity=62, time=0),\n",
       "    Message('note_off', channel=0, note=56, velocity=51, time=9),\n",
       "    Message('note_off', channel=0, note=45, velocity=63, time=69),\n",
       "    Message('note_on', channel=0, note=46, velocity=72, time=11),\n",
       "    Message('note_on', channel=0, note=39, velocity=66, time=59),\n",
       "    Message('note_on', channel=0, note=56, velocity=74, time=97),\n",
       "    Message('control_change', channel=0, control=64, value=101, time=6),\n",
       "    Message('control_change', channel=0, control=64, value=88, time=14),\n",
       "    Message('note_off', channel=0, note=66, velocity=39, time=7),\n",
       "    Message('control_change', channel=0, control=64, value=78, time=8),\n",
       "    Message('control_change', channel=0, control=64, value=71, time=23),\n",
       "    Message('control_change', channel=0, control=64, value=66, time=15),\n",
       "    Message('control_change', channel=0, control=64, value=61, time=15),\n",
       "    Message('control_change', channel=0, control=64, value=39, time=14),\n",
       "    Message('control_change', channel=0, control=64, value=0, time=15),\n",
       "    Message('control_change', channel=0, control=64, value=49, time=356),\n",
       "    Message('control_change', channel=0, control=64, value=54, time=15),\n",
       "    Message('control_change', channel=0, control=64, value=54, time=14),\n",
       "    Message('control_change', channel=0, control=64, value=55, time=15),\n",
       "    Message('control_change', channel=0, control=64, value=56, time=15),\n",
       "    Message('control_change', channel=0, control=64, value=60, time=14),\n",
       "    Message('control_change', channel=0, control=64, value=63, time=15),\n",
       "    Message('control_change', channel=0, control=64, value=65, time=15),\n",
       "    Message('control_change', channel=0, control=64, value=66, time=15),\n",
       "    Message('control_change', channel=0, control=64, value=67, time=15),\n",
       "    Message('control_change', channel=0, control=64, value=69, time=14),\n",
       "    Message('note_on', channel=0, note=68, velocity=48, time=4),\n",
       "    Message('control_change', channel=0, control=64, value=71, time=11),\n",
       "    Message('control_change', channel=0, control=64, value=76, time=15),\n",
       "    Message('control_change', channel=0, control=64, value=86, time=15),\n",
       "    Message('control_change', channel=0, control=64, value=127, time=15),\n",
       "    Message('note_off', channel=0, note=68, velocity=38, time=238),\n",
       "    Message('note_off', channel=0, note=56, velocity=57, time=12),\n",
       "    Message('note_on', channel=0, note=55, velocity=53, time=118),\n",
       "    Message('control_change', channel=0, control=64, value=99, time=25),\n",
       "    Message('control_change', channel=0, control=64, value=79, time=15),\n",
       "    Message('control_change', channel=0, control=64, value=67, time=15),\n",
       "    Message('control_change', channel=0, control=64, value=0, time=15),\n",
       "    Message('control_change', channel=0, control=64, value=48, time=119),\n",
       "    Message('control_change', channel=0, control=64, value=65, time=14),\n",
       "    Message('control_change', channel=0, control=64, value=71, time=15),\n",
       "    Message('control_change', channel=0, control=64, value=85, time=15),\n",
       "    Message('control_change', channel=0, control=64, value=127, time=15),\n",
       "    Message('note_off', channel=0, note=55, velocity=34, time=66),\n",
       "    Message('note_off', channel=0, note=46, velocity=51, time=6),\n",
       "    Message('note_off', channel=0, note=39, velocity=61, time=6),\n",
       "    Message('note_on', channel=0, note=67, velocity=44, time=3),\n",
       "    Message('note_off', channel=0, note=67, velocity=57, time=97),\n",
       "    Message('note_on', channel=0, note=55, velocity=46, time=371),\n",
       "    Message('note_on', channel=0, note=75, velocity=96, time=12),\n",
       "    Message('note_on', channel=0, note=63, velocity=84, time=8),\n",
       "    Message('note_off', channel=0, note=63, velocity=57, time=98),\n",
       "    Message('note_off', channel=0, note=55, velocity=58, time=302),\n",
       "    Message('note_on', channel=0, note=58, velocity=61, time=9),\n",
       "    Message('note_on', channel=0, note=77, velocity=96, time=3),\n",
       "    Message('note_on', channel=0, note=65, velocity=77, time=22),\n",
       "    Message('note_off', channel=0, note=75, velocity=57, time=2),\n",
       "    Message('note_off', channel=0, note=65, velocity=67, time=22),\n",
       "    Message('note_off', channel=0, note=77, velocity=55, time=280),\n",
       "    Message('note_on', channel=0, note=63, velocity=66, time=8),\n",
       "    Message('note_on', channel=0, note=51, velocity=66, time=3),\n",
       "    Message('note_off', channel=0, note=58, velocity=57, time=3),\n",
       "    Message('control_change', channel=0, control=64, value=102, time=13),\n",
       "    Message('control_change', channel=0, control=64, value=66, time=15),\n",
       "    Message('control_change', channel=0, control=64, value=0, time=15),\n",
       "    Message('note_on', channel=0, note=79, velocity=95, time=5),\n",
       "    Message('note_on', channel=0, note=67, velocity=79, time=8),\n",
       "    Message('control_change', channel=0, control=64, value=66, time=61),\n",
       "    Message('control_change', channel=0, control=64, value=108, time=15),\n",
       "    Message('control_change', channel=0, control=64, value=127, time=15),\n",
       "    Message('note_off', channel=0, note=51, velocity=64, time=6),\n",
       "    Message('note_off', channel=0, note=67, velocity=60, time=31),\n",
       "    Message('note_off', channel=0, note=63, velocity=60, time=10),\n",
       "    Message('note_on', channel=0, note=75, velocity=67, time=276),\n",
       "    Message('note_on', channel=0, note=67, velocity=53, time=22),\n",
       "    Message('note_off', channel=0, note=67, velocity=58, time=137),\n",
       "    Message('note_off', channel=0, note=75, velocity=61, time=27),\n",
       "    Message('note_on', channel=0, note=77, velocity=74, time=128),\n",
       "    Message('note_on', channel=0, note=68, velocity=55, time=15),\n",
       "    Message('note_off', channel=0, note=68, velocity=60, time=150),\n",
       "    Message('note_on', channel=0, note=75, velocity=87, time=67),\n",
       "    Message('note_on', channel=0, note=67, velocity=61, time=4),\n",
       "    Message('note_off', channel=0, note=79, velocity=59, time=36),\n",
       "    Message('note_off', channel=0, note=77, velocity=61, time=30),\n",
       "    Message('note_on', channel=0, note=72, velocity=76, time=61),\n",
       "    Message('note_off', channel=0, note=75, velocity=62, time=57),\n",
       "    Message('note_off', channel=0, note=67, velocity=63, time=25),\n",
       "    Message('note_on', channel=0, note=63, velocity=75, time=28),\n",
       "    Message('note_on', channel=0, note=55, velocity=70, time=2),\n",
       "    Message('control_change', channel=0, control=64, value=84, time=29),\n",
       "    Message('control_change', channel=0, control=64, value=59, time=14),\n",
       "    Message('note_on', channel=0, note=77, velocity=92, time=6),\n",
       "    Message('control_change', channel=0, control=64, value=0, time=9),\n",
       "    Message('control_change', channel=0, control=64, value=69, time=46),\n",
       "    Message('control_change', channel=0, control=64, value=127, time=14),\n",
       "    Message('note_off', channel=0, note=63, velocity=64, time=141),\n",
       "    Message('note_on', channel=0, note=60, velocity=61, time=4),\n",
       "    Message('note_off', channel=0, note=60, velocity=67, time=24),\n",
       "    Message('note_off', channel=0, note=55, velocity=60, time=3),\n",
       "    Message('note_on', channel=0, note=75, velocity=95, time=31),\n",
       "    Message('note_off', channel=0, note=72, velocity=64, time=2),\n",
       "    Message('note_on', channel=0, note=67, velocity=76, time=6),\n",
       "    Message('note_off', channel=0, note=77, velocity=28, time=25),\n",
       "    Message('note_off', channel=0, note=67, velocity=61, time=8),\n",
       "    Message('note_on', channel=0, note=43, velocity=70, time=81),\n",
       "    Message('note_off', channel=0, note=75, velocity=59, time=146),\n",
       "    Message('polytouch', channel=0, note=73, value=127, time=18),\n",
       "    Message('polytouch', channel=0, note=73, value=0, time=80),\n",
       "    Message('note_on', channel=0, note=58, velocity=70, time=4),\n",
       "    Message('control_change', channel=0, control=64, value=69, time=13),\n",
       "    Message('note_on', channel=0, note=74, velocity=86, time=6),\n",
       "    Message('note_on', channel=0, note=62, velocity=76, time=7),\n",
       "    Message('control_change', channel=0, control=64, value=0, time=1),\n",
       "    Message('control_change', channel=0, control=64, value=32, time=60),\n",
       "    Message('control_change', channel=0, control=64, value=66, time=14),\n",
       "    Message('control_change', channel=0, control=64, value=82, time=15),\n",
       "    Message('control_change', channel=0, control=64, value=127, time=15),\n",
       "    Message('note_off', channel=0, note=43, velocity=37, time=35),\n",
       "    Message('note_off', channel=0, note=62, velocity=52, time=14),\n",
       "    Message('polytouch', channel=0, note=45, value=0, time=4),\n",
       "    Message('note_off', channel=0, note=58, velocity=63, time=24),\n",
       "    Message('note_on', channel=0, note=62, velocity=46, time=229),\n",
       "    Message('note_on', channel=0, note=70, velocity=60, time=9),\n",
       "    Message('note_on', channel=0, note=72, velocity=64, time=305),\n",
       "    Message('note_on', channel=0, note=63, velocity=46, time=10),\n",
       "    Message('note_off', channel=0, note=62, velocity=45, time=11),\n",
       "    Message('note_off', channel=0, note=70, velocity=53, time=27),\n",
       "    Message('note_off', channel=0, note=63, velocity=60, time=154),\n",
       "    Message('note_off', channel=0, note=74, velocity=57, time=21),\n",
       "    Message('note_on', channel=0, note=70, velocity=70, time=11),\n",
       "    Message('note_on', channel=0, note=62, velocity=60, time=10),\n",
       "    Message('note_off', channel=0, note=72, velocity=51, time=35),\n",
       "    Message('note_on', channel=0, note=67, velocity=73, time=67),\n",
       "    Message('note_off', channel=0, note=70, velocity=60, time=39),\n",
       "    Message('note_on', channel=0, note=55, velocity=57, time=73),\n",
       "    Message('note_on', channel=0, note=58, velocity=63, time=4),\n",
       "    Message('note_on', channel=0, note=70, velocity=91, time=4),\n",
       "    Message('note_off', channel=0, note=62, velocity=63, time=3),\n",
       "    Message('note_off', channel=0, note=55, velocity=54, time=70),\n",
       "    Message('note_off', channel=0, note=58, velocity=62, time=78),\n",
       "    Message('note_on', channel=0, note=55, velocity=62, time=35),\n",
       "    Message('note_off', channel=0, note=55, velocity=64, time=28),\n",
       "    Message('note_on', channel=0, note=62, velocity=74, time=3),\n",
       "    Message('note_off', channel=0, note=67, velocity=57, time=17),\n",
       "    Message('note_off', channel=0, note=62, velocity=66, time=12),\n",
       "    Message('note_off', channel=0, note=70, velocity=66, time=31),\n",
       "    Message('note_on', channel=0, note=48, velocity=74, time=66),\n",
       "    Message('note_on', channel=0, note=63, velocity=72, time=287),\n",
       "    Message('control_change', channel=0, control=64, value=115, time=5),\n",
       "    Message('control_change', channel=0, control=64, value=68, time=15),\n",
       "    Message('control_change', channel=0, control=64, value=0, time=15),\n",
       "    Message('note_on', channel=0, note=79, velocity=95, time=22),\n",
       "    Message('note_on', channel=0, note=67, velocity=79, time=6),\n",
       "    Message('control_change', channel=0, control=64, value=64, time=75),\n",
       "    Message('control_change', channel=0, control=64, value=90, time=15),\n",
       "    Message('note_off', channel=0, note=48, velocity=50, time=2),\n",
       "    Message('control_change', channel=0, control=64, value=127, time=13),\n",
       "    Message('note_off', channel=0, note=63, velocity=62, time=77),\n",
       "    Message('note_off', channel=0, note=67, velocity=59, time=30),\n",
       "    Message('note_on', channel=0, note=75, velocity=61, time=238),\n",
       "    Message('note_on', channel=0, note=67, velocity=40, time=15),\n",
       "    Message('note_off', channel=0, note=67, velocity=53, time=256),\n",
       "    Message('note_off', channel=0, note=75, velocity=36, time=7),\n",
       "    Message('note_off', channel=0, note=79, velocity=40, time=12),\n",
       "    Message('note_on', channel=0, note=77, velocity=73, time=30),\n",
       "    Message('note_on', channel=0, note=68, velocity=44, time=7),\n",
       "    Message('note_off', channel=0, note=77, velocity=59, time=123),\n",
       "    Message('note_off', channel=0, note=68, velocity=37, time=126),\n",
       "    Message('note_on', channel=0, note=67, velocity=56, time=98),\n",
       "    Message('note_on', channel=0, note=79, velocity=92, time=10),\n",
       "    Message('note_on', channel=0, note=75, velocity=77, time=17),\n",
       "    Message('note_off', channel=0, note=79, velocity=55, time=171),\n",
       "    Message('note_off', channel=0, note=67, velocity=38, time=51),\n",
       "    Message('note_off', channel=0, note=75, velocity=61, time=11),\n",
       "    Message('note_on', channel=0, note=77, velocity=88, time=50),\n",
       "    Message('note_on', channel=0, note=63, velocity=53, time=6),\n",
       "    Message('note_on', channel=0, note=55, velocity=48, time=2),\n",
       "    Message('note_on', channel=0, note=72, velocity=74, time=5),\n",
       "    Message('note_off', channel=0, note=72, velocity=62, time=55),\n",
       "    Message('note_off', channel=0, note=63, velocity=50, time=125),\n",
       "    Message('note_on', channel=0, note=67, velocity=59, time=69),\n",
       "    Message('note_on', channel=0, note=60, velocity=50, time=8),\n",
       "    Message('note_off', channel=0, note=60, velocity=65, time=28),\n",
       "    Message('note_off', channel=0, note=67, velocity=62, time=3),\n",
       "    Message('note_off', channel=0, note=55, velocity=28, time=9),\n",
       "    Message('note_on', channel=0, note=75, velocity=77, time=150),\n",
       "    Message('note_off', channel=0, note=77, velocity=56, time=2),\n",
       "    Message('note_on', channel=0, note=43, velocity=63, time=76),\n",
       "    Message('note_off', channel=0, note=75, velocity=38, time=121),\n",
       "    Message('note_on', channel=0, note=58, velocity=56, time=135),\n",
       "    Message('control_change', channel=0, control=64, value=97, time=2),\n",
       "    Message('control_change', channel=0, control=64, value=69, time=15),\n",
       "    Message('note_on', channel=0, note=74, velocity=74, time=3),\n",
       "    Message('note_on', channel=0, note=62, velocity=57, time=7),\n",
       "    Message('control_change', channel=0, control=64, value=36, time=6),\n",
       "    Message('control_change', channel=0, control=64, value=0, time=15),\n",
       "    Message('control_change', channel=0, control=64, value=24, time=59),\n",
       "    Message('note_off', channel=0, note=43, velocity=45, time=2),\n",
       "    Message('control_change', channel=0, control=64, value=65, time=13),\n",
       "    Message('control_change', channel=0, control=64, value=78, time=15),\n",
       "    Message('control_change', channel=0, control=64, value=127, time=14),\n",
       "    Message('note_off', channel=0, note=62, velocity=37, time=33),\n",
       "    Message('note_off', channel=0, note=58, velocity=58, time=32),\n",
       "    Message('note_on', channel=0, note=62, velocity=41, time=288),\n",
       "    Message('note_on', channel=0, note=70, velocity=49, time=6),\n",
       "    Message('note_on', channel=0, note=72, velocity=53, time=358),\n",
       "    Message('note_off', channel=0, note=62, velocity=38, time=21),\n",
       "    Message('note_on', channel=0, note=63, velocity=34, time=1),\n",
       "    Message('note_off', channel=0, note=70, velocity=30, time=9),\n",
       "    Message('note_off', channel=0, note=63, velocity=41, time=208),\n",
       "    Message('note_off', channel=0, note=72, velocity=28, time=51),\n",
       "    Message('note_on', channel=0, note=62, velocity=45, time=13),\n",
       "    Message('note_on', channel=0, note=70, velocity=56, time=2),\n",
       "    Message('note_off', channel=0, note=74, velocity=27, time=3),\n",
       "    Message('note_off', channel=0, note=70, velocity=56, time=47),\n",
       "    Message('note_off', channel=0, note=62, velocity=49, time=161),\n",
       "    Message('note_on', channel=0, note=58, velocity=44, time=144),\n",
       "    Message('note_on', channel=0, note=55, velocity=35, time=21),\n",
       "    Message('control_change', channel=0, control=64, value=115, time=26),\n",
       "    Message('note_on', channel=0, note=67, velocity=56, time=6),\n",
       "    Message('note_on', channel=0, note=62, velocity=51, time=4),\n",
       "    Message('control_change', channel=0, control=64, value=78, time=5),\n",
       "    Message('control_change', channel=0, control=64, value=64, time=15),\n",
       "    Message('control_change', channel=0, control=64, value=0, time=15),\n",
       "    Message('control_change', channel=0, control=64, value=45, time=45),\n",
       "    Message('control_change', channel=0, control=64, value=63, time=15),\n",
       "    Message('control_change', channel=0, control=64, value=68, time=15),\n",
       "    Message('control_change', channel=0, control=64, value=80, time=15),\n",
       "    Message('control_change', channel=0, control=64, value=127, time=14),\n",
       "    Message('note_off', channel=0, note=58, velocity=54, time=103),\n",
       "    Message('note_off', channel=0, note=62, velocity=37, time=95),\n",
       "    Message('note_off', channel=0, note=55, velocity=34, time=72),\n",
       "    Message('note_on', channel=0, note=57, velocity=40, time=13),\n",
       "    Message('note_on', channel=0, note=69, velocity=51, time=16),\n",
       "    Message('note_on', channel=0, note=60, velocity=39, time=9),\n",
       "    Message('note_off', channel=0, note=67, velocity=44, time=53),\n",
       "    Message('note_off', channel=0, note=57, velocity=60, time=45),\n",
       "    Message('note_off', channel=0, note=60, velocity=61, time=2),\n",
       "    Message('note_off', channel=0, note=69, velocity=55, time=173),\n",
       "    Message('note_on', channel=0, note=55, velocity=38, time=78),\n",
       "    Message('note_on', channel=0, note=48, velocity=40, time=6),\n",
       "    Message('note_on', channel=0, note=70, velocity=56, time=7),\n",
       "    Message('note_on', channel=0, note=58, velocity=37, time=17),\n",
       "    Message('control_change', channel=0, control=64, value=89, time=0),\n",
       "    Message('control_change', channel=0, control=64, value=68, time=15),\n",
       "    Message('control_change', channel=0, control=64, value=41, time=15),\n",
       "    Message('control_change', channel=0, control=64, value=0, time=15),\n",
       "    Message('note_off', channel=0, note=58, velocity=57, time=39),\n",
       "    Message('control_change', channel=0, control=64, value=56, time=6),\n",
       "    Message('control_change', channel=0, control=64, value=65, time=15),\n",
       "    Message('control_change', channel=0, control=64, value=73, time=15),\n",
       "    Message('control_change', channel=0, control=64, value=99, time=14),\n",
       "    Message('control_change', channel=0, control=64, value=127, time=15),\n",
       "    Message('note_off', channel=0, note=70, velocity=57, time=108),\n",
       "    Message('note_on', channel=0, note=72, velocity=53, time=152),\n",
       "    Message('note_off', channel=0, note=55, velocity=43, time=4),\n",
       "    Message('note_on', channel=0, note=53, velocity=32, time=12),\n",
       "    Message('note_on', channel=0, note=69, velocity=38, time=1),\n",
       "    Message('note_off', channel=0, note=69, velocity=39, time=96),\n",
       "    Message('note_off', channel=0, note=53, velocity=32, time=142),\n",
       "    Message('note_off', channel=0, note=72, velocity=56, time=36),\n",
       "    Message('note_on', channel=0, note=74, velocity=57, time=19),\n",
       "    Message('note_on', channel=0, note=52, velocity=40, time=8),\n",
       "    Message('note_on', channel=0, note=67, velocity=42, time=9),\n",
       "    Message('note_off', channel=0, note=67, velocity=52, time=93),\n",
       "    Message('note_off', channel=0, note=48, velocity=33, time=35),\n",
       "    Message('note_off', channel=0, note=74, velocity=63, time=82),\n",
       "    Message('note_on', channel=0, note=76, velocity=66, time=39),\n",
       "    Message('note_off', channel=0, note=52, velocity=37, time=0),\n",
       "    Message('note_on', channel=0, note=50, velocity=47, time=5),\n",
       "    Message('note_on', channel=0, note=65, velocity=42, time=24),\n",
       "    Message('note_off', channel=0, note=50, velocity=64, time=12),\n",
       "    Message('note_off', channel=0, note=65, velocity=53, time=63),\n",
       "    Message('note_off', channel=0, note=76, velocity=62, time=135),\n",
       "    Message('note_on', channel=0, note=48, velocity=47, time=15),\n",
       "    Message('note_on', channel=0, note=77, velocity=73, time=4),\n",
       "    Message('note_on', channel=0, note=36, velocity=48, time=5),\n",
       "    Message('note_on', channel=0, note=64, velocity=48, time=7),\n",
       "    Message('note_off', channel=0, note=64, velocity=53, time=70),\n",
       "    Message('polytouch', channel=0, note=65, value=127, time=12),\n",
       "    Message('polytouch', channel=0, note=65, value=0, time=60),\n",
       "    Message('note_off', channel=0, note=48, velocity=35, time=40),\n",
       "    Message('note_off', channel=0, note=36, velocity=32, time=1),\n",
       "    Message('note_off', channel=0, note=77, velocity=62, time=13),\n",
       "    Message('note_on', channel=0, note=79, velocity=78, time=43),\n",
       "    Message('note_on', channel=0, note=46, velocity=50, time=0),\n",
       "    Message('note_on', channel=0, note=74, velocity=65, time=14),\n",
       "    Message('note_off', channel=0, note=74, velocity=59, time=118),\n",
       "    Message('note_off', channel=0, note=46, velocity=33, time=103),\n",
       "    Message('note_on', channel=0, note=36, velocity=38, time=66),\n",
       "    Message('note_on', channel=0, note=45, velocity=36, time=11),\n",
       "    Message('note_on', channel=0, note=81, velocity=75, time=28),\n",
       "    Message('note_on', channel=0, note=72, velocity=57, time=9),\n",
       "    Message('control_change', channel=0, control=64, value=91, time=3),\n",
       "    Message('note_off', channel=0, note=79, velocity=51, time=8),\n",
       "    Message('control_change', channel=0, control=64, value=69, time=7),\n",
       "    Message('control_change', channel=0, control=64, value=29, time=15),\n",
       "    Message('control_change', channel=0, control=64, value=0, time=15),\n",
       "    Message('control_change', channel=0, control=64, value=57, time=89),\n",
       "    Message('control_change', channel=0, control=64, value=66, time=15),\n",
       "    Message('control_change', channel=0, control=64, value=81, time=14),\n",
       "    Message('control_change', channel=0, control=64, value=127, time=15),\n",
       "    Message('note_off', channel=0, note=45, velocity=50, time=132),\n",
       "    Message('note_on', channel=0, note=79, velocity=68, time=9),\n",
       "    Message('note_on', channel=0, note=76, velocity=60, time=10),\n",
       "    Message('note_off', channel=0, note=72, velocity=55, time=0),\n",
       "    Message('note_on', channel=0, note=46, velocity=45, time=4),\n",
       "    Message('note_off', channel=0, note=81, velocity=61, time=6),\n",
       "    Message('note_off', channel=0, note=36, velocity=38, time=61),\n",
       "    Message('note_off', channel=0, note=79, velocity=61, time=59),\n",
       "    Message('note_off', channel=0, note=46, velocity=51, time=119),\n",
       "    Message('note_on', channel=0, note=77, velocity=71, time=3),\n",
       "    Message('note_on', channel=0, note=48, velocity=44, time=8),\n",
       "    Message('note_on', channel=0, note=69, velocity=54, time=4),\n",
       "    Message('note_off', channel=0, note=76, velocity=61, time=0),\n",
       "    Message('note_off', channel=0, note=48, velocity=62, time=147),\n",
       "    Message('note_on', channel=0, note=50, velocity=57, time=25),\n",
       "    Message('note_off', channel=0, note=50, velocity=65, time=29),\n",
       "    Message('note_on', channel=0, note=76, velocity=66, time=6),\n",
       "    Message('note_on', channel=0, note=72, velocity=65, time=13),\n",
       "    Message('note_off', channel=0, note=69, velocity=51, time=20),\n",
       "    Message('note_off', channel=0, note=77, velocity=61, time=25),\n",
       "    Message('note_on', channel=0, note=36, velocity=59, time=33),\n",
       "    Message('note_off', channel=0, note=76, velocity=63, time=27),\n",
       "    Message('note_off', channel=0, note=36, velocity=63, time=62),\n",
       "    Message('control_change', channel=0, control=64, value=89, time=6),\n",
       "    Message('control_change', channel=0, control=64, value=66, time=15),\n",
       "    Message('control_change', channel=0, control=64, value=51, time=15),\n",
       "    Message('control_change', channel=0, control=64, value=58, time=15),\n",
       "    Message('note_on', channel=0, note=52, velocity=49, time=9),\n",
       "    Message('note_on', channel=0, note=74, velocity=75, time=6),\n",
       "    Message('control_change', channel=0, control=64, value=65, time=0),\n",
       "    Message('note_off', channel=0, note=72, velocity=66, time=2),\n",
       "    Message('control_change', channel=0, control=64, value=72, time=13),\n",
       "    Message('note_on', channel=0, note=67, velocity=61, time=1),\n",
       "    Message('control_change', channel=0, control=64, value=107, time=14),\n",
       "    Message('control_change', channel=0, control=64, value=127, time=14),\n",
       "    Message('note_off', channel=0, note=67, velocity=61, time=182),\n",
       "    Message('note_off', channel=0, note=52, velocity=60, time=13),\n",
       "    Message('note_off', channel=0, note=74, velocity=60, time=33),\n",
       "    Message('note_on', channel=0, note=72, velocity=74, time=9),\n",
       "    Message('note_on', channel=0, note=53, velocity=52, time=1),\n",
       "    Message('note_on', channel=0, note=69, velocity=63, time=16),\n",
       "    Message('note_off', channel=0, note=69, velocity=60, time=128),\n",
       "    Message('note_off', channel=0, note=53, velocity=54, time=94),\n",
       "    Message('note_on', channel=0, note=55, velocity=47, time=43),\n",
       "    Message('note_on', channel=0, note=48, velocity=47, time=4),\n",
       "    Message('note_off', channel=0, note=72, velocity=56, time=4),\n",
       "    Message('control_change', channel=0, control=64, value=102, time=0),\n",
       "    Message('note_on', channel=0, note=70, velocity=70, time=2),\n",
       "    Message('note_on', channel=0, note=64, velocity=57, time=12),\n",
       "    Message('control_change', channel=0, control=64, value=77, time=1),\n",
       "    Message('control_change', channel=0, control=64, value=64, time=14),\n",
       "    Message('control_change', channel=0, control=64, value=0, time=15),\n",
       "    Message('control_change', channel=0, control=64, value=61, time=59),\n",
       "    Message('control_change', channel=0, control=64, value=69, time=15),\n",
       "    Message('control_change', channel=0, control=64, value=91, time=15),\n",
       "    Message('control_change', channel=0, control=64, value=127, time=14),\n",
       "    Message('note_off', channel=0, note=70, velocity=59, time=53),\n",
       "    Message('note_off', channel=0, note=64, velocity=54, time=56),\n",
       "    Message('note_off', channel=0, note=55, velocity=37, time=49),\n",
       "    Message('control_change', channel=0, control=64, value=91, time=35),\n",
       "    Message('note_on', channel=0, note=69, velocity=59, time=5),\n",
       "    Message('note_on', channel=0, note=57, velocity=48, time=1),\n",
       "    Message('control_change', channel=0, control=64, value=70, time=9),\n",
       "    Message('note_on', channel=0, note=65, velocity=55, time=4),\n",
       "    Message('control_change', channel=0, control=64, value=55, time=11),\n",
       "    Message('control_change', channel=0, control=64, value=0, time=15),\n",
       "    Message('control_change', channel=0, control=64, value=58, time=44),\n",
       "    Message('control_change', channel=0, control=64, value=65, time=22),\n",
       "    Message('control_change', channel=0, control=64, value=71, time=15),\n",
       "    Message('control_change', channel=0, control=64, value=86, time=15),\n",
       "    Message('control_change', channel=0, control=64, value=127, time=15),\n",
       "    Message('note_off', channel=0, note=65, velocity=51, time=66),\n",
       "    Message('note_off', channel=0, note=69, velocity=61, time=3),\n",
       "    Message('note_off', channel=0, note=57, velocity=45, time=65),\n",
       "    Message('note_on', channel=0, note=67, velocity=51, time=18),\n",
       "    Message('note_on', channel=0, note=58, velocity=47, time=8),\n",
       "    Message('note_on', channel=0, note=61, velocity=47, time=4),\n",
       "    Message('control_change', channel=0, control=64, value=79, time=0),\n",
       "    Message('control_change', channel=0, control=64, value=65, time=15),\n",
       "    Message('control_change', channel=0, control=64, value=35, time=15),\n",
       "    Message('control_change', channel=0, control=64, value=0, time=15),\n",
       "    Message('control_change', channel=0, control=64, value=17, time=14),\n",
       "    Message('control_change', channel=0, control=64, value=60, time=15),\n",
       "    Message('control_change', channel=0, control=64, value=67, time=15),\n",
       "    Message('control_change', channel=0, control=64, value=78, time=15),\n",
       "    Message('control_change', channel=0, control=64, value=127, time=14),\n",
       "    Message('note_off', channel=0, note=61, velocity=62, time=57),\n",
       "    Message('note_off', channel=0, note=58, velocity=56, time=4),\n",
       "    Message('note_off', channel=0, note=67, velocity=59, time=56),\n",
       "    Message('control_change', channel=0, control=64, value=78, time=31),\n",
       "    Message('note_on', channel=0, note=59, velocity=42, time=6),\n",
       "    Message('note_on', channel=0, note=65, velocity=50, time=0),\n",
       "    Message('note_on', channel=0, note=62, velocity=41, time=7),\n",
       "    Message('control_change', channel=0, control=64, value=65, time=2),\n",
       "    Message('control_change', channel=0, control=64, value=54, time=15),\n",
       "    Message('control_change', channel=0, control=64, value=55, time=14),\n",
       "    Message('control_change', channel=0, control=64, value=63, time=15),\n",
       "    Message('control_change', channel=0, control=64, value=67, time=15),\n",
       "    Message('control_change', channel=0, control=64, value=74, time=15),\n",
       "    Message('control_change', channel=0, control=64, value=107, time=15),\n",
       "    Message('note_off', channel=0, note=48, velocity=37, time=1),\n",
       "    Message('note_off', channel=0, note=59, velocity=53, time=9),\n",
       "    Message('control_change', channel=0, control=64, value=127, time=4),\n",
       "    Message('note_off', channel=0, note=62, velocity=36, time=132),\n",
       "    Message('note_on', channel=0, note=60, velocity=48, time=77),\n",
       "    Message('note_on', channel=0, note=48, velocity=38, time=12),\n",
       "    Message('note_on', channel=0, note=69, velocity=53, time=0),\n",
       "    Message('note_off', channel=0, note=65, velocity=38, time=1),\n",
       "    Message('note_on', channel=0, note=63, velocity=41, time=24),\n",
       "    Message('control_change', channel=0, control=64, value=94, time=0),\n",
       "    Message('control_change', channel=0, control=64, value=69, time=15),\n",
       "    Message('control_change', channel=0, control=64, value=28, time=14),\n",
       "    Message('control_change', channel=0, control=64, value=0, time=15),\n",
       "    Message('control_change', channel=0, control=64, value=45, time=75),\n",
       "    Message('control_change', channel=0, control=64, value=62, time=15),\n",
       "    Message('control_change', channel=0, control=64, value=66, time=15),\n",
       "    Message('control_change', channel=0, control=64, value=72, time=15),\n",
       "    Message('control_change', channel=0, control=64, value=91, time=14),\n",
       "    Message('control_change', channel=0, control=64, value=127, time=15),\n",
       "    Message('note_off', channel=0, note=69, velocity=38, time=86),\n",
       "    Message('note_off', channel=0, note=63, velocity=29, time=57),\n",
       "    Message('note_on', channel=0, note=58, velocity=46, time=55),\n",
       "    Message('note_on', channel=0, note=67, velocity=53, time=4),\n",
       "    Message('note_off', channel=0, note=60, velocity=46, time=5),\n",
       "    Message('control_change', channel=0, control=64, value=107, time=1),\n",
       "    Message('note_on', channel=0, note=64, velocity=43, time=8),\n",
       "    Message('control_change', channel=0, control=64, value=70, time=7),\n",
       "    Message('control_change', channel=0, control=64, value=0, time=15),\n",
       "    Message('control_change', channel=0, control=64, value=60, time=73),\n",
       "    Message('control_change', channel=0, control=64, value=66, time=15),\n",
       "    Message('control_change', channel=0, control=64, value=77, time=15),\n",
       "    Message('control_change', channel=0, control=64, value=127, time=15),\n",
       "    Message('note_off', channel=0, note=64, velocity=48, time=19),\n",
       "    Message('note_off', channel=0, note=67, velocity=57, time=170),\n",
       "    Message('note_off', channel=0, note=58, velocity=38, time=1),\n",
       "    Message('note_off', channel=0, note=48, velocity=0, time=39),\n",
       "    Message('control_change', channel=0, control=64, value=105, time=0),\n",
       "    Message('note_on', channel=0, note=57, velocity=44, time=8),\n",
       "    Message('note_on', channel=0, note=65, velocity=48, time=2),\n",
       "    Message('control_change', channel=0, control=64, value=76, time=4),\n",
       "    Message('note_on', channel=0, note=60, velocity=40, time=3),\n",
       "    Message('control_change', channel=0, control=64, value=65, time=12),\n",
       "    Message('polytouch', channel=0, note=48, value=127, time=8),\n",
       "    Message('control_change', channel=0, control=64, value=42, time=7),\n",
       "    Message('control_change', channel=0, control=64, value=0, time=15),\n",
       "    Message('control_change', channel=0, control=64, value=55, time=60),\n",
       "    Message('control_change', channel=0, control=64, value=64, time=15),\n",
       "    Message('control_change', channel=0, control=64, value=69, time=14),\n",
       "    Message('control_change', channel=0, control=64, value=84, time=15),\n",
       "    Message('control_change', channel=0, control=64, value=127, time=15),\n",
       "    Message('note_off', channel=0, note=65, velocity=38, time=147),\n",
       "    Message('note_off', channel=0, note=60, velocity=39, time=140),\n",
       "    Message('note_on', channel=0, note=66, velocity=45, time=74),\n",
       "    Message('note_on', channel=0, note=56, velocity=37, time=3),\n",
       "    Message('note_off', channel=0, note=57, velocity=42, time=2),\n",
       "    Message('control_change', channel=0, control=64, value=107, time=4),\n",
       "    Message('note_on', channel=0, note=63, velocity=43, time=10),\n",
       "    Message('control_change', channel=0, control=64, value=82, time=5),\n",
       "    Message('control_change', channel=0, control=64, value=68, time=15),\n",
       "    Message('control_change', channel=0, control=64, value=58, time=15),\n",
       "    Message('control_change', channel=0, control=64, value=0, time=15),\n",
       "    Message('control_change', channel=0, control=64, value=29, time=81),\n",
       "    Message('control_change', channel=0, control=64, value=61, time=15),\n",
       "    Message('control_change', channel=0, control=64, value=66, time=15),\n",
       "    Message('control_change', channel=0, control=64, value=75, time=15),\n",
       "    Message('control_change', channel=0, control=64, value=127, time=14),\n",
       "    Message('note_off', channel=0, note=56, velocity=38, time=127),\n",
       "    Message('note_off', channel=0, note=63, velocity=31, time=33),\n",
       "    Message('note_off', channel=0, note=66, velocity=41, time=30),\n",
       "    Message('note_on', channel=0, note=67, velocity=49, time=15),\n",
       "    Message('control_change', channel=0, control=64, value=85, time=4),\n",
       "    Message('note_on', channel=0, note=55, velocity=33, time=8),\n",
       "    Message('note_on', channel=0, note=60, velocity=38, time=3),\n",
       "    Message('control_change', channel=0, control=64, value=66, time=3),\n",
       "    Message('polytouch', channel=0, note=48, value=0, time=14),\n",
       "    Message('control_change', channel=0, control=64, value=0, time=1),\n",
       "    Message('polytouch', channel=0, note=48, value=127, time=36),\n",
       "    Message('control_change', channel=0, control=64, value=33, time=9),\n",
       "    Message('control_change', channel=0, control=64, value=63, time=14),\n",
       "    Message('control_change', channel=0, control=64, value=69, time=15),\n",
       "    Message('control_change', channel=0, control=64, value=86, time=15),\n",
       "    Message('control_change', channel=0, control=64, value=127, time=15),\n",
       "    Message('note_off', channel=0, note=55, velocity=38, time=117),\n",
       "    Message('note_off', channel=0, note=67, velocity=39, time=9),\n",
       "    Message('control_change', channel=0, control=64, value=122, time=8),\n",
       "    Message('control_change', channel=0, control=64, value=74, time=15),\n",
       "    Message('note_on', channel=0, note=54, velocity=35, time=11),\n",
       "    Message('note_on', channel=0, note=68, velocity=47, time=1),\n",
       "    Message('control_change', channel=0, control=64, value=52, time=2),\n",
       "    Message('note_off', channel=0, note=60, velocity=23, time=10),\n",
       "    Message('note_on', channel=0, note=63, velocity=38, time=5),\n",
       "    Message('control_change', channel=0, control=64, value=0, time=0),\n",
       "    Message('control_change', channel=0, control=64, value=43, time=74),\n",
       "    Message('control_change', channel=0, control=64, value=64, time=15),\n",
       "    Message('control_change', channel=0, control=64, value=70, time=22),\n",
       "    Message('control_change', channel=0, control=64, value=90, time=15),\n",
       "    Message('control_change', channel=0, control=64, value=127, time=15),\n",
       "    Message('note_off', channel=0, note=63, velocity=43, time=140),\n",
       "    Message('control_change', channel=0, control=64, value=92, time=37),\n",
       "    Message('control_change', channel=0, control=64, value=73, time=15),\n",
       "    Message('note_off', channel=0, note=68, velocity=46, time=4),\n",
       "    Message('control_change', channel=0, control=64, value=63, time=11),\n",
       "    Message('note_on', channel=0, note=62, velocity=41, time=5),\n",
       "    Message('note_on', channel=0, note=69, velocity=38, time=0),\n",
       "    Message('note_on', channel=0, note=53, velocity=29, time=2),\n",
       "    Message('note_off', channel=0, note=54, velocity=40, time=7),\n",
       "    Message('control_change', channel=0, control=64, value=0, time=1),\n",
       "    Message('control_change', channel=0, control=64, value=52, time=104),\n",
       "    Message('control_change', channel=0, control=64, value=62, time=15),\n",
       "    Message('control_change', channel=0, control=64, value=64, time=15),\n",
       "    Message('control_change', channel=0, control=64, value=66, time=15),\n",
       "    Message('control_change', channel=0, control=64, value=68, time=14),\n",
       "    Message('control_change', channel=0, control=64, value=75, time=15),\n",
       "    Message('control_change', channel=0, control=64, value=90, time=15),\n",
       "    Message('control_change', channel=0, control=64, value=127, time=15),\n",
       "    Message('note_off', channel=0, note=62, velocity=33, time=18),\n",
       "    Message('note_off', channel=0, note=69, velocity=29, time=151),\n",
       "    Message('note_on', channel=0, note=51, velocity=32, time=159),\n",
       "    Message('note_on', channel=0, note=65, velocity=39, time=5),\n",
       "    Message('note_on', channel=0, note=60, velocity=28, time=9),\n",
       "    Message('control_change', channel=0, control=64, value=98, time=6),\n",
       "    Message('control_change', channel=0, control=64, value=87, time=14),\n",
       "    Message('note_off', channel=0, note=53, velocity=43, time=13),\n",
       "    Message('control_change', channel=0, control=64, value=77, time=2),\n",
       "    Message('control_change', channel=0, control=64, value=68, time=15),\n",
       "    Message('control_change', channel=0, control=64, value=64, time=14),\n",
       "    Message('control_change', channel=0, control=64, value=53, time=15),\n",
       "    Message('control_change', channel=0, control=64, value=0, time=15),\n",
       "    Message('control_change', channel=0, control=64, value=51, time=74),\n",
       "    Message('control_change', channel=0, control=64, value=63, time=15),\n",
       "    Message('control_change', channel=0, control=64, value=67, time=15),\n",
       "    Message('polytouch', channel=0, note=48, value=0, time=11),\n",
       "    Message('control_change', channel=0, control=64, value=76, time=3),\n",
       "    Message('control_change', channel=0, control=64, value=127, time=15),\n",
       "    Message('note_off', channel=0, note=60, velocity=38, time=11),\n",
       "    Message('note_off', channel=0, note=65, velocity=43, time=96),\n",
       "    Message('note_on', channel=0, note=70, velocity=51, time=496),\n",
       "    Message('note_on', channel=0, note=50, velocity=39, time=2),\n",
       "    Message('note_off', channel=0, note=51, velocity=43, time=6),\n",
       "    Message('note_on', channel=0, note=58, velocity=37, time=3),\n",
       "    Message('control_change', channel=0, control=64, value=92, time=2),\n",
       "    Message('control_change', channel=0, control=64, value=74, time=15),\n",
       "    Message('control_change', channel=0, control=64, value=66, time=15),\n",
       "    Message('control_change', channel=0, control=64, value=60, time=14),\n",
       "    Message('control_change', channel=0, control=64, value=54, time=15),\n",
       "    Message('control_change', channel=0, control=64, value=59, time=15),\n",
       "    Message('control_change', channel=0, control=64, value=64, time=15),\n",
       "    Message('control_change', channel=0, control=64, value=67, time=15),\n",
       "    Message('control_change', channel=0, control=64, value=73, time=14),\n",
       "    Message('control_change', channel=0, control=64, value=89, time=15),\n",
       "    Message('control_change', channel=0, control=64, value=127, time=15),\n",
       "    Message('note_off', channel=0, note=58, velocity=44, time=96),\n",
       "    Message('note_on', channel=0, note=72, velocity=70, time=205),\n",
       "    Message('note_on', channel=0, note=60, velocity=47, time=11),\n",
       "    Message('note_on', channel=0, note=53, velocity=41, time=0),\n",
       "    Message('note_off', channel=0, note=50, velocity=35, time=9),\n",
       "    Message('note_off', channel=0, note=70, velocity=47, time=3),\n",
       "    Message('note_off', channel=0, note=60, velocity=38, time=108),\n",
       "    Message('note_off', channel=0, note=53, velocity=55, time=151),\n",
       "    Message('note_on', channel=0, note=58, velocity=40, time=43),\n",
       "    Message('note_on', channel=0, note=46, velocity=42, time=3),\n",
       "    Message('note_on', channel=0, note=74, velocity=75, time=16),\n",
       "    Message('control_change', channel=0, control=64, value=81, time=0),\n",
       "    Message('note_on', channel=0, note=62, velocity=56, time=11),\n",
       "    Message('control_change', channel=0, control=64, value=66, time=4),\n",
       "    Message('control_change', channel=0, control=64, value=40, time=15),\n",
       "    Message('control_change', channel=0, control=64, value=0, time=15),\n",
       "    Message('note_off', channel=0, note=72, velocity=27, time=13),\n",
       "    Message('control_change', channel=0, control=64, value=39, time=2),\n",
       "    Message('control_change', channel=0, control=64, value=64, time=14),\n",
       "    Message('control_change', channel=0, control=64, value=72, time=15),\n",
       "    Message('note_off', channel=0, note=46, velocity=58, time=13),\n",
       "    Message('control_change', channel=0, control=64, value=99, time=2),\n",
       "    Message('control_change', channel=0, control=64, value=127, time=15),\n",
       "    Message('note_off', channel=0, note=62, velocity=50, time=29),\n",
       "    Message('note_off', channel=0, note=58, velocity=49, time=50),\n",
       "    Message('note_off', channel=0, note=74, velocity=62, time=33),\n",
       "    Message('note_on', channel=0, note=77, velocity=79, time=139),\n",
       "    Message('note_on', channel=0, note=65, velocity=61, time=13),\n",
       "    Message('note_on', channel=0, note=62, velocity=47, time=5),\n",
       "    Message('note_off', channel=0, note=62, velocity=39, time=125),\n",
       "    Message('note_off', channel=0, note=65, velocity=50, time=4),\n",
       "    Message('note_off', channel=0, note=77, velocity=56, time=98),\n",
       "    Message('note_on', channel=0, note=79, velocity=87, time=65),\n",
       "    Message('note_on', channel=0, note=63, velocity=49, time=1),\n",
       "    Message('note_on', channel=0, note=67, velocity=68, time=8),\n",
       "    Message('note_off', channel=0, note=63, velocity=60, time=81),\n",
       "    Message('note_off', channel=0, note=67, velocity=40, time=15),\n",
       "    Message('note_off', channel=0, note=79, velocity=61, time=98),\n",
       "    Message('note_on', channel=0, note=77, velocity=74, time=62),\n",
       "    Message('note_on', channel=0, note=62, velocity=56, time=9),\n",
       "    Message('note_on', channel=0, note=65, velocity=58, time=0),\n",
       "    Message('note_off', channel=0, note=62, velocity=65, time=32),\n",
       "    Message('note_off', channel=0, note=65, velocity=64, time=4),\n",
       "    Message('note_off', channel=0, note=77, velocity=63, time=10),\n",
       "    Message('control_change', channel=0, control=64, value=79, time=209),\n",
       "    Message('note_on', channel=0, note=74, velocity=71, time=1),\n",
       "    Message('note_on', channel=0, note=46, velocity=44, time=7),\n",
       "    Message('note_on', channel=0, note=62, velocity=64, time=0),\n",
       "    Message('control_change', channel=0, control=64, value=64, time=7),\n",
       "    Message('note_on', channel=0, note=58, velocity=35, time=11),\n",
       "    Message('control_change', channel=0, control=64, value=36, time=4),\n",
       "    Message('control_change', channel=0, control=64, value=35, time=14),\n",
       "    Message('control_change', channel=0, control=64, value=62, time=15),\n",
       "    Message('control_change', channel=0, control=64, value=67, time=15),\n",
       "    Message('control_change', channel=0, control=64, value=78, time=23),\n",
       "    Message('note_off', channel=0, note=62, velocity=60, time=12),\n",
       "    Message('control_change', channel=0, control=64, value=127, time=3),\n",
       "    Message('note_off', channel=0, note=74, velocity=61, time=5),\n",
       "    Message('note_off', channel=0, note=58, velocity=52, time=4),\n",
       "    Message('note_off', channel=0, note=46, velocity=37, time=153),\n",
       "    Message('note_on', channel=0, note=70, velocity=67, time=69),\n",
       "    Message('note_on', channel=0, note=50, velocity=40, time=15),\n",
       "    Message('note_on', channel=0, note=53, velocity=34, time=0),\n",
       "    Message('note_on', channel=0, note=58, velocity=39, time=0),\n",
       "    Message('control_change', channel=0, control=64, value=86, time=20),\n",
       "    Message('control_change', channel=0, control=64, value=71, time=14),\n",
       "    Message('control_change', channel=0, control=64, value=66, time=15),\n",
       "    Message('note_off', channel=0, note=53, velocity=57, time=9),\n",
       "    Message('control_change', channel=0, control=64, value=68, time=6),\n",
       "    Message('control_change', channel=0, control=64, value=76, time=15),\n",
       "    Message('control_change', channel=0, control=64, value=103, time=15),\n",
       "    Message('control_change', channel=0, control=64, value=127, time=15),\n",
       "    Message('note_off', channel=0, note=50, velocity=54, time=27),\n",
       "    Message('note_on', channel=0, note=41, velocity=53, time=55),\n",
       "    Message('note_off', channel=0, note=70, velocity=62, time=7),\n",
       "    Message('note_off', channel=0, note=58, velocity=44, time=255),\n",
       "    Message('control_change', channel=0, control=64, value=113, time=50),\n",
       "    Message('control_change', channel=0, control=64, value=106, time=14),\n",
       "    Message('control_change', channel=0, control=64, value=101, time=15),\n",
       "    Message('control_change', channel=0, control=64, value=94, time=15),\n",
       "    Message('control_change', channel=0, control=64, value=87, time=15),\n",
       "    Message('control_change', channel=0, control=64, value=80, time=15),\n",
       "    Message('note_on', channel=0, note=53, velocity=36, time=4),\n",
       "    Message('control_change', channel=0, control=64, value=74, time=11),\n",
       "    Message('note_on', channel=0, note=51, velocity=35, time=2),\n",
       "    Message('note_on', channel=0, note=57, velocity=45, time=6),\n",
       "    Message('note_on', channel=0, note=65, velocity=54, time=1),\n",
       "    Message('control_change', channel=0, control=64, value=70, time=6),\n",
       "    Message('note_on', channel=0, note=60, velocity=44, time=3),\n",
       "    Message('control_change', channel=0, control=64, value=67, time=11),\n",
       "    Message('control_change', channel=0, control=64, value=65, time=15),\n",
       "    Message('control_change', channel=0, control=64, value=64, time=15),\n",
       "    Message('control_change', channel=0, control=64, value=63, time=15),\n",
       "    Message('control_change', channel=0, control=64, value=62, time=15),\n",
       "    Message('control_change', channel=0, control=64, value=61, time=15),\n",
       "    Message('control_change', channel=0, control=64, value=58, time=14),\n",
       "    Message('control_change', channel=0, control=64, value=54, time=15),\n",
       "    Message('control_change', channel=0, control=64, value=44, time=15),\n",
       "    Message('control_change', channel=0, control=64, value=24, time=15),\n",
       "    Message('control_change', channel=0, control=64, value=0, time=15),\n",
       "    Message('control_change', channel=0, control=64, value=34, time=585),\n",
       "    Message('control_change', channel=0, control=64, value=54, time=15),\n",
       "    Message('control_change', channel=0, control=64, value=59, time=15),\n",
       "    Message('control_change', channel=0, control=64, value=61, time=14),\n",
       "    Message('control_change', channel=0, control=64, value=63, time=15),\n",
       "    Message('control_change', channel=0, control=64, value=66, time=15),\n",
       "    Message('control_change', channel=0, control=64, value=74, time=15),\n",
       "    Message('control_change', channel=0, control=64, value=127, time=15),\n",
       "    Message('note_off', channel=0, note=65, velocity=50, time=93),\n",
       "    Message('note_off', channel=0, note=57, velocity=39, time=42),\n",
       "    Message('note_off', channel=0, note=60, velocity=42, time=25),\n",
       "    Message('note_off', channel=0, note=41, velocity=43, time=75),\n",
       "    Message('note_off', channel=0, note=51, velocity=33, time=76),\n",
       "    Message('note_on', channel=0, note=70, velocity=47, time=628),\n",
       "    Message('control_change', channel=0, control=64, value=90, time=2),\n",
       "    Message('note_on', channel=0, note=58, velocity=37, time=1),\n",
       "    Message('note_on', channel=0, note=50, velocity=28, time=1),\n",
       "    Message('note_off', channel=0, note=53, velocity=43, time=12),\n",
       "    Message('control_change', channel=0, control=64, value=70, time=1),\n",
       "    Message('control_change', channel=0, control=64, value=59, time=14),\n",
       "    Message('control_change', channel=0, control=64, value=0, time=15),\n",
       "    Message('control_change', channel=0, control=64, value=20, time=15),\n",
       "    Message('control_change', channel=0, control=64, value=56, time=14),\n",
       "    Message('control_change', channel=0, control=64, value=65, time=15),\n",
       "    Message('control_change', channel=0, control=64, value=72, time=15),\n",
       "    Message('control_change', channel=0, control=64, value=91, time=15),\n",
       "    Message('control_change', channel=0, control=64, value=127, time=15),\n",
       "    Message('note_off', channel=0, note=58, velocity=47, time=34),\n",
       "    Message('note_off', channel=0, note=50, velocity=34, time=162),\n",
       "    Message('note_on', channel=0, note=72, velocity=54, time=89),\n",
       "    Message('note_on', channel=0, note=60, velocity=38, time=16),\n",
       "    Message('note_on', channel=0, note=53, velocity=25, time=17),\n",
       "    Message('note_off', channel=0, note=70, velocity=38, time=17),\n",
       "    Message('note_off', channel=0, note=60, velocity=38, time=85),\n",
       "    Message('control_change', channel=0, control=64, value=95, time=137),\n",
       "    Message('control_change', channel=0, control=64, value=74, time=14),\n",
       "    Message('note_off', channel=0, note=53, velocity=42, time=14),\n",
       "    Message('control_change', channel=0, control=64, value=64, time=1),\n",
       "    Message('note_on', channel=0, note=58, velocity=33, time=14),\n",
       "    Message('control_change', channel=0, control=64, value=48, time=1),\n",
       "    Message('note_on', channel=0, note=46, velocity=32, time=0),\n",
       "    Message('note_on', channel=0, note=74, velocity=61, time=3),\n",
       "    Message('control_change', channel=0, control=64, value=32, time=12),\n",
       "    Message('note_on', channel=0, note=62, velocity=45, time=5),\n",
       "    Message('control_change', channel=0, control=64, value=53, time=10),\n",
       "    Message('control_change', channel=0, control=64, value=63, time=14),\n",
       "    Message('control_change', channel=0, control=64, value=67, time=15),\n",
       "    Message('control_change', channel=0, control=64, value=79, time=15),\n",
       "    Message('note_off', channel=0, note=72, velocity=25, time=11),\n",
       "    Message('control_change', channel=0, control=64, value=127, time=4),\n",
       "    Message('note_off', channel=0, note=46, velocity=55, time=28),\n",
       "    Message('note_off', channel=0, note=62, velocity=40, time=38),\n",
       "    Message('note_off', channel=0, note=58, velocity=61, time=15),\n",
       "    Message('note_off', channel=0, note=74, velocity=62, time=44),\n",
       "    Message('note_on', channel=0, note=77, velocity=75, time=177),\n",
       "    Message('note_on', channel=0, note=65, velocity=60, time=6),\n",
       "    Message('note_on', channel=0, note=62, velocity=36, time=6),\n",
       "    Message('note_off', channel=0, note=65, velocity=53, time=112),\n",
       "    Message('note_off', channel=0, note=62, velocity=50, time=28),\n",
       "    Message('note_off', channel=0, note=77, velocity=52, time=95),\n",
       "    Message('note_on', channel=0, note=79, velocity=89, time=48),\n",
       "    Message('note_on', channel=0, note=63, velocity=52, time=1),\n",
       "    Message('note_on', channel=0, note=67, velocity=71, time=6),\n",
       "    Message('note_off', channel=0, note=67, velocity=60, time=120),\n",
       "    Message('note_off', channel=0, note=63, velocity=61, time=26),\n",
       "    Message('note_off', channel=0, note=79, velocity=59, time=46),\n",
       "    Message('note_on', channel=0, note=77, velocity=80, time=42),\n",
       "    Message('note_on', channel=0, note=62, velocity=56, time=9),\n",
       "    Message('note_on', channel=0, note=65, velocity=64, time=0),\n",
       "    Message('note_off', channel=0, note=65, velocity=69, time=27),\n",
       "    Message('note_off', channel=0, note=62, velocity=64, time=2),\n",
       "    Message('note_off', channel=0, note=77, velocity=64, time=13),\n",
       "    Message('note_on', channel=0, note=74, velocity=84, time=203),\n",
       "    Message('note_on', channel=0, note=58, velocity=54, time=2),\n",
       "    Message('note_on', channel=0, note=46, velocity=55, time=1),\n",
       "    Message('note_on', channel=0, note=62, velocity=75, time=6),\n",
       "    Message('note_off', channel=0, note=62, velocity=66, time=27),\n",
       "    Message('note_off', channel=0, note=74, velocity=65, time=26),\n",
       "    Message('note_off', channel=0, note=58, velocity=61, time=8),\n",
       "    Message('note_off', channel=0, note=46, velocity=53, time=81),\n",
       "    Message('note_on', channel=0, note=70, velocity=85, time=121),\n",
       "    Message('note_on', channel=0, note=50, velocity=54, time=5),\n",
       "    Message('note_on', channel=0, note=58, velocity=74, time=3),\n",
       "    Message('note_on', channel=0, note=53, velocity=39, time=7),\n",
       "    Message('note_off', channel=0, note=58, velocity=68, time=18),\n",
       "    Message('note_off', channel=0, note=50, velocity=64, time=13),\n",
       "    Message('note_off', channel=0, note=53, velocity=55, time=0),\n",
       "    Message('note_off', channel=0, note=70, velocity=65, time=3),\n",
       "    Message('note_on', channel=0, note=41, velocity=74, time=96),\n",
       "    Message('note_on', channel=0, note=51, velocity=67, time=262),\n",
       "    Message('note_on', channel=0, note=53, velocity=59, time=0),\n",
       "    Message('control_change', channel=0, control=64, value=84, time=45),\n",
       "    Message('control_change', channel=0, control=64, value=68, time=15),\n",
       "    Message('note_on', channel=0, note=65, velocity=74, time=3),\n",
       "    Message('control_change', channel=0, control=64, value=57, time=12),\n",
       "    Message('note_on', channel=0, note=57, velocity=66, time=1),\n",
       "    Message('note_on', channel=0, note=60, velocity=64, time=10),\n",
       "    Message('control_change', channel=0, control=64, value=0, time=4),\n",
       "    Message('control_change', channel=0, control=64, value=46, time=134),\n",
       "    Message('control_change', channel=0, control=64, value=63, time=15),\n",
       "    Message('control_change', channel=0, control=64, value=70, time=14),\n",
       "    Message('control_change', channel=0, control=64, value=122, time=15),\n",
       "    Message('control_change', channel=0, control=64, value=127, time=15),\n",
       "    Message('note_off', channel=0, note=41, velocity=38, time=36),\n",
       "    Message('note_on', channel=0, note=43, velocity=65, time=216),\n",
       "    Message('control_change', channel=0, control=64, value=101, time=44),\n",
       "    Message('control_change', channel=0, control=64, value=79, time=15),\n",
       "    Message('control_change', channel=0, control=64, value=67, time=15),\n",
       "    Message('control_change', channel=0, control=64, value=53, time=14),\n",
       "    Message('control_change', channel=0, control=64, value=0, time=15),\n",
       "    Message('control_change', channel=0, control=64, value=37, time=30),\n",
       "    Message('control_change', channel=0, control=64, value=59, time=15),\n",
       "    Message('control_change', channel=0, control=64, value=65, time=14),\n",
       "    Message('control_change', channel=0, control=64, value=74, time=15),\n",
       "    Message('control_change', channel=0, control=64, value=127, time=22),\n",
       "    Message('note_off', channel=0, note=43, velocity=57, time=167),\n",
       "    Message('note_on', channel=0, note=46, velocity=56, time=8),\n",
       "    Message('control_change', channel=0, control=64, value=99, time=4),\n",
       "    Message('control_change', channel=0, control=64, value=69, time=15),\n",
       "    Message('control_change', channel=0, control=64, value=26, time=14),\n",
       "    Message('control_change', channel=0, control=64, value=0, time=15),\n",
       "    Message('control_change', channel=0, control=64, value=65, time=45),\n",
       "    Message('control_change', channel=0, control=64, value=84, time=15),\n",
       "    Message('control_change', channel=0, control=64, value=127, time=15),\n",
       "    Message('control_change', channel=0, control=64, value=101, time=133),\n",
       "    Message('control_change', channel=0, control=64, value=65, time=15),\n",
       "    Message('note_off', channel=0, note=53, velocity=57, time=10),\n",
       "    Message('note_off', channel=0, note=60, velocity=48, time=5),\n",
       "    Message('control_change', channel=0, control=64, value=0, time=0),\n",
       "    Message('note_off', channel=0, note=46, velocity=56, time=4),\n",
       "    Message('note_on', channel=0, note=45, velocity=59, time=5),\n",
       "    Message('control_change', channel=0, control=64, value=22, time=5),\n",
       "    Message('note_off', channel=0, note=57, velocity=61, time=1),\n",
       "    Message('control_change', channel=0, control=64, value=62, time=14),\n",
       "    Message('note_off', channel=0, note=65, velocity=64, time=14),\n",
       "    Message('control_change', channel=0, control=64, value=71, time=1),\n",
       "    Message('control_change', channel=0, control=64, value=119, time=14),\n",
       "    Message('control_change', channel=0, control=64, value=127, time=15),\n",
       "    Message('note_off', channel=0, note=45, velocity=50, time=162),\n",
       "    Message('note_off', channel=0, note=51, velocity=59, time=45),\n",
       "    Message('note_on', channel=0, note=50, velocity=52, time=13),\n",
       "    Message('note_on', channel=0, note=44, velocity=57, time=6),\n",
       "    Message('note_on', channel=0, note=70, velocity=64, time=3),\n",
       "    Message('control_change', channel=0, control=64, value=71, time=1),\n",
       "    Message('note_on', channel=0, note=58, velocity=53, time=10),\n",
       "    Message('control_change', channel=0, control=64, value=57, time=5),\n",
       "    Message('control_change', channel=0, control=64, value=0, time=14),\n",
       "    Message('control_change', channel=0, control=64, value=55, time=45),\n",
       "    Message('control_change', channel=0, control=64, value=65, time=15),\n",
       "    Message('control_change', channel=0, control=64, value=75, time=14),\n",
       "    Message('control_change', channel=0, control=64, value=127, time=15),\n",
       "    Message('note_off', channel=0, note=58, velocity=45, time=17),\n",
       "    Message('note_off', channel=0, note=50, velocity=54, time=101),\n",
       "    Message('note_off', channel=0, note=44, velocity=38, time=16),\n",
       "    Message('note_on', channel=0, note=51, velocity=56, time=45),\n",
       "    Message('note_on', channel=0, note=43, velocity=52, time=0),\n",
       "    Message('note_on', channel=0, note=72, velocity=72, time=0),\n",
       "    Message('control_change', channel=0, control=64, value=78, time=0),\n",
       "    Message('note_on', channel=0, note=60, velocity=53, time=3),\n",
       "    Message('note_off', channel=0, note=70, velocity=57, time=12),\n",
       "    Message('control_change', channel=0, control=64, value=63, time=0),\n",
       "    Message('control_change', channel=0, control=64, value=0, time=15),\n",
       "    Message('control_change', channel=0, control=64, value=62, time=30),\n",
       "    Message('control_change', channel=0, control=64, value=70, time=14),\n",
       "    Message('control_change', channel=0, control=64, value=115, time=15),\n",
       "    Message('note_off', channel=0, note=43, velocity=59, time=2),\n",
       "    Message('note_off', channel=0, note=51, velocity=63, time=9),\n",
       "    Message('control_change', channel=0, control=64, value=127, time=4),\n",
       "    Message('note_off', channel=0, note=60, velocity=38, time=66),\n",
       "    Message('control_change', channel=0, control=64, value=77, time=126),\n",
       "    Message('note_on', channel=0, note=74, velocity=72, time=1),\n",
       "    Message('note_off', channel=0, note=72, velocity=60, time=1),\n",
       "    Message('note_on', channel=0, note=41, velocity=59, time=0),\n",
       "    Message('note_on', channel=0, note=53, velocity=56, time=4),\n",
       "    Message('note_on', channel=0, note=62, velocity=56, time=8),\n",
       "    Message('control_change', channel=0, control=64, value=0, time=1),\n",
       "    Message('control_change', channel=0, control=64, value=66, time=74),\n",
       "    Message('control_change', channel=0, control=64, value=104, time=15),\n",
       "    Message('control_change', channel=0, control=64, value=127, time=15),\n",
       "    Message('note_off', channel=0, note=62, velocity=61, time=48),\n",
       "    Message('note_off', channel=0, note=53, velocity=59, time=2),\n",
       "    Message('note_off', channel=0, note=41, velocity=60, time=63),\n",
       "    Message('note_on', channel=0, note=55, velocity=46, time=103),\n",
       "    Message('note_on', channel=0, note=75, velocity=76, time=5),\n",
       "    Message('note_off', channel=0, note=74, velocity=62, time=6),\n",
       "    Message('note_on', channel=0, note=63, velocity=63, time=1),\n",
       "    Message('note_off', channel=0, note=55, velocity=54, time=17),\n",
       "    Message('note_off', channel=0, note=63, velocity=56, time=65),\n",
       "    Message('note_on', channel=0, note=39, velocity=66, time=31),\n",
       "    Message('note_off', channel=0, note=39, velocity=63, time=59),\n",
       "    Message('note_on', channel=0, note=77, velocity=85, time=88),\n",
       "    Message('note_on', channel=0, note=56, velocity=73, time=10),\n",
       "    Message('note_on', channel=0, note=65, velocity=66, time=1),\n",
       "    Message('note_off', channel=0, note=75, velocity=61, time=15),\n",
       "    Message('note_off', channel=0, note=56, velocity=60, time=24),\n",
       "    Message('note_off', channel=0, note=65, velocity=50, time=51),\n",
       "    Message('note_on', channel=0, note=58, velocity=74, time=106),\n",
       "    Message('note_off', channel=0, note=58, velocity=69, time=23),\n",
       "    Message('note_on', channel=0, note=78, velocity=89, time=50),\n",
       "    Message('note_on', channel=0, note=66, velocity=78, time=9),\n",
       "    Message('note_off', channel=0, note=77, velocity=61, time=12),\n",
       "    Message('control_change', channel=0, control=64, value=81, time=57),\n",
       "    Message('note_on', channel=0, note=38, velocity=79, time=3),\n",
       "    Message('control_change', channel=0, control=64, value=59, time=12),\n",
       "    Message('control_change', channel=0, control=64, value=0, time=15),\n",
       "    Message('control_change', channel=0, control=64, value=51, time=14),\n",
       "    Message('note_off', channel=0, note=38, velocity=62, time=13),\n",
       "    Message('control_change', channel=0, control=64, value=67, time=2),\n",
       "    Message('control_change', channel=0, control=64, value=127, time=15),\n",
       "    Message('note_off', channel=0, note=66, velocity=59, time=44),\n",
       "    Message('note_on', channel=0, note=59, velocity=73, time=70),\n",
       "    Message('note_on', channel=0, note=79, velocity=89, time=18),\n",
       "    Message('note_on', channel=0, note=67, velocity=68, time=13),\n",
       "    Message('note_off', channel=0, note=78, velocity=58, time=25),\n",
       "    Message('note_off', channel=0, note=59, velocity=61, time=90),\n",
       "    Message('note_off', channel=0, note=79, velocity=58, time=3),\n",
       "    Message('note_off', channel=0, note=67, velocity=62, time=18),\n",
       "    Message('note_on', channel=0, note=55, velocity=62, time=15),\n",
       "    Message('note_off', channel=0, note=55, velocity=63, time=28),\n",
       "    Message('note_on', channel=0, note=77, velocity=84, time=66),\n",
       "    Message('note_on', channel=0, note=65, velocity=71, time=4),\n",
       "    Message('control_change', channel=0, control=64, value=69, time=36),\n",
       "    Message('control_change', channel=0, control=64, value=0, time=15),\n",
       "    Message('note_on', channel=0, note=36, velocity=73, time=10),\n",
       "    Message('control_change', channel=0, control=64, value=58, time=34),\n",
       "    Message('control_change', channel=0, control=64, value=81, time=15),\n",
       "    Message('note_off', channel=0, note=36, velocity=63, time=9),\n",
       "    Message('control_change', channel=0, control=64, value=127, time=6),\n",
       "    Message('note_off', channel=0, note=77, velocity=58, time=30),\n",
       "    Message('note_off', channel=0, note=65, velocity=62, time=53),\n",
       "    Message('note_on', channel=0, note=60, velocity=74, time=63),\n",
       "    Message('note_on', channel=0, note=76, velocity=82, time=16),\n",
       "    Message('note_off', channel=0, note=60, velocity=71, time=5),\n",
       "    Message('note_on', channel=0, note=64, velocity=71, time=7),\n",
       "    Message('note_off', channel=0, note=64, velocity=60, time=62),\n",
       "    Message('note_off', channel=0, note=76, velocity=62, time=34),\n",
       "    Message('note_on', channel=0, note=55, velocity=69, time=213),\n",
       "    Message('note_on', channel=0, note=74, velocity=79, time=6),\n",
       "    Message('note_on', channel=0, note=43, velocity=55, time=2),\n",
       "    Message('note_on', channel=0, note=62, velocity=74, time=9),\n",
       "    Message('control_change', channel=0, control=64, value=71, time=10),\n",
       "    Message('control_change', channel=0, control=64, value=36, time=15),\n",
       "    Message('control_change', channel=0, control=64, value=0, time=15),\n",
       "    Message('control_change', channel=0, control=64, value=62, time=44),\n",
       "    Message('control_change', channel=0, control=64, value=71, time=15),\n",
       "    Message('note_off', channel=0, note=62, velocity=60, time=14),\n",
       "    Message('control_change', channel=0, control=64, value=127, time=1),\n",
       "    Message('note_off', channel=0, note=43, velocity=36, time=82),\n",
       "    Message('note_off', channel=0, note=74, velocity=63, time=12),\n",
       "    Message('note_off', channel=0, note=55, velocity=53, time=28),\n",
       "    Message('note_on', channel=0, note=60, velocity=52, time=48),\n",
       "    Message('note_on', channel=0, note=72, velocity=71, time=6),\n",
       "    Message('note_on', channel=0, note=48, velocity=43, time=6),\n",
       "    Message('note_on', channel=0, note=52, velocity=46, time=1),\n",
       "    Message('control_change', channel=0, control=64, value=71, time=10),\n",
       "    Message('control_change', channel=0, control=64, value=42, time=22),\n",
       "    Message('control_change', channel=0, control=64, value=0, time=15),\n",
       "    Message('control_change', channel=0, control=64, value=62, time=44),\n",
       "    Message('control_change', channel=0, control=64, value=75, time=15),\n",
       "    Message('control_change', channel=0, control=64, value=127, time=15),\n",
       "    Message('note_off', channel=0, note=60, velocity=56, time=44),\n",
       "    Message('note_off', channel=0, note=52, velocity=48, time=57),\n",
       "    Message('note_off', channel=0, note=48, velocity=47, time=7),\n",
       "    Message('note_off', channel=0, note=72, velocity=38, time=23),\n",
       "    Message('note_on', channel=0, note=74, velocity=64, time=66),\n",
       "    Message('note_on', channel=0, note=62, velocity=52, time=2),\n",
       "    Message('note_on', channel=0, note=47, velocity=39, time=7),\n",
       "    Message('control_change', channel=0, control=64, value=88, time=1),\n",
       "    Message('note_on', channel=0, note=53, velocity=41, time=4),\n",
       "    Message('control_change', channel=0, control=64, value=68, time=11),\n",
       "    Message('control_change', channel=0, control=64, value=51, time=15),\n",
       "    Message('control_change', channel=0, control=64, value=0, time=14),\n",
       "    Message('control_change', channel=0, control=64, value=24, time=30),\n",
       "    Message('control_change', channel=0, control=64, value=63, time=15),\n",
       "    Message('note_off', channel=0, note=62, velocity=57, time=4),\n",
       "    Message('control_change', channel=0, control=64, value=74, time=12),\n",
       "    Message('control_change', channel=0, control=64, value=127, time=14),\n",
       "    Message('note_off', channel=0, note=53, velocity=53, time=69),\n",
       "    Message('note_off', channel=0, note=74, velocity=58, time=21),\n",
       "    Message('note_on', channel=0, note=60, velocity=56, time=55),\n",
       "    Message('control_change', channel=0, control=64, value=101, time=3),\n",
       "    Message('note_on', channel=0, note=72, velocity=65, time=2),\n",
       "    Message('note_on', channel=0, note=52, velocity=46, time=4),\n",
       "    Message('control_change', channel=0, control=64, value=71, time=9),\n",
       "    Message('note_off', channel=0, note=47, velocity=36, time=1),\n",
       "    Message('note_on', channel=0, note=46, velocity=41, time=7),\n",
       "    Message('control_change', channel=0, control=64, value=61, time=7),\n",
       "    Message('control_change', channel=0, control=64, value=49, time=15),\n",
       "    Message('control_change', channel=0, control=64, value=63, time=15),\n",
       "    Message('control_change', channel=0, control=64, value=70, time=15),\n",
       "    Message('control_change', channel=0, control=64, value=104, time=15),\n",
       "    Message('control_change', channel=0, control=64, value=127, time=14),\n",
       "    Message('note_off', channel=0, note=60, velocity=60, time=58),\n",
       "    Message('note_off', channel=0, note=46, velocity=52, time=40),\n",
       "    Message('note_off', channel=0, note=52, velocity=58, time=34),\n",
       "    Message('note_off', channel=0, note=72, velocity=60, time=10),\n",
       "    Message('control_change', channel=0, control=64, value=98, time=0),\n",
       "    Message('control_change', channel=0, control=64, value=67, time=14),\n",
       "    Message('note_on', channel=0, note=74, velocity=74, time=7),\n",
       "    Message('note_on', channel=0, note=62, velocity=60, time=6),\n",
       "    Message('control_change', channel=0, control=64, value=0, time=2),\n",
       "    Message('note_on', channel=0, note=45, velocity=48, time=3),\n",
       "    Message('note_on', channel=0, note=53, velocity=41, time=5),\n",
       "    Message('control_change', channel=0, control=64, value=64, time=37),\n",
       "    Message('control_change', channel=0, control=64, value=81, time=14),\n",
       "    Message('control_change', channel=0, control=64, value=127, time=15),\n",
       "    Message('note_off', channel=0, note=45, velocity=61, time=6),\n",
       "    Message('note_off', channel=0, note=53, velocity=60, time=36),\n",
       "    Message('note_off', channel=0, note=62, velocity=49, time=47),\n",
       "    Message('note_off', channel=0, note=74, velocity=64, time=30),\n",
       "    Message('note_on', channel=0, note=43, velocity=55, time=55),\n",
       "    Message('control_change', channel=0, control=64, value=72, time=4),\n",
       "    Message('note_on', channel=0, note=76, velocity=75, time=1),\n",
       "    Message('note_on', channel=0, note=55, velocity=56, time=2),\n",
       "    Message('note_on', channel=0, note=64, velocity=70, time=10),\n",
       "    Message('control_change', channel=0, control=64, value=52, time=2),\n",
       "    Message('control_change', channel=0, control=64, value=0, time=15),\n",
       "    Message('control_change', channel=0, control=64, value=58, time=29),\n",
       "    Message('control_change', channel=0, control=64, value=70, time=15),\n",
       "    Message('control_change', channel=0, control=64, value=104, time=15),\n",
       "    Message('control_change', channel=0, control=64, value=127, time=16),\n",
       "    Message('note_off', channel=0, note=64, velocity=60, time=48),\n",
       "    Message('note_off', channel=0, note=43, velocity=59, time=13),\n",
       "    Message('note_off', channel=0, note=55, velocity=56, time=19),\n",
       "    Message('note_off', channel=0, note=76, velocity=65, time=54),\n",
       "    Message('note_on', channel=0, note=77, velocity=86, time=33),\n",
       "    Message('note_on', channel=0, note=57, velocity=65, time=9),\n",
       "    Message('note_on', channel=0, note=65, velocity=68, time=3),\n",
       "    Message('note_off', channel=0, note=57, velocity=67, time=27),\n",
       "    Message('note_off', channel=0, note=65, velocity=63, time=37),\n",
       "    Message('note_on', channel=0, note=41, velocity=68, time=64),\n",
       "    Message('note_off', channel=0, note=41, velocity=64, time=63),\n",
       "    Message('note_on', channel=0, note=58, velocity=73, time=74),\n",
       "    Message('note_on', channel=0, note=78, velocity=91, time=4),\n",
       "    Message('note_on', channel=0, note=66, velocity=80, time=6),\n",
       "    Message('note_off', channel=0, note=77, velocity=61, time=18),\n",
       "    Message('note_off', channel=0, note=58, velocity=61, time=115),\n",
       "    Message('note_off', channel=0, note=66, velocity=61, time=48),\n",
       "    Message('note_on', channel=0, note=59, velocity=66, time=51),\n",
       "    Message('note_off', channel=0, note=59, velocity=65, time=28),\n",
       "    Message('note_on', channel=0, note=79, velocity=95, time=6),\n",
       "    Message('note_on', channel=0, note=67, velocity=78, time=4),\n",
       "    Message('note_off', channel=0, note=78, velocity=61, time=12),\n",
       "    Message('control_change', channel=0, control=64, value=103, time=87),\n",
       "    Message('note_on', channel=0, note=40, velocity=62, time=12),\n",
       "    Message('control_change', channel=0, control=64, value=66, time=3),\n",
       "    Message('control_change', channel=0, control=64, value=60, time=15),\n",
       "    Message('note_off', channel=0, note=67, velocity=53, time=10),\n",
       "    Message('control_change', channel=0, control=64, value=65, time=4),\n",
       "    Message('control_change', channel=0, control=64, value=90, time=15),\n",
       "    Message('control_change', channel=0, control=64, value=127, time=15),\n",
       "    Message('note_off', channel=0, note=40, velocity=62, time=5),\n",
       "    Message('note_on', channel=0, note=60, velocity=65, time=106),\n",
       "    Message('note_on', channel=0, note=81, velocity=91, time=15),\n",
       "    Message('note_on', channel=0, note=69, velocity=65, time=12),\n",
       "    Message('note_off', channel=0, note=79, velocity=61, time=19),\n",
       "    Message('note_off', channel=0, note=69, velocity=40, time=77),\n",
       "    Message('note_off', channel=0, note=81, velocity=57, time=76),\n",
       "    Message('note_on', channel=0, note=58, velocity=52, time=60),\n",
       "    Message('note_off', channel=0, note=60, velocity=61, time=2),\n",
       "    Message('note_off', channel=0, note=58, velocity=65, time=25),\n",
       "    Message('note_on', channel=0, note=79, velocity=86, time=56),\n",
       "    Message('note_on', channel=0, note=67, velocity=62, time=15),\n",
       "    Message('control_change', channel=0, control=64, value=88, time=87),\n",
       "    Message('note_on', channel=0, note=41, velocity=66, time=1),\n",
       "    Message('control_change', channel=0, control=64, value=62, time=13),\n",
       "    Message('control_change', channel=0, control=64, value=0, time=15),\n",
       "    Message('control_change', channel=0, control=64, value=41, time=30),\n",
       "    Message('control_change', channel=0, control=64, value=68, time=15),\n",
       "    Message('control_change', channel=0, control=64, value=99, time=14),\n",
       "    Message('control_change', channel=0, control=64, value=127, time=15),\n",
       "    Message('note_off', channel=0, note=79, velocity=58, time=29),\n",
       "    Message('note_off', channel=0, note=67, velocity=59, time=2),\n",
       "    Message('note_on', channel=0, note=77, velocity=79, time=119),\n",
       "    Message('note_on', channel=0, note=57, velocity=46, time=4),\n",
       "    Message('control_change', channel=0, control=64, value=85, time=10),\n",
       "    Message('note_on', channel=0, note=65, velocity=64, time=5),\n",
       "    Message('control_change', channel=0, control=64, value=64, time=10),\n",
       "    Message('control_change', channel=0, control=64, value=0, time=15),\n",
       "    Message('control_change', channel=0, control=64, value=63, time=52),\n",
       "    Message('control_change', channel=0, control=64, value=73, time=14),\n",
       "    Message('control_change', channel=0, control=64, value=127, time=15),\n",
       "    Message('note_off', channel=0, note=65, velocity=59, time=26),\n",
       "    Message('note_off', channel=0, note=57, velocity=57, time=14),\n",
       "    Message('note_off', channel=0, note=41, velocity=45, time=26),\n",
       "    Message('note_off', channel=0, note=77, velocity=37, time=145),\n",
       "    Message('note_on', channel=0, note=75, velocity=67, time=88),\n",
       "    Message('note_on', channel=0, note=43, velocity=39, time=8),\n",
       "    Message('control_change', channel=0, control=64, value=84, time=4),\n",
       "    Message('note_on', channel=0, note=55, velocity=48, time=4),\n",
       "    Message('note_on', channel=0, note=63, velocity=51, time=1),\n",
       "    Message('control_change', channel=0, control=64, value=67, time=10),\n",
       "    Message('control_change', channel=0, control=64, value=42, time=14),\n",
       "    Message('control_change', channel=0, control=64, value=0, time=15),\n",
       "    Message('control_change', channel=0, control=64, value=50, time=45),\n",
       "    Message('control_change', channel=0, control=64, value=64, time=15),\n",
       "    Message('control_change', channel=0, control=64, value=73, time=15),\n",
       "    Message('note_off', channel=0, note=55, velocity=57, time=2),\n",
       "    Message('control_change', channel=0, control=64, value=127, time=13),\n",
       "    Message('note_off', channel=0, note=63, velocity=58, time=90),\n",
       "    Message('note_off', channel=0, note=75, velocity=59, time=0),\n",
       "    Message('polytouch', channel=0, note=73, value=127, time=17),\n",
       "    Message('note_off', channel=0, note=43, velocity=39, time=82),\n",
       "    Message('control_change', channel=0, control=64, value=94, time=19),\n",
       "    Message('note_on', channel=0, note=74, velocity=60, time=1),\n",
       "    Message('note_on', channel=0, note=62, velocity=51, time=3),\n",
       "    Message('note_on', channel=0, note=44, velocity=43, time=11),\n",
       "    Message('control_change', channel=0, control=64, value=69, time=0),\n",
       "    Message('note_on', channel=0, note=53, velocity=32, time=6),\n",
       "    Message('control_change', channel=0, control=64, value=35, time=9),\n",
       "    Message('control_change', channel=0, control=64, value=0, time=14),\n",
       "    Message('control_change', channel=0, control=64, value=55, time=52),\n",
       "    Message('control_change', channel=0, control=64, value=68, time=15),\n",
       "    Message('control_change', channel=0, control=64, value=86, time=15),\n",
       "    Message('control_change', channel=0, control=64, value=127, time=15),\n",
       "    Message('note_off', channel=0, note=44, velocity=38, time=41),\n",
       "    Message('polytouch', channel=0, note=73, value=0, time=6),\n",
       "    Message('note_off', channel=0, note=62, velocity=51, time=5),\n",
       "    Message('note_off', channel=0, note=74, velocity=38, time=6),\n",
       "    Message('note_off', channel=0, note=53, velocity=43, time=96),\n",
       "    Message('control_change', channel=0, control=64, value=91, time=68),\n",
       "    Message('note_on', channel=0, note=72, velocity=59, time=10),\n",
       "    Message('note_on', channel=0, note=60, velocity=43, time=3),\n",
       "    Message('control_change', channel=0, control=64, value=71, time=2),\n",
       "    Message('note_on', channel=0, note=45, velocity=35, time=1),\n",
       "    Message('note_on', channel=0, note=51, velocity=32, time=2),\n",
       "    Message('control_change', channel=0, control=64, value=61, time=12),\n",
       "    Message('control_change', channel=0, control=64, value=0, time=15),\n",
       "    Message('control_change', channel=0, control=64, value=42, time=59),\n",
       "    Message('control_change', channel=0, control=64, value=59, time=14),\n",
       "    Message('control_change', channel=0, control=64, value=64, time=15),\n",
       "    Message('control_change', channel=0, control=64, value=70, time=15),\n",
       "    Message('control_change', channel=0, control=64, value=96, time=15),\n",
       "    Message('control_change', channel=0, control=64, value=127, time=15),\n",
       "    Message('note_off', channel=0, note=60, velocity=37, time=28),\n",
       "    Message('note_off', channel=0, note=51, velocity=35, time=35),\n",
       "    Message('note_off', channel=0, note=72, velocity=39, time=96),\n",
       "    Message('note_on', channel=0, note=50, velocity=31, time=140),\n",
       "    Message('note_on', channel=0, note=46, velocity=37, time=12),\n",
       "    Message('control_change', channel=0, control=64, value=119, time=23),\n",
       "    Message('note_on', channel=0, note=58, velocity=45, time=3),\n",
       "    Message('note_on', channel=0, note=70, velocity=58, time=0),\n",
       "    Message('control_change', channel=0, control=64, value=84, time=12),\n",
       "    Message('control_change', channel=0, control=64, value=67, time=15),\n",
       "    Message('note_off', channel=0, note=45, velocity=41, time=7),\n",
       "    Message('control_change', channel=0, control=64, value=0, time=7),\n",
       "    Message('control_change', channel=0, control=64, value=54, time=74),\n",
       "    Message('control_change', channel=0, control=64, value=68, time=15),\n",
       "    Message('control_change', channel=0, control=64, value=89, time=15),\n",
       "    Message('control_change', channel=0, control=64, value=127, time=15),\n",
       "    Message('note_off', channel=0, note=58, velocity=54, time=38),\n",
       "    Message('note_off', channel=0, note=50, velocity=60, time=116),\n",
       "    Message('note_on', channel=0, note=53, velocity=34, time=6),\n",
       "    Message('note_off', channel=0, note=53, velocity=52, time=36),\n",
       "    Message('note_on', channel=0, note=72, velocity=72, time=32),\n",
       "    Message('note_on', channel=0, note=60, velocity=56, time=2),\n",
       "    Message('note_off', channel=0, note=46, velocity=62, time=17),\n",
       "    Message('note_off', channel=0, note=70, velocity=58, time=25),\n",
       "    Message('note_off', channel=0, note=60, velocity=38, time=48),\n",
       "    Message('note_on', channel=0, note=34, velocity=65, time=13),\n",
       "    Message('note_off', channel=0, note=34, velocity=64, time=28),\n",
       "    Message('note_off', channel=0, note=72, velocity=28, time=268),\n",
       "    Message('note_on', channel=0, note=58, velocity=71, time=22),\n",
       "    Message('note_on', channel=0, note=74, velocity=79, time=72),\n",
       "    Message('note_on', channel=0, note=62, velocity=65, time=12),\n",
       "    Message('note_off', channel=0, note=58, velocity=39, time=415),\n",
       "    Message('note_on', channel=0, note=57, velocity=38, time=87),\n",
       "    Message('note_on', channel=0, note=72, velocity=52, time=3),\n",
       "    Message('note_off', channel=0, note=62, velocity=6, time=90),\n",
       "    Message('note_off', channel=0, note=57, velocity=34, time=165),\n",
       "    Message('note_on', channel=0, note=55, velocity=41, time=111),\n",
       "    Message('note_on', channel=0, note=70, velocity=54, time=6),\n",
       "    Message('note_off', channel=0, note=55, velocity=36, time=207),\n",
       "    Message('note_off', channel=0, note=72, velocity=27, time=44),\n",
       "    Message('note_on', channel=0, note=69, velocity=63, time=12),\n",
       "    Message('note_on', channel=0, note=53, velocity=44, time=13),\n",
       "    Message('note_off', channel=0, note=70, velocity=55, time=7),\n",
       "    Message('note_off', channel=0, note=74, velocity=24, time=5),\n",
       "    Message('note_off', channel=0, note=69, velocity=66, time=5),\n",
       "    Message('note_off', channel=0, note=53, velocity=53, time=194),\n",
       "    Message('note_on', channel=0, note=46, velocity=58, time=22),\n",
       "    Message('note_on', channel=0, note=51, velocity=57, time=8),\n",
       "    Message('note_on', channel=0, note=75, velocity=86, time=44),\n",
       "    Message('note_on', channel=0, note=67, velocity=57, time=26),\n",
       "    Message('note_off', channel=0, note=67, velocity=36, time=155),\n",
       "    Message('note_off', channel=0, note=51, velocity=43, time=36),\n",
       "    Message('note_off', channel=0, note=46, velocity=60, time=30),\n",
       "    Message('note_on', channel=0, note=50, velocity=49, time=18),\n",
       "    Message('note_off', channel=0, note=75, velocity=55, time=26),\n",
       "    Message('note_off', channel=0, note=50, velocity=63, time=16),\n",
       "    Message('note_on', channel=0, note=77, velocity=89, time=16),\n",
       "    Message('note_on', channel=0, note=65, velocity=61, time=22),\n",
       "    Message('note_off', channel=0, note=65, velocity=66, time=28),\n",
       "    Message('note_on', channel=0, note=34, velocity=67, time=103),\n",
       "    Message('note_off', channel=0, note=77, velocity=41, time=47),\n",
       "    Message('note_off', channel=0, note=34, velocity=61, time=46),\n",
       "    Message('note_on', channel=0, note=63, velocity=66, time=12),\n",
       "    Message('note_off', channel=0, note=63, velocity=55, time=48),\n",
       "    Message('note_on', channel=0, note=48, velocity=59, time=158),\n",
       "    Message('note_on', channel=0, note=79, velocity=87, time=35),\n",
       "    Message('control_change', channel=0, control=64, value=93, time=0),\n",
       "    Message('control_change', channel=0, control=64, value=70, time=15),\n",
       "    Message('control_change', channel=0, control=64, value=63, time=15),\n",
       "    Message('control_change', channel=0, control=64, value=66, time=30),\n",
       "    Message('control_change', channel=0, control=64, value=77, time=15),\n",
       "    Message('control_change', channel=0, control=64, value=127, time=15),\n",
       "    Message('note_off', channel=0, note=79, velocity=52, time=143),\n",
       "    Message('note_on', channel=0, note=50, velocity=31, time=227),\n",
       "    Message('note_on', channel=0, note=65, velocity=42, time=5),\n",
       "    Message('note_off', channel=0, note=65, velocity=58, time=119),\n",
       "    Message('note_off', channel=0, note=48, velocity=12, time=158),\n",
       "    Message('note_off', channel=0, note=50, velocity=39, time=46),\n",
       "    Message('note_on', channel=0, note=51, velocity=43, time=5),\n",
       "    Message('note_on', channel=0, note=67, velocity=46, time=9),\n",
       "    Message('note_off', channel=0, note=67, velocity=52, time=79),\n",
       "    Message('note_off', channel=0, note=51, velocity=43, time=159),\n",
       "    Message('note_on', channel=0, note=53, velocity=46, time=19),\n",
       "    Message('note_on', channel=0, note=77, velocity=69, time=5),\n",
       "    Message('note_on', channel=0, note=69, velocity=50, time=7),\n",
       "    Message('note_on', channel=0, note=46, velocity=59, time=226),\n",
       "    Message('note_on', channel=0, note=55, velocity=58, time=14),\n",
       "    Message('note_off', channel=0, note=53, velocity=60, time=8),\n",
       "    Message('control_change', channel=0, control=64, value=99, time=0),\n",
       "    Message('control_change', channel=0, control=64, value=70, time=15),\n",
       "    Message('note_on', channel=0, note=75, velocity=76, time=5),\n",
       "    Message('control_change', channel=0, control=64, value=54, time=10),\n",
       "    Message('note_on', channel=0, note=70, velocity=50, time=3),\n",
       "    Message('control_change', channel=0, control=64, value=0, time=12),\n",
       "    Message('note_off', channel=0, note=77, velocity=61, time=17),\n",
       "    Message('control_change', channel=0, control=64, value=57, time=12),\n",
       "    Message('note_off', channel=0, note=69, velocity=50, time=3),\n",
       "    Message('control_change', channel=0, control=64, value=67, time=12),\n",
       "    Message('control_change', channel=0, control=64, value=82, time=15),\n",
       "    Message('control_change', channel=0, control=64, value=127, time=15),\n",
       "    Message('note_off', channel=0, note=55, velocity=57, time=92),\n",
       "    Message('note_on', channel=0, note=56, velocity=57, time=9),\n",
       "    Message('note_off', channel=0, note=56, velocity=65, time=26),\n",
       "    Message('note_off', channel=0, note=75, velocity=63, time=2),\n",
       "    Message('note_off', channel=0, note=46, velocity=63, time=26),\n",
       "    Message('note_off', channel=0, note=70, velocity=59, time=11),\n",
       "    Message('note_on', channel=0, note=74, velocity=81, time=3),\n",
       "    Message('note_on', channel=0, note=71, velocity=67, time=12),\n",
       "    Message('note_on', channel=0, note=34, velocity=67, time=71),\n",
       "    Message('note_off', channel=0, note=71, velocity=58, time=1),\n",
       "    Message('note_off', channel=0, note=34, velocity=66, time=34),\n",
       "    Message('note_on', channel=0, note=57, velocity=62, time=200),\n",
       "    Message('note_on', channel=0, note=72, velocity=77, time=34),\n",
       "    Message('control_change', channel=0, control=64, value=87, time=43),\n",
       "    Message('control_change', channel=0, control=64, value=71, time=22),\n",
       "    Message('control_change', channel=0, control=64, value=66, time=15),\n",
       "    Message('control_change', channel=0, control=64, value=70, time=15),\n",
       "    Message('control_change', channel=0, control=64, value=81, time=14),\n",
       "    Message('control_change', channel=0, control=64, value=127, time=15),\n",
       "    Message('note_off', channel=0, note=57, velocity=58, time=215),\n",
       "    Message('note_on', channel=0, note=55, velocity=53, time=20),\n",
       "    Message('note_on', channel=0, note=70, velocity=75, time=16),\n",
       "    Message('note_off', channel=0, note=72, velocity=58, time=32),\n",
       "    Message('note_off', channel=0, note=74, velocity=34, time=58),\n",
       "    Message('note_off', channel=0, note=70, velocity=63, time=61),\n",
       "    Message('note_on', channel=0, note=72, velocity=60, time=40),\n",
       "    Message('note_off', channel=0, note=72, velocity=66, time=35),\n",
       "    Message('note_on', channel=0, note=74, velocity=67, time=15),\n",
       "    Message('note_off', channel=0, note=55, velocity=50, time=31),\n",
       "    Message('control_change', channel=0, control=64, value=80, time=27),\n",
       "    Message('note_on', channel=0, note=53, velocity=52, time=2),\n",
       "    Message('note_on', channel=0, note=72, velocity=79, time=6),\n",
       "    Message('note_on', channel=0, note=69, velocity=56, time=4),\n",
       "    Message('control_change', channel=0, control=64, value=65, time=2),\n",
       "    Message('control_change', channel=0, control=64, value=56, time=15),\n",
       "    Message('note_off', channel=0, note=74, velocity=62, time=5),\n",
       "    Message('control_change', channel=0, control=64, value=55, time=10),\n",
       "    Message('control_change', channel=0, control=64, value=62, time=14),\n",
       "    Message('control_change', channel=0, control=64, value=66, time=15),\n",
       "    Message('control_change', channel=0, control=64, value=74, time=15),\n",
       "    Message('control_change', channel=0, control=64, value=127, time=15),\n",
       "    Message('note_off', channel=0, note=69, velocity=39, time=99),\n",
       "    Message('note_off', channel=0, note=53, velocity=54, time=45),\n",
       "    Message('note_on', channel=0, note=74, velocity=81, time=51),\n",
       "    Message('note_on', channel=0, note=51, velocity=48, time=0),\n",
       "    Message('note_on', channel=0, note=67, velocity=53, time=9),\n",
       "    Message('note_off', channel=0, note=72, velocity=39, time=62),\n",
       "    Message('note_off', channel=0, note=67, velocity=59, time=3),\n",
       "    Message('note_off', channel=0, note=51, velocity=56, time=123),\n",
       "    Message('control_change', channel=0, control=64, value=94, time=46),\n",
       "    Message('note_on', channel=0, note=50, velocity=41, time=13),\n",
       "    Message('control_change', channel=0, control=64, value=76, time=1),\n",
       "    Message('note_on', channel=0, note=46, velocity=40, time=5),\n",
       "    Message('note_off', channel=0, note=74, velocity=66, time=2),\n",
       "    Message('note_on', channel=0, note=75, velocity=80, time=7),\n",
       "    Message('control_change', channel=0, control=64, value=65, time=1),\n",
       "    Message('note_on', channel=0, note=65, velocity=56, time=13),\n",
       "    Message('control_change', channel=0, control=64, value=17, time=2),\n",
       "    Message('control_change', channel=0, control=64, value=0, time=15),\n",
       "    Message('control_change', channel=0, control=64, value=55, time=44),\n",
       "    Message('control_change', channel=0, control=64, value=67, time=15),\n",
       "    Message('control_change', channel=0, control=64, value=79, time=15),\n",
       "    Message('note_off', channel=0, note=65, velocity=63, time=9),\n",
       "    Message('control_change', channel=0, control=64, value=127, time=5),\n",
       "    Message('note_on', channel=0, note=48, velocity=42, time=126),\n",
       "    Message('note_off', channel=0, note=50, velocity=36, time=17),\n",
       "    Message('note_on', channel=0, note=63, velocity=49, time=0),\n",
       "    Message('note_off', channel=0, note=48, velocity=60, time=29),\n",
       "    Message('note_off', channel=0, note=46, velocity=61, time=26),\n",
       "    Message('note_off', channel=0, note=75, velocity=45, time=36),\n",
       "    Message('note_off', channel=0, note=63, velocity=58, time=5),\n",
       "    Message('note_on', channel=0, note=62, velocity=52, time=55),\n",
       "    Message('note_off', channel=0, note=62, velocity=40, time=87),\n",
       "    Message('note_on', channel=0, note=34, velocity=45, time=86),\n",
       "    Message('note_on', channel=0, note=46, velocity=45, time=4),\n",
       "    Message('note_on', channel=0, note=77, velocity=77, time=70),\n",
       "    Message('control_change', channel=0, control=64, value=102, time=16),\n",
       "    Message('control_change', channel=0, control=64, value=75, time=15),\n",
       "    Message('control_change', channel=0, control=64, value=60, time=15),\n",
       "    Message('control_change', channel=0, control=64, value=0, time=15),\n",
       "    Message('control_change', channel=0, control=64, value=65, time=59),\n",
       "    Message('control_change', channel=0, control=64, value=72, time=15),\n",
       "    Message('control_change', channel=0, control=64, value=93, time=14),\n",
       "    Message('control_change', channel=0, control=64, value=127, time=15),\n",
       "    Message('note_off', channel=0, note=34, velocity=42, time=70),\n",
       "    Message('note_off', channel=0, note=46, velocity=59, time=38),\n",
       "    Message('note_on', channel=0, note=48, velocity=35, time=224),\n",
       "    Message('note_on', channel=0, note=63, velocity=40, time=21),\n",
       "    Message('note_off', channel=0, note=63, velocity=51, time=97),\n",
       "    Message('note_on', channel=0, note=65, velocity=44, time=243),\n",
       "    Message('note_on', channel=0, note=50, velocity=32, time=3),\n",
       "    Message('note_off', channel=0, note=48, velocity=39, time=22),\n",
       "    Message('note_off', channel=0, note=77, velocity=41, time=110),\n",
       "    Message('note_off', channel=0, note=65, velocity=39, time=30),\n",
       "    Message('note_off', channel=0, note=50, velocity=32, time=117),\n",
       "    Message('note_on', channel=0, note=51, velocity=44, time=25),\n",
       "    Message('note_on', channel=0, note=75, velocity=64, time=3),\n",
       "    Message('note_on', channel=0, note=67, velocity=47, time=10),\n",
       "    Message('note_off', channel=0, note=75, velocity=59, time=258),\n",
       "    Message('note_on', channel=0, note=46, velocity=40, time=15),\n",
       "    Message('note_off', channel=0, note=51, velocity=37, time=0),\n",
       "    Message('note_on', channel=0, note=52, velocity=39, time=8),\n",
       "    Message('note_on', channel=0, note=74, velocity=64, time=23),\n",
       "    Message('note_on', channel=0, note=68, velocity=57, time=6),\n",
       "    Message('control_change', channel=0, control=64, value=90, time=10),\n",
       "    Message('control_change', channel=0, control=64, value=72, time=14),\n",
       "    Message('note_off', channel=0, note=67, velocity=35, time=9),\n",
       "    Message('control_change', channel=0, control=64, value=62, time=6),\n",
       "    Message('control_change', channel=0, control=64, value=0, time=15),\n",
       "    Message('control_change', channel=0, control=64, value=55, time=44),\n",
       "    Message('control_change', channel=0, control=64, value=64, time=16),\n",
       "    Message('control_change', channel=0, control=64, value=69, time=15),\n",
       "    Message('control_change', channel=0, control=64, value=80, time=15),\n",
       "    Message('control_change', channel=0, control=64, value=127, time=14),\n",
       "    Message('note_on', channel=0, note=53, velocity=44, time=89),\n",
       "    Message('note_off', channel=0, note=52, velocity=38, time=1),\n",
       "    Message('note_off', channel=0, note=74, velocity=39, time=25),\n",
       "    Message('note_off', channel=0, note=53, velocity=61, time=5),\n",
       "    Message('note_off', channel=0, note=68, velocity=40, time=5),\n",
       "    Message('note_on', channel=0, note=72, velocity=69, time=3),\n",
       "    Message('note_off', channel=0, note=46, velocity=59, time=7),\n",
       "    Message('note_on', channel=0, note=69, velocity=51, time=12),\n",
       "    Message('note_off', channel=0, note=69, velocity=64, time=29),\n",
       "    Message('note_on', channel=0, note=34, velocity=60, time=71),\n",
       "    Message('note_off', channel=0, note=34, velocity=63, time=55),\n",
       "    Message('note_on', channel=0, note=55, velocity=60, time=269),\n",
       "    Message('note_on', channel=0, note=70, velocity=61, time=12),\n",
       "    Message('control_change', channel=0, control=64, value=95, time=47),\n",
       "    Message('control_change', channel=0, control=64, value=76, time=15),\n",
       "    Message('control_change', channel=0, control=64, value=68, time=15),\n",
       "    Message('control_change', channel=0, control=64, value=65, time=15),\n",
       "    Message('control_change', channel=0, control=64, value=66, time=14),\n",
       "    Message('control_change', channel=0, control=64, value=70, time=15),\n",
       "    Message('control_change', channel=0, control=64, value=78, time=15),\n",
       "    Message('control_change', channel=0, control=64, value=127, time=14),\n",
       "    Message('control_change', channel=0, control=64, value=88, time=336),\n",
       "    Message('note_on', channel=0, note=53, velocity=49, time=3),\n",
       "    Message('note_on', channel=0, note=69, velocity=56, time=6),\n",
       "    Message('control_change', channel=0, control=64, value=69, time=6),\n",
       "    Message('control_change', channel=0, control=64, value=63, time=15),\n",
       "    Message('note_off', channel=0, note=55, velocity=34, time=10),\n",
       "    Message('control_change', channel=0, control=64, value=62, time=4),\n",
       "    Message('control_change', channel=0, control=64, value=65, time=15),\n",
       "    Message('note_off', channel=0, note=70, velocity=57, time=1),\n",
       "    Message('note_off', channel=0, note=72, velocity=37, time=9),\n",
       "    Message('control_change', channel=0, control=64, value=70, time=5),\n",
       "    Message('control_change', channel=0, control=64, value=81, time=14),\n",
       "    Message('control_change', channel=0, control=64, value=127, time=15),\n",
       "    Message('note_off', channel=0, note=69, velocity=58, time=160),\n",
       "    Message('note_on', channel=0, note=70, velocity=53, time=4),\n",
       "    Message('note_off', channel=0, note=70, velocity=62, time=47),\n",
       "    Message('note_on', channel=0, note=72, velocity=64, time=21),\n",
       "    Message('control_change', channel=0, control=64, value=102, time=50),\n",
       "    Message('note_off', channel=0, note=53, velocity=37, time=10),\n",
       "    Message('control_change', channel=0, control=64, value=77, time=5),\n",
       "    Message('control_change', channel=0, control=64, value=66, time=14),\n",
       "    Message('note_on', channel=0, note=51, velocity=42, time=1),\n",
       "    Message('note_off', channel=0, note=72, velocity=60, time=4),\n",
       "    Message('note_on', channel=0, note=70, velocity=68, time=5),\n",
       "    Message('control_change', channel=0, control=64, value=58, time=5),\n",
       "    Message('note_on', channel=0, note=67, velocity=48, time=3),\n",
       "    Message('control_change', channel=0, control=64, value=64, time=27),\n",
       "    Message('control_change', channel=0, control=64, value=67, time=15),\n",
       "    Message('control_change', channel=0, control=64, value=75, time=15),\n",
       "    Message('control_change', channel=0, control=64, value=103, time=15),\n",
       "    Message('control_change', channel=0, control=64, value=127, time=15),\n",
       "    Message('note_off', channel=0, note=67, velocity=55, time=56),\n",
       "    Message('note_off', channel=0, note=51, velocity=49, time=93),\n",
       "    Message('note_off', channel=0, note=70, velocity=60, time=22),\n",
       "    Message('note_on', channel=0, note=72, velocity=72, time=49),\n",
       "    Message('note_on', channel=0, note=50, velocity=41, time=6),\n",
       "    Message('note_on', channel=0, note=65, velocity=55, time=6),\n",
       "    Message('control_change', channel=0, control=64, value=94, time=12),\n",
       "    Message('control_change', channel=0, control=64, value=78, time=15),\n",
       "    Message('control_change', channel=0, control=64, value=74, time=15),\n",
       "    Message('control_change', channel=0, control=64, value=79, time=15),\n",
       "    Message('control_change', channel=0, control=64, value=95, time=15),\n",
       "    Message('control_change', channel=0, control=64, value=127, time=14),\n",
       "    Message('note_off', channel=0, note=65, velocity=54, time=2),\n",
       "    Message('note_on', channel=0, note=46, velocity=42, time=100),\n",
       "    Message('note_off', channel=0, note=50, velocity=31, time=45),\n",
       "    Message('note_on', channel=0, note=48, velocity=55, time=29),\n",
       "    Message('control_change', channel=0, control=64, value=101, time=2),\n",
       "    Message('note_on', channel=0, note=74, velocity=70, time=13),\n",
       "    Message('control_change', channel=0, control=64, value=70, time=1),\n",
       "    Message('note_on', channel=0, note=63, velocity=56, time=9),\n",
       "    Message('note_off', channel=0, note=46, velocity=54, time=5),\n",
       "    Message('control_change', channel=0, control=64, value=39, time=1),\n",
       "    Message('note_off', channel=0, note=72, velocity=38, time=4),\n",
       "    Message('control_change', channel=0, control=64, value=0, time=11),\n",
       "    Message('control_change', channel=0, control=64, value=63, time=59),\n",
       "    Message('control_change', channel=0, control=64, value=72, time=15),\n",
       "    Message('control_change', channel=0, control=64, value=97, time=15),\n",
       "    Message('control_change', channel=0, control=64, value=127, time=15),\n",
       "    Message('note_off', channel=0, note=63, velocity=57, time=71),\n",
       "    Message('note_on', channel=0, note=46, velocity=45, time=69),\n",
       "    Message('note_off', channel=0, note=48, velocity=58, time=7),\n",
       "    Message('note_on', channel=0, note=62, velocity=49, time=17),\n",
       "    Message('note_off', channel=0, note=46, velocity=63, time=13),\n",
       "    Message('note_off', channel=0, note=62, velocity=60, time=29),\n",
       "    Message('note_off', channel=0, note=74, velocity=36, time=1),\n",
       "    Message('note_on', channel=0, note=60, velocity=52, time=141),\n",
       "    Message('note_on', channel=0, note=45, velocity=51, time=198),\n",
       "    Message('note_on', channel=0, note=34, velocity=47, time=16),\n",
       "    Message('polytouch', channel=0, note=62, value=127, time=37),\n",
       "    Message('control_change', channel=0, control=64, value=93, time=17),\n",
       "    Message('control_change', channel=0, control=64, value=73, time=15),\n",
       "    Message('note_on', channel=0, note=75, velocity=63, time=13),\n",
       "    Message('control_change', channel=0, control=64, value=60, time=1),\n",
       "    Message('control_change', channel=0, control=64, value=0, time=15),\n",
       "    Message('control_change', channel=0, control=64, value=53, time=59),\n",
       "    Message('control_change', channel=0, control=64, value=68, time=15),\n",
       "    Message('control_change', channel=0, control=64, value=90, time=15),\n",
       "    Message('control_change', channel=0, control=64, value=127, time=14),\n",
       "    Message('note_off', channel=0, note=34, velocity=37, time=27),\n",
       "    Message('note_off', channel=0, note=60, velocity=42, time=116),\n",
       "    Message('polytouch', channel=0, note=62, value=0, time=5),\n",
       "    Message('note_off', channel=0, note=75, velocity=38, time=119),\n",
       "    Message('note_on', channel=0, note=46, velocity=38, time=161),\n",
       "    Message('note_on', channel=0, note=74, velocity=56, time=4),\n",
       "    Message('note_on', channel=0, note=62, velocity=45, time=12),\n",
       "    Message('control_change', channel=0, control=64, value=102, time=24),\n",
       "    Message('control_change', channel=0, control=64, value=74, time=15),\n",
       "    Message('note_off', channel=0, note=45, velocity=40, time=5),\n",
       "    Message('control_change', channel=0, control=64, value=64, time=10),\n",
       "    Message('control_change', channel=0, control=64, value=53, time=14),\n",
       "    Message('control_change', channel=0, control=64, value=59, time=15),\n",
       "    Message('control_change', channel=0, control=64, value=64, time=15),\n",
       "    Message('control_change', channel=0, control=64, value=69, time=14),\n",
       "    Message('note_off', channel=0, note=62, velocity=60, time=14),\n",
       "    Message('control_change', channel=0, control=64, value=80, time=1),\n",
       "    Message('control_change', channel=0, control=64, value=127, time=15),\n",
       "    Message('note_off', channel=0, note=74, velocity=48, time=74),\n",
       "    Message('control_change', channel=0, control=64, value=97, time=133),\n",
       "    Message('note_on', channel=0, note=72, velocity=59, time=1),\n",
       "    Message('note_on', channel=0, note=63, velocity=40, time=13),\n",
       "    Message('control_change', channel=0, control=64, value=70, time=1),\n",
       "    Message('note_on', channel=0, note=48, velocity=31, time=5),\n",
       "    Message('control_change', channel=0, control=64, value=62, time=10),\n",
       "    Message('control_change', channel=0, control=64, value=41, time=15),\n",
       "    Message('control_change', channel=0, control=64, value=50, time=14),\n",
       "    Message('control_change', channel=0, control=64, value=63, time=15),\n",
       "    Message('control_change', channel=0, control=64, value=67, time=15),\n",
       "    Message('control_change', channel=0, control=64, value=77, time=15),\n",
       "    Message('control_change', channel=0, control=64, value=127, time=15),\n",
       "    Message('note_off', channel=0, note=63, velocity=60, time=74),\n",
       "    Message('note_off', channel=0, note=48, velocity=58, time=31),\n",
       "    Message('note_off', channel=0, note=72, velocity=54, time=3),\n",
       "    Message('control_change', channel=0, control=64, value=91, time=49),\n",
       "    Message('control_change', channel=0, control=64, value=68, time=15),\n",
       "    Message('control_change', channel=0, control=64, value=52, time=15),\n",
       "    Message('note_on', channel=0, note=70, velocity=59, time=4),\n",
       "    Message('note_on', channel=0, note=49, velocity=37, time=4),\n",
       "    Message('note_on', channel=0, note=64, velocity=45, time=2),\n",
       "    Message('control_change', channel=0, control=64, value=0, time=5),\n",
       "    Message('control_change', channel=0, control=64, value=53, time=29),\n",
       "    Message('control_change', channel=0, control=64, value=63, time=15),\n",
       "    Message('control_change', channel=0, control=64, value=66, time=15),\n",
       "    Message('control_change', channel=0, control=64, value=75, time=14),\n",
       "    Message('control_change', channel=0, control=64, value=127, time=15),\n",
       "    Message('note_off', channel=0, note=64, velocity=57, time=41),\n",
       "    Message('note_off', channel=0, note=70, velocity=59, time=41),\n",
       "    Message('note_off', channel=0, note=46, velocity=43, time=29),\n",
       "    Message('note_off', channel=0, note=49, velocity=38, time=15),\n",
       "    Message('note_on', channel=0, note=50, velocity=44, time=36),\n",
       "    Message('note_on', channel=0, note=65, velocity=54, time=13),\n",
       "    Message('note_on', channel=0, note=69, velocity=60, time=2),\n",
       "    Message('control_change', channel=0, control=64, value=96, time=1),\n",
       "    Message('control_change', channel=0, control=64, value=68, time=15),\n",
       "    Message('control_change', channel=0, control=64, value=17, time=15),\n",
       "    Message('control_change', channel=0, control=64, value=0, time=15),\n",
       "    Message('control_change', channel=0, control=64, value=63, time=44),\n",
       "    Message('control_change', channel=0, control=64, value=71, time=15),\n",
       "    Message('control_change', channel=0, control=64, value=100, time=15),\n",
       "    Message('note_off', channel=0, note=69, velocity=63, time=5),\n",
       "    Message('control_change', channel=0, control=64, value=127, time=9),\n",
       "    Message('note_off', channel=0, note=65, velocity=59, time=73),\n",
       "    Message('note_off', channel=0, note=50, velocity=61, time=43),\n",
       "    Message('control_change', channel=0, control=64, value=96, time=3),\n",
       "    Message('note_on', channel=0, note=67, velocity=66, time=5),\n",
       "    Message('note_on', channel=0, note=51, velocity=43, time=10),\n",
       "    Message('control_change', channel=0, control=64, value=69, time=0),\n",
       "    Message('note_on', channel=0, note=63, velocity=51, time=2),\n",
       "    Message('control_change', channel=0, control=64, value=46, time=12),\n",
       "    Message('control_change', channel=0, control=64, value=0, time=15),\n",
       "    Message('control_change', channel=0, control=64, value=46, time=44),\n",
       "    Message('control_change', channel=0, control=64, value=66, time=15),\n",
       "    Message('control_change', channel=0, control=64, value=80, time=24),\n",
       "    Message('control_change', channel=0, control=64, value=127, time=15),\n",
       "    Message('note_off', channel=0, note=67, velocity=62, time=16),\n",
       "    Message('note_off', channel=0, note=51, velocity=48, time=73),\n",
       "    Message('note_off', channel=0, note=63, velocity=59, time=35),\n",
       "    Message('control_change', channel=0, control=64, value=80, time=9),\n",
       "    Message('note_on', channel=0, note=53, velocity=40, time=8),\n",
       "    Message('control_change', channel=0, control=64, value=64, time=7),\n",
       "    Message('note_on', channel=0, note=65, velocity=52, time=1),\n",
       "    Message('note_on', channel=0, note=62, velocity=42, time=5),\n",
       "    Message('control_change', channel=0, control=64, value=0, time=8),\n",
       "    Message('control_change', channel=0, control=64, value=43, time=74),\n",
       "    Message('control_change', channel=0, control=64, value=66, time=15),\n",
       "    Message('control_change', channel=0, control=64, value=83, time=15),\n",
       "    Message('control_change', channel=0, control=64, value=127, time=15),\n",
       "    Message('note_off', channel=0, note=62, velocity=51, time=41),\n",
       "    Message('note_off', channel=0, note=53, velocity=56, time=28),\n",
       "    Message('note_off', channel=0, note=65, velocity=56, time=15),\n",
       "    Message('control_change', channel=0, control=64, value=93, time=64),\n",
       "    Message('control_change', channel=0, control=64, value=73, time=15),\n",
       "    Message('control_change', channel=0, control=64, value=62, time=15),\n",
       "    Message('note_on', channel=0, note=55, velocity=36, time=10),\n",
       "    Message('control_change', channel=0, control=64, value=0, time=5),\n",
       "    Message('note_on', channel=0, note=63, velocity=41, time=1),\n",
       "    Message('note_on', channel=0, note=60, velocity=31, time=19),\n",
       "    Message('control_change', channel=0, control=64, value=62, time=53),\n",
       "    Message('control_change', channel=0, control=64, value=69, time=15),\n",
       "    Message('control_change', channel=0, control=64, value=90, time=15),\n",
       "    Message('control_change', channel=0, control=64, value=127, time=15),\n",
       "    Message('note_off', channel=0, note=55, velocity=59, time=3),\n",
       "    Message('note_off', channel=0, note=60, velocity=58, time=15),\n",
       "    Message('note_off', channel=0, note=63, velocity=51, time=48),\n",
       "    Message('control_change', channel=0, control=64, value=93, time=134),\n",
       "    Message('note_on', channel=0, note=57, velocity=54, time=6),\n",
       "    Message('control_change', channel=0, control=64, value=70, time=9),\n",
       "    Message('control_change', channel=0, control=64, value=44, time=15),\n",
       "    Message('control_change', channel=0, control=64, value=0, time=15),\n",
       "    Message('note_off', channel=0, note=57, velocity=63, time=6),\n",
       "    Message('note_on', channel=0, note=62, velocity=46, time=78),\n",
       "    Message('note_on', channel=0, note=58, velocity=39, time=13),\n",
       "    Message('control_change', channel=0, control=64, value=54, time=37),\n",
       "    Message('control_change', channel=0, control=64, value=63, time=14),\n",
       "    Message('control_change', channel=0, control=64, value=66, time=15),\n",
       "    Message('control_change', channel=0, control=64, value=70, time=15),\n",
       "    Message('control_change', channel=0, control=64, value=81, time=15),\n",
       "    Message('control_change', channel=0, control=64, value=127, time=15),\n",
       "    Message('note_off', channel=0, note=58, velocity=36, time=195),\n",
       "    Message('note_off', channel=0, note=62, velocity=38, time=74),\n",
       "    Message('note_on', channel=0, note=60, velocity=48, time=149),\n",
       "    Message('note_on', channel=0, note=57, velocity=32, time=18),\n",
       "    Message('control_change', channel=0, control=64, value=87, time=15),\n",
       "    Message('control_change', channel=0, control=64, value=68, time=15),\n",
       "    Message('control_change', channel=0, control=64, value=56, time=15),\n",
       "    Message('control_change', channel=0, control=64, value=0, time=15),\n",
       "    Message('control_change', channel=0, control=64, value=56, time=29),\n",
       "    Message('control_change', channel=0, control=64, value=65, time=16),\n",
       "    Message('control_change', channel=0, control=64, value=71, time=15),\n",
       "    Message('control_change', channel=0, control=64, value=104, time=14),\n",
       "    Message('control_change', channel=0, control=64, value=127, time=15),\n",
       "    Message('note_off', channel=0, note=57, velocity=38, time=87),\n",
       "    Message('note_off', channel=0, note=60, velocity=56, time=11),\n",
       "    Message('note_on', channel=0, note=58, velocity=54, time=116),\n",
       "    Message('control_change', channel=0, control=64, value=75, time=9),\n",
       "    Message('control_change', channel=0, control=64, value=62, time=15),\n",
       "    Message('note_on', channel=0, note=55, velocity=29, time=6),\n",
       "    Message('control_change', channel=0, control=64, value=20, time=8),\n",
       "    Message('control_change', channel=0, control=64, value=26, time=15),\n",
       "    Message('control_change', channel=0, control=64, value=61, time=15),\n",
       "    Message('control_change', channel=0, control=64, value=67, time=14),\n",
       "    Message('control_change', channel=0, control=64, value=80, time=15),\n",
       "    Message('control_change', channel=0, control=64, value=127, time=15),\n",
       "    Message('note_off', channel=0, note=55, velocity=45, time=26),\n",
       "    Message('note_off', channel=0, note=58, velocity=34, time=57),\n",
       "    Message('control_change', channel=0, control=64, value=113, time=80),\n",
       "    Message('note_on', channel=0, note=62, velocity=60, time=9),\n",
       "    Message('note_on', channel=0, note=57, velocity=58, time=6),\n",
       "    Message('control_change', channel=0, control=64, value=74, time=0),\n",
       "    Message('note_on', channel=0, note=53, velocity=47, time=7),\n",
       "    Message('control_change', channel=0, control=64, value=62, time=8),\n",
       "    Message('control_change', channel=0, control=64, value=0, time=15),\n",
       "    Message('control_change', channel=0, control=64, value=26, time=29),\n",
       "    Message('note_off', channel=0, note=57, velocity=62, time=1),\n",
       "    Message('control_change', channel=0, control=64, value=61, time=14),\n",
       "    Message('control_change', channel=0, control=64, value=68, time=22),\n",
       "    Message('control_change', channel=0, control=64, value=83, time=15),\n",
       "    Message('control_change', channel=0, control=64, value=127, time=15),\n",
       "    Message('note_off', channel=0, note=62, velocity=60, time=73),\n",
       "    Message('note_off', channel=0, note=53, velocity=55, time=13),\n",
       "    Message('control_change', channel=0, control=64, value=82, time=48),\n",
       "    Message('control_change', channel=0, control=64, value=66, time=15),\n",
       "    Message('note_on', channel=0, note=63, velocity=61, time=2),\n",
       "    Message('note_on', channel=0, note=55, velocity=60, time=10),\n",
       "    Message('control_change', channel=0, control=64, value=0, time=3),\n",
       "    Message('note_on', channel=0, note=51, velocity=18, time=17),\n",
       "    Message('note_off', channel=0, note=51, velocity=52, time=46),\n",
       "    Message('control_change', channel=0, control=64, value=63, time=11),\n",
       "    Message('control_change', channel=0, control=64, value=75, time=14),\n",
       "    Message('control_change', channel=0, control=64, value=127, time=15),\n",
       "    Message('note_off', channel=0, note=63, velocity=61, time=46),\n",
       "    Message('note_off', channel=0, note=55, velocity=52, time=12),\n",
       "    Message('control_change', channel=0, control=64, value=83, time=61),\n",
       "    Message('note_on', channel=0, note=65, velocity=64, time=6),\n",
       "    Message('control_change', channel=0, control=64, value=66, time=9),\n",
       "    Message('note_on', channel=0, note=53, velocity=46, time=6),\n",
       "    Message('note_on', channel=0, note=50, velocity=40, time=3),\n",
       "    Message('control_change', channel=0, control=64, value=0, time=6),\n",
       "    Message('control_change', channel=0, control=64, value=44, time=59),\n",
       "    Message('control_change', channel=0, control=64, value=65, time=14),\n",
       "    Message('control_change', channel=0, control=64, value=76, time=15),\n",
       "    Message('control_change', channel=0, control=64, value=127, time=15),\n",
       "    Message('note_off', channel=0, note=50, velocity=29, time=53),\n",
       "    Message('note_off', channel=0, note=53, velocity=38, time=45),\n",
       "    Message('note_off', channel=0, note=65, velocity=65, time=247),\n",
       "    Message('note_on', channel=0, note=66, velocity=64, time=11),\n",
       "    Message('note_on', channel=0, note=58, velocity=48, time=5),\n",
       "    Message('control_change', channel=0, control=64, value=107, time=2),\n",
       "    Message('note_on', channel=0, note=51, velocity=52, time=8),\n",
       "    Message('control_change', channel=0, control=64, value=96, time=6),\n",
       "    Message('note_on', channel=0, note=48, velocity=38, time=3),\n",
       "    Message('control_change', channel=0, control=64, value=91, time=13),\n",
       "    Message('control_change', channel=0, control=64, value=88, time=15),\n",
       "    Message('control_change', channel=0, control=64, value=83, time=15),\n",
       "    Message('control_change', channel=0, control=64, value=77, time=15),\n",
       "    Message('control_change', channel=0, control=64, value=71, time=15),\n",
       "    Message('control_change', channel=0, control=64, value=66, time=14),\n",
       "    Message('control_change', channel=0, control=64, value=63, time=15),\n",
       "    Message('control_change', channel=0, control=64, value=61, time=15),\n",
       "    Message('control_change', channel=0, control=64, value=59, time=15),\n",
       "    Message('control_change', channel=0, control=64, value=57, time=15),\n",
       "    Message('control_change', channel=0, control=64, value=52, time=15),\n",
       "    Message('control_change', channel=0, control=64, value=31, time=14),\n",
       "    Message('control_change', channel=0, control=64, value=0, time=15),\n",
       "    Message('control_change', channel=0, control=64, value=50, time=631),\n",
       "    Message('control_change', channel=0, control=64, value=61, time=14),\n",
       "    Message('control_change', channel=0, control=64, value=63, time=15),\n",
       "    Message('control_change', channel=0, control=64, value=64, time=15),\n",
       "    Message('control_change', channel=0, control=64, value=65, time=15),\n",
       "    Message('control_change', channel=0, control=64, value=68, time=15),\n",
       "    Message('control_change', channel=0, control=64, value=76, time=14),\n",
       "    Message('control_change', channel=0, control=64, value=95, time=15),\n",
       "    Message('control_change', channel=0, control=64, value=127, time=15),\n",
       "    Message('note_off', channel=0, note=66, velocity=34, time=146),\n",
       "    Message('note_off', channel=0, note=58, velocity=39, time=40),\n",
       "    Message('note_on', channel=0, note=65, velocity=41, time=902),\n",
       "    Message('note_on', channel=0, note=57, velocity=34, time=12),\n",
       "    Message('control_change', channel=0, control=64, value=102, time=26),\n",
       "    Message('control_change', channel=0, control=64, value=90, time=15),\n",
       "    Message('control_change', channel=0, control=64, value=81, time=15),\n",
       "    Message('control_change', channel=0, control=64, value=74, time=15),\n",
       "    Message('control_change', channel=0, control=64, value=69, time=15),\n",
       "    Message('control_change', channel=0, control=64, value=64, time=15),\n",
       "    Message('control_change', channel=0, control=64, value=54, time=14),\n",
       "    Message('control_change', channel=0, control=64, value=0, time=15),\n",
       "    Message('control_change', channel=0, control=64, value=29, time=104),\n",
       "    Message('control_change', channel=0, control=64, value=61, time=15),\n",
       "    Message('control_change', channel=0, control=64, value=66, time=15),\n",
       "    Message('control_change', channel=0, control=64, value=72, time=15),\n",
       "    Message('control_change', channel=0, control=64, value=87, time=15),\n",
       "    Message('control_change', channel=0, control=64, value=127, time=14),\n",
       "    Message('note_off', channel=0, note=65, velocity=39, time=59),\n",
       "    Message('note_off', channel=0, note=57, velocity=38, time=41),\n",
       "    Message('note_off', channel=0, note=48, velocity=39, time=100),\n",
       "    Message('note_off', channel=0, note=51, velocity=43, time=19),\n",
       "    Message('note_on', channel=0, note=34, velocity=40, time=536),\n",
       "    Message('control_change', channel=0, control=64, value=97, time=8),\n",
       "    Message('control_change', channel=0, control=64, value=76, time=15),\n",
       "    Message('control_change', channel=0, control=64, value=65, time=14),\n",
       "    Message('control_change', channel=0, control=64, value=57, time=15),\n",
       "    Message('control_change', channel=0, control=64, value=53, time=15),\n",
       "    Message('control_change', channel=0, control=64, value=61, time=15),\n",
       "    Message('control_change', channel=0, control=64, value=64, time=15),\n",
       "    Message('control_change', channel=0, control=64, value=68, time=16),\n",
       "    Message('control_change', channel=0, control=64, value=74, time=14),\n",
       "    Message('control_change', channel=0, control=64, value=96, time=15),\n",
       "    Message('control_change', channel=0, control=64, value=127, time=15),\n",
       "    Message('note_off', channel=0, note=34, velocity=41, time=31),\n",
       "    Message('note_on', channel=0, note=58, velocity=30, time=509),\n",
       "    Message('note_on', channel=0, note=65, velocity=33, time=7),\n",
       "    Message('note_on', channel=0, note=50, velocity=30, time=11),\n",
       "    Message('note_on', channel=0, note=53, velocity=30, time=5),\n",
       "    Message('note_off', channel=0, note=58, velocity=17, time=1924),\n",
       "    Message('note_off', channel=0, note=50, velocity=30, time=281),\n",
       "    Message('note_off', channel=0, note=53, velocity=9, time=4),\n",
       "    Message('note_off', channel=0, note=65, velocity=22, time=125),\n",
       "    Message('control_change', channel=0, control=64, value=116, time=200),\n",
       "    Message('control_change', channel=0, control=64, value=107, time=15),\n",
       "    Message('control_change', channel=0, control=64, value=105, time=15),\n",
       "    Message('control_change', channel=0, control=64, value=103, time=16),\n",
       "    Message('control_change', channel=0, control=64, value=99, time=15),\n",
       "    Message('control_change', channel=0, control=64, value=94, time=15),\n",
       "    Message('control_change', channel=0, control=64, value=88, time=14),\n",
       "    Message('control_change', channel=0, control=64, value=85, time=15),\n",
       "    Message('control_change', channel=0, control=64, value=83, time=15),\n",
       "    Message('control_change', channel=0, control=64, value=82, time=15),\n",
       "    Message('control_change', channel=0, control=64, value=81, time=15),\n",
       "    Message('control_change', channel=0, control=64, value=80, time=14),\n",
       "    Message('control_change', channel=0, control=64, value=78, time=15),\n",
       "    Message('control_change', channel=0, control=64, value=76, time=22),\n",
       "    Message('control_change', channel=0, control=64, value=75, time=16),\n",
       "    Message('control_change', channel=0, control=64, value=74, time=14),\n",
       "    Message('control_change', channel=0, control=64, value=73, time=15),\n",
       "    Message('control_change', channel=0, control=64, value=72, time=15),\n",
       "    Message('control_change', channel=0, control=64, value=71, time=15),\n",
       "    Message('control_change', channel=0, control=64, value=70, time=15),\n",
       "    Message('control_change', channel=0, control=64, value=69, time=15),\n",
       "    Message('control_change', channel=0, control=64, value=69, time=15),\n",
       "    Message('control_change', channel=0, control=64, value=68, time=14),\n",
       "    Message('control_change', channel=0, control=64, value=67, time=45),\n",
       "    Message('control_change', channel=0, control=64, value=67, time=15),\n",
       "    Message('control_change', channel=0, control=64, value=66, time=15),\n",
       "    Message('control_change', channel=0, control=64, value=66, time=59),\n",
       "    Message('control_change', channel=0, control=64, value=65, time=15),\n",
       "    Message('control_change', channel=0, control=64, value=65, time=14),\n",
       "    Message('control_change', channel=0, control=64, value=64, time=60),\n",
       "    Message('control_change', channel=0, control=64, value=64, time=29),\n",
       "    Message('control_change', channel=0, control=64, value=63, time=15),\n",
       "    Message('control_change', channel=0, control=64, value=63, time=15),\n",
       "    Message('control_change', channel=0, control=64, value=62, time=59),\n",
       "    Message('control_change', channel=0, control=64, value=62, time=29),\n",
       "    Message('control_change', channel=0, control=64, value=61, time=15),\n",
       "    Message('control_change', channel=0, control=64, value=60, time=15),\n",
       "    Message('control_change', channel=0, control=64, value=59, time=15),\n",
       "    Message('control_change', channel=0, control=64, value=59, time=15),\n",
       "    Message('control_change', channel=0, control=64, value=58, time=44),\n",
       "    Message('control_change', channel=0, control=64, value=59, time=60),\n",
       "    Message('control_change', channel=0, control=64, value=58, time=97),\n",
       "    Message('control_change', channel=0, control=64, value=56, time=15),\n",
       "    Message('control_change', channel=0, control=64, value=49, time=14),\n",
       "    Message('control_change', channel=0, control=64, value=36, time=15),\n",
       "    Message('control_change', channel=0, control=64, value=20, time=15),\n",
       "    Message('control_change', channel=0, control=64, value=0, time=15),\n",
       "    Message('control_change', channel=0, control=64, value=36, time=400),\n",
       "    Message('control_change', channel=0, control=64, value=79, time=14),\n",
       "    Message('control_change', channel=0, control=64, value=127, time=15),\n",
       "    Message('note_on', channel=0, note=77, velocity=82, time=15),\n",
       "    Message('note_on', channel=0, note=69, velocity=65, time=10),\n",
       "    Message('note_on', channel=0, note=72, velocity=76, time=2),\n",
       "    Message('note_on', channel=0, note=65, velocity=69, time=88),\n",
       "    Message('note_off', channel=0, note=69, velocity=60, time=12),\n",
       "    Message('note_off', channel=0, note=77, velocity=56, time=70),\n",
       "    Message('note_off', channel=0, note=65, velocity=62, time=9),\n",
       "    Message('note_on', channel=0, note=74, velocity=79, time=26),\n",
       "    Message('note_on', channel=0, note=70, velocity=68, time=4),\n",
       "    Message('note_off', channel=0, note=72, velocity=64, time=0),\n",
       "    Message('note_off', channel=0, note=70, velocity=67, time=25),\n",
       "    Message('note_off', channel=0, note=74, velocity=60, time=12),\n",
       "    Message('control_change', channel=0, control=64, value=66, time=2),\n",
       "    Message('control_change', channel=0, control=64, value=0, time=15),\n",
       "    Message('note_on', channel=0, note=62, velocity=67, time=29),\n",
       "    Message('note_off', channel=0, note=62, velocity=63, time=40),\n",
       "    Message('note_on', channel=0, note=67, velocity=74, time=59),\n",
       "    Message('note_on', channel=0, note=74, velocity=77, time=8),\n",
       "    Message('note_on', channel=0, note=70, velocity=62, time=8),\n",
       "    Message('note_off', channel=0, note=67, velocity=67, time=12),\n",
       "    Message('control_change', channel=0, control=64, value=63, time=7),\n",
       "    Message('control_change', channel=0, control=64, value=64, time=15),\n",
       "    Message('control_change', channel=0, control=64, value=62, time=14),\n",
       "    Message('control_change', channel=0, control=64, value=58, time=15),\n",
       "    Message('note_on', channel=0, note=65, velocity=77, time=8),\n",
       "    Message('control_change', channel=0, control=64, value=46, time=7),\n",
       "    Message('control_change', channel=0, control=64, value=0, time=15),\n",
       "    Message('note_off', channel=0, note=65, velocity=64, time=12),\n",
       "    Message('note_off', channel=0, note=70, velocity=63, time=26),\n",
       "    Message('note_off', channel=0, note=74, velocity=63, time=7),\n",
       "    Message('note_on', channel=0, note=72, velocity=77, time=29),\n",
       "    Message('note_on', channel=0, note=64, velocity=73, time=0),\n",
       "    Message('note_off', channel=0, note=72, velocity=65, time=27),\n",
       "    Message('note_off', channel=0, note=64, velocity=63, time=9),\n",
       "    Message('note_on', channel=0, note=60, velocity=72, time=48),\n",
       "    Message('note_off', channel=0, note=60, velocity=63, time=31),\n",
       "    Message('note_on', channel=0, note=65, velocity=79, time=58),\n",
       "    Message('note_on', channel=0, note=72, velocity=81, time=24),\n",
       "    Message('note_on', channel=0, note=69, velocity=71, time=4),\n",
       "    Message('control_change', channel=0, control=64, value=55, time=6),\n",
       "    Message('note_off', channel=0, note=65, velocity=64, time=3),\n",
       "    Message('control_change', channel=0, control=64, value=127, time=12),\n",
       "    Message('note_on', channel=0, note=57, velocity=78, time=56),\n",
       "    Message('note_off', channel=0, note=57, velocity=65, time=43),\n",
       "    Message('note_off', channel=0, note=69, velocity=61, time=22),\n",
       "    Message('control_change', channel=0, control=64, value=80, time=12),\n",
       "    Message('control_change', channel=0, control=64, value=0, time=24),\n",
       "    Message('note_on', channel=0, note=62, velocity=80, time=3),\n",
       "    Message('note_off', channel=0, note=72, velocity=61, time=9),\n",
       "    Message('note_on', channel=0, note=70, velocity=79, time=9),\n",
       "    Message('note_on', channel=0, note=65, velocity=73, time=0),\n",
       "    Message('note_off', channel=0, note=62, velocity=56, time=25),\n",
       "    Message('note_on', channel=0, note=55, velocity=84, time=45),\n",
       "    Message('note_off', channel=0, note=65, velocity=40, time=27),\n",
       "    Message('note_off', channel=0, note=55, velocity=64, time=9),\n",
       "    Message('note_off', channel=0, note=70, velocity=62, time=49),\n",
       "    Message('note_on', channel=0, note=60, velocity=73, time=21),\n",
       "    Message('note_on', channel=0, note=67, velocity=82, time=18),\n",
       "    Message('note_on', channel=0, note=64, velocity=80, time=6),\n",
       "    Message('note_off', channel=0, note=60, velocity=57, time=25),\n",
       "    Message('control_change', channel=0, control=64, value=56, time=5),\n",
       "    Message('control_change', channel=0, control=64, value=0, time=15),\n",
       "    Message('note_on', channel=0, note=58, velocity=73, time=14),\n",
       "    Message('note_off', channel=0, note=64, velocity=59, time=45),\n",
       "    Message('note_off', channel=0, note=58, velocity=63, time=15),\n",
       "    Message('note_on', channel=0, note=57, velocity=67, time=49),\n",
       "    Message('note_off', channel=0, note=67, velocity=63, time=19),\n",
       "    Message('note_on', channel=0, note=72, velocity=78, time=3),\n",
       "    Message('note_off', channel=0, note=57, velocity=68, time=6),\n",
       "    Message('note_off', channel=0, note=72, velocity=59, time=61),\n",
       "    Message('note_on', channel=0, note=63, velocity=78, time=32),\n",
       "    Message('note_off', channel=0, note=63, velocity=63, time=53),\n",
       "    Message('control_change', channel=0, control=64, value=20, time=29),\n",
       "    Message('note_on', channel=0, note=55, velocity=91, time=7),\n",
       "    Message('note_on', channel=0, note=75, velocity=81, time=8),\n",
       "    Message('control_change', channel=0, control=64, value=79, time=0),\n",
       "    Message('note_on', channel=0, note=70, velocity=72, time=10),\n",
       "    Message('control_change', channel=0, control=64, value=127, time=5),\n",
       "    Message('note_off', channel=0, note=75, velocity=64, time=67),\n",
       "    Message('note_on', channel=0, note=62, velocity=80, time=25),\n",
       "    Message('note_off', channel=0, note=70, velocity=60, time=11),\n",
       "    Message('note_on', channel=0, note=60, velocity=59, time=2),\n",
       "    Message('note_off', channel=0, note=60, velocity=127, time=1),\n",
       "    Message('note_on', channel=0, note=73, velocity=8, time=35),\n",
       "    Message('note_off', channel=0, note=62, velocity=59, time=13),\n",
       "    Message('note_off', channel=0, note=73, velocity=41, time=37),\n",
       "    Message('note_on', channel=0, note=74, velocity=85, time=6),\n",
       "    Message('note_on', channel=0, note=70, velocity=69, time=9),\n",
       "    Message('note_off', channel=0, note=70, velocity=68, time=22),\n",
       "    Message('note_off', channel=0, note=74, velocity=59, time=2),\n",
       "    Message('note_on', channel=0, note=59, velocity=61, time=68),\n",
       "    Message('note_on', channel=0, note=57, velocity=70, time=3),\n",
       "    Message('note_off', channel=0, note=59, velocity=61, time=22),\n",
       "    Message('note_off', channel=0, note=57, velocity=65, time=6),\n",
       "    Message('note_on', channel=0, note=54, velocity=101, time=47),\n",
       "    Message('note_on', channel=0, note=62, velocity=81, time=3),\n",
       "    Message('note_on', channel=0, note=69, velocity=81, time=0),\n",
       "    Message('note_off', channel=0, note=55, velocity=50, time=40),\n",
       "    Message('control_change', channel=0, control=64, value=69, time=5),\n",
       "    Message('control_change', channel=0, control=64, value=0, time=15),\n",
       "    Message('note_off', channel=0, note=62, velocity=54, time=15),\n",
       "    Message('note_on', channel=0, note=60, velocity=79, time=23),\n",
       "    Message('note_off', channel=0, note=60, velocity=63, time=45),\n",
       "    Message('note_off', channel=0, note=69, velocity=57, time=42),\n",
       "    Message('note_off', channel=0, note=54, velocity=64, time=6),\n",
       "    Message('note_on', channel=0, note=70, velocity=82, time=9),\n",
       "    Message('note_on', channel=0, note=55, velocity=88, time=0),\n",
       "    Message('note_on', channel=0, note=58, velocity=79, time=5),\n",
       "    Message('note_off', channel=0, note=70, velocity=72, time=14),\n",
       "    Message('note_off', channel=0, note=58, velocity=70, time=8),\n",
       "    Message('note_off', channel=0, note=55, velocity=61, time=26),\n",
       "    Message('note_on', channel=0, note=48, velocity=68, time=50),\n",
       "    Message('note_off', channel=0, note=48, velocity=60, time=55),\n",
       "    Message('note_on', channel=0, note=69, velocity=67, time=62),\n",
       "    Message('note_on', channel=0, note=53, velocity=57, time=2),\n",
       "    Message('note_on', channel=0, note=60, velocity=63, time=6),\n",
       "    Message('note_on', channel=0, note=65, velocity=61, time=9),\n",
       "    Message('note_off', channel=0, note=53, velocity=65, time=17),\n",
       "    Message('note_off', channel=0, note=60, velocity=56, time=14),\n",
       "    Message('note_off', channel=0, note=69, velocity=60, time=42),\n",
       "    Message('note_on', channel=0, note=45, velocity=69, time=14),\n",
       "    Message('note_off', channel=0, note=65, velocity=59, time=18),\n",
       "    Message('note_off', channel=0, note=45, velocity=64, time=9),\n",
       "    Message('note_on', channel=0, note=67, velocity=62, time=81),\n",
       "    Message('note_on', channel=0, note=46, velocity=74, time=3),\n",
       "    Message('note_on', channel=0, note=62, velocity=65, time=6),\n",
       "    Message('note_on', channel=0, note=65, velocity=72, time=4),\n",
       "    Message('note_off', channel=0, note=46, velocity=66, time=24),\n",
       "    Message('note_on', channel=0, note=43, velocity=71, time=67),\n",
       "    Message('note_off', channel=0, note=67, velocity=60, time=28),\n",
       "    Message('note_off', channel=0, note=43, velocity=65, time=3),\n",
       "    Message('note_off', channel=0, note=62, velocity=55, time=18),\n",
       "    Message('note_off', channel=0, note=65, velocity=60, time=9),\n",
       "    Message('note_on', channel=0, note=60, velocity=80, time=40),\n",
       "    Message('note_on', channel=0, note=64, velocity=82, time=0),\n",
       "    Message('note_on', channel=0, note=48, velocity=81, time=6),\n",
       "    Message('control_change', channel=0, control=64, value=127, time=12),\n",
       "    Message('note_off', channel=0, note=48, velocity=60, time=33),\n",
       "    Message('note_on', channel=0, note=46, velocity=80, time=41),\n",
       "    Message('note_off', channel=0, note=60, velocity=63, time=13),\n",
       "    Message('control_change', channel=0, control=64, value=82, time=31),\n",
       "    Message('control_change', channel=0, control=64, value=0, time=15),\n",
       "    Message('note_off', channel=0, note=46, velocity=60, time=10),\n",
       "    Message('note_on', channel=0, note=45, velocity=78, time=22),\n",
       "    Message('note_on', channel=0, note=65, velocity=89, time=11),\n",
       "    Message('note_off', channel=0, note=64, velocity=62, time=0),\n",
       "    Message('note_off', channel=0, note=45, velocity=66, time=13),\n",
       "    Message('note_off', channel=0, note=65, velocity=66, time=16),\n",
       "    Message('note_on', channel=0, note=69, velocity=90, time=89),\n",
       "    Message('note_off', channel=0, note=69, velocity=61, time=43),\n",
       "    Message('note_on', channel=0, note=41, velocity=91, time=46),\n",
       "    Message('note_on', channel=0, note=29, velocity=77, time=11),\n",
       "    Message('note_on', channel=0, note=77, velocity=90, time=3),\n",
       "    Message('control_change', channel=0, control=64, value=66, time=10),\n",
       "    Message('note_on', channel=0, note=72, velocity=81, time=5),\n",
       "    Message('note_off', channel=0, note=41, velocity=70, time=1),\n",
       "    Message('note_on', channel=0, note=71, velocity=77, time=2),\n",
       "    Message('control_change', channel=0, control=64, value=127, time=7),\n",
       "    Message('note_on', channel=0, note=76, velocity=50, time=2),\n",
       "    Message('note_off', channel=0, note=29, velocity=63, time=6),\n",
       "    Message('note_off', channel=0, note=76, velocity=0, time=63),\n",
       "    Message('note_on', channel=0, note=76, velocity=31, time=0),\n",
       "    Message('note_on', channel=0, note=65, velocity=79, time=8),\n",
       "    Message('note_off', channel=0, note=77, velocity=60, time=33),\n",
       "    Message('note_off', channel=0, note=76, velocity=50, time=12),\n",
       "    Message('note_off', channel=0, note=65, velocity=63, time=18),\n",
       "    Message('note_off', channel=0, note=71, velocity=58, time=2),\n",
       "    Message('note_off', channel=0, note=72, velocity=63, time=9),\n",
       "    Message('note_on', channel=0, note=74, velocity=92, time=39),\n",
       "    Message('note_on', channel=0, note=70, velocity=81, time=4),\n",
       "    Message('note_off', channel=0, note=70, velocity=62, time=81),\n",
       "    Message('note_off', channel=0, note=74, velocity=60, time=19),\n",
       "    Message('note_on', channel=0, note=62, velocity=89, time=3),\n",
       "    Message('note_off', channel=0, note=62, velocity=67, time=49),\n",
       "    Message('note_on', channel=0, note=67, velocity=89, time=54),\n",
       "    Message('note_on', channel=0, note=74, velocity=88, time=2),\n",
       "    Message('note_on', channel=0, note=70, velocity=80, time=2),\n",
       "    Message('control_change', channel=0, control=64, value=64, time=10),\n",
       "    Message('control_change', channel=0, control=64, value=0, time=15),\n",
       "    Message('note_off', channel=0, note=67, velocity=66, time=27),\n",
       "    Message('note_on', channel=0, note=65, velocity=85, time=36),\n",
       "    Message('note_off', channel=0, note=74, velocity=57, time=59),\n",
       "    Message('note_off', channel=0, note=65, velocity=65, time=3),\n",
       "    Message('note_off', channel=0, note=70, velocity=62, time=11),\n",
       "    Message('note_on', channel=0, note=64, velocity=84, time=34),\n",
       "    Message('note_on', channel=0, note=72, velocity=79, time=0),\n",
       "    Message('note_off', channel=0, note=72, velocity=64, time=39),\n",
       "    Message('note_off', channel=0, note=64, velocity=63, time=3),\n",
       "    Message('note_on', channel=0, note=60, velocity=81, time=54),\n",
       "    Message('note_off', channel=0, note=60, velocity=65, time=48),\n",
       "    Message('note_on', channel=0, note=65, velocity=84, time=65),\n",
       "    Message('note_on', channel=0, note=72, velocity=86, time=7),\n",
       "    Message('note_on', channel=0, note=69, velocity=67, time=7),\n",
       "    Message('control_change', channel=0, control=64, value=66, time=13),\n",
       "    Message('control_change', channel=0, control=64, value=66, time=15),\n",
       "    Message('note_off', channel=0, note=65, velocity=64, time=8),\n",
       "    Message('control_change', channel=0, control=64, value=47, time=7),\n",
       "    Message('control_change', channel=0, control=64, value=0, time=15),\n",
       "    Message('note_on', channel=0, note=57, velocity=66, time=47),\n",
       "    Message('note_off', channel=0, note=69, velocity=59, time=3),\n",
       "    Message('note_off', channel=0, note=57, velocity=66, time=23),\n",
       "    Message('note_off', channel=0, note=72, velocity=58, time=39),\n",
       "    Message('note_on', channel=0, note=70, velocity=77, time=35),\n",
       "    Message('note_on', channel=0, note=62, velocity=87, time=5),\n",
       "    Message('note_on', channel=0, note=65, velocity=72, time=1),\n",
       "    Message('note_off', channel=0, note=62, velocity=63, time=51),\n",
       "    Message('note_off', channel=0, note=65, velocity=61, time=25),\n",
       "    Message('note_on', channel=0, note=55, velocity=79, time=29),\n",
       "    Message('note_off', channel=0, note=55, velocity=61, time=46),\n",
       "    Message('note_off', channel=0, note=70, velocity=61, time=30),\n",
       "    Message('note_on', channel=0, note=67, velocity=76, time=17),\n",
       "    Message('note_on', channel=0, note=60, velocity=75, time=12),\n",
       "    Message('note_on', channel=0, note=64, velocity=72, time=1),\n",
       "    Message('note_off', channel=0, note=60, velocity=53, time=50),\n",
       "    Message('note_on', channel=0, note=58, velocity=77, time=27),\n",
       "    Message('note_off', channel=0, note=58, velocity=64, time=33),\n",
       "    Message('note_off', channel=0, note=64, velocity=54, time=6),\n",
       "    Message('note_off', channel=0, note=67, velocity=61, time=63),\n",
       "    Message('note_on', channel=0, note=57, velocity=77, time=7),\n",
       "    Message('note_on', channel=0, note=72, velocity=78, time=2),\n",
       "    Message('note_off', channel=0, note=57, velocity=69, time=30),\n",
       "    Message('note_off', channel=0, note=72, velocity=47, time=69),\n",
       "    Message('note_on', channel=0, note=63, velocity=75, time=4),\n",
       "    Message('note_off', channel=0, note=63, velocity=63, time=53),\n",
       "    Message('note_on', channel=0, note=75, velocity=85, time=52),\n",
       "    Message('note_on', channel=0, note=55, velocity=94, time=0),\n",
       "    Message('note_on', channel=0, note=70, velocity=74, time=10),\n",
       "    Message('control_change', channel=0, control=64, value=67, time=38),\n",
       "    Message('control_change', channel=0, control=64, value=127, time=15),\n",
       "    Message('note_on', channel=0, note=62, velocity=87, time=33),\n",
       "    Message('note_off', channel=0, note=75, velocity=62, time=10),\n",
       "    Message('note_off', channel=0, note=70, velocity=56, time=3),\n",
       "    Message('note_off', channel=0, note=62, velocity=59, time=49),\n",
       "    Message('note_on', channel=0, note=74, velocity=83, time=36),\n",
       "    Message('note_on', channel=0, note=70, velocity=79, time=2),\n",
       "    Message('note_off', channel=0, note=74, velocity=70, time=18),\n",
       "    Message('note_off', channel=0, note=70, velocity=62, time=29),\n",
       "    Message('note_on', channel=0, note=57, velocity=83, time=46),\n",
       "    Message('note_off', channel=0, note=57, velocity=59, time=40),\n",
       "    Message('control_change', channel=0, control=64, value=69, time=31),\n",
       "    Message('polytouch', channel=0, note=61, value=127, time=3),\n",
       "    Message('note_off', channel=0, note=55, velocity=60, time=8),\n",
       "    Message('control_change', channel=0, control=64, value=0, time=4),\n",
       "    Message('polytouch', channel=0, note=61, value=0, time=9),\n",
       "    Message('note_on', channel=0, note=54, velocity=90, time=6),\n",
       "    Message('note_on', channel=0, note=62, velocity=79, time=3),\n",
       "    Message('note_on', channel=0, note=69, velocity=79, time=5),\n",
       "    Message('note_off', channel=0, note=62, velocity=61, time=69),\n",
       "    Message('note_on', channel=0, note=60, velocity=75, time=18),\n",
       "    Message('note_off', channel=0, note=60, velocity=68, time=24),\n",
       "    Message('note_off', channel=0, note=69, velocity=61, time=39),\n",
       "    Message('note_off', channel=0, note=54, velocity=62, time=27),\n",
       "    Message('note_on', channel=0, note=70, velocity=71, time=30),\n",
       "    Message('note_on', channel=0, note=55, velocity=67, time=0),\n",
       "    Message('note_on', channel=0, note=58, velocity=63, time=7),\n",
       "    Message('note_off', channel=0, note=70, velocity=68, time=17),\n",
       "    Message('note_off', channel=0, note=58, velocity=64, time=3),\n",
       "    Message('note_off', channel=0, note=55, velocity=53, time=21),\n",
       "    Message('note_on', channel=0, note=48, velocity=64, time=47),\n",
       "    Message('note_off', channel=0, note=48, velocity=64, time=35),\n",
       "    Message('note_on', channel=0, note=69, velocity=65, time=79),\n",
       "    Message('note_on', channel=0, note=53, velocity=58, time=3),\n",
       "    Message('note_on', channel=0, note=60, velocity=47, time=11),\n",
       "    Message('note_on', channel=0, note=65, velocity=50, time=5),\n",
       "    Message('note_off', channel=0, note=53, velocity=64, time=17),\n",
       "    Message('note_off', channel=0, note=60, velocity=60, time=11),\n",
       "    Message('note_off', channel=0, note=69, velocity=60, time=17),\n",
       "    Message('note_on', channel=0, note=45, velocity=70, time=28),\n",
       "    Message('note_off', channel=0, note=65, velocity=57, time=10),\n",
       "    Message('note_off', channel=0, note=45, velocity=65, time=14),\n",
       "    Message('note_on', channel=0, note=67, velocity=69, time=80),\n",
       "    Message('note_on', channel=0, note=46, velocity=65, time=9),\n",
       "    Message('note_on', channel=0, note=62, velocity=62, time=0),\n",
       "    Message('note_on', channel=0, note=65, velocity=66, time=3),\n",
       "    Message('note_off', channel=0, note=46, velocity=65, time=26),\n",
       "    Message('note_on', channel=0, note=43, velocity=70, time=65),\n",
       "    Message('note_off', channel=0, note=43, velocity=66, time=25),\n",
       "    Message('note_off', channel=0, note=67, velocity=55, time=24),\n",
       "    Message('note_off', channel=0, note=65, velocity=62, time=42),\n",
       "    Message('note_on', channel=0, note=64, velocity=76, time=15),\n",
       "    Message('note_on', channel=0, note=48, velocity=77, time=4),\n",
       "    Message('note_on', channel=0, note=60, velocity=67, time=3),\n",
       "    Message('note_off', channel=0, note=62, velocity=58, time=20),\n",
       "    Message('note_off', channel=0, note=48, velocity=64, time=8),\n",
       "    Message('note_on', channel=0, note=46, velocity=76, time=72),\n",
       "    Message('note_off', channel=0, note=60, velocity=62, time=18),\n",
       "    Message('note_off', channel=0, note=46, velocity=62, time=36),\n",
       "    Message('note_on', channel=0, note=45, velocity=65, time=51),\n",
       "    Message('note_off', channel=0, note=64, velocity=62, time=0),\n",
       "    Message('note_on', channel=0, note=65, velocity=77, time=9),\n",
       "    Message('note_off', channel=0, note=45, velocity=60, time=13),\n",
       "    Message('note_off', channel=0, note=65, velocity=64, time=43),\n",
       "    Message('note_on', channel=0, note=57, velocity=70, time=39),\n",
       "    Message('note_off', channel=0, note=57, velocity=62, time=33),\n",
       "    Message('note_on', channel=0, note=41, velocity=72, time=71),\n",
       "    Message('note_on', channel=0, note=65, velocity=71, time=1),\n",
       "    Message('note_on', channel=0, note=29, velocity=63, time=5),\n",
       "    Message('note_on', channel=0, note=60, velocity=61, time=7),\n",
       "    Message('control_change', channel=0, control=64, value=67, time=28),\n",
       "    Message('note_off', channel=0, note=65, velocity=63, time=10),\n",
       "    Message('note_off', channel=0, note=60, velocity=65, time=0),\n",
       "    Message('control_change', channel=0, control=64, value=127, time=5),\n",
       "    Message('note_on', channel=0, note=53, velocity=68, time=57),\n",
       "    Message('note_off', channel=0, note=53, velocity=64, time=30),\n",
       "    Message('note_on', channel=0, note=57, velocity=72, time=60),\n",
       "    Message('note_on', channel=0, note=60, velocity=70, time=9),\n",
       "    Message('note_off', channel=0, note=57, velocity=63, time=46),\n",
       "    Message('note_on', channel=0, note=50, velocity=72, time=44),\n",
       "    Message('note_off', channel=0, note=50, velocity=61, time=35),\n",
       "    Message('note_off', channel=0, note=60, velocity=32, time=66),\n",
       "    Message('note_on', channel=0, note=62, velocity=79, time=2),\n",
       "    Message('note_on', channel=0, note=58, velocity=64, time=7),\n",
       "    Message('control_change', channel=0, control=64, value=61, time=21),\n",
       "    Message('control_change', channel=0, control=64, value=0, time=14),\n",
       "    Message('note_off', channel=0, note=58, velocity=55, time=29),\n",
       "    Message('note_off', channel=0, note=62, velocity=60, time=0),\n",
       "    Message('note_on', channel=0, note=56, velocity=64, time=42),\n",
       "    Message('note_off', channel=0, note=56, velocity=64, time=28),\n",
       "    Message('note_on', channel=0, note=63, velocity=66, time=67),\n",
       "    Message('note_on', channel=0, note=58, velocity=61, time=3),\n",
       "    Message('note_off', channel=0, note=29, velocity=56, time=18),\n",
       "    Message('note_off', channel=0, note=41, velocity=61, time=10),\n",
       "    Message('note_off', channel=0, note=58, velocity=62, time=2),\n",
       "    Message('note_off', channel=0, note=63, velocity=57, time=39),\n",
       "    Message('note_on', channel=0, note=54, velocity=47, time=32),\n",
       "    Message('note_off', channel=0, note=54, velocity=57, time=29),\n",
       "    Message('note_on', channel=0, note=63, velocity=68, time=57),\n",
       "    Message('note_on', channel=0, note=58, velocity=50, time=14),\n",
       "    Message('note_on', channel=0, note=42, velocity=58, time=7),\n",
       "    Message('note_on', channel=0, note=30, velocity=52, time=5),\n",
       "    Message('control_change', channel=0, control=64, value=63, time=20),\n",
       "    Message('control_change', channel=0, control=64, value=74, time=14),\n",
       "    Message('control_change', channel=0, control=64, value=127, time=15),\n",
       "    Message('note_off', channel=0, note=63, velocity=63, time=1),\n",
       "    Message('note_on', channel=0, note=51, velocity=78, time=36),\n",
       "    Message('note_off', channel=0, note=58, velocity=58, time=21),\n",
       "    Message('note_off', channel=0, note=51, velocity=59, time=19),\n",
       "    Message('note_on', channel=0, note=54, velocity=73, time=56),\n",
       "    Message('note_on', channel=0, note=58, velocity=65, time=17),\n",
       "    Message('note_off', channel=0, note=42, velocity=55, time=8),\n",
       "    Message('note_off', channel=0, note=54, velocity=60, time=37),\n",
       "    Message('note_on', channel=0, note=46, velocity=75, time=37),\n",
       "    Message('note_off', channel=0, note=46, velocity=65, time=29),\n",
       "    Message('note_off', channel=0, note=30, velocity=38, time=72),\n",
       "    Message('control_change', channel=0, control=64, value=68, time=0),\n",
       "    Message('note_on', channel=0, note=60, velocity=72, time=8),\n",
       "    Message('note_on', channel=0, note=53, velocity=54, time=7),\n",
       "    Message('control_change', channel=0, control=64, value=0, time=0),\n",
       "    Message('note_on', channel=0, note=44, velocity=71, time=8),\n",
       "    Message('note_on', channel=0, note=32, velocity=54, time=10),\n",
       "    Message('note_off', channel=0, note=58, velocity=60, time=15),\n",
       "    Message('note_off', channel=0, note=53, velocity=64, time=4),\n",
       "    Message('note_off', channel=0, note=44, velocity=63, time=3),\n",
       "    Message('note_off', channel=0, note=32, velocity=63, time=22),\n",
       "    Message('note_off', channel=0, note=60, velocity=56, time=8),\n",
       "    Message('note_on', channel=0, note=51, velocity=61, time=12),\n",
       "    Message('note_off', channel=0, note=51, velocity=62, time=21),\n",
       "    Message('note_on', channel=0, note=61, velocity=62, time=102),\n",
       "    Message('note_on', channel=0, note=49, velocity=63, time=1),\n",
       "    Message('note_on', channel=0, note=29, velocity=64, time=3),\n",
       "    Message('note_on', channel=0, note=41, velocity=41, time=12),\n",
       "    Message('note_off', channel=0, note=49, velocity=61, time=21),\n",
       "    Message('note_off', channel=0, note=41, velocity=54, time=14),\n",
       "    Message('note_off', channel=0, note=61, velocity=57, time=18),\n",
       "    Message('note_on', channel=0, note=56, velocity=64, time=27),\n",
       "    Message('note_off', channel=0, note=29, velocity=39, time=17),\n",
       "    Message('note_off', channel=0, note=56, velocity=66, time=14),\n",
       "    Message('note_on', channel=0, note=63, velocity=71, time=80),\n",
       "    Message('note_on', channel=0, note=42, velocity=75, time=5),\n",
       "    Message('note_on', channel=0, note=30, velocity=68, time=1),\n",
       "    Message('note_on', channel=0, note=58, velocity=70, time=2),\n",
       "    Message('note_off', channel=0, note=63, velocity=62, time=77),\n",
       "    Message('note_on', channel=0, note=51, velocity=81, time=18),\n",
       "    Message('control_change', channel=0, control=64, value=57, time=5),\n",
       "    Message('control_change', channel=0, control=64, value=79, time=14),\n",
       "    Message('note_off', channel=0, note=58, velocity=62, time=10),\n",
       "    Message('control_change', channel=0, control=64, value=127, time=5),\n",
       "    Message('note_off', channel=0, note=51, velocity=59, time=2),\n",
       "    Message('note_on', channel=0, note=54, velocity=72, time=67),\n",
       "    Message('note_on', channel=0, note=58, velocity=74, time=0),\n",
       "    Message('note_off', channel=0, note=42, velocity=61, time=43),\n",
       "    Message('note_off', channel=0, note=54, velocity=59, time=41),\n",
       "    Message('note_on', channel=0, note=46, velocity=81, time=14),\n",
       "    Message('note_off', channel=0, note=30, velocity=37, time=47),\n",
       "    Message('control_change', channel=0, control=64, value=102, time=1),\n",
       "    Message('note_off', channel=0, note=46, velocity=61, time=3),\n",
       "    Message('control_change', channel=0, control=64, value=51, time=11),\n",
       "    Message('control_change', channel=0, control=64, value=0, time=15),\n",
       "    Message('note_off', channel=0, note=58, velocity=0, time=17),\n",
       "    Message('note_on', channel=0, note=53, velocity=44, time=2),\n",
       "    Message('note_on', channel=0, note=44, velocity=77, time=2),\n",
       "    Message('note_on', channel=0, note=32, velocity=67, time=6),\n",
       "    Message('note_on', channel=0, note=60, velocity=68, time=14),\n",
       "    Message('control_change', channel=0, control=64, value=28, time=4),\n",
       "    Message('polytouch', channel=0, note=58, value=127, time=9),\n",
       "    Message('control_change', channel=0, control=64, value=76, time=5),\n",
       "    Message('control_change', channel=0, control=64, value=127, time=15),\n",
       "    Message('note_off', channel=0, note=44, velocity=61, time=11),\n",
       "    Message('note_off', channel=0, note=53, velocity=58, time=4),\n",
       "    Message('polytouch', channel=0, note=58, value=0, time=11),\n",
       "    Message('note_off', channel=0, note=60, velocity=59, time=28),\n",
       "    Message('note_on', channel=0, note=51, velocity=65, time=17),\n",
       "    Message('control_change', channel=0, control=64, value=82, time=33),\n",
       "    Message('note_off', channel=0, note=51, velocity=61, time=7),\n",
       "    Message('control_change', channel=0, control=64, value=26, time=8),\n",
       "    Message('note_off', channel=0, note=32, velocity=56, time=10),\n",
       "    Message('control_change', channel=0, control=64, value=0, time=5),\n",
       "    Message('note_on', channel=0, note=29, velocity=61, time=27),\n",
       "    Message('note_on', channel=0, note=61, velocity=59, time=4),\n",
       "    Message('note_on', channel=0, note=41, velocity=37, time=14),\n",
       "    Message('note_off', channel=0, note=61, velocity=67, time=8),\n",
       "    Message('note_off', channel=0, note=41, velocity=51, time=31),\n",
       "    Message('control_change', channel=0, control=64, value=62, time=5),\n",
       "    Message('control_change', channel=0, control=64, value=81, time=14),\n",
       "    Message('control_change', channel=0, control=64, value=127, time=15),\n",
       "    Message('note_on', channel=0, note=46, velocity=72, time=13),\n",
       "    Message('note_off', channel=0, note=46, velocity=63, time=60),\n",
       "    Message('control_change', channel=0, control=64, value=81, time=32),\n",
       "    Message('note_off', channel=0, note=29, velocity=38, time=8),\n",
       "    Message('control_change', channel=0, control=64, value=35, time=7),\n",
       "    Message('note_on', channel=0, note=58, velocity=61, time=6),\n",
       "    Message('note_on', channel=0, note=30, velocity=56, time=9),\n",
       "    Message('note_on', channel=0, note=42, velocity=63, time=0),\n",
       "    Message('control_change', channel=0, control=64, value=0, time=0),\n",
       "    Message('control_change', channel=0, control=64, value=64, time=44),\n",
       "    Message('note_off', channel=0, note=58, velocity=63, time=7),\n",
       "    Message('control_change', channel=0, control=64, value=116, time=8),\n",
       "    Message('control_change', channel=0, control=64, value=127, time=15),\n",
       "    Message('note_on', channel=0, note=51, velocity=79, time=11),\n",
       "    Message('note_off', channel=0, note=42, velocity=63, time=23),\n",
       "    Message('note_off', channel=0, note=30, velocity=38, time=2),\n",
       "    Message('control_change', channel=0, control=64, value=119, time=37),\n",
       "    Message('control_change', channel=0, control=64, value=66, time=15),\n",
       "    Message('control_change', channel=0, control=64, value=0, time=15),\n",
       "    Message('note_on', channel=0, note=63, velocity=80, time=4),\n",
       "    Message('note_off', channel=0, note=51, velocity=61, time=2),\n",
       "    Message('note_on', channel=0, note=43, velocity=75, time=3),\n",
       "    Message('note_on', channel=0, note=31, velocity=70, time=12),\n",
       "    Message('note_off', channel=0, note=63, velocity=65, time=29),\n",
       "    Message('note_off', channel=0, note=31, velocity=65, time=13),\n",
       "    Message('note_off', channel=0, note=43, velocity=63, time=1),\n",
       "    Message('control_change', channel=0, control=64, value=66, time=3),\n",
       "    Message('control_change', channel=0, control=64, value=127, time=15),\n",
       "    Message('note_on', channel=0, note=48, velocity=91, time=28),\n",
       "    Message('control_change', channel=0, control=64, value=69, time=75),\n",
       "    Message('control_change', channel=0, control=64, value=0, time=15),\n",
       "    Message('note_off', channel=0, note=48, velocity=57, time=1),\n",
       "    Message('note_on', channel=0, note=44, velocity=94, time=10),\n",
       "    Message('note_on', channel=0, note=60, velocity=83, time=0),\n",
       "    Message('note_on', channel=0, note=32, velocity=79, time=4),\n",
       "    Message('control_change', channel=0, control=64, value=53, time=29),\n",
       "    Message('control_change', channel=0, control=64, value=108, time=15),\n",
       "    Message('note_off', channel=0, note=60, velocity=64, time=8),\n",
       "    Message('control_change', channel=0, control=64, value=127, time=7),\n",
       "    Message('note_on', channel=0, note=53, velocity=88, time=28),\n",
       "    Message('note_off', channel=0, note=32, velocity=62, time=1),\n",
       "    Message('note_off', channel=0, note=44, velocity=61, time=3),\n",
       "    Message('control_change', channel=0, control=64, value=73, time=57),\n",
       "    Message('control_change', channel=0, control=64, value=0, time=15),\n",
       "    Message('note_on', channel=0, note=65, velocity=88, time=27),\n",
       "    Message('note_on', channel=0, note=45, velocity=94, time=3),\n",
       "    Message('note_on', channel=0, note=33, velocity=82, time=6),\n",
       "    Message('note_off', channel=0, note=53, velocity=63, time=10),\n",
       "    Message('note_off', channel=0, note=65, velocity=65, time=16),\n",
       "    Message('note_off', channel=0, note=33, velocity=66, time=7),\n",
       "    Message('control_change', channel=0, control=64, value=63, time=5),\n",
       "    Message('note_off', channel=0, note=45, velocity=64, time=1),\n",
       "    Message('control_change', channel=0, control=64, value=127, time=14),\n",
       "    Message('note_on', channel=0, note=50, velocity=91, time=42),\n",
       "    Message('control_change', channel=0, control=64, value=68, time=63),\n",
       "    Message('control_change', channel=0, control=64, value=0, time=14),\n",
       "    Message('note_off', channel=0, note=50, velocity=62, time=10),\n",
       "    Message('note_on', channel=0, note=46, velocity=95, time=17),\n",
       "    Message('note_on', channel=0, note=34, velocity=84, time=3),\n",
       "    Message('note_on', channel=0, note=62, velocity=94, time=2),\n",
       "    Message('control_change', channel=0, control=64, value=74, time=28),\n",
       "    Message('control_change', channel=0, control=64, value=127, time=14),\n",
       "    Message('note_off', channel=0, note=62, velocity=65, time=4),\n",
       "    Message('note_off', channel=0, note=46, velocity=61, time=23),\n",
       "    Message('note_off', channel=0, note=34, velocity=61, time=8),\n",
       "    Message('note_on', channel=0, note=55, velocity=95, time=20),\n",
       "    Message('control_change', channel=0, control=64, value=80, time=19),\n",
       "    Message('note_on', channel=0, note=57, velocity=45, time=13),\n",
       "    Message('control_change', channel=0, control=64, value=0, time=2),\n",
       "    Message('note_off', channel=0, note=57, velocity=32, time=47),\n",
       "    Message('note_off', channel=0, note=55, velocity=61, time=5),\n",
       "    Message('note_on', channel=0, note=47, velocity=100, time=16),\n",
       "    Message('note_on', channel=0, note=35, velocity=81, time=8),\n",
       "    Message('note_on', channel=0, note=69, velocity=83, time=1),\n",
       "    Message('note_on', channel=0, note=67, velocity=80, time=6),\n",
       "    Message('control_change', channel=0, control=64, value=62, time=14),\n",
       "    Message('note_off', channel=0, note=35, velocity=68, time=12),\n",
       "    Message('control_change', channel=0, control=64, value=127, time=3),\n",
       "    Message('note_off', channel=0, note=69, velocity=65, time=6),\n",
       "    Message('note_off', channel=0, note=67, velocity=63, time=2),\n",
       "    Message('note_off', channel=0, note=47, velocity=65, time=1),\n",
       "    Message('control_change', channel=0, control=64, value=70, time=49),\n",
       "    Message('note_on', channel=0, note=60, velocity=98, time=1),\n",
       "    Message('control_change', channel=0, control=64, value=0, time=14),\n",
       "    Message('note_off', channel=0, note=60, velocity=63, time=65),\n",
       "    Message('control_change', channel=0, control=64, value=61, time=9),\n",
       "    Message('note_on', channel=0, note=48, velocity=89, time=12),\n",
       "    Message('note_on', channel=0, note=36, velocity=81, time=2),\n",
       "    Message('control_change', channel=0, control=64, value=127, time=1),\n",
       "    Message('note_on', channel=0, note=72, velocity=96, time=2),\n",
       "    Message('note_off', channel=0, note=48, velocity=68, time=18),\n",
       "    Message('note_off', channel=0, note=36, velocity=67, time=10),\n",
       "    Message('control_change', channel=0, control=64, value=62, time=0),\n",
       "    Message('note_off', channel=0, note=72, velocity=68, time=12),\n",
       "    Message('control_change', channel=0, control=64, value=0, time=2),\n",
       "    Message('note_on', channel=0, note=65, velocity=98, time=57),\n",
       "    Message('note_off', channel=0, note=65, velocity=66, time=66),\n",
       "    Message('note_on', channel=0, note=77, velocity=100, time=41),\n",
       "    Message('note_on', channel=0, note=41, velocity=90, time=1),\n",
       "    Message('polytouch', channel=0, note=37, value=0, time=0),\n",
       "    Message('note_on', channel=0, note=29, velocity=81, time=7),\n",
       "    Message('control_change', channel=0, control=64, value=127, time=21),\n",
       "    Message('note_off', channel=0, note=29, velocity=66, time=3),\n",
       "    Message('note_off', channel=0, note=41, velocity=64, time=6),\n",
       "    Message('note_on', channel=0, note=69, velocity=93, time=63),\n",
       "    Message('note_off', channel=0, note=77, velocity=56, time=34),\n",
       "    Message('note_off', channel=0, note=69, velocity=62, time=60),\n",
       "    Message('note_on', channel=0, note=77, velocity=91, time=22),\n",
       "    Message('note_on', channel=0, note=72, velocity=86, time=6),\n",
       "    Message('note_on', channel=0, note=66, velocity=53, time=57),\n",
       "    Message('note_off', channel=0, note=66, velocity=127, time=1),\n",
       "    Message('note_on', channel=0, note=65, velocity=76, time=52),\n",
       "    Message('note_on', channel=0, note=67, velocity=74, time=12),\n",
       "    Message('note_off', channel=0, note=77, velocity=59, time=5),\n",
       "    Message('note_off', channel=0, note=67, velocity=47, time=28),\n",
       "    Message('note_off', channel=0, note=65, velocity=62, time=13),\n",
       "    Message('note_off', channel=0, note=72, velocity=63, time=13),\n",
       "    Message('note_on', channel=0, note=74, velocity=85, time=45),\n",
       "    Message('note_on', channel=0, note=70, velocity=77, time=2),\n",
       "    Message('note_on', channel=0, note=62, velocity=77, time=72),\n",
       "    Message('note_off', channel=0, note=70, velocity=59, time=36),\n",
       "    Message('note_off', channel=0, note=74, velocity=58, time=19),\n",
       "    Message('note_off', channel=0, note=62, velocity=63, time=5),\n",
       "    Message('note_on', channel=0, note=67, velocity=83, time=51),\n",
       "    Message('note_on', channel=0, note=70, velocity=79, time=23),\n",
       "    Message('control_change', channel=0, control=64, value=71, time=2),\n",
       "    Message('note_on', channel=0, note=74, velocity=86, time=6),\n",
       "    Message('control_change', channel=0, control=64, value=0, time=9),\n",
       "    Message('note_off', channel=0, note=67, velocity=64, time=21),\n",
       "    Message('note_on', channel=0, note=65, velocity=85, time=40),\n",
       "    Message('note_off', channel=0, note=65, velocity=62, time=69),\n",
       "    Message('note_off', channel=0, note=74, velocity=60, time=2),\n",
       "    Message('note_off', channel=0, note=70, velocity=61, time=1),\n",
       "    Message('note_on', channel=0, note=64, velocity=78, time=35),\n",
       "    Message('note_on', channel=0, note=72, velocity=77, time=6),\n",
       "    Message('note_off', channel=0, note=72, velocity=64, time=37),\n",
       "    Message('note_off', channel=0, note=64, velocity=62, time=12),\n",
       "    Message('note_on', channel=0, note=60, velocity=72, time=51),\n",
       "    Message('note_off', channel=0, note=60, velocity=63, time=29),\n",
       "    Message('note_on', channel=0, note=65, velocity=74, time=78),\n",
       "    Message('note_on', channel=0, note=72, velocity=83, time=6),\n",
       "    Message('note_on', channel=0, note=69, velocity=68, time=3),\n",
       "    Message('note_off', channel=0, note=65, velocity=65, time=26),\n",
       "    Message('note_on', channel=0, note=57, velocity=78, time=63),\n",
       "    Message('note_off', channel=0, note=69, velocity=61, time=7),\n",
       "    Message('note_off', channel=0, note=57, velocity=67, time=27),\n",
       "    Message('note_off', channel=0, note=72, velocity=59, time=20),\n",
       "    Message('note_on', channel=0, note=62, velocity=76, time=57),\n",
       "    Message('note_on', channel=0, note=70, velocity=76, time=17),\n",
       "    Message('note_on', channel=0, note=65, velocity=64, time=3),\n",
       "    Message('note_off', channel=0, note=62, velocity=61, time=35),\n",
       "    Message('note_on', channel=0, note=55, velocity=74, time=42),\n",
       "    Message('note_off', channel=0, note=55, velocity=67, time=27),\n",
       "    Message('note_off', channel=0, note=65, velocity=61, time=8),\n",
       "    Message('note_off', channel=0, note=70, velocity=53, time=0),\n",
       "    Message('note_on', channel=0, note=60, velocity=74, time=76),\n",
       "    Message('note_on', channel=0, note=67, velocity=76, time=11),\n",
       "    Message('note_on', channel=0, note=64, velocity=79, time=4),\n",
       "    Message('note_off', channel=0, note=60, velocity=61, time=38),\n",
       "    Message('note_on', channel=0, note=58, velocity=77, time=33),\n",
       "    Message('note_off', channel=0, note=64, velocity=56, time=50),\n",
       "    Message('note_off', channel=0, note=58, velocity=61, time=24),\n",
       "    Message('note_off', channel=0, note=67, velocity=61, time=52),\n",
       "    Message('note_on', channel=0, note=57, velocity=78, time=0),\n",
       "    Message('note_on', channel=0, note=72, velocity=77, time=10),\n",
       "    Message('note_off', channel=0, note=57, velocity=70, time=13),\n",
       "    Message('note_on', channel=0, note=63, velocity=76, time=99),\n",
       "    Message('note_off', channel=0, note=72, velocity=62, time=29),\n",
       "    Message('note_off', channel=0, note=63, velocity=63, time=29),\n",
       "    Message('note_on', channel=0, note=75, velocity=81, time=42),\n",
       "    Message('note_on', channel=0, note=55, velocity=95, time=10),\n",
       "    Message('note_on', channel=0, note=70, velocity=71, time=6),\n",
       "    Message('control_change', channel=0, control=64, value=78, time=29),\n",
       "    Message('control_change', channel=0, control=64, value=127, time=14),\n",
       "    Message('note_on', channel=0, note=62, velocity=87, time=45),\n",
       "    Message('note_off', channel=0, note=75, velocity=63, time=8),\n",
       "    Message('note_off', channel=0, note=70, velocity=55, time=2),\n",
       "    Message('note_off', channel=0, note=62, velocity=55, time=55),\n",
       "    Message('note_on', channel=0, note=70, velocity=80, time=32),\n",
       "    Message('note_on', channel=0, note=74, velocity=78, time=1),\n",
       "    Message('note_off', channel=0, note=74, velocity=71, time=22),\n",
       "    Message('note_off', channel=0, note=70, velocity=63, time=24),\n",
       "    Message('note_on', channel=0, note=57, velocity=84, time=48),\n",
       "    Message('note_off', channel=0, note=57, velocity=60, time=46),\n",
       "    Message('control_change', channel=0, control=64, value=98, time=43),\n",
       "    Message('note_off', channel=0, note=55, velocity=60, time=7),\n",
       "    Message('control_change', channel=0, control=64, value=32, time=8),\n",
       "    Message('note_on', channel=0, note=54, velocity=86, time=7),\n",
       "    Message('note_on', channel=0, note=69, velocity=73, time=3),\n",
       "    Message('note_on', channel=0, note=62, velocity=69, time=0),\n",
       "    Message('control_change', channel=0, control=64, value=0, time=5),\n",
       "    Message('note_off', channel=0, note=62, velocity=61, time=51),\n",
       "    Message('note_on', channel=0, note=60, velocity=69, time=40),\n",
       "    Message('note_off', channel=0, note=60, velocity=65, time=28),\n",
       "    Message('note_off', channel=0, note=69, velocity=61, time=27),\n",
       "    Message('note_off', channel=0, note=54, velocity=61, time=21),\n",
       "    Message('note_on', channel=0, note=70, velocity=68, time=29),\n",
       "    Message('note_on', channel=0, note=55, velocity=77, time=6),\n",
       "    Message('note_on', channel=0, note=58, velocity=71, time=10),\n",
       "    Message('note_off', channel=0, note=70, velocity=67, time=17),\n",
       "    Message('note_off', channel=0, note=58, velocity=67, time=8),\n",
       "    Message('note_off', channel=0, note=55, velocity=60, time=14),\n",
       "    Message('note_on', channel=0, note=48, velocity=69, time=62),\n",
       "    Message('note_off', channel=0, note=48, velocity=64, time=25),\n",
       "    Message('note_on', channel=0, note=53, velocity=61, time=86),\n",
       "    Message('note_on', channel=0, note=60, velocity=61, time=8),\n",
       "    Message('note_on', channel=0, note=69, velocity=47, time=1),\n",
       "    Message('note_on', channel=0, note=65, velocity=46, time=17),\n",
       "    Message('note_off', channel=0, note=53, velocity=64, time=6),\n",
       "    Message('note_on', channel=0, note=67, velocity=35, time=4),\n",
       "    Message('note_off', channel=0, note=60, velocity=63, time=3),\n",
       "    Message('note_off', channel=0, note=69, velocity=61, time=17),\n",
       "    Message('note_off', channel=0, note=65, velocity=63, time=1),\n",
       "    Message('note_off', channel=0, note=67, velocity=53, time=9),\n",
       "    Message('note_on', channel=0, note=45, velocity=70, time=32),\n",
       "    Message('note_off', channel=0, note=45, velocity=64, time=27),\n",
       "    Message('note_on', channel=0, note=67, velocity=59, time=75),\n",
       "    Message('note_on', channel=0, note=62, velocity=61, time=14),\n",
       "    Message('note_on', channel=0, note=46, velocity=63, time=1),\n",
       "    Message('note_on', channel=0, note=65, velocity=59, time=5),\n",
       "    Message('note_off', channel=0, note=46, velocity=65, time=21),\n",
       "    Message('note_on', channel=0, note=43, velocity=52, time=86),\n",
       "    Message('note_off', channel=0, note=67, velocity=58, time=28),\n",
       "    Message('note_off', channel=0, note=43, velocity=57, time=0),\n",
       "    Message('note_off', channel=0, note=65, velocity=60, time=32),\n",
       "    Message('note_on', channel=0, note=64, velocity=63, time=31),\n",
       "    Message('note_off', channel=0, note=62, velocity=57, time=2),\n",
       "    Message('note_on', channel=0, note=60, velocity=53, time=2),\n",
       "    Message('note_on', channel=0, note=48, velocity=60, time=6),\n",
       "    Message('note_off', channel=0, note=48, velocity=60, time=34),\n",
       "    Message('note_on', channel=0, note=46, velocity=64, time=73),\n",
       "    Message('note_off', channel=0, note=60, velocity=56, time=13),\n",
       "    Message('note_off', channel=0, note=46, velocity=61, time=27),\n",
       "    Message('note_off', channel=0, note=64, velocity=62, time=45),\n",
       "    Message('note_on', channel=0, note=45, velocity=65, time=9),\n",
       "    Message('note_on', channel=0, note=65, velocity=66, time=15),\n",
       "    Message('note_off', channel=0, note=45, velocity=64, time=15),\n",
       "    Message('note_off', channel=0, note=65, velocity=63, time=42),\n",
       "    Message('note_on', channel=0, note=57, velocity=64, time=36),\n",
       "    Message('note_off', channel=0, note=57, velocity=62, time=44),\n",
       "    Message('note_on', channel=0, note=41, velocity=67, time=53),\n",
       "    Message('note_on', channel=0, note=29, velocity=60, time=5),\n",
       "    Message('note_on', channel=0, note=65, velocity=70, time=4),\n",
       "    Message('note_on', channel=0, note=60, velocity=60, time=15),\n",
       "    Message('note_off', channel=0, note=65, velocity=65, time=22),\n",
       "    Message('control_change', channel=0, control=64, value=61, time=0),\n",
       "    Message('note_off', channel=0, note=60, velocity=68, time=7),\n",
       "    Message('control_change', channel=0, control=64, value=72, time=8),\n",
       "    Message('control_change', channel=0, control=64, value=127, time=14),\n",
       "    Message('note_on', channel=0, note=53, velocity=62, time=48),\n",
       "    Message('note_off', channel=0, note=53, velocity=64, time=29),\n",
       "    Message('note_on', channel=0, note=57, velocity=64, time=69),\n",
       "    Message('note_on', channel=0, note=60, velocity=68, time=6),\n",
       "    Message('note_off', channel=0, note=57, velocity=62, time=30),\n",
       "    Message('note_on', channel=0, note=50, velocity=69, time=50),\n",
       "    Message('note_off', channel=0, note=50, velocity=66, time=32),\n",
       "    Message('note_off', channel=0, note=60, velocity=47, time=49),\n",
       "    Message('control_change', channel=0, control=64, value=73, time=14),\n",
       "    Message('note_on', channel=0, note=62, velocity=71, time=13),\n",
       "    Message('control_change', channel=0, control=64, value=0, time=1),\n",
       "    Message('note_on', channel=0, note=58, velocity=61, time=13),\n",
       "    Message('note_off', channel=0, note=62, velocity=62, time=54),\n",
       "    Message('note_on', channel=0, note=56, velocity=65, time=48),\n",
       "    Message('note_off', channel=0, note=58, velocity=33, time=3),\n",
       "    Message('note_off', channel=0, note=56, velocity=66, time=27),\n",
       "    Message('note_off', channel=0, note=29, velocity=56, time=71),\n",
       "    Message('note_off', channel=0, note=41, velocity=61, time=0),\n",
       "    Message('note_on', channel=0, note=58, velocity=62, time=5),\n",
       "    Message('note_on', channel=0, note=63, velocity=55, time=4),\n",
       "    Message('note_off', channel=0, note=58, velocity=60, time=30),\n",
       "    Message('note_off', channel=0, note=63, velocity=65, time=0),\n",
       "    Message('note_on', channel=0, note=54, velocity=57, time=64),\n",
       "    Message('note_off', channel=0, note=54, velocity=65, time=29),\n",
       "    Message('note_on', channel=0, note=63, velocity=64, time=71),\n",
       "    Message('note_on', channel=0, note=30, velocity=50, time=9),\n",
       "    Message('note_on', channel=0, note=58, velocity=59, time=3),\n",
       "    Message('note_on', channel=0, note=42, velocity=48, time=3),\n",
       "    Message('control_change', channel=0, control=64, value=73, time=4),\n",
       "    Message('control_change', channel=0, control=64, value=127, time=15),\n",
       "    Message('note_off', channel=0, note=63, velocity=62, time=41),\n",
       "    Message('note_on', channel=0, note=51, velocity=71, time=35),\n",
       "    Message('note_off', channel=0, note=58, velocity=61, time=22),\n",
       "    Message('note_off', channel=0, note=51, velocity=58, time=14),\n",
       "    Message('note_on', channel=0, note=58, velocity=68, time=64),\n",
       "    Message('note_on', channel=0, note=54, velocity=65, time=4),\n",
       "    Message('note_off', channel=0, note=42, velocity=37, time=1),\n",
       "    Message('control_change', channel=0, control=64, value=78, time=12),\n",
       "    Message('control_change', channel=0, control=64, value=0, time=15),\n",
       "    Message('note_off', channel=0, note=54, velocity=54, time=14),\n",
       "    Message('note_on', channel=0, note=46, velocity=78, time=66),\n",
       "    Message('note_off', channel=0, note=46, velocity=66, time=27),\n",
       "    Message('note_off', channel=0, note=30, velocity=56, time=45),\n",
       "    Message('note_on', channel=0, note=60, velocity=73, time=35),\n",
       "    Message('note_on', channel=0, note=44, velocity=77, time=10),\n",
       "    Message('note_on', channel=0, note=53, velocity=68, time=2),\n",
       "    Message('note_on', channel=0, note=32, velocity=58, time=10),\n",
       "    Message('note_off', channel=0, note=58, velocity=36, time=16),\n",
       "    Message('note_off', channel=0, note=44, velocity=59, time=10),\n",
       "    Message('note_off', channel=0, note=53, velocity=65, time=3),\n",
       "    Message('note_off', channel=0, note=32, velocity=64, time=15),\n",
       "    Message('note_off', channel=0, note=60, velocity=62, time=7),\n",
       "    Message('note_on', channel=0, note=51, velocity=79, time=29),\n",
       "    Message('note_off', channel=0, note=51, velocity=67, time=24),\n",
       "    Message('note_on', channel=0, note=61, velocity=84, time=86),\n",
       "    Message('note_on', channel=0, note=29, velocity=72, time=3),\n",
       "    Message('note_on', channel=0, note=49, velocity=75, time=3),\n",
       "    Message('note_on', channel=0, note=41, velocity=53, time=6),\n",
       "    Message('note_off', channel=0, note=49, velocity=64, time=26),\n",
       "    Message('note_off', channel=0, note=29, velocity=67, time=1),\n",
       "    Message('note_off', channel=0, note=41, velocity=55, time=3),\n",
       "    Message('note_off', channel=0, note=61, velocity=60, time=42),\n",
       "    Message('note_on', channel=0, note=56, velocity=73, time=14),\n",
       "    Message('note_off', channel=0, note=56, velocity=65, time=30),\n",
       "    Message('note_on', channel=0, note=63, velocity=84, time=78),\n",
       "    Message('note_on', channel=0, note=42, velocity=90, time=3),\n",
       "    Message('note_on', channel=0, note=58, velocity=80, time=4),\n",
       "    Message('note_on', channel=0, note=30, velocity=81, time=1),\n",
       "    Message('control_change', channel=0, control=64, value=74, time=32),\n",
       "    Message('control_change', channel=0, control=64, value=127, time=15),\n",
       "    Message('note_off', channel=0, note=63, velocity=62, time=36),\n",
       "    Message('note_on', channel=0, note=51, velocity=84, time=12),\n",
       "    Message('note_off', channel=0, note=58, velocity=61, time=34),\n",
       "    Message('note_off', channel=0, note=51, velocity=63, time=18),\n",
       "    Message('note_on', channel=0, note=58, velocity=71, time=47),\n",
       "    Message('note_on', channel=0, note=54, velocity=73, time=2),\n",
       "    Message('note_off', channel=0, note=42, velocity=54, time=31),\n",
       "    Message('control_change', channel=0, control=64, value=65, time=12),\n",
       "    Message('control_change', channel=0, control=64, value=0, time=23),\n",
       "    Message('note_off', channel=0, note=54, velocity=55, time=22),\n",
       "    Message('note_on', channel=0, note=46, velocity=78, time=14),\n",
       "    Message('polytouch', channel=0, note=56, value=127, time=16),\n",
       "    Message('note_off', channel=0, note=46, velocity=64, time=18),\n",
       "    Message('note_off', channel=0, note=30, velocity=58, time=5),\n",
       "    Message('note_on', channel=0, note=53, velocity=39, time=49),\n",
       "    Message('note_on', channel=0, note=44, velocity=68, time=23),\n",
       "    Message('note_on', channel=0, note=32, velocity=58, time=4),\n",
       "    Message('note_on', channel=0, note=60, velocity=65, time=4),\n",
       "    Message('polytouch', channel=0, note=56, value=0, time=21),\n",
       "    Message('note_off', channel=0, note=44, velocity=59, time=12),\n",
       "    Message('note_off', channel=0, note=53, velocity=62, time=16),\n",
       "    Message('note_off', channel=0, note=58, velocity=21, time=6),\n",
       "    Message('note_off', channel=0, note=32, velocity=53, time=6),\n",
       "    Message('note_off', channel=0, note=60, velocity=64, time=19),\n",
       "    Message('note_on', channel=0, note=51, velocity=70, time=23),\n",
       "    Message('note_off', channel=0, note=51, velocity=64, time=31),\n",
       "    Message('note_on', channel=0, note=29, velocity=57, time=60),\n",
       "    Message('note_on', channel=0, note=61, velocity=68, time=7),\n",
       "    Message('note_on', channel=0, note=41, velocity=39, time=2),\n",
       "    Message('note_off', channel=0, note=61, velocity=67, time=28),\n",
       "    Message('note_off', channel=0, note=41, velocity=53, time=8),\n",
       "    Message('control_change', channel=0, control=64, value=63, time=6),\n",
       "    Message('note_off', channel=0, note=29, velocity=58, time=3),\n",
       "    Message('control_change', channel=0, control=64, value=73, time=12),\n",
       "    Message('control_change', channel=0, control=64, value=104, time=15),\n",
       "    Message('control_change', channel=0, control=64, value=127, time=15),\n",
       "    Message('note_on', channel=0, note=46, velocity=72, time=25),\n",
       "    Message('note_off', channel=0, note=46, velocity=63, time=63),\n",
       "    Message('control_change', channel=0, control=64, value=97, time=16),\n",
       "    Message('control_change', channel=0, control=64, value=53, time=15),\n",
       "    Message('note_on', channel=0, note=42, velocity=79, time=3),\n",
       "    Message('note_on', channel=0, note=30, velocity=69, time=4),\n",
       "    Message('note_on', channel=0, note=58, velocity=67, time=7),\n",
       "    Message('control_change', channel=0, control=64, value=0, time=1),\n",
       "    Message('note_off', channel=0, note=58, velocity=62, time=72),\n",
       "    Message('control_change', channel=0, control=64, value=73, time=2),\n",
       "    Message('note_on', channel=0, note=51, velocity=79, time=13),\n",
       "    Message('control_change', channel=0, control=64, value=127, time=1),\n",
       "    Message('note_off', channel=0, note=30, velocity=57, time=57),\n",
       "    Message('note_off', channel=0, note=42, velocity=63, time=1),\n",
       "    Message('control_change', channel=0, control=64, value=64, time=38),\n",
       "    Message('note_on', channel=0, note=63, velocity=79, time=4),\n",
       "    Message('control_change', channel=0, control=64, value=0, time=11),\n",
       "    Message('note_on', channel=0, note=43, velocity=70, time=1),\n",
       "    Message('note_off', channel=0, note=51, velocity=64, time=7),\n",
       "    Message('note_on', channel=0, note=31, velocity=57, time=6),\n",
       "    Message('note_off', channel=0, note=63, velocity=65, time=12),\n",
       "    Message('note_off', channel=0, note=43, velocity=68, time=6),\n",
       "    Message('note_off', channel=0, note=31, velocity=62, time=17),\n",
       "    Message('note_on', channel=0, note=48, velocity=82, time=48),\n",
       "    Message('note_off', channel=0, note=48, velocity=52, time=75),\n",
       "    Message('note_on', channel=0, note=44, velocity=93, time=20),\n",
       "    Message('note_on', channel=0, note=32, velocity=80, time=7),\n",
       "    Message('note_on', channel=0, note=60, velocity=81, time=0),\n",
       "    Message('control_change', channel=0, control=64, value=104, time=24),\n",
       "    Message('control_change', channel=0, control=64, value=127, time=14),\n",
       "    Message('note_off', channel=0, note=60, velocity=63, time=21),\n",
       "    Message('note_on', channel=0, note=53, velocity=90, time=35),\n",
       "    Message('note_off', channel=0, note=44, velocity=63, time=66),\n",
       "    Message('note_off', channel=0, note=32, velocity=62, time=4),\n",
       "    Message('note_on', channel=0, note=65, velocity=86, time=36),\n",
       "    Message('note_on', channel=0, note=45, velocity=93, time=16),\n",
       "    Message('note_off', channel=0, note=53, velocity=63, time=2),\n",
       "    Message('note_on', channel=0, note=33, velocity=82, time=4),\n",
       "    Message('control_change', channel=0, control=64, value=54, time=9),\n",
       "    Message('note_off', channel=0, note=65, velocity=64, time=6),\n",
       "    Message('control_change', channel=0, control=64, value=0, time=9),\n",
       "    Message('note_off', channel=0, note=33, velocity=64, time=3),\n",
       "    Message('note_off', channel=0, note=45, velocity=63, time=15),\n",
       "    Message('note_on', channel=0, note=50, velocity=91, time=36),\n",
       "    Message('note_off', channel=0, note=50, velocity=61, time=84),\n",
       "    Message('note_on', channel=0, note=46, velocity=97, time=20),\n",
       "    Message('note_on', channel=0, note=62, velocity=92, time=0),\n",
       "    Message('note_on', channel=0, note=34, velocity=87, time=5),\n",
       "    Message('control_change', channel=0, control=64, value=77, time=15),\n",
       "    Message('control_change', channel=0, control=64, value=127, time=14),\n",
       "    Message('note_off', channel=0, note=62, velocity=65, time=18),\n",
       "    Message('note_on', channel=0, note=55, velocity=96, time=48),\n",
       "    Message('note_off', channel=0, note=34, velocity=61, time=37),\n",
       "    Message('note_off', channel=0, note=46, velocity=63, time=0),\n",
       "    Message('control_change', channel=0, control=64, value=88, time=24),\n",
       "    Message('control_change', channel=0, control=64, value=0, time=14),\n",
       "    Message('note_off', channel=0, note=55, velocity=62, time=21),\n",
       "    Message('note_on', channel=0, note=47, velocity=102, time=16),\n",
       "    Message('note_on', channel=0, note=67, velocity=97, time=0),\n",
       "    Message('note_on', channel=0, note=35, velocity=83, time=4),\n",
       "    Message('note_off', channel=0, note=67, velocity=66, time=42),\n",
       "    Message('note_off', channel=0, note=35, velocity=61, time=1),\n",
       "    Message('note_off', channel=0, note=47, velocity=67, time=5),\n",
       "    Message('control_change', channel=0, control=64, value=62, time=15),\n",
       "    Message('control_change', channel=0, control=64, value=0, time=15),\n",
       "    Message('note_on', channel=0, note=60, velocity=96, time=22),\n",
       "    Message('note_off', channel=0, note=60, velocity=64, time=78),\n",
       "    Message('note_on', channel=0, note=72, velocity=101, time=25),\n",
       "    Message('note_on', channel=0, note=48, velocity=90, time=4),\n",
       "    Message('note_on', channel=0, note=36, velocity=88, time=3),\n",
       "    Message('control_change', channel=0, control=64, value=75, time=2),\n",
       "    Message('control_change', channel=0, control=64, value=127, time=15),\n",
       "    Message('note_off', channel=0, note=48, velocity=71, time=1),\n",
       "    Message('note_off', channel=0, note=36, velocity=68, time=12),\n",
       "    Message('note_off', channel=0, note=72, velocity=67, time=9),\n",
       "    Message('control_change', channel=0, control=64, value=0, time=7),\n",
       "    Message('note_on', channel=0, note=65, velocity=92, time=49),\n",
       "    Message('note_off', channel=0, note=65, velocity=66, time=75),\n",
       "    Message('note_on', channel=0, note=77, velocity=95, time=40),\n",
       "    Message('note_on', channel=0, note=41, velocity=91, time=6),\n",
       "    Message('note_on', channel=0, note=29, velocity=78, time=2),\n",
       "    Message('note_off', channel=0, note=41, velocity=71, time=21),\n",
       "    Message('note_off', channel=0, note=29, velocity=63, time=13),\n",
       "    Message('control_change', channel=0, control=64, value=127, time=2),\n",
       "    Message('note_on', channel=0, note=69, velocity=83, time=62),\n",
       "    Message('note_off', channel=0, note=77, velocity=62, time=23),\n",
       "    Message('note_off', channel=0, note=69, velocity=62, time=67),\n",
       "    Message('note_on', channel=0, note=77, velocity=90, time=15),\n",
       "    Message('note_on', channel=0, note=72, velocity=85, time=12),\n",
       "    Message('note_on', channel=0, note=65, velocity=81, time=95),\n",
       "    Message('note_off', channel=0, note=77, velocity=54, time=9),\n",
       "    Message('note_off', channel=0, note=65, velocity=59, time=68),\n",
       "    Message('note_off', channel=0, note=72, velocity=63, time=17),\n",
       "    Message('note_on', channel=0, note=74, velocity=88, time=28),\n",
       "    Message('note_on', channel=0, note=70, velocity=81, time=6),\n",
       "    Message('note_on', channel=0, note=62, velocity=80, time=88),\n",
       "    Message('note_off', channel=0, note=70, velocity=62, time=17),\n",
       "    Message('note_off', channel=0, note=74, velocity=56, time=29),\n",
       "    Message('note_off', channel=0, note=62, velocity=64, time=29),\n",
       "    Message('note_on', channel=0, note=67, velocity=88, time=25),\n",
       "    Message('note_on', channel=0, note=70, velocity=79, time=18),\n",
       "    Message('note_on', channel=0, note=74, velocity=92, time=3),\n",
       "    Message('control_change', channel=0, control=64, value=85, time=4),\n",
       "    Message('control_change', channel=0, control=64, value=0, time=15),\n",
       "    Message('note_off', channel=0, note=67, velocity=65, time=26),\n",
       "    Message('note_on', channel=0, note=65, velocity=85, time=41),\n",
       "    Message('note_off', channel=0, note=74, velocity=59, time=69),\n",
       "    Message('note_off', channel=0, note=65, velocity=62, time=7),\n",
       "    Message('note_off', channel=0, note=70, velocity=63, time=5),\n",
       "    Message('note_on', channel=0, note=64, velocity=77, time=25),\n",
       "    Message('note_on', channel=0, note=72, velocity=79, time=2),\n",
       "    Message('note_off', channel=0, note=72, velocity=63, time=47),\n",
       "    Message('note_off', channel=0, note=64, velocity=63, time=7),\n",
       "    Message('note_on', channel=0, note=60, velocity=74, time=44),\n",
       "    Message('note_off', channel=0, note=60, velocity=61, time=39),\n",
       "    Message('note_on', channel=0, note=65, velocity=69, time=61),\n",
       "    Message('note_on', channel=0, note=72, velocity=79, time=13),\n",
       "    Message('note_on', channel=0, note=69, velocity=63, time=9),\n",
       "    Message('note_off', channel=0, note=65, velocity=63, time=17),\n",
       "    Message('note_on', channel=0, note=57, velocity=72, time=64),\n",
       "    Message('note_off', channel=0, note=69, velocity=62, time=24),\n",
       "    Message('note_off', channel=0, note=57, velocity=62, time=26),\n",
       "    Message('note_off', channel=0, note=72, velocity=58, time=18),\n",
       "    Message('note_on', channel=0, note=62, velocity=73, time=38),\n",
       "    Message('note_on', channel=0, note=70, velocity=73, time=17),\n",
       "    Message('note_on', channel=0, note=65, velocity=67, time=2),\n",
       "    Message('note_off', channel=0, note=62, velocity=61, time=28),\n",
       "    Message('note_on', channel=0, note=55, velocity=73, time=58),\n",
       "    Message('note_off', channel=0, note=65, velocity=51, time=9),\n",
       "    Message('note_off', channel=0, note=55, velocity=65, time=18),\n",
       "    Message('note_off', channel=0, note=70, velocity=63, time=32),\n",
       "    Message('note_on', channel=0, note=60, velocity=66, time=49),\n",
       "    Message('note_on', channel=0, note=67, velocity=68, time=15),\n",
       "    Message('note_on', channel=0, note=64, velocity=68, time=1),\n",
       "    Message('note_off', channel=0, note=60, velocity=57, time=34),\n",
       "    Message('note_on', channel=0, note=58, velocity=62, time=46),\n",
       "    Message('note_off', channel=0, note=64, velocity=45, time=25),\n",
       "    Message('note_off', channel=0, note=58, velocity=62, time=40),\n",
       "    Message('note_off', channel=0, note=67, velocity=61, time=39),\n",
       "    Message('note_on', channel=0, note=57, velocity=65, time=15),\n",
       "    Message('note_on', channel=0, note=72, velocity=72, time=3),\n",
       "    Message('note_off', channel=0, note=57, velocity=65, time=27),\n",
       "    Message('note_on', channel=0, note=63, velocity=69, time=83),\n",
       "    Message('note_off', channel=0, note=72, velocity=60, time=10),\n",
       "    Message('note_off', channel=0, note=63, velocity=60, time=36),\n",
       "    Message('note_on', channel=0, note=75, velocity=77, time=53),\n",
       "    Message('note_on', channel=0, note=55, velocity=87, time=12),\n",
       "    Message('note_on', channel=0, note=70, velocity=56, time=18),\n",
       "    Message('control_change', channel=0, control=64, value=66, time=22),\n",
       "    Message('control_change', channel=0, control=64, value=127, time=15),\n",
       "    Message('note_off', channel=0, note=75, velocity=62, time=36),\n",
       "    Message('note_on', channel=0, note=62, velocity=81, time=7),\n",
       "    Message('note_off', channel=0, note=70, velocity=58, time=2),\n",
       "    Message('note_off', channel=0, note=62, velocity=61, time=57),\n",
       "    Message('note_on', channel=0, note=74, velocity=81, time=40),\n",
       "    Message('note_on', channel=0, note=70, velocity=73, time=3),\n",
       "    Message('note_off', channel=0, note=74, velocity=70, time=19),\n",
       "    Message('note_off', channel=0, note=70, velocity=62, time=30),\n",
       "    Message('note_on', channel=0, note=57, velocity=80, time=49),\n",
       "    Message('note_on', channel=0, note=66, velocity=47, time=30),\n",
       "    Message('note_off', channel=0, note=57, velocity=60, time=4),\n",
       "    Message('control_change', channel=0, control=64, value=70, time=5),\n",
       "    Message('control_change', channel=0, control=64, value=0, time=15),\n",
       "    Message('note_off', channel=0, note=66, velocity=57, time=6),\n",
       "    Message('note_off', channel=0, note=55, velocity=54, time=39),\n",
       "    Message('note_on', channel=0, note=54, velocity=86, time=5),\n",
       "    Message('note_on', channel=0, note=69, velocity=78, time=5),\n",
       "    Message('note_on', channel=0, note=62, velocity=74, time=4),\n",
       "    Message('control_change', channel=0, control=64, value=64, time=29),\n",
       "    Message('control_change', channel=0, control=64, value=107, time=15),\n",
       "    Message('control_change', channel=0, control=64, value=127, time=15),\n",
       "    Message('note_off', channel=0, note=62, velocity=66, time=36),\n",
       "    Message('note_on', channel=0, note=60, velocity=68, time=2),\n",
       "    Message('note_off', channel=0, note=60, velocity=68, time=24),\n",
       "    Message('note_off', channel=0, note=54, velocity=62, time=63),\n",
       "    Message('note_on', channel=0, note=70, velocity=78, time=15),\n",
       "    Message('control_change', channel=0, control=64, value=75, time=1),\n",
       "    Message('note_off', channel=0, note=69, velocity=61, time=7),\n",
       "    Message('note_on', channel=0, note=58, velocity=62, time=7),\n",
       "    Message('control_change', channel=0, control=64, value=0, time=1),\n",
       "    Message('note_on', channel=0, note=55, velocity=68, time=3),\n",
       "    Message('note_off', channel=0, note=70, velocity=67, time=8),\n",
       "    Message('note_off', channel=0, note=58, velocity=63, time=9),\n",
       "    Message('note_off', channel=0, note=55, velocity=60, time=21),\n",
       "    Message('note_on', channel=0, note=48, velocity=68, time=52),\n",
       "    Message('note_off', channel=0, note=48, velocity=66, time=33),\n",
       "    Message('note_on', channel=0, note=69, velocity=65, time=78),\n",
       "    Message('note_on', channel=0, note=53, velocity=56, time=2),\n",
       "    Message('note_on', channel=0, note=60, velocity=52, time=7),\n",
       "    Message('note_on', channel=0, note=65, velocity=54, time=3),\n",
       "    Message('note_off', channel=0, note=53, velocity=64, time=23),\n",
       "    Message('note_off', channel=0, note=60, velocity=65, time=7),\n",
       "    Message('note_off', channel=0, note=65, velocity=56, time=21),\n",
       "    Message('note_off', channel=0, note=69, velocity=60, time=1),\n",
       "    Message('note_on', channel=0, note=45, velocity=68, time=32),\n",
       "    Message('note_off', channel=0, note=45, velocity=64, time=31),\n",
       "    Message('note_on', channel=0, note=67, velocity=59, time=84),\n",
       "    Message('note_on', channel=0, note=65, velocity=56, time=8),\n",
       "    Message('note_on', channel=0, note=62, velocity=61, time=3),\n",
       "    Message('note_on', channel=0, note=46, velocity=69, time=14),\n",
       "    Message('note_off', channel=0, note=46, velocity=67, time=33),\n",
       "    Message('note_on', channel=0, note=43, velocity=73, time=107),\n",
       "    Message('note_off', channel=0, note=43, velocity=67, time=29),\n",
       "    Message('note_off', channel=0, note=67, velocity=37, time=21),\n",
       "    Message('note_off', channel=0, note=65, velocity=50, time=132),\n",
       "    Message('note_on', channel=0, note=48, velocity=69, time=10),\n",
       "    Message('note_on', channel=0, note=64, velocity=62, time=13),\n",
       "    Message('note_on', channel=0, note=60, velocity=53, time=2),\n",
       "    Message('note_off', channel=0, note=48, velocity=63, time=17),\n",
       "    Message('note_off', channel=0, note=62, velocity=57, time=10),\n",
       "    Message('note_on', channel=0, note=46, velocity=62, time=197),\n",
       "    Message('note_off', channel=0, note=46, velocity=65, time=26),\n",
       "    Message('note_off', channel=0, note=60, velocity=31, time=121),\n",
       "    Message('note_on', channel=0, note=53, velocity=53, time=230),\n",
       "    Message('note_on', channel=0, note=45, velocity=50, time=9),\n",
       "    Message('note_on', channel=0, note=65, velocity=57, time=16),\n",
       "    Message('note_off', channel=0, note=64, velocity=52, time=1),\n",
       "    Message('note_on', channel=0, note=60, velocity=38, time=19),\n",
       "    Message('note_on', channel=0, note=51, velocity=35, time=924),\n",
       "    Message('note_off', channel=0, note=53, velocity=64, time=74),\n",
       "    Message('control_change', channel=0, control=64, value=26, time=186),\n",
       "    Message('control_change', channel=0, control=64, value=54, time=15),\n",
       "    Message('control_change', channel=0, control=64, value=64, time=15),\n",
       "    Message('control_change', channel=0, control=64, value=70, time=15),\n",
       "    Message('control_change', channel=0, control=64, value=82, time=15),\n",
       "    Message('control_change', channel=0, control=64, value=127, time=14),\n",
       "    Message('note_off', channel=0, note=45, velocity=51, time=36),\n",
       "    Message('note_off', channel=0, note=60, velocity=33, time=12),\n",
       "    Message('note_off', channel=0, note=65, velocity=39, time=41),\n",
       "    Message('note_on', channel=0, note=58, velocity=40, time=643),\n",
       "    Message('note_on', channel=0, note=46, velocity=42, time=5),\n",
       "    Message('note_off', channel=0, note=51, velocity=45, time=2),\n",
       "    Message('note_on', channel=0, note=70, velocity=48, time=2),\n",
       "    Message('note_on', channel=0, note=50, velocity=36, time=1),\n",
       "    Message('control_change', channel=0, control=64, value=106, time=21),\n",
       "    Message('control_change', channel=0, control=64, value=79, time=15),\n",
       "    Message('control_change', channel=0, control=64, value=66, time=15),\n",
       "    Message('control_change', channel=0, control=64, value=54, time=15),\n",
       "    Message('control_change', channel=0, control=64, value=0, time=14),\n",
       "    Message('control_change', channel=0, control=64, value=40, time=75),\n",
       "    Message('control_change', channel=0, control=64, value=58, time=15),\n",
       "    Message('control_change', channel=0, control=64, value=64, time=15),\n",
       "    Message('control_change', channel=0, control=64, value=70, time=15),\n",
       "    Message('control_change', channel=0, control=64, value=84, time=15),\n",
       "    Message('note_off', channel=0, note=58, velocity=38, time=12),\n",
       "    Message('control_change', channel=0, control=64, value=127, time=2),\n",
       "    Message('note_off', channel=0, note=50, velocity=29, time=203),\n",
       "    Message('note_on', channel=0, note=72, velocity=68, time=27),\n",
       "    Message('note_on', channel=0, note=60, velocity=43, time=4),\n",
       "    Message('note_on', channel=0, note=53, velocity=40, time=5),\n",
       "    Message('note_off', channel=0, note=70, velocity=60, time=2),\n",
       "    Message('note_off', channel=0, note=46, velocity=40, time=38),\n",
       "    Message('note_off', channel=0, note=60, velocity=38, time=80),\n",
       "    Message('note_off', channel=0, note=53, velocity=58, time=133),\n",
       "    Message('note_on', channel=0, note=46, velocity=47, time=32),\n",
       "    Message('control_change', channel=0, control=64, value=105, time=2),\n",
       "    Message('note_on', channel=0, note=58, velocity=47, time=1),\n",
       "    Message('note_on', channel=0, note=74, velocity=75, time=7),\n",
       "    Message('control_change', channel=0, control=64, value=73, time=7),\n",
       "    Message('note_on', channel=0, note=62, velocity=57, time=5),\n",
       "    Message('control_change', channel=0, control=64, value=59, time=10),\n",
       "    Message('control_change', channel=0, control=64, value=0, time=15),\n",
       "    Message('note_off', channel=0, note=72, velocity=39, time=7),\n",
       "    Message('note_off', channel=0, note=46, velocity=62, time=17),\n",
       "    Message('control_change', channel=0, control=64, value=62, time=20),\n",
       "    Message('control_change', channel=0, control=64, value=72, time=15),\n",
       "    Message('control_change', channel=0, control=64, value=115, time=15),\n",
       "    Message('note_off', channel=0, note=62, velocity=57, time=14),\n",
       "    Message('control_change', channel=0, control=64, value=127, time=1),\n",
       "    Message('note_off', channel=0, note=58, velocity=45, time=39),\n",
       "    Message('note_off', channel=0, note=74, velocity=64, time=58),\n",
       "    Message('note_on', channel=0, note=77, velocity=80, time=124),\n",
       "    Message('note_on', channel=0, note=65, velocity=59, time=13),\n",
       "    Message('note_on', channel=0, note=62, velocity=40, time=13),\n",
       "    Message('note_off', channel=0, note=65, velocity=56, time=85),\n",
       "    Message('note_off', channel=0, note=62, velocity=51, time=1),\n",
       "    Message('note_on', channel=0, note=79, velocity=84, time=173),\n",
       "    Message('note_on', channel=0, note=63, velocity=49, time=5),\n",
       "    Message('note_off', channel=0, note=77, velocity=57, time=1),\n",
       "    Message('note_on', channel=0, note=67, velocity=61, time=6),\n",
       "    Message('control_change', channel=0, control=64, value=98, time=9),\n",
       "    Message('control_change', channel=0, control=64, value=69, time=15),\n",
       "    Message('control_change', channel=0, control=64, value=49, time=14),\n",
       "    Message('control_change', channel=0, control=64, value=29, time=15),\n",
       "    Message('control_change', channel=0, control=64, value=64, time=15),\n",
       "    Message('control_change', channel=0, control=64, value=77, time=15),\n",
       "    Message('control_change', channel=0, control=64, value=127, time=14),\n",
       "    Message('note_off', channel=0, note=67, velocity=49, time=5),\n",
       "    Message('note_off', channel=0, note=63, velocity=60, time=80),\n",
       "    Message('note_off', channel=0, note=79, velocity=63, time=42),\n",
       "    Message('note_on', channel=0, note=77, velocity=74, time=22),\n",
       "    Message('note_on', channel=0, note=62, velocity=54, time=3),\n",
       "    Message('note_on', channel=0, note=65, velocity=68, time=2),\n",
       "    Message('note_off', channel=0, note=65, velocity=68, time=27),\n",
       "    Message('note_off', channel=0, note=77, velocity=62, time=26),\n",
       "    Message('note_off', channel=0, note=62, velocity=61, time=26),\n",
       "    Message('note_on', channel=0, note=74, velocity=73, time=172),\n",
       "    Message('control_change', channel=0, control=64, value=76, time=5),\n",
       "    Message('note_on', channel=0, note=58, velocity=46, time=3),\n",
       "    Message('note_on', channel=0, note=62, velocity=66, time=3),\n",
       "    Message('control_change', channel=0, control=64, value=64, time=8),\n",
       "    Message('control_change', channel=0, control=64, value=58, time=15),\n",
       "    Message('control_change', channel=0, control=64, value=64, time=15),\n",
       "    Message('note_off', channel=0, note=58, velocity=54, time=13),\n",
       "    Message('control_change', channel=0, control=64, value=70, time=2),\n",
       "    Message('control_change', channel=0, control=64, value=104, time=15),\n",
       "    Message('control_change', channel=0, control=64, value=127, time=14),\n",
       "    Message('note_off', channel=0, note=74, velocity=61, time=21),\n",
       "    Message('note_off', channel=0, note=62, velocity=58, time=7),\n",
       "    Message('note_on', channel=0, note=53, velocity=45, time=164),\n",
       "    Message('note_on', channel=0, note=58, velocity=66, time=13),\n",
       "    Message('note_on', channel=0, note=70, velocity=63, time=5),\n",
       "    Message('note_off', channel=0, note=53, velocity=63, time=20),\n",
       "    Message('note_off', channel=0, note=58, velocity=58, time=12),\n",
       "    Message('note_off', channel=0, note=70, velocity=64, time=24),\n",
       "    Message('note_on', channel=0, note=41, velocity=59, time=114),\n",
       "    Message('note_on', channel=0, note=51, velocity=43, time=303),\n",
       "    Message('note_on', channel=0, note=53, velocity=41, time=6),\n",
       "    Message('note_on', channel=0, note=65, velocity=58, time=41),\n",
       "    Message('note_on', channel=0, note=57, velocity=50, time=4),\n",
       "    Message('note_on', channel=0, note=60, velocity=46, time=12),\n",
       "    Message('control_change', channel=0, control=64, value=100, time=33),\n",
       "    Message('control_change', channel=0, control=64, value=84, time=15),\n",
       "    Message('control_change', channel=0, control=64, value=72, time=15),\n",
       "    Message('control_change', channel=0, control=64, value=66, time=14),\n",
       "    Message('control_change', channel=0, control=64, value=61, time=15),\n",
       "    Message('control_change', channel=0, control=64, value=49, time=15),\n",
       "    Message('control_change', channel=0, control=64, value=17, time=15),\n",
       "    Message('control_change', channel=0, control=64, value=0, time=15),\n",
       "    Message('control_change', channel=0, control=64, value=22, time=777),\n",
       "    Message('control_change', channel=0, control=64, value=56, time=15),\n",
       "    Message('control_change', channel=0, control=64, value=64, time=15),\n",
       "    Message('control_change', channel=0, control=64, value=67, time=15),\n",
       "    Message('control_change', channel=0, control=64, value=76, time=14),\n",
       "    Message('control_change', channel=0, control=64, value=127, time=15),\n",
       "    Message('note_off', channel=0, note=65, velocity=38, time=56),\n",
       "    Message('note_off', channel=0, note=41, velocity=43, time=51),\n",
       "    Message('note_off', channel=0, note=57, velocity=51, time=40),\n",
       "    Message('note_off', channel=0, note=60, velocity=40, time=10),\n",
       "    Message('note_off', channel=0, note=51, velocity=43, time=160),\n",
       "    Message('note_on', channel=0, note=50, velocity=34, time=743),\n",
       "    Message('note_on', channel=0, note=70, velocity=47, time=1),\n",
       "    Message('note_on', channel=0, note=58, velocity=33, time=5),\n",
       "    Message('control_change', channel=0, control=64, value=92, time=17),\n",
       "    Message('control_change', channel=0, control=64, value=72, time=15),\n",
       "    Message('note_off', channel=0, note=53, velocity=44, time=7),\n",
       "    Message('control_change', channel=0, control=64, value=62, time=8),\n",
       "    Message('control_change', channel=0, control=64, value=0, time=15),\n",
       "    Message('control_change', channel=0, control=64, value=58, time=44),\n",
       "    Message('control_change', channel=0, control=64, value=65, time=14),\n",
       "    Message('control_change', channel=0, control=64, value=70, time=15),\n",
       "    Message('control_change', channel=0, control=64, value=83, time=15),\n",
       "    Message('control_change', channel=0, control=64, value=127, time=15),\n",
       "    Message('note_off', channel=0, note=58, velocity=56, time=38),\n",
       "    Message('note_on', channel=0, note=60, velocity=42, time=193),\n",
       "    Message('note_on', channel=0, note=72, velocity=58, time=1),\n",
       "    Message('note_on', channel=0, note=53, velocity=32, time=1),\n",
       "    Message('note_off', channel=0, note=70, velocity=52, time=13),\n",
       "    Message('note_off', channel=0, note=50, velocity=39, time=7),\n",
       "    Message('note_off', channel=0, note=60, velocity=41, time=128),\n",
       "    Message('control_change', channel=0, control=64, value=102, time=146),\n",
       "    Message('note_off', channel=0, note=53, velocity=37, time=3),\n",
       "    Message('control_change', channel=0, control=64, value=72, time=12),\n",
       "    Message('note_on', channel=0, note=74, velocity=66, time=7),\n",
       "    Message('note_on', channel=0, note=46, velocity=35, time=4),\n",
       "    Message('note_on', channel=0, note=62, velocity=50, time=0),\n",
       "    Message('control_change', channel=0, control=64, value=56, time=3),\n",
       "    Message('note_on', channel=0, note=58, velocity=22, time=8),\n",
       "    Message('control_change', channel=0, control=64, value=0, time=7),\n",
       "    Message('note_off', channel=0, note=72, velocity=40, time=35),\n",
       "    Message('control_change', channel=0, control=64, value=55, time=10),\n",
       "    Message('control_change', channel=0, control=64, value=66, time=15),\n",
       "    Message('control_change', channel=0, control=64, value=76, time=15),\n",
       "    Message('control_change', channel=0, control=64, value=127, time=14),\n",
       "    Message('note_off', channel=0, note=46, velocity=61, time=3),\n",
       "    Message('note_off', channel=0, note=58, velocity=38, time=71),\n",
       "    Message('note_off', channel=0, note=62, velocity=38, time=1),\n",
       "    Message('note_off', channel=0, note=74, velocity=55, time=63),\n",
       "    Message('note_on', channel=0, note=77, velocity=72, time=125),\n",
       "    Message('note_on', channel=0, note=62, velocity=41, time=11),\n",
       "    Message('note_on', channel=0, note=65, velocity=50, time=1),\n",
       "    Message('note_off', channel=0, note=65, velocity=39, time=158),\n",
       "    Message('note_off', channel=0, note=62, velocity=34, time=47),\n",
       "    Message('note_off', channel=0, note=77, velocity=53, time=72),\n",
       "    Message('note_on', channel=0, note=79, velocity=82, time=3),\n",
       "    Message('note_on', channel=0, note=63, velocity=45, time=7),\n",
       "    Message('note_on', channel=0, note=67, velocity=55, time=10),\n",
       "    Message('note_off', channel=0, note=67, velocity=49, time=64),\n",
       "    Message('note_off', channel=0, note=63, velocity=57, time=45),\n",
       "    Message('note_off', channel=0, note=79, velocity=56, time=89),\n",
       "    Message('note_on', channel=0, note=77, velocity=70, time=46),\n",
       "    Message('note_on', channel=0, note=65, velocity=67, time=9),\n",
       "    Message('note_on', channel=0, note=62, velocity=49, time=1),\n",
       "    Message('note_off', channel=0, note=65, velocity=62, time=38),\n",
       "    Message('note_off', channel=0, note=77, velocity=61, time=15),\n",
       "    Message('note_off', channel=0, note=62, velocity=61, time=15),\n",
       "    Message('note_on', channel=0, note=74, velocity=76, time=183),\n",
       "    Message('note_on', channel=0, note=58, velocity=42, time=5),\n",
       "    Message('note_on', channel=0, note=62, velocity=66, time=8),\n",
       "    Message('note_off', channel=0, note=58, velocity=64, time=28),\n",
       "    Message('note_off', channel=0, note=62, velocity=63, time=6),\n",
       "    Message('note_off', channel=0, note=74, velocity=63, time=38),\n",
       "    Message('note_on', channel=0, note=70, velocity=69, time=222),\n",
       "    Message('note_on', channel=0, note=53, velocity=41, time=1),\n",
       "    Message('note_on', channel=0, note=58, velocity=53, time=7),\n",
       "    Message('note_off', channel=0, note=58, velocity=66, time=36),\n",
       "    Message('note_off', channel=0, note=53, velocity=58, time=11),\n",
       "    Message('note_off', channel=0, note=70, velocity=64, time=6),\n",
       "    Message('note_on', channel=0, note=41, velocity=57, time=137),\n",
       "    Message('note_on', channel=0, note=53, velocity=29, time=319),\n",
       "    Message('note_on', channel=0, note=51, velocity=39, time=20),\n",
       "    Message('note_on', channel=0, note=65, velocity=62, time=11),\n",
       "    Message('note_on', channel=0, note=57, velocity=52, time=20),\n",
       "    Message('note_on', channel=0, note=60, velocity=44, time=5),\n",
       "    Message('control_change', channel=0, control=64, value=101, time=45),\n",
       "    Message('control_change', channel=0, control=64, value=87, time=15),\n",
       "    Message('control_change', channel=0, control=64, value=77, time=15),\n",
       "    Message('control_change', channel=0, control=64, value=69, time=15),\n",
       "    Message('control_change', channel=0, control=64, value=64, time=14),\n",
       "    Message('control_change', channel=0, control=64, value=58, time=15),\n",
       "    Message('control_change', channel=0, control=64, value=39, time=15),\n",
       "    Message('control_change', channel=0, control=64, value=0, time=22),\n",
       "    Message('control_change', channel=0, control=64, value=29, time=489),\n",
       "    Message('control_change', channel=0, control=64, value=53, time=14),\n",
       "    Message('control_change', channel=0, control=64, value=59, time=15),\n",
       "    Message('control_change', channel=0, control=64, value=62, time=15),\n",
       "    Message('control_change', channel=0, control=64, value=64, time=15),\n",
       "    Message('control_change', channel=0, control=64, value=66, time=15),\n",
       "    Message('control_change', channel=0, control=64, value=68, time=14),\n",
       "    Message('control_change', channel=0, control=64, value=73, time=15),\n",
       "    Message('control_change', channel=0, control=64, value=90, time=15),\n",
       "    Message('control_change', channel=0, control=64, value=127, time=14),\n",
       "    Message('note_off', channel=0, note=65, velocity=39, time=167),\n",
       "    Message('note_off', channel=0, note=41, velocity=40, time=20),\n",
       "    Message('note_off', channel=0, note=60, velocity=43, time=34),\n",
       "    Message('note_off', channel=0, note=57, velocity=36, time=6),\n",
       "    Message('note_off', channel=0, note=51, velocity=45, time=220),\n",
       "    Message('note_on', channel=0, note=70, velocity=50, time=641),\n",
       "    Message('note_on', channel=0, note=50, velocity=29, time=4),\n",
       "    Message('note_on', channel=0, note=58, velocity=34, time=5),\n",
       "    Message('control_change', channel=0, control=64, value=83, time=16),\n",
       "    Message('control_change', channel=0, control=64, value=66, time=15),\n",
       "    Message('note_off', channel=0, note=53, velocity=45, time=11),\n",
       "    Message('control_change', channel=0, control=64, value=53, time=4),\n",
       "    Message('control_change', channel=0, control=64, value=28, time=14),\n",
       "    Message('control_change', channel=0, control=64, value=50, time=15),\n",
       "    Message('control_change', channel=0, control=64, value=62, time=15),\n",
       "    Message('control_change', channel=0, control=64, value=65, time=15),\n",
       "    Message('control_change', channel=0, control=64, value=70, time=15),\n",
       "    Message('control_change', channel=0, control=64, value=85, time=14),\n",
       "    Message('control_change', channel=0, control=64, value=127, time=15),\n",
       "    Message('note_off', channel=0, note=58, velocity=51, time=34),\n",
       "    Message('note_off', channel=0, note=70, velocity=60, time=232),\n",
       "    Message('note_on', channel=0, note=72, velocity=68, time=4),\n",
       "    Message('note_off', channel=0, note=50, velocity=38, time=5),\n",
       "    Message('note_on', channel=0, note=53, velocity=34, time=7),\n",
       "    Message('note_on', channel=0, note=60, velocity=36, time=10),\n",
       "    Message('note_off', channel=0, note=60, velocity=42, time=120),\n",
       "    Message('note_off', channel=0, note=53, velocity=36, time=196),\n",
       "    Message('note_on', channel=0, note=46, velocity=39, time=9),\n",
       "    Message('control_change', channel=0, control=64, value=91, time=13),\n",
       "    Message('note_on', channel=0, note=58, velocity=27, time=7),\n",
       "    Message('note_on', channel=0, note=74, velocity=67, time=8),\n",
       "    Message('control_change', channel=0, control=64, value=68, time=0),\n",
       "    Message('control_change', channel=0, control=64, value=0, time=15),\n",
       "    Message('note_on', channel=0, note=62, velocity=44, time=2),\n",
       "    Message('note_off', channel=0, note=72, velocity=30, time=39),\n",
       "    Message('control_change', channel=0, control=64, value=62, time=33),\n",
       "    Message('control_change', channel=0, control=64, value=72, time=14),\n",
       "    Message('note_off', channel=0, note=46, velocity=61, time=9),\n",
       "    Message('control_change', channel=0, control=64, value=93, time=6),\n",
       "    Message('control_change', channel=0, control=64, value=127, time=15),\n",
       "    Message('note_off', channel=0, note=62, velocity=35, time=12),\n",
       "    Message('note_off', channel=0, note=58, velocity=51, time=45),\n",
       "    Message('note_on', channel=0, note=65, velocity=31, time=301),\n",
       "    Message('note_on', channel=0, note=62, velocity=31, time=36),\n",
       "    Message('note_off', channel=0, note=65, velocity=60, time=110),\n",
       "    Message('note_off', channel=0, note=62, velocity=36, time=86),\n",
       "    Message('note_on', channel=0, note=63, velocity=39, time=72),\n",
       "    Message('note_on', channel=0, note=67, velocity=45, time=0),\n",
       "    Message('note_off', channel=0, note=63, velocity=46, time=102),\n",
       "    Message('note_off', channel=0, note=67, velocity=59, time=4),\n",
       "    Message('note_on', channel=0, note=62, velocity=37, time=138),\n",
       "    Message('note_on', channel=0, note=65, velocity=50, time=17),\n",
       "    Message('note_off', channel=0, note=62, velocity=37, time=97),\n",
       "    Message('note_on', channel=0, note=62, velocity=55, time=120),\n",
       "    Message('note_on', channel=0, note=58, velocity=46, time=20),\n",
       "    Message('note_off', channel=0, note=74, velocity=37, time=16),\n",
       "    Message('note_off', channel=0, note=58, velocity=54, time=41),\n",
       "    Message('note_on', channel=0, note=58, velocity=43, time=157),\n",
       "    Message('note_on', channel=0, note=53, velocity=52, time=6),\n",
       "    Message('note_off', channel=0, note=53, velocity=59, time=70),\n",
       "    Message('note_off', channel=0, note=58, velocity=56, time=13),\n",
       "    Message('note_on', channel=0, note=70, velocity=82, time=9),\n",
       "    Message('note_off', channel=0, note=65, velocity=59, time=34),\n",
       "    Message('note_off', channel=0, note=62, velocity=39, time=38),\n",
       "    Message('note_on', channel=0, note=57, velocity=55, time=138),\n",
       "    Message('note_on', channel=0, note=48, velocity=46, time=3),\n",
       "    Message('note_off', channel=0, note=70, velocity=61, time=15),\n",
       "    Message('control_change', channel=0, control=64, value=122, time=35),\n",
       "    Message('control_change', channel=0, control=64, value=72, time=15),\n",
       "    Message('note_on', channel=0, note=77, velocity=86, time=8),\n",
       "    Message('control_change', channel=0, control=64, value=0, time=7),\n",
       "    Message('note_on', channel=0, note=65, velocity=63, time=12),\n",
       "    Message('control_change', channel=0, control=64, value=55, time=71),\n",
       "    Message('control_change', channel=0, control=64, value=67, time=15),\n",
       "    Message('control_change', channel=0, control=64, value=87, time=15),\n",
       "    Message('control_change', channel=0, control=64, value=127, time=15),\n",
       "    Message('note_off', channel=0, note=65, velocity=54, time=57),\n",
       "    Message('note_off', channel=0, note=48, velocity=35, time=80),\n",
       "    Message('note_off', channel=0, note=57, velocity=32, time=97),\n",
       "    Message('note_on', channel=0, note=60, velocity=43, time=13),\n",
       "    Message('note_on', channel=0, note=69, velocity=52, time=7),\n",
       "    Message('note_off', channel=0, note=60, velocity=61, time=231),\n",
       "    Message('note_on', channel=0, note=62, velocity=57, time=11),\n",
       "    Message('note_on', channel=0, note=70, velocity=63, time=2),\n",
       "    Message('note_off', channel=0, note=69, velocity=61, time=3),\n",
       "    Message('note_off', channel=0, note=77, velocity=59, time=62),\n",
       "    Message('note_on', channel=0, note=69, velocity=69, time=144),\n",
       "    Message('note_on', channel=0, note=60, velocity=54, time=7),\n",
       "    Message('note_off', channel=0, note=62, velocity=51, time=19),\n",
       "    Message('note_on', channel=0, note=76, velocity=87, time=75),\n",
       "    Message('note_off', channel=0, note=69, velocity=59, time=70),\n",
       "    Message('note_off', channel=0, note=76, velocity=60, time=22),\n",
       "    Message('note_off', channel=0, note=60, velocity=56, time=7),\n",
       "    Message('note_off', channel=0, note=70, velocity=39, time=15),\n",
       "    Message('note_on', channel=0, note=57, velocity=56, time=5),\n",
       "    Message('note_on', channel=0, note=74, velocity=89, time=9),\n",
       "    Message('note_on', channel=0, note=65, velocity=60, time=4),\n",
       "    Message('note_off', channel=0, note=57, velocity=54, time=35),\n",
       "    Message('note_off', channel=0, note=65, velocity=62, time=147),\n",
       "    Message('note_on', channel=0, note=60, velocity=50, time=69),\n",
       "    Message('note_on', channel=0, note=53, velocity=45, time=2),\n",
       "    Message('note_off', channel=0, note=74, velocity=32, time=11),\n",
       "    Message('note_off', channel=0, note=60, velocity=65, time=12),\n",
       "    Message('note_off', channel=0, note=53, velocity=64, time=21),\n",
       "    Message('note_on', channel=0, note=72, velocity=86, time=89),\n",
       "    Message('note_on', channel=0, note=36, velocity=66, time=94),\n",
       "    Message('note_off', channel=0, note=72, velocity=62, time=10),\n",
       "    Message('control_change', channel=0, control=64, value=98, time=229),\n",
       "    Message('note_on', channel=0, note=51, velocity=67, time=7),\n",
       "    Message('control_change', channel=0, control=64, value=66, time=8),\n",
       "    Message('control_change', channel=0, control=64, value=0, time=15),\n",
       "    Message('note_on', channel=0, note=72, velocity=81, time=3),\n",
       "    Message('note_on', channel=0, note=58, velocity=59, time=12),\n",
       "    Message('polytouch', channel=0, note=38, value=127, time=8),\n",
       "    Message('control_change', channel=0, control=64, value=63, time=80),\n",
       "    Message('control_change', channel=0, control=64, value=77, time=15),\n",
       "    Message('control_change', channel=0, control=64, value=127, time=14),\n",
       "    Message('note_off', channel=0, note=58, velocity=35, time=59),\n",
       "    Message('note_off', channel=0, note=36, velocity=33, time=39),\n",
       "    Message('polytouch', channel=0, note=38, value=0, time=40),\n",
       "    Message('note_off', channel=0, note=51, velocity=57, time=57),\n",
       "    Message('control_change', channel=0, control=64, value=101, time=102),\n",
       "    Message('note_on', channel=0, note=60, velocity=54, time=5),\n",
       "    Message('note_on', channel=0, note=52, velocity=45, time=8),\n",
       "    Message('control_change', channel=0, control=64, value=70, time=2),\n",
       "    Message('control_change', channel=0, control=64, value=57, time=15),\n",
       "    Message('control_change', channel=0, control=64, value=13, time=15),\n",
       "    Message('control_change', channel=0, control=64, value=52, time=14),\n",
       "    Message('control_change', channel=0, control=64, value=64, time=23),\n",
       "    Message('control_change', channel=0, control=64, value=71, time=15),\n",
       "    Message('control_change', channel=0, control=64, value=99, time=14),\n",
       "    Message('control_change', channel=0, control=64, value=127, time=15),\n",
       "    Message('note_off', channel=0, note=52, velocity=61, time=26),\n",
       "    Message('note_off', channel=0, note=60, velocity=53, time=4),\n",
       "    Message('note_on', channel=0, note=69, velocity=60, time=178),\n",
       "    Message('note_on', channel=0, note=60, velocity=39, time=25),\n",
       "    Message('note_off', channel=0, note=60, velocity=49, time=125),\n",
       "    Message('note_off', channel=0, note=69, velocity=61, time=0),\n",
       "    Message('note_off', channel=0, note=72, velocity=55, time=37),\n",
       "    Message('note_on', channel=0, note=58, velocity=48, time=61),\n",
       "    Message('note_on', channel=0, note=70, velocity=71, time=2),\n",
       "    Message('note_on', channel=0, note=67, velocity=61, time=12),\n",
       "    Message('note_off', channel=0, note=67, velocity=65, time=32),\n",
       "    Message('note_off', channel=0, note=58, velocity=60, time=63),\n",
       "    Message('note_off', channel=0, note=70, velocity=53, time=53),\n",
       "    Message('note_on', channel=0, note=55, velocity=50, time=125),\n",
       "    Message('note_on', channel=0, note=69, velocity=72, time=13),\n",
       "    Message('note_on', channel=0, note=64, velocity=59, time=23),\n",
       "    Message('control_change', channel=0, control=64, value=109, time=0),\n",
       "    Message('control_change', channel=0, control=64, value=70, time=15),\n",
       "    Message('control_change', channel=0, control=64, value=0, time=15),\n",
       "    Message('control_change', channel=0, control=64, value=28, time=60),\n",
       "    Message('control_change', channel=0, control=64, value=64, time=15),\n",
       "    Message('control_change', channel=0, control=64, value=70, time=15),\n",
       "    Message('control_change', channel=0, control=64, value=82, time=14),\n",
       "    Message('control_change', channel=0, control=64, value=127, time=15),\n",
       "    Message('note_off', channel=0, note=55, velocity=55, time=48),\n",
       "    Message('note_on', channel=0, note=60, velocity=52, time=14),\n",
       "    Message('note_on', channel=0, note=52, velocity=43, time=36),\n",
       "    Message('note_off', channel=0, note=60, velocity=56, time=39),\n",
       "    Message('note_off', channel=0, note=69, velocity=64, time=27),\n",
       "    Message('note_on', channel=0, note=67, velocity=73, time=4),\n",
       "    Message('note_off', channel=0, note=52, velocity=58, time=43),\n",
       "    Message('note_off', channel=0, note=64, velocity=60, time=57),\n",
       "    Message('note_on', channel=0, note=49, velocity=49, time=1),\n",
       "    Message('note_on', channel=0, note=58, velocity=44, time=5),\n",
       "    Message('note_off', channel=0, note=58, velocity=58, time=27),\n",
       "    Message('note_off', channel=0, note=49, velocity=63, time=2),\n",
       "    Message('note_off', channel=0, note=67, velocity=47, time=123),\n",
       "    Message('note_on', channel=0, note=41, velocity=35, time=159),\n",
       "    Message('note_on', channel=0, note=47, velocity=38, time=0),\n",
       "    Message('note_on', channel=0, note=65, velocity=60, time=26),\n",
       "    Message('control_change', channel=0, control=64, value=105, time=4),\n",
       "    Message('control_change', channel=0, control=64, value=81, time=14),\n",
       "    Message('note_on', channel=0, note=56, velocity=44, time=1),\n",
       "    Message('control_change', channel=0, control=64, value=66, time=14),\n",
       "    Message('control_change', channel=0, control=64, value=0, time=15),\n",
       "    Message('control_change', channel=0, control=64, value=44, time=75),\n",
       "    Message('control_change', channel=0, control=64, value=64, time=15),\n",
       "    Message('control_change', channel=0, control=64, value=73, time=15),\n",
       "    Message('control_change', channel=0, control=64, value=106, time=15),\n",
       "    Message('control_change', channel=0, control=64, value=127, time=15),\n",
       "    Message('note_off', channel=0, note=56, velocity=48, time=67),\n",
       "    Message('note_off', channel=0, note=47, velocity=34, time=36),\n",
       "    Message('control_change', channel=0, control=64, value=82, time=60),\n",
       "    Message('note_on', channel=0, note=57, velocity=44, time=9),\n",
       "    Message('control_change', channel=0, control=64, value=64, time=6),\n",
       "    Message('note_on', channel=0, note=48, velocity=30, time=12),\n",
       "    Message('control_change', channel=0, control=64, value=0, time=3),\n",
       "    Message('control_change', channel=0, control=64, value=56, time=44),\n",
       "    Message('control_change', channel=0, control=64, value=69, time=14),\n",
       "    Message('control_change', channel=0, control=64, value=97, time=15),\n",
       "    Message('control_change', channel=0, control=64, value=127, time=15),\n",
       "    Message('note_off', channel=0, note=48, velocity=44, time=5),\n",
       "    Message('note_off', channel=0, note=57, velocity=56, time=62),\n",
       "    Message('control_change', channel=0, control=64, value=87, time=37),\n",
       "    Message('control_change', channel=0, control=64, value=65, time=14),\n",
       "    Message('note_on', channel=0, note=50, velocity=29, time=15),\n",
       "    Message('control_change', channel=0, control=64, value=0, time=0),\n",
       "    Message('note_on', channel=0, note=58, velocity=40, time=11),\n",
       "    Message('control_change', channel=0, control=64, value=33, time=33),\n",
       "    Message('control_change', channel=0, control=64, value=63, time=23),\n",
       "    Message('control_change', channel=0, control=64, value=67, time=15),\n",
       "    Message('control_change', channel=0, control=64, value=77, time=15),\n",
       "    Message('control_change', channel=0, control=64, value=127, time=15),\n",
       "    Message('note_off', channel=0, note=50, velocity=43, time=102),\n",
       "    Message('note_off', channel=0, note=58, velocity=49, time=14),\n",
       "    Message('note_on', channel=0, note=57, velocity=39, time=129),\n",
       "    Message('note_on', channel=0, note=48, velocity=28, time=19),\n",
       "    Message('control_change', channel=0, control=64, value=89, time=33),\n",
       "    Message('control_change', channel=0, control=64, value=73, time=14),\n",
       "    Message('control_change', channel=0, control=64, value=64, time=15),\n",
       "    Message('control_change', channel=0, control=64, value=0, time=15),\n",
       "    Message('control_change', channel=0, control=64, value=47, time=104),\n",
       "    Message('control_change', channel=0, control=64, value=63, time=14),\n",
       "    Message('control_change', channel=0, control=64, value=66, time=15),\n",
       "    Message('control_change', channel=0, control=64, value=69, time=15),\n",
       "    Message('control_change', channel=0, control=64, value=75, time=15),\n",
       "    Message('control_change', channel=0, control=64, value=102, time=15),\n",
       "    Message('control_change', channel=0, control=64, value=127, time=15),\n",
       "    Message('note_off', channel=0, note=65, velocity=38, time=12),\n",
       "    Message('note_off', channel=0, note=57, velocity=44, time=80),\n",
       "    Message('note_off', channel=0, note=41, velocity=29, time=102),\n",
       "    Message('note_off', channel=0, note=48, velocity=38, time=96),\n",
       "    Message('note_on', channel=0, note=46, velocity=48, time=280),\n",
       "    Message('control_change', channel=0, control=64, value=106, time=45),\n",
       "    Message('control_change', channel=0, control=64, value=91, time=15),\n",
       "    Message('control_change', channel=0, control=64, value=82, time=14),\n",
       "    Message('control_change', channel=0, control=64, value=76, time=15),\n",
       "    Message('control_change', channel=0, control=64, value=70, time=15),\n",
       "    Message('control_change', channel=0, control=64, value=64, time=15),\n",
       "    Message('control_change', channel=0, control=64, value=0, time=15),\n",
       "    Message('control_change', channel=0, control=64, value=64, time=178),\n",
       "    Message('control_change', channel=0, control=64, value=72, time=15),\n",
       "    Message('control_change', channel=0, control=64, value=84, time=21),\n",
       "    Message('note_on', channel=0, note=48, velocity=52, time=8),\n",
       "    Message('control_change', channel=0, control=64, value=127, time=7),\n",
       "    Message('note_off', channel=0, note=46, velocity=62, time=5),\n",
       "    Message('note_off', channel=0, note=48, velocity=61, time=86),\n",
       "    Message('note_on', channel=0, note=34, velocity=69, time=91),\n",
       "    Message('control_change', channel=0, control=64, value=79, time=41),\n",
       "    Message('control_change', channel=0, control=64, value=63, time=14),\n",
       "    Message('control_change', channel=0, control=64, value=0, time=15),\n",
       "    Message('control_change', channel=0, control=64, value=61, time=30),\n",
       "    Message('control_change', channel=0, control=64, value=72, time=15),\n",
       "    Message('control_change', channel=0, control=64, value=127, time=14),\n",
       "    Message('note_off', channel=0, note=34, velocity=61, time=22),\n",
       "    Message('note_on', channel=0, note=50, velocity=69, time=152),\n",
       "    Message('note_on', channel=0, note=70, velocity=55, time=60),\n",
       "    Message('control_change', channel=0, control=64, value=90, time=4),\n",
       "    Message('note_on', channel=0, note=56, velocity=45, time=2),\n",
       "    Message('control_change', channel=0, control=64, value=68, time=13),\n",
       "    Message('control_change', channel=0, control=64, value=50, time=15),\n",
       "    Message('control_change', channel=0, control=64, value=55, time=15),\n",
       "    Message('control_change', channel=0, control=64, value=65, time=14),\n",
       "    Message('control_change', channel=0, control=64, value=76, time=15),\n",
       "    Message('control_change', channel=0, control=64, value=127, time=15),\n",
       "    Message('note_off', channel=0, note=56, velocity=55, time=97),\n",
       "    Message('note_on', channel=0, note=58, velocity=44, time=251),\n",
       "    Message('note_off', channel=0, note=58, velocity=39, time=173),\n",
       "    Message('note_on', channel=0, note=67, velocity=45, time=150),\n",
       "    Message('note_on', channel=0, note=65, velocity=50, time=234),\n",
       "    Message('note_on', channel=0, note=46, velocity=59, time=190),\n",
       "    Message('note_off', channel=0, note=67, velocity=40, time=33),\n",
       "    Message('note_on', channel=0, note=60, velocity=57, time=53),\n",
       "    Message('note_off', channel=0, note=70, velocity=40, time=6),\n",
       "    Message('note_off', channel=0, note=65, velocity=60, time=29),\n",
       "    Message('note_off', channel=0, note=50, velocity=49, time=19),\n",
       "    Message('note_on', channel=0, note=48, velocity=61, time=92),\n",
       "    Message('note_on', channel=0, note=58, velocity=68, time=94),\n",
       "    Message('note_off', channel=0, note=46, velocity=61, time=18),\n",
       "    Message('note_off', channel=0, note=48, velocity=62, time=22),\n",
       "    Message('note_off', channel=0, note=60, velocity=59, time=2),\n",
       "    Message('note_on', channel=0, note=50, velocity=71, time=9),\n",
       "    Message('note_off', channel=0, note=58, velocity=61, time=60),\n",
       "    Message('note_off', channel=0, note=50, velocity=62, time=3),\n",
       "    Message('note_on', channel=0, note=36, velocity=70, time=61),\n",
       "    Message('control_change', channel=0, control=64, value=103, time=234),\n",
       "    Message('control_change', channel=0, control=64, value=88, time=15),\n",
       "    Message('control_change', channel=0, control=64, value=77, time=15),\n",
       "    Message('note_on', channel=0, note=51, velocity=72, time=12),\n",
       "    Message('control_change', channel=0, control=64, value=66, time=2),\n",
       "    Message('control_change', channel=0, control=64, value=0, time=15),\n",
       "    Message('note_on', channel=0, note=70, velocity=57, time=18),\n",
       "    Message('note_on', channel=0, note=56, velocity=37, time=29),\n",
       "    Message('control_change', channel=0, control=64, value=61, time=116),\n",
       "    Message('control_change', channel=0, control=64, value=67, time=14),\n",
       "    Message('control_change', channel=0, control=64, value=76, time=15),\n",
       "    Message('note_off', channel=0, note=56, velocity=55, time=9),\n",
       "    Message('control_change', channel=0, control=64, value=127, time=7),\n",
       "    Message('note_off', channel=0, note=36, velocity=40, time=124),\n",
       "    Message('note_on', channel=0, note=58, velocity=44, time=61),\n",
       "    Message('note_on', channel=0, note=65, velocity=51, time=276),\n",
       "    Message('note_off', channel=0, note=58, velocity=38, time=195),\n",
       "    Message('note_on', channel=0, note=63, velocity=56, time=25),\n",
       "    Message('note_on', channel=0, note=46, velocity=64, time=169),\n",
       "    Message('note_off', channel=0, note=70, velocity=38, time=0),\n",
       "    Message('note_off', channel=0, note=51, velocity=51, time=31),\n",
       "    Message('note_on', channel=0, note=60, velocity=66, time=14),\n",
       "    Message('note_off', channel=0, note=65, velocity=56, time=25),\n",
       "    Message('note_off', channel=0, note=63, velocity=62, time=20),\n",
       "    Message('note_on', channel=0, note=48, velocity=72, time=66),\n",
       "    Message('note_off', channel=0, note=46, velocity=58, time=39),\n",
       "    Message('note_on', channel=0, note=50, velocity=74, time=77),\n",
       "    Message('note_on', channel=0, note=58, velocity=71, time=9),\n",
       "    Message('note_off', channel=0, note=60, velocity=63, time=26),\n",
       "    Message('note_off', channel=0, note=48, velocity=60, time=1),\n",
       "    Message('note_off', channel=0, note=58, velocity=64, time=50),\n",
       "    Message('note_off', channel=0, note=50, velocity=63, time=20),\n",
       "    Message('note_on', channel=0, note=51, velocity=84, time=5),\n",
       "    Message('note_off', channel=0, note=51, velocity=60, time=101),\n",
       "    Message('note_on', channel=0, note=37, velocity=76, time=41),\n",
       "    Message('control_change', channel=0, control=64, value=119, time=34),\n",
       "    Message('control_change', channel=0, control=64, value=71, time=14),\n",
       "    Message('control_change', channel=0, control=64, value=0, time=15),\n",
       "    Message('note_off', channel=0, note=37, velocity=64, time=31),\n",
       "    Message('note_on', channel=0, note=52, velocity=82, time=17),\n",
       "    Message('control_change', channel=0, control=64, value=65, time=12),\n",
       "    Message('note_on', channel=0, note=70, velocity=75, time=4),\n",
       "    Message('note_on', channel=0, note=56, velocity=62, time=7),\n",
       "    Message('control_change', channel=0, control=64, value=80, time=4),\n",
       "    Message('control_change', channel=0, control=64, value=127, time=15),\n",
       "    Message('note_off', channel=0, note=52, velocity=47, time=185),\n",
       "    Message('note_on', channel=0, note=64, velocity=63, time=110),\n",
       "    Message('note_off', channel=0, note=70, velocity=62, time=37),\n",
       "    Message('note_off', channel=0, note=56, velocity=46, time=18),\n",
       "    Message('control_change', channel=0, control=64, value=85, time=28),\n",
       "    Message('note_on', channel=0, note=38, velocity=77, time=10),\n",
       "    Message('control_change', channel=0, control=64, value=59, time=5),\n",
       "    Message('control_change', channel=0, control=64, value=0, time=15),\n",
       "    Message('control_change', channel=0, control=64, value=44, time=44),\n",
       "    Message('control_change', channel=0, control=64, value=68, time=15),\n",
       "    Message('control_change', channel=0, control=64, value=91, time=15),\n",
       "    Message('note_off', channel=0, note=38, velocity=60, time=1),\n",
       "    Message('control_change', channel=0, control=64, value=127, time=14),\n",
       "    Message('note_on', channel=0, note=53, velocity=83, time=48),\n",
       "    Message('note_on', channel=0, note=70, velocity=73, time=10),\n",
       "    Message('note_on', channel=0, note=56, velocity=59, time=5),\n",
       "    Message('note_off', channel=0, note=64, velocity=53, time=15),\n",
       "    Message('note_off', channel=0, note=53, velocity=64, time=27),\n",
       "    Message('note_on', channel=0, note=65, velocity=63, time=274),\n",
       "    Message('note_off', channel=0, note=56, velocity=48, time=49),\n",
       "    Message('note_off', channel=0, note=70, velocity=40, time=209),\n",
       "    Message('note_on', channel=0, note=46, velocity=74, time=22),\n",
       "    Message('note_on', channel=0, note=38, velocity=61, time=3),\n",
       "    Message('control_change', channel=0, control=64, value=103, time=42),\n",
       "    Message('control_change', channel=0, control=64, value=88, time=15),\n",
       "    Message('control_change', channel=0, control=64, value=74, time=15),\n",
       "    Message('control_change', channel=0, control=64, value=62, time=15),\n",
       "    Message('note_on', channel=0, note=56, velocity=72, time=2),\n",
       "    Message('control_change', channel=0, control=64, value=0, time=12),\n",
       "    Message('control_change', channel=0, control=64, value=47, time=60),\n",
       "    Message('note_off', channel=0, note=65, velocity=53, time=6),\n",
       "    Message('control_change', channel=0, control=64, value=64, time=8),\n",
       "    Message('control_change', channel=0, control=64, value=71, time=15),\n",
       "    Message('control_change', channel=0, control=64, value=88, time=15),\n",
       "    Message('control_change', channel=0, control=64, value=127, time=15),\n",
       "    Message('note_off', channel=0, note=38, velocity=55, time=51),\n",
       "    Message('note_off', channel=0, note=46, velocity=61, time=3),\n",
       "    Message('note_on', channel=0, note=48, velocity=64, time=15),\n",
       "    Message('note_on', channel=0, note=46, velocity=57, time=103),\n",
       "    Message('note_off', channel=0, note=48, velocity=53, time=14),\n",
       "    Message('note_off', channel=0, note=46, velocity=61, time=55),\n",
       "    Message('note_on', channel=0, note=48, velocity=64, time=17),\n",
       "    Message('note_off', channel=0, note=48, velocity=59, time=81),\n",
       "    Message('note_on', channel=0, note=66, velocity=72, time=6),\n",
       "    Message('note_on', channel=0, note=46, velocity=67, time=7),\n",
       "    Message('note_on', channel=0, note=48, velocity=57, time=66),\n",
       "    Message('note_off', channel=0, note=46, velocity=57, time=6),\n",
       "    Message('note_off', channel=0, note=48, velocity=57, time=80),\n",
       "    Message('note_on', channel=0, note=45, velocity=71, time=14),\n",
       "    Message('note_off', channel=0, note=56, velocity=47, time=58),\n",
       "    Message('note_off', channel=0, note=45, velocity=63, time=51),\n",
       "    Message('note_on', channel=0, note=46, velocity=73, time=5),\n",
       "    Message('note_on', channel=0, note=39, velocity=60, time=127),\n",
       "    Message('control_change', channel=0, control=64, value=115, time=18),\n",
       "    Message('control_change', channel=0, control=64, value=101, time=15),\n",
       "    Message('control_change', channel=0, control=64, value=94, time=15),\n",
       "    Message('control_change', channel=0, control=64, value=89, time=15),\n",
       "    Message('control_change', channel=0, control=64, value=84, time=14),\n",
       "    Message('control_change', channel=0, control=64, value=79, time=15),\n",
       "    Message('control_change', channel=0, control=64, value=72, time=15),\n",
       "    Message('note_on', channel=0, note=56, velocity=75, time=14),\n",
       "    Message('control_change', channel=0, control=64, value=65, time=1),\n",
       "    Message('note_off', channel=0, note=66, velocity=39, time=8),\n",
       "    Message('control_change', channel=0, control=64, value=56, time=7),\n",
       "    Message('control_change', channel=0, control=64, value=22, time=14),\n",
       "    Message('control_change', channel=0, control=64, value=0, time=15),\n",
       "    Message('control_change', channel=0, control=64, value=46, time=277),\n",
       "    Message('control_change', channel=0, control=64, value=59, time=14),\n",
       "    Message('control_change', channel=0, control=64, value=62, time=15),\n",
       "    Message('control_change', channel=0, control=64, value=64, time=15),\n",
       "    Message('control_change', channel=0, control=64, value=64, time=14),\n",
       "    Message('control_change', channel=0, control=64, value=65, time=15),\n",
       "    Message('control_change', channel=0, control=64, value=66, time=15),\n",
       "    Message('control_change', channel=0, control=64, value=67, time=15),\n",
       "    Message('control_change', channel=0, control=64, value=70, time=15),\n",
       "    Message('control_change', channel=0, control=64, value=73, time=14),\n",
       "    Message('control_change', channel=0, control=64, value=79, time=15),\n",
       "    Message('control_change', channel=0, control=64, value=88, time=15),\n",
       "    Message('control_change', channel=0, control=64, value=103, time=14),\n",
       "    Message('control_change', channel=0, control=64, value=127, time=15),\n",
       "    Message('note_on', channel=0, note=68, velocity=47, time=62),\n",
       "    Message('note_off', channel=0, note=56, velocity=54, time=331),\n",
       "    Message('note_off', channel=0, note=68, velocity=33, time=12),\n",
       "    Message('control_change', channel=0, control=64, value=108, time=93),\n",
       "    Message('note_on', channel=0, note=55, velocity=40, time=6),\n",
       "    Message('control_change', channel=0, control=64, value=92, time=9),\n",
       "    Message('control_change', channel=0, control=64, value=81, time=15),\n",
       "    Message('control_change', channel=0, control=64, value=72, time=14),\n",
       "    Message('control_change', channel=0, control=64, value=66, time=15),\n",
       "    Message('control_change', channel=0, control=64, value=58, time=15),\n",
       "    Message('control_change', channel=0, control=64, value=0, time=15),\n",
       "    Message('control_change', channel=0, control=64, value=45, time=118),\n",
       "    Message('control_change', channel=0, control=64, value=64, time=15),\n",
       "    Message('control_change', channel=0, control=64, value=70, time=15),\n",
       "    Message('control_change', channel=0, control=64, value=81, time=15),\n",
       "    Message('control_change', channel=0, control=64, value=127, time=14),\n",
       "    Message('note_off', channel=0, note=46, velocity=47, time=101),\n",
       "    Message('note_off', channel=0, note=55, velocity=39, time=10),\n",
       "    Message('note_off', channel=0, note=39, velocity=35, time=14),\n",
       "    Message('note_on', channel=0, note=67, velocity=41, time=3),\n",
       "    Message('note_off', channel=0, note=67, velocity=58, time=80),\n",
       "    Message('note_on', channel=0, note=55, velocity=44, time=427),\n",
       "    Message('note_on', channel=0, note=75, velocity=83, time=9),\n",
       "    Message('note_on', channel=0, note=63, velocity=67, time=8),\n",
       "    Message('note_off', channel=0, note=63, velocity=51, time=80),\n",
       "    Message('note_on', channel=0, note=58, velocity=51, time=289),\n",
       "    Message('note_on', channel=0, note=77, velocity=95, time=9),\n",
       "    Message('note_on', channel=0, note=65, velocity=69, time=18),\n",
       "    Message('note_off', channel=0, note=75, velocity=62, time=5),\n",
       "    Message('note_off', channel=0, note=65, velocity=68, time=19),\n",
       "    Message('note_off', channel=0, note=55, velocity=30, time=23),\n",
       "    Message('note_off', channel=0, note=77, velocity=57, time=234),\n",
       "    Message('note_on', channel=0, note=51, velocity=57, time=20),\n",
       "    Message('note_on', channel=0, note=63, velocity=52, time=1),\n",
       "    Message('note_off', channel=0, note=58, velocity=57, time=1),\n",
       "    Message('control_change', channel=0, control=64, value=91, time=14),\n",
       "    Message('control_change', channel=0, control=64, value=47, time=14),\n",
       "    Message('note_on', channel=0, note=79, velocity=94, time=2),\n",
       "    Message('note_on', channel=0, note=67, velocity=75, time=10),\n",
       "    Message('control_change', channel=0, control=64, value=0, time=3),\n",
       "    Message('control_change', channel=0, control=64, value=42, time=60),\n",
       "    Message('control_change', channel=0, control=64, value=70, time=15),\n",
       "    Message('control_change', channel=0, control=64, value=106, time=15),\n",
       "    Message('control_change', channel=0, control=64, value=127, time=14),\n",
       "    Message('note_off', channel=0, note=51, velocity=62, time=21),\n",
       "    Message('note_off', channel=0, note=67, velocity=59, time=18),\n",
       "    Message('note_off', channel=0, note=63, velocity=59, time=44),\n",
       "    Message('note_on', channel=0, note=75, velocity=59, time=214),\n",
       "    Message('note_on', channel=0, note=67, velocity=45, time=12),\n",
       "    Message('note_off', channel=0, note=67, velocity=58, time=265),\n",
       "    Message('note_on', channel=0, note=77, velocity=70, time=36),\n",
       "    Message('note_on', channel=0, note=68, velocity=47, time=6),\n",
       "    Message('note_off', channel=0, note=75, velocity=54, time=10),\n",
       "    Message('note_off', channel=0, note=79, velocity=62, time=24),\n",
       "    Message('note_on', channel=0, note=75, velocity=65, time=158),\n",
       "    Message('note_off', channel=0, note=68, velocity=61, time=9),\n",
       "    Message('note_on', channel=0, note=67, velocity=64, time=30),\n",
       "    Message('note_off', channel=0, note=77, velocity=47, time=33),\n",
       "    Message('note_on', channel=0, note=72, velocity=85, time=84),\n",
       "    Message('note_off', channel=0, note=67, velocity=56, time=80),\n",
       "    Message('note_on', channel=0, note=63, velocity=68, time=33),\n",
       "    Message('note_on', channel=0, note=55, velocity=64, time=2),\n",
       "    Message('note_off', channel=0, note=75, velocity=37, time=13),\n",
       "    Message('note_on', channel=0, note=77, velocity=89, time=9),\n",
       "    Message('note_off', channel=0, note=63, velocity=63, time=184),\n",
       "    Message('note_on', channel=0, note=60, velocity=57, time=22),\n",
       "    Message('note_off', channel=0, note=55, velocity=58, time=14),\n",
       "    Message('note_off', channel=0, note=77, velocity=56, time=3),\n",
       "    Message('note_off', channel=0, note=60, velocity=63, time=6),\n",
       "    Message('note_on', channel=0, note=75, velocity=93, time=74),\n",
       "    Message('note_on', channel=0, note=67, velocity=66, time=17),\n",
       "    Message('note_off', channel=0, note=72, velocity=63, time=14),\n",
       "    Message('note_off', channel=0, note=67, velocity=66, time=13),\n",
       "    Message('note_on', channel=0, note=43, velocity=77, time=56),\n",
       "    Message('note_off', channel=0, note=75, velocity=50, time=169),\n",
       "    Message('polytouch', channel=0, note=73, value=127, time=30),\n",
       "    Message('note_on', channel=0, note=58, velocity=71, time=69),\n",
       "    Message('control_change', channel=0, control=64, value=112, time=7),\n",
       "    Message('polytouch', channel=0, note=45, value=127, time=4),\n",
       "    Message('control_change', channel=0, control=64, value=73, time=11),\n",
       "    Message('control_change', channel=0, control=64, value=46, time=15),\n",
       "    Message('control_change', channel=0, control=64, value=0, time=15),\n",
       "    Message('note_on', channel=0, note=74, velocity=88, time=6),\n",
       "    Message('note_on', channel=0, note=62, velocity=66, time=7),\n",
       "    Message('polytouch', channel=0, note=73, value=0, time=38),\n",
       "    Message('control_change', channel=0, control=64, value=57, time=45),\n",
       "    Message('control_change', channel=0, control=64, value=72, time=15),\n",
       "    Message('note_off', channel=0, note=43, velocity=55, time=5),\n",
       "    Message('control_change', channel=0, control=64, value=127, time=10),\n",
       "    Message('polytouch', channel=0, note=45, value=0, time=27),\n",
       "    Message('note_off', channel=0, note=62, velocity=48, time=41),\n",
       "    Message('note_off', channel=0, note=58, velocity=62, time=17),\n",
       "    Message('note_on', channel=0, note=62, velocity=45, time=255),\n",
       "    Message('note_on', channel=0, note=70, velocity=55, time=1),\n",
       "    Message('note_on', channel=0, note=72, velocity=60, time=336),\n",
       "    Message('note_on', channel=0, note=63, velocity=41, time=23),\n",
       "    Message('note_off', channel=0, note=62, velocity=36, time=18),\n",
       "    Message('note_off', channel=0, note=70, velocity=41, time=17),\n",
       "    Message('note_off', channel=0, note=63, velocity=59, time=181),\n",
       "    Message('note_on', channel=0, note=70, velocity=65, time=22),\n",
       "    Message('note_off', channel=0, note=74, velocity=38, time=0),\n",
       "    Message('note_on', channel=0, note=62, velocity=61, time=4),\n",
       "    Message('note_off', channel=0, note=72, velocity=39, time=30),\n",
       "    Message('note_on', channel=0, note=67, velocity=71, time=92),\n",
       "    Message('note_off', channel=0, note=70, velocity=61, time=37),\n",
       "    Message('note_on', channel=0, note=58, velocity=61, time=76),\n",
       "    Message('note_on', channel=0, note=55, velocity=51, time=1),\n",
       "    Message('control_change', channel=0, control=64, value=85, time=1),\n",
       "    Message('control_change', channel=0, control=64, value=63, time=14),\n",
       "    Message('note_on', channel=0, note=70, velocity=79, time=2),\n",
       "    Message('note_off', channel=0, note=62, velocity=62, time=8),\n",
       "    Message('control_change', channel=0, control=64, value=0, time=5),\n",
       "    Message('control_change', channel=0, control=64, value=63, time=30),\n",
       "    Message('control_change', channel=0, control=64, value=82, time=15),\n",
       "    Message('control_change', channel=0, control=64, value=127, time=14),\n",
       "    Message('note_off', channel=0, note=55, velocity=51, time=26),\n",
       "    Message('note_off', channel=0, note=58, velocity=62, time=81),\n",
       "    Message('note_on', channel=0, note=55, velocity=57, time=27),\n",
       "    Message('note_off', channel=0, note=55, velocity=63, time=30),\n",
       "    Message('note_off', channel=0, note=67, velocity=50, time=35),\n",
       "    Message('note_on', channel=0, note=62, velocity=71, time=6),\n",
       "    Message('note_off', channel=0, note=62, velocity=65, time=30),\n",
       "    Message('note_off', channel=0, note=70, velocity=64, time=33),\n",
       "    Message('note_on', channel=0, note=48, velocity=70, time=19),\n",
       "    Message('note_on', channel=0, note=63, velocity=61, time=354),\n",
       "    Message('control_change', channel=0, control=64, value=76, time=50),\n",
       "    Message('control_change', channel=0, control=64, value=61, time=14),\n",
       "    Message('control_change', channel=0, control=64, value=0, time=15),\n",
       "    Message('note_on', channel=0, note=79, velocity=92, time=6),\n",
       "    Message('note_on', channel=0, note=67, velocity=71, time=16),\n",
       "    Message('control_change', channel=0, control=64, value=41, time=52),\n",
       "    Message('control_change', channel=0, control=64, value=64, time=15),\n",
       "    Message('control_change', channel=0, control=64, value=73, time=14),\n",
       "    Message('control_change', channel=0, control=64, value=112, time=15),\n",
       "    Message('note_off', channel=0, note=48, velocity=38, time=1),\n",
       "    Message('control_change', channel=0, control=64, value=127, time=14),\n",
       "    Message('note_off', channel=0, note=67, velocity=52, time=112),\n",
       "    Message('note_off', channel=0, note=63, velocity=60, time=12),\n",
       "    Message('note_on', channel=0, note=75, velocity=56, time=274),\n",
       "    Message('note_on', channel=0, note=67, velocity=44, time=6),\n",
       "    Message('note_off', channel=0, note=67, velocity=38, time=355),\n",
       "    Message('note_on', channel=0, note=77, velocity=56, time=3),\n",
       "    Message('note_on', channel=0, note=68, velocity=35, time=15),\n",
       "    Message('note_off', channel=0, note=75, velocity=42, time=78),\n",
       "    Message('note_off', channel=0, note=79, velocity=42, time=9),\n",
       "    Message('note_off', channel=0, note=77, velocity=60, time=63),\n",
       "    Message('note_off', channel=0, note=68, velocity=31, time=120),\n",
       "    Message('note_on', channel=0, note=79, velocity=86, time=79),\n",
       "    Message('note_on', channel=0, note=67, velocity=50, time=7),\n",
       "    Message('note_on', channel=0, note=75, velocity=60, time=21),\n",
       "    Message('note_off', channel=0, note=79, velocity=52, time=133),\n",
       "    Message('note_off', channel=0, note=67, velocity=39, time=85),\n",
       "    Message('note_off', channel=0, note=75, velocity=55, time=39),\n",
       "    Message('note_on', channel=0, note=77, velocity=78, time=8),\n",
       "    Message('note_on', channel=0, note=63, velocity=40, time=13),\n",
       "    Message('note_on', channel=0, note=55, velocity=43, time=5),\n",
       "    Message('note_on', channel=0, note=72, velocity=67, time=8),\n",
       "    Message('note_off', channel=0, note=72, velocity=57, time=66),\n",
       "    Message('note_off', channel=0, note=63, velocity=55, time=56),\n",
       "    Message('note_on', channel=0, note=67, velocity=58, time=130),\n",
       "    Message('note_on', channel=0, note=60, velocity=31, time=24),\n",
       "    Message('note_off', channel=0, note=60, velocity=55, time=37),\n",
       "    Message('note_off', channel=0, note=67, velocity=63, time=12),\n",
       "    Message('note_off', channel=0, note=55, velocity=42, time=1),\n",
       "    Message('note_off', channel=0, note=77, velocity=55, time=136),\n",
       "    Message('note_on', channel=0, note=75, velocity=73, time=6),\n",
       "    Message('note_on', channel=0, note=43, velocity=59, time=77),\n",
       "    Message('note_off', channel=0, note=75, velocity=41, time=132),\n",
       "    Message('polytouch', channel=0, note=73, value=127, time=4),\n",
       "    Message('polytouch', channel=0, note=73, value=0, time=106),\n",
       "    Message('control_change', channel=0, control=64, value=86, time=0),\n",
       "    Message('control_change', channel=0, control=64, value=66, time=14),\n",
       "    Message('note_on', channel=0, note=58, velocity=55, time=4),\n",
       "    Message('control_change', channel=0, control=64, value=0, time=11),\n",
       "    Message('note_on', channel=0, note=74, velocity=70, time=7),\n",
       "    Message('note_on', channel=0, note=62, velocity=55, time=12),\n",
       "    Message('control_change', channel=0, control=64, value=63, time=62),\n",
       "    Message('note_off', channel=0, note=43, velocity=45, time=4),\n",
       "    Message('control_change', channel=0, control=64, value=72, time=11),\n",
       "    Message('control_change', channel=0, control=64, value=104, time=15),\n",
       "    Message('control_change', channel=0, control=64, value=127, time=15),\n",
       "    Message('note_off', channel=0, note=62, velocity=39, time=36),\n",
       "    Message('note_off', channel=0, note=58, velocity=61, time=50),\n",
       "    Message('note_on', channel=0, note=70, velocity=46, time=289),\n",
       "    Message('note_on', channel=0, note=62, velocity=33, time=8),\n",
       "    Message('note_off', channel=0, note=70, velocity=33, time=254),\n",
       "    Message('note_off', channel=0, note=62, velocity=37, time=86),\n",
       "    Message('note_on', channel=0, note=63, velocity=37, time=7),\n",
       "    Message('note_on', channel=0, note=72, velocity=48, time=9),\n",
       "    Message('note_off', channel=0, note=74, velocity=44, time=78),\n",
       "    Message('note_off', channel=0, note=63, velocity=50, time=109),\n",
       "    Message('note_off', channel=0, note=72, velocity=38, time=68),\n",
       "    Message('note_on', channel=0, note=62, velocity=41, time=24),\n",
       "    Message('note_on', channel=0, note=70, velocity=50, time=2),\n",
       "    Message('note_off', channel=0, note=70, velocity=58, time=56),\n",
       "    Message('note_off', channel=0, note=62, velocity=29, time=116),\n",
       "    Message('note_on', channel=0, note=58, velocity=37, time=173),\n",
       "    Message('note_on', channel=0, note=55, velocity=34, time=1),\n",
       "    Message('note_on', channel=0, note=67, velocity=50, time=15),\n",
       "    Message('note_on', channel=0, note=62, velocity=47, time=2),\n",
       "    Message('control_change', channel=0, control=64, value=107, time=3),\n",
       "    Message('control_change', channel=0, control=64, value=88, time=15),\n",
       "    Message('control_change', channel=0, control=64, value=72, time=15),\n",
       "    Message('control_change', channel=0, control=64, value=61, time=15),\n",
       "    Message('control_change', channel=0, control=64, value=0, time=22),\n",
       "    Message('control_change', channel=0, control=64, value=43, time=15),\n",
       "    Message('control_change', channel=0, control=64, value=60, time=14),\n",
       "    Message('control_change', channel=0, control=64, value=64, time=15),\n",
       "    Message('control_change', channel=0, control=64, value=70, time=15),\n",
       "    Message('control_change', channel=0, control=64, value=92, time=15),\n",
       "    Message('control_change', channel=0, control=64, value=127, time=15),\n",
       "    Message('note_off', channel=0, note=58, velocity=55, time=65),\n",
       "    Message('note_off', channel=0, note=62, velocity=38, time=75),\n",
       "    Message('note_off', channel=0, note=67, velocity=28, time=73),\n",
       "    Message('note_off', channel=0, note=55, velocity=45, time=4),\n",
       "    Message('note_on', channel=0, note=57, velocity=38, time=40),\n",
       "    Message('note_on', channel=0, note=69, velocity=52, time=5),\n",
       "    Message('note_on', channel=0, note=60, velocity=43, time=5),\n",
       "    Message('note_off', channel=0, note=60, velocity=62, time=48),\n",
       "    Message('note_off', channel=0, note=57, velocity=57, time=27),\n",
       "    Message('note_off', channel=0, note=69, velocity=55, time=179),\n",
       "    Message('note_on', channel=0, note=55, velocity=39, time=150),\n",
       "    Message('note_on', channel=0, note=48, velocity=27, time=1),\n",
       "    Message('note_on', channel=0, note=70, velocity=58, time=7),\n",
       "    Message('note_on', channel=0, note=58, velocity=44, time=14),\n",
       "    Message('control_change', channel=0, control=64, value=96, time=12),\n",
       "    Message('control_change', channel=0, control=64, value=73, time=14),\n",
       "    Message('control_change', channel=0, control=64, value=62, time=15),\n",
       "    Message('control_change', channel=0, control=64, value=0, time=15),\n",
       "    Message('control_change', channel=0, control=64, value=42, time=44),\n",
       "    Message('control_change', channel=0, control=64, value=62, time=15),\n",
       "    Message('control_change', channel=0, control=64, value=67, time=15),\n",
       "    Message('control_change', channel=0, control=64, value=78, time=14),\n",
       "    Message('control_change', channel=0, control=64, value=127, time=15),\n",
       "    Message('note_off', channel=0, note=58, velocity=42, time=22),\n",
       "    Message('note_off', channel=0, note=70, velocity=54, time=112),\n",
       "    Message('note_on', channel=0, note=72, velocity=50, time=179),\n",
       "    Message('note_off', channel=0, note=55, velocity=42, time=4),\n",
       "    Message('note_on', channel=0, note=69, velocity=26, time=8),\n",
       "    Message('note_on', channel=0, note=53, velocity=28, time=13),\n",
       "    Message('note_off', channel=0, note=69, velocity=47, time=110),\n",
       "    Message('note_off', channel=0, note=53, velocity=43, time=122),\n",
       "    Message('note_off', channel=0, note=72, velocity=36, time=70),\n",
       "    Message('note_on', channel=0, note=74, velocity=54, time=16),\n",
       "    Message('note_on', channel=0, note=67, velocity=40, time=1),\n",
       "    Message('note_on', channel=0, note=52, velocity=33, time=4),\n",
       "    Message('note_off', channel=0, note=67, velocity=54, time=99),\n",
       "    Message('note_off', channel=0, note=74, velocity=59, time=110),\n",
       "    Message('note_off', channel=0, note=52, velocity=42, time=22),\n",
       "    Message('note_off', channel=0, note=48, velocity=36, time=10),\n",
       "    Message('note_on', channel=0, note=76, velocity=59, time=25),\n",
       "    Message('note_on', channel=0, note=50, velocity=35, time=9),\n",
       "    Message('note_on', channel=0, note=65, velocity=36, time=15),\n",
       "    Message('note_off', channel=0, note=50, velocity=54, time=34),\n",
       "    Message('note_off', channel=0, note=65, velocity=53, time=42),\n",
       "    Message('note_off', channel=0, note=76, velocity=64, time=123),\n",
       "    Message('note_on', channel=0, note=77, velocity=65, time=36),\n",
       "    Message('note_on', channel=0, note=48, velocity=48, time=6),\n",
       "    Message('note_on', channel=0, note=36, velocity=50, time=3),\n",
       "    Message('note_on', channel=0, note=64, velocity=47, time=5),\n",
       "    Message('note_off', channel=0, note=64, velocity=59, time=73),\n",
       "    Message('polytouch', channel=0, note=65, value=127, time=6),\n",
       "    Message('note_off', channel=0, note=48, velocity=42, time=42),\n",
       "    Message('polytouch', channel=0, note=65, value=0, time=28),\n",
       "    Message('note_off', channel=0, note=36, velocity=29, time=13),\n",
       "    Message('note_off', channel=0, note=77, velocity=56, time=38),\n",
       "    Message('note_on', channel=0, note=46, velocity=48, time=45),\n",
       "    Message('note_on', channel=0, note=79, velocity=76, time=3),\n",
       "    Message('note_on', channel=0, note=74, velocity=58, time=17),\n",
       "    Message('note_off', channel=0, note=74, velocity=62, time=135),\n",
       "    Message('note_off', channel=0, note=46, velocity=31, time=123),\n",
       "    Message('note_on', channel=0, note=36, velocity=43, time=15),\n",
       "    Message('note_on', channel=0, note=45, velocity=37, time=11),\n",
       "    Message('note_on', channel=0, note=81, velocity=72, time=17),\n",
       "    Message('note_on', channel=0, note=72, velocity=54, time=13),\n",
       "    Message('control_change', channel=0, control=64, value=99, time=15),\n",
       "    Message('note_off', channel=0, note=79, velocity=57, time=3),\n",
       "    Message('control_change', channel=0, control=64, value=79, time=12),\n",
       "    Message('control_change', channel=0, control=64, value=66, time=15),\n",
       "    Message('control_change', channel=0, control=64, value=0, time=15),\n",
       "    Message('control_change', channel=0, control=64, value=13, time=74),\n",
       "    Message('control_change', channel=0, control=64, value=61, time=15),\n",
       "    Message('control_change', channel=0, control=64, value=66, time=15),\n",
       "    Message('control_change', channel=0, control=64, value=70, time=14),\n",
       "    Message('control_change', channel=0, control=64, value=78, time=15),\n",
       "    Message('control_change', channel=0, control=64, value=99, time=15),\n",
       "    Message('control_change', channel=0, control=64, value=127, time=14),\n",
       "    Message('note_off', channel=0, note=45, velocity=50, time=59),\n",
       "    Message('note_on', channel=0, note=79, velocity=69, time=29),\n",
       "    Message('note_on', channel=0, note=46, velocity=48, time=6),\n",
       "    Message('note_on', channel=0, note=76, velocity=56, time=11),\n",
       "    Message('note_off', channel=0, note=81, velocity=59, time=9),\n",
       "    Message('note_off', channel=0, note=72, velocity=46, time=7),\n",
       "    Message('note_off', channel=0, note=36, velocity=37, time=3),\n",
       "    Message('note_off', channel=0, note=79, velocity=61, time=111),\n",
       "    Message('note_off', channel=0, note=46, velocity=51, time=58),\n",
       "    Message('note_on', channel=0, note=48, velocity=38, time=44),\n",
       "    Message('note_off', channel=0, note=76, velocity=56, time=5),\n",
       "    Message('note_on', channel=0, note=77, velocity=66, time=6),\n",
       "    Message('note_on', channel=0, note=69, velocity=42, time=28),\n",
       "    Message('note_off', channel=0, note=48, velocity=61, time=125),\n",
       "    Message('note_on', channel=0, note=50, velocity=52, time=34),\n",
       "    Message('note_off', channel=0, note=50, velocity=64, time=32),\n",
       "    Message('note_on', channel=0, note=76, velocity=61, time=12),\n",
       "    Message('note_off', channel=0, note=69, velocity=56, time=16),\n",
       "    Message('note_on', channel=0, note=72, velocity=57, time=3),\n",
       "    Message('note_off', channel=0, note=77, velocity=52, time=28),\n",
       "    Message('note_on', channel=0, note=36, velocity=57, time=51),\n",
       "    Message('note_off', channel=0, note=76, velocity=61, time=33),\n",
       "    Message('control_change', channel=0, control=64, value=85, time=55),\n",
       "    Message('note_off', channel=0, note=36, velocity=62, time=7),\n",
       "    Message('control_change', channel=0, control=64, value=67, time=8),\n",
       "    Message('control_change', channel=0, control=64, value=61, time=22),\n",
       "    Message('control_change', channel=0, control=64, value=62, time=14),\n",
       "    Message('control_change', channel=0, control=64, value=65, time=15),\n",
       "    Message('note_off', channel=0, note=72, velocity=65, time=3),\n",
       "    Message('note_on', channel=0, note=52, velocity=55, time=1),\n",
       "    Message('note_on', channel=0, note=74, velocity=63, time=7),\n",
       "    Message('control_change', channel=0, control=64, value=69, time=3),\n",
       "    Message('control_change', channel=0, control=64, value=79, time=15),\n",
       "    Message('note_on', channel=0, note=67, velocity=49, time=3),\n",
       "    Message('control_change', channel=0, control=64, value=104, time=12),\n",
       "    Message('control_change', channel=0, control=64, value=127, time=15),\n",
       "    Message('note_off', channel=0, note=67, velocity=39, time=192),\n",
       "    Message('note_off', channel=0, note=74, velocity=50, time=18),\n",
       "    Message('note_off', channel=0, note=52, velocity=54, time=8),\n",
       "    Message('control_change', channel=0, control=64, value=102, time=6),\n",
       "    Message('note_on', channel=0, note=72, velocity=69, time=2),\n",
       "    Message('note_on', channel=0, note=53, velocity=50, time=4),\n",
       "    Message('control_change', channel=0, control=64, value=75, time=8),\n",
       "    Message('note_on', channel=0, note=69, velocity=48, time=12),\n",
       "    Message('control_change', channel=0, control=64, value=65, time=3),\n",
       "    Message('control_change', channel=0, control=64, value=54, time=15),\n",
       "    Message('control_change', channel=0, control=64, value=51, time=15),\n",
       "    Message('control_change', channel=0, control=64, value=60, time=15),\n",
       "    Message('control_change', channel=0, control=64, value=64, time=14),\n",
       "    Message('control_change', channel=0, control=64, value=66, time=15),\n",
       "    Message('control_change', channel=0, control=64, value=70, time=15),\n",
       "    Message('control_change', channel=0, control=64, value=77, time=14),\n",
       "    Message('control_change', channel=0, control=64, value=101, time=15),\n",
       "    Message('control_change', channel=0, control=64, value=127, time=15),\n",
       "    Message('note_off', channel=0, note=69, velocity=52, time=50),\n",
       "    Message('note_off', channel=0, note=53, velocity=58, time=42),\n",
       "    Message('note_off', channel=0, note=72, velocity=63, time=37),\n",
       "    Message('note_on', channel=0, note=55, velocity=48, time=7),\n",
       "    Message('note_on', channel=0, note=70, velocity=65, time=6),\n",
       "    Message('note_on', channel=0, note=48, velocity=44, time=2),\n",
       "    Message('control_change', channel=0, control=64, value=85, time=4),\n",
       "    Message('note_on', channel=0, note=64, velocity=43, time=11),\n",
       "    Message('control_change', channel=0, control=64, value=67, time=4),\n",
       "    Message('control_change', channel=0, control=64, value=49, time=15),\n",
       "    Message('control_change', channel=0, control=64, value=0, time=14),\n",
       "    Message('control_change', channel=0, control=64, value=54, time=15),\n",
       "    Message('control_change', channel=0, control=64, value=64, time=15),\n",
       "    Message('control_change', channel=0, control=64, value=72, time=15),\n",
       "    Message('control_change', channel=0, control=64, value=101, time=15),\n",
       "    Message('control_change', channel=0, control=64, value=127, time=22),\n",
       "    Message('note_off', channel=0, note=70, velocity=40, time=71),\n",
       "    Message('note_off', channel=0, note=64, velocity=38, time=59),\n",
       "    Message('note_off', channel=0, note=55, velocity=43, time=15),\n",
       "    Message('note_on', channel=0, note=69, velocity=56, time=75),\n",
       "    Message('control_change', channel=0, control=64, value=82, time=3),\n",
       "    Message('note_on', channel=0, note=57, velocity=43, time=5),\n",
       "    Message('note_on', channel=0, note=65, velocity=51, time=9),\n",
       "    Message('control_change', channel=0, control=64, value=66, time=1),\n",
       "    Message('control_change', channel=0, control=64, value=49, time=15),\n",
       "    Message('control_change', channel=0, control=64, value=0, time=15),\n",
       "    Message('control_change', channel=0, control=64, value=52, time=29),\n",
       "    Message('control_change', channel=0, control=64, value=63, time=15),\n",
       "    Message('control_change', channel=0, control=64, value=65, time=15),\n",
       "    Message('control_change', channel=0, control=64, value=70, time=15),\n",
       "    Message('control_change', channel=0, control=64, value=82, time=15),\n",
       "    Message('control_change', channel=0, control=64, value=127, time=15),\n",
       "    Message('note_off', channel=0, note=57, velocity=53, time=44),\n",
       "    Message('note_off', channel=0, note=69, velocity=59, time=27),\n",
       "    Message('note_off', channel=0, note=65, velocity=64, time=25),\n",
       "    Message('control_change', channel=0, control=64, value=99, time=37),\n",
       "    Message('note_on', channel=0, note=67, velocity=47, time=10),\n",
       "    Message('control_change', channel=0, control=64, value=70, time=4),\n",
       "    Message('note_on', channel=0, note=58, velocity=39, time=3),\n",
       "    Message('note_on', channel=0, note=61, velocity=38, time=5),\n",
       "    Message('control_change', channel=0, control=64, value=52, time=7),\n",
       "    Message('control_change', channel=0, control=64, value=0, time=15),\n",
       "    Message('control_change', channel=0, control=64, value=61, time=44),\n",
       "    Message('control_change', channel=0, control=64, value=67, time=15),\n",
       "    Message('control_change', channel=0, control=64, value=76, time=15),\n",
       "    Message('control_change', channel=0, control=64, value=127, time=15),\n",
       "    Message('note_off', channel=0, note=61, velocity=56, time=62),\n",
       "    Message('note_off', channel=0, note=58, velocity=45, time=32),\n",
       "    Message('note_off', channel=0, note=67, velocity=55, time=42),\n",
       "    Message('control_change', channel=0, control=64, value=92, time=5),\n",
       "    Message('control_change', channel=0, control=64, value=69, time=15),\n",
       "    Message('note_on', channel=0, note=65, velocity=49, time=5),\n",
       "    Message('note_on', channel=0, note=59, velocity=41, time=1),\n",
       "    Message('control_change', channel=0, control=64, value=55, time=8),\n",
       "    Message('note_on', channel=0, note=62, velocity=36, time=7),\n",
       "    Message('control_change', channel=0, control=64, value=0, time=8),\n",
       "    Message('control_change', channel=0, control=64, value=20, time=15),\n",
       "    Message('control_change', channel=0, control=64, value=61, time=14),\n",
       "    Message('control_change', channel=0, control=64, value=66, time=15),\n",
       "    Message('note_off', channel=0, note=59, velocity=50, time=9),\n",
       "    Message('control_change', channel=0, control=64, value=73, time=6),\n",
       "    Message('control_change', channel=0, control=64, value=95, time=15),\n",
       "    Message('control_change', channel=0, control=64, value=127, time=15),\n",
       "    Message('note_off', channel=0, note=48, velocity=39, time=1),\n",
       "    Message('note_off', channel=0, note=62, velocity=38, time=143),\n",
       "    Message('note_off', channel=0, note=65, velocity=56, time=67),\n",
       "    Message('note_on', channel=0, note=60, velocity=40, time=3),\n",
       "    Message('note_on', channel=0, note=48, velocity=30, time=2),\n",
       "    Message('note_on', channel=0, note=69, velocity=52, time=10),\n",
       "    Message('note_on', channel=0, note=63, velocity=38, time=25),\n",
       "    Message('control_change', channel=0, control=64, value=88, time=16),\n",
       "    Message('control_change', channel=0, control=64, value=71, time=15),\n",
       "    Message('control_change', channel=0, control=64, value=59, time=15),\n",
       "    Message('control_change', channel=0, control=64, value=0, time=15),\n",
       "    Message('control_change', channel=0, control=64, value=47, time=89),\n",
       "    Message('control_change', channel=0, control=64, value=63, time=15),\n",
       "    Message('control_change', channel=0, control=64, value=67, time=14),\n",
       "    Message('control_change', channel=0, control=64, value=74, time=15),\n",
       "    Message('control_change', channel=0, control=64, value=96, time=15),\n",
       "    Message('control_change', channel=0, control=64, value=127, time=15),\n",
       "    Message('note_off', channel=0, note=69, velocity=34, time=98),\n",
       "    Message('note_off', channel=0, note=63, velocity=36, time=19),\n",
       "    Message('note_on', channel=0, note=58, velocity=34, time=96),\n",
       "    Message('note_on', channel=0, note=67, velocity=41, time=0),\n",
       "    Message('note_off', channel=0, note=60, velocity=37, time=2),\n",
       "    Message('control_change', channel=0, control=64, value=105, time=0),\n",
       "    Message('note_on', channel=0, note=64, velocity=36, time=8),\n",
       "    Message('control_change', channel=0, control=64, value=77, time=7),\n",
       "    Message('control_change', channel=0, control=64, value=65, time=14),\n",
       "    Message('control_change', channel=0, control=64, value=51, time=15),\n",
       "    Message('control_change', channel=0, control=64, value=0, time=15),\n",
       "    Message('control_change', channel=0, control=64, value=34, time=14),\n",
       "    Message('control_change', channel=0, control=64, value=56, time=15),\n",
       "    Message('control_change', channel=0, control=64, value=63, time=15),\n",
       "    Message('control_change', channel=0, control=64, value=65, time=15),\n",
       "    Message('control_change', channel=0, control=64, value=69, time=15),\n",
       "    Message('control_change', channel=0, control=64, value=76, time=14),\n",
       "    Message('control_change', channel=0, control=64, value=116, time=15),\n",
       "    Message('control_change', channel=0, control=64, value=127, time=15),\n",
       "    Message('note_off', channel=0, note=64, velocity=38, time=21),\n",
       "    Message('note_off', channel=0, note=67, velocity=40, time=160),\n",
       "    Message('note_off', channel=0, note=58, velocity=28, time=98),\n",
       "    Message('note_on', channel=0, note=57, velocity=29, time=140),\n",
       "    Message('note_on', channel=0, note=60, velocity=30, time=3),\n",
       "    Message('note_on', channel=0, note=65, velocity=43, time=0),\n",
       "    Message('control_change', channel=0, control=64, value=91, time=46),\n",
       "    Message('control_change', channel=0, control=64, value=76, time=15),\n",
       "    Message('control_change', channel=0, control=64, value=65, time=15),\n",
       "    Message('control_change', channel=0, control=64, value=0, time=15),\n",
       "    Message('control_change', channel=0, control=64, value=36, time=74),\n",
       "    Message('control_change', channel=0, control=64, value=57, time=15),\n",
       "    Message('control_change', channel=0, control=64, value=64, time=15),\n",
       "    Message('control_change', channel=0, control=64, value=70, time=15),\n",
       "    Message('control_change', channel=0, control=64, value=85, time=14),\n",
       "    Message('control_change', channel=0, control=64, value=127, time=15),\n",
       "    Message('note_off', channel=0, note=65, velocity=39, time=60),\n",
       "    Message('note_off', channel=0, note=60, velocity=40, time=56),\n",
       "    Message('note_on', channel=0, note=66, velocity=53, time=66),\n",
       "    Message('note_off', channel=0, note=57, velocity=36, time=0),\n",
       "    Message('note_on', channel=0, note=56, velocity=39, time=2),\n",
       "    Message('control_change', channel=0, control=64, value=119, time=10),\n",
       "    Message('note_on', channel=0, note=63, velocity=43, time=6),\n",
       "    Message('control_change', channel=0, control=64, value=77, time=9),\n",
       "    Message('control_change', channel=0, control=64, value=65, time=15),\n",
       "    Message('control_change', channel=0, control=64, value=46, time=14),\n",
       "    Message('control_change', channel=0, control=64, value=31, time=15),\n",
       "    Message('control_change', channel=0, control=64, value=55, time=15),\n",
       "    Message('control_change', channel=0, control=64, value=64, time=14),\n",
       "    Message('control_change', channel=0, control=64, value=68, time=15),\n",
       "    Message('control_change', channel=0, control=64, value=77, time=15),\n",
       "    Message('control_change', channel=0, control=64, value=122, time=15),\n",
       "    Message('control_change', channel=0, control=64, value=127, time=15),\n",
       "    Message('note_off', channel=0, note=56, velocity=37, time=140),\n",
       "    Message('note_off', channel=0, note=66, velocity=57, time=12),\n",
       "    Message('note_off', channel=0, note=63, velocity=37, time=1),\n",
       "    Message('control_change', channel=0, control=64, value=83, time=9),\n",
       "    Message('note_on', channel=0, note=67, velocity=55, time=11),\n",
       "    Message('note_on', channel=0, note=55, velocity=35, time=3),\n",
       "    Message('control_change', channel=0, control=64, value=56, time=1),\n",
       "    Message('note_on', channel=0, note=60, velocity=34, time=12),\n",
       "    Message('control_change', channel=0, control=64, value=0, time=3),\n",
       "    Message('control_change', channel=0, control=64, value=53, time=95),\n",
       "    Message('control_change', channel=0, control=64, value=70, time=15),\n",
       "    Message('control_change', channel=0, control=64, value=108, time=15),\n",
       "    Message('control_change', channel=0, control=64, value=127, time=15),\n",
       "    Message('note_off', channel=0, note=67, velocity=61, time=73),\n",
       "    Message('control_change', channel=0, control=64, value=103, time=2),\n",
       "    Message('control_change', channel=0, control=64, value=70, time=14),\n",
       "    Message('control_change', channel=0, control=64, value=0, time=15),\n",
       "    Message('note_off', channel=0, note=55, velocity=34, time=3),\n",
       "    Message('note_on', channel=0, note=68, velocity=46, time=3),\n",
       "    Message('note_off', channel=0, note=60, velocity=44, time=5),\n",
       "    Message('note_on', channel=0, note=54, velocity=36, time=5),\n",
       "    Message('note_on', channel=0, note=63, velocity=37, time=3),\n",
       "    Message('control_change', channel=0, control=64, value=63, time=55),\n",
       "    Message('control_change', channel=0, control=64, value=76, time=15),\n",
       "    Message('control_change', channel=0, control=64, value=127, time=14),\n",
       "    Message('note_off', channel=0, note=63, velocity=52, time=121),\n",
       "    Message('control_change', channel=0, control=64, value=95, time=29),\n",
       "    Message('control_change', channel=0, control=64, value=72, time=15),\n",
       "    Message('note_off', channel=0, note=54, velocity=30, time=4),\n",
       "    Message('control_change', channel=0, control=64, value=56, time=10),\n",
       "    Message('note_on', channel=0, note=69, velocity=42, time=15),\n",
       "    Message('control_change', channel=0, control=64, value=0, time=0),\n",
       "    Message('note_on', channel=0, note=53, velocity=33, time=2),\n",
       "    Message('note_off', channel=0, note=68, velocity=33, time=0),\n",
       "    Message('note_on', channel=0, note=62, velocity=39, time=14),\n",
       "    Message('control_change', channel=0, control=64, value=49, time=102),\n",
       "    Message('control_change', channel=0, control=64, value=61, time=15),\n",
       "    Message('control_change', channel=0, control=64, value=64, time=15),\n",
       "    Message('control_change', channel=0, control=64, value=66, time=14),\n",
       "    Message('control_change', channel=0, control=64, value=70, time=15),\n",
       "    Message('control_change', channel=0, control=64, value=79, time=15),\n",
       "    Message('control_change', channel=0, control=64, value=127, time=15),\n",
       "    Message('note_off', channel=0, note=62, velocity=34, time=8),\n",
       "    Message('note_off', channel=0, note=69, velocity=26, time=192),\n",
       "    Message('note_on', channel=0, note=65, velocity=39, time=90),\n",
       "    Message('note_on', channel=0, note=51, velocity=26, time=20),\n",
       "    Message('note_on', channel=0, note=60, velocity=29, time=0),\n",
       "    Message('control_change', channel=0, control=64, value=108, time=8),\n",
       "    Message('control_change', channel=0, control=64, value=80, time=15),\n",
       "    Message('control_change', channel=0, control=64, value=66, time=14),\n",
       "    Message('note_off', channel=0, note=53, velocity=44, time=13),\n",
       "    Message('control_change', channel=0, control=64, value=0, time=2),\n",
       "    Message('note_off', channel=0, note=48, velocity=30, time=82),\n",
       "    Message('control_change', channel=0, control=64, value=60, time=38),\n",
       "    Message('control_change', channel=0, control=64, value=66, time=15),\n",
       "    Message('control_change', channel=0, control=64, value=73, time=15),\n",
       "    Message('control_change', channel=0, control=64, value=86, time=14),\n",
       "    Message('control_change', channel=0, control=64, value=127, time=15),\n",
       "    Message('note_off', channel=0, note=60, velocity=41, time=10),\n",
       "    Message('note_off', channel=0, note=65, velocity=39, time=96),\n",
       "    Message('note_on', channel=0, note=50, velocity=35, time=388),\n",
       "    Message('note_off', channel=0, note=51, velocity=43, time=26),\n",
       "    Message('note_on', channel=0, note=70, velocity=55, time=1),\n",
       "    Message('note_on', channel=0, note=58, velocity=42, time=14),\n",
       "    Message('control_change', channel=0, control=64, value=87, time=6),\n",
       "    Message('control_change', channel=0, control=64, value=71, time=15),\n",
       "    Message('control_change', channel=0, control=64, value=62, time=15),\n",
       "    Message('control_change', channel=0, control=64, value=0, time=14),\n",
       "    Message('control_change', channel=0, control=64, value=42, time=44),\n",
       "    Message('control_change', channel=0, control=64, value=58, time=15),\n",
       "    Message('control_change', channel=0, control=64, value=64, time=15),\n",
       "    Message('control_change', channel=0, control=64, value=68, time=15),\n",
       "    Message('control_change', channel=0, control=64, value=80, time=15),\n",
       "    Message('control_change', channel=0, control=64, value=127, time=14),\n",
       "    Message('note_off', channel=0, note=58, velocity=54, time=53),\n",
       "    Message('note_off', channel=0, note=50, velocity=32, time=205),\n",
       "    Message('note_on', channel=0, note=72, velocity=66, time=6),\n",
       "    Message('note_on', channel=0, note=60, velocity=50, time=18),\n",
       "    Message('note_off', channel=0, note=70, velocity=60, time=13),\n",
       "    Message('note_on', channel=0, note=53, velocity=44, time=4),\n",
       "    Message('note_off', channel=0, note=60, velocity=36, time=131),\n",
       "    Message('note_off', channel=0, note=53, velocity=58, time=147),\n",
       "    Message('note_off', channel=0, note=72, velocity=32, time=14),\n",
       "    Message('note_on', channel=0, note=46, velocity=40, time=23),\n",
       "    Message('control_change', channel=0, control=64, value=81, time=2),\n",
       "    Message('note_on', channel=0, note=58, velocity=30, time=15),\n",
       "    Message('control_change', channel=0, control=64, value=64, time=0),\n",
       "    Message('note_on', channel=0, note=74, velocity=70, time=4),\n",
       "    Message('note_on', channel=0, note=62, velocity=48, time=9),\n",
       "    Message('control_change', channel=0, control=64, value=0, time=2),\n",
       "    Message('control_change', channel=0, control=64, value=54, time=59),\n",
       "    Message('control_change', channel=0, control=64, value=65, time=15),\n",
       "    Message('control_change', channel=0, control=64, value=74, time=15),\n",
       "    Message('note_off', channel=0, note=46, velocity=61, time=9),\n",
       "    Message('control_change', channel=0, control=64, value=113, time=5),\n",
       "    Message('control_change', channel=0, control=64, value=127, time=15),\n",
       "    Message('note_off', channel=0, note=62, velocity=39, time=16),\n",
       "    Message('note_off', channel=0, note=58, velocity=41, time=62),\n",
       "    Message('note_off', channel=0, note=74, velocity=59, time=50),\n",
       "    Message('note_on', channel=0, note=77, velocity=72, time=156),\n",
       "    Message('note_on', channel=0, note=62, velocity=46, time=0),\n",
       "    Message('note_on', channel=0, note=65, velocity=54, time=9),\n",
       "    Message('note_off', channel=0, note=62, velocity=36, time=165),\n",
       "    Message('note_off', channel=0, note=65, velocity=51, time=2),\n",
       "    Message('note_off', channel=0, note=77, velocity=51, time=63),\n",
       "    Message('note_on', channel=0, note=63, velocity=40, time=73),\n",
       "    Message('note_on', channel=0, note=79, velocity=84, time=0),\n",
       "    Message('note_on', channel=0, note=67, velocity=61, time=11),\n",
       "    Message('note_off', channel=0, note=67, velocity=44, time=103),\n",
       "    Message('note_off', channel=0, note=63, velocity=57, time=14),\n",
       "    Message('note_off', channel=0, note=79, velocity=62, time=80),\n",
       "    Message('note_on', channel=0, note=62, velocity=52, time=53),\n",
       "    Message('note_on', channel=0, note=77, velocity=76, time=0),\n",
       "    Message('note_on', channel=0, note=65, velocity=67, time=6),\n",
       "    Message('note_off', channel=0, note=62, velocity=62, time=24),\n",
       "    Message('note_off', channel=0, note=65, velocity=63, time=12),\n",
       "    Message('note_off', channel=0, note=77, velocity=61, time=9),\n",
       "    Message('note_on', channel=0, note=74, velocity=77, time=202),\n",
       "    Message('note_on', channel=0, note=46, velocity=45, time=4),\n",
       "    Message('note_on', channel=0, note=58, velocity=39, time=7),\n",
       "    Message('note_on', channel=0, note=62, velocity=63, time=0),\n",
       "    Message('note_off', channel=0, note=62, velocity=62, time=31),\n",
       "    Message('note_off', channel=0, note=58, velocity=58, time=22),\n",
       "    Message('note_off', channel=0, note=74, velocity=64, time=6),\n",
       "    Message('note_off', channel=0, note=46, velocity=35, time=141),\n",
       "    Message('note_on', channel=0, note=58, velocity=64, time=106),\n",
       "    Message('note_on', channel=0, note=70, velocity=72, time=0),\n",
       "    Message('note_on', channel=0, note=53, velocity=38, time=7),\n",
       "    Message('note_on', channel=0, note=50, velocity=40, time=6),\n",
       "    Message('note_off', channel=0, note=58, velocity=62, time=19),\n",
       "    Message('note_off', channel=0, note=53, velocity=58, time=16),\n",
       "    Message('note_off', channel=0, note=50, velocity=61, time=18),\n",
       "    Message('note_off', channel=0, note=70, velocity=63, time=13),\n",
       "    Message('note_on', channel=0, note=41, velocity=59, time=93),\n",
       "    Message('note_on', channel=0, note=53, velocity=32, time=338),\n",
       "    Message('note_on', channel=0, note=51, velocity=39, time=17),\n",
       "    Message('note_on', channel=0, note=65, velocity=58, time=23),\n",
       "    Message('note_on', channel=0, note=57, velocity=47, time=9),\n",
       "    Message('note_on', channel=0, note=60, velocity=43, time=8),\n",
       "    Message('control_change', channel=0, control=64, value=103, time=1),\n",
       "    Message('control_change', channel=0, control=64, value=92, time=15),\n",
       "    Message('control_change', channel=0, control=64, value=84, time=15),\n",
       "    Message('control_change', channel=0, control=64, value=76, time=15),\n",
       "    Message('control_change', channel=0, control=64, value=69, time=14),\n",
       "    Message('control_change', channel=0, control=64, value=65, time=15),\n",
       "    Message('control_change', channel=0, control=64, value=60, time=15),\n",
       "    Message('control_change', channel=0, control=64, value=46, time=15),\n",
       "    Message('control_change', channel=0, control=64, value=28, time=14),\n",
       "    Message('control_change', channel=0, control=64, value=0, time=15),\n",
       "    Message('control_change', channel=0, control=64, value=60, time=312),\n",
       "    Message('control_change', channel=0, control=64, value=65, time=15),\n",
       "    Message('control_change', channel=0, control=64, value=70, time=15),\n",
       "    Message('control_change', channel=0, control=64, value=81, time=14),\n",
       "    Message('control_change', channel=0, control=64, value=127, time=23),\n",
       "    Message('note_off', channel=0, note=41, velocity=38, time=410),\n",
       "    Message('note_off', channel=0, note=60, velocity=42, time=67),\n",
       "    Message('note_off', channel=0, note=57, velocity=43, time=4),\n",
       "    Message('note_off', channel=0, note=65, velocity=36, time=6),\n",
       "    Message('note_off', channel=0, note=51, velocity=41, time=125),\n",
       "    Message('note_on', channel=0, note=50, velocity=21, time=764),\n",
       "    Message('note_on', channel=0, note=70, velocity=43, time=6),\n",
       "    Message('note_off', channel=0, note=53, velocity=51, time=3),\n",
       "    Message('note_on', channel=0, note=58, velocity=33, time=5),\n",
       "    Message('control_change', channel=0, control=64, value=88, time=26),\n",
       "    Message('control_change', channel=0, control=64, value=68, time=15),\n",
       "    Message('control_change', channel=0, control=64, value=58, time=14),\n",
       "    Message('control_change', channel=0, control=64, value=46, time=15),\n",
       "    Message('control_change', channel=0, control=64, value=57, time=15),\n",
       "    Message('control_change', channel=0, control=64, value=63, time=23),\n",
       "    Message('control_change', channel=0, control=64, value=66, time=14),\n",
       "    Message('control_change', channel=0, control=64, value=72, time=14),\n",
       "    Message('control_change', channel=0, control=64, value=98, time=15),\n",
       "    Message('control_change', channel=0, control=64, value=127, time=16),\n",
       "    Message('note_off', channel=0, note=58, velocity=39, time=9),\n",
       "    Message('note_off', channel=0, note=50, velocity=36, time=217),\n",
       "    Message('note_on', channel=0, note=72, velocity=57, time=30),\n",
       "    Message('note_on', channel=0, note=60, velocity=40, time=13),\n",
       "    Message('note_on', channel=0, note=53, velocity=34, time=1),\n",
       "    Message('note_off', channel=0, note=70, velocity=43, time=24),\n",
       "    Message('note_off', channel=0, note=60, velocity=36, time=110),\n",
       "    Message('note_off', channel=0, note=53, velocity=44, time=143),\n",
       "    Message('control_change', channel=0, control=64, value=87, time=16),\n",
       "    Message('control_change', channel=0, control=64, value=67, time=15),\n",
       "    Message('note_on', channel=0, note=46, velocity=40, time=2),\n",
       "    Message('note_on', channel=0, note=74, velocity=61, time=6),\n",
       "    Message('note_on', channel=0, note=62, velocity=49, time=1),\n",
       "    Message('note_on', channel=0, note=58, velocity=30, time=1),\n",
       "    Message('control_change', channel=0, control=64, value=26, time=4),\n",
       "    Message('control_change', channel=0, control=64, value=0, time=15),\n",
       "    Message('note_off', channel=0, note=72, velocity=37, time=16),\n",
       "    Message('control_change', channel=0, control=64, value=58, time=13),\n",
       "    Message('control_change', channel=0, control=64, value=65, time=15),\n",
       "    Message('control_change', channel=0, control=64, value=71, time=15),\n",
       "    Message('control_change', channel=0, control=64, value=88, time=23),\n",
       "    Message('control_change', channel=0, control=64, value=127, time=15),\n",
       "    Message('note_off', channel=0, note=46, velocity=61, time=17),\n",
       "    Message('note_off', channel=0, note=62, velocity=44, time=28),\n",
       "    Message('note_off', channel=0, note=58, velocity=57, time=8),\n",
       "    Message('note_off', channel=0, note=74, velocity=60, time=59),\n",
       "    Message('note_on', channel=0, note=62, velocity=40, time=154),\n",
       "    Message('note_on', channel=0, note=65, velocity=58, time=8),\n",
       "    Message('note_on', channel=0, note=77, velocity=62, time=3),\n",
       "    Message('note_on', channel=0, note=79, velocity=50, time=16),\n",
       "    Message('note_off', channel=0, note=79, velocity=34, time=29),\n",
       "    Message('note_off', channel=0, note=65, velocity=40, time=104),\n",
       "    Message('note_off', channel=0, note=62, velocity=50, time=33),\n",
       "    Message('note_on', channel=0, note=79, velocity=89, time=122),\n",
       "    Message('note_on', channel=0, note=63, velocity=52, time=6),\n",
       "    Message('note_on', channel=0, note=67, velocity=68, time=6),\n",
       "    Message('note_off', channel=0, note=77, velocity=55, time=0),\n",
       "    Message('note_off', channel=0, note=67, velocity=37, time=122),\n",
       "    Message('note_off', channel=0, note=63, velocity=62, time=81),\n",
       "    Message('note_off', channel=0, note=79, velocity=57, time=11),\n",
       "    Message('note_on', channel=0, note=77, velocity=72, time=37),\n",
       "    Message('note_on', channel=0, note=62, velocity=55, time=2),\n",
       "    Message('note_on', channel=0, note=65, velocity=61, time=7),\n",
       "    Message('note_off', channel=0, note=62, velocity=64, time=27),\n",
       "    Message('note_off', channel=0, note=65, velocity=67, time=6),\n",
       "    Message('note_off', channel=0, note=77, velocity=62, time=13),\n",
       "    Message('note_on', channel=0, note=74, velocity=77, time=201),\n",
       "    Message('note_on', channel=0, note=58, velocity=49, time=5),\n",
       "    Message('note_on', channel=0, note=46, velocity=53, time=1),\n",
       "    Message('note_on', channel=0, note=62, velocity=69, time=3),\n",
       "    Message('note_off', channel=0, note=62, velocity=58, time=52),\n",
       "    Message('note_off', channel=0, note=74, velocity=62, time=13),\n",
       "    Message('note_off', channel=0, note=58, velocity=61, time=3),\n",
       "    Message('note_off', channel=0, note=46, velocity=51, time=93),\n",
       "    Message('note_on', channel=0, note=70, velocity=75, time=98),\n",
       "    Message('note_on', channel=0, note=58, velocity=68, time=5),\n",
       "    Message('note_on', channel=0, note=50, velocity=51, time=6),\n",
       "    Message('note_on', channel=0, note=53, velocity=42, time=5),\n",
       "    Message('note_off', channel=0, note=58, velocity=61, time=29),\n",
       "    Message('note_off', channel=0, note=53, velocity=54, time=6),\n",
       "    Message('note_off', channel=0, note=50, velocity=63, time=2),\n",
       "    Message('note_off', channel=0, note=70, velocity=64, time=10),\n",
       "    Message('note_on', channel=0, note=41, velocity=71, time=96),\n",
       "    Message('note_on', channel=0, note=53, velocity=46, time=264),\n",
       "    Message('control_change', channel=0, control=64, value=116, time=4),\n",
       "    Message('note_on', channel=0, note=51, velocity=55, time=7),\n",
       "    Message('control_change', channel=0, control=64, value=94, time=7),\n",
       "    Message('control_change', channel=0, control=64, value=82, time=15),\n",
       "    Message('control_change', channel=0, control=64, value=72, time=15),\n",
       "    Message('note_on', channel=0, note=65, velocity=68, time=6),\n",
       "    Message('control_change', channel=0, control=64, value=64, time=9),\n",
       "    Message('note_on', channel=0, note=57, velocity=52, time=10),\n",
       "    Message('control_change', channel=0, control=64, value=51, time=5),\n",
       "    Message('note_on', channel=0, note=60, velocity=50, time=9),\n",
       "    Message('control_change', channel=0, control=64, value=0, time=6),\n",
       "    Message('control_change', channel=0, control=64, value=41, time=104),\n",
       "    Message('control_change', channel=0, control=64, value=61, time=14),\n",
       "    Message('control_change', channel=0, control=64, value=65, time=15),\n",
       "    Message('control_change', channel=0, control=64, value=70, time=15),\n",
       "    Message('control_change', channel=0, control=64, value=89, time=15),\n",
       "    Message('control_change', channel=0, control=64, value=127, time=15),\n",
       "    Message('note_off', channel=0, note=41, velocity=58, time=31),\n",
       "    Message('note_on', channel=0, note=43, velocity=59, time=231),\n",
       "    Message('control_change', channel=0, control=64, value=95, time=41),\n",
       "    Message('control_change', channel=0, control=64, value=76, time=15),\n",
       "    Message('control_change', channel=0, control=64, value=64, time=15),\n",
       "    Message('control_change', channel=0, control=64, value=0, time=14),\n",
       "    Message('control_change', channel=0, control=64, value=43, time=76),\n",
       "    Message('control_change', channel=0, control=64, value=63, time=15),\n",
       "    Message('control_change', channel=0, control=64, value=69, time=14),\n",
       "    Message('control_change', channel=0, control=64, value=88, time=15),\n",
       "    Message('control_change', channel=0, control=64, value=127, time=15),\n",
       "    Message('note_on', channel=0, note=46, velocity=55, time=156),\n",
       "    Message('note_off', channel=0, note=43, velocity=38, time=3),\n",
       "    Message('control_change', channel=0, control=64, value=90, time=3),\n",
       "    Message('control_change', channel=0, control=64, value=66, time=15),\n",
       "    Message('control_change', channel=0, control=64, value=0, time=15),\n",
       "    Message('control_change', channel=0, control=64, value=65, time=60),\n",
       "    Message('control_change', channel=0, control=64, value=82, time=15),\n",
       "    Message('control_change', channel=0, control=64, value=127, time=14),\n",
       "    Message('note_off', channel=0, note=60, velocity=45, time=124),\n",
       "    Message('control_change', channel=0, control=64, value=90, time=9),\n",
       "    Message('note_off', channel=0, note=46, velocity=56, time=8),\n",
       "    Message('control_change', channel=0, control=64, value=68, time=15),\n",
       "    Message('control_change', channel=0, control=64, value=65, time=14),\n",
       "    Message('note_on', channel=0, note=45, velocity=50, time=11),\n",
       "    Message('note_off', channel=0, note=57, velocity=57, time=2),\n",
       "    Message('note_off', channel=0, note=53, velocity=38, time=2),\n",
       "    Message('control_change', channel=0, control=64, value=68, time=0),\n",
       "    Message('control_change', channel=0, control=64, value=78, time=15),\n",
       "    Message('control_change', channel=0, control=64, value=127, time=14),\n",
       "    Message('note_off', channel=0, note=65, velocity=62, time=5),\n",
       "    Message('note_off', channel=0, note=45, velocity=38, time=185),\n",
       "    Message('note_off', channel=0, note=51, velocity=39, time=22),\n",
       "    Message('control_change', channel=0, control=64, value=84, time=26),\n",
       "    Message('control_change', channel=0, control=64, value=65, time=15),\n",
       "    Message('note_on', channel=0, note=50, velocity=39, time=3),\n",
       "    Message('note_on', channel=0, note=44, velocity=41, time=2),\n",
       "    Message('note_on', channel=0, note=70, velocity=63, time=7),\n",
       "    Message('control_change', channel=0, control=64, value=0, time=3),\n",
       "    Message('note_on', channel=0, note=58, velocity=46, time=2),\n",
       "    Message('control_change', channel=0, control=64, value=61, time=71),\n",
       "    Message('control_change', channel=0, control=64, value=67, time=15),\n",
       "    Message('control_change', channel=0, control=64, value=80, time=15),\n",
       "    Message('control_change', channel=0, control=64, value=127, time=15),\n",
       "    Message('note_off', channel=0, note=58, velocity=58, time=36),\n",
       "    Message('note_off', channel=0, note=50, velocity=37, time=71),\n",
       "    Message('note_off', channel=0, note=44, velocity=35, time=2),\n",
       "    Message('control_change', channel=0, control=64, value=91, time=99),\n",
       "    Message('note_on', channel=0, note=51, velocity=46, time=5),\n",
       "    Message('note_on', channel=0, note=72, velocity=69, time=4),\n",
       "    Message('note_on', channel=0, note=60, velocity=52, time=5),\n",
       "    Message('control_change', channel=0, control=64, value=70, time=0),\n",
       "    Message('note_off', channel=0, note=70, velocity=58, time=4),\n",
       "    Message('note_on', channel=0, note=43, velocity=35, time=3),\n",
       "    Message('control_change', channel=0, control=64, value=61, time=8),\n",
       "    Message('control_change', channel=0, control=64, value=0, time=15),\n",
       "    Message('control_change', channel=0, control=64, value=54, time=30),\n",
       "    Message('control_change', channel=0, control=64, value=65, time=22),\n",
       "    Message('control_change', channel=0, control=64, value=73, time=15),\n",
       "    Message('control_change', channel=0, control=64, value=122, time=15),\n",
       "    Message('note_off', channel=0, note=43, velocity=59, time=6),\n",
       "    Message('note_off', channel=0, note=51, velocity=60, time=4),\n",
       "    Message('control_change', channel=0, control=64, value=127, time=5),\n",
       "    Message('note_off', channel=0, note=60, velocity=37, time=62),\n",
       "    Message('control_change', channel=0, control=64, value=87, time=115),\n",
       "    Message('note_on', channel=0, note=74, velocity=76, time=6),\n",
       "    Message('note_on', channel=0, note=62, velocity=59, time=7),\n",
       "    Message('control_change', channel=0, control=64, value=66, time=2),\n",
       "    Message('note_on', channel=0, note=41, velocity=47, time=5),\n",
       "    Message('note_off', channel=0, note=72, velocity=54, time=4),\n",
       "    Message('control_change', channel=0, control=64, value=0, time=5),\n",
       "    Message('note_on', channel=0, note=53, velocity=39, time=6),\n",
       "    Message('control_change', channel=0, control=64, value=58, time=39),\n",
       "    Message('control_change', channel=0, control=64, value=66, time=15),\n",
       "    Message('control_change', channel=0, control=64, value=78, time=14),\n",
       "    Message('control_change', channel=0, control=64, value=127, time=15),\n",
       "    Message('note_off', channel=0, note=53, velocity=58, time=30),\n",
       "    Message('note_off', channel=0, note=62, velocity=56, time=4),\n",
       "    Message('note_off', channel=0, note=41, velocity=51, time=81),\n",
       "    Message('note_on', channel=0, note=55, velocity=55, time=47),\n",
       "    Message('note_on', channel=0, note=75, velocity=82, time=18),\n",
       "    Message('note_on', channel=0, note=63, velocity=65, time=6),\n",
       "    Message('note_off', channel=0, note=55, velocity=64, time=7),\n",
       "    Message('note_off', channel=0, note=74, velocity=63, time=0),\n",
       "    Message('note_off', channel=0, note=63, velocity=63, time=89),\n",
       "    Message('note_on', channel=0, note=39, velocity=68, time=14),\n",
       "    Message('note_off', channel=0, note=39, velocity=63, time=76),\n",
       "    Message('note_on', channel=0, note=77, velocity=85, time=57),\n",
       "    Message('note_on', channel=0, note=65, velocity=67, time=18),\n",
       "    Message('note_off', channel=0, note=75, velocity=61, time=11),\n",
       "    Message('note_on', channel=0, note=56, velocity=65, time=8),\n",
       "    Message('note_off', channel=0, note=56, velocity=63, time=32),\n",
       "    Message('note_off', channel=0, note=65, velocity=57, time=14),\n",
       "    Message('note_on', channel=0, note=58, velocity=65, time=132),\n",
       "    Message('note_off', channel=0, note=58, velocity=66, time=29),\n",
       "    Message('note_on', channel=0, note=78, velocity=90, time=36),\n",
       "    Message('note_on', channel=0, note=66, velocity=71, time=13),\n",
       "    Message('note_off', channel=0, note=77, velocity=62, time=8),\n",
       "    Message('control_change', channel=0, control=64, value=83, time=65),\n",
       "    Message('control_change', channel=0, control=64, value=45, time=15),\n",
       "    Message('note_on', channel=0, note=38, velocity=68, time=2),\n",
       "    Message('control_change', channel=0, control=64, value=0, time=13),\n",
       "    Message('control_change', channel=0, control=64, value=37, time=30),\n",
       "    Message('control_change', channel=0, control=64, value=73, time=15),\n",
       "    Message('note_off', channel=0, note=38, velocity=63, time=6),\n",
       "    Message('control_change', channel=0, control=64, value=127, time=8),\n",
       "    Message('note_off', channel=0, note=66, velocity=48, time=47),\n",
       "    Message('note_on', channel=0, note=59, velocity=63, time=82),\n",
       "    Message('note_on', channel=0, note=79, velocity=91, time=12),\n",
       "    Message('note_on', channel=0, note=67, velocity=66, time=16),\n",
       "    Message('note_off', channel=0, note=78, velocity=47, time=12),\n",
       "    Message('note_off', channel=0, note=79, velocity=57, time=149),\n",
       "    Message('note_off', channel=0, note=59, velocity=61, time=8),\n",
       "    Message('note_off', channel=0, note=67, velocity=59, time=20),\n",
       "    Message('note_on', channel=0, note=55, velocity=59, time=7),\n",
       "    Message('note_off', channel=0, note=55, velocity=64, time=31),\n",
       "    Message('note_on', channel=0, note=77, velocity=81, time=79),\n",
       "    Message('note_on', channel=0, note=65, velocity=67, time=9),\n",
       "    Message('control_change', channel=0, control=64, value=79, time=39),\n",
       "    Message('control_change', channel=0, control=64, value=60, time=15),\n",
       "    Message('note_on', channel=0, note=36, velocity=66, time=15),\n",
       "    Message('control_change', channel=0, control=64, value=0, time=0),\n",
       "    Message('control_change', channel=0, control=64, value=64, time=44),\n",
       "    Message('control_change', channel=0, control=64, value=77, time=15),\n",
       "    Message('note_off', channel=0, note=36, velocity=63, time=14),\n",
       "    Message('control_change', channel=0, control=64, value=127, time=1),\n",
       "    Message('note_off', channel=0, note=77, velocity=53, time=49),\n",
       "    Message('note_off', channel=0, note=65, velocity=55, time=23),\n",
       "    Message('note_on', channel=0, note=60, velocity=62, time=100),\n",
       "    Message('note_on', channel=0, note=76, velocity=77, time=15),\n",
       "    Message('note_on', channel=0, note=64, velocity=62, time=11),\n",
       "    Message('note_off', channel=0, note=60, velocity=68, time=2),\n",
       "    Message('note_off', channel=0, note=76, velocity=59, time=95),\n",
       "    Message('note_off', channel=0, note=64, velocity=38, time=32),\n",
       "    Message('note_on', channel=0, note=43, velocity=45, time=245),\n",
       "    Message('note_on', channel=0, note=55, velocity=56, time=0),\n",
       "    Message('note_on', channel=0, note=74, velocity=68, time=8),\n",
       "    Message('control_change', channel=0, control=64, value=80, time=19),\n",
       "    Message('note_on', channel=0, note=62, velocity=53, time=1),\n",
       "    Message('control_change', channel=0, control=64, value=65, time=14),\n",
       "    Message('control_change', channel=0, control=64, value=0, time=15),\n",
       "    Message('control_change', channel=0, control=64, value=32, time=74),\n",
       "    Message('control_change', channel=0, control=64, value=62, time=15),\n",
       "    Message('control_change', channel=0, control=64, value=68, time=15),\n",
       "    Message('control_change', channel=0, control=64, value=86, time=15),\n",
       "    Message('note_off', channel=0, note=62, velocity=39, time=6),\n",
       "    Message('control_change', channel=0, control=64, value=127, time=8),\n",
       "    Message('note_off', channel=0, note=43, velocity=35, time=38),\n",
       "    Message('note_off', channel=0, note=74, velocity=57, time=42),\n",
       "    Message('note_on', channel=0, note=72, velocity=60, time=70),\n",
       "    Message('note_on', channel=0, note=60, velocity=55, time=3),\n",
       "    Message('note_on', channel=0, note=52, velocity=36, time=9),\n",
       "    Message('note_on', channel=0, note=48, velocity=32, time=6),\n",
       "    Message('control_change', channel=0, control=64, value=96, time=11),\n",
       "    Message('control_change', channel=0, control=64, value=70, time=15),\n",
       "    Message('note_off', channel=0, note=55, velocity=35, time=14),\n",
       "    Message('control_change', channel=0, control=64, value=60, time=1),\n",
       "    Message('control_change', channel=0, control=64, value=33, time=14),\n",
       "    Message('control_change', channel=0, control=64, value=56, time=15),\n",
       "    Message('control_change', channel=0, control=64, value=64, time=15),\n",
       "    Message('control_change', channel=0, control=64, value=70, time=14),\n",
       "    Message('control_change', channel=0, control=64, value=86, time=15),\n",
       "    Message('control_change', channel=0, control=64, value=127, time=15),\n",
       "    Message('note_off', channel=0, note=60, velocity=38, time=38),\n",
       "    Message('note_off', channel=0, note=72, velocity=35, time=85),\n",
       "    Message('note_off', channel=0, note=52, velocity=37, time=16),\n",
       "    Message('note_off', channel=0, note=48, velocity=35, time=3),\n",
       "    Message('control_change', channel=0, control=64, value=104, time=14),\n",
       "    Message('note_on', channel=0, note=74, velocity=60, time=11),\n",
       "    Message('control_change', channel=0, control=64, value=74, time=3),\n",
       "    Message('note_on', channel=0, note=53, velocity=40, time=2),\n",
       "    Message('note_on', channel=0, note=47, velocity=27, time=9),\n",
       "    Message('note_on', channel=0, note=62, velocity=36, time=1),\n",
       "    Message('control_change', channel=0, control=64, value=63, time=3),\n",
       "    Message('control_change', channel=0, control=64, value=0, time=15),\n",
       "    Message('control_change', channel=0, control=64, value=49, time=44),\n",
       "    Message('control_change', channel=0, control=64, value=64, time=15),\n",
       "    Message('control_change', channel=0, control=64, value=71, time=15),\n",
       "    Message('control_change', channel=0, control=64, value=100, time=15),\n",
       "    Message('control_change', channel=0, control=64, value=127, time=14),\n",
       "    Message('note_off', channel=0, note=62, velocity=60, time=4),\n",
       "    Message('note_off', channel=0, note=53, velocity=46, time=57),\n",
       "    Message('note_off', channel=0, note=74, velocity=57, time=0),\n",
       "    Message('control_change', channel=0, control=64, value=103, time=59),\n",
       "    Message('note_off', channel=0, note=47, velocity=43, time=10),\n",
       "    Message('control_change', channel=0, control=64, value=73, time=4),\n",
       "    Message('note_on', channel=0, note=72, velocity=62, time=6),\n",
       "    Message('note_on', channel=0, note=60, velocity=52, time=5),\n",
       "    Message('note_on', channel=0, note=52, velocity=42, time=1),\n",
       "    Message('control_change', channel=0, control=64, value=59, time=3),\n",
       "    Message('note_on', channel=0, note=46, velocity=38, time=4),\n",
       "    Message('control_change', channel=0, control=64, value=0, time=11),\n",
       "    Message('control_change', channel=0, control=64, value=20, time=15),\n",
       "    Message('control_change', channel=0, control=64, value=58, time=14),\n",
       "    Message('control_change', channel=0, control=64, value=65, time=15),\n",
       "    Message('control_change', channel=0, control=64, value=76, time=15),\n",
       "    Message('control_change', channel=0, control=64, value=127, time=15),\n",
       "    Message('note_off', channel=0, note=60, velocity=58, time=59),\n",
       "    Message('note_off', channel=0, note=46, velocity=48, time=37),\n",
       "    Message('note_off', channel=0, note=52, velocity=57, time=22),\n",
       "    Message('control_change', channel=0, control=64, value=75, time=31),\n",
       "    Message('note_off', channel=0, note=72, velocity=54, time=1),\n",
       "    Message('note_on', channel=0, note=74, velocity=73, time=13),\n",
       "    Message('control_change', channel=0, control=64, value=62, time=1),\n",
       "    Message('note_on', channel=0, note=62, velocity=66, time=4),\n",
       "    Message('note_on', channel=0, note=45, velocity=47, time=0),\n",
       "    Message('note_on', channel=0, note=53, velocity=42, time=10),\n",
       "    Message('control_change', channel=0, control=64, value=0, time=1),\n",
       "    Message('control_change', channel=0, control=64, value=59, time=29),\n",
       "    Message('control_change', channel=0, control=64, value=69, time=15),\n",
       "    Message('control_change', channel=0, control=64, value=94, time=15),\n",
       "    Message('note_off', channel=0, note=45, velocity=61, time=4),\n",
       "    Message('control_change', channel=0, control=64, value=127, time=10),\n",
       "    Message('note_off', channel=0, note=53, velocity=60, time=11),\n",
       "    Message('note_off', channel=0, note=62, velocity=56, time=57),\n",
       "    Message('note_off', channel=0, note=74, velocity=64, time=67),\n",
       "    Message('control_change', channel=0, control=64, value=103, time=21),\n",
       "    Message('control_change', channel=0, control=64, value=70, time=15),\n",
       "    Message('note_on', channel=0, note=43, velocity=50, time=7),\n",
       "    Message('note_on', channel=0, note=76, velocity=76, time=6),\n",
       "    Message('control_change', channel=0, control=64, value=56, time=2),\n",
       "    Message('note_on', channel=0, note=55, velocity=55, time=1),\n",
       "    Message('note_on', channel=0, note=64, velocity=64, time=0),\n",
       "    Message('control_change', channel=0, control=64, value=0, time=13),\n",
       "    Message('control_change', channel=0, control=64, value=54, time=45),\n",
       "    Message('control_change', channel=0, control=64, value=65, time=15),\n",
       "    Message('control_change', channel=0, control=64, value=79, time=14),\n",
       "    Message('control_change', channel=0, control=64, value=127, time=15),\n",
       "    Message('note_off', channel=0, note=43, velocity=57, time=38),\n",
       "    Message('note_off', channel=0, note=64, velocity=55, time=14),\n",
       "    Message('note_off', channel=0, note=55, velocity=57, time=0),\n",
       "    Message('note_on', channel=0, note=77, velocity=83, time=110),\n",
       "    Message('note_on', channel=0, note=57, velocity=58, time=2),\n",
       "    Message('note_off', channel=0, note=76, velocity=65, time=3),\n",
       "    Message('note_on', channel=0, note=65, velocity=67, time=3),\n",
       "    Message('note_off', channel=0, note=57, velocity=65, time=27),\n",
       "    Message('note_on', channel=0, note=41, velocity=65, time=86),\n",
       "    Message('note_off', channel=0, note=65, velocity=62, time=2),\n",
       "    Message('note_off', channel=0, note=41, velocity=63, time=58),\n",
       "    Message('note_on', channel=0, note=58, velocity=61, time=92),\n",
       "    Message('note_on', channel=0, note=78, velocity=88, time=6),\n",
       "    Message('note_on', channel=0, note=66, velocity=72, time=1),\n",
       "    Message('note_off', channel=0, note=77, velocity=63, time=27),\n",
       "    Message('note_off', channel=0, note=58, velocity=57, time=80),\n",
       "    Message('note_off', channel=0, note=66, velocity=61, time=111),\n",
       "    Message('note_on', channel=0, note=59, velocity=69, time=14),\n",
       "    Message('note_off', channel=0, note=59, velocity=66, time=27),\n",
       "    Message('note_on', channel=0, note=79, velocity=87, time=20),\n",
       "    Message('note_off', channel=0, note=78, velocity=60, time=9),\n",
       "    Message('note_on', channel=0, note=67, velocity=70, time=1),\n",
       "    Message('note_on', channel=0, note=40, velocity=67, time=76),\n",
       "    Message('control_change', channel=0, control=64, value=89, time=17),\n",
       "    Message('control_change', channel=0, control=64, value=62, time=15),\n",
       "    Message('control_change', channel=0, control=64, value=0, time=15),\n",
       "    Message('note_off', channel=0, note=40, velocity=62, time=26),\n",
       "    Message('control_change', channel=0, control=64, value=62, time=3),\n",
       "    Message('control_change', channel=0, control=64, value=80, time=15),\n",
       "    Message('control_change', channel=0, control=64, value=127, time=15),\n",
       "    Message('note_off', channel=0, note=67, velocity=48, time=7),\n",
       "    Message('note_on', channel=0, note=81, velocity=87, time=94),\n",
       "    Message('note_on', channel=0, note=69, velocity=66, time=7),\n",
       "    Message('note_on', channel=0, note=60, velocity=61, time=4),\n",
       "    Message('note_off', channel=0, note=79, velocity=62, time=24),\n",
       "    Message('note_off', channel=0, note=69, velocity=37, time=71),\n",
       "    Message('note_off', channel=0, note=81, velocity=60, time=90),\n",
       "    Message('note_off', channel=0, note=60, velocity=61, time=60),\n",
       "    Message('note_on', channel=0, note=58, velocity=40, time=13),\n",
       "    Message('note_off', channel=0, note=58, velocity=56, time=31),\n",
       "    Message('note_on', channel=0, note=79, velocity=85, time=39),\n",
       "    Message('note_on', channel=0, note=67, velocity=69, time=9),\n",
       "    Message('note_on', channel=0, note=41, velocity=63, time=90),\n",
       "    Message('note_off', channel=0, note=79, velocity=52, time=113),\n",
       "    Message('note_off', channel=0, note=67, velocity=44, time=37),\n",
       "    Message('note_on', channel=0, note=77, velocity=74, time=114),\n",
       "    Message('control_change', channel=0, control=64, value=88, time=5),\n",
       "    Message('note_on', channel=0, note=57, velocity=48, time=5),\n",
       "    Message('note_on', channel=0, note=65, velocity=59, time=5),\n",
       "    Message('control_change', channel=0, control=64, value=67, time=5),\n",
       "    Message('control_change', channel=0, control=64, value=37, time=15),\n",
       "    Message('control_change', channel=0, control=64, value=0, time=14),\n",
       "    Message('control_change', channel=0, control=64, value=13, time=44),\n",
       "    Message('control_change', channel=0, control=64, value=53, time=15),\n",
       "    Message('control_change', channel=0, control=64, value=63, time=15),\n",
       "    Message('control_change', channel=0, control=64, value=66, time=15),\n",
       "    Message('control_change', channel=0, control=64, value=74, time=15),\n",
       "    Message('control_change', channel=0, control=64, value=108, time=15),\n",
       "    Message('note_off', channel=0, note=57, velocity=57, time=13),\n",
       "    Message('control_change', channel=0, control=64, value=127, time=1),\n",
       "    Message('note_off', channel=0, note=41, velocity=38, time=11),\n",
       "    Message('note_off', channel=0, note=65, velocity=58, time=1),\n",
       "    Message('note_off', channel=0, note=77, velocity=36, time=208),\n",
       "    Message('control_change', channel=0, control=64, value=98, time=25),\n",
       "    Message('note_on', channel=0, note=55, velocity=43, time=3),\n",
       "    Message('note_on', channel=0, note=43, velocity=40, time=1),\n",
       "    Message('note_on', channel=0, note=75, velocity=68, time=2),\n",
       "    Message('note_on', channel=0, note=63, velocity=55, time=3),\n",
       "    Message('control_change', channel=0, control=64, value=73, time=6),\n",
       "    Message('control_change', channel=0, control=64, value=63, time=15),\n",
       "    Message('control_change', channel=0, control=64, value=0, time=14),\n",
       "    Message('control_change', channel=0, control=64, value=55, time=45),\n",
       "    Message('control_change', channel=0, control=64, value=65, time=15),\n",
       "    Message('control_change', channel=0, control=64, value=72, time=15),\n",
       "    Message('control_change', channel=0, control=64, value=95, time=15),\n",
       "    Message('note_off', channel=0, note=55, velocity=57, time=6),\n",
       "    Message('control_change', channel=0, control=64, value=127, time=9),\n",
       "    Message('note_off', channel=0, note=75, velocity=57, time=72),\n",
       "    Message('note_off', channel=0, note=63, velocity=54, time=14),\n",
       "    Message('polytouch', channel=0, note=73, value=127, time=39),\n",
       "    Message('note_off', channel=0, note=43, velocity=32, time=32),\n",
       "    Message('polytouch', channel=0, note=73, value=0, time=16),\n",
       "    Message('control_change', channel=0, control=64, value=96, time=19),\n",
       "    Message('note_on', channel=0, note=62, velocity=60, time=3),\n",
       "    Message('note_on', channel=0, note=74, velocity=61, time=4),\n",
       "    Message('note_on', channel=0, note=53, velocity=35, time=5),\n",
       "    Message('control_change', channel=0, control=64, value=72, time=3),\n",
       "    Message('note_on', channel=0, note=44, velocity=37, time=4),\n",
       "    Message('control_change', channel=0, control=64, value=60, time=10),\n",
       "    Message('control_change', channel=0, control=64, value=0, time=15),\n",
       "    Message('control_change', channel=0, control=64, value=55, time=45),\n",
       "    Message('control_change', channel=0, control=64, value=64, time=14),\n",
       "    Message('control_change', channel=0, control=64, value=66, time=15),\n",
       "    Message('control_change', channel=0, control=64, value=71, time=15),\n",
       "    Message('control_change', channel=0, control=64, value=83, time=14),\n",
       "    Message('control_change', channel=0, control=64, value=127, time=15),\n",
       "    Message('note_off', channel=0, note=44, velocity=38, time=43),\n",
       "    Message('note_off', channel=0, note=62, velocity=37, time=8),\n",
       "    Message('note_off', channel=0, note=74, velocity=36, time=10),\n",
       "    Message('note_off', channel=0, note=53, velocity=39, time=157),\n",
       "    Message('note_on', channel=0, note=72, velocity=52, time=37),\n",
       "    Message('note_on', channel=0, note=45, velocity=36, time=11),\n",
       "    Message('control_change', channel=0, control=64, value=98, time=10),\n",
       "    Message('note_on', channel=0, note=51, velocity=31, time=4),\n",
       "    Message('note_on', channel=0, note=60, velocity=11, time=1),\n",
       "    Message('control_change', channel=0, control=64, value=78, time=9),\n",
       "    Message('control_change', channel=0, control=64, value=66, time=15),\n",
       "    Message('control_change', channel=0, control=64, value=45, time=15),\n",
       "    Message('control_change', channel=0, control=64, value=0, time=15),\n",
       "    Message('control_change', channel=0, control=64, value=22, time=29),\n",
       "    Message('control_change', channel=0, control=64, value=51, time=15),\n",
       "    Message('control_change', channel=0, control=64, value=61, time=15),\n",
       "    Message('control_change', channel=0, control=64, value=64, time=15),\n",
       "    Message('control_change', channel=0, control=64, value=66, time=15),\n",
       "    Message('control_change', channel=0, control=64, value=71, time=15),\n",
       "    Message('control_change', channel=0, control=64, value=86, time=14),\n",
       "    Message('control_change', channel=0, control=64, value=127, time=15),\n",
       "    Message('note_off', channel=0, note=60, velocity=42, time=3),\n",
       "    Message('note_off', channel=0, note=51, velocity=39, time=63),\n",
       "    Message('note_off', channel=0, note=72, velocity=35, time=79),\n",
       "    Message('note_on', channel=0, note=50, velocity=40, time=157),\n",
       "    Message('note_on', channel=0, note=46, velocity=41, time=10),\n",
       "    Message('note_on', channel=0, note=70, velocity=64, time=31),\n",
       "    Message('note_on', channel=0, note=58, velocity=49, time=9),\n",
       "    Message('control_change', channel=0, control=64, value=103, time=18),\n",
       "    Message('control_change', channel=0, control=64, value=70, time=23),\n",
       "    Message('note_off', channel=0, note=45, velocity=35, time=10),\n",
       "    Message('control_change', channel=0, control=64, value=0, time=6),\n",
       "    Message('control_change', channel=0, control=64, value=56, time=89),\n",
       "    Message('control_change', channel=0, control=64, value=84, time=15),\n",
       "    Message('control_change', channel=0, control=64, value=127, time=15),\n",
       "    Message('note_off', channel=0, note=58, velocity=47, time=12),\n",
       "    Message('note_on', channel=0, note=53, velocity=44, time=89),\n",
       "    Message('note_off', channel=0, note=50, velocity=61, time=21),\n",
       "    Message('note_off', channel=0, note=53, velocity=61, time=10),\n",
       "    Message('note_off', channel=0, note=46, velocity=63, time=57),\n",
       "    Message('note_on', channel=0, note=72, velocity=74, time=9),\n",
       "    Message('note_on', channel=0, note=60, velocity=53, time=8),\n",
       "    Message('note_off', channel=0, note=70, velocity=63, time=26),\n",
       "    Message('note_off', channel=0, note=60, velocity=50, time=36),\n",
       "    Message('note_on', channel=0, note=34, velocity=56, time=15),\n",
       "    Message('note_off', channel=0, note=34, velocity=61, time=32),\n",
       "    Message('note_off', channel=0, note=72, velocity=31, time=219),\n",
       "    Message('note_on', channel=0, note=58, velocity=62, time=96),\n",
       "    Message('note_on', channel=0, note=74, velocity=70, time=53),\n",
       "    Message('note_on', channel=0, note=62, velocity=56, time=14),\n",
       "    Message('note_off', channel=0, note=58, velocity=54, time=337),\n",
       "    Message('note_on', channel=0, note=72, velocity=51, time=152),\n",
       "    Message('note_on', channel=0, note=57, velocity=35, time=8),\n",
       "    Message('note_off', channel=0, note=57, velocity=31, time=280),\n",
       "    Message('note_on', channel=0, note=70, velocity=56, time=58),\n",
       "    Message('note_on', channel=0, note=55, velocity=33, time=15),\n",
       "    Message('note_off', channel=0, note=62, velocity=42, time=38),\n",
       "    Message('note_off', channel=0, note=55, velocity=42, time=171),\n",
       "    Message('note_on', channel=0, note=69, velocity=52, time=43),\n",
       "    Message('note_off', channel=0, note=72, velocity=39, time=13),\n",
       "    Message('note_on', channel=0, note=53, velocity=42, time=6),\n",
       "    Message('note_off', channel=0, note=70, velocity=62, time=3),\n",
       "    Message('note_off', channel=0, note=69, velocity=63, time=13),\n",
       "    Message('note_off', channel=0, note=74, velocity=20, time=12),\n",
       "    Message('note_off', channel=0, note=53, velocity=54, time=143),\n",
       "    Message('note_on', channel=0, note=46, velocity=49, time=60),\n",
       "    Message('note_on', channel=0, note=51, velocity=50, time=2),\n",
       "    Message('note_on', channel=0, note=75, velocity=79, time=30),\n",
       "    Message('note_on', channel=0, note=67, velocity=62, time=21),\n",
       "    Message('note_off', channel=0, note=67, velocity=0, time=118),\n",
       "    Message('polytouch', channel=0, note=67, value=127, time=37),\n",
       "    Message('polytouch', channel=0, note=67, value=0, time=43),\n",
       "    Message('note_off', channel=0, note=46, velocity=57, time=31),\n",
       "    Message('note_off', channel=0, note=51, velocity=38, time=2),\n",
       "    Message('note_on', channel=0, note=50, velocity=52, time=12),\n",
       "    Message('note_off', channel=0, note=75, velocity=54, time=34),\n",
       "    Message('note_on', channel=0, note=77, velocity=85, time=27),\n",
       "    Message('note_off', channel=0, note=50, velocity=62, time=5),\n",
       "    Message('note_on', channel=0, note=65, velocity=60, time=7),\n",
       "    Message('note_off', channel=0, note=65, velocity=67, time=28),\n",
       "    Message('note_on', channel=0, note=34, velocity=68, time=147),\n",
       "    Message('control_change', channel=0, control=64, value=112, time=8),\n",
       "    Message('control_change', channel=0, control=64, value=70, time=15),\n",
       "    Message('control_change', channel=0, control=64, value=60, time=14),\n",
       "    Message('note_off', channel=0, note=77, velocity=45, time=2),\n",
       "    Message('control_change', channel=0, control=64, value=62, time=13),\n",
       "    Message('control_change', channel=0, control=64, value=67, time=15),\n",
       "    Message('control_change', channel=0, control=64, value=84, time=15),\n",
       "    Message('control_change', channel=0, control=64, value=127, time=15),\n",
       "    Message('note_on', channel=0, note=63, velocity=66, time=12),\n",
       "    Message('note_off', channel=0, note=34, velocity=59, time=38),\n",
       "    Message('note_off', channel=0, note=63, velocity=63, time=26),\n",
       "    Message('note_on', channel=0, note=48, velocity=53, time=105),\n",
       "    Message('note_on', channel=0, note=79, velocity=90, time=29),\n",
       "    Message('note_off', channel=0, note=79, velocity=48, time=170),\n",
       "    Message('note_off', channel=0, note=48, velocity=36, time=204),\n",
       "    Message('note_on', channel=0, note=50, velocity=39, time=71),\n",
       "    Message('note_on', channel=0, note=65, velocity=49, time=23),\n",
       "    Message('note_off', channel=0, note=65, velocity=58, time=116),\n",
       "    Message('note_off', channel=0, note=50, velocity=38, time=199),\n",
       "    Message('note_on', channel=0, note=51, velocity=42, time=24),\n",
       "    Message('note_on', channel=0, note=67, velocity=49, time=7),\n",
       "    Message('note_off', channel=0, note=67, velocity=57, time=110),\n",
       "    Message('note_off', channel=0, note=51, velocity=36, time=158),\n",
       "    Message('note_on', channel=0, note=77, velocity=66, time=13),\n",
       "    Message('note_on', channel=0, note=53, velocity=46, time=6),\n",
       "    Message('note_on', channel=0, note=69, velocity=44, time=10),\n",
       "    Message('note_off', channel=0, note=53, velocity=59, time=205),\n",
       "    Message('note_on', channel=0, note=46, velocity=49, time=13),\n",
       "    Message('note_on', channel=0, note=55, velocity=47, time=10),\n",
       "    Message('control_change', channel=0, control=64, value=81, time=9),\n",
       "    Message('note_on', channel=0, note=75, velocity=73, time=15),\n",
       "    Message('control_change', channel=0, control=64, value=64, time=0),\n",
       "    Message('control_change', channel=0, control=64, value=0, time=15),\n",
       "    Message('note_on', channel=0, note=70, velocity=51, time=3),\n",
       "    Message('note_off', channel=0, note=69, velocity=38, time=9),\n",
       "    Message('note_off', channel=0, note=77, velocity=60, time=5),\n",
       "    Message('control_change', channel=0, control=64, value=43, time=12),\n",
       "    Message('control_change', channel=0, control=64, value=64, time=15),\n",
       "    Message('control_change', channel=0, control=64, value=72, time=15),\n",
       "    Message('control_change', channel=0, control=64, value=116, time=15),\n",
       "    Message('control_change', channel=0, control=64, value=127, time=21),\n",
       "    Message('note_off', channel=0, note=55, velocity=53, time=80),\n",
       "    Message('note_on', channel=0, note=56, velocity=53, time=9),\n",
       "    Message('note_off', channel=0, note=56, velocity=64, time=33),\n",
       "    Message('note_off', channel=0, note=75, velocity=57, time=33),\n",
       "    Message('note_off', channel=0, note=46, velocity=62, time=3),\n",
       "    Message('note_on', channel=0, note=74, velocity=72, time=18),\n",
       "    Message('note_off', channel=0, note=70, velocity=37, time=1),\n",
       "    Message('note_on', channel=0, note=71, velocity=59, time=10),\n",
       "    Message('note_off', channel=0, note=71, velocity=56, time=74),\n",
       "    Message('note_on', channel=0, note=34, velocity=64, time=2),\n",
       "    Message('note_off', channel=0, note=34, velocity=64, time=41),\n",
       "    Message('note_on', channel=0, note=57, velocity=55, time=223),\n",
       "    Message('note_on', channel=0, note=72, velocity=73, time=18),\n",
       "    Message('control_change', channel=0, control=64, value=89, time=33),\n",
       "    Message('control_change', channel=0, control=64, value=70, time=15),\n",
       "    Message('control_change', channel=0, control=64, value=64, time=15),\n",
       "    Message('control_change', channel=0, control=64, value=62, time=15),\n",
       "    Message('control_change', channel=0, control=64, value=64, time=15),\n",
       "    Message('control_change', channel=0, control=64, value=67, time=15),\n",
       "    Message('control_change', channel=0, control=64, value=71, time=15),\n",
       "    Message('control_change', channel=0, control=64, value=79, time=15),\n",
       "    Message('control_change', channel=0, control=64, value=127, time=15),\n",
       "    Message('note_off', channel=0, note=57, velocity=49, time=243),\n",
       "    Message('note_on', channel=0, note=55, velocity=44, time=12),\n",
       "    Message('note_on', channel=0, note=70, velocity=67, time=20),\n",
       "    Message('note_off', channel=0, note=72, velocity=57, time=46),\n",
       "    Message('note_off', channel=0, note=74, velocity=47, time=105),\n",
       "    Message('note_off', channel=0, note=70, velocity=63, time=6),\n",
       "    Message('note_on', channel=0, note=72, velocity=56, time=24),\n",
       "    Message('note_off', channel=0, note=72, velocity=63, time=52),\n",
       "    Message('note_on', channel=0, note=74, velocity=67, time=6),\n",
       "    Message('note_off', channel=0, note=55, velocity=46, time=10),\n",
       "    Message('note_on', channel=0, note=53, velocity=42, time=59),\n",
       "    Message('control_change', channel=0, control=64, value=89, time=3),\n",
       "    Message('note_on', channel=0, note=72, velocity=74, time=8),\n",
       "    Message('control_change', channel=0, control=64, value=70, time=6),\n",
       "    Message('note_on', channel=0, note=69, velocity=53, time=4),\n",
       "    Message('control_change', channel=0, control=64, value=61, time=11),\n",
       "    Message('note_off', channel=0, note=74, velocity=48, time=4),\n",
       "    Message('control_change', channel=0, control=64, value=59, time=11),\n",
       "    Message('control_change', channel=0, control=64, value=64, time=15),\n",
       "    Message('control_change', channel=0, control=64, value=66, time=14),\n",
       "    Message('control_change', channel=0, control=64, value=71, time=15),\n",
       "    Message('control_change', channel=0, control=64, value=82, time=15),\n",
       "    Message('control_change', channel=0, control=64, value=127, time=14),\n",
       "    Message('note_off', channel=0, note=69, velocity=39, time=63),\n",
       "    Message('note_off', channel=0, note=53, velocity=37, time=76),\n",
       "    Message('note_on', channel=0, note=74, velocity=77, time=53),\n",
       "    Message('note_on', channel=0, note=67, velocity=53, time=4),\n",
       "    Message('note_on', channel=0, note=51, velocity=48, time=1),\n",
       "    Message('note_off', channel=0, note=72, velocity=54, time=44),\n",
       "    Message('note_off', channel=0, note=67, velocity=38, time=54),\n",
       "    Message('note_off', channel=0, note=51, velocity=55, time=87),\n",
       "    Message('note_off', channel=0, note=74, velocity=65, time=66),\n",
       "    Message('note_on', channel=0, note=50, velocity=42, time=8),\n",
       "    Message('note_on', channel=0, note=75, velocity=77, time=5),\n",
       "    Message('control_change', channel=0, control=64, value=84, time=7),\n",
       "    Message('note_on', channel=0, note=46, velocity=36, time=9),\n",
       "    Message('note_on', channel=0, note=65, velocity=61, time=1),\n",
       "    Message('control_change', channel=0, control=64, value=68, time=4),\n",
       "    Message('control_change', channel=0, control=64, value=60, time=15),\n",
       "    Message('control_change', channel=0, control=64, value=48, time=15),\n",
       "    Message('control_change', channel=0, control=64, value=59, time=16),\n",
       "    Message('control_change', channel=0, control=64, value=64, time=15),\n",
       "    Message('control_change', channel=0, control=64, value=66, time=14),\n",
       "    Message('note_off', channel=0, note=65, velocity=53, time=5),\n",
       "    Message('control_change', channel=0, control=64, value=69, time=10),\n",
       "    Message('control_change', channel=0, control=64, value=77, time=15),\n",
       "    Message('control_change', channel=0, control=64, value=107, time=15),\n",
       "    Message('control_change', channel=0, control=64, value=127, time=15),\n",
       "    Message('note_off', channel=0, note=50, velocity=49, time=77),\n",
       "    Message('note_on', channel=0, note=48, velocity=40, time=18),\n",
       "    Message('note_on', channel=0, note=63, velocity=57, time=6),\n",
       "    Message('note_off', channel=0, note=48, velocity=60, time=30),\n",
       "    Message('note_off', channel=0, note=46, velocity=61, time=12),\n",
       "    Message('note_off', channel=0, note=63, velocity=56, time=45),\n",
       "    Message('note_off', channel=0, note=75, velocity=40, time=1),\n",
       "    Message('note_on', channel=0, note=62, velocity=49, time=69),\n",
       "    Message('note_off', channel=0, note=62, velocity=46, time=79),\n",
       "    Message('note_on', channel=0, note=34, velocity=42, time=83),\n",
       "    Message('note_on', channel=0, note=46, velocity=42, time=17),\n",
       "    Message('note_on', channel=0, note=77, velocity=73, time=62),\n",
       "    Message('control_change', channel=0, control=64, value=93, time=11),\n",
       "    Message('control_change', channel=0, control=64, value=68, time=15),\n",
       "    Message('control_change', channel=0, control=64, value=46, time=14),\n",
       "    Message('control_change', channel=0, control=64, value=0, time=15),\n",
       "    Message('control_change', channel=0, control=64, value=55, time=30),\n",
       "    Message('control_change', channel=0, control=64, value=64, time=15),\n",
       "    Message('control_change', channel=0, control=64, value=68, time=14),\n",
       "    Message('control_change', channel=0, control=64, value=83, time=15),\n",
       "    Message('control_change', channel=0, control=64, value=127, time=15),\n",
       "    Message('note_off', channel=0, note=34, velocity=42, time=64),\n",
       "    Message('note_off', channel=0, note=46, velocity=60, time=56),\n",
       "    Message('note_on', channel=0, note=48, velocity=34, time=223),\n",
       "    Message('note_on', channel=0, note=63, velocity=33, time=7),\n",
       "    Message('note_off', channel=0, note=63, velocity=57, time=117),\n",
       "    Message('note_off', channel=0, note=77, velocity=29, time=203),\n",
       "    Message('note_on', channel=0, note=65, velocity=41, time=33),\n",
       "    Message('note_off', channel=0, note=48, velocity=42, time=0),\n",
       "    Message('note_on', channel=0, note=50, velocity=38, time=8),\n",
       "    Message('note_off', channel=0, note=65, velocity=52, time=122),\n",
       "    Message('note_off', channel=0, note=50, velocity=36, time=122),\n",
       "    Message('note_on', channel=0, note=51, velocity=40, time=27),\n",
       "    Message('note_on', channel=0, note=75, velocity=63, time=9),\n",
       "    Message('note_on', channel=0, note=67, velocity=40, time=13),\n",
       "    Message('note_off', channel=0, note=75, velocity=61, time=222),\n",
       "    Message('note_off', channel=0, note=67, velocity=35, time=36),\n",
       "    Message('note_on', channel=0, note=52, velocity=41, time=7),\n",
       "    Message('note_off', channel=0, note=51, velocity=37, time=1),\n",
       "    Message('note_on', channel=0, note=46, velocity=49, time=1),\n",
       "    Message('control_change', channel=0, control=64, value=95, time=5),\n",
       "    Message('note_on', channel=0, note=68, velocity=51, time=10),\n",
       "    Message('note_on', channel=0, note=74, velocity=64, time=1),\n",
       "    Message('control_change', channel=0, control=64, value=73, time=3),\n",
       "    Message('control_change', channel=0, control=64, value=63, time=15),\n",
       "    Message('control_change', channel=0, control=64, value=0, time=15),\n",
       "    Message('control_change', channel=0, control=64, value=56, time=44),\n",
       "    Message('control_change', channel=0, control=64, value=64, time=15),\n",
       "    Message('control_change', channel=0, control=64, value=68, time=15),\n",
       "    Message('control_change', channel=0, control=64, value=76, time=15),\n",
       "    Message('control_change', channel=0, control=64, value=127, time=14),\n",
       "    Message('note_on', channel=0, note=53, velocity=45, time=95),\n",
       "    Message('note_off', channel=0, note=52, velocity=38, time=2),\n",
       "    Message('note_off', channel=0, note=74, velocity=54, time=16),\n",
       "    Message('note_off', channel=0, note=53, velocity=62, time=13),\n",
       "    Message('note_on', channel=0, note=72, velocity=66, time=15),\n",
       "    Message('note_off', channel=0, note=46, velocity=61, time=2),\n",
       "    Message('note_on', channel=0, note=69, velocity=51, time=15),\n",
       "    Message('note_off', channel=0, note=68, velocity=36, time=42),\n",
       "    Message('note_off', channel=0, note=69, velocity=61, time=10),\n",
       "    Message('note_on', channel=0, note=34, velocity=55, time=51),\n",
       "    Message('note_off', channel=0, note=34, velocity=64, time=40),\n",
       "    Message('note_on', channel=0, note=55, velocity=56, time=219),\n",
       "    Message('note_on', channel=0, note=70, velocity=62, time=18),\n",
       "    Message('control_change', channel=0, control=64, value=111, time=48),\n",
       "    Message('control_change', channel=0, control=64, value=81, time=15),\n",
       "    Message('control_change', channel=0, control=64, value=68, time=15),\n",
       "    Message('control_change', channel=0, control=64, value=64, time=14),\n",
       "    Message('control_change', channel=0, control=64, value=67, time=30),\n",
       "    Message('control_change', channel=0, control=64, value=72, time=14),\n",
       "    Message('control_change', channel=0, control=64, value=81, time=15),\n",
       "    Message('control_change', channel=0, control=64, value=105, time=15),\n",
       "    Message('control_change', channel=0, control=64, value=127, time=15),\n",
       "    Message('note_on', channel=0, note=53, velocity=43, time=255),\n",
       "    Message('note_on', channel=0, note=69, velocity=59, time=10),\n",
       "    Message('note_off', channel=0, note=55, velocity=36, time=32),\n",
       "    Message('note_off', channel=0, note=70, velocity=57, time=18),\n",
       "    Message('note_off', channel=0, note=72, velocity=38, time=21),\n",
       "    Message('note_off', channel=0, note=69, velocity=61, time=140),\n",
       "    Message('note_on', channel=0, note=70, velocity=53, time=15),\n",
       "    Message('note_off', channel=0, note=70, velocity=65, time=35),\n",
       "    Message('note_on', channel=0, note=72, velocity=60, time=19),\n",
       "    Message('control_change', channel=0, control=64, value=115, time=56),\n",
       "    Message('note_off', channel=0, note=53, velocity=35, time=9),\n",
       "    Message('control_change', channel=0, control=64, value=89, time=6),\n",
       "    Message('note_on', channel=0, note=70, velocity=60, time=2),\n",
       "    Message('note_on', channel=0, note=51, velocity=44, time=4),\n",
       "    Message('control_change', channel=0, control=64, value=74, time=9),\n",
       "    Message('note_off', channel=0, note=72, velocity=56, time=4),\n",
       "    Message('note_on', channel=0, note=67, velocity=48, time=5),\n",
       "    Message('control_change', channel=0, control=64, value=64, time=6),\n",
       "    Message('control_change', channel=0, control=64, value=43, time=14),\n",
       "    Message('control_change', channel=0, control=64, value=0, time=15),\n",
       "    Message('control_change', channel=0, control=64, value=44, time=15),\n",
       "    Message('control_change', channel=0, control=64, value=60, time=15),\n",
       "    Message('control_change', channel=0, control=64, value=65, time=15),\n",
       "    Message('control_change', channel=0, control=64, value=68, time=14),\n",
       "    Message('control_change', channel=0, control=64, value=76, time=15),\n",
       "    Message('note_off', channel=0, note=67, velocity=51, time=1),\n",
       "    Message('control_change', channel=0, control=64, value=108, time=14),\n",
       "    Message('control_change', channel=0, control=64, value=127, time=14),\n",
       "    Message('note_off', channel=0, note=51, velocity=55, time=89),\n",
       "    Message('note_off', channel=0, note=70, velocity=56, time=51),\n",
       "    Message('note_on', channel=0, note=72, velocity=65, time=7),\n",
       "    Message('note_on', channel=0, note=50, velocity=42, time=5),\n",
       "    Message('note_on', channel=0, note=65, velocity=46, time=11),\n",
       "    Message('note_off', channel=0, note=65, velocity=53, time=62),\n",
       "    Message('note_on', channel=0, note=46, velocity=42, time=108),\n",
       "    Message('note_off', channel=0, note=50, velocity=38, time=24),\n",
       "    Message('note_on', channel=0, note=48, velocity=49, time=53),\n",
       "    Message('control_change', channel=0, control=64, value=111, time=0),\n",
       "    Message('control_change', channel=0, control=64, value=76, time=14),\n",
       "    Message('note_on', channel=0, note=74, velocity=74, time=7),\n",
       "    Message('note_off', channel=0, note=46, velocity=53, time=4),\n",
       "    Message('control_change', channel=0, control=64, value=64, time=4),\n",
       "    Message('note_on', channel=0, note=63, velocity=55, time=1),\n",
       "    Message('control_change', channel=0, control=64, value=32, time=14),\n",
       "    Message('note_off', channel=0, note=72, velocity=57, time=1),\n",
       "    Message('control_change', channel=0, control=64, value=46, time=14),\n",
       "    Message('control_change', channel=0, control=64, value=61, time=15),\n",
       "    Message('control_change', channel=0, control=64, value=65, time=14),\n",
       "    Message('control_change', channel=0, control=64, value=68, time=15),\n",
       "    Message('control_change', channel=0, control=64, value=74, time=15),\n",
       "    Message('control_change', channel=0, control=64, value=96, time=15),\n",
       "    Message('control_change', channel=0, control=64, value=127, time=15),\n",
       "    Message('note_off', channel=0, note=63, velocity=52, time=92),\n",
       "    Message('note_on', channel=0, note=46, velocity=45, time=50),\n",
       "    Message('note_off', channel=0, note=48, velocity=59, time=8),\n",
       "    Message('note_on', channel=0, note=62, velocity=47, time=10),\n",
       "    Message('note_off', channel=0, note=46, velocity=62, time=24),\n",
       "    Message('note_off', channel=0, note=62, velocity=58, time=23),\n",
       "    Message('note_off', channel=0, note=74, velocity=39, time=12),\n",
       "    Message('note_on', channel=0, note=60, velocity=40, time=130),\n",
       "    Message('note_on', channel=0, note=45, velocity=45, time=182),\n",
       "    Message('note_on', channel=0, note=34, velocity=41, time=10),\n",
       "    Message('polytouch', channel=0, note=62, value=127, time=13),\n",
       "    Message('control_change', channel=0, control=64, value=99, time=77),\n",
       "    Message('control_change', channel=0, control=64, value=80, time=14),\n",
       "    Message('note_on', channel=0, note=75, velocity=68, time=9),\n",
       "    Message('control_change', channel=0, control=64, value=68, time=6),\n",
       "    Message('control_change', channel=0, control=64, value=59, time=15),\n",
       "    Message('control_change', channel=0, control=64, value=36, time=14),\n",
       "    Message('control_change', channel=0, control=64, value=52, time=15),\n",
       "    Message('control_change', channel=0, control=64, value=63, time=15),\n",
       "    Message('control_change', channel=0, control=64, value=66, time=15),\n",
       "    Message('control_change', channel=0, control=64, value=69, time=15),\n",
       "    Message('control_change', channel=0, control=64, value=78, time=14),\n",
       "    Message('control_change', channel=0, control=64, value=108, time=15),\n",
       "    Message('control_change', channel=0, control=64, value=127, time=15),\n",
       "    Message('note_off', channel=0, note=34, velocity=43, time=28),\n",
       "    Message('note_off', channel=0, note=60, velocity=43, time=72),\n",
       "    Message('polytouch', channel=0, note=62, value=0, time=2),\n",
       "    Message('note_off', channel=0, note=75, velocity=38, time=144),\n",
       "    Message('note_on', channel=0, note=74, velocity=56, time=121),\n",
       "    Message('note_on', channel=0, note=62, velocity=42, time=15),\n",
       "    Message('note_on', channel=0, note=46, velocity=42, time=6),\n",
       "    Message('note_off', channel=0, note=45, velocity=53, time=3),\n",
       "    Message('note_off', channel=0, note=62, velocity=60, time=81),\n",
       "    Message('note_off', channel=0, note=74, velocity=53, time=129),\n",
       "    Message('note_on', channel=0, note=48, velocity=49, time=137),\n",
       "    Message('control_change', channel=0, control=64, value=92, time=11),\n",
       "    Message('note_on', channel=0, note=72, velocity=54, time=5),\n",
       "    Message('control_change', channel=0, control=64, value=73, time=10),\n",
       "    Message('note_on', channel=0, note=63, velocity=39, time=5),\n",
       "    Message('note_off', channel=0, note=46, velocity=40, time=2),\n",
       "    Message('control_change', channel=0, control=64, value=65, time=8),\n",
       "    Message('control_change', channel=0, control=64, value=61, time=14),\n",
       "    Message('control_change', channel=0, control=64, value=62, time=15),\n",
       "    Message('control_change', channel=0, control=64, value=64, time=15),\n",
       "    Message('control_change', channel=0, control=64, value=68, time=14),\n",
       "    Message('control_change', channel=0, control=64, value=77, time=15),\n",
       "    Message('control_change', channel=0, control=64, value=112, time=15),\n",
       "    Message('control_change', channel=0, control=64, value=127, time=15),\n",
       "    Message('note_off', channel=0, note=63, velocity=50, time=70),\n",
       "    Message('note_off', channel=0, note=72, velocity=37, time=54),\n",
       "    Message('note_off', channel=0, note=48, velocity=62, time=38),\n",
       "    Message('control_change', channel=0, control=64, value=96, time=1),\n",
       "    Message('control_change', channel=0, control=64, value=70, time=15),\n",
       "    Message('note_on', channel=0, note=70, velocity=60, time=1),\n",
       "    Message('note_on', channel=0, note=64, velocity=48, time=2),\n",
       "    Message('note_on', channel=0, note=49, velocity=47, time=12),\n",
       "    Message('control_change', channel=0, control=64, value=60, time=0),\n",
       "    Message('control_change', channel=0, control=64, value=46, time=15),\n",
       "    Message('control_change', channel=0, control=64, value=60, time=14),\n",
       "    Message('control_change', channel=0, control=64, value=66, time=15),\n",
       "    Message('control_change', channel=0, control=64, value=75, time=15),\n",
       "    Message('control_change', channel=0, control=64, value=127, time=15),\n",
       "    Message('note_off', channel=0, note=64, velocity=57, time=60),\n",
       "    Message('note_off', channel=0, note=70, velocity=60, time=52),\n",
       "    Message('note_off', channel=0, note=49, velocity=53, time=45),\n",
       "    Message('control_change', channel=0, control=64, value=80, time=12),\n",
       "    Message('control_change', channel=0, control=64, value=67, time=15),\n",
       "    Message('note_on', channel=0, note=50, velocity=39, time=6),\n",
       "    Message('control_change', channel=0, control=64, value=60, time=9),\n",
       "    Message('note_on', channel=0, note=69, velocity=56, time=1),\n",
       "    Message('note_on', channel=0, note=65, velocity=48, time=4),\n",
       "    Message('control_change', channel=0, control=64, value=59, time=10),\n",
       "    Message('control_change', channel=0, control=64, value=64, time=15),\n",
       "    Message('control_change', channel=0, control=64, value=68, time=16),\n",
       "    Message('control_change', channel=0, control=64, value=74, time=15),\n",
       "    Message('control_change', channel=0, control=64, value=94, time=14),\n",
       "    Message('control_change', channel=0, control=64, value=127, time=15),\n",
       "    Message('note_off', channel=0, note=69, velocity=63, time=17),\n",
       "    Message('note_off', channel=0, note=65, velocity=38, time=127),\n",
       "    Message('control_change', channel=0, control=64, value=101, time=4),\n",
       "    Message('note_off', channel=0, note=50, velocity=53, time=7),\n",
       "    Message('note_on', channel=0, note=67, velocity=59, time=6),\n",
       "    Message('control_change', channel=0, control=64, value=72, time=2),\n",
       "    Message('control_change', channel=0, control=64, value=61, time=14),\n",
       "    Message('note_on', channel=0, note=51, velocity=37, time=6),\n",
       "    Message('note_on', channel=0, note=63, velocity=51, time=2),\n",
       "    Message('control_change', channel=0, control=64, value=0, time=7),\n",
       "    Message('control_change', channel=0, control=64, value=47, time=29),\n",
       "    Message('control_change', channel=0, control=64, value=62, time=15),\n",
       "    Message('control_change', channel=0, control=64, value=65, time=15),\n",
       "    Message('control_change', channel=0, control=64, value=70, time=15),\n",
       "    Message('control_change', channel=0, control=64, value=85, time=15),\n",
       "    Message('note_off', channel=0, note=67, velocity=58, time=10),\n",
       "    Message('control_change', channel=0, control=64, value=127, time=4),\n",
       "    Message('note_off', channel=0, note=51, velocity=56, time=55),\n",
       "    Message('note_off', channel=0, note=63, velocity=57, time=74),\n",
       "    Message('control_change', channel=0, control=64, value=89, time=20),\n",
       "    Message('note_on', channel=0, note=53, velocity=41, time=7),\n",
       "    Message('note_on', channel=0, note=65, velocity=53, time=2),\n",
       "    Message('control_change', channel=0, control=64, value=69, time=6),\n",
       "    Message('note_on', channel=0, note=62, velocity=44, time=2),\n",
       "    Message('control_change', channel=0, control=64, value=53, time=13),\n",
       "    Message('control_change', channel=0, control=64, value=0, time=15),\n",
       "    Message('control_change', channel=0, control=64, value=59, time=58),\n",
       "    Message('control_change', channel=0, control=64, value=65, time=15),\n",
       "    Message('control_change', channel=0, control=64, value=69, time=15),\n",
       "    Message('control_change', channel=0, control=64, value=80, time=23),\n",
       "    Message('control_change', channel=0, control=64, value=127, time=15),\n",
       "    Message('note_off', channel=0, note=62, velocity=45, time=54),\n",
       "    Message('note_off', channel=0, note=53, velocity=55, time=24),\n",
       "    Message('note_off', channel=0, note=65, velocity=45, time=26),\n",
       "    Message('control_change', channel=0, control=64, value=86, time=75),\n",
       "    Message('note_on', channel=0, note=55, velocity=43, time=5),\n",
       "    Message('control_change', channel=0, control=64, value=67, time=9),\n",
       "    Message('note_on', channel=0, note=63, velocity=46, time=11),\n",
       "    Message('control_change', channel=0, control=64, value=28, time=4),\n",
       "    Message('note_on', channel=0, note=60, velocity=33, time=1),\n",
       "    Message('control_change', channel=0, control=64, value=0, time=14),\n",
       "    Message('control_change', channel=0, control=64, value=31, time=30),\n",
       "    Message('control_change', channel=0, control=64, value=62, time=15),\n",
       "    Message('control_change', channel=0, control=64, value=66, time=15),\n",
       "    Message('control_change', channel=0, control=64, value=72, time=15),\n",
       "    Message('control_change', channel=0, control=64, value=89, time=14),\n",
       "    Message('note_off', channel=0, note=60, velocity=57, time=3),\n",
       "    Message('control_change', channel=0, control=64, value=127, time=12),\n",
       "    Message('note_off', channel=0, note=63, velocity=59, time=20),\n",
       "    Message('note_off', channel=0, note=55, velocity=36, time=76),\n",
       "    Message('note_on', channel=0, note=57, velocity=50, time=81),\n",
       "    Message('control_change', channel=0, control=64, value=92, time=30),\n",
       "    Message('control_change', channel=0, control=64, value=73, time=15),\n",
       "    Message('control_change', channel=0, control=64, value=62, time=14),\n",
       "    Message('control_change', channel=0, control=64, value=0, time=15),\n",
       "    Message('note_off', channel=0, note=57, velocity=62, time=1),\n",
       "    Message('note_on', channel=0, note=62, velocity=52, time=50),\n",
       "    Message('note_on', channel=0, note=58, velocity=36, time=21),\n",
       "    Message('control_change', channel=0, control=64, value=64, time=84),\n",
       "    Message('control_change', channel=0, control=64, value=71, time=15),\n",
       "    Message('control_change', channel=0, control=64, value=88, time=14),\n",
       "    Message('control_change', channel=0, control=64, value=127, time=15),\n",
       "    Message('note_off', channel=0, note=58, velocity=36, time=212),\n",
       "    Message('note_off', channel=0, note=62, velocity=36, time=126),\n",
       "    Message('note_on', channel=0, note=60, velocity=42, time=108),\n",
       "    Message('note_on', channel=0, note=57, velocity=38, time=7),\n",
       "    Message('control_change', channel=0, control=64, value=115, time=8),\n",
       "    Message('control_change', channel=0, control=64, value=79, time=15),\n",
       "    Message('control_change', channel=0, control=64, value=65, time=14),\n",
       "    Message('control_change', channel=0, control=64, value=0, time=15),\n",
       "    Message('control_change', channel=0, control=64, value=52, time=59),\n",
       "    Message('control_change', channel=0, control=64, value=63, time=15),\n",
       "    Message('control_change', channel=0, control=64, value=67, time=15),\n",
       "    Message('control_change', channel=0, control=64, value=74, time=14),\n",
       "    Message('control_change', channel=0, control=64, value=97, time=15),\n",
       "    Message('control_change', channel=0, control=64, value=127, time=15),\n",
       "    Message('note_off', channel=0, note=57, velocity=42, time=33),\n",
       "    Message('note_off', channel=0, note=60, velocity=37, time=96),\n",
       "    Message('note_on', channel=0, note=58, velocity=46, time=94),\n",
       "    Message('note_on', channel=0, note=55, velocity=35, time=4),\n",
       "    Message('control_change', channel=0, control=64, value=82, time=3),\n",
       "    Message('control_change', channel=0, control=64, value=67, time=14),\n",
       "    Message('control_change', channel=0, control=64, value=57, time=15),\n",
       "    Message('control_change', channel=0, control=64, value=58, time=15),\n",
       "    Message('control_change', channel=0, control=64, value=64, time=15),\n",
       "    Message('control_change', channel=0, control=64, value=69, time=15),\n",
       "    Message('control_change', channel=0, control=64, value=79, time=16),\n",
       "    Message('control_change', channel=0, control=64, value=127, time=15),\n",
       "    Message('note_off', channel=0, note=55, velocity=49, time=10),\n",
       "    Message('note_off', channel=0, note=58, velocity=37, time=72),\n",
       "    Message('control_change', channel=0, control=64, value=84, time=95),\n",
       "    Message('note_on', channel=0, note=62, velocity=57, time=9),\n",
       "    Message('note_on', channel=0, note=57, velocity=49, time=3),\n",
       "    Message('control_change', channel=0, control=64, value=68, time=3),\n",
       "    Message('note_on', channel=0, note=53, velocity=44, time=2),\n",
       "    Message('control_change', channel=0, control=64, value=57, time=13),\n",
       "    Message('control_change', channel=0, control=64, value=0, time=15),\n",
       "    Message('control_change', channel=0, control=64, value=35, time=15),\n",
       "    Message('control_change', channel=0, control=64, value=57, time=15),\n",
       "    Message('note_off', channel=0, note=57, velocity=63, time=3),\n",
       "    Message('control_change', channel=0, control=64, value=64, time=11),\n",
       "    Message('control_change', channel=0, control=64, value=67, time=15),\n",
       "    Message('control_change', channel=0, control=64, value=76, time=15),\n",
       "    Message('control_change', channel=0, control=64, value=113, time=15),\n",
       "    Message('control_change', channel=0, control=64, value=127, time=15),\n",
       "    Message('note_off', channel=0, note=62, velocity=58, time=71),\n",
       "    Message('note_off', channel=0, note=53, velocity=52, time=13),\n",
       "    Message('control_change', channel=0, control=64, value=97, time=34),\n",
       "    Message('control_change', channel=0, control=64, value=71, time=14),\n",
       "    Message('note_on', channel=0, note=63, velocity=60, time=3),\n",
       "    Message('note_on', channel=0, note=55, velocity=54, time=6),\n",
       "    Message('control_change', channel=0, control=64, value=52, time=6),\n",
       "    Message('note_on', channel=0, note=51, velocity=41, time=12),\n",
       "    Message('control_change', channel=0, control=64, value=0, time=11),\n",
       "    Message('control_change', channel=0, control=64, value=61, time=44),\n",
       "    Message('control_change', channel=0, control=64, value=69, time=15),\n",
       "    Message('control_change', channel=0, control=64, value=89, time=15),\n",
       "    Message('control_change', channel=0, control=64, value=127, time=14),\n",
       "    Message('note_off', channel=0, note=51, velocity=50, time=31),\n",
       "    Message('note_off', channel=0, note=55, velocity=57, time=13),\n",
       "    Message('note_off', channel=0, note=63, velocity=54, time=32),\n",
       "    Message('control_change', channel=0, control=64, value=91, time=28),\n",
       "    Message('control_change', channel=0, control=64, value=68, time=15),\n",
       "    Message('note_on', channel=0, note=65, velocity=68, time=6),\n",
       "    Message('control_change', channel=0, control=64, value=29, time=9),\n",
       "    Message('note_on', channel=0, note=53, velocity=46, time=5),\n",
       "    Message('note_on', channel=0, note=50, velocity=42, time=3),\n",
       "    Message('control_change', channel=0, control=64, value=0, time=6),\n",
       "    Message('control_change', channel=0, control=64, value=49, time=61),\n",
       "    Message('control_change', channel=0, control=64, value=62, time=15),\n",
       "    Message('control_change', channel=0, control=64, value=65, time=15),\n",
       "    Message('control_change', channel=0, control=64, value=72, time=14),\n",
       "    Message('control_change', channel=0, control=64, value=103, time=15),\n",
       "    Message('control_change', channel=0, control=64, value=127, time=15),\n",
       "    Message('note_off', channel=0, note=50, velocity=42, time=80),\n",
       "    Message('note_off', channel=0, note=53, velocity=37, time=30),\n",
       "    Message('note_on', channel=0, note=58, velocity=47, time=240),\n",
       "    Message('note_on', channel=0, note=66, velocity=61, time=1),\n",
       "    Message('note_on', channel=0, note=51, velocity=50, time=2),\n",
       "    Message('note_on', channel=0, note=48, velocity=41, time=17),\n",
       "    Message('control_change', channel=0, control=64, value=98, time=22),\n",
       "    Message('control_change', channel=0, control=64, value=84, time=15),\n",
       "    Message('control_change', channel=0, control=64, value=73, time=15),\n",
       "    Message('note_off', channel=0, note=65, velocity=54, time=0),\n",
       "    Message('control_change', channel=0, control=64, value=66, time=15),\n",
       "    Message('control_change', channel=0, control=64, value=55, time=15),\n",
       "    Message('control_change', channel=0, control=64, value=0, time=15),\n",
       "    Message('control_change', channel=0, control=64, value=38, time=718),\n",
       "    Message('control_change', channel=0, control=64, value=54, time=15),\n",
       "    Message('control_change', channel=0, control=64, value=59, time=15),\n",
       "    Message('control_change', channel=0, control=64, value=61, time=15),\n",
       "    Message('control_change', channel=0, control=64, value=62, time=15),\n",
       "    Message('control_change', channel=0, control=64, value=63, time=15),\n",
       "    Message('control_change', channel=0, control=64, value=64, time=14),\n",
       "    Message('control_change', channel=0, control=64, value=66, time=15),\n",
       "    Message('control_change', channel=0, control=64, value=68, time=15),\n",
       "    Message('control_change', channel=0, control=64, value=72, time=15),\n",
       "    Message('control_change', channel=0, control=64, value=78, time=15),\n",
       "    Message('control_change', channel=0, control=64, value=89, time=15),\n",
       "    Message('control_change', channel=0, control=64, value=122, time=14),\n",
       "    Message('control_change', channel=0, control=64, value=127, time=15),\n",
       "    Message('note_off', channel=0, note=66, velocity=38, time=233),\n",
       "    Message('note_off', channel=0, note=58, velocity=39, time=114),\n",
       "    Message('note_on', channel=0, note=65, velocity=38, time=855),\n",
       "    Message('note_on', channel=0, note=57, velocity=39, time=27),\n",
       "    Message('control_change', channel=0, control=64, value=100, time=31),\n",
       "    Message('control_change', channel=0, control=64, value=86, time=15),\n",
       "    Message('control_change', channel=0, control=64, value=78, time=15),\n",
       "    Message('control_change', channel=0, control=64, value=71, time=14),\n",
       "    Message('control_change', channel=0, control=64, value=67, time=15),\n",
       "    Message('control_change', channel=0, control=64, value=65, time=15),\n",
       "    Message('control_change', channel=0, control=64, value=63, time=15),\n",
       "    Message('control_change', channel=0, control=64, value=56, time=14),\n",
       "    Message('control_change', channel=0, control=64, value=46, time=15),\n",
       "    Message('control_change', channel=0, control=64, value=33, time=15),\n",
       "    Message('control_change', channel=0, control=64, value=28, time=15),\n",
       "    Message('control_change', channel=0, control=64, value=29, time=15),\n",
       "    Message('control_change', channel=0, control=64, value=34, time=15),\n",
       "    Message('control_change', channel=0, control=64, value=42, time=15),\n",
       "    Message('control_change', channel=0, control=64, value=51, time=14),\n",
       "    Message('control_change', channel=0, control=64, value=59, time=15),\n",
       "    Message('control_change', channel=0, control=64, value=64, time=15),\n",
       "    Message('control_change', channel=0, control=64, value=68, time=15),\n",
       "    Message('control_change', channel=0, control=64, value=77, time=15),\n",
       "    Message('control_change', channel=0, control=64, value=127, time=15),\n",
       "    Message('note_off', channel=0, note=65, velocity=39, time=77),\n",
       "    Message('note_off', channel=0, note=57, velocity=33, time=24),\n",
       "    Message('note_off', channel=0, note=48, velocity=40, time=171),\n",
       "    Message('note_off', channel=0, note=51, velocity=42, time=20),\n",
       "    Message('note_on', channel=0, note=34, velocity=42, time=452),\n",
       "    Message('control_change', channel=0, control=64, value=86, time=63),\n",
       "    Message('control_change', channel=0, control=64, value=70, time=15),\n",
       "    Message('control_change', channel=0, control=64, value=63, time=14),\n",
       "    Message('control_change', channel=0, control=64, value=58, time=15),\n",
       "    Message('control_change', channel=0, control=64, value=63, time=15),\n",
       "    Message('control_change', channel=0, control=64, value=65, time=15),\n",
       "    Message('control_change', channel=0, control=64, value=68, time=15),\n",
       "    Message('control_change', channel=0, control=64, value=73, time=14),\n",
       "    Message('note_off', channel=0, note=34, velocity=55, time=5),\n",
       "    Message('control_change', channel=0, control=64, value=84, time=10),\n",
       "    Message('control_change', channel=0, control=64, value=127, time=15),\n",
       "    Message('note_on', channel=0, note=50, velocity=32, time=426),\n",
       "    Message('note_on', channel=0, note=65, velocity=38, time=5),\n",
       "    Message('note_on', channel=0, note=58, velocity=33, time=1),\n",
       "    Message('note_on', channel=0, note=53, velocity=28, time=8),\n",
       "    Message('note_off', channel=0, note=65, velocity=41, time=468),\n",
       "    Message('note_off', channel=0, note=53, velocity=41, time=51),\n",
       "    Message('note_off', channel=0, note=58, velocity=33, time=39),\n",
       "    Message('note_off', channel=0, note=50, velocity=40, time=1682),\n",
       "    Message('control_change', channel=0, control=64, value=106, time=694),\n",
       "    Message('control_change', channel=0, control=64, value=97, time=15),\n",
       "    Message('control_change', channel=0, control=64, value=91, time=15),\n",
       "    Message('control_change', channel=0, control=64, value=86, time=14),\n",
       "    Message('control_change', channel=0, control=64, value=81, time=15),\n",
       "    Message('control_change', channel=0, control=64, value=75, time=15),\n",
       "    Message('control_change', channel=0, control=64, value=70, time=15),\n",
       "    Message('control_change', channel=0, control=64, value=67, time=15),\n",
       "    Message('control_change', channel=0, control=64, value=64, time=15),\n",
       "    Message('control_change', channel=0, control=64, value=62, time=14),\n",
       "    Message('control_change', channel=0, control=64, value=60, time=15),\n",
       "    Message('note_on', channel=0, note=43, velocity=33, time=3),\n",
       "    Message('note_on', channel=0, note=31, velocity=30, time=10),\n",
       "    Message('control_change', channel=0, control=64, value=55, time=2),\n",
       "    Message('control_change', channel=0, control=64, value=42, time=15),\n",
       "    Message('control_change', channel=0, control=64, value=0, time=15),\n",
       "    Message('note_on', channel=0, note=63, velocity=50, time=40),\n",
       "    Message('control_change', channel=0, control=64, value=56, time=167),\n",
       "    Message('control_change', channel=0, control=64, value=64, time=15),\n",
       "    Message('control_change', channel=0, control=64, value=68, time=15),\n",
       "    Message('control_change', channel=0, control=64, value=76, time=14),\n",
       "    Message('note_on', channel=0, note=51, velocity=35, time=7),\n",
       "    Message('control_change', channel=0, control=64, value=93, time=8),\n",
       "    Message('control_change', channel=0, control=64, value=127, time=15),\n",
       "    Message('note_on', channel=0, note=58, velocity=45, time=104),\n",
       "    Message('note_off', channel=0, note=51, velocity=41, time=46),\n",
       "    Message('note_off', channel=0, note=63, velocity=61, time=57),\n",
       "    Message('note_on', channel=0, note=62, velocity=61, time=2),\n",
       "    Message('note_off', channel=0, note=58, velocity=38, time=44),\n",
       "    Message('note_off', channel=0, note=62, velocity=64, time=42),\n",
       "    Message('note_on', channel=0, note=60, velocity=61, time=18),\n",
       "    Message('note_off', channel=0, note=31, velocity=44, time=34),\n",
       "    Message('note_off', channel=0, note=43, velocity=38, time=37),\n",
       "    Message('note_on', channel=0, note=51, velocity=55, time=8),\n",
       "    Message('note_off', channel=0, note=60, velocity=55, time=11),\n",
       "    Message('note_off', channel=0, note=51, velocity=62, time=62),\n",
       "    Message('note_on', channel=0, note=57, velocity=62, time=12),\n",
       "    Message('note_off', channel=0, note=57, velocity=63, time=68),\n",
       "    Message('note_on', channel=0, note=60, velocity=57, time=9),\n",
       "    Message('note_off', channel=0, note=60, velocity=66, time=27),\n",
       "    Message('note_on', channel=0, note=45, velocity=56, time=53),\n",
       "    Message('note_on', channel=0, note=33, velocity=48, time=3),\n",
       "    Message('note_on', channel=0, note=63, velocity=67, time=27),\n",
       "    Message('note_off', channel=0, note=33, velocity=56, time=63),\n",
       "    Message('note_off', channel=0, note=45, velocity=56, time=0),\n",
       "    Message('note_on', channel=0, note=69, velocity=67, time=43),\n",
       "    Message('note_off', channel=0, note=63, velocity=57, time=14),\n",
       "    Message('note_on', channel=0, note=72, velocity=76, time=82),\n",
       "    Message('note_on', channel=0, note=43, velocity=55, time=46),\n",
       "    Message('note_off', channel=0, note=69, velocity=60, time=0),\n",
       "    Message('note_on', channel=0, note=31, velocity=42, time=8),\n",
       "    Message('note_off', channel=0, note=43, velocity=63, time=28),\n",
       "    Message('note_on', channel=0, note=75, velocity=77, time=5),\n",
       "    Message('note_off', channel=0, note=31, velocity=51, time=9),\n",
       "    Message('note_off', channel=0, note=72, velocity=62, time=24),\n",
       "    Message('note_off', channel=0, note=75, velocity=58, time=60),\n",
       "    Message('note_on', channel=0, note=30, velocity=58, time=41),\n",
       "    Message('note_on', channel=0, note=42, velocity=56, time=1),\n",
       "    Message('control_change', channel=0, control=64, value=99, time=41),\n",
       "    Message('note_on', channel=0, note=74, velocity=75, time=9),\n",
       "    Message('control_change', channel=0, control=64, value=77, time=5),\n",
       "    Message('control_change', channel=0, control=64, value=64, time=15),\n",
       "    Message('control_change', channel=0, control=64, value=0, time=15),\n",
       "    Message('control_change', channel=0, control=64, value=36, time=74),\n",
       "    Message('control_change', channel=0, control=64, value=65, time=15),\n",
       "    Message('note_on', channel=0, note=62, velocity=55, time=13),\n",
       "    Message('control_change', channel=0, control=64, value=77, time=1),\n",
       "    Message('control_change', channel=0, control=64, value=127, time=15),\n",
       "    Message('note_off', channel=0, note=30, velocity=61, time=18),\n",
       "    Message('note_off', channel=0, note=74, velocity=58, time=16),\n",
       "    Message('note_on', channel=0, note=69, velocity=62, time=40),\n",
       "    Message('note_off', channel=0, note=62, velocity=61, time=8),\n",
       "    Message('note_off', channel=0, note=42, velocity=61, time=5),\n",
       "    Message('note_on', channel=0, note=72, velocity=79, time=51),\n",
       "    Message('note_off', channel=0, note=69, velocity=61, time=6),\n",
       "    Message('control_change', channel=0, control=64, value=76, time=64),\n",
       "    Message('note_on', channel=0, note=70, velocity=80, time=3),\n",
       "    Message('control_change', channel=0, control=64, value=57, time=12),\n",
       "    Message('note_on', channel=0, note=45, velocity=65, time=0),\n",
       "    Message('note_on', channel=0, note=33, velocity=56, time=9),\n",
       "    Message('note_off', channel=0, note=72, velocity=63, time=2),\n",
       "    Message('control_change', channel=0, control=64, value=0, time=3),\n",
       "    Message('control_change', channel=0, control=64, value=13, time=30),\n",
       "    Message('control_change', channel=0, control=64, value=65, time=15),\n",
       "    Message('note_on', channel=0, note=62, velocity=79, time=11),\n",
       "    Message('control_change', channel=0, control=64, value=80, time=3),\n",
       "    Message('note_off', channel=0, note=70, velocity=57, time=7),\n",
       "    Message('control_change', channel=0, control=64, value=127, time=8),\n",
       "    Message('note_off', channel=0, note=45, velocity=58, time=54),\n",
       "    Message('note_off', channel=0, note=33, velocity=59, time=11),\n",
       "    Message('note_off', channel=0, note=62, velocity=61, time=0),\n",
       "    Message('note_on', channel=0, note=67, velocity=77, time=1),\n",
       "    Message('note_off', channel=0, note=67, velocity=62, time=76),\n",
       "    Message('note_on', channel=0, note=70, velocity=64, time=5),\n",
       "    Message('note_off', channel=0, note=70, velocity=66, time=41),\n",
       "    Message('control_change', channel=0, control=64, value=116, time=13),\n",
       "    Message('control_change', channel=0, control=64, value=73, time=15),\n",
       "    Message('control_change', channel=0, control=64, value=57, time=15),\n",
       "    Message('note_on', channel=0, note=31, velocity=53, time=3),\n",
       "    Message('note_on', channel=0, note=43, velocity=47, time=0),\n",
       "    Message('note_on', channel=0, note=74, velocity=65, time=5),\n",
       "    Message('control_change', channel=0, control=64, value=0, time=6),\n",
       "    Message('control_change', channel=0, control=64, value=63, time=60),\n",
       "    Message('control_change', channel=0, control=64, value=71, time=15),\n",
       "    Message('note_on', channel=0, note=79, velocity=72, time=10),\n",
       "    Message('control_change', channel=0, control=64, value=94, time=5),\n",
       "    Message('note_off', channel=0, note=43, velocity=61, time=3),\n",
       "    Message('note_off', channel=0, note=31, velocity=60, time=5),\n",
       "    Message('control_change', channel=0, control=64, value=127, time=7),\n",
       "    Message('note_off', channel=0, note=79, velocity=61, time=63),\n",
       "    Message('note_on', channel=0, note=82, velocity=66, time=2),\n",
       "    Message('note_off', channel=0, note=74, velocity=44, time=75),\n",
       "    Message('note_off', channel=0, note=82, velocity=64, time=3),\n",
       "    Message('note_on', channel=0, note=86, velocity=56, time=12),\n",
       "    Message('note_off', channel=0, note=86, velocity=64, time=26),\n",
       "    Message('note_on', channel=0, note=39, velocity=45, time=179),\n",
       "    Message('note_on', channel=0, note=27, velocity=48, time=3),\n",
       "    Message('note_on', channel=0, note=60, velocity=70, time=40),\n",
       "    Message('control_change', channel=0, control=64, value=115, time=26),\n",
       "    Message('control_change', channel=0, control=64, value=82, time=22),\n",
       "    Message('control_change', channel=0, control=64, value=67, time=14),\n",
       "    Message('control_change', channel=0, control=64, value=0, time=15),\n",
       "    Message('control_change', channel=0, control=64, value=33, time=89),\n",
       "    Message('control_change', channel=0, control=64, value=65, time=15),\n",
       "    Message('control_change', channel=0, control=64, value=72, time=15),\n",
       "    Message('control_change', channel=0, control=64, value=93, time=15),\n",
       "    Message('note_on', channel=0, note=48, velocity=53, time=2),\n",
       "    Message('control_change', channel=0, control=64, value=127, time=13),\n",
       "    Message('note_off', channel=0, note=60, velocity=44, time=48),\n",
       "    Message('note_off', channel=0, note=48, velocity=43, time=23),\n",
       "    Message('note_on', channel=0, note=55, velocity=63, time=8),\n",
       "    Message('note_on', channel=0, note=58, velocity=69, time=59),\n",
       "    Message('note_off', channel=0, note=55, velocity=57, time=21),\n",
       "    Message('note_on', channel=0, note=57, velocity=77, time=57),\n",
       "    Message('note_off', channel=0, note=27, velocity=41, time=64),\n",
       "    Message('note_off', channel=0, note=58, velocity=51, time=0),\n",
       "    Message('note_off', channel=0, note=57, velocity=60, time=15),\n",
       "    Message('note_on', channel=0, note=48, velocity=64, time=7),\n",
       "    Message('note_off', channel=0, note=48, velocity=62, time=53),\n",
       "    Message('note_off', channel=0, note=39, velocity=60, time=4),\n",
       "    Message('note_on', channel=0, note=53, velocity=76, time=10),\n",
       "    Message('note_on', channel=0, note=57, velocity=73, time=77),\n",
       "    Message('note_off', channel=0, note=53, velocity=61, time=4),\n",
       "    Message('control_change', channel=0, control=64, value=115, time=24),\n",
       "    Message('note_off', channel=0, note=57, velocity=68, time=2),\n",
       "    Message('control_change', channel=0, control=64, value=71, time=13),\n",
       "    Message('control_change', channel=0, control=64, value=0, time=15),\n",
       "    Message('note_on', channel=0, note=41, velocity=73, time=9),\n",
       "    Message('note_on', channel=0, note=29, velocity=63, time=1),\n",
       "    Message('note_on', channel=0, note=60, velocity=80, time=12),\n",
       "    Message('control_change', channel=0, control=64, value=36, time=46),\n",
       "    Message('control_change', channel=0, control=64, value=66, time=15),\n",
       "    Message('control_change', channel=0, control=64, value=77, time=15),\n",
       "    Message('note_off', channel=0, note=41, velocity=64, time=6),\n",
       "    Message('note_off', channel=0, note=29, velocity=63, time=2),\n",
       "    Message('note_on', channel=0, note=65, velocity=72, time=4),\n",
       "    Message('control_change', channel=0, control=64, value=127, time=2),\n",
       "    Message('note_on', channel=0, note=69, velocity=75, time=66),\n",
       "    Message('note_off', channel=0, note=65, velocity=63, time=18),\n",
       "    Message('note_on', channel=0, note=27, velocity=55, time=53),\n",
       "    Message('note_on', channel=0, note=39, velocity=54, time=3),\n",
       "    Message('note_on', channel=0, note=72, velocity=83, time=22),\n",
       "    Message('note_off', channel=0, note=69, velocity=64, time=0),\n",
       "    Message('note_off', channel=0, note=27, velocity=61, time=11),\n",
       "    Message('note_off', channel=0, note=39, velocity=62, time=8),\n",
       "    Message('note_off', channel=0, note=60, velocity=61, time=48),\n",
       "    Message('control_change', channel=0, control=64, value=103, time=9),\n",
       "    Message('control_change', channel=0, control=64, value=74, time=15),\n",
       "    Message('note_on', channel=0, note=38, velocity=63, time=4),\n",
       "    Message('note_on', channel=0, note=26, velocity=58, time=1),\n",
       "    Message('control_change', channel=0, control=64, value=59, time=9),\n",
       "    Message('control_change', channel=0, control=64, value=0, time=15),\n",
       "    Message('note_on', channel=0, note=70, velocity=81, time=26),\n",
       "    Message('note_off', channel=0, note=72, velocity=65, time=31),\n",
       "    Message('control_change', channel=0, control=64, value=56, time=17),\n",
       "    Message('control_change', channel=0, control=64, value=68, time=15),\n",
       "    Message('control_change', channel=0, control=64, value=86, time=15),\n",
       "    Message('control_change', channel=0, control=64, value=127, time=15),\n",
       "    Message('note_off', channel=0, note=26, velocity=57, time=22),\n",
       "    Message('note_on', channel=0, note=58, velocity=63, time=20),\n",
       "    Message('note_off', channel=0, note=70, velocity=63, time=8),\n",
       "    Message('note_off', channel=0, note=38, velocity=59, time=29),\n",
       "    Message('note_on', channel=0, note=65, velocity=68, time=30),\n",
       "    Message('note_off', channel=0, note=58, velocity=62, time=5),\n",
       "    Message('note_on', channel=0, note=69, velocity=77, time=66),\n",
       "    Message('note_off', channel=0, note=65, velocity=64, time=27),\n",
       "    Message('control_change', channel=0, control=64, value=82, time=1),\n",
       "    Message('control_change', channel=0, control=64, value=63, time=14),\n",
       "    Message('note_on', channel=0, note=29, velocity=59, time=10),\n",
       "    Message('note_on', channel=0, note=41, velocity=71, time=0),\n",
       "    Message('control_change', channel=0, control=64, value=0, time=5),\n",
       "    Message('note_on', channel=0, note=67, velocity=69, time=21),\n",
       "    Message('note_off', channel=0, note=69, velocity=66, time=23),\n",
       "    Message('control_change', channel=0, control=64, value=62, time=22),\n",
       "    Message('control_change', channel=0, control=64, value=75, time=15),\n",
       "    Message('control_change', channel=0, control=64, value=127, time=15),\n",
       "    Message('note_on', channel=0, note=58, velocity=66, time=10),\n",
       "    Message('note_off', channel=0, note=29, velocity=62, time=17),\n",
       "    Message('note_off', channel=0, note=41, velocity=62, time=3),\n",
       "    Message('note_off', channel=0, note=67, velocity=59, time=11),\n",
       "    Message('note_on', channel=0, note=63, velocity=72, time=54),\n",
       "    Message('note_off', channel=0, note=58, velocity=60, time=10),\n",
       "    Message('note_on', channel=0, note=67, velocity=58, time=54),\n",
       "    Message('note_off', channel=0, note=63, velocity=63, time=15),\n",
       "    Message('note_off', channel=0, note=67, velocity=66, time=14),\n",
       "    Message('note_on', channel=0, note=27, velocity=57, time=67),\n",
       "    Message('note_on', channel=0, note=39, velocity=55, time=1),\n",
       "    Message('control_change', channel=0, control=64, value=94, time=26),\n",
       "    Message('note_on', channel=0, note=70, velocity=61, time=4),\n",
       "    Message('control_change', channel=0, control=64, value=72, time=11),\n",
       "    Message('control_change', channel=0, control=64, value=47, time=14),\n",
       "    Message('control_change', channel=0, control=64, value=0, time=15),\n",
       "    Message('note_on', channel=0, note=75, velocity=63, time=38),\n",
       "    Message('control_change', channel=0, control=64, value=13, time=21),\n",
       "    Message('control_change', channel=0, control=64, value=66, time=15),\n",
       "    Message('control_change', channel=0, control=64, value=83, time=15),\n",
       "    Message('control_change', channel=0, control=64, value=127, time=14),\n",
       "    Message('note_on', channel=0, note=79, velocity=73, time=9),\n",
       "    Message('note_off', channel=0, note=75, velocity=62, time=0),\n",
       "    Message('note_off', channel=0, note=39, velocity=56, time=30),\n",
       "    Message('note_off', channel=0, note=27, velocity=58, time=24),\n",
       "    Message('note_on', channel=0, note=82, velocity=69, time=30),\n",
       "    Message('note_off', channel=0, note=79, velocity=58, time=16),\n",
       "    Message('note_off', channel=0, note=82, velocity=68, time=8),\n",
       "    Message('note_off', channel=0, note=70, velocity=64, time=24),\n",
       "    Message('note_on', channel=0, note=24, velocity=53, time=136),\n",
       "    Message('note_on', channel=0, note=36, velocity=50, time=0),\n",
       "    Message('note_on', channel=0, note=57, velocity=69, time=30),\n",
       "    Message('control_change', channel=0, control=64, value=108, time=27),\n",
       "    Message('control_change', channel=0, control=64, value=87, time=15),\n",
       "    Message('control_change', channel=0, control=64, value=74, time=15),\n",
       "    Message('control_change', channel=0, control=64, value=64, time=15),\n",
       "    Message('control_change', channel=0, control=64, value=0, time=15),\n",
       "    Message('note_on', channel=0, note=45, velocity=60, time=89),\n",
       "    Message('control_change', channel=0, control=64, value=62, time=43),\n",
       "    Message('note_off', channel=0, note=57, velocity=57, time=6),\n",
       "    Message('control_change', channel=0, control=64, value=66, time=9),\n",
       "    Message('control_change', channel=0, control=64, value=70, time=15),\n",
       "    Message('note_on', channel=0, note=51, velocity=61, time=13),\n",
       "    Message('control_change', channel=0, control=64, value=76, time=2),\n",
       "    Message('note_off', channel=0, note=45, velocity=51, time=7),\n",
       "    Message('control_change', channel=0, control=64, value=87, time=8),\n",
       "    Message('control_change', channel=0, control=64, value=127, time=14),\n",
       "    Message('note_on', channel=0, note=55, velocity=72, time=41),\n",
       "    Message('note_off', channel=0, note=51, velocity=60, time=19),\n",
       "    Message('note_on', channel=0, note=54, velocity=74, time=50),\n",
       "    Message('note_off', channel=0, note=55, velocity=61, time=13),\n",
       "    Message('note_off', channel=0, note=54, velocity=58, time=52),\n",
       "    Message('note_off', channel=0, note=24, velocity=44, time=12),\n",
       "    Message('note_on', channel=0, note=45, velocity=73, time=6),\n",
       "    Message('note_off', channel=0, note=36, velocity=49, time=51),\n",
       "    Message('note_on', channel=0, note=50, velocity=70, time=22),\n",
       "    Message('note_off', channel=0, note=45, velocity=61, time=5),\n",
       "    Message('note_off', channel=0, note=50, velocity=64, time=62),\n",
       "    Message('note_on', channel=0, note=54, velocity=70, time=2),\n",
       "    Message('control_change', channel=0, control=64, value=77, time=7),\n",
       "    Message('control_change', channel=0, control=64, value=0, time=15),\n",
       "    Message('note_off', channel=0, note=54, velocity=65, time=8),\n",
       "    Message('note_on', channel=0, note=38, velocity=73, time=26),\n",
       "    Message('note_on', channel=0, note=26, velocity=67, time=3),\n",
       "    Message('note_on', channel=0, note=57, velocity=83, time=17),\n",
       "    Message('note_off', channel=0, note=38, velocity=67, time=22),\n",
       "    Message('note_off', channel=0, note=26, velocity=64, time=5),\n",
       "    Message('control_change', channel=0, control=64, value=60, time=0),\n",
       "    Message('control_change', channel=0, control=64, value=79, time=15),\n",
       "    Message('note_off', channel=0, note=57, velocity=57, time=6),\n",
       "    Message('control_change', channel=0, control=64, value=127, time=9),\n",
       "    Message('note_on', channel=0, note=62, velocity=72, time=26),\n",
       "    Message('note_off', channel=0, note=62, velocity=63, time=64),\n",
       "    Message('note_on', channel=0, note=66, velocity=73, time=3),\n",
       "    Message('note_on', channel=0, note=42, velocity=65, time=49),\n",
       "    Message('note_on', channel=0, note=30, velocity=61, time=4),\n",
       "    Message('note_off', channel=0, note=42, velocity=64, time=32),\n",
       "    Message('note_on', channel=0, note=57, velocity=72, time=0),\n",
       "    Message('note_off', channel=0, note=30, velocity=62, time=3),\n",
       "    Message('note_off', channel=0, note=66, velocity=52, time=39),\n",
       "    Message('control_change', channel=0, control=64, value=103, time=2),\n",
       "    Message('control_change', channel=0, control=64, value=75, time=15),\n",
       "    Message('note_off', channel=0, note=57, velocity=63, time=2),\n",
       "    Message('control_change', channel=0, control=64, value=61, time=13),\n",
       "    Message('note_on', channel=0, note=69, velocity=74, time=6),\n",
       "    Message('note_on', channel=0, note=45, velocity=71, time=7),\n",
       "    Message('control_change', channel=0, control=64, value=0, time=2),\n",
       "    Message('note_on', channel=0, note=33, velocity=70, time=4),\n",
       "    Message('note_on', channel=0, note=57, velocity=65, time=82),\n",
       "    Message('note_off', channel=0, note=69, velocity=56, time=20),\n",
       "    Message('note_on', channel=0, note=64, velocity=69, time=51),\n",
       "    Message('note_off', channel=0, note=57, velocity=64, time=5),\n",
       "    Message('note_on', channel=0, note=67, velocity=75, time=61),\n",
       "    Message('note_off', channel=0, note=64, velocity=63, time=1),\n",
       "    Message('control_change', channel=0, control=64, value=20, time=13),\n",
       "    Message('control_change', channel=0, control=64, value=65, time=15),\n",
       "    Message('control_change', channel=0, control=64, value=77, time=15),\n",
       "    Message('note_on', channel=0, note=66, velocity=82, time=12),\n",
       "    Message('control_change', channel=0, control=64, value=127, time=3),\n",
       "    Message('note_off', channel=0, note=67, velocity=63, time=20),\n",
       "    Message('note_off', channel=0, note=33, velocity=58, time=14),\n",
       "    Message('note_on', channel=0, note=57, velocity=73, time=40),\n",
       "    Message('note_off', channel=0, note=66, velocity=63, time=1),\n",
       "    Message('note_off', channel=0, note=45, velocity=61, time=6),\n",
       "    Message('note_off', channel=0, note=57, velocity=64, time=43),\n",
       "    Message('note_on', channel=0, note=62, velocity=80, time=12),\n",
       "    Message('note_off', channel=0, note=62, velocity=62, time=70),\n",
       "    Message('note_on', channel=0, note=66, velocity=72, time=2),\n",
       "    Message('control_change', channel=0, control=64, value=80, time=21),\n",
       "    Message('note_off', channel=0, note=66, velocity=66, time=8),\n",
       "    Message('control_change', channel=0, control=64, value=13, time=7),\n",
       "    Message('control_change', channel=0, control=64, value=0, time=15),\n",
       "    Message('note_on', channel=0, note=50, velocity=76, time=11),\n",
       "    Message('note_on', channel=0, note=38, velocity=58, time=7),\n",
       "    Message('note_off', channel=0, note=50, velocity=67, time=17),\n",
       "    Message('note_on', channel=0, note=69, velocity=56, time=5),\n",
       "    Message('control_change', channel=0, control=64, value=67, time=4),\n",
       "    Message('note_off', channel=0, note=38, velocity=59, time=1),\n",
       "    Message('note_on', channel=0, note=67, velocity=43, time=4),\n",
       "    Message('control_change', channel=0, control=64, value=107, time=10),\n",
       "    Message('control_change', channel=0, control=64, value=127, time=15),\n",
       "    Message('note_off', channel=0, note=67, velocity=34, time=4),\n",
       "    Message('note_off', channel=0, note=69, velocity=50, time=12),\n",
       "    Message('note_on', channel=0, note=74, velocity=82, time=10),\n",
       "    Message('note_off', channel=0, note=74, velocity=64, time=52),\n",
       "    Message('note_on', channel=0, note=78, velocity=77, time=17),\n",
       "    Message('note_on', channel=0, note=54, velocity=66, time=36),\n",
       "    Message('note_on', channel=0, note=42, velocity=41, time=14),\n",
       "    Message('note_off', channel=0, note=54, velocity=64, time=10),\n",
       "    Message('control_change', channel=0, control=64, value=65, time=8),\n",
       "    Message('note_off', channel=0, note=78, velocity=56, time=8),\n",
       "    Message('note_on', channel=0, note=69, velocity=74, time=3),\n",
       "    Message('note_off', channel=0, note=42, velocity=54, time=4),\n",
       "    Message('control_change', channel=0, control=64, value=0, time=0),\n",
       "    Message('note_on', channel=0, note=57, velocity=84, time=33),\n",
       "    Message('note_off', channel=0, note=69, velocity=59, time=5),\n",
       "    Message('note_on', channel=0, note=45, velocity=72, time=2),\n",
       "    Message('note_on', channel=0, note=81, velocity=87, time=11),\n",
       "    Message('note_off', channel=0, note=57, velocity=72, time=2),\n",
       "    Message('control_change', channel=0, control=64, value=69, time=6),\n",
       "    Message('note_off', channel=0, note=45, velocity=64, time=11),\n",
       "    Message('control_change', channel=0, control=64, value=127, time=4),\n",
       "    Message('note_on', channel=0, note=69, velocity=71, time=64),\n",
       "    Message('note_off', channel=0, note=81, velocity=62, time=19),\n",
       "    Message('note_off', channel=0, note=69, velocity=62, time=37),\n",
       "    Message('note_on', channel=0, note=76, velocity=76, time=4),\n",
       "    Message('note_on', channel=0, note=61, velocity=83, time=26),\n",
       "    Message('note_on', channel=0, note=49, velocity=70, time=6),\n",
       "    Message('control_change', channel=0, control=64, value=115, time=8),\n",
       "    Message('control_change', channel=0, control=64, value=63, time=15),\n",
       "    Message('note_off', channel=0, note=61, velocity=62, time=4),\n",
       "    Message('note_off', channel=0, note=49, velocity=66, time=4),\n",
       "    Message('note_on', channel=0, note=79, velocity=83, time=2),\n",
       "    Message('note_off', channel=0, note=76, velocity=64, time=1),\n",
       "    Message('control_change', channel=0, control=64, value=0, time=3),\n",
       "    Message('note_on', channel=0, note=78, velocity=88, time=52),\n",
       "    Message('note_on', channel=0, note=62, velocity=79, time=4),\n",
       "    Message('note_on', channel=0, note=50, velocity=71, time=2),\n",
       "    Message('note_off', channel=0, note=79, velocity=63, time=13),\n",
       "    Message('control_change', channel=0, control=64, value=48, time=3),\n",
       "    Message('note_off', channel=0, note=62, velocity=69, time=4),\n",
       "    Message('note_off', channel=0, note=50, velocity=65, time=7),\n",
       "    Message('control_change', channel=0, control=64, value=78, time=4),\n",
       "    Message('control_change', channel=0, control=64, value=127, time=15),\n",
       "    Message('note_on', channel=0, note=69, velocity=74, time=26),\n",
       "    Message('note_off', channel=0, note=78, velocity=62, time=2),\n",
       "    Message('note_off', channel=0, note=69, velocity=63, time=67),\n",
       "    Message('note_on', channel=0, note=74, velocity=82, time=4),\n",
       "    Message('note_on', channel=0, note=78, velocity=79, time=61),\n",
       "    Message('note_off', channel=0, note=74, velocity=64, time=1),\n",
       "    Message('control_change', channel=0, control=64, value=66, time=10),\n",
       "    Message('control_change', channel=0, control=64, value=0, time=15),\n",
       "    Message('note_off', channel=0, note=78, velocity=65, time=2),\n",
       "    Message('note_on', channel=0, note=62, velocity=91, time=36),\n",
       "    Message('note_on', channel=0, note=50, velocity=67, time=11),\n",
       "    Message('note_on', channel=0, note=81, velocity=88, time=3),\n",
       "    Message('control_change', channel=0, control=64, value=60, time=7),\n",
       "    Message('note_off', channel=0, note=62, velocity=66, time=4),\n",
       "    Message('control_change', channel=0, control=64, value=88, time=11),\n",
       "    Message('note_off', channel=0, note=50, velocity=64, time=6),\n",
       "    Message('control_change', channel=0, control=64, value=127, time=9),\n",
       "    Message('note_off', channel=0, note=81, velocity=61, time=21),\n",
       "    Message('note_on', channel=0, note=86, velocity=81, time=16),\n",
       "    Message('note_off', channel=0, note=86, velocity=63, time=58),\n",
       "    Message('note_on', channel=0, note=90, velocity=80, time=8),\n",
       "    Message('note_on', channel=0, note=66, velocity=77, time=47),\n",
       "    Message('note_on', channel=0, note=54, velocity=65, time=6),\n",
       "    Message('note_off', channel=0, note=66, velocity=68, time=18),\n",
       "    Message('note_on', channel=0, note=81, velocity=80, time=0),\n",
       "    Message('control_change', channel=0, control=64, value=95, time=3),\n",
       "    Message('note_off', channel=0, note=54, velocity=65, time=6),\n",
       "    Message('note_off', channel=0, note=90, velocity=60, time=4),\n",
       "    Message('control_change', channel=0, control=64, value=42, time=5),\n",
       "    Message('control_change', channel=0, control=64, value=0, time=15),\n",
       "    Message('note_off', channel=0, note=81, velocity=62, time=19),\n",
       "    Message('note_on', channel=0, note=69, velocity=85, time=11),\n",
       "    Message('note_on', channel=0, note=93, velocity=86, time=5),\n",
       "    Message('note_on', channel=0, note=57, velocity=72, time=4),\n",
       "    Message('control_change', channel=0, control=64, value=54, time=6),\n",
       "    Message('note_off', channel=0, note=69, velocity=67, time=8),\n",
       "    Message('control_change', channel=0, control=64, value=80, time=7),\n",
       "    Message('note_off', channel=0, note=57, velocity=68, time=7),\n",
       "    Message('control_change', channel=0, control=64, value=127, time=8),\n",
       "    Message('note_on', channel=0, note=81, velocity=81, time=30),\n",
       "    Message('note_off', channel=0, note=93, velocity=62, time=26),\n",
       "    Message('note_off', channel=0, note=81, velocity=64, time=34),\n",
       "    Message('note_on', channel=0, note=88, velocity=73, time=15),\n",
       "    Message('control_change', channel=0, control=64, value=73, time=58),\n",
       "    Message('note_on', channel=0, note=61, velocity=71, time=4),\n",
       "    Message('note_on', channel=0, note=73, velocity=74, time=0),\n",
       "    Message('note_off', channel=0, note=88, velocity=63, time=0),\n",
       "    Message('note_on', channel=0, note=91, velocity=79, time=5),\n",
       "    Message('control_change', channel=0, control=64, value=0, time=6),\n",
       "    Message('note_off', channel=0, note=73, velocity=71, time=11),\n",
       "    Message('note_off', channel=0, note=61, velocity=66, time=7),\n",
       "    Message('control_change', channel=0, control=64, value=60, time=47),\n",
       "    Message('note_on', channel=0, note=90, velocity=81, time=10),\n",
       "    Message('control_change', channel=0, control=64, value=85, time=5),\n",
       "    Message('note_off', channel=0, note=91, velocity=64, time=4),\n",
       "    Message('note_on', channel=0, note=74, velocity=78, time=3),\n",
       "    Message('note_on', channel=0, note=62, velocity=64, time=5),\n",
       "    Message('control_change', channel=0, control=64, value=127, time=3),\n",
       "    Message('note_off', channel=0, note=74, velocity=72, time=13),\n",
       "    Message('note_off', channel=0, note=90, velocity=64, time=2),\n",
       "    Message('note_off', channel=0, note=62, velocity=63, time=2),\n",
       "    Message('control_change', channel=0, control=64, value=64, time=160),\n",
       "    Message('control_change', channel=0, control=64, value=0, time=15),\n",
       "    Message('note_on', channel=0, note=86, velocity=68, time=192),\n",
       "    Message('control_change', channel=0, control=64, value=63, time=1),\n",
       "    Message('note_on', channel=0, note=78, velocity=57, time=4),\n",
       "    Message('note_on', channel=0, note=74, velocity=55, time=2),\n",
       "    Message('note_on', channel=0, note=62, velocity=44, time=8),\n",
       "    Message('control_change', channel=0, control=64, value=78, time=1),\n",
       "    Message('note_on', channel=0, note=69, velocity=44, time=1),\n",
       "    Message('note_on', channel=0, note=81, velocity=57, time=2),\n",
       "    Message('control_change', channel=0, control=64, value=127, time=11),\n",
       "    Message('note_off', channel=0, note=78, velocity=61, time=10),\n",
       "    Message('note_off', channel=0, note=74, velocity=59, time=13),\n",
       "    Message('note_off', channel=0, note=81, velocity=63, time=3),\n",
       "    Message('note_off', channel=0, note=62, velocity=63, time=2),\n",
       "    Message('note_off', channel=0, note=69, velocity=63, time=1),\n",
       "    Message('note_off', channel=0, note=86, velocity=63, time=27),\n",
       "    Message('control_change', channel=0, control=64, value=105, time=545),\n",
       "    Message('control_change', channel=0, control=64, value=90, time=15),\n",
       "    Message('control_change', channel=0, control=64, value=82, time=14),\n",
       "    Message('control_change', channel=0, control=64, value=75, time=15),\n",
       "    Message('control_change', channel=0, control=64, value=70, time=15),\n",
       "    Message('control_change', channel=0, control=64, value=67, time=15),\n",
       "    Message('control_change', channel=0, control=64, value=65, time=15),\n",
       "    Message('control_change', channel=0, control=64, value=64, time=15),\n",
       "    Message('control_change', channel=0, control=64, value=64, time=15),\n",
       "    Message('control_change', channel=0, control=64, value=63, time=15),\n",
       "    Message('control_change', channel=0, control=64, value=62, time=14),\n",
       "    Message('control_change', channel=0, control=64, value=59, time=15),\n",
       "    Message('note_on', channel=0, note=31, velocity=37, time=15),\n",
       "    Message('control_change', channel=0, control=64, value=54, time=0),\n",
       "    Message('note_on', channel=0, note=43, velocity=33, time=9),\n",
       "    Message('control_change', channel=0, control=64, value=42, time=6),\n",
       "    Message('control_change', channel=0, control=64, value=0, time=15),\n",
       "    Message('note_on', channel=0, note=63, velocity=55, time=26),\n",
       "    Message('control_change', channel=0, control=64, value=52, time=79),\n",
       "    Message('control_change', channel=0, control=64, value=63, time=14),\n",
       "    Message('control_change', channel=0, control=64, value=67, time=15),\n",
       "    Message('control_change', channel=0, control=64, value=75, time=15),\n",
       "    Message('note_on', channel=0, note=51, velocity=46, time=12),\n",
       "    Message('control_change', channel=0, control=64, value=99, time=2),\n",
       "    Message('control_change', channel=0, control=64, value=127, time=15),\n",
       "    Message('note_off', channel=0, note=51, velocity=56, time=60),\n",
       "    Message('polytouch', channel=0, note=35, value=127, time=0),\n",
       "    Message('note_on', channel=0, note=58, velocity=54, time=24),\n",
       "    Message('note_off', channel=0, note=63, velocity=59, time=28),\n",
       "    Message('note_on', channel=0, note=62, velocity=67, time=44),\n",
       "    Message('note_off', channel=0, note=58, velocity=59, time=7),\n",
       "    Message('note_off', channel=0, note=62, velocity=64, time=79),\n",
       "    Message('note_on', channel=0, note=60, velocity=72, time=0),\n",
       "    Message('note_on', channel=0, note=51, velocity=70, time=75),\n",
       "    Message('note_off', channel=0, note=60, velocity=59, time=29),\n",
       "    Message('polytouch', channel=0, note=35, value=0, time=1),\n",
       "    Message('note_off', channel=0, note=31, velocity=42, time=3),\n",
       "    Message('note_on', channel=0, note=57, velocity=75, time=33),\n",
       "    Message('note_off', channel=0, note=43, velocity=45, time=0),\n",
       "    Message('note_off', channel=0, note=51, velocity=63, time=7),\n",
       "    Message('note_on', channel=0, note=60, velocity=73, time=63),\n",
       "    Message('note_off', channel=0, note=57, velocity=64, time=13),\n",
       "    Message('note_off', channel=0, note=60, velocity=65, time=29),\n",
       "    Message('note_on', channel=0, note=45, velocity=80, time=52),\n",
       "    Message('note_on', channel=0, note=33, velocity=72, time=5),\n",
       "    Message('control_change', channel=0, control=64, value=90, time=3),\n",
       "    Message('control_change', channel=0, control=64, value=65, time=15),\n",
       "    Message('note_on', channel=0, note=63, velocity=77, time=11),\n",
       "    Message('control_change', channel=0, control=64, value=0, time=4),\n",
       "    Message('control_change', channel=0, control=64, value=67, time=60),\n",
       "    Message('control_change', channel=0, control=64, value=127, time=14),\n",
       "    Message('note_on', channel=0, note=69, velocity=78, time=6),\n",
       "    Message('note_off', channel=0, note=63, velocity=62, time=13),\n",
       "    Message('note_off', channel=0, note=33, velocity=58, time=32),\n",
       "    Message('note_off', channel=0, note=45, velocity=59, time=2),\n",
       "    Message('note_on', channel=0, note=72, velocity=86, time=28),\n",
       "    Message('note_off', channel=0, note=69, velocity=61, time=15),\n",
       "    Message('note_on', channel=0, note=43, velocity=69, time=71),\n",
       "    Message('note_on', channel=0, note=31, velocity=68, time=6),\n",
       "    Message('note_on', channel=0, note=75, velocity=93, time=7),\n",
       "    Message('note_off', channel=0, note=72, velocity=63, time=35),\n",
       "    Message('note_off', channel=0, note=43, velocity=62, time=4),\n",
       "    Message('note_off', channel=0, note=31, velocity=64, time=2),\n",
       "    Message('note_off', channel=0, note=75, velocity=61, time=78),\n",
       "    Message('note_on', channel=0, note=30, velocity=76, time=30),\n",
       "    Message('note_on', channel=0, note=42, velocity=78, time=1),\n",
       "    Message('note_on', channel=0, note=74, velocity=88, time=49),\n",
       "    Message('control_change', channel=0, control=64, value=85, time=0),\n",
       "    Message('control_change', channel=0, control=64, value=62, time=15),\n",
       "    Message('control_change', channel=0, control=64, value=0, time=15),\n",
       "    Message('control_change', channel=0, control=64, value=65, time=73),\n",
       "    Message('control_change', channel=0, control=64, value=106, time=15),\n",
       "    Message('note_on', channel=0, note=62, velocity=76, time=8),\n",
       "    Message('note_off', channel=0, note=74, velocity=57, time=1),\n",
       "    Message('control_change', channel=0, control=64, value=127, time=6),\n",
       "    Message('note_off', channel=0, note=30, velocity=62, time=46),\n",
       "    Message('note_on', channel=0, note=69, velocity=74, time=29),\n",
       "    Message('note_off', channel=0, note=62, velocity=61, time=0),\n",
       "    Message('note_off', channel=0, note=42, velocity=62, time=17),\n",
       "    Message('note_on', channel=0, note=72, velocity=83, time=44),\n",
       "    Message('note_off', channel=0, note=69, velocity=63, time=6),\n",
       "    Message('note_on', channel=0, note=70, velocity=88, time=62),\n",
       "    Message('note_on', channel=0, note=45, velocity=85, time=3),\n",
       "    Message('note_on', channel=0, note=33, velocity=77, time=6),\n",
       "    Message('control_change', channel=0, control=64, value=71, time=9),\n",
       "    Message('note_off', channel=0, note=72, velocity=65, time=6),\n",
       "    Message('control_change', channel=0, control=64, value=20, time=9),\n",
       "    Message('control_change', channel=0, control=64, value=0, time=15),\n",
       "    Message('note_on', channel=0, note=62, velocity=88, time=27),\n",
       "    Message('control_change', channel=0, control=64, value=67, time=3),\n",
       "    Message('control_change', channel=0, control=64, value=127, time=14),\n",
       "    Message('note_off', channel=0, note=70, velocity=64, time=5),\n",
       "    Message('note_off', channel=0, note=62, velocity=64, time=42),\n",
       "    Message('note_off', channel=0, note=33, velocity=60, time=5),\n",
       "    Message('note_on', channel=0, note=67, velocity=84, time=1),\n",
       "    Message('note_off', channel=0, note=45, velocity=60, time=4),\n",
       "    Message('note_on', channel=0, note=70, velocity=78, time=75),\n",
       "    Message('note_off', channel=0, note=67, velocity=64, time=12),\n",
       "    Message('note_off', channel=0, note=70, velocity=64, time=32),\n",
       "    Message('note_on', channel=0, note=31, velocity=65, time=49),\n",
       "    Message('note_on', channel=0, note=43, velocity=65, time=0),\n",
       "    Message('note_on', channel=0, note=74, velocity=80, time=4),\n",
       "    Message('control_change', channel=0, control=64, value=74, time=2),\n",
       "    Message('control_change', channel=0, control=64, value=20, time=14),\n",
       "    Message('control_change', channel=0, control=64, value=0, time=15),\n",
       "    Message('control_change', channel=0, control=64, value=35, time=45),\n",
       "    Message('note_on', channel=0, note=79, velocity=73, time=12),\n",
       "    Message('control_change', channel=0, control=64, value=66, time=3),\n",
       "    Message('control_change', channel=0, control=64, value=82, time=14),\n",
       "    Message('control_change', channel=0, control=64, value=127, time=15),\n",
       "    Message('note_off', channel=0, note=43, velocity=60, time=7),\n",
       "    Message('note_on', channel=0, note=82, velocity=73, time=28),\n",
       "    Message('note_off', channel=0, note=31, velocity=60, time=0),\n",
       "    Message('note_off', channel=0, note=79, velocity=60, time=14),\n",
       "    Message('note_on', channel=0, note=86, velocity=74, time=71),\n",
       "    Message('note_off', channel=0, note=82, velocity=63, time=0),\n",
       "    Message('note_off', channel=0, note=86, velocity=67, time=23),\n",
       "    Message('note_off', channel=0, note=74, velocity=64, time=22),\n",
       "    Message('note_on', channel=0, note=27, velocity=60, time=110),\n",
       "    Message('note_on', channel=0, note=39, velocity=56, time=9),\n",
       "    Message('note_on', channel=0, note=60, velocity=81, time=68),\n",
       "    Message('control_change', channel=0, control=64, value=95, time=78),\n",
       "    Message('control_change', channel=0, control=64, value=69, time=15),\n",
       "    Message('control_change', channel=0, control=64, value=24, time=14),\n",
       "    Message('control_change', channel=0, control=64, value=0, time=24),\n",
       "    Message('note_on', channel=0, note=48, velocity=64, time=69),\n",
       "    Message('control_change', channel=0, control=64, value=65, time=34),\n",
       "    Message('control_change', channel=0, control=64, value=81, time=15),\n",
       "    Message('control_change', channel=0, control=64, value=127, time=15),\n",
       "    Message('note_off', channel=0, note=60, velocity=59, time=4),\n",
       "    Message('note_on', channel=0, note=55, velocity=71, time=15),\n",
       "    Message('note_off', channel=0, note=48, velocity=59, time=14),\n",
       "    Message('polytouch', channel=0, note=31, value=127, time=6),\n",
       "    Message('note_on', channel=0, note=58, velocity=78, time=44),\n",
       "    Message('note_off', channel=0, note=55, velocity=62, time=17),\n",
       "    Message('note_on', channel=0, note=57, velocity=82, time=56),\n",
       "    Message('note_off', channel=0, note=58, velocity=39, time=52),\n",
       "    Message('note_off', channel=0, note=57, velocity=65, time=25),\n",
       "    Message('note_on', channel=0, note=48, velocity=73, time=7),\n",
       "    Message('note_off', channel=0, note=27, velocity=48, time=3),\n",
       "    Message('polytouch', channel=0, note=31, value=0, time=13),\n",
       "    Message('note_off', channel=0, note=48, velocity=64, time=30),\n",
       "    Message('note_off', channel=0, note=39, velocity=61, time=16),\n",
       "    Message('note_on', channel=0, note=53, velocity=81, time=7),\n",
       "    Message('note_on', channel=0, note=57, velocity=83, time=62),\n",
       "    Message('note_off', channel=0, note=53, velocity=62, time=15),\n",
       "    Message('control_change', channel=0, control=64, value=98, time=14),\n",
       "    Message('note_off', channel=0, note=57, velocity=67, time=13),\n",
       "    Message('control_change', channel=0, control=64, value=66, time=2),\n",
       "    Message('control_change', channel=0, control=64, value=0, time=14),\n",
       "    Message('note_on', channel=0, note=41, velocity=81, time=8),\n",
       "    Message('note_on', channel=0, note=29, velocity=71, time=5),\n",
       "    Message('note_on', channel=0, note=60, velocity=91, time=15),\n",
       "    Message('control_change', channel=0, control=64, value=63, time=46),\n",
       "    Message('note_off', channel=0, note=41, velocity=55, time=13),\n",
       "    Message('control_change', channel=0, control=64, value=75, time=2),\n",
       "    Message('note_off', channel=0, note=29, velocity=62, time=13),\n",
       "    Message('control_change', channel=0, control=64, value=127, time=2),\n",
       "    Message('note_on', channel=0, note=65, velocity=82, time=3),\n",
       "    Message('note_off', channel=0, note=60, velocity=61, time=32),\n",
       "    Message('note_on', channel=0, note=69, velocity=82, time=43),\n",
       "    Message('note_off', channel=0, note=65, velocity=64, time=18),\n",
       "    Message('note_on', channel=0, note=39, velocity=75, time=43),\n",
       "    Message('note_on', channel=0, note=27, velocity=71, time=6),\n",
       "    Message('note_on', channel=0, note=72, velocity=88, time=14),\n",
       "    Message('note_off', channel=0, note=69, velocity=61, time=7),\n",
       "    Message('note_off', channel=0, note=27, velocity=60, time=40),\n",
       "    Message('note_off', channel=0, note=39, velocity=61, time=3),\n",
       "    Message('control_change', channel=0, control=64, value=86, time=51),\n",
       "    Message('control_change', channel=0, control=64, value=61, time=15),\n",
       "    Message('note_on', channel=0, note=26, velocity=69, time=11),\n",
       "    Message('note_on', channel=0, note=38, velocity=76, time=1),\n",
       "    Message('control_change', channel=0, control=64, value=0, time=3),\n",
       "    Message('note_on', channel=0, note=70, velocity=87, time=24),\n",
       "    Message('note_off', channel=0, note=72, velocity=66, time=25),\n",
       "    Message('control_change', channel=0, control=64, value=60, time=25),\n",
       "    Message('control_change', channel=0, control=64, value=72, time=14),\n",
       "    Message('control_change', channel=0, control=64, value=127, time=15),\n",
       "    Message('note_on', channel=0, note=58, velocity=75, time=50),\n",
       "    Message('note_off', channel=0, note=26, velocity=53, time=0),\n",
       "    Message('note_off', channel=0, note=70, velocity=58, time=10),\n",
       "    Message('note_off', channel=0, note=58, velocity=62, time=53),\n",
       "    Message('note_off', channel=0, note=38, velocity=58, time=4),\n",
       "    Message('note_on', channel=0, note=65, velocity=67, time=7),\n",
       "    Message('note_on', channel=0, note=69, velocity=83, time=51),\n",
       "    Message('note_off', channel=0, note=65, velocity=64, time=36),\n",
       "    Message('control_change', channel=0, control=64, value=98, time=12),\n",
       "    Message('control_change', channel=0, control=64, value=61, time=15),\n",
       "    Message('note_on', channel=0, note=41, velocity=80, time=14),\n",
       "    Message('control_change', channel=0, control=64, value=0, time=0),\n",
       "    Message('note_on', channel=0, note=67, velocity=82, time=4),\n",
       "    Message('note_on', channel=0, note=29, velocity=69, time=3),\n",
       "    Message('note_off', channel=0, note=69, velocity=66, time=18),\n",
       "    Message('control_change', channel=0, control=64, value=67, time=34),\n",
       "    Message('control_change', channel=0, control=64, value=98, time=15),\n",
       "    Message('control_change', channel=0, control=64, value=127, time=15),\n",
       "    Message('note_on', channel=0, note=58, velocity=74, time=3),\n",
       "    Message('note_off', channel=0, note=67, velocity=64, time=19),\n",
       "    Message('note_off', channel=0, note=29, velocity=61, time=10),\n",
       "    Message('note_off', channel=0, note=41, velocity=62, time=1),\n",
       "    Message('note_on', channel=0, note=63, velocity=78, time=34),\n",
       "    Message('note_off', channel=0, note=58, velocity=62, time=6),\n",
       "    Message('note_on', channel=0, note=67, velocity=64, time=77),\n",
       "    Message('note_off', channel=0, note=63, velocity=63, time=6),\n",
       "    Message('note_off', channel=0, note=67, velocity=66, time=21),\n",
       "    Message('note_on', channel=0, note=27, velocity=62, time=63),\n",
       "    Message('note_on', channel=0, note=39, velocity=63, time=3),\n",
       "    Message('control_change', channel=0, control=64, value=78, time=17),\n",
       "    Message('note_on', channel=0, note=70, velocity=74, time=2),\n",
       "    Message('control_change', channel=0, control=64, value=56, time=13),\n",
       "    Message('control_change', channel=0, control=64, value=0, time=15),\n",
       "    Message('note_on', channel=0, note=75, velocity=65, time=50),\n",
       "    Message('control_change', channel=0, control=64, value=31, time=9),\n",
       "    Message('control_change', channel=0, control=64, value=65, time=15),\n",
       "    Message('control_change', channel=0, control=64, value=74, time=15),\n",
       "    Message('control_change', channel=0, control=64, value=116, time=15),\n",
       "    Message('note_off', channel=0, note=75, velocity=64, time=12),\n",
       "    Message('control_change', channel=0, control=64, value=127, time=2),\n",
       "    Message('note_on', channel=0, note=79, velocity=75, time=8),\n",
       "    Message('note_off', channel=0, note=39, velocity=58, time=11),\n",
       "    Message('note_off', channel=0, note=27, velocity=59, time=12),\n",
       "    Message('note_on', channel=0, note=82, velocity=75, time=53),\n",
       "    Message('note_off', channel=0, note=82, velocity=70, time=22),\n",
       "    Message('note_off', channel=0, note=79, velocity=61, time=8),\n",
       "    Message('note_off', channel=0, note=70, velocity=63, time=22),\n",
       "    Message('note_on', channel=0, note=24, velocity=61, time=101),\n",
       "    Message('note_on', channel=0, note=36, velocity=55, time=4),\n",
       "    Message('note_on', channel=0, note=57, velocity=80, time=69),\n",
       "    Message('control_change', channel=0, control=64, value=93, time=31),\n",
       "    Message('control_change', channel=0, control=64, value=71, time=15),\n",
       "    Message('control_change', channel=0, control=64, value=54, time=14),\n",
       "    Message('control_change', channel=0, control=64, value=0, time=15),\n",
       "    Message('note_on', channel=0, note=45, velocity=62, time=115),\n",
       "    Message('note_off', channel=0, note=57, velocity=49, time=36),\n",
       "    Message('control_change', channel=0, control=64, value=54, time=5),\n",
       "    Message('control_change', channel=0, control=64, value=62, time=15),\n",
       "    Message('control_change', channel=0, control=64, value=64, time=16),\n",
       "    Message('note_on', channel=0, note=51, velocity=60, time=11),\n",
       "    Message('control_change', channel=0, control=64, value=65, time=4),\n",
       "    Message('control_change', channel=0, control=64, value=67, time=14),\n",
       "    Message('note_off', channel=0, note=45, velocity=53, time=1),\n",
       "    Message('control_change', channel=0, control=64, value=70, time=14),\n",
       "    Message('control_change', channel=0, control=64, value=76, time=15),\n",
       "    Message('control_change', channel=0, control=64, value=86, time=15),\n",
       "    Message('note_on', channel=0, note=55, velocity=68, time=11),\n",
       "    Message('control_change', channel=0, control=64, value=112, time=4),\n",
       "    Message('control_change', channel=0, control=64, value=127, time=14),\n",
       "    Message('note_off', channel=0, note=51, velocity=57, time=2),\n",
       "    Message('note_on', channel=0, note=54, velocity=75, time=52),\n",
       "    Message('note_off', channel=0, note=55, velocity=61, time=12),\n",
       "    Message('note_off', channel=0, note=24, velocity=44, time=63),\n",
       "    Message('note_on', channel=0, note=45, velocity=63, time=8),\n",
       "    Message('note_off', channel=0, note=54, velocity=38, time=21),\n",
       "    Message('note_on', channel=0, note=50, velocity=67, time=53),\n",
       "    Message('note_off', channel=0, note=45, velocity=61, time=4),\n",
       "    Message('note_off', channel=0, note=36, velocity=36, time=26),\n",
       "    Message('note_on', channel=0, note=54, velocity=68, time=34),\n",
       "    Message('note_off', channel=0, note=50, velocity=61, time=10),\n",
       "    Message('control_change', channel=0, control=64, value=96, time=27),\n",
       "    Message('control_change', channel=0, control=64, value=22, time=14),\n",
       "    Message('note_off', channel=0, note=54, velocity=63, time=1),\n",
       "    Message('control_change', channel=0, control=64, value=0, time=14),\n",
       "    Message('note_on', channel=0, note=26, velocity=66, time=18),\n",
       "    Message('note_on', channel=0, note=38, velocity=65, time=3),\n",
       "    Message('note_on', channel=0, note=57, velocity=79, time=3),\n",
       "    Message('note_off', channel=0, note=38, velocity=63, time=29),\n",
       "    Message('note_off', channel=0, note=26, velocity=63, time=1),\n",
       "    Message('control_change', channel=0, control=64, value=47, time=5),\n",
       "    Message('control_change', channel=0, control=64, value=73, time=15),\n",
       "    Message('control_change', channel=0, control=64, value=127, time=15),\n",
       "    Message('note_off', channel=0, note=57, velocity=59, time=7),\n",
       "    Message('note_on', channel=0, note=62, velocity=75, time=5),\n",
       "    Message('note_off', channel=0, note=62, velocity=64, time=69),\n",
       "    Message('note_on', channel=0, note=66, velocity=69, time=5),\n",
       "    Message('note_on', channel=0, note=42, velocity=70, time=61),\n",
       "    Message('note_on', channel=0, note=30, velocity=67, time=3),\n",
       "    Message('note_on', channel=0, note=57, velocity=77, time=7),\n",
       "    Message('note_off', channel=0, note=42, velocity=65, time=17),\n",
       "    Message('note_off', channel=0, note=30, velocity=63, time=7),\n",
       "    Message('control_change', channel=0, control=64, value=83, time=3),\n",
       "    Message('control_change', channel=0, control=64, value=0, time=15),\n",
       "    Message('note_off', channel=0, note=66, velocity=46, time=2),\n",
       "    Message('note_off', channel=0, note=57, velocity=63, time=15),\n",
       "    Message('note_on', channel=0, note=69, velocity=75, time=22),\n",
       "    Message('note_on', channel=0, note=45, velocity=73, time=9),\n",
       "    Message('note_on', channel=0, note=33, velocity=68, time=11),\n",
       "    Message('note_on', channel=0, note=57, velocity=74, time=68),\n",
       "    Message('control_change', channel=0, control=64, value=48, time=22),\n",
       "    Message('note_off', channel=0, note=69, velocity=50, time=12),\n",
       "    Message('control_change', channel=0, control=64, value=69, time=3),\n",
       "    Message('control_change', channel=0, control=64, value=115, time=15),\n",
       "    Message('control_change', channel=0, control=64, value=127, time=15),\n",
       "    Message('note_on', channel=0, note=64, velocity=72, time=10),\n",
       "    Message('note_off', channel=0, note=57, velocity=62, time=8),\n",
       "    Message('note_on', channel=0, note=67, velocity=80, time=51),\n",
       "    Message('note_off', channel=0, note=64, velocity=63, time=3),\n",
       "    Message('note_on', channel=0, note=66, velocity=84, time=56),\n",
       "    Message('note_off', channel=0, note=33, velocity=55, time=9),\n",
       "    Message('note_off', channel=0, note=67, velocity=64, time=12),\n",
       "    Message('note_off', channel=0, note=45, velocity=59, time=39),\n",
       "    Message('note_on', channel=0, note=57, velocity=81, time=15),\n",
       "    Message('note_off', channel=0, note=66, velocity=61, time=6),\n",
       "    Message('note_off', channel=0, note=57, velocity=65, time=49),\n",
       "    Message('note_on', channel=0, note=62, velocity=86, time=13),\n",
       "    Message('note_on', channel=0, note=66, velocity=81, time=66),\n",
       "    Message('note_off', channel=0, note=62, velocity=62, time=0),\n",
       "    Message('control_change', channel=0, control=64, value=74, time=3),\n",
       "    Message('control_change', channel=0, control=64, value=0, time=15),\n",
       "    Message('note_off', channel=0, note=66, velocity=64, time=17),\n",
       "    Message('note_on', channel=0, note=50, velocity=77, time=34),\n",
       "    Message('note_on', channel=0, note=38, velocity=63, time=6),\n",
       "    Message('note_on', channel=0, note=69, velocity=91, time=0),\n",
       "    Message('control_change', channel=0, control=64, value=63, time=2),\n",
       "    Message('control_change', channel=0, control=64, value=92, time=23),\n",
       "    Message('note_off', channel=0, note=50, velocity=66, time=4),\n",
       "    Message('note_off', channel=0, note=38, velocity=64, time=6),\n",
       "    Message('control_change', channel=0, control=64, value=127, time=4),\n",
       "    Message('note_off', channel=0, note=69, velocity=62, time=29),\n",
       "    Message('note_on', channel=0, note=74, velocity=83, time=13),\n",
       "    Message('note_off', channel=0, note=74, velocity=64, time=67),\n",
       "    Message('note_on', channel=0, note=78, velocity=86, time=1),\n",
       "    Message('note_on', channel=0, note=54, velocity=68, time=50),\n",
       "    Message('note_on', channel=0, note=42, velocity=64, time=8),\n",
       "    Message('note_off', channel=0, note=54, velocity=65, time=18),\n",
       "    Message('note_on', channel=0, note=69, velocity=78, time=5),\n",
       "    Message('control_change', channel=0, control=64, value=66, time=2),\n",
       "    Message('note_off', channel=0, note=78, velocity=54, time=2),\n",
       "    Message('note_off', channel=0, note=42, velocity=64, time=1),\n",
       "    Message('control_change', channel=0, control=64, value=0, time=12),\n",
       "    Message('note_off', channel=0, note=69, velocity=61, time=33),\n",
       "    Message('note_on', channel=0, note=57, velocity=80, time=6),\n",
       "    Message('note_on', channel=0, note=45, velocity=77, time=4),\n",
       "    Message('note_on', channel=0, note=81, velocity=85, time=6),\n",
       "    Message('control_change', channel=0, control=64, value=64, time=11),\n",
       "    Message('note_off', channel=0, note=57, velocity=72, time=1),\n",
       "    Message('note_off', channel=0, note=45, velocity=66, time=6),\n",
       "    Message('control_change', channel=0, control=64, value=90, time=8),\n",
       "    Message('control_change', channel=0, control=64, value=127, time=14),\n",
       "    Message('note_on', channel=0, note=69, velocity=73, time=39),\n",
       "    Message('note_off', channel=0, note=81, velocity=62, time=27),\n",
       "    Message('note_off', channel=0, note=69, velocity=62, time=28),\n",
       "    Message('note_on', channel=0, note=76, velocity=78, time=18),\n",
       "    Message('note_on', channel=0, note=61, velocity=71, time=42),\n",
       "    Message('note_on', channel=0, note=49, velocity=70, time=2),\n",
       "    Message('note_on', channel=0, note=79, velocity=87, time=17),\n",
       "    Message('note_off', channel=0, note=76, velocity=64, time=0),\n",
       "    Message('control_change', channel=0, control=64, value=94, time=6),\n",
       "    Message('note_off', channel=0, note=61, velocity=67, time=1),\n",
       "    Message('note_off', channel=0, note=49, velocity=65, time=2),\n",
       "    Message('control_change', channel=0, control=64, value=38, time=11),\n",
       "    Message('control_change', channel=0, control=64, value=0, time=15),\n",
       "    Message('note_on', channel=0, note=62, velocity=86, time=22),\n",
       "    Message('note_on', channel=0, note=50, velocity=80, time=3),\n",
       "    Message('note_on', channel=0, note=78, velocity=90, time=7),\n",
       "    Message('note_off', channel=0, note=62, velocity=71, time=9),\n",
       "    Message('control_change', channel=0, control=64, value=54, time=4),\n",
       "    Message('note_off', channel=0, note=50, velocity=68, time=4),\n",
       "    Message('note_off', channel=0, note=79, velocity=63, time=0),\n",
       "    Message('control_change', channel=0, control=64, value=82, time=11),\n",
       "    Message('control_change', channel=0, control=64, value=127, time=14),\n",
       "    Message('note_on', channel=0, note=69, velocity=80, time=34),\n",
       "    Message('note_off', channel=0, note=78, velocity=61, time=3),\n",
       "    Message('note_off', channel=0, note=69, velocity=63, time=60),\n",
       "    Message('note_on', channel=0, note=74, velocity=89, time=9),\n",
       "    Message('control_change', channel=0, control=64, value=109, time=27),\n",
       "    Message('control_change', channel=0, control=64, value=60, time=23),\n",
       "    Message('control_change', channel=0, control=64, value=0, time=15),\n",
       "    Message('note_on', channel=0, note=78, velocity=84, time=9),\n",
       "    Message('note_off', channel=0, note=74, velocity=64, time=6),\n",
       "    Message('note_off', channel=0, note=78, velocity=63, time=28),\n",
       "    Message('note_on', channel=0, note=62, velocity=96, time=10),\n",
       "    Message('note_on', channel=0, note=50, velocity=77, time=9),\n",
       "    Message('control_change', channel=0, control=64, value=67, time=11),\n",
       "    Message('note_on', channel=0, note=81, velocity=92, time=9),\n",
       "    Message('note_off', channel=0, note=62, velocity=65, time=2),\n",
       "    Message('note_off', channel=0, note=50, velocity=66, time=0),\n",
       "    Message('control_change', channel=0, control=64, value=127, time=4),\n",
       "    Message('note_on', channel=0, note=86, velocity=86, time=61),\n",
       "    Message('note_off', channel=0, note=81, velocity=64, time=6),\n",
       "    Message('note_on', channel=0, note=90, velocity=86, time=62),\n",
       "    Message('note_off', channel=0, note=86, velocity=64, time=0),\n",
       "    Message('note_on', channel=0, note=66, velocity=79, time=49),\n",
       "    Message('note_on', channel=0, note=54, velocity=69, time=3),\n",
       "    Message('control_change', channel=0, control=64, value=115, time=13),\n",
       "    Message('note_on', channel=0, note=81, velocity=87, time=6),\n",
       "    Message('note_off', channel=0, note=66, velocity=70, time=2),\n",
       "    Message('note_off', channel=0, note=54, velocity=65, time=6),\n",
       "    Message('control_change', channel=0, control=64, value=59, time=0),\n",
       "    Message('note_off', channel=0, note=90, velocity=62, time=1),\n",
       "    Message('control_change', channel=0, control=64, value=0, time=14),\n",
       "    Message('note_off', channel=0, note=81, velocity=64, time=23),\n",
       "    Message('note_on', channel=0, note=69, velocity=94, time=15),\n",
       "    Message('note_on', channel=0, note=93, velocity=97, time=3),\n",
       "    Message('note_on', channel=0, note=57, velocity=82, time=3),\n",
       "    Message('control_change', channel=0, control=64, value=64, time=15),\n",
       "    Message('note_off', channel=0, note=69, velocity=67, time=4),\n",
       "    Message('note_off', channel=0, note=57, velocity=71, time=2),\n",
       "    Message('control_change', channel=0, control=64, value=127, time=9),\n",
       "    Message('note_on', channel=0, note=81, velocity=88, time=38),\n",
       "    Message('note_off', channel=0, note=93, velocity=63, time=35),\n",
       "    Message('note_off', channel=0, note=81, velocity=64, time=18),\n",
       "    Message('note_on', channel=0, note=88, velocity=79, time=21),\n",
       "    Message('control_change', channel=0, control=64, value=81, time=37),\n",
       "    Message('control_change', channel=0, control=64, value=0, time=15),\n",
       "    Message('note_on', channel=0, note=61, velocity=74, time=9),\n",
       "    Message('note_on', channel=0, note=73, velocity=73, time=1),\n",
       "    Message('note_on', channel=0, note=91, velocity=81, time=2),\n",
       "    Message('note_off', channel=0, note=88, velocity=64, time=1),\n",
       "    Message('note_off', channel=0, note=61, velocity=68, time=18),\n",
       "    Message('note_off', channel=0, note=73, velocity=70, time=1),\n",
       "    Message('control_change', channel=0, control=64, value=46, time=27),\n",
       "    Message('control_change', channel=0, control=64, value=81, time=15),\n",
       "    Message('note_on', channel=0, note=90, velocity=96, time=6),\n",
       "    Message('note_on', channel=0, note=74, velocity=85, time=0),\n",
       "    Message('note_on', channel=0, note=62, velocity=79, time=2),\n",
       "    Message('control_change', channel=0, control=64, value=127, time=6),\n",
       "    Message('note_off', channel=0, note=91, velocity=65, time=4),\n",
       "    Message('note_off', channel=0, note=74, velocity=72, time=7),\n",
       "    Message('note_off', channel=0, note=62, velocity=69, time=5),\n",
       "    Message('note_off', channel=0, note=90, velocity=67, time=13),\n",
       "    Message('control_change', channel=0, control=64, value=74, time=142),\n",
       "    Message('control_change', channel=0, control=64, value=0, time=15),\n",
       "    Message('control_change', channel=0, control=64, value=54, time=193),\n",
       "    Message('note_on', channel=0, note=62, velocity=56, time=15),\n",
       "    Message('control_change', channel=0, control=64, value=74, time=0),\n",
       "    Message('note_on', channel=0, note=86, velocity=78, time=1),\n",
       "    Message('note_on', channel=0, note=74, velocity=62, time=6),\n",
       "    Message('note_on', channel=0, note=78, velocity=71, time=3),\n",
       "    Message('note_on', channel=0, note=69, velocity=57, time=3),\n",
       "    Message('control_change', channel=0, control=64, value=127, time=1),\n",
       "    Message('note_on', channel=0, note=81, velocity=53, time=11),\n",
       "    Message('note_off', channel=0, note=78, velocity=67, time=10),\n",
       "    Message('note_off', channel=0, note=74, velocity=67, time=4),\n",
       "    Message('note_off', channel=0, note=69, velocity=66, time=7),\n",
       "    Message('note_off', channel=0, note=62, velocity=62, time=3),\n",
       "    Message('note_off', channel=0, note=81, velocity=65, time=5),\n",
       "    Message('note_off', channel=0, note=86, velocity=63, time=30),\n",
       "    Message('control_change', channel=0, control=67, value=25, time=501),\n",
       "    Message('control_change', channel=0, control=67, value=76, time=15),\n",
       "    Message('control_change', channel=0, control=67, value=127, time=15),\n",
       "    Message('control_change', channel=0, control=64, value=94, time=178),\n",
       "    Message('control_change', channel=0, control=64, value=79, time=15),\n",
       "    Message('control_change', channel=0, control=64, value=70, time=14),\n",
       "    Message('control_change', channel=0, control=64, value=65, time=16),\n",
       "    Message('control_change', channel=0, control=64, value=61, time=15),\n",
       "    Message('control_change', channel=0, control=64, value=54, time=15),\n",
       "    Message('note_on', channel=0, note=46, velocity=33, time=0),\n",
       "    Message('note_on', channel=0, note=34, velocity=29, time=4),\n",
       "    Message('control_change', channel=0, control=64, value=40, time=11),\n",
       "    Message('control_change', channel=0, control=64, value=0, time=15),\n",
       "    Message('note_on', channel=0, note=62, velocity=56, time=29),\n",
       "    Message('control_change', channel=0, control=64, value=53, time=30),\n",
       "    Message('control_change', channel=0, control=64, value=63, time=15),\n",
       "    Message('control_change', channel=0, control=64, value=67, time=14),\n",
       "    Message('control_change', channel=0, control=64, value=75, time=15),\n",
       "    Message('control_change', channel=0, control=64, value=95, time=15),\n",
       "    Message('control_change', channel=0, control=64, value=127, time=15),\n",
       "    Message('polytouch', channel=0, note=38, value=127, time=44),\n",
       "    Message('note_on', channel=0, note=50, velocity=48, time=23),\n",
       "    Message('note_off', channel=0, note=50, velocity=58, time=50),\n",
       "    Message('note_off', channel=0, note=62, velocity=34, time=15),\n",
       "    Message('note_on', channel=0, note=56, velocity=56, time=18),\n",
       "    Message('note_off', channel=0, note=56, velocity=46, time=74),\n",
       "    Message('note_on', channel=0, note=60, velocity=60, time=10),\n",
       "    Message('note_off', channel=0, note=60, velocity=63, time=77),\n",
       "    Message('note_on', channel=0, note=58, velocity=64, time=5),\n",
       "    Message('note_off', channel=0, note=34, velocity=41, time=1),\n",
       "    Message('polytouch', channel=0, note=38, value=0, time=57),\n",
       "    Message('note_on', channel=0, note=51, velocity=68, time=15),\n",
       "    Message('note_off', channel=0, note=46, velocity=61, time=0),\n",
       "    Message('note_off', channel=0, note=58, velocity=33, time=42),\n",
       "    Message('note_on', channel=0, note=56, velocity=68, time=38),\n",
       "    Message('note_off', channel=0, note=51, velocity=60, time=1),\n",
       "    Message('note_on', channel=0, note=36, velocity=56, time=33),\n",
       "    Message('note_on', channel=0, note=48, velocity=35, time=17),\n",
       "    Message('note_on', channel=0, note=58, velocity=69, time=21),\n",
       "    Message('note_off', channel=0, note=56, velocity=60, time=1),\n",
       "    Message('note_off', channel=0, note=48, velocity=51, time=13),\n",
       "    Message('note_off', channel=0, note=36, velocity=45, time=22),\n",
       "    Message('note_off', channel=0, note=58, velocity=61, time=4),\n",
       "    Message('control_change', channel=0, control=64, value=107, time=78),\n",
       "    Message('control_change', channel=0, control=64, value=76, time=15),\n",
       "    Message('note_on', channel=0, note=37, velocity=51, time=2),\n",
       "    Message('note_on', channel=0, note=49, velocity=61, time=2),\n",
       "    Message('control_change', channel=0, control=64, value=62, time=11),\n",
       "    Message('note_on', channel=0, note=67, velocity=75, time=11),\n",
       "    Message('control_change', channel=0, control=64, value=0, time=3),\n",
       "    Message('control_change', channel=0, control=64, value=63, time=45),\n",
       "    Message('control_change', channel=0, control=64, value=74, time=15),\n",
       "    Message('control_change', channel=0, control=64, value=127, time=14),\n",
       "    Message('note_off', channel=0, note=67, velocity=60, time=8),\n",
       "    Message('note_on', channel=0, note=52, velocity=68, time=87),\n",
       "    Message('note_off', channel=0, note=52, velocity=57, time=56),\n",
       "    Message('note_on', channel=0, note=58, velocity=62, time=34),\n",
       "    Message('note_off', channel=0, note=37, velocity=34, time=11),\n",
       "    Message('note_off', channel=0, note=49, velocity=61, time=36),\n",
       "    Message('note_on', channel=0, note=67, velocity=61, time=6),\n",
       "    Message('note_off', channel=0, note=58, velocity=60, time=4),\n",
       "    Message('note_off', channel=0, note=67, velocity=64, time=23),\n",
       "    Message('polytouch', channel=0, note=65, value=127, time=45),\n",
       "    Message('note_on', channel=0, note=65, velocity=46, time=26),\n",
       "    Message('control_change', channel=0, control=64, value=119, time=12),\n",
       "    Message('note_on', channel=0, note=50, velocity=60, time=5),\n",
       "    Message('note_on', channel=0, note=38, velocity=57, time=1),\n",
       "    Message('control_change', channel=0, control=64, value=77, time=9),\n",
       "    Message('control_change', channel=0, control=64, value=62, time=15),\n",
       "    Message('control_change', channel=0, control=64, value=0, time=15),\n",
       "    Message('note_on', channel=0, note=53, velocity=63, time=78),\n",
       "    Message('control_change', channel=0, control=64, value=63, time=41),\n",
       "    Message('control_change', channel=0, control=64, value=77, time=14),\n",
       "    Message('note_off', channel=0, note=53, velocity=53, time=13),\n",
       "    Message('control_change', channel=0, control=64, value=127, time=2),\n",
       "    Message('note_on', channel=0, note=58, velocity=63, time=21),\n",
       "    Message('note_off', channel=0, note=65, velocity=56, time=30),\n",
       "    Message('note_on', channel=0, note=63, velocity=66, time=23),\n",
       "    Message('note_off', channel=0, note=58, velocity=62, time=6),\n",
       "    Message('note_off', channel=0, note=50, velocity=54, time=23),\n",
       "    Message('note_on', channel=0, note=62, velocity=85, time=52),\n",
       "    Message('note_off', channel=0, note=63, velocity=62, time=0),\n",
       "    Message('note_off', channel=0, note=62, velocity=60, time=75),\n",
       "    Message('note_on', channel=0, note=55, velocity=67, time=11),\n",
       "    Message('note_off', channel=0, note=38, velocity=52, time=1),\n",
       "    Message('note_off', channel=0, note=55, velocity=59, time=54),\n",
       "    Message('note_on', channel=0, note=58, velocity=74, time=1),\n",
       "    Message('note_on', channel=0, note=51, velocity=67, time=12),\n",
       "    Message('note_on', channel=0, note=39, velocity=55, time=11),\n",
       "    Message('note_off', channel=0, note=51, velocity=64, time=30),\n",
       "    Message('note_off', channel=0, note=39, velocity=61, time=23),\n",
       "    Message('note_on', channel=0, note=62, velocity=81, time=3),\n",
       "    Message('note_off', channel=0, note=58, velocity=63, time=4),\n",
       "    Message('control_change', channel=0, control=64, value=98, time=28),\n",
       "    Message('control_change', channel=0, control=64, value=69, time=14),\n",
       "    Message('note_on', channel=0, note=52, velocity=70, time=15),\n",
       "    Message('control_change', channel=0, control=64, value=0, time=0),\n",
       "    Message('note_on', channel=0, note=40, velocity=63, time=3),\n",
       "    Message('note_off', channel=0, note=62, velocity=61, time=0),\n",
       "    Message('note_on', channel=0, note=68, velocity=78, time=21),\n",
       "    Message('note_on', channel=0, note=56, velocity=66, time=73),\n",
       "    Message('control_change', channel=0, control=64, value=62, time=6),\n",
       "    Message('control_change', channel=0, control=64, value=70, time=15),\n",
       "    Message('control_change', channel=0, control=64, value=98, time=15),\n",
       "    Message('note_off', channel=0, note=40, velocity=55, time=6),\n",
       "    Message('note_off', channel=0, note=68, velocity=60, time=0),\n",
       "    Message('control_change', channel=0, control=64, value=127, time=9),\n",
       "    Message('note_on', channel=0, note=62, velocity=69, time=19),\n",
       "    Message('note_off', channel=0, note=56, velocity=59, time=17),\n",
       "    Message('note_off', channel=0, note=52, velocity=48, time=39),\n",
       "    Message('note_on', channel=0, note=68, velocity=70, time=6),\n",
       "    Message('note_off', channel=0, note=62, velocity=58, time=38),\n",
       "    Message('note_off', channel=0, note=68, velocity=58, time=20),\n",
       "    Message('control_change', channel=0, control=64, value=73, time=39),\n",
       "    Message('note_on', channel=0, note=53, velocity=58, time=13),\n",
       "    Message('note_on', channel=0, note=41, velocity=59, time=0),\n",
       "    Message('control_change', channel=0, control=64, value=28, time=2),\n",
       "    Message('note_on', channel=0, note=67, velocity=71, time=3),\n",
       "    Message('control_change', channel=0, control=64, value=0, time=12),\n",
       "    Message('note_on', channel=0, note=56, velocity=46, time=111),\n",
       "    Message('control_change', channel=0, control=64, value=42, time=23),\n",
       "    Message('control_change', channel=0, control=64, value=62, time=15),\n",
       "    Message('note_off', channel=0, note=67, velocity=56, time=8),\n",
       "    Message('control_change', channel=0, control=64, value=65, time=6),\n",
       "    Message('note_on', channel=0, note=62, velocity=65, time=8),\n",
       "    Message('control_change', channel=0, control=64, value=69, time=7),\n",
       "    Message('note_off', channel=0, note=56, velocity=60, time=8),\n",
       "    Message('control_change', channel=0, control=64, value=77, time=7),\n",
       "    Message('control_change', channel=0, control=64, value=111, time=15),\n",
       "    Message('control_change', channel=0, control=64, value=127, time=15),\n",
       "    Message('note_off', channel=0, note=53, velocity=61, time=8),\n",
       "    Message('note_on', channel=0, note=65, velocity=69, time=2),\n",
       "    Message('note_off', channel=0, note=62, velocity=59, time=9),\n",
       "    Message('note_on', channel=0, note=64, velocity=76, time=78),\n",
       "    Message('note_off', channel=0, note=65, velocity=59, time=21),\n",
       "    Message('note_off', channel=0, note=41, velocity=52, time=50),\n",
       "    Message('note_on', channel=0, note=58, velocity=67, time=12),\n",
       "    Message('note_off', channel=0, note=64, velocity=60, time=17),\n",
       "    Message('note_on', channel=0, note=54, velocity=65, time=24),\n",
       "    Message('note_on', channel=0, note=42, velocity=59, time=7),\n",
       "    Message('note_on', channel=0, note=61, velocity=72, time=12),\n",
       "    Message('note_off', channel=0, note=58, velocity=62, time=9),\n",
       "    Message('note_off', channel=0, note=54, velocity=59, time=17),\n",
       "    Message('note_off', channel=0, note=42, velocity=56, time=17),\n",
       "    Message('control_change', channel=0, control=64, value=86, time=5),\n",
       "    Message('note_on', channel=0, note=64, velocity=74, time=14),\n",
       "    Message('control_change', channel=0, control=64, value=53, time=1),\n",
       "    Message('note_off', channel=0, note=61, velocity=63, time=10),\n",
       "    Message('control_change', channel=0, control=64, value=0, time=5),\n",
       "    Message('note_on', channel=0, note=55, velocity=70, time=20),\n",
       "    Message('note_on', channel=0, note=43, velocity=59, time=8),\n",
       "    Message('note_on', channel=0, note=70, velocity=73, time=27),\n",
       "    Message('note_off', channel=0, note=64, velocity=62, time=3),\n",
       "    Message('control_change', channel=0, control=64, value=63, time=46),\n",
       "    Message('note_off', channel=0, note=55, velocity=59, time=5),\n",
       "    Message('note_on', channel=0, note=61, velocity=66, time=6),\n",
       "    Message('control_change', channel=0, control=64, value=70, time=3),\n",
       "    Message('control_change', channel=0, control=64, value=89, time=15),\n",
       "    Message('control_change', channel=0, control=64, value=127, time=15),\n",
       "    Message('note_off', channel=0, note=70, velocity=58, time=19),\n",
       "    Message('note_on', channel=0, note=64, velocity=66, time=18),\n",
       "    Message('note_off', channel=0, note=61, velocity=59, time=33),\n",
       "    Message('note_on', channel=0, note=70, velocity=74, time=47),\n",
       "    Message('note_off', channel=0, note=64, velocity=59, time=12),\n",
       "    Message('note_off', channel=0, note=43, velocity=45, time=44),\n",
       "    Message('control_change', channel=0, control=64, value=91, time=5),\n",
       "    Message('note_on', channel=0, note=56, velocity=70, time=14),\n",
       "    Message('control_change', channel=0, control=64, value=66, time=2),\n",
       "    Message('note_on', channel=0, note=44, velocity=65, time=1),\n",
       "    Message('note_on', channel=0, note=68, velocity=77, time=11),\n",
       "    Message('control_change', channel=0, control=64, value=0, time=3),\n",
       "    Message('control_change', channel=0, control=67, value=124, time=14),\n",
       "    Message('control_change', channel=0, control=67, value=120, time=15),\n",
       "    Message('note_off', channel=0, note=70, velocity=64, time=4),\n",
       "    Message('control_change', channel=0, control=67, value=113, time=11),\n",
       "    Message('control_change', channel=0, control=67, value=102, time=15),\n",
       "    Message('control_change', channel=0, control=67, value=88, time=15),\n",
       "    Message('note_on', channel=0, note=61, velocity=69, time=1),\n",
       "    Message('control_change', channel=0, control=67, value=70, time=13),\n",
       "    Message('control_change', channel=0, control=64, value=57, time=15),\n",
       "    Message('control_change', channel=0, control=67, value=43, time=0),\n",
       "    Message('control_change', channel=0, control=64, value=68, time=15),\n",
       "    Message('control_change', channel=0, control=67, value=10, time=0),\n",
       "    Message('control_change', channel=0, control=64, value=86, time=22),\n",
       "    Message('control_change', channel=0, control=67, value=0, time=0),\n",
       "    Message('note_on', channel=0, note=65, velocity=69, time=12),\n",
       "    Message('control_change', channel=0, control=64, value=127, time=3),\n",
       "    Message('note_off', channel=0, note=68, velocity=54, time=1),\n",
       "    Message('note_off', channel=0, note=61, velocity=59, time=9),\n",
       "    Message('note_on', channel=0, note=67, velocity=79, time=51),\n",
       "    Message('note_off', channel=0, note=65, velocity=63, time=5),\n",
       "    Message('note_off', channel=0, note=44, velocity=58, time=57),\n",
       "    Message('note_on', channel=0, note=66, velocity=87, time=11),\n",
       "    Message('note_off', channel=0, note=67, velocity=65, time=17),\n",
       "    Message('note_off', channel=0, note=56, velocity=61, time=10),\n",
       "    Message('note_on', channel=0, note=60, velocity=73, time=44),\n",
       "    Message('note_off', channel=0, note=66, velocity=60, time=17),\n",
       "    Message('note_off', channel=0, note=60, velocity=62, time=43),\n",
       "    Message('note_on', channel=0, note=63, velocity=76, time=6),\n",
       "    Message('note_on', channel=0, note=57, velocity=69, time=6),\n",
       "    Message('note_on', channel=0, note=45, velocity=68, time=5),\n",
       "    Message('note_off', channel=0, note=57, velocity=68, time=23),\n",
       "    Message('note_on', channel=0, note=66, velocity=78, time=27),\n",
       "    Message('note_off', channel=0, note=45, velocity=58, time=0),\n",
       "    Message('control_change', channel=0, control=64, value=90, time=8),\n",
       "    Message('note_off', channel=0, note=63, velocity=63, time=3),\n",
       "    Message('control_change', channel=0, control=64, value=64, time=12),\n",
       "    Message('control_change', channel=0, control=64, value=0, time=15),\n",
       "    Message('note_off', channel=0, note=66, velocity=60, time=38),\n",
       "    Message('note_on', channel=0, note=58, velocity=71, time=1),\n",
       "    Message('note_on', channel=0, note=46, velocity=65, time=3),\n",
       "    Message('note_on', channel=0, note=72, velocity=83, time=3),\n",
       "    Message('control_change', channel=0, control=64, value=60, time=44),\n",
       "    Message('control_change', channel=0, control=64, value=69, time=15),\n",
       "    Message('control_change', channel=0, control=64, value=97, time=15),\n",
       "    Message('note_off', channel=0, note=46, velocity=63, time=9),\n",
       "    Message('note_on', channel=0, note=63, velocity=68, time=5),\n",
       "    Message('control_change', channel=0, control=64, value=127, time=1),\n",
       "    Message('note_off', channel=0, note=72, velocity=58, time=44),\n",
       "    Message('note_off', channel=0, note=58, velocity=60, time=23),\n",
       "    Message('note_on', channel=0, note=66, velocity=63, time=13),\n",
       "    Message('note_off', channel=0, note=63, velocity=60, time=3),\n",
       "    Message('note_on', channel=0, note=72, velocity=74, time=66),\n",
       "    Message('note_off', channel=0, note=66, velocity=60, time=7),\n",
       "    Message('control_change', channel=0, control=64, value=94, time=67),\n",
       "    Message('control_change', channel=0, control=64, value=76, time=22),\n",
       "    Message('note_on', channel=0, note=60, velocity=55, time=11),\n",
       "    Message('control_change', channel=0, control=64, value=65, time=3),\n",
       "    Message('note_on', channel=0, note=48, velocity=49, time=2),\n",
       "    Message('note_on', channel=0, note=70, velocity=69, time=5),\n",
       "    Message('control_change', channel=0, control=64, value=26, time=8),\n",
       "    Message('control_change', channel=0, control=64, value=0, time=15),\n",
       "    Message('note_off', channel=0, note=72, velocity=59, time=12),\n",
       "    Message('note_on', channel=0, note=63, velocity=59, time=62),\n",
       "    Message('control_change', channel=0, control=64, value=55, time=15),\n",
       "    Message('control_change', channel=0, control=64, value=65, time=15),\n",
       "    Message('control_change', channel=0, control=64, value=71, time=15),\n",
       "    Message('control_change', channel=0, control=64, value=87, time=15),\n",
       "    Message('control_change', channel=0, control=64, value=127, time=15),\n",
       "    Message('note_on', channel=0, note=66, velocity=60, time=16),\n",
       "    Message('note_off', channel=0, note=70, velocity=36, time=11),\n",
       "    Message('note_off', channel=0, note=63, velocity=59, time=5),\n",
       "    Message('note_off', channel=0, note=60, velocity=56, time=41),\n",
       "    Message('note_on', channel=0, note=69, velocity=75, time=1),\n",
       "    Message('note_off', channel=0, note=48, velocity=57, time=3),\n",
       "    Message('note_off', channel=0, note=66, velocity=62, time=2),\n",
       "    Message('note_on', channel=0, note=68, velocity=79, time=79),\n",
       "    Message('note_off', channel=0, note=69, velocity=59, time=27),\n",
       "    Message('note_on', channel=0, note=62, velocity=79, time=35),\n",
       "    Message('note_off', channel=0, note=68, velocity=58, time=23),\n",
       "    Message('note_on', channel=0, note=59, velocity=76, time=25),\n",
       "    Message('note_on', channel=0, note=47, velocity=66, time=3),\n",
       "    Message('note_on', channel=0, note=65, velocity=77, time=17),\n",
       "    Message('note_off', channel=0, note=62, velocity=61, time=10),\n",
       "    Message('note_off', channel=0, note=47, velocity=65, time=3),\n",
       "    Message('note_off', channel=0, note=59, velocity=58, time=9),\n",
       "    Message('note_on', channel=0, note=68, velocity=78, time=37),\n",
       "    Message('note_off', channel=0, note=65, velocity=66, time=7),\n",
       "    Message('control_change', channel=0, control=64, value=91, time=16),\n",
       "    Message('control_change', channel=0, control=64, value=65, time=14),\n",
       "    Message('control_change', channel=0, control=64, value=0, time=15),\n",
       "    Message('note_on', channel=0, note=60, velocity=79, time=1),\n",
       "    Message('note_on', channel=0, note=48, velocity=77, time=4),\n",
       "    Message('note_on', channel=0, note=74, velocity=83, time=7),\n",
       "    Message('note_off', channel=0, note=68, velocity=64, time=0),\n",
       "    Message('note_on', channel=0, note=72, velocity=49, time=28),\n",
       "    Message('note_off', channel=0, note=72, velocity=37, time=26),\n",
       "    Message('control_change', channel=0, control=64, value=46, time=8),\n",
       "    Message('note_on', channel=0, note=65, velocity=76, time=16),\n",
       "    Message('control_change', channel=0, control=64, value=65, time=0),\n",
       "    Message('control_change', channel=0, control=64, value=78, time=15),\n",
       "    Message('note_off', channel=0, note=74, velocity=63, time=11),\n",
       "    Message('control_change', channel=0, control=64, value=127, time=4),\n",
       "    Message('note_off', channel=0, note=48, velocity=56, time=57),\n",
       "    Message('note_on', channel=0, note=68, velocity=76, time=5),\n",
       "    Message('note_off', channel=0, note=65, velocity=61, time=17),\n",
       "    Message('note_off', channel=0, note=60, velocity=57, time=25),\n",
       "    Message('note_on', channel=0, note=74, velocity=81, time=9),\n",
       "    Message('note_off', channel=0, note=68, velocity=62, time=24),\n",
       "    Message('note_on', channel=0, note=62, velocity=90, time=54),\n",
       "    Message('note_on', channel=0, note=72, velocity=92, time=2),\n",
       "    Message('note_on', channel=0, note=50, velocity=77, time=3),\n",
       "    Message('control_change', channel=0, control=64, value=75, time=18),\n",
       "    Message('note_off', channel=0, note=74, velocity=65, time=8),\n",
       "    Message('control_change', channel=0, control=64, value=0, time=7),\n",
       "    Message('note_on', channel=0, note=65, velocity=78, time=38),\n",
       "    Message('note_off', channel=0, note=72, velocity=66, time=20),\n",
       "    Message('control_change', channel=0, control=64, value=59, time=61),\n",
       "    Message('note_on', channel=0, note=68, velocity=77, time=2),\n",
       "    Message('control_change', channel=0, control=64, value=77, time=13),\n",
       "    Message('note_off', channel=0, note=65, velocity=63, time=9),\n",
       "    Message('control_change', channel=0, control=64, value=127, time=5),\n",
       "    Message('note_on', channel=0, note=71, velocity=81, time=38),\n",
       "    Message('note_off', channel=0, note=68, velocity=63, time=8),\n",
       "    Message('note_off', channel=0, note=50, velocity=59, time=12),\n",
       "    Message('note_off', channel=0, note=62, velocity=59, time=3),\n",
       "    Message('note_on', channel=0, note=70, velocity=86, time=53),\n",
       "    Message('note_off', channel=0, note=71, velocity=62, time=24),\n",
       "    Message('note_on', channel=0, note=64, velocity=80, time=33),\n",
       "    Message('note_off', channel=0, note=70, velocity=62, time=26),\n",
       "    Message('note_on', channel=0, note=61, velocity=79, time=32),\n",
       "    Message('note_on', channel=0, note=67, velocity=86, time=6),\n",
       "    Message('note_on', channel=0, note=49, velocity=63, time=4),\n",
       "    Message('note_off', channel=0, note=64, velocity=61, time=13),\n",
       "    Message('note_off', channel=0, note=61, velocity=65, time=38),\n",
       "    Message('note_off', channel=0, note=49, velocity=60, time=0),\n",
       "    Message('note_on', channel=0, note=70, velocity=86, time=10),\n",
       "    Message('note_off', channel=0, note=67, velocity=64, time=17),\n",
       "    Message('control_change', channel=0, control=64, value=75, time=24),\n",
       "    Message('control_change', channel=0, control=64, value=24, time=15),\n",
       "    Message('note_on', channel=0, note=62, velocity=89, time=12),\n",
       "    Message('note_off', channel=0, note=70, velocity=65, time=2),\n",
       "    Message('note_on', channel=0, note=76, velocity=87, time=1),\n",
       "    Message('control_change', channel=0, control=64, value=0, time=0),\n",
       "    Message('note_on', channel=0, note=50, velocity=86, time=0),\n",
       "    Message('note_on', channel=0, note=67, velocity=78, time=73),\n",
       "    Message('control_change', channel=0, control=64, value=60, time=40),\n",
       "    Message('note_off', channel=0, note=76, velocity=65, time=12),\n",
       "    Message('control_change', channel=0, control=64, value=71, time=2),\n",
       "    Message('control_change', channel=0, control=64, value=127, time=15),\n",
       "    Message('note_off', channel=0, note=50, velocity=53, time=19),\n",
       "    Message('note_on', channel=0, note=70, velocity=80, time=6),\n",
       "    Message('note_off', channel=0, note=67, velocity=62, time=31),\n",
       "    Message('note_off', channel=0, note=62, velocity=59, time=35),\n",
       "    Message('note_on', channel=0, note=76, velocity=82, time=1),\n",
       "    Message('note_off', channel=0, note=70, velocity=63, time=14),\n",
       "    Message('note_on', channel=0, note=64, velocity=88, time=81),\n",
       "    Message('note_on', channel=0, note=74, velocity=90, time=4),\n",
       "    Message('note_on', channel=0, note=52, velocity=79, time=1),\n",
       "    Message('control_change', channel=0, control=64, value=103, time=0),\n",
       "    Message('control_change', channel=0, control=64, value=71, time=15),\n",
       "    Message('note_off', channel=0, note=76, velocity=65, time=13),\n",
       "    Message('control_change', channel=0, control=64, value=39, time=2),\n",
       "    Message('control_change', channel=0, control=64, value=0, time=15),\n",
       "    Message('note_on', channel=0, note=67, velocity=81, time=41),\n",
       "    Message('note_off', channel=0, note=74, velocity=63, time=58),\n",
       "    Message('control_change', channel=0, control=64, value=57, time=5),\n",
       "    Message('control_change', channel=0, control=64, value=67, time=15),\n",
       "    Message('note_on', channel=0, note=70, velocity=83, time=8),\n",
       "    Message('control_change', channel=0, control=64, value=79, time=7),\n",
       "    Message('control_change', channel=0, control=64, value=127, time=14),\n",
       "    Message('note_off', channel=0, note=67, velocity=50, time=36),\n",
       "    Message('note_on', channel=0, note=73, velocity=85, time=13),\n",
       "    Message('note_off', channel=0, note=70, velocity=63, time=32),\n",
       "    Message('note_off', channel=0, note=64, velocity=53, time=18),\n",
       "    Message('note_on', channel=0, note=74, velocity=88, time=22),\n",
       "    Message('note_off', channel=0, note=52, velocity=58, time=34),\n",
       "    Message('note_off', channel=0, note=73, velocity=59, time=2),\n",
       "    Message('note_on', channel=0, note=65, velocity=84, time=34),\n",
       "    Message('note_off', channel=0, note=74, velocity=63, time=54),\n",
       "    Message('note_on', channel=0, note=69, velocity=80, time=34),\n",
       "    Message('note_on', channel=0, note=53, velocity=75, time=5),\n",
       "    Message('note_off', channel=0, note=65, velocity=63, time=31),\n",
       "    Message('note_on', channel=0, note=74, velocity=86, time=30),\n",
       "    Message('note_off', channel=0, note=69, velocity=63, time=28),\n",
       "    Message('control_change', channel=0, control=64, value=85, time=50),\n",
       "    Message('note_off', channel=0, note=53, velocity=54, time=15),\n",
       "    Message('control_change', channel=0, control=64, value=68, time=0),\n",
       "    Message('note_on', channel=0, note=55, velocity=77, time=13),\n",
       "    Message('control_change', channel=0, control=64, value=55, time=2),\n",
       "    Message('note_on', channel=0, note=70, velocity=86, time=4),\n",
       "    Message('control_change', channel=0, control=64, value=0, time=11),\n",
       "    Message('note_off', channel=0, note=74, velocity=65, time=12),\n",
       "    Message('note_on', channel=0, note=62, velocity=83, time=71),\n",
       "    Message('control_change', channel=0, control=64, value=54, time=35),\n",
       "    Message('note_off', channel=0, note=70, velocity=62, time=13),\n",
       "    Message('control_change', channel=0, control=64, value=64, time=2),\n",
       "    Message('control_change', channel=0, control=64, value=67, time=15),\n",
       "    Message('control_change', channel=0, control=64, value=76, time=14),\n",
       "    Message('note_on', channel=0, note=67, velocity=73, time=9),\n",
       "    Message('control_change', channel=0, control=64, value=113, time=6),\n",
       "    Message('note_off', channel=0, note=62, velocity=58, time=13),\n",
       "    Message('control_change', channel=0, control=64, value=127, time=2),\n",
       "    Message('note_off', channel=0, note=55, velocity=37, time=49),\n",
       "    Message('note_on', channel=0, note=70, velocity=74, time=3),\n",
       "    Message('note_off', channel=0, note=67, velocity=63, time=23),\n",
       "    Message('note_on', channel=0, note=57, velocity=62, time=22),\n",
       "    Message('note_off', channel=0, note=70, velocity=55, time=52),\n",
       "    Message('note_on', channel=0, note=69, velocity=72, time=2),\n",
       "    Message('note_off', channel=0, note=57, velocity=61, time=28),\n",
       "    Message('control_change', channel=0, control=64, value=86, time=28),\n",
       "    Message('note_on', channel=0, note=55, velocity=68, time=10),\n",
       "    Message('control_change', channel=0, control=64, value=62, time=5),\n",
       "    Message('control_change', channel=0, control=64, value=0, time=15),\n",
       "    Message('control_change', channel=0, control=64, value=17, time=30),\n",
       "    Message('note_on', channel=0, note=61, velocity=70, time=8),\n",
       "    Message('control_change', channel=0, control=64, value=68, time=6),\n",
       "    Message('control_change', channel=0, control=64, value=97, time=15),\n",
       "    Message('note_off', channel=0, note=69, velocity=60, time=9),\n",
       "    Message('control_change', channel=0, control=64, value=127, time=6),\n",
       "    Message('note_on', channel=0, note=64, velocity=74, time=87),\n",
       "    Message('note_off', channel=0, note=61, velocity=62, time=7),\n",
       "    Message('note_on', channel=0, note=69, velocity=78, time=79),\n",
       "    Message('note_off', channel=0, note=64, velocity=60, time=6),\n",
       "    Message('note_off', channel=0, note=55, velocity=59, time=67),\n",
       "    Message('note_on', channel=0, note=74, velocity=94, time=28),\n",
       "    Message('note_on', channel=0, note=53, velocity=72, time=3),\n",
       "    Message('note_off', channel=0, note=69, velocity=62, time=23),\n",
       "    Message('note_on', channel=0, note=62, velocity=84, time=80),\n",
       "    Message('note_off', channel=0, note=74, velocity=39, time=39),\n",
       "    Message('note_on', channel=0, note=69, velocity=81, time=37),\n",
       "    Message('note_off', channel=0, note=62, velocity=60, time=33),\n",
       "    Message('note_off', channel=0, note=53, velocity=60, time=22),\n",
       "    Message('note_on', channel=0, note=54, velocity=72, time=9),\n",
       "    Message('note_on', channel=0, note=72, velocity=90, time=15),\n",
       "    Message('note_off', channel=0, note=69, velocity=64, time=3),\n",
       "    Message('note_off', channel=0, note=54, velocity=67, time=12),\n",
       "    Message('note_on', channel=0, note=57, velocity=91, time=43),\n",
       "    Message('note_on', channel=0, note=70, velocity=95, time=20),\n",
       "    Message('note_off', channel=0, note=72, velocity=65, time=26),\n",
       "    Message('note_on', channel=0, note=61, velocity=79, time=69),\n",
       "    Message('note_off', channel=0, note=70, velocity=60, time=20),\n",
       "    Message('note_off', channel=0, note=61, velocity=63, time=54),\n",
       "    Message('note_on', channel=0, note=64, velocity=79, time=3),\n",
       "    Message('note_off', channel=0, note=57, velocity=57, time=23),\n",
       "    Message('note_on', channel=0, note=55, velocity=82, time=19),\n",
       "    Message('note_on', channel=0, note=69, velocity=79, time=24),\n",
       "    Message('control_change', channel=0, control=64, value=86, time=9),\n",
       "    Message('note_off', channel=0, note=64, velocity=62, time=9),\n",
       "    Message('control_change', channel=0, control=64, value=63, time=5),\n",
       "    Message('control_change', channel=0, control=64, value=0, time=15),\n",
       "    Message('note_off', channel=0, note=55, velocity=62, time=19),\n",
       "    Message('note_on', channel=0, note=53, velocity=78, time=11),\n",
       "    Message('note_on', channel=0, note=74, velocity=88, time=8),\n",
       "    Message('control_change', channel=0, control=64, value=53, time=7),\n",
       "    Message('control_change', channel=0, control=64, value=67, time=15),\n",
       "    Message('note_off', channel=0, note=69, velocity=61, time=8),\n",
       "    Message('control_change', channel=0, control=64, value=85, time=7),\n",
       "    Message('control_change', channel=0, control=64, value=127, time=15),\n",
       "    Message('note_on', channel=0, note=62, velocity=86, time=15),\n",
       "    Message('note_off', channel=0, note=74, velocity=62, time=28),\n",
       "    Message('note_on', channel=0, note=69, velocity=77, time=49),\n",
       "    Message('note_off', channel=0, note=53, velocity=60, time=28),\n",
       "    Message('note_off', channel=0, note=62, velocity=60, time=2),\n",
       "    Message('note_on', channel=0, note=54, velocity=74, time=3),\n",
       "    Message('note_off', channel=0, note=54, velocity=68, time=29),\n",
       "    Message('note_on', channel=0, note=72, velocity=90, time=13),\n",
       "    Message('note_off', channel=0, note=69, velocity=65, time=6),\n",
       "    Message('control_change', channel=0, control=64, value=80, time=4),\n",
       "    Message('control_change', channel=0, control=64, value=51, time=15),\n",
       "    Message('control_change', channel=0, control=64, value=0, time=15),\n",
       "    Message('note_on', channel=0, note=57, velocity=87, time=2),\n",
       "    Message('note_on', channel=0, note=70, velocity=89, time=24),\n",
       "    Message('control_change', channel=0, control=64, value=63, time=18),\n",
       "    Message('note_off', channel=0, note=72, velocity=65, time=13),\n",
       "    Message('control_change', channel=0, control=64, value=79, time=2),\n",
       "    Message('control_change', channel=0, control=64, value=127, time=15),\n",
       "    Message('note_on', channel=0, note=61, velocity=82, time=38),\n",
       "    Message('note_off', channel=0, note=70, velocity=62, time=57),\n",
       "    Message('note_on', channel=0, note=64, velocity=76, time=19),\n",
       "    Message('note_off', channel=0, note=61, velocity=63, time=0),\n",
       "    Message('note_off', channel=0, note=57, velocity=56, time=22),\n",
       "    Message('note_on', channel=0, note=55, velocity=68, time=28),\n",
       "    Message('note_on', channel=0, note=69, velocity=78, time=24),\n",
       "    Message('note_off', channel=0, note=64, velocity=61, time=10),\n",
       "    Message('control_change', channel=0, control=64, value=78, time=25),\n",
       "    Message('note_off', channel=0, note=55, velocity=60, time=8),\n",
       "    Message('control_change', channel=0, control=64, value=50, time=6),\n",
       "    Message('control_change', channel=0, control=64, value=0, time=15),\n",
       "    Message('note_on', channel=0, note=53, velocity=58, time=18),\n",
       "    Message('note_on', channel=0, note=74, velocity=81, time=10),\n",
       "    Message('note_off', channel=0, note=69, velocity=61, time=20),\n",
       "    Message('control_change', channel=0, control=64, value=57, time=48),\n",
       "    Message('note_on', channel=0, note=62, velocity=71, time=14),\n",
       "    Message('control_change', channel=0, control=64, value=69, time=1),\n",
       "    Message('note_off', channel=0, note=74, velocity=59, time=9),\n",
       "    Message('control_change', channel=0, control=64, value=92, time=6),\n",
       "    Message('control_change', channel=0, control=64, value=127, time=15),\n",
       "    Message('note_on', channel=0, note=69, velocity=66, time=47),\n",
       "    Message('note_off', channel=0, note=62, velocity=56, time=13),\n",
       "    Message('note_off', channel=0, note=53, velocity=52, time=5),\n",
       "    Message('note_on', channel=0, note=54, velocity=53, time=46),\n",
       "    Message('note_off', channel=0, note=54, velocity=58, time=25),\n",
       "    Message('note_off', channel=0, note=69, velocity=62, time=2),\n",
       "    Message('note_on', channel=0, note=72, velocity=71, time=2),\n",
       "    Message('control_change', channel=0, control=64, value=74, time=9),\n",
       "    Message('control_change', channel=0, control=64, value=0, time=15),\n",
       "    Message('control_change', channel=0, control=64, value=22, time=44),\n",
       "    Message('note_on', channel=0, note=55, velocity=57, time=7),\n",
       "    Message('note_on', channel=0, note=70, velocity=72, time=0),\n",
       "    Message('control_change', channel=0, control=64, value=66, time=8),\n",
       "    Message('note_off', channel=0, note=72, velocity=64, time=12),\n",
       "    Message('control_change', channel=0, control=64, value=85, time=3),\n",
       "    Message('control_change', channel=0, control=64, value=127, time=15),\n",
       "    Message('note_off', channel=0, note=70, velocity=63, time=42),\n",
       "    Message('note_on', channel=0, note=62, velocity=64, time=16),\n",
       "    Message('note_on', channel=0, note=64, velocity=62, time=101),\n",
       "    Message('note_off', channel=0, note=62, velocity=59, time=3),\n",
       "    Message('note_off', channel=0, note=55, velocity=54, time=5),\n",
       "    Message('note_on', channel=0, note=67, velocity=64, time=92),\n",
       "    Message('note_off', channel=0, note=64, velocity=59, time=3),\n",
       "    Message('note_on', channel=0, note=58, velocity=54, time=6),\n",
       "    Message('control_change', channel=0, control=64, value=84, time=72),\n",
       "    Message('note_off', channel=0, note=58, velocity=59, time=3),\n",
       "    Message('control_change', channel=0, control=64, value=64, time=12),\n",
       "    Message('note_on', channel=0, note=57, velocity=63, time=21),\n",
       "    Message('control_change', channel=0, control=64, value=0, time=2),\n",
       "    Message('note_on', channel=0, note=69, velocity=63, time=11),\n",
       "    Message('control_change', channel=0, control=64, value=51, time=33),\n",
       "    Message('note_off', channel=0, note=67, velocity=58, time=4),\n",
       "    Message('control_change', channel=0, control=64, value=65, time=11),\n",
       "    Message('control_change', channel=0, control=64, value=76, time=15),\n",
       "    Message('control_change', channel=0, control=64, value=127, time=14),\n",
       "    Message('note_on', channel=0, note=61, velocity=63, time=35),\n",
       "    Message('note_off', channel=0, note=69, velocity=57, time=35),\n",
       "    Message('control_change', channel=0, control=64, value=87, time=63),\n",
       "    Message('note_on', channel=0, note=64, velocity=53, time=11),\n",
       "    Message('control_change', channel=0, control=64, value=69, time=6),\n",
       "    Message('control_change', channel=0, control=64, value=67, time=15),\n",
       "    Message('control_change', channel=0, control=64, value=73, time=14),\n",
       "    Message('control_change', channel=0, control=64, value=92, time=15),\n",
       "    Message('control_change', channel=0, control=64, value=127, time=15),\n",
       "    Message('note_off', channel=0, note=57, velocity=38, time=12),\n",
       "    Message('note_on', channel=0, note=45, velocity=55, time=22),\n",
       "    Message('note_on', channel=0, note=69, velocity=61, time=5),\n",
       "    Message('note_off', channel=0, note=64, velocity=61, time=12),\n",
       "    Message('note_off', channel=0, note=69, velocity=67, time=16),\n",
       "    Message('note_off', channel=0, note=61, velocity=63, time=38),\n",
       "    Message('note_on', channel=0, note=50, velocity=52, time=162),\n",
       "    Message('note_on', channel=0, note=62, velocity=69, time=32),\n",
       "    Message('note_off', channel=0, note=45, velocity=38, time=1),\n",
       "    Message('control_change', channel=0, control=64, value=119, time=11),\n",
       "    Message('control_change', channel=0, control=64, value=95, time=15),\n",
       "    Message('control_change', channel=0, control=64, value=83, time=14),\n",
       "    Message('control_change', channel=0, control=64, value=72, time=15),\n",
       "    Message('control_change', channel=0, control=64, value=63, time=15),\n",
       "    Message('control_change', channel=0, control=64, value=0, time=15),\n",
       "    Message('note_on', channel=0, note=54, velocity=46, time=107),\n",
       "    Message('control_change', channel=0, control=64, value=61, time=4),\n",
       "    Message('control_change', channel=0, control=64, value=66, time=15),\n",
       "    Message('control_change', channel=0, control=64, value=70, time=15),\n",
       "    Message('control_change', channel=0, control=64, value=78, time=14),\n",
       "    Message('control_change', channel=0, control=64, value=98, time=15),\n",
       "    Message('control_change', channel=0, control=64, value=127, time=15),\n",
       "    Message('note_on', channel=0, note=57, velocity=57, time=28),\n",
       "    Message('note_off', channel=0, note=50, velocity=51, time=54),\n",
       "    Message('note_on', channel=0, note=48, velocity=43, time=12),\n",
       "    Message('note_off', channel=0, note=62, velocity=57, time=4),\n",
       "    Message('note_on', channel=0, note=60, velocity=59, time=19),\n",
       "    Message('note_off', channel=0, note=57, velocity=59, time=3),\n",
       "    Message('note_off', channel=0, note=48, velocity=50, time=70),\n",
       "    Message('note_off', channel=0, note=54, velocity=52, time=2),\n",
       "    Message('note_on', channel=0, note=46, velocity=47, time=30),\n",
       "    Message('control_change', channel=0, control=64, value=88, time=1),\n",
       "    Message('note_on', channel=0, note=58, velocity=68, time=1),\n",
       "    Message('control_change', channel=0, control=64, value=64, time=14),\n",
       "    Message('control_change', channel=0, control=64, value=0, time=15),\n",
       "    Message('note_off', channel=0, note=60, velocity=62, time=7),\n",
       "    Message('control_change', channel=0, control=64, value=65, time=52),\n",
       "    Message('control_change', channel=0, control=64, value=75, time=15),\n",
       "    Message('control_change', channel=0, control=64, value=107, time=14),\n",
       "    Message('control_change', channel=0, control=64, value=127, time=15),\n",
       "    Message('note_on', channel=0, note=50, velocity=55, time=21),\n",
       "    Message('note_off', channel=0, note=58, velocity=31, time=87),\n",
       "    Message('note_on', channel=0, note=54, velocity=53, time=23),\n",
       "    Message('note_off', channel=0, note=46, velocity=57, time=5),\n",
       "    Message('note_off', channel=0, note=50, velocity=35, time=29),\n",
       "    Message('note_off', channel=0, note=54, velocity=59, time=66),\n",
       "    Message('note_on', channel=0, note=57, velocity=60, time=46),\n",
       "    Message('note_on', channel=0, note=45, velocity=48, time=3),\n",
       "    Message('note_off', channel=0, note=45, velocity=58, time=45),\n",
       "    Message('note_on', channel=0, note=31, velocity=42, time=225),\n",
       "    Message('note_on', channel=0, note=43, velocity=37, time=7),\n",
       "    Message('control_change', channel=0, control=64, value=115, time=27),\n",
       "    Message('control_change', channel=0, control=64, value=103, time=15),\n",
       "    Message('note_off', channel=0, note=57, velocity=31, time=6),\n",
       "    Message('control_change', channel=0, control=64, value=95, time=10),\n",
       "    Message('note_on', channel=0, note=63, velocity=63, time=2),\n",
       "    Message('control_change', channel=0, control=64, value=88, time=13),\n",
       "    Message('control_change', channel=0, control=64, value=81, time=15),\n",
       "    Message('control_change', channel=0, control=64, value=76, time=14),\n",
       "    Message('control_change', channel=0, control=64, value=71, time=15),\n",
       "    Message('control_change', channel=0, control=64, value=67, time=15),\n",
       "    Message('control_change', channel=0, control=64, value=63, time=15),\n",
       "    Message('control_change', channel=0, control=64, value=53, time=15),\n",
       "    Message('control_change', channel=0, control=64, value=0, time=14),\n",
       "    Message('note_on', channel=0, note=51, velocity=38, time=116),\n",
       "    Message('control_change', channel=0, control=64, value=40, time=3),\n",
       "    Message('control_change', channel=0, control=64, value=59, time=15),\n",
       "    Message('control_change', channel=0, control=64, value=64, time=15),\n",
       "    Message('control_change', channel=0, control=64, value=66, time=15),\n",
       "    Message('control_change', channel=0, control=64, value=68, time=15),\n",
       "    Message('control_change', channel=0, control=64, value=71, time=15),\n",
       "    Message('note_off', channel=0, note=63, velocity=54, time=4),\n",
       "    Message('control_change', channel=0, control=64, value=78, time=10),\n",
       "    Message('control_change', channel=0, control=64, value=92, time=15),\n",
       "    Message('control_change', channel=0, control=64, value=127, time=15),\n",
       "    Message('note_on', channel=0, note=58, velocity=46, time=8),\n",
       "    Message('note_off', channel=0, note=51, velocity=50, time=12),\n",
       "    Message('note_off', channel=0, note=58, velocity=58, time=43),\n",
       "    Message('note_on', channel=0, note=62, velocity=57, time=22),\n",
       "    Message('note_off', channel=0, note=62, velocity=56, time=94),\n",
       "    Message('note_on', channel=0, note=60, velocity=57, time=4),\n",
       "    Message('note_off', channel=0, note=31, velocity=43, time=77),\n",
       "    Message('note_on', channel=0, note=51, velocity=54, time=8),\n",
       "    Message('note_off', channel=0, note=43, velocity=38, time=0),\n",
       "    Message('note_off', channel=0, note=60, velocity=49, time=13),\n",
       "    Message('note_off', channel=0, note=51, velocity=57, time=50),\n",
       "    Message('note_on', channel=0, note=57, velocity=61, time=3),\n",
       "    Message('note_off', channel=0, note=57, velocity=62, time=75),\n",
       "    Message('note_on', channel=0, note=60, velocity=61, time=1),\n",
       "    Message('note_off', channel=0, note=60, velocity=65, time=35),\n",
       "    Message('note_on', channel=0, note=45, velocity=55, time=49),\n",
       "    Message('note_on', channel=0, note=33, velocity=48, time=2),\n",
       "    Message('control_change', channel=0, control=64, value=88, time=45),\n",
       "    Message('control_change', channel=0, control=64, value=69, time=15),\n",
       "    Message('control_change', channel=0, control=64, value=56, time=15),\n",
       "    Message('note_on', channel=0, note=63, velocity=73, time=2),\n",
       "    Message('control_change', channel=0, control=64, value=0, time=12),\n",
       "    Message('control_change', channel=0, control=64, value=44, time=15),\n",
       "    Message('control_change', channel=0, control=64, value=62, time=15),\n",
       "    Message('control_change', channel=0, control=64, value=67, time=15),\n",
       "    Message('control_change', channel=0, control=64, value=76, time=14),\n",
       "    Message('control_change', channel=0, control=64, value=109, time=15),\n",
       "    Message('note_off', channel=0, note=45, velocity=60, time=10),\n",
       "    Message('control_change', channel=0, control=64, value=127, time=5),\n",
       "    Message('note_off', channel=0, note=33, velocity=50, time=8),\n",
       "    Message('note_on', channel=0, note=69, velocity=69, time=4),\n",
       "    Message('note_off', channel=0, note=63, velocity=57, time=43),\n",
       "    Message('note_on', channel=0, note=72, velocity=74, time=62),\n",
       "    Message('note_off', channel=0, note=69, velocity=54, time=24),\n",
       "    Message('note_on', channel=0, note=31, velocity=50, time=32),\n",
       "    Message('note_on', channel=0, note=43, velocity=38, time=3),\n",
       "    Message('note_on', channel=0, note=75, velocity=79, time=21),\n",
       "    Message('note_off', channel=0, note=31, velocity=59, time=13),\n",
       "    Message('note_off', channel=0, note=43, velocity=52, time=1),\n",
       "    Message('note_off', channel=0, note=72, velocity=58, time=12),\n",
       "    Message('note_off', channel=0, note=75, velocity=61, time=83),\n",
       "    Message('note_on', channel=0, note=42, velocity=57, time=22),\n",
       "    Message('note_on', channel=0, note=30, velocity=55, time=3),\n",
       "    Message('control_change', channel=0, control=64, value=100, time=3),\n",
       "    Message('control_change', channel=0, control=64, value=80, time=15),\n",
       "    Message('note_on', channel=0, note=74, velocity=78, time=11),\n",
       "    Message('control_change', channel=0, control=64, value=67, time=4),\n",
       "    Message('control_change', channel=0, control=64, value=53, time=15),\n",
       "    Message('control_change', channel=0, control=64, value=0, time=15),\n",
       "    Message('control_change', channel=0, control=64, value=33, time=59),\n",
       "    Message('control_change', channel=0, control=64, value=63, time=15),\n",
       "    Message('control_change', channel=0, control=64, value=67, time=15),\n",
       "    Message('note_on', channel=0, note=62, velocity=55, time=7),\n",
       "    Message('control_change', channel=0, control=64, value=75, time=8),\n",
       "    Message('control_change', channel=0, control=64, value=113, time=14),\n",
       "    Message('note_off', channel=0, note=30, velocity=59, time=15),\n",
       "    Message('control_change', channel=0, control=64, value=127, time=0),\n",
       "    Message('note_off', channel=0, note=74, velocity=60, time=5),\n",
       "    Message('note_on', channel=0, note=69, velocity=62, time=26),\n",
       "    Message('note_off', channel=0, note=42, velocity=62, time=26),\n",
       "    Message('note_off', channel=0, note=62, velocity=56, time=9),\n",
       "    Message('note_off', channel=0, note=69, velocity=62, time=33),\n",
       "    Message('note_on', channel=0, note=72, velocity=76, time=8),\n",
       "    Message('control_change', channel=0, control=64, value=96, time=72),\n",
       "    Message('note_off', channel=0, note=72, velocity=65, time=4),\n",
       "    Message('note_on', channel=0, note=70, velocity=73, time=3),\n",
       "    Message('note_on', channel=0, note=45, velocity=58, time=1),\n",
       "    Message('control_change', channel=0, control=64, value=70, time=7),\n",
       "    Message('note_on', channel=0, note=33, velocity=55, time=1),\n",
       "    Message('control_change', channel=0, control=64, value=47, time=13),\n",
       "    Message('control_change', channel=0, control=64, value=0, time=15),\n",
       "    Message('control_change', channel=0, control=64, value=28, time=30),\n",
       "    Message('note_on', channel=0, note=62, velocity=71, time=4),\n",
       "    Message('note_off', channel=0, note=70, velocity=60, time=9),\n",
       "    Message('control_change', channel=0, control=64, value=63, time=1),\n",
       "    Message('control_change', channel=0, control=64, value=68, time=15),\n",
       "    Message('control_change', channel=0, control=64, value=77, time=15),\n",
       "    Message('control_change', channel=0, control=64, value=127, time=15),\n",
       "    Message('note_off', channel=0, note=33, velocity=60, time=27),\n",
       "    Message('note_on', channel=0, note=67, velocity=65, time=3),\n",
       "    Message('note_off', channel=0, note=62, velocity=62, time=1),\n",
       "    Message('note_off', channel=0, note=45, velocity=47, time=13),\n",
       "    Message('note_off', channel=0, note=67, velocity=63, time=56),\n",
       "    Message('note_on', channel=0, note=70, velocity=65, time=5),\n",
       "    Message('note_off', channel=0, note=70, velocity=64, time=38),\n",
       "    Message('note_on', channel=0, note=31, velocity=53, time=73),\n",
       "    Message('note_on', channel=0, note=43, velocity=53, time=0),\n",
       "    Message('note_on', channel=0, note=74, velocity=59, time=2),\n",
       "    Message('control_change', channel=0, control=64, value=84, time=11),\n",
       "    Message('control_change', channel=0, control=64, value=65, time=15),\n",
       "    Message('control_change', channel=0, control=64, value=0, time=15),\n",
       "    Message('note_on', channel=0, note=79, velocity=69, time=46),\n",
       "    Message('control_change', channel=0, control=64, value=63, time=28),\n",
       "    Message('control_change', channel=0, control=64, value=71, time=15),\n",
       "    Message('note_off', channel=0, note=43, velocity=60, time=7),\n",
       "    Message('control_change', channel=0, control=64, value=91, time=8),\n",
       "    Message('control_change', channel=0, control=64, value=127, time=14),\n",
       "    Message('note_off', channel=0, note=31, velocity=60, time=13),\n",
       "    Message('note_off', channel=0, note=79, velocity=61, time=6),\n",
       "    Message('note_on', channel=0, note=82, velocity=66, time=2),\n",
       "    Message('note_off', channel=0, note=82, velocity=63, time=81),\n",
       "    Message('note_on', channel=0, note=86, velocity=66, time=9),\n",
       "    Message('note_off', channel=0, note=86, velocity=66, time=27),\n",
       "    Message('note_off', channel=0, note=74, velocity=49, time=42),\n",
       "    Message('note_on', channel=0, note=27, velocity=49, time=141),\n",
       "    Message('note_on', channel=0, note=39, velocity=48, time=13),\n",
       "    Message('note_on', channel=0, note=60, velocity=74, time=46),\n",
       "    Message('control_change', channel=0, control=64, value=92, time=87),\n",
       "    Message('control_change', channel=0, control=64, value=65, time=14),\n",
       "    Message('control_change', channel=0, control=64, value=0, time=15),\n",
       "    Message('control_change', channel=0, control=64, value=54, time=44),\n",
       "    Message('control_change', channel=0, control=64, value=65, time=15),\n",
       "    Message('control_change', channel=0, control=64, value=70, time=15),\n",
       "    Message('control_change', channel=0, control=64, value=83, time=15),\n",
       "    Message('note_on', channel=0, note=48, velocity=56, time=3),\n",
       "    Message('control_change', channel=0, control=64, value=127, time=12),\n",
       "    Message('note_off', channel=0, note=60, velocity=38, time=44),\n",
       "    Message('note_off', channel=0, note=48, velocity=57, time=24),\n",
       "    Message('note_on', channel=0, note=55, velocity=61, time=1),\n",
       "    Message('note_on', channel=0, note=58, velocity=66, time=61),\n",
       "    Message('note_off', channel=0, note=55, velocity=58, time=20),\n",
       "    Message('note_on', channel=0, note=57, velocity=78, time=54),\n",
       "    Message('note_off', channel=0, note=27, velocity=36, time=1),\n",
       "    Message('note_off', channel=0, note=58, velocity=39, time=38),\n",
       "    Message('note_off', channel=0, note=39, velocity=57, time=20),\n",
       "    Message('note_off', channel=0, note=57, velocity=57, time=26),\n",
       "    Message('note_on', channel=0, note=48, velocity=69, time=1),\n",
       "    Message('note_off', channel=0, note=48, velocity=66, time=30),\n",
       "    Message('note_on', channel=0, note=53, velocity=75, time=41),\n",
       "    Message('note_on', channel=0, note=57, velocity=79, time=63),\n",
       "    Message('note_off', channel=0, note=53, velocity=61, time=9),\n",
       "    Message('control_change', channel=0, control=64, value=76, time=27),\n",
       "    Message('note_off', channel=0, note=57, velocity=64, time=9),\n",
       "    Message('control_change', channel=0, control=64, value=44, time=6),\n",
       "    Message('control_change', channel=0, control=64, value=0, time=14),\n",
       "    Message('note_on', channel=0, note=41, velocity=69, time=2),\n",
       "    Message('note_on', channel=0, note=29, velocity=59, time=4),\n",
       "    Message('note_on', channel=0, note=60, velocity=82, time=23),\n",
       "    Message('control_change', channel=0, control=64, value=64, time=38),\n",
       "    Message('control_change', channel=0, control=64, value=69, time=15),\n",
       "    Message('control_change', channel=0, control=64, value=79, time=15),\n",
       "    Message('note_off', channel=0, note=41, velocity=63, time=7),\n",
       "    Message('note_off', channel=0, note=29, velocity=63, time=6),\n",
       "    Message('control_change', channel=0, control=64, value=127, time=2),\n",
       "    Message('note_on', channel=0, note=65, velocity=76, time=6),\n",
       "    Message('note_on', channel=0, note=69, velocity=78, time=70),\n",
       "    Message('note_off', channel=0, note=65, velocity=64, time=20),\n",
       "    Message('note_on', channel=0, note=27, velocity=63, time=36),\n",
       "    Message('note_on', channel=0, note=39, velocity=57, time=9),\n",
       "    Message('note_off', channel=0, note=69, velocity=64, time=29),\n",
       "    Message('note_on', channel=0, note=72, velocity=81, time=1),\n",
       "    Message('note_off', channel=0, note=27, velocity=60, time=24),\n",
       "    Message('note_off', channel=0, note=39, velocity=55, time=32),\n",
       "    Message('note_off', channel=0, note=60, velocity=54, time=54),\n",
       "    Message('control_change', channel=0, control=64, value=100, time=0),\n",
       "    Message('note_on', channel=0, note=38, velocity=64, time=5),\n",
       "    Message('note_on', channel=0, note=26, velocity=60, time=1),\n",
       "    Message('control_change', channel=0, control=64, value=75, time=9),\n",
       "    Message('control_change', channel=0, control=64, value=56, time=15),\n",
       "    Message('control_change', channel=0, control=64, value=0, time=15),\n",
       "    Message('note_on', channel=0, note=70, velocity=80, time=7),\n",
       "    Message('note_off', channel=0, note=72, velocity=65, time=29),\n",
       "    Message('control_change', channel=0, control=64, value=36, time=38),\n",
       "    Message('control_change', channel=0, control=64, value=66, time=14),\n",
       "    Message('control_change', channel=0, control=64, value=78, time=15),\n",
       "    Message('note_off', channel=0, note=26, velocity=52, time=13),\n",
       "    Message('control_change', channel=0, control=64, value=127, time=2),\n",
       "    Message('note_on', channel=0, note=58, velocity=59, time=24),\n",
       "    Message('note_off', channel=0, note=70, velocity=56, time=40),\n",
       "    Message('note_off', channel=0, note=38, velocity=55, time=12),\n",
       "    Message('note_on', channel=0, note=65, velocity=62, time=25),\n",
       "    Message('note_off', channel=0, note=58, velocity=60, time=3),\n",
       "    Message('note_on', channel=0, note=69, velocity=71, time=65),\n",
       "    Message('note_off', channel=0, note=65, velocity=63, time=17),\n",
       "    Message('control_change', channel=0, control=64, value=78, time=37),\n",
       "    Message('control_change', channel=0, control=64, value=54, time=15),\n",
       "    Message('note_on', channel=0, note=41, velocity=65, time=17),\n",
       "    Message('note_on', channel=0, note=29, velocity=54, time=2),\n",
       "    Message('control_change', channel=0, control=64, value=0, time=3),\n",
       "    Message('note_on', channel=0, note=67, velocity=78, time=8),\n",
       "    Message('note_off', channel=0, note=69, velocity=64, time=16),\n",
       "    Message('control_change', channel=0, control=64, value=17, time=21),\n",
       "    Message('control_change', channel=0, control=64, value=64, time=15),\n",
       "    Message('control_change', channel=0, control=64, value=72, time=14),\n",
       "    Message('note_on', channel=0, note=58, velocity=68, time=5),\n",
       "    Message('control_change', channel=0, control=64, value=101, time=10),\n",
       "    Message('note_off', channel=0, note=29, velocity=60, time=11),\n",
       "    Message('control_change', channel=0, control=64, value=127, time=4),\n",
       "    Message('note_off', channel=0, note=41, velocity=62, time=2),\n",
       "    Message('note_off', channel=0, note=67, velocity=47, time=14),\n",
       "    Message('note_on', channel=0, note=63, velocity=76, time=32),\n",
       "    Message('note_off', channel=0, note=58, velocity=61, time=10),\n",
       "    Message('note_on', channel=0, note=67, velocity=70, time=66),\n",
       "    Message('note_off', channel=0, note=63, velocity=62, time=7),\n",
       "    Message('note_off', channel=0, note=67, velocity=68, time=20),\n",
       "    Message('note_on', channel=0, note=27, velocity=57, time=73),\n",
       "    Message('note_on', channel=0, note=39, velocity=54, time=6),\n",
       "    Message('control_change', channel=0, control=64, value=99, time=21),\n",
       "    Message('note_on', channel=0, note=70, velocity=75, time=1),\n",
       "    Message('control_change', channel=0, control=64, value=68, time=14),\n",
       "    Message('control_change', channel=0, control=64, value=0, time=15),\n",
       "    Message('note_on', channel=0, note=75, velocity=68, time=48),\n",
       "    Message('control_change', channel=0, control=64, value=63, time=26),\n",
       "    Message('control_change', channel=0, control=64, value=78, time=15),\n",
       "    Message('control_change', channel=0, control=64, value=127, time=15),\n",
       "    Message('note_on', channel=0, note=79, velocity=76, time=26),\n",
       "    Message('note_off', channel=0, note=75, velocity=62, time=1),\n",
       "    Message('note_off', channel=0, note=39, velocity=55, time=11),\n",
       "    Message('note_off', channel=0, note=27, velocity=59, time=10),\n",
       "    Message('note_on', channel=0, note=82, velocity=73, time=62),\n",
       "    Message('note_off', channel=0, note=79, velocity=61, time=18),\n",
       "    Message('note_off', channel=0, note=82, velocity=68, time=4),\n",
       "    Message('note_off', channel=0, note=70, velocity=64, time=23),\n",
       "    Message('note_on', channel=0, note=36, velocity=58, time=117),\n",
       "    Message('note_on', channel=0, note=24, velocity=57, time=4),\n",
       "    Message('note_on', channel=0, note=57, velocity=81, time=39),\n",
       "    Message('control_change', channel=0, control=64, value=81, time=79),\n",
       "    Message('control_change', channel=0, control=64, value=65, time=14),\n",
       "    Message('control_change', channel=0, control=64, value=0, time=15),\n",
       "    Message('note_on', channel=0, note=45, velocity=65, time=58),\n",
       "    Message('note_off', channel=0, note=57, velocity=60, time=47),\n",
       "    Message('note_on', channel=0, note=51, velocity=70, time=25),\n",
       "    Message('control_change', channel=0, control=64, value=56, time=4),\n",
       "    Message('control_change', channel=0, control=64, value=65, time=15),\n",
       "    Message('control_change', channel=0, control=64, value=71, time=15),\n",
       "    Message('control_change', channel=0, control=64, value=84, time=14),\n",
       "    Message('control_change', channel=0, control=64, value=127, time=15),\n",
       "    Message('note_off', channel=0, note=45, velocity=39, time=4),\n",
       "    Message('note_on', channel=0, note=55, velocity=78, time=4),\n",
       "    Message('note_off', channel=0, note=51, velocity=63, time=23),\n",
       "    Message('note_on', channel=0, note=54, velocity=82, time=49),\n",
       "    Message('note_off', channel=0, note=55, velocity=62, time=22),\n",
       "    Message('note_on', channel=0, note=45, velocity=65, time=53),\n",
       "    Message('note_off', channel=0, note=54, velocity=59, time=19),\n",
       "    Message('note_off', channel=0, note=24, velocity=45, time=17),\n",
       "    Message('note_on', channel=0, note=50, velocity=75, time=34),\n",
       "    Message('note_off', channel=0, note=45, velocity=61, time=11),\n",
       "    Message('note_off', channel=0, note=36, velocity=56, time=1),\n",
       "    Message('note_off', channel=0, note=50, velocity=62, time=56),\n",
       "    Message('note_on', channel=0, note=54, velocity=73, time=1),\n",
       "    Message('note_off', channel=0, note=54, velocity=65, time=27),\n",
       "    Message('control_change', channel=0, control=64, value=62, time=35),\n",
       "    Message('note_on', channel=0, note=38, velocity=78, time=5),\n",
       "    Message('note_on', channel=0, note=26, velocity=73, time=4),\n",
       "    Message('control_change', channel=0, control=64, value=0, time=6),\n",
       "    Message('note_on', channel=0, note=57, velocity=87, time=2),\n",
       "    Message('control_change', channel=0, control=64, value=61, time=80),\n",
       "    Message('note_on', channel=0, note=62, velocity=82, time=3),\n",
       "    Message('note_off', channel=0, note=26, velocity=61, time=9),\n",
       "    Message('control_change', channel=0, control=64, value=71, time=3),\n",
       "    Message('note_off', channel=0, note=57, velocity=63, time=7),\n",
       "    Message('control_change', channel=0, control=64, value=91, time=7),\n",
       "    Message('control_change', channel=0, control=64, value=127, time=15),\n",
       "    Message('note_off', channel=0, note=38, velocity=62, time=5),\n",
       "    Message('note_on', channel=0, note=66, velocity=82, time=22),\n",
       "    Message('note_off', channel=0, note=62, velocity=63, time=28),\n",
       "    Message('note_on', channel=0, note=40, velocity=75, time=25),\n",
       "    Message('note_on', channel=0, note=28, velocity=69, time=3),\n",
       "    Message('note_on', channel=0, note=69, velocity=80, time=13),\n",
       "    Message('note_off', channel=0, note=40, velocity=64, time=11),\n",
       "    Message('note_off', channel=0, note=66, velocity=65, time=0),\n",
       "    Message('note_off', channel=0, note=28, velocity=61, time=6),\n",
       "    Message('note_off', channel=0, note=69, velocity=67, time=23),\n",
       "    Message('control_change', channel=0, control=64, value=107, time=146),\n",
       "    Message('note_on', channel=0, note=30, velocity=74, time=10),\n",
       "    Message('note_on', channel=0, note=42, velocity=70, time=1),\n",
       "    Message('control_change', channel=0, control=64, value=72, time=4),\n",
       "    Message('control_change', channel=0, control=64, value=13, time=14),\n",
       "    Message('note_on', channel=0, note=74, velocity=91, time=4),\n",
       "    Message('control_change', channel=0, control=64, value=0, time=11),\n",
       "    Message('control_change', channel=0, control=64, value=55, time=89),\n",
       "    Message('control_change', channel=0, control=64, value=72, time=14),\n",
       "    Message('control_change', channel=0, control=64, value=127, time=15),\n",
       "    Message('note_off', channel=0, note=74, velocity=58, time=5),\n",
       "    Message('note_on', channel=0, note=62, velocity=75, time=14),\n",
       "    Message('note_off', channel=0, note=30, velocity=59, time=19),\n",
       "    Message('note_on', channel=0, note=69, velocity=77, time=51),\n",
       "    Message('note_off', channel=0, note=42, velocity=61, time=5),\n",
       "    Message('note_off', channel=0, note=62, velocity=62, time=0),\n",
       "    Message('note_on', channel=0, note=72, velocity=89, time=59),\n",
       "    Message('note_off', channel=0, note=69, velocity=64, time=4),\n",
       "    Message('control_change', channel=0, control=64, value=81, time=44),\n",
       "    Message('note_on', channel=0, note=45, velocity=91, time=14),\n",
       "    Message('control_change', channel=0, control=64, value=36, time=0),\n",
       "    Message('note_on', channel=0, note=33, velocity=78, time=5),\n",
       "    Message('note_on', channel=0, note=70, velocity=86, time=6),\n",
       "    Message('control_change', channel=0, control=64, value=0, time=4),\n",
       "    Message('note_off', channel=0, note=72, velocity=65, time=24),\n",
       "    Message('control_change', channel=0, control=64, value=22, time=21),\n",
       "    Message('note_on', channel=0, note=62, velocity=85, time=11),\n",
       "    Message('control_change', channel=0, control=64, value=68, time=3),\n",
       "    Message('control_change', channel=0, control=64, value=108, time=15),\n",
       "    Message('note_off', channel=0, note=70, velocity=63, time=11),\n",
       "    Message('control_change', channel=0, control=64, value=127, time=4),\n",
       "    Message('note_off', channel=0, note=33, velocity=58, time=26),\n",
       "    Message('note_off', channel=0, note=45, velocity=63, time=9),\n",
       "    Message('note_on', channel=0, note=67, velocity=86, time=1),\n",
       "    Message('note_off', channel=0, note=62, velocity=65, time=8),\n",
       "    Message('note_on', channel=0, note=70, velocity=84, time=65),\n",
       "    Message('note_off', channel=0, note=67, velocity=64, time=15),\n",
       "    Message('note_off', channel=0, note=70, velocity=65, time=30),\n",
       "    Message('control_change', channel=0, control=64, value=73, time=24),\n",
       "    Message('note_on', channel=0, note=43, velocity=86, time=9),\n",
       "    Message('note_on', channel=0, note=31, velocity=82, time=3),\n",
       "    Message('control_change', channel=0, control=64, value=0, time=3),\n",
       "    Message('note_on', channel=0, note=74, velocity=99, time=3),\n",
       "    Message('control_change', channel=0, control=64, value=65, time=71),\n",
       "    Message('note_on', channel=0, note=79, velocity=89, time=0),\n",
       "    Message('control_change', channel=0, control=64, value=81, time=15),\n",
       "    Message('note_off', channel=0, note=31, velocity=59, time=3),\n",
       "    Message('control_change', channel=0, control=64, value=127, time=11),\n",
       "    Message('note_off', channel=0, note=43, velocity=62, time=24),\n",
       "    Message('note_on', channel=0, note=82, velocity=89, time=28),\n",
       "    Message('note_off', channel=0, note=79, velocity=64, time=9),\n",
       "    Message('note_on', channel=0, note=45, velocity=89, time=34),\n",
       "    Message('note_on', channel=0, note=33, velocity=80, time=5),\n",
       "    Message('note_on', channel=0, note=86, velocity=91, time=11),\n",
       "    Message('note_off', channel=0, note=82, velocity=66, time=12),\n",
       "    Message('note_off', channel=0, note=33, velocity=61, time=12),\n",
       "    Message('note_off', channel=0, note=86, velocity=61, time=4),\n",
       "    Message('note_off', channel=0, note=45, velocity=62, time=8),\n",
       "    Message('note_off', channel=0, note=74, velocity=64, time=10),\n",
       "    Message('note_on', channel=0, note=46, velocity=91, time=125),\n",
       "    Message('note_on', channel=0, note=34, velocity=84, time=4),\n",
       "    Message('note_on', channel=0, note=67, velocity=98, time=4),\n",
       "    Message('control_change', channel=0, control=64, value=72, time=21),\n",
       "    Message('control_change', channel=0, control=64, value=0, time=22),\n",
       "    Message('note_on', channel=0, note=55, velocity=83, time=133),\n",
       "    Message('note_off', channel=0, note=34, velocity=62, time=0),\n",
       "    Message('note_off', channel=0, note=67, velocity=56, time=0),\n",
       "    Message('control_change', channel=0, control=64, value=71, time=2),\n",
       "    Message('control_change', channel=0, control=64, value=127, time=15),\n",
       "    Message('note_off', channel=0, note=55, velocity=62, time=36),\n",
       "    Message('note_on', channel=0, note=62, velocity=84, time=16),\n",
       "    Message('note_off', channel=0, note=46, velocity=61, time=0),\n",
       "    Message('note_on', channel=0, note=65, velocity=81, time=56),\n",
       "    Message('note_off', channel=0, note=62, velocity=64, time=11),\n",
       "    Message('control_change', channel=0, control=64, value=119, time=28),\n",
       "    Message('control_change', channel=0, control=64, value=56, time=15),\n",
       "    Message('control_change', channel=0, control=64, value=0, time=15),\n",
       "    Message('note_on', channel=0, note=63, velocity=95, time=4),\n",
       "    Message('note_on', channel=0, note=50, velocity=88, time=2),\n",
       "    Message('note_on', channel=0, note=38, velocity=78, time=4),\n",
       "    Message('note_off', channel=0, note=65, velocity=64, time=27),\n",
       "    Message('control_change', channel=0, control=64, value=59, time=23),\n",
       "    Message('control_change', channel=0, control=64, value=127, time=14),\n",
       "    Message('note_on', channel=0, note=55, velocity=82, time=18),\n",
       "    Message('note_off', channel=0, note=63, velocity=62, time=27),\n",
       "    Message('note_off', channel=0, note=38, velocity=61, time=3),\n",
       "    Message('note_off', channel=0, note=50, velocity=62, time=9),\n",
       "    Message('note_on', channel=0, note=60, velocity=78, time=36),\n",
       "    Message('note_off', channel=0, note=55, velocity=62, time=9),\n",
       "    Message('note_on', channel=0, note=63, velocity=83, time=63),\n",
       "    Message('note_off', channel=0, note=60, velocity=65, time=9),\n",
       "    Message('note_off', channel=0, note=63, velocity=65, time=34),\n",
       "    Message('control_change', channel=0, control=64, value=59, time=29),\n",
       "    Message('control_change', channel=0, control=64, value=0, time=15),\n",
       "    Message('note_on', channel=0, note=48, velocity=89, time=13),\n",
       "    Message('note_on', channel=0, note=67, velocity=92, time=1),\n",
       "    Message('note_on', channel=0, note=36, velocity=81, time=5),\n",
       "    Message('control_change', channel=0, control=64, value=65, time=40),\n",
       "    Message('note_off', channel=0, note=48, velocity=63, time=8),\n",
       "    Message('control_change', channel=0, control=64, value=115, time=7),\n",
       "    Message('note_off', channel=0, note=36, velocity=62, time=21),\n",
       "    Message('control_change', channel=0, control=64, value=127, time=2),\n",
       "    Message('note_on', channel=0, note=72, velocity=88, time=20),\n",
       "    Message('note_off', channel=0, note=67, velocity=61, time=39),\n",
       "    Message('note_on', channel=0, note=75, velocity=87, time=55),\n",
       "    Message('note_off', channel=0, note=72, velocity=63, time=38),\n",
       "    Message('control_change', channel=0, control=64, value=73, time=27),\n",
       "    Message('control_change', channel=0, control=64, value=0, time=15),\n",
       "    Message('note_on', channel=0, note=45, velocity=90, time=10),\n",
       "    Message('note_on', channel=0, note=33, velocity=77, time=3),\n",
       "    Message('note_on', channel=0, note=79, velocity=101, time=6),\n",
       "    Message('note_off', channel=0, note=75, velocity=64, time=6),\n",
       "    Message('note_off', channel=0, note=33, velocity=66, time=22),\n",
       "    Message('control_change', channel=0, control=64, value=29, time=12),\n",
       "    Message('note_off', channel=0, note=45, velocity=63, time=5),\n",
       "    Message('control_change', channel=0, control=64, value=107, time=10),\n",
       "    Message('control_change', channel=0, control=64, value=127, time=15),\n",
       "    Message('note_off', channel=0, note=79, velocity=59, time=81),\n",
       "    Message('control_change', channel=0, control=64, value=66, time=67),\n",
       "    Message('note_on', channel=0, note=78, velocity=99, time=1),\n",
       "    Message('note_on', channel=0, note=69, velocity=92, time=3),\n",
       "    Message('note_on', channel=0, note=50, velocity=85, time=2),\n",
       "    Message('note_on', channel=0, note=38, velocity=71, time=4),\n",
       "    Message('note_on', channel=0, note=74, velocity=88, time=2),\n",
       "    Message('control_change', channel=0, control=64, value=0, time=2),\n",
       "    Message('control_change', channel=0, control=64, value=65, time=134),\n",
       "    Message('note_off', channel=0, note=74, velocity=52, time=11),\n",
       "    Message('control_change', channel=0, control=64, value=102, time=3),\n",
       "    Message('note_off', channel=0, note=50, velocity=59, time=9),\n",
       "    Message('control_change', channel=0, control=64, value=127, time=6),\n",
       "    Message('note_off', channel=0, note=69, velocity=51, time=12),\n",
       "    Message('note_off', channel=0, note=38, velocity=59, time=39),\n",
       "    Message('note_off', channel=0, note=78, velocity=38, time=166),\n",
       "    Message('note_on', channel=0, note=79, velocity=99, time=339),\n",
       "    Message('note_on', channel=0, note=31, velocity=58, time=6),\n",
       "    Message('note_on', channel=0, note=70, velocity=84, time=0),\n",
       "    Message('note_on', channel=0, note=74, velocity=88, time=4),\n",
       "    Message('note_on', channel=0, note=43, velocity=67, time=2),\n",
       "    Message('control_change', channel=0, control=64, value=75, time=18),\n",
       "    Message('control_change', channel=0, control=64, value=0, time=15),\n",
       "    Message('control_change', channel=0, control=64, value=58, time=392),\n",
       "    Message('control_change', channel=0, control=64, value=63, time=15),\n",
       "    Message('control_change', channel=0, control=64, value=65, time=15),\n",
       "    Message('control_change', channel=0, control=64, value=68, time=15),\n",
       "    Message('control_change', channel=0, control=64, value=76, time=15),\n",
       "    Message('control_change', channel=0, control=64, value=127, time=14),\n",
       "    Message('note_off', channel=0, note=79, velocity=52, time=90),\n",
       "    Message('note_off', channel=0, note=74, velocity=35, time=90),\n",
       "    Message('note_off', channel=0, note=43, velocity=37, time=13),\n",
       "    Message('note_off', channel=0, note=70, velocity=51, time=12),\n",
       "    Message('note_off', channel=0, note=31, velocity=35, time=31),\n",
       "    Message('control_change', channel=0, control=67, value=28, time=335),\n",
       "    Message('control_change', channel=0, control=67, value=65, time=14),\n",
       "    Message('control_change', channel=0, control=67, value=113, time=15),\n",
       "    Message('control_change', channel=0, control=67, value=127, time=15),\n",
       "    Message('note_on', channel=0, note=34, velocity=43, time=230),\n",
       "    Message('note_on', channel=0, note=46, velocity=40, time=2),\n",
       "    Message('control_change', channel=0, control=64, value=89, time=7),\n",
       "    Message('control_change', channel=0, control=64, value=76, time=15),\n",
       "    Message('control_change', channel=0, control=64, value=66, time=14),\n",
       "    Message('note_on', channel=0, note=62, velocity=55, time=9),\n",
       "    Message('control_change', channel=0, control=64, value=44, time=6),\n",
       "    Message('control_change', channel=0, control=64, value=0, time=15),\n",
       "    Message('control_change', channel=0, control=64, value=61, time=134),\n",
       "    Message('control_change', channel=0, control=64, value=66, time=15),\n",
       "    Message('note_on', channel=0, note=50, velocity=47, time=9),\n",
       "    Message('control_change', channel=0, control=64, value=68, time=6),\n",
       "    Message('control_change', channel=0, control=64, value=70, time=14),\n",
       "    Message('control_change', channel=0, control=64, value=74, time=15),\n",
       "    Message('control_change', channel=0, control=64, value=83, time=15),\n",
       "    Message('note_off', channel=0, note=50, velocity=56, time=7),\n",
       "    Message('control_change', channel=0, control=64, value=115, time=8),\n",
       "    Message('note_off', channel=0, note=62, velocity=57, time=4),\n",
       "    Message('control_change', channel=0, control=64, value=127, time=10),\n",
       "    Message('note_on', channel=0, note=56, velocity=57, time=2),\n",
       "    Message('note_off', channel=0, note=34, velocity=41, time=26),\n",
       "    Message('note_off', channel=0, note=56, velocity=59, time=39),\n",
       "    Message('note_on', channel=0, note=60, velocity=56, time=10),\n",
       "    Message('note_off', channel=0, note=46, velocity=62, time=46),\n",
       "    Message('note_off', channel=0, note=60, velocity=63, time=13),\n",
       "    Message('note_on', channel=0, note=58, velocity=69, time=2),\n",
       "    Message('note_off', channel=0, note=58, velocity=55, time=81),\n",
       "    Message('note_on', channel=0, note=51, velocity=61, time=11),\n",
       "    Message('note_on', channel=0, note=36, velocity=52, time=68),\n",
       "    Message('note_on', channel=0, note=56, velocity=64, time=10),\n",
       "    Message('note_on', channel=0, note=48, velocity=40, time=1),\n",
       "    Message('note_off', channel=0, note=51, velocity=60, time=8),\n",
       "    Message('note_off', channel=0, note=48, velocity=51, time=26),\n",
       "    Message('note_off', channel=0, note=36, velocity=56, time=1),\n",
       "    Message('note_off', channel=0, note=56, velocity=60, time=29),\n",
       "    Message('note_on', channel=0, note=58, velocity=70, time=4),\n",
       "    Message('note_off', channel=0, note=58, velocity=65, time=27),\n",
       "    Message('control_change', channel=0, control=64, value=88, time=4),\n",
       "    Message('control_change', channel=0, control=64, value=66, time=14),\n",
       "    Message('control_change', channel=0, control=64, value=0, time=15),\n",
       "    Message('note_on', channel=0, note=49, velocity=49, time=10),\n",
       "    Message('note_on', channel=0, note=37, velocity=49, time=1),\n",
       "    Message('control_change', channel=0, control=64, value=64, time=49),\n",
       "    Message('note_on', channel=0, note=67, velocity=76, time=2),\n",
       "    Message('control_change', channel=0, control=64, value=77, time=13),\n",
       "    Message('control_change', channel=0, control=64, value=127, time=15),\n",
       "    Message('note_off', channel=0, note=67, velocity=64, time=31),\n",
       "    Message('note_on', channel=0, note=52, velocity=67, time=81),\n",
       "    Message('note_off', channel=0, note=37, velocity=34, time=45),\n",
       "    Message('note_off', channel=0, note=52, velocity=47, time=7),\n",
       "    Message('note_on', channel=0, note=58, velocity=63, time=23),\n",
       "    Message('note_off', channel=0, note=49, velocity=59, time=7),\n",
       "    Message('note_on', channel=0, note=67, velocity=74, time=44),\n",
       "    Message('note_off', channel=0, note=58, velocity=60, time=4),\n",
       "    Message('note_off', channel=0, note=67, velocity=61, time=32),\n",
       "    Message('control_change', channel=0, control=64, value=91, time=67),\n",
       "    Message('note_on', channel=0, note=38, velocity=59, time=7),\n",
       "    Message('note_on', channel=0, note=65, velocity=80, time=1),\n",
       "    Message('note_on', channel=0, note=50, velocity=58, time=3),\n",
       "    Message('control_change', channel=0, control=64, value=72, time=3),\n",
       "    Message('control_change', channel=0, control=64, value=60, time=15),\n",
       "    Message('control_change', channel=0, control=64, value=0, time=23),\n",
       "    Message('note_on', channel=0, note=53, velocity=56, time=63),\n",
       "    Message('control_change', channel=0, control=64, value=55, time=55),\n",
       "    Message('control_change', channel=0, control=64, value=68, time=15),\n",
       "    Message('note_off', channel=0, note=53, velocity=59, time=4),\n",
       "    Message('note_on', channel=0, note=58, velocity=65, time=7),\n",
       "    Message('note_off', channel=0, note=65, velocity=63, time=2),\n",
       "    Message('control_change', channel=0, control=64, value=80, time=2),\n",
       "    Message('control_change', channel=0, control=64, value=127, time=15),\n",
       "    Message('note_off', channel=0, note=58, velocity=63, time=47),\n",
       "    Message('note_on', channel=0, note=63, velocity=73, time=1),\n",
       "    Message('note_off', channel=0, note=38, velocity=36, time=44),\n",
       "    Message('note_off', channel=0, note=50, velocity=52, time=7),\n",
       "    Message('note_on', channel=0, note=62, velocity=83, time=11),\n",
       "    Message('note_off', channel=0, note=63, velocity=62, time=8),\n",
       "    Message('note_off', channel=0, note=62, velocity=59, time=70),\n",
       "    Message('note_on', channel=0, note=55, velocity=68, time=4),\n",
       "    Message('note_off', channel=0, note=55, velocity=56, time=53),\n",
       "    Message('note_on', channel=0, note=58, velocity=74, time=14),\n",
       "    Message('note_on', channel=0, note=51, velocity=63, time=27),\n",
       "    Message('note_on', channel=0, note=39, velocity=59, time=4),\n",
       "    Message('control_change', channel=0, control=64, value=80, time=22),\n",
       "    Message('note_on', channel=0, note=62, velocity=78, time=7),\n",
       "    Message('note_off', channel=0, note=51, velocity=63, time=5),\n",
       "    Message('note_off', channel=0, note=58, velocity=62, time=1),\n",
       "    Message('control_change', channel=0, control=64, value=0, time=2),\n",
       "    Message('note_off', channel=0, note=39, velocity=63, time=13),\n",
       "    Message('note_off', channel=0, note=62, velocity=57, time=42),\n",
       "    Message('note_on', channel=0, note=40, velocity=61, time=18),\n",
       "    Message('note_on', channel=0, note=68, velocity=78, time=5),\n",
       "    Message('note_on', channel=0, note=52, velocity=64, time=4),\n",
       "    Message('control_change', channel=0, control=64, value=33, time=36),\n",
       "    Message('control_change', channel=0, control=64, value=66, time=15),\n",
       "    Message('note_on', channel=0, note=56, velocity=70, time=14),\n",
       "    Message('control_change', channel=0, control=64, value=88, time=1),\n",
       "    Message('control_change', channel=0, control=64, value=127, time=15),\n",
       "    Message('note_off', channel=0, note=68, velocity=59, time=28),\n",
       "    Message('note_off', channel=0, note=40, velocity=55, time=10),\n",
       "    Message('note_on', channel=0, note=62, velocity=66, time=35),\n",
       "    Message('note_off', channel=0, note=56, velocity=54, time=1),\n",
       "    Message('note_off', channel=0, note=52, velocity=55, time=20),\n",
       "    Message('note_on', channel=0, note=68, velocity=73, time=36),\n",
       "    Message('note_off', channel=0, note=62, velocity=54, time=36),\n",
       "    Message('note_off', channel=0, note=68, velocity=54, time=32),\n",
       "    Message('control_change', channel=0, control=64, value=99, time=46),\n",
       "    Message('control_change', channel=0, control=64, value=79, time=14),\n",
       "    Message('note_on', channel=0, note=67, velocity=68, time=5),\n",
       "    Message('note_on', channel=0, note=53, velocity=56, time=7),\n",
       "    Message('note_on', channel=0, note=41, velocity=46, time=3),\n",
       "    Message('control_change', channel=0, control=64, value=67, time=0),\n",
       "    Message('control_change', channel=0, control=64, value=24, time=15),\n",
       "    Message('control_change', channel=0, control=64, value=0, time=15),\n",
       "    Message('note_on', channel=0, note=56, velocity=48, time=78),\n",
       "    Message('control_change', channel=0, control=64, value=38, time=41),\n",
       "    Message('control_change', channel=0, control=64, value=64, time=15),\n",
       "    Message('control_change', channel=0, control=64, value=67, time=15),\n",
       "    Message('note_off', channel=0, note=67, velocity=59, time=9),\n",
       "    Message('note_on', channel=0, note=62, velocity=58, time=5),\n",
       "    Message('control_change', channel=0, control=64, value=72, time=0),\n",
       "    Message('note_off', channel=0, note=56, velocity=56, time=7),\n",
       "    Message('control_change', channel=0, control=64, value=80, time=9),\n",
       "    Message('control_change', channel=0, control=64, value=109, time=15),\n",
       "    Message('control_change', channel=0, control=64, value=127, time=15),\n",
       "    Message('note_on', channel=0, note=65, velocity=64, time=15),\n",
       "    Message('note_off', channel=0, note=62, velocity=58, time=13),\n",
       "    Message('note_off', channel=0, note=41, velocity=59, time=16),\n",
       "    Message('note_off', channel=0, note=53, velocity=61, time=0),\n",
       "    Message('note_on', channel=0, note=64, velocity=71, time=53),\n",
       "    Message('note_off', channel=0, note=65, velocity=59, time=19),\n",
       "    Message('note_on', channel=0, note=58, velocity=62, time=59),\n",
       "    Message('note_off', channel=0, note=64, velocity=56, time=14),\n",
       "    Message('note_on', channel=0, note=42, velocity=57, time=46),\n",
       "    Message('note_on', channel=0, note=54, velocity=55, time=1),\n",
       "    Message('note_on', channel=0, note=61, velocity=74, time=3),\n",
       "    Message('note_off', channel=0, note=58, velocity=62, time=8),\n",
       "    Message('note_off', channel=0, note=54, velocity=58, time=38),\n",
       "    Message('note_off', channel=0, note=42, velocity=57, time=16),\n",
       "    Message('control_change', channel=0, control=64, value=83, time=10),\n",
       "    Message('note_on', channel=0, note=64, velocity=69, time=2),\n",
       "    Message('note_off', channel=0, note=61, velocity=63, time=9),\n",
       "    Message('control_change', channel=0, control=64, value=65, time=11),\n",
       "    Message('control_change', channel=0, control=64, value=0, time=15),\n",
       "    Message('note_off', channel=0, note=64, velocity=62, time=32),\n",
       "    Message('note_on', channel=0, note=43, velocity=56, time=11),\n",
       "    Message('note_on', channel=0, note=70, velocity=72, time=0),\n",
       "    Message('note_on', channel=0, note=55, velocity=59, time=2),\n",
       "    Message('control_change', channel=0, control=64, value=61, time=58),\n",
       "    Message('note_on', channel=0, note=61, velocity=62, time=8),\n",
       "    Message('control_change', channel=0, control=64, value=66, time=7),\n",
       "    Message('control_change', channel=0, control=64, value=71, time=15),\n",
       "    Message('control_change', channel=0, control=64, value=91, time=15),\n",
       "    Message('control_change', channel=0, control=64, value=127, time=15),\n",
       "    Message('note_off', channel=0, note=70, velocity=60, time=2),\n",
       "    Message('note_off', channel=0, note=55, velocity=60, time=5),\n",
       "    Message('note_off', channel=0, note=43, velocity=57, time=2),\n",
       "    Message('note_on', channel=0, note=64, velocity=64, time=13),\n",
       "    Message('note_off', channel=0, note=61, velocity=58, time=30),\n",
       "    Message('note_off', channel=0, note=64, velocity=61, time=42),\n",
       "    Message('note_on', channel=0, note=70, velocity=68, time=12),\n",
       "    Message('note_on', channel=0, note=44, velocity=52, time=86),\n",
       "    Message('control_change', channel=0, control=64, value=98, time=0),\n",
       "    Message('note_on', channel=0, note=56, velocity=52, time=6),\n",
       "    Message('note_on', channel=0, note=68, velocity=69, time=8),\n",
       "    Message('control_change', channel=0, control=64, value=70, time=1),\n",
       "    Message('control_change', channel=0, control=64, value=36, time=15),\n",
       "    Message('note_off', channel=0, note=70, velocity=63, time=6),\n",
       "    Message('control_change', channel=0, control=64, value=0, time=9),\n",
       "    Message('note_on', channel=0, note=61, velocity=57, time=47),\n",
       "    Message('control_change', channel=0, control=64, value=39, time=27),\n",
       "    Message('control_change', channel=0, control=64, value=64, time=15),\n",
       "    Message('control_change', channel=0, control=64, value=72, time=15),\n",
       "    Message('control_change', channel=0, control=64, value=99, time=15),\n",
       "    Message('note_on', channel=0, note=65, velocity=61, time=5),\n",
       "    Message('note_off', channel=0, note=68, velocity=38, time=6),\n",
       "    Message('control_change', channel=0, control=64, value=127, time=4),\n",
       "    Message('note_off', channel=0, note=61, velocity=57, time=6),\n",
       "    Message('note_on', channel=0, note=67, velocity=72, time=57),\n",
       "    Message('note_off', channel=0, note=65, velocity=63, time=3),\n",
       "    Message('note_on', channel=0, note=66, velocity=78, time=75),\n",
       "    Message('note_off', channel=0, note=67, velocity=63, time=7),\n",
       "    Message('note_off', channel=0, note=44, velocity=51, time=18),\n",
       "    Message('note_off', channel=0, note=56, velocity=60, time=11),\n",
       "    Message('note_off', channel=0, note=66, velocity=61, time=45),\n",
       "    Message('note_on', channel=0, note=60, velocity=65, time=1),\n",
       "    Message('note_on', channel=0, note=63, velocity=74, time=62),\n",
       "    Message('note_off', channel=0, note=60, velocity=63, time=0),\n",
       "    Message('note_on', channel=0, note=57, velocity=66, time=25),\n",
       "    Message('note_on', channel=0, note=45, velocity=64, time=2),\n",
       "    Message('note_off', channel=0, note=57, velocity=68, time=25),\n",
       "    Message('note_on', channel=0, note=66, velocity=77, time=10),\n",
       "    Message('note_off', channel=0, note=45, velocity=62, time=2),\n",
       "    Message('note_off', channel=0, note=63, velocity=64, time=7),\n",
       "    Message('control_change', channel=0, control=64, value=66, time=22),\n",
       "    Message('control_change', channel=0, control=64, value=0, time=14),\n",
       "    Message('note_on', channel=0, note=72, velocity=85, time=25),\n",
       "    Message('note_off', channel=0, note=66, velocity=63, time=10),\n",
       "    Message('note_on', channel=0, note=46, velocity=68, time=5),\n",
       "    Message('note_on', channel=0, note=58, velocity=69, time=1),\n",
       "    Message('control_change', channel=0, control=64, value=62, time=63),\n",
       "    Message('note_on', channel=0, note=63, velocity=73, time=14),\n",
       "    Message('control_change', channel=0, control=64, value=74, time=0),\n",
       "    Message('control_change', channel=0, control=64, value=127, time=15),\n",
       "    Message('note_off', channel=0, note=46, velocity=61, time=17),\n",
       "    Message('note_off', channel=0, note=72, velocity=58, time=18),\n",
       "    Message('note_on', channel=0, note=66, velocity=68, time=38),\n",
       "    Message('note_off', channel=0, note=63, velocity=61, time=7),\n",
       "    Message('note_off', channel=0, note=58, velocity=61, time=4),\n",
       "    Message('note_on', channel=0, note=72, velocity=73, time=55),\n",
       "    Message('note_off', channel=0, note=66, velocity=61, time=17),\n",
       "    Message('control_change', channel=0, control=64, value=79, time=82),\n",
       "    Message('note_on', channel=0, note=70, velocity=67, time=13),\n",
       "    Message('note_on', channel=0, note=60, velocity=63, time=1),\n",
       "    Message('control_change', channel=0, control=64, value=62, time=1),\n",
       "    Message('note_on', channel=0, note=48, velocity=45, time=12),\n",
       "    Message('control_change', channel=0, control=64, value=0, time=3),\n",
       "    Message('note_off', channel=0, note=72, velocity=59, time=16),\n",
       "    Message('note_on', channel=0, note=63, velocity=55, time=50),\n",
       "    Message('note_off', channel=0, note=70, velocity=55, time=26),\n",
       "    Message('control_change', channel=0, control=64, value=56, time=27),\n",
       "    Message('control_change', channel=0, control=64, value=66, time=21),\n",
       "    Message('note_on', channel=0, note=66, velocity=60, time=15),\n",
       "    Message('control_change', channel=0, control=64, value=74, time=0),\n",
       "    Message('note_off', channel=0, note=63, velocity=60, time=4),\n",
       "    Message('control_change', channel=0, control=64, value=94, time=11),\n",
       "    Message('control_change', channel=0, control=64, value=127, time=15),\n",
       "    Message('note_on', channel=0, note=69, velocity=71, time=30),\n",
       "    Message('note_off', channel=0, note=66, velocity=62, time=2),\n",
       "    Message('note_off', channel=0, note=48, velocity=61, time=16),\n",
       "    Message('note_off', channel=0, note=60, velocity=58, time=10),\n",
       "    Message('note_on', channel=0, note=68, velocity=73, time=56),\n",
       "    Message('note_off', channel=0, note=69, velocity=59, time=23),\n",
       "    Message('note_on', channel=0, note=62, velocity=72, time=39),\n",
       "    Message('note_off', channel=0, note=68, velocity=59, time=21),\n",
       "    Message('note_on', channel=0, note=65, velocity=70, time=37),\n",
       "    Message('note_on', channel=0, note=47, velocity=65, time=4),\n",
       "    Message('note_on', channel=0, note=59, velocity=67, time=1),\n",
       "    Message('note_off', channel=0, note=62, velocity=62, time=9),\n",
       "    Message('note_off', channel=0, note=47, velocity=62, time=14),\n",
       "    Message('note_off', channel=0, note=59, velocity=66, time=5),\n",
       "    Message('note_on', channel=0, note=68, velocity=78, time=32),\n",
       "    Message('note_off', channel=0, note=65, velocity=66, time=5),\n",
       "    Message('control_change', channel=0, control=64, value=84, time=6),\n",
       "    Message('control_change', channel=0, control=64, value=62, time=15),\n",
       "    Message('control_change', channel=0, control=64, value=0, time=15),\n",
       "    Message('note_on', channel=0, note=60, velocity=76, time=21),\n",
       "    Message('note_on', channel=0, note=48, velocity=74, time=4),\n",
       "    Message('note_off', channel=0, note=68, velocity=64, time=2),\n",
       "    Message('note_on', channel=0, note=74, velocity=73, time=11),\n",
       "    Message('note_on', channel=0, note=65, velocity=73, time=58),\n",
       "    Message('control_change', channel=0, control=64, value=61, time=8),\n",
       "    Message('control_change', channel=0, control=64, value=69, time=15),\n",
       "    Message('note_off', channel=0, note=74, velocity=61, time=15),\n",
       "    Message('control_change', channel=0, control=64, value=101, time=0),\n",
       "    Message('control_change', channel=0, control=64, value=127, time=14),\n",
       "    Message('note_off', channel=0, note=48, velocity=58, time=38),\n",
       "    Message('note_on', channel=0, note=68, velocity=74, time=1),\n",
       "    Message('note_off', channel=0, note=65, velocity=61, time=24),\n",
       "    Message('note_on', channel=0, note=74, velocity=81, time=27),\n",
       "    Message('control_change', channel=0, control=67, value=124, time=0),\n",
       "    Message('note_off', channel=0, note=60, velocity=59, time=6),\n",
       "    Message('control_change', channel=0, control=67, value=113, time=9),\n",
       "    Message('note_off', channel=0, note=68, velocity=62, time=12),\n",
       "    Message('control_change', channel=0, control=67, value=95, time=3),\n",
       "    Message('control_change', channel=0, control=67, value=74, time=15),\n",
       "    Message('control_change', channel=0, control=67, value=47, time=15),\n",
       "    Message('control_change', channel=0, control=67, value=0, time=14),\n",
       "    Message('note_on', channel=0, note=72, velocity=88, time=9),\n",
       "    Message('note_on', channel=0, note=62, velocity=87, time=13),\n",
       "    Message('note_on', channel=0, note=50, velocity=72, time=6),\n",
       "    Message('note_off', channel=0, note=74, velocity=63, time=11),\n",
       "    Message('control_change', channel=0, control=64, value=69, time=6),\n",
       "    Message('control_change', channel=0, control=64, value=0, time=21),\n",
       "    Message('note_on', channel=0, note=65, velocity=73, time=33),\n",
       "    Message('note_off', channel=0, note=72, velocity=65, time=18),\n",
       "    Message('control_change', channel=0, control=64, value=63, time=24),\n",
       "    Message('control_change', channel=0, control=64, value=69, time=15),\n",
       "    Message('control_change', channel=0, control=64, value=85, time=15),\n",
       "    Message('note_on', channel=0, note=68, velocity=75, time=3),\n",
       "    Message('control_change', channel=0, control=64, value=127, time=11),\n",
       "    Message('note_off', channel=0, note=65, velocity=63, time=11),\n",
       "    Message('note_on', channel=0, note=71, velocity=82, time=46),\n",
       "    Message('note_off', channel=0, note=68, velocity=64, time=6),\n",
       "    Message('note_off', channel=0, note=50, velocity=59, time=36),\n",
       "    Message('note_off', channel=0, note=62, velocity=60, time=4),\n",
       "    Message('note_on', channel=0, note=70, velocity=85, time=26),\n",
       "    Message('note_off', channel=0, note=71, velocity=61, time=22),\n",
       "    Message('note_on', channel=0, note=64, velocity=74, time=44),\n",
       "    Message('note_off', channel=0, note=70, velocity=64, time=14),\n",
       "    Message('note_on', channel=0, note=67, velocity=85, time=42),\n",
       "    Message('note_on', channel=0, note=61, velocity=68, time=18),\n",
       "    Message('note_off', channel=0, note=64, velocity=62, time=0),\n",
       "    Message('note_on', channel=0, note=49, velocity=63, time=0),\n",
       "    Message('note_off', channel=0, note=61, velocity=62, time=46),\n",
       "    Message('note_off', channel=0, note=49, velocity=61, time=1),\n",
       "    Message('note_on', channel=0, note=70, velocity=83, time=6),\n",
       "    Message('note_off', channel=0, note=67, velocity=64, time=11),\n",
       "    Message('control_change', channel=0, control=64, value=90, time=8),\n",
       "    Message('control_change', channel=0, control=64, value=64, time=14),\n",
       "    Message('control_change', channel=0, control=64, value=0, time=15),\n",
       "    Message('note_on', channel=0, note=62, velocity=94, time=10),\n",
       "    Message('note_on', channel=0, note=50, velocity=82, time=4),\n",
       "    Message('note_on', channel=0, note=76, velocity=86, time=7),\n",
       "    Message('note_off', channel=0, note=70, velocity=65, time=6),\n",
       "    Message('note_on', channel=0, note=67, velocity=79, time=64),\n",
       "    Message('control_change', channel=0, control=64, value=63, time=14),\n",
       "    Message('control_change', channel=0, control=64, value=72, time=14),\n",
       "    Message('note_off', channel=0, note=76, velocity=65, time=15),\n",
       "    Message('control_change', channel=0, control=64, value=107, time=0),\n",
       "    Message('control_change', channel=0, control=64, value=127, time=15),\n",
       "    Message('note_off', channel=0, note=50, velocity=53, time=9),\n",
       "    Message('note_on', channel=0, note=70, velocity=75, time=18),\n",
       "    Message('note_off', channel=0, note=67, velocity=63, time=18),\n",
       "    Message('note_on', channel=0, note=76, velocity=80, time=46),\n",
       "    Message('note_off', channel=0, note=62, velocity=49, time=13),\n",
       "    Message('note_off', channel=0, note=70, velocity=63, time=18),\n",
       "    Message('note_on', channel=0, note=74, velocity=89, time=75),\n",
       "    Message('note_on', channel=0, note=64, velocity=92, time=7),\n",
       "    Message('note_on', channel=0, note=52, velocity=78, time=3),\n",
       "    Message('note_off', channel=0, note=76, velocity=65, time=13),\n",
       "    Message('control_change', channel=0, control=64, value=94, time=25),\n",
       "    Message('control_change', channel=0, control=64, value=67, time=15),\n",
       "    Message('control_change', channel=0, control=64, value=0, time=14),\n",
       "    Message('note_on', channel=0, note=67, velocity=80, time=22),\n",
       "    Message('note_off', channel=0, note=74, velocity=63, time=40),\n",
       "    Message('note_on', channel=0, note=70, velocity=76, time=35),\n",
       "    Message('note_off', channel=0, note=67, velocity=55, time=40),\n",
       "    Message('control_change', channel=0, control=64, value=63, time=27),\n",
       "    Message('note_on', channel=0, note=73, velocity=83, time=7),\n",
       "    Message('control_change', channel=0, control=64, value=77, time=7),\n",
       "    Message('control_change', channel=0, control=64, value=127, time=15),\n",
       "    Message('note_off', channel=0, note=70, velocity=64, time=12),\n",
       "    Message('note_off', channel=0, note=64, velocity=55, time=30),\n",
       "    Message('note_on', channel=0, note=74, velocity=91, time=9),\n",
       "    Message('note_off', channel=0, note=73, velocity=61, time=35),\n",
       "    Message('note_off', channel=0, note=52, velocity=60, time=6),\n",
       "    Message('note_on', channel=0, note=65, velocity=78, time=38),\n",
       "    Message('note_off', channel=0, note=74, velocity=62, time=44),\n",
       "    Message('note_on', channel=0, note=53, velocity=79, time=40),\n",
       "    Message('note_on', channel=0, note=69, velocity=83, time=1),\n",
       "    Message('note_off', channel=0, note=65, velocity=63, time=32),\n",
       "    Message('note_on', channel=0, note=74, velocity=81, time=44),\n",
       "    Message('note_off', channel=0, note=69, velocity=62, time=20),\n",
       "    Message('note_off', channel=0, note=53, velocity=54, time=11),\n",
       "    Message('control_change', channel=0, control=64, value=108, time=71),\n",
       "    Message('control_change', channel=0, control=64, value=71, time=14),\n",
       "    Message('note_on', channel=0, note=55, velocity=85, time=3),\n",
       "    Message('note_on', channel=0, note=70, velocity=87, time=5),\n",
       "    Message('control_change', channel=0, control=64, value=37, time=7),\n",
       "    Message('control_change', channel=0, control=64, value=0, time=15),\n",
       "    Message('note_off', channel=0, note=74, velocity=65, time=3),\n",
       "    Message('note_on', channel=0, note=62, velocity=81, time=73),\n",
       "    Message('control_change', channel=0, control=64, value=37, time=28),\n",
       "    Message('note_off', channel=0, note=70, velocity=63, time=9),\n",
       "    Message('control_change', channel=0, control=64, value=66, time=6),\n",
       "    Message('control_change', channel=0, control=64, value=78, time=15),\n",
       "    Message('control_change', channel=0, control=64, value=127, time=14),\n",
       "    Message('note_on', channel=0, note=67, velocity=76, time=26),\n",
       "    Message('note_off', channel=0, note=62, velocity=62, time=10),\n",
       "    Message('note_on', channel=0, note=70, velocity=80, time=75),\n",
       "    Message('note_off', channel=0, note=67, velocity=62, time=28),\n",
       "    Message('note_off', channel=0, note=55, velocity=35, time=9),\n",
       "    Message('note_off', channel=0, note=70, velocity=62, time=51),\n",
       "    Message('control_change', channel=0, control=64, value=113, time=9),\n",
       "    Message('note_on', channel=0, note=69, velocity=80, time=13),\n",
       "    Message('control_change', channel=0, control=64, value=69, time=1),\n",
       "    Message('note_on', channel=0, note=57, velocity=86, time=7),\n",
       "    Message('control_change', channel=0, control=64, value=0, time=8),\n",
       "    Message('control_change', channel=0, control=64, value=36, time=74),\n",
       "    Message('control_change', channel=0, control=64, value=66, time=15),\n",
       "    Message('control_change', channel=0, control=64, value=79, time=14),\n",
       "    Message('note_on', channel=0, note=61, velocity=76, time=3),\n",
       "    Message('note_off', channel=0, note=69, velocity=63, time=5),\n",
       "    Message('control_change', channel=0, control=64, value=127, time=7),\n",
       "    Message('note_off', channel=0, note=61, velocity=57, time=66),\n",
       "    Message('note_on', channel=0, note=64, velocity=74, time=17),\n",
       "    Message('note_off', channel=0, note=57, velocity=61, time=62),\n",
       "    Message('note_on', channel=0, note=55, velocity=68, time=19),\n",
       "    Message('note_on', channel=0, note=69, velocity=74, time=8),\n",
       "    Message('note_off', channel=0, note=64, velocity=58, time=16),\n",
       "    Message('note_off', channel=0, note=55, velocity=61, time=70),\n",
       "    Message('control_change', channel=0, control=64, value=77, time=3),\n",
       "    Message('control_change', channel=0, control=64, value=50, time=15),\n",
       "    Message('note_on', channel=0, note=74, velocity=78, time=12),\n",
       "    Message('note_on', channel=0, note=53, velocity=65, time=2),\n",
       "    Message('control_change', channel=0, control=64, value=0, time=0),\n",
       "    Message('note_off', channel=0, note=69, velocity=59, time=41),\n",
       "    Message('control_change', channel=0, control=64, value=39, time=33),\n",
       "    Message('control_change', channel=0, control=64, value=65, time=15),\n",
       "    Message('note_on', channel=0, note=62, velocity=75, time=3),\n",
       "    Message('note_off', channel=0, note=74, velocity=53, time=11),\n",
       "    Message('control_change', channel=0, control=64, value=84, time=1),\n",
       "    Message('control_change', channel=0, control=64, value=127, time=15),\n",
       "    Message('note_on', channel=0, note=69, velocity=66, time=52),\n",
       "    Message('note_off', channel=0, note=62, velocity=61, time=19),\n",
       "    Message('note_off', channel=0, note=53, velocity=59, time=23),\n",
       "    Message('note_on', channel=0, note=54, velocity=61, time=28),\n",
       "    Message('note_off', channel=0, note=69, velocity=63, time=3),\n",
       "    Message('note_on', channel=0, note=72, velocity=78, time=0),\n",
       "    Message('note_off', channel=0, note=54, velocity=65, time=22),\n",
       "    Message('control_change', channel=0, control=64, value=94, time=46),\n",
       "    Message('note_on', channel=0, note=70, velocity=87, time=1),\n",
       "    Message('control_change', channel=0, control=64, value=66, time=13),\n",
       "    Message('note_off', channel=0, note=72, velocity=65, time=5),\n",
       "    Message('note_on', channel=0, note=57, velocity=79, time=2),\n",
       "    Message('control_change', channel=0, control=64, value=0, time=8),\n",
       "    Message('control_change', channel=0, control=64, value=59, time=45),\n",
       "    Message('control_change', channel=0, control=64, value=72, time=14),\n",
       "    Message('note_on', channel=0, note=61, velocity=79, time=2),\n",
       "    Message('control_change', channel=0, control=64, value=127, time=13),\n",
       "    Message('note_off', channel=0, note=70, velocity=61, time=20),\n",
       "    Message('note_off', channel=0, note=61, velocity=63, time=32),\n",
       "    Message('note_on', channel=0, note=64, velocity=78, time=6),\n",
       "    Message('note_on', channel=0, note=55, velocity=80, time=69),\n",
       "    Message('note_off', channel=0, note=57, velocity=59, time=1),\n",
       "    Message('note_on', channel=0, note=69, velocity=83, time=2),\n",
       "    Message('note_off', channel=0, note=64, velocity=60, time=10),\n",
       "    Message('control_change', channel=0, control=64, value=74, time=52),\n",
       "    Message('note_off', channel=0, note=55, velocity=63, time=12),\n",
       "    Message('control_change', channel=0, control=64, value=0, time=3),\n",
       "    Message('note_on', channel=0, note=74, velocity=87, time=12),\n",
       "    Message('note_on', channel=0, note=53, velocity=85, time=4),\n",
       "    Message('note_off', channel=0, note=69, velocity=62, time=34),\n",
       "    Message('control_change', channel=0, control=64, value=64, time=34),\n",
       "    Message('note_on', channel=0, note=62, velocity=78, time=10),\n",
       "    Message('control_change', channel=0, control=64, value=86, time=5),\n",
       "    Message('control_change', channel=0, control=64, value=127, time=15),\n",
       "    Message('note_off', channel=0, note=74, velocity=59, time=7),\n",
       "    Message('note_on', channel=0, note=69, velocity=73, time=57),\n",
       "    Message('note_off', channel=0, note=62, velocity=60, time=25),\n",
       "    Message('note_off', channel=0, note=53, velocity=60, time=24),\n",
       "    Message('note_on', channel=0, note=54, velocity=77, time=3),\n",
       "    Message('note_on', channel=0, note=72, velocity=86, time=18),\n",
       "    Message('note_off', channel=0, note=69, velocity=65, time=4),\n",
       "    Message('note_off', channel=0, note=54, velocity=66, time=23),\n",
       "    Message('control_change', channel=0, control=64, value=87, time=46),\n",
       "    Message('note_on', channel=0, note=57, velocity=89, time=1),\n",
       "    Message('note_on', channel=0, note=70, velocity=88, time=0),\n",
       "    Message('control_change', channel=0, control=64, value=62, time=13),\n",
       "    Message('note_off', channel=0, note=72, velocity=65, time=8),\n",
       "    Message('control_change', channel=0, control=64, value=0, time=7),\n",
       "    Message('note_on', channel=0, note=61, velocity=75, time=55),\n",
       "    Message('control_change', channel=0, control=64, value=63, time=4),\n",
       "    Message('note_off', channel=0, note=70, velocity=62, time=14),\n",
       "    Message('control_change', channel=0, control=64, value=75, time=1),\n",
       "    Message('control_change', channel=0, control=64, value=127, time=15),\n",
       "    Message('note_off', channel=0, note=61, velocity=63, time=38),\n",
       "    Message('note_on', channel=0, note=64, velocity=76, time=6),\n",
       "    Message('note_on', channel=0, note=65, velocity=45, time=26),\n",
       "    Message('note_on', channel=0, note=55, velocity=80, time=36),\n",
       "    Message('note_on', channel=0, note=69, velocity=83, time=6),\n",
       "    Message('note_off', channel=0, note=57, velocity=62, time=5),\n",
       "    Message('note_off', channel=0, note=65, velocity=0, time=3),\n",
       "    Message('note_off', channel=0, note=64, velocity=61, time=9),\n",
       "    Message('control_change', channel=0, control=64, value=95, time=49),\n",
       "    Message('polytouch', channel=0, note=65, value=0, time=0),\n",
       "    Message('note_off', channel=0, note=55, velocity=63, time=1),\n",
       "    Message('control_change', channel=0, control=64, value=55, time=14),\n",
       "    Message('note_on', channel=0, note=74, velocity=90, time=6),\n",
       "    Message('note_on', channel=0, note=53, velocity=83, time=4),\n",
       "    Message('control_change', channel=0, control=64, value=0, time=4),\n",
       "    Message('note_off', channel=0, note=69, velocity=60, time=15),\n",
       "    Message('note_on', channel=0, note=62, velocity=80, time=54),\n",
       "    Message('control_change', channel=0, control=64, value=68, time=5),\n",
       "    Message('control_change', channel=0, control=64, value=119, time=15),\n",
       "    Message('note_off', channel=0, note=74, velocity=55, time=14),\n",
       "    Message('control_change', channel=0, control=64, value=127, time=1),\n",
       "    Message('note_on', channel=0, note=69, velocity=77, time=54),\n",
       "    Message('note_off', channel=0, note=62, velocity=60, time=40),\n",
       "    Message('note_off', channel=0, note=53, velocity=57, time=8),\n",
       "    Message('note_on', channel=0, note=54, velocity=82, time=25),\n",
       "    Message('note_on', channel=0, note=72, velocity=90, time=18),\n",
       "    Message('note_off', channel=0, note=69, velocity=65, time=4),\n",
       "    Message('note_off', channel=0, note=54, velocity=67, time=16),\n",
       "    Message('control_change', channel=0, control=64, value=74, time=51),\n",
       "    Message('note_on', channel=0, note=55, velocity=92, time=6),\n",
       "    Message('control_change', channel=0, control=64, value=0, time=9),\n",
       "    Message('note_on', channel=0, note=70, velocity=90, time=1),\n",
       "    Message('note_off', channel=0, note=72, velocity=64, time=27),\n",
       "    Message('control_change', channel=0, control=64, value=63, time=46),\n",
       "    Message('control_change', channel=0, control=64, value=83, time=15),\n",
       "    Message('note_off', channel=0, note=70, velocity=64, time=0),\n",
       "    Message('note_on', channel=0, note=62, velocity=84, time=9),\n",
       "    Message('control_change', channel=0, control=64, value=127, time=5),\n",
       "    Message('note_off', channel=0, note=55, velocity=59, time=82),\n",
       "    Message('note_off', channel=0, note=62, velocity=59, time=0),\n",
       "    Message('note_on', channel=0, note=64, velocity=80, time=6),\n",
       "    Message('note_on', channel=0, note=58, velocity=81, time=88),\n",
       "    Message('note_on', channel=0, note=67, velocity=88, time=12),\n",
       "    Message('note_off', channel=0, note=64, velocity=60, time=13),\n",
       "    Message('control_change', channel=0, control=64, value=69, time=6),\n",
       "    Message('control_change', channel=0, control=64, value=0, time=15),\n",
       "    Message('note_off', channel=0, note=58, velocity=64, time=22),\n",
       "    Message('note_on', channel=0, note=57, velocity=92, time=16),\n",
       "    Message('note_on', channel=0, note=69, velocity=81, time=24),\n",
       "    Message('control_change', channel=0, control=64, value=48, time=27),\n",
       "    Message('control_change', channel=0, control=64, value=66, time=15),\n",
       "    Message('note_off', channel=0, note=67, velocity=58, time=1),\n",
       "    Message('control_change', channel=0, control=64, value=83, time=14),\n",
       "    Message('control_change', channel=0, control=64, value=127, time=15),\n",
       "    Message('note_on', channel=0, note=61, velocity=83, time=22),\n",
       "    Message('note_off', channel=0, note=69, velocity=55, time=47),\n",
       "    Message('note_on', channel=0, note=64, velocity=73, time=58),\n",
       "    Message('note_off', channel=0, note=57, velocity=59, time=53),\n",
       "    Message('note_off', channel=0, note=61, velocity=61, time=23),\n",
       "    Message('note_on', channel=0, note=69, velocity=78, time=12),\n",
       "    Message('note_off', channel=0, note=64, velocity=63, time=6),\n",
       "    Message('note_on', channel=0, note=45, velocity=81, time=1),\n",
       "    Message('note_off', channel=0, note=69, velocity=68, time=17),\n",
       "    Message('note_on', channel=0, note=50, velocity=85, time=199),\n",
       "    Message('note_off', channel=0, note=45, velocity=60, time=9),\n",
       "    Message('control_change', channel=0, control=64, value=89, time=35),\n",
       "    Message('control_change', channel=0, control=64, value=73, time=15),\n",
       "    Message('note_on', channel=0, note=62, velocity=90, time=4),\n",
       "    Message('control_change', channel=0, control=64, value=65, time=11),\n",
       "    Message('control_change', channel=0, control=64, value=55, time=15),\n",
       "    Message('control_change', channel=0, control=64, value=0, time=14),\n",
       "    Message('control_change', channel=0, control=64, value=61, time=89),\n",
       "    Message('control_change', channel=0, control=64, value=79, time=15),\n",
       "    Message('control_change', channel=0, control=64, value=127, time=14),\n",
       "    Message('note_on', channel=0, note=54, velocity=69, time=10),\n",
       "    Message('note_on', channel=0, note=57, velocity=77, time=98),\n",
       "    Message('note_off', channel=0, note=62, velocity=58, time=11),\n",
       "    Message('note_off', channel=0, note=54, velocity=62, time=21),\n",
       "    Message('note_off', channel=0, note=50, velocity=52, time=36),\n",
       "    Message('note_on', channel=0, note=48, velocity=76, time=26),\n",
       "    Message('note_on', channel=0, note=60, velocity=79, time=1),\n",
       "    Message('note_off', channel=0, note=57, velocity=63, time=16),\n",
       "    Message('note_off', channel=0, note=48, velocity=61, time=52),\n",
       "    Message('note_on', channel=0, note=46, velocity=84, time=39),\n",
       "    Message('note_on', channel=0, note=58, velocity=87, time=9),\n",
       "    Message('control_change', channel=0, control=64, value=72, time=0),\n",
       "    Message('control_change', channel=0, control=64, value=0, time=15),\n",
       "    Message('note_off', channel=0, note=60, velocity=63, time=17),\n",
       "    Message('control_change', channel=0, control=64, value=69, time=42),\n",
       "    Message('control_change', channel=0, control=64, value=127, time=15),\n",
       "    Message('note_on', channel=0, note=50, velocity=72, time=30),\n",
       "    Message('note_off', channel=0, note=58, velocity=50, time=76),\n",
       "    Message('note_off', channel=0, note=50, velocity=58, time=13),\n",
       "    Message('note_on', channel=0, note=54, velocity=81, time=25),\n",
       "    Message('note_off', channel=0, note=46, velocity=61, time=79),\n",
       "    Message('note_off', channel=0, note=54, velocity=62, time=9),\n",
       "    Message('note_on', channel=0, note=45, velocity=80, time=22),\n",
       "    Message('note_on', channel=0, note=57, velocity=88, time=3),\n",
       "    Message('note_off', channel=0, note=45, velocity=58, time=97),\n",
       "    Message('note_on', channel=0, note=31, velocity=74, time=165),\n",
       "    Message('note_on', channel=0, note=43, velocity=73, time=0),\n",
       "    Message('note_on', channel=0, note=63, velocity=82, time=61),\n",
       "    Message('note_off', channel=0, note=57, velocity=37, time=31),\n",
       "    Message('control_change', channel=0, control=64, value=66, time=78),\n",
       "    Message('control_change', channel=0, control=64, value=0, time=15),\n",
       "    Message('note_on', channel=0, note=51, velocity=51, time=128),\n",
       "    Message('control_change', channel=0, control=64, value=71, time=110),\n",
       "    Message('note_on', channel=0, note=58, velocity=50, time=9),\n",
       "    Message('note_off', channel=0, note=63, velocity=60, time=6),\n",
       "    Message('control_change', channel=0, control=64, value=127, time=0),\n",
       "    Message('note_off', channel=0, note=51, velocity=58, time=35),\n",
       "    Message('note_on', channel=0, note=62, velocity=68, time=44),\n",
       "    Message('note_off', channel=0, note=58, velocity=61, time=0),\n",
       "    Message('note_on', channel=0, note=60, velocity=71, time=71),\n",
       "    Message('note_off', channel=0, note=62, velocity=62, time=17),\n",
       "    Message('note_off', channel=0, note=31, velocity=58, time=12),\n",
       "    Message('note_off', channel=0, note=43, velocity=54, time=9),\n",
       "    Message('note_on', channel=0, note=51, velocity=72, time=42),\n",
       "    Message('note_off', channel=0, note=60, velocity=51, time=18),\n",
       "    Message('note_on', channel=0, note=57, velocity=73, time=62),\n",
       "    Message('note_off', channel=0, note=51, velocity=63, time=3),\n",
       "    Message('note_on', channel=0, note=60, velocity=72, time=61),\n",
       "    Message('note_off', channel=0, note=57, velocity=63, time=14),\n",
       "    Message('note_off', channel=0, note=60, velocity=66, time=20),\n",
       "    Message('note_on', channel=0, note=45, velocity=85, time=39),\n",
       "    Message('note_on', channel=0, note=33, velocity=74, time=4),\n",
       "    Message('note_on', channel=0, note=63, velocity=89, time=42),\n",
       "    Message('note_on', channel=0, note=69, velocity=79, time=82),\n",
       "    Message('note_off', channel=0, note=33, velocity=57, time=8),\n",
       "    Message('note_off', channel=0, note=63, velocity=61, time=7),\n",
       "    Message('note_off', channel=0, note=45, velocity=61, time=14),\n",
       "    Message('note_on', channel=0, note=72, velocity=86, time=61),\n",
       "    Message('note_off', channel=0, note=69, velocity=61, time=18),\n",
       "    Message('note_on', channel=0, note=43, velocity=83, time=40),\n",
       "    Message('note_on', channel=0, note=31, velocity=76, time=1),\n",
       "    Message('note_on', channel=0, note=75, velocity=95, time=32),\n",
       "    Message('note_off', channel=0, note=72, velocity=63, time=34),\n",
       "    Message('note_off', channel=0, note=31, velocity=57, time=14),\n",
       "    Message('note_off', channel=0, note=43, velocity=58, time=0),\n",
       "    Message('note_off', channel=0, note=75, velocity=59, time=55),\n",
       "    Message('note_on', channel=0, note=42, velocity=82, time=65),\n",
       "    Message('note_on', channel=0, note=30, velocity=74, time=2),\n",
       "    Message('note_on', channel=0, note=74, velocity=95, time=52),\n",
       "    Message('control_change', channel=0, control=64, value=73, time=23),\n",
       "    Message('control_change', channel=0, control=64, value=0, time=15),\n",
       "    Message('control_change', channel=0, control=64, value=66, time=96),\n",
       "    Message('control_change', channel=0, control=64, value=96, time=15),\n",
       "    Message('note_on', channel=0, note=62, velocity=68, time=2),\n",
       "    Message('control_change', channel=0, control=64, value=127, time=13),\n",
       "    Message('note_off', channel=0, note=74, velocity=58, time=12),\n",
       "    Message('note_off', channel=0, note=30, velocity=60, time=1),\n",
       "    Message('note_on', channel=0, note=69, velocity=73, time=43),\n",
       "    Message('note_off', channel=0, note=42, velocity=61, time=8),\n",
       "    Message('note_off', channel=0, note=62, velocity=61, time=11),\n",
       "    Message('note_on', channel=0, note=72, velocity=86, time=50),\n",
       "    Message('note_off', channel=0, note=69, velocity=62, time=9),\n",
       "    Message('control_change', channel=0, control=64, value=86, time=58),\n",
       "    Message('note_on', channel=0, note=70, velocity=88, time=2),\n",
       "    Message('note_on', channel=0, note=45, velocity=85, time=3),\n",
       "    Message('note_on', channel=0, note=33, velocity=75, time=6),\n",
       "    Message('control_change', channel=0, control=64, value=0, time=4),\n",
       "    Message('note_off', channel=0, note=72, velocity=66, time=18),\n",
       "    Message('control_change', channel=0, control=64, value=39, time=42),\n",
       "    Message('note_on', channel=0, note=62, velocity=83, time=2),\n",
       "    Message('control_change', channel=0, control=64, value=70, time=13),\n",
       "    Message('note_off', channel=0, note=70, velocity=63, time=14),\n",
       "    Message('control_change', channel=0, control=64, value=127, time=1),\n",
       "    Message('note_off', channel=0, note=33, velocity=56, time=40),\n",
       "    Message('note_on', channel=0, note=67, velocity=85, time=7),\n",
       "    Message('note_off', channel=0, note=45, velocity=61, time=2),\n",
       "    Message('note_off', channel=0, note=62, velocity=62, time=9),\n",
       "    Message('note_on', channel=0, note=70, velocity=81, time=64),\n",
       "    Message('note_off', channel=0, note=67, velocity=64, time=10),\n",
       "    Message('note_off', channel=0, note=70, velocity=67, time=30),\n",
       "    Message('note_on', channel=0, note=43, velocity=72, time=51),\n",
       "    Message('note_on', channel=0, note=31, velocity=68, time=6),\n",
       "    Message('note_on', channel=0, note=74, velocity=91, time=14),\n",
       "    Message('control_change', channel=0, control=64, value=116, time=3),\n",
       "    Message('control_change', channel=0, control=64, value=66, time=15),\n",
       "    Message('control_change', channel=0, control=64, value=0, time=15),\n",
       "    Message('note_on', channel=0, note=79, velocity=83, time=64),\n",
       "    Message('control_change', channel=0, control=64, value=65, time=10),\n",
       "    Message('control_change', channel=0, control=64, value=79, time=15),\n",
       "    Message('control_change', channel=0, control=64, value=127, time=22),\n",
       "    Message('note_off', channel=0, note=43, velocity=58, time=11),\n",
       "    Message('note_off', channel=0, note=31, velocity=62, time=23),\n",
       "    Message('note_on', channel=0, note=82, velocity=77, time=17),\n",
       "    Message('note_off', channel=0, note=79, velocity=62, time=10),\n",
       "    Message('note_on', channel=0, note=86, velocity=87, time=74),\n",
       "    Message('note_off', channel=0, note=82, velocity=66, time=5),\n",
       "    Message('note_off', channel=0, note=86, velocity=65, time=20),\n",
       "    Message('note_off', channel=0, note=74, velocity=64, time=15),\n",
       "    Message('note_on', channel=0, note=27, velocity=73, time=134),\n",
       "    Message('note_on', channel=0, note=39, velocity=70, time=2),\n",
       "    Message('note_on', channel=0, note=60, velocity=89, time=74),\n",
       "    Message('control_change', channel=0, control=64, value=76, time=120),\n",
       "    Message('control_change', channel=0, control=64, value=0, time=14),\n",
       "    Message('note_on', channel=0, note=48, velocity=77, time=67),\n",
       "    Message('control_change', channel=0, control=64, value=59, time=22),\n",
       "    Message('control_change', channel=0, control=64, value=79, time=15),\n",
       "    Message('note_off', channel=0, note=60, velocity=61, time=15),\n",
       "    Message('control_change', channel=0, control=64, value=127, time=0),\n",
       "    Message('note_on', channel=0, note=55, velocity=81, time=32),\n",
       "    Message('note_off', channel=0, note=48, velocity=58, time=18),\n",
       "    Message('note_on', channel=0, note=58, velocity=83, time=71),\n",
       "    Message('note_off', channel=0, note=55, velocity=62, time=8),\n",
       "    Message('note_on', channel=0, note=57, velocity=92, time=70),\n",
       "    Message('note_off', channel=0, note=58, velocity=58, time=9),\n",
       "    Message('note_off', channel=0, note=27, velocity=56, time=63),\n",
       "    Message('note_off', channel=0, note=57, velocity=55, time=11),\n",
       "    Message('note_on', channel=0, note=48, velocity=78, time=4),\n",
       "    Message('note_off', channel=0, note=39, velocity=58, time=48),\n",
       "    Message('note_off', channel=0, note=48, velocity=64, time=5),\n",
       "    Message('note_on', channel=0, note=53, velocity=85, time=18),\n",
       "    Message('note_on', channel=0, note=57, velocity=80, time=75),\n",
       "    Message('note_off', channel=0, note=53, velocity=62, time=4),\n",
       "    Message('control_change', channel=0, control=64, value=74, time=31),\n",
       "    Message('note_off', channel=0, note=57, velocity=64, time=1),\n",
       "    Message('control_change', channel=0, control=64, value=0, time=13),\n",
       "    Message('note_on', channel=0, note=41, velocity=84, time=22),\n",
       "    Message('note_on', channel=0, note=29, velocity=72, time=4),\n",
       "    Message('note_on', channel=0, note=60, velocity=92, time=11),\n",
       "    Message('control_change', channel=0, control=64, value=24, time=24),\n",
       "    Message('control_change', channel=0, control=64, value=67, time=15),\n",
       "    Message('control_change', channel=0, control=64, value=90, time=14),\n",
       "    Message('note_off', channel=0, note=41, velocity=61, time=1),\n",
       "    Message('control_change', channel=0, control=64, value=127, time=14),\n",
       "    Message('note_off', channel=0, note=29, velocity=63, time=1),\n",
       "    Message('note_on', channel=0, note=65, velocity=89, time=9),\n",
       "    Message('note_off', channel=0, note=60, velocity=62, time=29),\n",
       "    Message('note_on', channel=0, note=69, velocity=83, time=44),\n",
       "    Message('note_off', channel=0, note=65, velocity=63, time=21),\n",
       "    Message('note_on', channel=0, note=39, velocity=78, time=41),\n",
       "    Message('note_on', channel=0, note=27, velocity=74, time=5),\n",
       "    Message('note_on', channel=0, note=72, velocity=95, time=17),\n",
       "    Message('note_off', channel=0, note=69, velocity=60, time=3),\n",
       "    Message('note_off', channel=0, note=39, velocity=61, time=65),\n",
       "    Message('note_off', channel=0, note=27, velocity=60, time=6),\n",
       "    Message('note_on', channel=0, note=38, velocity=78, time=96),\n",
       "    Message('note_on', channel=0, note=26, velocity=73, time=3),\n",
       "    Message('control_change', channel=0, control=64, value=96, time=8),\n",
       "    Message('control_change', channel=0, control=64, value=60, time=15),\n",
       "    Message('note_on', channel=0, note=70, velocity=91, time=8),\n",
       "    Message('control_change', channel=0, control=64, value=0, time=7),\n",
       "    Message('note_off', channel=0, note=72, velocity=64, time=19),\n",
       "    Message('control_change', channel=0, control=64, value=55, time=40),\n",
       "    Message('control_change', channel=0, control=64, value=74, time=15),\n",
       "    Message('control_change', channel=0, control=64, value=127, time=14),\n",
       "    Message('note_off', channel=0, note=26, velocity=60, time=41),\n",
       "    Message('note_on', channel=0, note=58, velocity=76, time=15),\n",
       "    Message('note_off', channel=0, note=70, velocity=57, time=21),\n",
       "    Message('note_off', channel=0, note=38, velocity=58, time=26),\n",
       "    Message('note_on', channel=0, note=65, velocity=75, time=25),\n",
       "    Message('note_off', channel=0, note=58, velocity=57, time=5),\n",
       "    Message('note_on', channel=0, note=69, velocity=80, time=58),\n",
       "    Message('note_off', channel=0, note=65, velocity=64, time=29),\n",
       "    Message('control_change', channel=0, control=64, value=86, time=48),\n",
       "    Message('note_on', channel=0, note=67, velocity=85, time=6),\n",
       "    Message('control_change', channel=0, control=64, value=58, time=9),\n",
       "    Message('note_on', channel=0, note=41, velocity=83, time=1),\n",
       "    Message('note_on', channel=0, note=29, velocity=71, time=5),\n",
       "    Message('note_off', channel=0, note=69, velocity=65, time=6),\n",
       "    Message('control_change', channel=0, control=64, value=0, time=3),\n",
       "    Message('control_change', channel=0, control=64, value=64, time=44),\n",
       "    Message('control_change', channel=0, control=64, value=89, time=15),\n",
       "    Message('note_on', channel=0, note=58, velocity=73, time=4),\n",
       "    Message('control_change', channel=0, control=64, value=127, time=11),\n",
       "    Message('note_off', channel=0, note=67, velocity=56, time=24),\n",
       "    Message('note_off', channel=0, note=41, velocity=60, time=12),\n",
       "    Message('note_off', channel=0, note=29, velocity=62, time=3),\n",
       "    Message('note_on', channel=0, note=63, velocity=80, time=20),\n",
       "    Message('note_off', channel=0, note=58, velocity=62, time=1),\n",
       "    Message('note_on', channel=0, note=67, velocity=78, time=69),\n",
       "    Message('note_off', channel=0, note=63, velocity=63, time=10),\n",
       "    Message('note_off', channel=0, note=67, velocity=67, time=14),\n",
       "    Message('note_on', channel=0, note=27, velocity=73, time=76),\n",
       "    Message('note_on', channel=0, note=39, velocity=75, time=4),\n",
       "    Message('control_change', channel=0, control=64, value=66, time=11),\n",
       "    Message('note_on', channel=0, note=70, velocity=81, time=14),\n",
       "    Message('control_change', channel=0, control=64, value=0, time=1),\n",
       "    Message('control_change', channel=0, control=64, value=55, time=74),\n",
       "    Message('note_on', channel=0, note=75, velocity=81, time=4),\n",
       "    Message('control_change', channel=0, control=64, value=74, time=11),\n",
       "    Message('control_change', channel=0, control=64, value=127, time=15),\n",
       "    Message('note_off', channel=0, note=39, velocity=60, time=48),\n",
       "    Message('note_off', channel=0, note=27, velocity=60, time=1),\n",
       "    Message('note_on', channel=0, note=79, velocity=80, time=0),\n",
       "    Message('note_off', channel=0, note=75, velocity=63, time=8),\n",
       "    Message('note_on', channel=0, note=82, velocity=77, time=73),\n",
       "    Message('note_off', channel=0, note=79, velocity=62, time=16),\n",
       "    Message('note_off', channel=0, note=82, velocity=71, time=5),\n",
       "    Message('note_off', channel=0, note=70, velocity=64, time=23),\n",
       "    Message('note_on', channel=0, note=36, velocity=74, time=89),\n",
       "    Message('note_on', channel=0, note=24, velocity=69, time=3),\n",
       "    Message('note_on', channel=0, note=57, velocity=91, time=62),\n",
       "    Message('control_change', channel=0, control=64, value=93, time=57),\n",
       "    Message('control_change', channel=0, control=64, value=68, time=15),\n",
       "    Message('control_change', channel=0, control=64, value=0, time=15),\n",
       "    Message('note_on', channel=0, note=45, velocity=82, time=81),\n",
       "    Message('note_off', channel=0, note=57, velocity=48, time=25),\n",
       "    Message('control_change', channel=0, control=64, value=65, time=49),\n",
       "    Message('control_change', channel=0, control=64, value=72, time=15),\n",
       "    Message('note_on', channel=0, note=51, velocity=80, time=2),\n",
       "    Message('control_change', channel=0, control=64, value=96, time=13),\n",
       "    Message('note_off', channel=0, note=45, velocity=60, time=11),\n",
       "    Message('control_change', channel=0, control=64, value=127, time=4),\n",
       "    Message('note_on', channel=0, note=55, velocity=78, time=39),\n",
       "    Message('note_off', channel=0, note=51, velocity=63, time=14),\n",
       "    Message('note_on', channel=0, note=54, velocity=85, time=59),\n",
       "    Message('note_off', channel=0, note=55, velocity=62, time=25),\n",
       "    Message('note_off', channel=0, note=24, velocity=49, time=9),\n",
       "    Message('note_on', channel=0, note=45, velocity=80, time=42),\n",
       "    Message('note_off', channel=0, note=54, velocity=59, time=5),\n",
       "    Message('note_off', channel=0, note=36, velocity=53, time=21),\n",
       "    Message('note_on', channel=0, note=50, velocity=81, time=41),\n",
       "    Message('note_off', channel=0, note=45, velocity=62, time=10),\n",
       "    Message('note_on', channel=0, note=54, velocity=76, time=63),\n",
       "    Message('note_off', channel=0, note=50, velocity=63, time=6),\n",
       "    Message('control_change', channel=0, control=64, value=68, time=6),\n",
       "    Message('control_change', channel=0, control=64, value=0, time=15),\n",
       "    Message('note_off', channel=0, note=54, velocity=62, time=12),\n",
       "    Message('note_on', channel=0, note=38, velocity=80, time=18),\n",
       "    Message('note_on', channel=0, note=26, velocity=76, time=0),\n",
       "    Message('note_on', channel=0, note=57, velocity=89, time=29),\n",
       "    Message('control_change', channel=0, control=64, value=63, time=15),\n",
       "    Message('control_change', channel=0, control=64, value=80, time=15),\n",
       "    Message('note_off', channel=0, note=26, velocity=57, time=15),\n",
       "    Message('control_change', channel=0, control=64, value=127, time=0),\n",
       "    Message('note_on', channel=0, note=62, velocity=87, time=36),\n",
       "    Message('note_off', channel=0, note=57, velocity=62, time=3),\n",
       "    Message('note_off', channel=0, note=38, velocity=52, time=12),\n",
       "    Message('note_on', channel=0, note=66, velocity=87, time=57),\n",
       "    Message('note_off', channel=0, note=62, velocity=54, time=14),\n",
       "    Message('control_change', channel=0, control=64, value=73, time=27),\n",
       "    Message('note_on', channel=0, note=40, velocity=81, time=2),\n",
       "    Message('note_on', channel=0, note=28, velocity=73, time=4),\n",
       "    Message('control_change', channel=0, control=64, value=67, time=9),\n",
       "    Message('control_change', channel=0, control=64, value=74, time=15),\n",
       "    Message('note_off', channel=0, note=40, velocity=66, time=5),\n",
       "    Message('note_on', channel=0, note=69, velocity=85, time=3),\n",
       "    Message('note_off', channel=0, note=66, velocity=62, time=0),\n",
       "    Message('note_off', channel=0, note=28, velocity=61, time=2),\n",
       "    Message('control_change', channel=0, control=64, value=127, time=5),\n",
       "    Message('note_off', channel=0, note=69, velocity=67, time=41),\n",
       "    Message('note_on', channel=0, note=42, velocity=91, time=140),\n",
       "    Message('note_on', channel=0, note=30, velocity=83, time=1),\n",
       "    Message('control_change', channel=0, control=64, value=72, time=2),\n",
       "    Message('control_change', channel=0, control=64, value=0, time=14),\n",
       "    Message('note_on', channel=0, note=74, velocity=97, time=15),\n",
       "    Message('control_change', channel=0, control=64, value=53, time=74),\n",
       "    Message('control_change', channel=0, control=64, value=83, time=15),\n",
       "    Message('control_change', channel=0, control=64, value=127, time=14),\n",
       "    Message('note_off', channel=0, note=74, velocity=54, time=42),\n",
       "    Message('note_on', channel=0, note=62, velocity=80, time=5),\n",
       "    Message('note_off', channel=0, note=30, velocity=60, time=17),\n",
       "    Message('note_on', channel=0, note=69, velocity=82, time=55),\n",
       "    Message('note_off', channel=0, note=42, velocity=61, time=3),\n",
       "    Message('note_off', channel=0, note=62, velocity=62, time=9),\n",
       "    Message('note_on', channel=0, note=72, velocity=93, time=57),\n",
       "    Message('note_off', channel=0, note=69, velocity=65, time=4),\n",
       "    Message('control_change', channel=0, control=64, value=66, time=46),\n",
       "    Message('control_change', channel=0, control=64, value=0, time=14),\n",
       "    Message('note_on', channel=0, note=45, velocity=91, time=1),\n",
       "    Message('note_on', channel=0, note=33, velocity=81, time=3),\n",
       "    Message('note_on', channel=0, note=70, velocity=88, time=3),\n",
       "    Message('note_off', channel=0, note=72, velocity=66, time=26),\n",
       "    Message('control_change', channel=0, control=64, value=55, time=27),\n",
       "    Message('control_change', channel=0, control=64, value=74, time=16),\n",
       "    Message('note_on', channel=0, note=62, velocity=88, time=8),\n",
       "    Message('control_change', channel=0, control=64, value=127, time=6),\n",
       "    Message('note_off', channel=0, note=70, velocity=61, time=15),\n",
       "    Message('note_off', channel=0, note=62, velocity=64, time=34),\n",
       "    Message('note_off', channel=0, note=33, velocity=60, time=5),\n",
       "    Message('note_on', channel=0, note=67, velocity=89, time=3),\n",
       "    Message('note_off', channel=0, note=45, velocity=61, time=0),\n",
       "    Message('note_on', channel=0, note=70, velocity=89, time=78),\n",
       "    Message('note_off', channel=0, note=67, velocity=65, time=15),\n",
       "    Message('note_off', channel=0, note=70, velocity=67, time=27),\n",
       "    Message('control_change', channel=0, control=64, value=97, time=38),\n",
       "    Message('note_on', channel=0, note=43, velocity=92, time=2),\n",
       "    Message('note_on', channel=0, note=31, velocity=87, time=5),\n",
       "    Message('note_on', channel=0, note=74, velocity=102, time=5),\n",
       "    Message('control_change', channel=0, control=64, value=47, time=3),\n",
       "    Message('control_change', channel=0, control=64, value=0, time=15),\n",
       "    Message('control_change', channel=0, control=64, value=64, time=60),\n",
       "    Message('note_on', channel=0, note=79, velocity=94, time=2),\n",
       "    Message('control_change', channel=0, control=64, value=108, time=13),\n",
       "    Message('control_change', channel=0, control=64, value=127, time=14),\n",
       "    Message('note_off', channel=0, note=31, velocity=56, time=25),\n",
       "    Message('note_off', channel=0, note=43, velocity=61, time=11),\n",
       "    Message('note_on', channel=0, note=82, velocity=92, time=24),\n",
       "    Message('note_off', channel=0, note=79, velocity=64, time=13),\n",
       "    Message('note_on', channel=0, note=45, velocity=98, time=32),\n",
       "    Message('note_on', channel=0, note=33, velocity=76, time=7),\n",
       "    Message('note_on', channel=0, note=86, velocity=100, time=20),\n",
       "    Message('note_off', channel=0, note=33, velocity=63, time=9),\n",
       "    Message('note_off', channel=0, note=82, velocity=65, time=0),\n",
       "    Message('note_off', channel=0, note=45, velocity=64, time=13),\n",
       "    Message('note_off', channel=0, note=86, velocity=68, time=8),\n",
       "    Message('note_off', channel=0, note=74, velocity=66, time=26),\n",
       "    Message('note_on', channel=0, note=46, velocity=95, time=156),\n",
       "    Message('note_on', channel=0, note=34, velocity=88, time=2),\n",
       "    Message('note_on', channel=0, note=67, velocity=90, time=15),\n",
       "    Message('control_change', channel=0, control=64, value=91, time=9),\n",
       "    Message('control_change', channel=0, control=64, value=0, time=15),\n",
       "    Message('control_change', channel=0, control=64, value=64, time=134),\n",
       "    Message('note_on', channel=0, note=55, velocity=86, time=15),\n",
       "    Message('control_change', channel=0, control=64, value=127, time=0),\n",
       "    Message('note_off', channel=0, note=67, velocity=53, time=14),\n",
       "    Message('note_off', channel=0, note=34, velocity=61, time=19),\n",
       "    Message('note_off', channel=0, note=55, velocity=64, time=16),\n",
       "    Message('note_off', channel=0, note=46, velocity=62, time=23),\n",
       "    Message('note_on', channel=0, note=62, velocity=91, time=12),\n",
       "    Message('note_on', channel=0, note=65, velocity=82, time=62),\n",
       "    Message('note_off', channel=0, note=62, velocity=66, time=12),\n",
       "    Message('control_change', channel=0, control=64, value=72, time=42),\n",
       "    Message('control_change', channel=0, control=64, value=0, time=15),\n",
       "    Message('note_on', channel=0, note=50, velocity=94, time=4),\n",
       "    Message('note_on', channel=0, note=63, velocity=95, time=5),\n",
       "    Message('note_on', channel=0, note=38, velocity=84, time=2),\n",
       "    Message('note_off', channel=0, note=65, velocity=65, time=27),\n",
       "    Message('control_change', channel=0, control=64, value=32, time=21),\n",
       "    Message('control_change', channel=0, control=64, value=80, time=15),\n",
       "    Message('control_change', channel=0, control=64, value=127, time=15),\n",
       "    Message('note_on', channel=0, note=55, velocity=88, time=12),\n",
       "    Message('note_off', channel=0, note=38, velocity=57, time=35),\n",
       "    Message('note_off', channel=0, note=63, velocity=62, time=1),\n",
       "    Message('note_off', channel=0, note=50, velocity=62, time=15),\n",
       "    Message('note_on', channel=0, note=60, velocity=85, time=24),\n",
       "    Message('note_off', channel=0, note=55, velocity=64, time=2),\n",
       "    Message('note_on', channel=0, note=63, velocity=92, time=78),\n",
       "    Message('note_off', channel=0, note=60, velocity=65, time=7),\n",
       "    Message('note_off', channel=0, note=63, velocity=67, time=29),\n",
       "    Message('control_change', channel=0, control=64, value=103, time=19),\n",
       "    Message('control_change', channel=0, control=64, value=31, time=15),\n",
       "    Message('control_change', channel=0, control=64, value=0, time=14),\n",
       "    Message('note_on', channel=0, note=48, velocity=97, time=26),\n",
       "    Message('note_on', channel=0, note=67, velocity=98, time=0),\n",
       "    Message('note_on', channel=0, note=36, velocity=82, time=2),\n",
       "    Message('note_off', channel=0, note=48, velocity=63, time=43),\n",
       "    Message('control_change', channel=0, control=64, value=83, time=3),\n",
       "    Message('note_off', channel=0, note=36, velocity=64, time=8),\n",
       "    Message('control_change', channel=0, control=64, value=127, time=7),\n",
       "    Message('note_on', channel=0, note=72, velocity=92, time=42),\n",
       "    Message('note_off', channel=0, note=67, velocity=63, time=24),\n",
       "    Message('note_on', channel=0, note=75, velocity=98, time=89),\n",
       "    Message('note_off', channel=0, note=72, velocity=63, time=32),\n",
       "    Message('control_change', channel=0, control=64, value=65, time=15),\n",
       "    Message('control_change', channel=0, control=64, value=0, time=14),\n",
       "    Message('note_on', channel=0, note=45, velocity=94, time=40),\n",
       "    Message('note_off', channel=0, note=75, velocity=63, time=0),\n",
       "    Message('note_on', channel=0, note=33, velocity=80, time=3),\n",
       "    Message('note_on', channel=0, note=79, velocity=105, time=2),\n",
       "    Message('note_off', channel=0, note=33, velocity=68, time=30),\n",
       "    Message('control_change', channel=0, control=64, value=127, time=14),\n",
       "    Message('note_off', channel=0, note=45, velocity=64, time=4),\n",
       "    Message('note_off', channel=0, note=79, velocity=58, time=105),\n",
       "    Message('control_change', channel=0, control=64, value=76, time=39),\n",
       "    Message('control_change', channel=0, control=64, value=0, time=15),\n",
       "    Message('note_on', channel=0, note=78, velocity=98, time=16),\n",
       "    Message('note_on', channel=0, note=69, velocity=91, time=2),\n",
       "    Message('note_on', channel=0, note=50, velocity=88, time=2),\n",
       "    Message('note_on', channel=0, note=74, velocity=81, time=4),\n",
       "    Message('note_on', channel=0, note=38, velocity=76, time=1),\n",
       "    Message('note_off', channel=0, note=74, velocity=55, time=152),\n",
       "    Message('control_change', channel=0, control=64, value=57, time=15),\n",
       "    Message('control_change', channel=0, control=64, value=127, time=15),\n",
       "    Message('note_off', channel=0, note=50, velocity=55, time=52),\n",
       "    Message('note_off', channel=0, note=69, velocity=53, time=27),\n",
       "    Message('note_off', channel=0, note=38, velocity=60, time=55),\n",
       "    Message('note_off', channel=0, note=78, velocity=39, time=64),\n",
       "    Message('note_on', channel=0, note=43, velocity=85, time=511),\n",
       "    Message('note_on', channel=0, note=79, velocity=103, time=3),\n",
       "    Message('note_on', channel=0, note=31, velocity=79, time=1),\n",
       "    Message('note_on', channel=0, note=70, velocity=92, time=3),\n",
       "    Message('note_on', channel=0, note=74, velocity=91, time=2),\n",
       "    Message('control_change', channel=0, control=64, value=92, time=31),\n",
       "    Message('control_change', channel=0, control=64, value=0, time=15),\n",
       "    Message('control_change', channel=0, control=64, value=43, time=734),\n",
       "    Message('control_change', channel=0, control=64, value=54, time=15),\n",
       "    Message('control_change', channel=0, control=64, value=60, time=15),\n",
       "    Message('control_change', channel=0, control=64, value=64, time=15),\n",
       "    Message('control_change', channel=0, control=64, value=67, time=14),\n",
       "    Message('control_change', channel=0, control=64, value=73, time=15),\n",
       "    Message('control_change', channel=0, control=64, value=86, time=15),\n",
       "    Message('control_change', channel=0, control=64, value=127, time=15),\n",
       "    Message('note_off', channel=0, note=70, velocity=58, time=315),\n",
       "    Message('note_off', channel=0, note=43, velocity=33, time=21),\n",
       "    Message('note_off', channel=0, note=31, velocity=30, time=104),\n",
       "    Message('note_off', channel=0, note=79, velocity=50, time=1),\n",
       "    Message('note_off', channel=0, note=74, velocity=40, time=1),\n",
       "    Message('control_change', channel=0, control=64, value=107, time=670),\n",
       "    Message('control_change', channel=0, control=64, value=94, time=15),\n",
       "    Message('control_change', channel=0, control=64, value=84, time=15),\n",
       "    Message('control_change', channel=0, control=64, value=77, time=15),\n",
       "    Message('control_change', channel=0, control=64, value=72, time=15),\n",
       "    Message('control_change', channel=0, control=64, value=67, time=15),\n",
       "    Message('control_change', channel=0, control=64, value=63, time=15),\n",
       "    Message('control_change', channel=0, control=64, value=47, time=14),\n",
       "    Message('control_change', channel=0, control=64, value=0, time=15),\n",
       "    Message('control_change', channel=0, control=64, value=64, time=222),\n",
       "    Message('control_change', channel=0, control=64, value=101, time=15),\n",
       "    Message('control_change', channel=0, control=64, value=127, time=14),\n",
       "    Message('note_on', channel=0, note=67, velocity=71, time=189),\n",
       "    Message('note_on', channel=0, note=51, velocity=41, time=10),\n",
       "    Message('note_on', channel=0, note=55, velocity=38, time=5),\n",
       "    Message('note_on', channel=0, note=61, velocity=56, time=2),\n",
       "    Message('note_on', channel=0, note=58, velocity=47, time=11),\n",
       "    Message('note_off', channel=0, note=61, velocity=54, time=189),\n",
       "    Message('note_off', channel=0, note=51, velocity=59, time=2),\n",
       "    Message('note_on', channel=0, note=50, velocity=39, time=350),\n",
       "    Message('note_on', channel=0, note=62, velocity=69, time=2),\n",
       "    Message('note_on', channel=0, note=63, velocity=68, time=379),\n",
       "    Message('note_off', channel=0, note=62, velocity=59, time=7),\n",
       "    Message('note_on', channel=0, note=49, velocity=43, time=1),\n",
       "    Message('note_off', channel=0, note=50, velocity=48, time=10),\n",
       "    Message('control_change', channel=0, control=64, value=78, time=15),\n",
       "    Message('control_change', channel=0, control=64, value=62, time=15),\n",
       "    Message('control_change', channel=0, control=64, value=0, time=15),\n",
       "    Message('control_change', channel=0, control=64, value=38, time=59),\n",
       "    Message('control_change', channel=0, control=64, value=64, time=15),\n",
       "    Message('control_change', channel=0, control=64, value=70, time=15),\n",
       "    Message('control_change', channel=0, control=64, value=93, time=14),\n",
       "    Message('control_change', channel=0, control=64, value=127, time=15),\n",
       "    Message('note_off', channel=0, note=67, velocity=34, time=148),\n",
       "    Message('note_off', channel=0, note=63, velocity=39, time=10),\n",
       "    Message('note_on', channel=0, note=64, velocity=61, time=112),\n",
       "    Message('note_off', channel=0, note=58, velocity=58, time=198),\n",
       "    Message('note_off', channel=0, note=64, velocity=36, time=94),\n",
       "    Message('note_off', channel=0, note=55, velocity=38, time=58),\n",
       "    Message('note_on', channel=0, note=45, velocity=39, time=21),\n",
       "    Message('note_on', channel=0, note=65, velocity=56, time=23),\n",
       "    Message('note_on', channel=0, note=61, velocity=45, time=11),\n",
       "    Message('control_change', channel=0, control=64, value=96, time=2),\n",
       "    Message('note_on', channel=0, note=57, velocity=44, time=0),\n",
       "    Message('control_change', channel=0, control=64, value=75, time=14),\n",
       "    Message('control_change', channel=0, control=64, value=62, time=15),\n",
       "    Message('control_change', channel=0, control=64, value=0, time=15),\n",
       "    Message('note_off', channel=0, note=49, velocity=43, time=10),\n",
       "    Message('control_change', channel=0, control=64, value=54, time=64),\n",
       "    Message('control_change', channel=0, control=64, value=65, time=14),\n",
       "    Message('control_change', channel=0, control=64, value=70, time=15),\n",
       "    Message('control_change', channel=0, control=64, value=85, time=15),\n",
       "    Message('control_change', channel=0, control=64, value=127, time=15),\n",
       "    Message('note_off', channel=0, note=57, velocity=38, time=11),\n",
       "    Message('note_off', channel=0, note=65, velocity=53, time=228),\n",
       "    Message('note_on', channel=0, note=64, velocity=48, time=69),\n",
       "    Message('note_on', channel=0, note=55, velocity=40, time=22),\n",
       "    Message('note_off', channel=0, note=61, velocity=17, time=49),\n",
       "    Message('note_off', channel=0, note=55, velocity=37, time=75),\n",
       "    Message('note_off', channel=0, note=64, velocity=51, time=225),\n",
       "    Message('note_off', channel=0, note=45, velocity=38, time=7),\n",
       "    Message('note_on', channel=0, note=62, velocity=57, time=18),\n",
       "    Message('note_on', channel=0, note=53, velocity=44, time=17),\n",
       "    Message('note_on', channel=0, note=46, velocity=34, time=8),\n",
       "    Message('control_change', channel=0, control=64, value=104, time=4),\n",
       "    Message('control_change', channel=0, control=64, value=84, time=15),\n",
       "    Message('control_change', channel=0, control=64, value=70, time=15),\n",
       "    Message('control_change', channel=0, control=64, value=58, time=14),\n",
       "    Message('control_change', channel=0, control=64, value=0, time=15),\n",
       "    Message('control_change', channel=0, control=64, value=24, time=30),\n",
       "    Message('control_change', channel=0, control=64, value=54, time=15),\n",
       "    Message('control_change', channel=0, control=64, value=62, time=14),\n",
       "    Message('control_change', channel=0, control=64, value=65, time=15),\n",
       "    Message('control_change', channel=0, control=64, value=68, time=15),\n",
       "    Message('control_change', channel=0, control=64, value=77, time=15),\n",
       "    Message('note_off', channel=0, note=53, velocity=50, time=15),\n",
       "    Message('control_change', channel=0, control=64, value=127, time=0),\n",
       "    Message('note_off', channel=0, note=46, velocity=42, time=274),\n",
       "    Message('note_on', channel=0, note=64, velocity=60, time=43),\n",
       "    Message('note_on', channel=0, note=43, velocity=36, time=5),\n",
       "    Message('note_on', channel=0, note=52, velocity=45, time=17),\n",
       "    Message('note_off', channel=0, note=62, velocity=58, time=18),\n",
       "    Message('control_change', channel=0, control=64, value=97, time=6),\n",
       "    Message('control_change', channel=0, control=64, value=74, time=15),\n",
       "    Message('control_change', channel=0, control=64, value=65, time=14),\n",
       "    Message('control_change', channel=0, control=64, value=49, time=16),\n",
       "    Message('control_change', channel=0, control=64, value=0, time=15),\n",
       "    Message('control_change', channel=0, control=64, value=29, time=15),\n",
       "    Message('control_change', channel=0, control=64, value=47, time=15),\n",
       "    Message('control_change', channel=0, control=64, value=55, time=15),\n",
       "    Message('control_change', channel=0, control=64, value=60, time=14),\n",
       "    Message('control_change', channel=0, control=64, value=63, time=15),\n",
       "    Message('control_change', channel=0, control=64, value=66, time=15),\n",
       "    Message('control_change', channel=0, control=64, value=73, time=15),\n",
       "    Message('control_change', channel=0, control=64, value=101, time=15),\n",
       "    Message('control_change', channel=0, control=64, value=127, time=14),\n",
       "    Message('note_on', channel=0, note=61, velocity=64, time=181),\n",
       "    Message('note_on', channel=0, note=45, velocity=41, time=25),\n",
       "    Message('note_off', channel=0, note=43, velocity=38, time=1),\n",
       "    Message('note_off', channel=0, note=64, velocity=38, time=42),\n",
       "    Message('note_off', channel=0, note=52, velocity=52, time=95),\n",
       "    Message('note_on', channel=0, note=62, velocity=68, time=200),\n",
       "    Message('note_on', channel=0, note=41, velocity=37, time=8),\n",
       "    Message('control_change', channel=0, control=64, value=103, time=4),\n",
       "    Message('note_on', channel=0, note=50, velocity=48, time=0),\n",
       "    Message('note_off', channel=0, note=61, velocity=39, time=2),\n",
       "    Message('control_change', channel=0, control=64, value=82, time=13),\n",
       "    Message('control_change', channel=0, control=64, value=69, time=14),\n",
       "    Message('note_off', channel=0, note=45, velocity=38, time=1),\n",
       "    Message('control_change', channel=0, control=64, value=59, time=14),\n",
       "    Message('control_change', channel=0, control=64, value=0, time=15),\n",
       "    Message('control_change', channel=0, control=64, value=22, time=75),\n",
       "    Message('control_change', channel=0, control=64, value=53, time=15),\n",
       "    Message('control_change', channel=0, control=64, value=63, time=15),\n",
       "    Message('control_change', channel=0, control=64, value=68, time=15),\n",
       "    Message('control_change', channel=0, control=64, value=78, time=14),\n",
       "    Message('control_change', channel=0, control=64, value=127, time=15),\n",
       "    Message('note_on', channel=0, note=58, velocity=52, time=165),\n",
       "    Message('note_on', channel=0, note=43, velocity=35, time=10),\n",
       "    Message('control_change', channel=0, control=64, value=97, time=25),\n",
       "    Message('note_off', channel=0, note=41, velocity=43, time=2),\n",
       "    Message('control_change', channel=0, control=64, value=74, time=13),\n",
       "    Message('note_off', channel=0, note=62, velocity=48, time=1),\n",
       "    Message('control_change', channel=0, control=64, value=64, time=14),\n",
       "    Message('control_change', channel=0, control=64, value=20, time=14),\n",
       "    Message('control_change', channel=0, control=64, value=0, time=15),\n",
       "    Message('control_change', channel=0, control=64, value=45, time=30),\n",
       "    Message('control_change', channel=0, control=64, value=59, time=15),\n",
       "    Message('control_change', channel=0, control=64, value=63, time=14),\n",
       "    Message('control_change', channel=0, control=64, value=65, time=15),\n",
       "    Message('control_change', channel=0, control=64, value=68, time=15),\n",
       "    Message('control_change', channel=0, control=64, value=74, time=15),\n",
       "    Message('control_change', channel=0, control=64, value=90, time=15),\n",
       "    Message('control_change', channel=0, control=64, value=127, time=14),\n",
       "    Message('note_on', channel=0, note=41, velocity=42, time=137),\n",
       "    Message('note_off', channel=0, note=43, velocity=37, time=32),\n",
       "    Message('note_off', channel=0, note=41, velocity=43, time=272),\n",
       "    Message('note_off', channel=0, note=50, velocity=36, time=6),\n",
       "    Message('note_on', channel=0, note=49, velocity=45, time=21),\n",
       "    Message('control_change', channel=0, control=64, value=100, time=7),\n",
       "    Message('note_on', channel=0, note=40, velocity=39, time=3),\n",
       "    Message('control_change', channel=0, control=64, value=84, time=12),\n",
       "    Message('control_change', channel=0, control=64, value=70, time=15),\n",
       "    Message('control_change', channel=0, control=64, value=63, time=15),\n",
       "    Message('control_change', channel=0, control=64, value=32, time=15),\n",
       "    Message('control_change', channel=0, control=64, value=0, time=22),\n",
       "    Message('control_change', channel=0, control=64, value=34, time=30),\n",
       "    Message('control_change', channel=0, control=64, value=55, time=15),\n",
       "    Message('control_change', channel=0, control=64, value=62, time=15),\n",
       "    Message('control_change', channel=0, control=64, value=65, time=14),\n",
       "    Message('control_change', channel=0, control=64, value=69, time=15),\n",
       "    Message('control_change', channel=0, control=64, value=80, time=15),\n",
       "    Message('control_change', channel=0, control=64, value=127, time=15),\n",
       "    Message('note_off', channel=0, note=49, velocity=54, time=146),\n",
       "    Message('note_on', channel=0, note=50, velocity=47, time=5),\n",
       "    Message('note_on', channel=0, note=38, velocity=36, time=10),\n",
       "    Message('note_off', channel=0, note=40, velocity=39, time=12),\n",
       "    Message('control_change', channel=0, control=64, value=86, time=5),\n",
       "    Message('control_change', channel=0, control=64, value=68, time=14),\n",
       "    Message('control_change', channel=0, control=64, value=51, time=15),\n",
       "    Message('control_change', channel=0, control=64, value=0, time=15),\n",
       "    Message('control_change', channel=0, control=64, value=20, time=30),\n",
       "    Message('control_change', channel=0, control=64, value=60, time=15),\n",
       "    Message('control_change', channel=0, control=64, value=65, time=14),\n",
       "    Message('control_change', channel=0, control=64, value=71, time=15),\n",
       "    Message('control_change', channel=0, control=64, value=85, time=15),\n",
       "    Message('control_change', channel=0, control=64, value=127, time=15),\n",
       "    Message('note_on', channel=0, note=51, velocity=47, time=234),\n",
       "    Message('control_change', channel=0, control=64, value=92, time=3),\n",
       "    Message('note_on', channel=0, note=36, velocity=38, time=2),\n",
       "    Message('note_off', channel=0, note=50, velocity=33, time=13),\n",
       "    Message('control_change', channel=0, control=64, value=78, time=0),\n",
       "    Message('control_change', channel=0, control=64, value=70, time=15),\n",
       "    Message('control_change', channel=0, control=64, value=64, time=15),\n",
       "    Message('note_off', channel=0, note=38, velocity=37, time=3),\n",
       "    Message('control_change', channel=0, control=64, value=53, time=19),\n",
       "    Message('control_change', channel=0, control=64, value=0, time=14),\n",
       "    Message('control_change', channel=0, control=64, value=34, time=74),\n",
       "    Message('control_change', channel=0, control=64, value=55, time=15),\n",
       "    Message('control_change', channel=0, control=64, value=62, time=15),\n",
       "    Message('control_change', channel=0, control=64, value=64, time=15),\n",
       "    Message('control_change', channel=0, control=64, value=66, time=14),\n",
       "    Message('control_change', channel=0, control=64, value=69, time=15),\n",
       "    Message('control_change', channel=0, control=64, value=75, time=15),\n",
       "    Message('control_change', channel=0, control=64, value=86, time=14),\n",
       "    Message('control_change', channel=0, control=64, value=127, time=15),\n",
       "    Message('note_on', channel=0, note=52, velocity=46, time=137),\n",
       "    Message('note_off', channel=0, note=51, velocity=33, time=124),\n",
       "    Message('note_off', channel=0, note=58, velocity=37, time=47),\n",
       "    Message('note_on', channel=0, note=37, velocity=37, time=237),\n",
       "    Message('note_on', channel=0, note=57, velocity=60, time=25),\n",
       "    Message('control_change', channel=0, control=64, value=97, time=31),\n",
       "    Message('note_off', channel=0, note=36, velocity=40, time=14),\n",
       "    Message('control_change', channel=0, control=64, value=86, time=0),\n",
       "    Message('control_change', channel=0, control=64, value=79, time=15),\n",
       "    Message('control_change', channel=0, control=64, value=72, time=15),\n",
       "    Message('control_change', channel=0, control=64, value=68, time=15),\n",
       "    Message('control_change', channel=0, control=64, value=64, time=15),\n",
       "    Message('control_change', channel=0, control=64, value=54, time=15),\n",
       "    Message('control_change', channel=0, control=64, value=24, time=15),\n",
       "    Message('control_change', channel=0, control=64, value=0, time=15),\n",
       "    Message('control_change', channel=0, control=64, value=20, time=103),\n",
       "    Message('control_change', channel=0, control=64, value=42, time=15),\n",
       "    Message('control_change', channel=0, control=64, value=53, time=15),\n",
       "    Message('control_change', channel=0, control=64, value=58, time=15),\n",
       "    Message('control_change', channel=0, control=64, value=62, time=14),\n",
       "    Message('control_change', channel=0, control=64, value=64, time=15),\n",
       "    Message('control_change', channel=0, control=64, value=66, time=15),\n",
       "    Message('control_change', channel=0, control=64, value=68, time=14),\n",
       "    Message('control_change', channel=0, control=64, value=74, time=15),\n",
       "    Message('control_change', channel=0, control=64, value=89, time=15),\n",
       "    Message('control_change', channel=0, control=64, value=127, time=15),\n",
       "    Message('note_on', channel=0, note=55, velocity=54, time=125),\n",
       "    Message('note_off', channel=0, note=57, velocity=49, time=68),\n",
       "    Message('note_off', channel=0, note=52, velocity=35, time=158),\n",
       "    Message('note_on', channel=0, note=38, velocity=37, time=192),\n",
       "    Message('note_on', channel=0, note=53, velocity=52, time=8),\n",
       "    Message('control_change', channel=0, control=64, value=116, time=6),\n",
       "    Message('note_on', channel=0, note=50, velocity=39, time=10),\n",
       "    Message('control_change', channel=0, control=64, value=94, time=5),\n",
       "    Message('control_change', channel=0, control=64, value=84, time=14),\n",
       "    Message('note_off', channel=0, note=55, velocity=34, time=3),\n",
       "    Message('control_change', channel=0, control=64, value=75, time=12),\n",
       "    Message('control_change', channel=0, control=64, value=70, time=15),\n",
       "    Message('note_off', channel=0, note=37, velocity=35, time=11),\n",
       "    Message('control_change', channel=0, control=64, value=66, time=4),\n",
       "    Message('control_change', channel=0, control=64, value=64, time=15),\n",
       "    Message('control_change', channel=0, control=64, value=61, time=14),\n",
       "    Message('control_change', channel=0, control=64, value=55, time=15),\n",
       "    Message('control_change', channel=0, control=64, value=46, time=15),\n",
       "    Message('control_change', channel=0, control=64, value=44, time=15),\n",
       "    Message('control_change', channel=0, control=64, value=43, time=29),\n",
       "    Message('control_change', channel=0, control=64, value=41, time=15),\n",
       "    Message('control_change', channel=0, control=64, value=38, time=15),\n",
       "    Message('control_change', channel=0, control=64, value=35, time=14),\n",
       "    Message('control_change', channel=0, control=64, value=36, time=30),\n",
       "    Message('control_change', channel=0, control=64, value=39, time=44),\n",
       "    Message('control_change', channel=0, control=64, value=42, time=15),\n",
       "    Message('note_on', channel=0, note=55, velocity=50, time=130),\n",
       "    Message('control_change', channel=0, control=64, value=42, time=4),\n",
       "    Message('note_on', channel=0, note=31, velocity=37, time=1),\n",
       "    Message('note_off', channel=0, note=53, velocity=52, time=11),\n",
       "    Message('note_off', channel=0, note=38, velocity=41, time=67),\n",
       "    Message('control_change', channel=0, control=64, value=43, time=151),\n",
       "    Message('control_change', channel=0, control=64, value=44, time=15),\n",
       "    Message('control_change', channel=0, control=64, value=44, time=104),\n",
       "    Message('control_change', channel=0, control=64, value=43, time=177),\n",
       "    Message('note_on', channel=0, note=33, velocity=34, time=1),\n",
       "    Message('note_on', channel=0, note=52, velocity=42, time=3),\n",
       "    Message('note_off', channel=0, note=55, velocity=41, time=58),\n",
       "    Message('note_off', channel=0, note=31, velocity=49, time=2),\n",
       "    Message('control_change', channel=0, control=64, value=42, time=10),\n",
       "    Message('control_change', channel=0, control=64, value=43, time=163),\n",
       "    Message('control_change', channel=0, control=64, value=44, time=15),\n",
       "    Message('control_change', channel=0, control=64, value=45, time=15),\n",
       "    Message('control_change', channel=0, control=64, value=47, time=24),\n",
       "    Message('control_change', channel=0, control=64, value=51, time=14),\n",
       "    Message('control_change', channel=0, control=64, value=53, time=15),\n",
       "    Message('control_change', channel=0, control=64, value=55, time=15),\n",
       "    Message('control_change', channel=0, control=64, value=57, time=15),\n",
       "    Message('control_change', channel=0, control=64, value=58, time=15),\n",
       "    Message('control_change', channel=0, control=64, value=60, time=14),\n",
       "    Message('control_change', channel=0, control=64, value=62, time=15),\n",
       "    Message('control_change', channel=0, control=64, value=63, time=15),\n",
       "    Message('control_change', channel=0, control=64, value=64, time=15),\n",
       "    Message('control_change', channel=0, control=64, value=65, time=14),\n",
       "    Message('control_change', channel=0, control=64, value=67, time=15),\n",
       "    Message('control_change', channel=0, control=64, value=69, time=15),\n",
       "    Message('control_change', channel=0, control=64, value=74, time=15),\n",
       "    Message('control_change', channel=0, control=64, value=85, time=15),\n",
       "    Message('control_change', channel=0, control=64, value=116, time=14),\n",
       "    Message('control_change', channel=0, control=64, value=127, time=15),\n",
       "    Message('note_on', channel=0, note=53, velocity=42, time=68),\n",
       "    Message('note_on', channel=0, note=49, velocity=38, time=9),\n",
       "    Message('note_off', channel=0, note=52, velocity=41, time=87),\n",
       "    Message('note_off', channel=0, note=50, velocity=34, time=12),\n",
       "    Message('note_on', channel=0, note=26, velocity=36, time=757),\n",
       "    Message('note_on', channel=0, note=50, velocity=37, time=8),\n",
       "    Message('note_on', channel=0, note=38, velocity=15, time=40),\n",
       "    Message('note_off', channel=0, note=33, velocity=37, time=12),\n",
       "    Message('control_change', channel=0, control=64, value=93, time=37),\n",
       "    Message('note_off', channel=0, note=49, velocity=33, time=1),\n",
       "    Message('control_change', channel=0, control=64, value=74, time=14),\n",
       "    Message('note_off', channel=0, note=53, velocity=15, time=5),\n",
       "    Message('control_change', channel=0, control=64, value=64, time=10),\n",
       "    Message('control_change', channel=0, control=64, value=0, time=15),\n",
       "    Message('control_change', channel=0, control=64, value=60, time=215),\n",
       "    Message('control_change', channel=0, control=64, value=80, time=15),\n",
       "    Message('control_change', channel=0, control=64, value=127, time=15),\n",
       "    Message('note_off', channel=0, note=38, velocity=37, time=96),\n",
       "    Message('note_off', channel=0, note=50, velocity=36, time=36),\n",
       "    Message('note_off', channel=0, note=26, velocity=39, time=5),\n",
       "    Message('note_on', channel=0, note=75, velocity=55, time=1676),\n",
       "    Message('note_on', channel=0, note=67, velocity=47, time=5),\n",
       "    Message('note_on', channel=0, note=58, velocity=38, time=9),\n",
       "    Message('note_on', channel=0, note=61, velocity=35, time=19),\n",
       "    Message('control_change', channel=0, control=64, value=106, time=8),\n",
       "    Message('control_change', channel=0, control=64, value=88, time=15),\n",
       "    Message('control_change', channel=0, control=64, value=76, time=15),\n",
       "    Message('control_change', channel=0, control=64, value=67, time=14),\n",
       "    Message('control_change', channel=0, control=64, value=61, time=15),\n",
       "    Message('control_change', channel=0, control=64, value=51, time=15),\n",
       "    Message('control_change', channel=0, control=64, value=53, time=15),\n",
       "    Message('control_change', channel=0, control=64, value=56, time=15),\n",
       "    Message('control_change', channel=0, control=64, value=59, time=15),\n",
       "    Message('control_change', channel=0, control=64, value=62, time=15),\n",
       "    Message('control_change', channel=0, control=64, value=64, time=14),\n",
       "    Message('control_change', channel=0, control=64, value=66, time=15),\n",
       "    Message('control_change', channel=0, control=64, value=71, time=15),\n",
       "    Message('control_change', channel=0, control=64, value=89, time=15),\n",
       "    Message('control_change', channel=0, control=64, value=127, time=15),\n",
       "    Message('note_off', channel=0, note=61, velocity=23, time=89),\n",
       "    Message('note_off', channel=0, note=58, velocity=36, time=213),\n",
       "    Message('note_off', channel=0, note=75, velocity=36, time=39),\n",
       "    Message('note_on', channel=0, note=74, velocity=58, time=16),\n",
       "    Message('note_on', channel=0, note=62, velocity=49, time=3),\n",
       "    Message('note_off', channel=0, note=62, velocity=28, time=303),\n",
       "    Message('note_off', channel=0, note=67, velocity=30, time=0),\n",
       "    Message('note_on', channel=0, note=73, velocity=59, time=116),\n",
       "    Message('note_on', channel=0, note=63, velocity=52, time=2),\n",
       "    Message('control_change', channel=0, control=64, value=107, time=41),\n",
       "    Message('control_change', channel=0, control=64, value=82, time=14),\n",
       "    Message('control_change', channel=0, control=64, value=69, time=15),\n",
       "    Message('control_change', channel=0, control=64, value=61, time=23),\n",
       "    Message('note_off', channel=0, note=74, velocity=39, time=4),\n",
       "    Message('control_change', channel=0, control=64, value=49, time=10),\n",
       "    Message('control_change', channel=0, control=64, value=59, time=15),\n",
       "    Message('control_change', channel=0, control=64, value=64, time=15),\n",
       "    Message('control_change', channel=0, control=64, value=67, time=15),\n",
       "    Message('control_change', channel=0, control=64, value=74, time=15),\n",
       "    Message('control_change', channel=0, control=64, value=95, time=14),\n",
       "    Message('control_change', channel=0, control=64, value=127, time=15),\n",
       "    Message('note_on', channel=0, note=64, velocity=47, time=228),\n",
       "    Message('note_off', channel=0, note=63, velocity=34, time=21),\n",
       "    Message('note_off', channel=0, note=64, velocity=47, time=280),\n",
       "    Message('note_on', channel=0, note=69, velocity=55, time=27),\n",
       "    Message('note_on', channel=0, note=65, velocity=50, time=6),\n",
       "    Message('control_change', channel=0, control=64, value=88, time=17),\n",
       "    Message('note_on', channel=0, note=57, velocity=41, time=0),\n",
       "    Message('control_change', channel=0, control=64, value=71, time=15),\n",
       "    Message('note_off', channel=0, note=73, velocity=62, time=3),\n",
       "    Message('note_on', channel=0, note=61, velocity=33, time=3),\n",
       "    Message('control_change', channel=0, control=64, value=63, time=8),\n",
       "    Message('control_change', channel=0, control=64, value=52, time=15),\n",
       "    Message('control_change', channel=0, control=64, value=55, time=22),\n",
       "    Message('control_change', channel=0, control=64, value=62, time=15),\n",
       "    Message('control_change', channel=0, control=64, value=65, time=15),\n",
       "    Message('control_change', channel=0, control=64, value=70, time=15),\n",
       "    Message('control_change', channel=0, control=64, value=81, time=15),\n",
       "    Message('control_change', channel=0, control=64, value=127, time=15),\n",
       "    Message('note_off', channel=0, note=57, velocity=50, time=33),\n",
       "    Message('note_off', channel=0, note=65, velocity=39, time=163),\n",
       "    Message('note_on', channel=0, note=64, velocity=50, time=8),\n",
       "    Message('note_on', channel=0, note=55, velocity=35, time=19),\n",
       "    Message('note_off', channel=0, note=61, velocity=29, time=33),\n",
       "    Message('note_off', channel=0, note=69, velocity=58, time=25),\n",
       "    Message('note_off', channel=0, note=55, velocity=30, time=50),\n",
       "    Message('note_off', channel=0, note=64, velocity=55, time=238),\n",
       "    Message('note_on', channel=0, note=70, velocity=53, time=51),\n",
       "    Message('control_change', channel=0, control=64, value=106, time=3),\n",
       "    Message('note_on', channel=0, note=62, velocity=49, time=3),\n",
       "    Message('note_on', channel=0, note=53, velocity=30, time=5),\n",
       "    Message('control_change', channel=0, control=64, value=84, time=6),\n",
       "    Message('control_change', channel=0, control=64, value=73, time=15),\n",
       "    Message('control_change', channel=0, control=64, value=65, time=22),\n",
       "    Message('control_change', channel=0, control=64, value=52, time=16),\n",
       "    Message('control_change', channel=0, control=64, value=26, time=15),\n",
       "    Message('control_change', channel=0, control=64, value=42, time=14),\n",
       "    Message('control_change', channel=0, control=64, value=53, time=15),\n",
       "    Message('control_change', channel=0, control=64, value=60, time=15),\n",
       "    Message('control_change', channel=0, control=64, value=63, time=15),\n",
       "    Message('control_change', channel=0, control=64, value=64, time=15),\n",
       "    Message('control_change', channel=0, control=64, value=66, time=14),\n",
       "    Message('control_change', channel=0, control=64, value=68, time=15),\n",
       "    Message('control_change', channel=0, control=64, value=73, time=15),\n",
       "    Message('control_change', channel=0, control=64, value=84, time=14),\n",
       "    Message('control_change', channel=0, control=64, value=127, time=15),\n",
       "    Message('note_off', channel=0, note=53, velocity=44, time=33),\n",
       "    Message('note_off', channel=0, note=70, velocity=39, time=123),\n",
       "    Message('note_off', channel=0, note=62, velocity=30, time=112),\n",
       "    Message('note_on', channel=0, note=67, velocity=49, time=65),\n",
       "    Message('note_on', channel=0, note=64, velocity=44, time=3),\n",
       "    Message('note_on', channel=0, note=55, velocity=38, time=4),\n",
       "    Message('control_change', channel=0, control=64, value=97, time=3),\n",
       "    Message('control_change', channel=0, control=64, value=77, time=14),\n",
       "    Message('control_change', channel=0, control=64, value=67, time=15),\n",
       "    Message('control_change', channel=0, control=64, value=62, time=15),\n",
       "    Message('control_change', channel=0, control=64, value=64, time=29),\n",
       "    Message('control_change', channel=0, control=64, value=67, time=15),\n",
       "    Message('control_change', channel=0, control=64, value=70, time=15),\n",
       "    Message('control_change', channel=0, control=64, value=76, time=15),\n",
       "    Message('control_change', channel=0, control=64, value=94, time=15),\n",
       "    Message('note_off', channel=0, note=55, velocity=53, time=1),\n",
       "    Message('control_change', channel=0, control=64, value=127, time=13),\n",
       "    Message('note_off', channel=0, note=64, velocity=34, time=106),\n",
       "    Message('note_off', channel=0, note=67, velocity=57, time=61),\n",
       "    Message('note_on', channel=0, note=69, velocity=58, time=127),\n",
       "    Message('note_on', channel=0, note=52, velocity=44, time=4),\n",
       "    Message('note_on', channel=0, note=61, velocity=47, time=2),\n",
       "    Message('control_change', channel=0, control=64, value=86, time=4),\n",
       "    Message('control_change', channel=0, control=64, value=70, time=15),\n",
       "    Message('control_change', channel=0, control=64, value=60, time=14),\n",
       "    Message('control_change', channel=0, control=64, value=32, time=15),\n",
       "    Message('control_change', channel=0, control=64, value=41, time=15),\n",
       "    Message('control_change', channel=0, control=64, value=57, time=15),\n",
       "    Message('control_change', channel=0, control=64, value=63, time=15),\n",
       "    Message('control_change', channel=0, control=64, value=65, time=14),\n",
       "    Message('control_change', channel=0, control=64, value=69, time=15),\n",
       "    Message('control_change', channel=0, control=64, value=82, time=15),\n",
       "    Message('control_change', channel=0, control=64, value=127, time=15),\n",
       "    Message('note_off', channel=0, note=52, velocity=36, time=15),\n",
       "    Message('note_off', channel=0, note=61, velocity=32, time=107),\n",
       "    Message('note_off', channel=0, note=69, velocity=48, time=38),\n",
       "    Message('control_change', channel=0, control=64, value=81, time=49),\n",
       "    Message('note_on', channel=0, note=62, velocity=50, time=11),\n",
       "    Message('note_on', channel=0, note=65, velocity=56, time=0),\n",
       "    Message('control_change', channel=0, control=64, value=66, time=3),\n",
       "    Message('note_on', channel=0, note=53, velocity=39, time=4),\n",
       "    Message('control_change', channel=0, control=64, value=51, time=11),\n",
       "    Message('control_change', channel=0, control=64, value=0, time=15),\n",
       "    Message('control_change', channel=0, control=64, value=35, time=15),\n",
       "    Message('control_change', channel=0, control=64, value=55, time=15),\n",
       "    Message('control_change', channel=0, control=64, value=62, time=14),\n",
       "    Message('control_change', channel=0, control=64, value=64, time=15),\n",
       "    Message('note_off', channel=0, note=53, velocity=60, time=7),\n",
       "    Message('control_change', channel=0, control=64, value=68, time=8),\n",
       "    Message('control_change', channel=0, control=64, value=76, time=15),\n",
       "    Message('control_change', channel=0, control=64, value=107, time=15),\n",
       "    Message('control_change', channel=0, control=64, value=127, time=22),\n",
       "    Message('note_off', channel=0, note=62, velocity=34, time=71),\n",
       "    Message('note_off', channel=0, note=65, velocity=56, time=46),\n",
       "    Message('control_change', channel=0, control=64, value=96, time=89),\n",
       "    Message('note_on', channel=0, note=58, velocity=51, time=5),\n",
       "    Message('note_on', channel=0, note=50, velocity=40, time=8),\n",
       "    Message('control_change', channel=0, control=64, value=79, time=2),\n",
       "    Message('note_on', channel=0, note=67, velocity=58, time=4),\n",
       "    Message('control_change', channel=0, control=64, value=70, time=11),\n",
       "    Message('control_change', channel=0, control=64, value=64, time=14),\n",
       "    Message('control_change', channel=0, control=64, value=51, time=15),\n",
       "    Message('control_change', channel=0, control=64, value=0, time=15),\n",
       "    Message('control_change', channel=0, control=64, value=49, time=59),\n",
       "    Message('control_change', channel=0, control=64, value=61, time=15),\n",
       "    Message('control_change', channel=0, control=64, value=65, time=15),\n",
       "    Message('control_change', channel=0, control=64, value=68, time=15),\n",
       "    Message('control_change', channel=0, control=64, value=76, time=15),\n",
       "    Message('control_change', channel=0, control=64, value=116, time=15),\n",
       "    Message('control_change', channel=0, control=64, value=127, time=15),\n",
       "    Message('note_off', channel=0, note=67, velocity=53, time=36),\n",
       "    Message('note_on', channel=0, note=65, velocity=59, time=116),\n",
       "    Message('note_off', channel=0, note=65, velocity=62, time=109),\n",
       "    Message('note_off', channel=0, note=50, velocity=44, time=63),\n",
       "    Message('note_on', channel=0, note=64, velocity=58, time=166),\n",
       "    Message('note_on', channel=0, note=49, velocity=48, time=4),\n",
       "    Message('control_change', channel=0, control=64, value=119, time=3),\n",
       "    Message('control_change', channel=0, control=64, value=84, time=14),\n",
       "    Message('control_change', channel=0, control=64, value=71, time=15),\n",
       "    Message('control_change', channel=0, control=64, value=63, time=15),\n",
       "    Message('control_change', channel=0, control=64, value=50, time=14),\n",
       "    Message('control_change', channel=0, control=64, value=49, time=15),\n",
       "    Message('control_change', channel=0, control=64, value=60, time=15),\n",
       "    Message('control_change', channel=0, control=64, value=64, time=15),\n",
       "    Message('control_change', channel=0, control=64, value=68, time=15),\n",
       "    Message('control_change', channel=0, control=64, value=75, time=14),\n",
       "    Message('control_change', channel=0, control=64, value=98, time=15),\n",
       "    Message('control_change', channel=0, control=64, value=127, time=15),\n",
       "    Message('note_off', channel=0, note=64, velocity=47, time=79),\n",
       "    Message('note_off', channel=0, note=49, velocity=35, time=43),\n",
       "    Message('note_on', channel=0, note=62, velocity=57, time=65),\n",
       "    Message('note_on', channel=0, note=50, velocity=46, time=1),\n",
       "    Message('control_change', channel=0, control=64, value=113, time=5),\n",
       "    Message('control_change', channel=0, control=64, value=81, time=15),\n",
       "    Message('control_change', channel=0, control=64, value=68, time=15),\n",
       "    Message('control_change', channel=0, control=64, value=61, time=15),\n",
       "    Message('control_change', channel=0, control=64, value=49, time=15),\n",
       "    Message('control_change', channel=0, control=64, value=56, time=15),\n",
       "    Message('control_change', channel=0, control=64, value=61, time=15),\n",
       "    Message('control_change', channel=0, control=64, value=63, time=15),\n",
       "    Message('control_change', channel=0, control=64, value=64, time=15),\n",
       "    Message('control_change', channel=0, control=64, value=64, time=15),\n",
       "    Message('control_change', channel=0, control=64, value=66, time=14),\n",
       "    Message('control_change', channel=0, control=64, value=71, time=15),\n",
       "    Message('control_change', channel=0, control=64, value=81, time=15),\n",
       "    Message('control_change', channel=0, control=64, value=127, time=15),\n",
       "    Message('note_off', channel=0, note=62, velocity=35, time=64),\n",
       "    Message('note_off', channel=0, note=50, velocity=34, time=47),\n",
       "    Message('note_on', channel=0, note=60, velocity=41, time=149),\n",
       "    Message('note_on', channel=0, note=51, velocity=44, time=16),\n",
       "    Message('control_change', channel=0, control=64, value=99, time=12),\n",
       "    Message('control_change', channel=0, control=64, value=80, time=15),\n",
       "    Message('control_change', channel=0, control=64, value=69, time=15),\n",
       "    Message('control_change', channel=0, control=64, value=61, time=14),\n",
       "    Message('control_change', channel=0, control=64, value=0, time=15),\n",
       "    Message('control_change', channel=0, control=64, value=61, time=222),\n",
       "    Message('control_change', channel=0, control=64, value=70, time=15),\n",
       "    Message('control_change', channel=0, control=64, value=82, time=15),\n",
       "    Message('control_change', channel=0, control=64, value=127, time=16),\n",
       "    Message('note_on', channel=0, note=52, velocity=37, time=97),\n",
       "    Message('note_off', channel=0, note=51, velocity=35, time=81),\n",
       "    Message('note_off', channel=0, note=58, velocity=37, time=176),\n",
       "    Message('control_change', channel=0, control=64, value=122, time=97),\n",
       "    Message('note_on', channel=0, note=57, velocity=50, time=5),\n",
       "    Message('note_on', channel=0, note=61, velocity=48, time=10),\n",
       "    Message('control_change', channel=0, control=64, value=95, time=0),\n",
       "    Message('control_change', channel=0, control=64, value=82, time=15),\n",
       "    Message('control_change', channel=0, control=64, value=74, time=14),\n",
       "    Message('control_change', channel=0, control=64, value=68, time=15),\n",
       "    Message('control_change', channel=0, control=64, value=63, time=15),\n",
       "    Message('control_change', channel=0, control=64, value=56, time=14),\n",
       "    Message('note_off', channel=0, note=60, velocity=38, time=4),\n",
       "    Message('control_change', channel=0, control=64, value=42, time=11),\n",
       "    Message('control_change', channel=0, control=64, value=24, time=15),\n",
       "    Message('control_change', channel=0, control=64, value=0, time=15),\n",
       "    Message('control_change', channel=0, control=64, value=46, time=163),\n",
       "    Message('control_change', channel=0, control=64, value=62, time=15),\n",
       "    Message('control_change', channel=0, control=64, value=64, time=15),\n",
       "    Message('control_change', channel=0, control=64, value=65, time=15),\n",
       "    Message('control_change', channel=0, control=64, value=66, time=15),\n",
       "    Message('control_change', channel=0, control=64, value=68, time=15),\n",
       "    Message('note_on', channel=0, note=55, velocity=45, time=9),\n",
       "    Message('control_change', channel=0, control=64, value=72, time=6),\n",
       "    Message('control_change', channel=0, control=64, value=82, time=15),\n",
       "    Message('control_change', channel=0, control=64, value=105, time=15),\n",
       "    Message('control_change', channel=0, control=64, value=127, time=15),\n",
       "    Message('note_off', channel=0, note=57, velocity=38, time=68),\n",
       "    Message('note_off', channel=0, note=52, velocity=37, time=56),\n",
       "    Message('note_on', channel=0, note=62, velocity=53, time=299),\n",
       "    Message('note_on', channel=0, note=53, velocity=49, time=10),\n",
       "    Message('control_change', channel=0, control=64, value=96, time=3),\n",
       "    Message('note_on', channel=0, note=50, velocity=42, time=5),\n",
       "    Message('control_change', channel=0, control=64, value=83, time=10),\n",
       "    Message('note_off', channel=0, note=55, velocity=40, time=2),\n",
       "    Message('note_off', channel=0, note=61, velocity=34, time=10),\n",
       "    Message('control_change', channel=0, control=64, value=73, time=3),\n",
       "    Message('control_change', channel=0, control=64, value=66, time=14),\n",
       "    Message('control_change', channel=0, control=64, value=54, time=15),\n",
       "    Message('control_change', channel=0, control=64, value=0, time=15),\n",
       "    Message('control_change', channel=0, control=64, value=24, time=89),\n",
       "    Message('control_change', channel=0, control=64, value=56, time=15),\n",
       "    Message('control_change', channel=0, control=64, value=64, time=15),\n",
       "    Message('control_change', channel=0, control=64, value=66, time=14),\n",
       "    Message('control_change', channel=0, control=64, value=69, time=15),\n",
       "    Message('control_change', channel=0, control=64, value=75, time=15),\n",
       "    Message('control_change', channel=0, control=64, value=88, time=15),\n",
       "    Message('control_change', channel=0, control=64, value=127, time=15),\n",
       "    Message('note_on', channel=0, note=58, velocity=54, time=349),\n",
       "    Message('note_off', channel=0, note=53, velocity=50, time=3),\n",
       "    Message('note_on', channel=0, note=55, velocity=48, time=10),\n",
       "    Message('control_change', channel=0, control=64, value=119, time=17),\n",
       "    Message('control_change', channel=0, control=64, value=95, time=15),\n",
       "    Message('control_change', channel=0, control=64, value=83, time=14),\n",
       "    Message('control_change', channel=0, control=64, value=71, time=15),\n",
       "    Message('control_change', channel=0, control=64, value=59, time=15),\n",
       "    Message('note_off', channel=0, note=62, velocity=42, time=1),\n",
       "    Message('control_change', channel=0, control=64, value=0, time=14),\n",
       "    Message('control_change', channel=0, control=64, value=48, time=74),\n",
       "    Message('control_change', channel=0, control=64, value=63, time=14),\n",
       "    Message('control_change', channel=0, control=64, value=66, time=15),\n",
       "    Message('control_change', channel=0, control=64, value=71, time=15),\n",
       "    Message('control_change', channel=0, control=64, value=84, time=15),\n",
       "    Message('control_change', channel=0, control=64, value=127, time=14),\n",
       "    Message('note_off', channel=0, note=58, velocity=38, time=115),\n",
       "    Message('note_off', channel=0, note=55, velocity=25, time=37),\n",
       "    Message('note_on', channel=0, note=55, velocity=39, time=80),\n",
       "    Message('note_on', channel=0, note=52, velocity=52, time=16),\n",
       "    Message('control_change', channel=0, control=64, value=79, time=28),\n",
       "    Message('control_change', channel=0, control=64, value=65, time=15),\n",
       "    Message('control_change', channel=0, control=64, value=31, time=14),\n",
       "    Message('control_change', channel=0, control=64, value=0, time=15),\n",
       "    Message('control_change', channel=0, control=64, value=38, time=44),\n",
       "    Message('control_change', channel=0, control=64, value=52, time=15),\n",
       "    Message('control_change', channel=0, control=64, value=60, time=15),\n",
       "    Message('control_change', channel=0, control=64, value=64, time=15),\n",
       "    Message('control_change', channel=0, control=64, value=67, time=15),\n",
       "    Message('control_change', channel=0, control=64, value=73, time=14),\n",
       "    Message('control_change', channel=0, control=64, value=98, time=15),\n",
       "    Message('control_change', channel=0, control=64, value=127, time=15),\n",
       "    Message('note_off', channel=0, note=55, velocity=50, time=22),\n",
       "    Message('note_off', channel=0, note=50, velocity=41, time=96),\n",
       "    Message('note_off', channel=0, note=52, velocity=30, time=14),\n",
       "    Message('control_change', channel=0, control=64, value=83, time=61),\n",
       "    Message('control_change', channel=0, control=64, value=69, time=15),\n",
       "    Message('note_on', channel=0, note=57, velocity=39, time=3),\n",
       "    Message('note_on', channel=0, note=53, velocity=38, time=6),\n",
       "    Message('control_change', channel=0, control=64, value=61, time=6),\n",
       "    Message('note_on', channel=0, note=49, velocity=31, time=1),\n",
       "    Message('control_change', channel=0, control=64, value=0, time=13),\n",
       "    Message('control_change', channel=0, control=64, value=28, time=74),\n",
       "    Message('control_change', channel=0, control=64, value=52, time=15),\n",
       "    Message('control_change', channel=0, control=64, value=61, time=15),\n",
       "    Message('control_change', channel=0, control=64, value=64, time=15),\n",
       "    Message('control_change', channel=0, control=64, value=66, time=14),\n",
       "    Message('control_change', channel=0, control=64, value=68, time=15),\n",
       "    Message('control_change', channel=0, control=64, value=75, time=15),\n",
       "    Message('control_change', channel=0, control=64, value=86, time=15),\n",
       "    Message('control_change', channel=0, control=64, value=127, time=15),\n",
       "    Message('note_off', channel=0, note=57, velocity=33, time=40),\n",
       "    Message('note_off', channel=0, note=53, velocity=28, time=179),\n",
       "    Message('control_change', channel=0, control=67, value=15, time=71),\n",
       "    Message('control_change', channel=0, control=67, value=36, time=15),\n",
       "    Message('control_change', channel=0, control=67, value=65, time=15),\n",
       "    Message('note_off', channel=0, note=49, velocity=40, time=11),\n",
       "    Message('control_change', channel=0, control=67, value=91, time=4),\n",
       "    Message('control_change', channel=0, control=67, value=119, time=15),\n",
       "    Message('control_change', channel=0, control=67, value=127, time=14),\n",
       "    Message('note_on', channel=0, note=50, velocity=41, time=41),\n",
       "    Message('control_change', channel=0, control=64, value=105, time=33),\n",
       "    Message('control_change', channel=0, control=64, value=92, time=15),\n",
       "    Message('control_change', channel=0, control=64, value=83, time=15),\n",
       "    Message('control_change', channel=0, control=64, value=76, time=14),\n",
       "    Message('control_change', channel=0, control=64, value=71, time=15),\n",
       "    Message('control_change', channel=0, control=64, value=67, time=15),\n",
       "    Message('control_change', channel=0, control=64, value=65, time=15),\n",
       "    Message('control_change', channel=0, control=64, value=64, time=15),\n",
       "    Message('control_change', channel=0, control=64, value=62, time=14),\n",
       "    Message('control_change', channel=0, control=64, value=60, time=15),\n",
       "    Message('control_change', channel=0, control=64, value=56, time=15),\n",
       "    Message('control_change', channel=0, control=64, value=52, time=15),\n",
       "    Message('control_change', channel=0, control=64, value=48, time=15),\n",
       "    Message('control_change', channel=0, control=64, value=40, time=14),\n",
       "    Message('control_change', channel=0, control=64, value=22, time=15),\n",
       "    Message('control_change', channel=0, control=64, value=0, time=15),\n",
       "    Message('control_change', channel=0, control=64, value=26, time=290),\n",
       "    Message('control_change', channel=0, control=64, value=36, time=15),\n",
       "    Message('control_change', channel=0, control=64, value=42, time=14),\n",
       "    Message('control_change', channel=0, control=64, value=47, time=15),\n",
       "    Message('control_change', channel=0, control=64, value=52, time=15),\n",
       "    Message('control_change', channel=0, control=64, value=56, time=15),\n",
       "    Message('control_change', channel=0, control=64, value=59, time=15),\n",
       "    Message('control_change', channel=0, control=64, value=60, time=15),\n",
       "    Message('control_change', channel=0, control=64, value=61, time=15),\n",
       "    Message('control_change', channel=0, control=64, value=62, time=15),\n",
       "    Message('control_change', channel=0, control=64, value=63, time=14),\n",
       "    Message('control_change', channel=0, control=64, value=64, time=15),\n",
       "    Message('control_change', channel=0, control=64, value=64, time=15),\n",
       "    Message('control_change', channel=0, control=64, value=65, time=15),\n",
       "    Message('control_change', channel=0, control=64, value=66, time=15),\n",
       "    Message('note_on', channel=0, note=48, velocity=26, time=5),\n",
       "    Message('control_change', channel=0, control=64, value=67, time=10),\n",
       "    Message('control_change', channel=0, control=64, value=69, time=14),\n",
       "    Message('control_change', channel=0, control=64, value=74, time=15),\n",
       "    Message('control_change', channel=0, control=64, value=86, time=15),\n",
       "    Message('control_change', channel=0, control=64, value=127, time=14),\n",
       "    Message('note_off', channel=0, note=50, velocity=37, time=105),\n",
       "    Message('note_on', channel=0, note=46, velocity=24, time=806),\n",
       "    Message('note_on', channel=0, note=53, velocity=23, time=3),\n",
       "    Message('note_on', channel=0, note=44, velocity=36, time=0),\n",
       "    Message('note_on', channel=0, note=62, velocity=34, time=0),\n",
       "    Message('note_off', channel=0, note=48, velocity=40, time=6),\n",
       "    Message('control_change', channel=0, control=64, value=111, time=36),\n",
       "    Message('control_change', channel=0, control=64, value=96, time=14),\n",
       "    Message('control_change', channel=0, control=64, value=86, time=15),\n",
       "    Message('control_change', channel=0, control=64, value=77, time=15),\n",
       "    Message('control_change', channel=0, control=64, value=71, time=15),\n",
       "    Message('control_change', channel=0, control=64, value=66, time=15),\n",
       "    Message('control_change', channel=0, control=64, value=63, time=15),\n",
       "    Message('control_change', channel=0, control=64, value=51, time=15),\n",
       "    Message('control_change', channel=0, control=64, value=32, time=22),\n",
       "    Message('control_change', channel=0, control=64, value=28, time=14),\n",
       "    Message('control_change', channel=0, control=64, value=31, time=45),\n",
       "    Message('control_change', channel=0, control=64, value=38, time=15),\n",
       "    Message('control_change', channel=0, control=64, value=48, time=14),\n",
       "    Message('control_change', channel=0, control=64, value=55, time=15),\n",
       "    Message('control_change', channel=0, control=64, value=60, time=15),\n",
       "    Message('control_change', channel=0, control=64, value=62, time=15),\n",
       "    Message('control_change', channel=0, control=64, value=63, time=15),\n",
       "    Message('control_change', channel=0, control=64, value=64, time=15),\n",
       "    Message('control_change', channel=0, control=64, value=65, time=14),\n",
       "    Message('control_change', channel=0, control=64, value=66, time=16),\n",
       "    Message('control_change', channel=0, control=64, value=68, time=15),\n",
       "    Message('control_change', channel=0, control=64, value=69, time=15),\n",
       "    Message('control_change', channel=0, control=64, value=72, time=15),\n",
       "    Message('control_change', channel=0, control=64, value=75, time=14),\n",
       "    Message('control_change', channel=0, control=64, value=79, time=15),\n",
       "    Message('control_change', channel=0, control=64, value=83, time=15),\n",
       "    Message('control_change', channel=0, control=64, value=89, time=15),\n",
       "    Message('control_change', channel=0, control=64, value=95, time=15),\n",
       "    Message('control_change', channel=0, control=64, value=101, time=15),\n",
       "    Message('control_change', channel=0, control=64, value=105, time=14),\n",
       "    Message('control_change', channel=0, control=64, value=107, time=15),\n",
       "    Message('note_off', channel=0, note=46, velocity=36, time=61),\n",
       "    Message('control_change', channel=0, control=64, value=106, time=14),\n",
       "    Message('note_on', channel=0, note=47, velocity=32, time=0),\n",
       "    Message('note_on', channel=0, note=43, velocity=35, time=1),\n",
       "    Message('control_change', channel=0, control=64, value=103, time=13),\n",
       "    Message('control_change', channel=0, control=64, value=99, time=15),\n",
       "    Message('control_change', channel=0, control=64, value=94, time=15),\n",
       "    Message('control_change', channel=0, control=64, value=89, time=15),\n",
       "    Message('note_off', channel=0, note=44, velocity=39, time=1),\n",
       "    Message('control_change', channel=0, control=64, value=85, time=14),\n",
       "    Message('control_change', channel=0, control=64, value=82, time=14),\n",
       "    Message('control_change', channel=0, control=64, value=79, time=15),\n",
       "    Message('control_change', channel=0, control=64, value=77, time=15),\n",
       "    Message('control_change', channel=0, control=64, value=76, time=14),\n",
       "    Message('control_change', channel=0, control=64, value=75, time=15),\n",
       "    Message('control_change', channel=0, control=64, value=74, time=15),\n",
       "    Message('control_change', channel=0, control=64, value=73, time=15),\n",
       "    Message('control_change', channel=0, control=64, value=73, time=15),\n",
       "    Message('control_change', channel=0, control=64, value=72, time=14),\n",
       "    Message('control_change', channel=0, control=64, value=71, time=15),\n",
       "    Message('control_change', channel=0, control=64, value=71, time=45),\n",
       "    Message('control_change', channel=0, control=64, value=70, time=127),\n",
       "    Message('note_on', channel=0, note=46, velocity=38, time=82),\n",
       "    Message('note_on', channel=0, note=44, velocity=36, time=8),\n",
       "    Message('note_off', channel=0, note=47, velocity=42, time=5),\n",
       "    Message('note_off', channel=0, note=43, velocity=44, time=65),\n",
       "    Message('note_off', channel=0, note=46, velocity=35, time=288),\n",
       "    Message('note_on', channel=0, note=47, velocity=41, time=17),\n",
       "    Message('note_on', channel=0, note=43, velocity=30, time=2),\n",
       "    Message('note_off', channel=0, note=44, velocity=39, time=58),\n",
       "    Message('control_change', channel=0, control=64, value=70, time=53),\n",
       "    Message('control_change', channel=0, control=64, value=69, time=96),\n",
       "    Message('control_change', channel=0, control=64, value=69, time=30),\n",
       "    Message('control_change', channel=0, control=64, value=68, time=15),\n",
       "    Message('control_change', channel=0, control=64, value=68, time=15),\n",
       "    Message('control_change', channel=0, control=64, value=67, time=15),\n",
       "    Message('control_change', channel=0, control=64, value=67, time=14),\n",
       "    Message('control_change', channel=0, control=64, value=66, time=15),\n",
       "    Message('control_change', channel=0, control=64, value=66, time=15),\n",
       "    Message('note_on', channel=0, note=57, velocity=47, time=15),\n",
       "    Message('control_change', channel=0, control=64, value=65, time=0),\n",
       "    Message('note_on', channel=0, note=48, velocity=33, time=12),\n",
       "    Message('control_change', channel=0, control=64, value=64, time=17),\n",
       "    Message('control_change', channel=0, control=64, value=64, time=15),\n",
       "    Message('note_off', channel=0, note=47, velocity=37, time=6),\n",
       "    Message('control_change', channel=0, control=64, value=63, time=9),\n",
       "    Message('control_change', channel=0, control=64, value=61, time=15),\n",
       "    Message('note_off', channel=0, note=53, velocity=38, time=6),\n",
       "    Message('control_change', channel=0, control=64, value=58, time=8),\n",
       "    Message('control_change', channel=0, control=64, value=57, time=15),\n",
       "    Message('control_change', channel=0, control=64, value=57, time=15),\n",
       "    Message('control_change', channel=0, control=64, value=55, time=15),\n",
       "    Message('control_change', channel=0, control=64, value=52, time=15),\n",
       "    Message('control_change', channel=0, control=64, value=48, time=16),\n",
       "    Message('control_change', channel=0, control=64, value=44, time=14),\n",
       "    Message('control_change', channel=0, control=64, value=43, time=15),\n",
       "    Message('control_change', channel=0, control=64, value=42, time=15),\n",
       "    Message('control_change', channel=0, control=64, value=39, time=15),\n",
       "    Message('control_change', channel=0, control=64, value=33, time=15),\n",
       "    Message('control_change', channel=0, control=64, value=26, time=14),\n",
       "    Message('control_change', channel=0, control=64, value=0, time=15),\n",
       "    Message('note_off', channel=0, note=62, velocity=24, time=40),\n",
       "    Message('note_on', channel=0, note=55, velocity=59, time=58),\n",
       "    Message('note_on', channel=0, note=47, velocity=44, time=23),\n",
       "    Message('note_off', channel=0, note=43, velocity=52, time=66),\n",
       "    Message('note_off', channel=0, note=57, velocity=61, time=6),\n",
       "    Message('note_on', channel=0, note=46, velocity=48, time=281),\n",
       "    Message('note_on', channel=0, note=64, velocity=58, time=4),\n",
       "    Message('note_off', channel=0, note=47, velocity=59, time=34),\n",
       "    Message('control_change', channel=0, control=64, value=38, time=267),\n",
       "    Message('control_change', channel=0, control=64, value=52, time=15),\n",
       "    Message('control_change', channel=0, control=64, value=57, time=14),\n",
       "    Message('control_change', channel=0, control=64, value=60, time=15),\n",
       "    Message('control_change', channel=0, control=64, value=63, time=15),\n",
       "    Message('control_change', channel=0, control=64, value=64, time=15),\n",
       "    Message('control_change', channel=0, control=64, value=65, time=14),\n",
       "    Message('control_change', channel=0, control=64, value=66, time=15),\n",
       "    Message('control_change', channel=0, control=64, value=68, time=15),\n",
       "    Message('control_change', channel=0, control=64, value=69, time=15),\n",
       "    Message('control_change', channel=0, control=64, value=70, time=15),\n",
       "    Message('note_on', channel=0, note=49, velocity=37, time=27),\n",
       "    Message('note_on', channel=0, note=45, velocity=35, time=8),\n",
       "    Message('note_off', channel=0, note=48, velocity=34, time=14),\n",
       "    Message('note_off', channel=0, note=46, velocity=35, time=35),\n",
       "    Message('control_change', channel=0, control=64, value=69, time=19),\n",
       "    Message('control_change', channel=0, control=64, value=69, time=15),\n",
       "    Message('control_change', channel=0, control=64, value=68, time=15),\n",
       "    Message('control_change', channel=0, control=64, value=67, time=37),\n",
       "    Message('control_change', channel=0, control=64, value=66, time=14),\n",
       "    Message('control_change', channel=0, control=64, value=66, time=15),\n",
       "    Message('control_change', channel=0, control=64, value=65, time=14),\n",
       "    Message('control_change', channel=0, control=64, value=66, time=60),\n",
       "    Message('control_change', channel=0, control=64, value=66, time=30),\n",
       "    Message('control_change', channel=0, control=64, value=67, time=14),\n",
       "    Message('control_change', channel=0, control=64, value=68, time=15),\n",
       "    Message('control_change', channel=0, control=64, value=68, time=15),\n",
       "    Message('control_change', channel=0, control=64, value=69, time=15),\n",
       "    Message('control_change', channel=0, control=64, value=70, time=15),\n",
       "    Message('note_on', channel=0, note=48, velocity=40, time=26),\n",
       "    Message('control_change', channel=0, control=64, value=70, time=4),\n",
       "    Message('note_on', channel=0, note=46, velocity=46, time=12),\n",
       "    Message('control_change', channel=0, control=64, value=71, time=2),\n",
       "    Message('control_change', channel=0, control=64, value=72, time=15),\n",
       "    Message('note_off', channel=0, note=45, velocity=38, time=3),\n",
       "    Message('note_off', channel=0, note=49, velocity=47, time=4),\n",
       "    Message('control_change', channel=0, control=64, value=72, time=8),\n",
       "    Message('control_change', channel=0, control=64, value=73, time=59),\n",
       "    Message('control_change', channel=0, control=64, value=74, time=15),\n",
       "    Message('control_change', channel=0, control=64, value=76, time=14),\n",
       "    Message('control_change', channel=0, control=64, value=78, time=16),\n",
       "    Message('control_change', channel=0, control=64, value=79, time=15),\n",
       "    Message('control_change', channel=0, control=64, value=79, time=45),\n",
       "    Message('control_change', channel=0, control=64, value=78, time=14),\n",
       "    Message('control_change', channel=0, control=64, value=77, time=15),\n",
       "    Message('control_change', channel=0, control=64, value=76, time=15),\n",
       "    Message('control_change', channel=0, control=64, value=74, time=15),\n",
       "    Message('control_change', channel=0, control=64, value=73, time=15),\n",
       "    Message('control_change', channel=0, control=64, value=71, time=14),\n",
       "    Message('note_on', channel=0, note=49, velocity=60, time=8),\n",
       "    Message('control_change', channel=0, control=64, value=70, time=7),\n",
       "    Message('note_on', channel=0, note=45, velocity=52, time=2),\n",
       "    Message('note_off', channel=0, note=48, velocity=51, time=11),\n",
       "    Message('control_change', channel=0, control=64, value=69, time=2),\n",
       "    Message('control_change', channel=0, control=64, value=68, time=15),\n",
       "    Message('note_off', channel=0, note=46, velocity=56, time=2),\n",
       "    Message('control_change', channel=0, control=64, value=68, time=12),\n",
       "    Message('control_change', channel=0, control=64, value=67, time=15),\n",
       "    Message('control_change', channel=0, control=64, value=67, time=30),\n",
       "    Message('control_change', channel=0, control=64, value=66, time=15),\n",
       "    Message('control_change', channel=0, control=64, value=66, time=185),\n",
       "    Message('control_change', channel=0, control=64, value=65, time=15),\n",
       "    Message('note_off', channel=0, note=49, velocity=63, time=9),\n",
       "    Message('note_on', channel=0, note=50, velocity=55, time=4),\n",
       "    Message('control_change', channel=0, control=64, value=64, time=1),\n",
       "    Message('note_on', channel=0, note=58, velocity=72, time=3),\n",
       "    Message('control_change', channel=0, control=64, value=59, time=12),\n",
       "    Message('control_change', channel=0, control=64, value=20, time=15),\n",
       "    Message('control_change', channel=0, control=64, value=0, time=15),\n",
       "    Message('note_off', channel=0, note=55, velocity=57, time=9),\n",
       "    Message('note_off', channel=0, note=50, velocity=61, time=236),\n",
       "    Message('note_off', channel=0, note=64, velocity=54, time=37),\n",
       "    Message('note_on', channel=0, note=57, velocity=76, time=1),\n",
       "    Message('note_on', channel=0, note=49, velocity=56, time=6),\n",
       "    Message('note_off', channel=0, note=58, velocity=62, time=12),\n",
       "    Message('note_off', channel=0, note=45, velocity=44, time=75),\n",
       "    Message('control_change', channel=0, control=64, value=42, time=10),\n",
       "    Message('control_change', channel=0, control=64, value=64, time=15),\n",
       "    Message('control_change', channel=0, control=64, value=71, time=15),\n",
       "    Message('control_change', channel=0, control=64, value=86, time=14),\n",
       "    Message('control_change', channel=0, control=64, value=127, time=15),\n",
       "    Message('note_off', channel=0, note=49, velocity=61, time=14),\n",
       "    Message('control_change', channel=0, control=67, value=121, time=45),\n",
       "    Message('control_change', channel=0, control=67, value=109, time=15),\n",
       "    Message('control_change', channel=0, control=67, value=93, time=15),\n",
       "    Message('control_change', channel=0, control=67, value=71, time=15),\n",
       "    Message('control_change', channel=0, control=67, value=38, time=15),\n",
       "    Message('control_change', channel=0, control=67, value=0, time=22),\n",
       "    Message('note_on', channel=0, note=50, velocity=52, time=115),\n",
       "    Message('note_on', channel=0, note=60, velocity=60, time=11),\n",
       "    Message('control_change', channel=0, control=64, value=116, time=23),\n",
       "    Message('note_on', channel=0, note=66, velocity=81, time=8),\n",
       "    Message('control_change', channel=0, control=64, value=79, time=7),\n",
       "    Message('control_change', channel=0, control=64, value=65, time=15),\n",
       "    Message('control_change', channel=0, control=64, value=0, time=14),\n",
       "    Message('control_change', channel=0, control=64, value=56, time=133),\n",
       "    Message('control_change', channel=0, control=64, value=64, time=15),\n",
       "    Message('control_change', channel=0, control=64, value=70, time=15),\n",
       "    Message('control_change', channel=0, control=64, value=86, time=15),\n",
       "    Message('control_change', channel=0, control=64, value=127, time=15),\n",
       "    Message('note_off', channel=0, note=60, velocity=55, time=71),\n",
       "    Message('note_off', channel=0, note=50, velocity=52, time=50),\n",
       "    Message('note_on', channel=0, note=59, velocity=66, time=126),\n",
       "    Message('note_on', channel=0, note=51, velocity=57, time=10),\n",
       "    Message('control_change', channel=0, control=64, value=106, time=25),\n",
       "    Message('control_change', channel=0, control=64, value=78, time=15),\n",
       "    Message('control_change', channel=0, control=64, value=65, time=15),\n",
       "    Message('control_change', channel=0, control=64, value=0, time=15),\n",
       "    Message('control_change', channel=0, control=64, value=41, time=96),\n",
       "    Message('control_change', channel=0, control=64, value=63, time=15),\n",
       "    Message('control_change', channel=0, control=64, value=70, time=14),\n",
       "    Message('control_change', channel=0, control=64, value=109, time=15),\n",
       "    Message('control_change', channel=0, control=64, value=127, time=15),\n",
       "    Message('note_off', channel=0, note=59, velocity=52, time=30),\n",
       "    Message('note_off', channel=0, note=51, velocity=51, time=63),\n",
       "    Message('note_on', channel=0, note=60, velocity=68, time=42),\n",
       "    Message('note_on', channel=0, note=50, velocity=59, time=4),\n",
       "    Message('control_change', channel=0, control=64, value=109, time=9),\n",
       "    Message('control_change', channel=0, control=64, value=72, time=15),\n",
       "    Message('control_change', channel=0, control=64, value=53, time=15),\n",
       "    Message('control_change', channel=0, control=64, value=0, time=14),\n",
       "    Message('control_change', channel=0, control=64, value=64, time=45),\n",
       "    Message('control_change', channel=0, control=64, value=82, time=15),\n",
       "    Message('control_change', channel=0, control=64, value=127, time=14),\n",
       "    Message('note_off', channel=0, note=60, velocity=61, time=69),\n",
       "    Message('note_off', channel=0, note=50, velocity=58, time=80),\n",
       "    Message('note_off', channel=0, note=57, velocity=60, time=14),\n",
       "    Message('note_on', channel=0, note=59, velocity=77, time=25),\n",
       "    Message('note_on', channel=0, note=51, velocity=70, time=3),\n",
       "    Message('control_change', channel=0, control=64, value=73, time=3),\n",
       "    Message('control_change', channel=0, control=64, value=52, time=15),\n",
       "    Message('control_change', channel=0, control=64, value=0, time=15),\n",
       "    Message('note_off', channel=0, note=66, velocity=64, time=37),\n",
       "    Message('control_change', channel=0, control=64, value=64, time=7),\n",
       "    Message('control_change', channel=0, control=64, value=74, time=15),\n",
       "    Message('control_change', channel=0, control=64, value=127, time=15),\n",
       "    Message('note_off', channel=0, note=59, velocity=58, time=154),\n",
       "    Message('control_change', channel=0, control=64, value=90, time=89),\n",
       "    Message('note_on', channel=0, note=72, velocity=85, time=1),\n",
       "    Message('note_on', channel=0, note=60, velocity=70, time=10),\n",
       "    Message('control_change', channel=0, control=64, value=65, time=3),\n",
       "    Message('note_on', channel=0, note=57, velocity=61, time=1),\n",
       "    Message('control_change', channel=0, control=64, value=0, time=14),\n",
       "    Message('control_change', channel=0, control=64, value=63, time=133),\n",
       "    Message('control_change', channel=0, control=64, value=71, time=15),\n",
       "    Message('control_change', channel=0, control=64, value=96, time=15),\n",
       "    Message('control_change', channel=0, control=64, value=127, time=15),\n",
       "    Message('note_off', channel=0, note=72, velocity=57, time=34),\n",
       "    Message('note_off', channel=0, note=57, velocity=62, time=7),\n",
       "    Message('note_off', channel=0, note=60, velocity=61, time=79),\n",
       "    Message('note_on', channel=0, note=56, velocity=51, time=92),\n",
       "    Message('control_change', channel=0, control=64, value=97, time=11),\n",
       "    Message('note_on', channel=0, note=71, velocity=85, time=3),\n",
       "    Message('control_change', channel=0, control=64, value=69, time=12),\n",
       "    Message('note_on', channel=0, note=59, velocity=73, time=2),\n",
       "    Message('control_change', channel=0, control=64, value=51, time=13),\n",
       "    Message('control_change', channel=0, control=64, value=0, time=15),\n",
       "    Message('control_change', channel=0, control=64, value=56, time=30),\n",
       "    Message('control_change', channel=0, control=64, value=64, time=14),\n",
       "    Message('control_change', channel=0, control=64, value=69, time=15),\n",
       "    Message('control_change', channel=0, control=64, value=81, time=15),\n",
       "    Message('control_change', channel=0, control=64, value=127, time=21),\n",
       "    Message('note_off', channel=0, note=51, velocity=62, time=4),\n",
       "    Message('note_off', channel=0, note=71, velocity=59, time=200),\n",
       "    Message('note_off', channel=0, note=56, velocity=57, time=7),\n",
       "    Message('note_on', channel=0, note=62, velocity=69, time=10),\n",
       "    Message('note_on', channel=0, note=52, velocity=52, time=2),\n",
       "    Message('control_change', channel=0, control=64, value=87, time=15),\n",
       "    Message('control_change', channel=0, control=64, value=68, time=15),\n",
       "    Message('control_change', channel=0, control=64, value=51, time=14),\n",
       "    Message('note_on', channel=0, note=68, velocity=72, time=2),\n",
       "    Message('control_change', channel=0, control=64, value=0, time=13),\n",
       "    Message('control_change', channel=0, control=64, value=49, time=133),\n",
       "    Message('control_change', channel=0, control=64, value=63, time=15),\n",
       "    Message('control_change', channel=0, control=64, value=67, time=15),\n",
       "    Message('control_change', channel=0, control=64, value=80, time=15),\n",
       "    Message('control_change', channel=0, control=64, value=127, time=14),\n",
       "    Message('note_off', channel=0, note=62, velocity=62, time=47),\n",
       "    Message('note_off', channel=0, note=52, velocity=53, time=102),\n",
       "    Message('note_on', channel=0, note=53, velocity=57, time=60),\n",
       "    Message('note_on', channel=0, note=61, velocity=63, time=3),\n",
       "    Message('control_change', channel=0, control=64, value=88, time=42),\n",
       "    Message('control_change', channel=0, control=64, value=68, time=22),\n",
       "    Message('control_change', channel=0, control=64, value=45, time=15),\n",
       "    Message('control_change', channel=0, control=64, value=0, time=15),\n",
       "    Message('control_change', channel=0, control=64, value=53, time=30),\n",
       "    Message('control_change', channel=0, control=64, value=64, time=14),\n",
       "    Message('control_change', channel=0, control=64, value=72, time=15),\n",
       "    Message('control_change', channel=0, control=64, value=127, time=15),\n",
       "    Message('note_off', channel=0, note=53, velocity=48, time=82),\n",
       "    Message('note_off', channel=0, note=61, velocity=62, time=21),\n",
       "    Message('note_on', channel=0, note=62, velocity=73, time=87),\n",
       "    Message('note_on', channel=0, note=52, velocity=66, time=7),\n",
       "    Message('control_change', channel=0, control=64, value=68, time=70),\n",
       "    Message('control_change', channel=0, control=64, value=0, time=15),\n",
       "    Message('control_change', channel=0, control=64, value=37, time=74),\n",
       "    Message('control_change', channel=0, control=64, value=70, time=14),\n",
       "    Message('control_change', channel=0, control=64, value=127, time=15),\n",
       "    Message('note_off', channel=0, note=62, velocity=62, time=6),\n",
       "    Message('note_off', channel=0, note=52, velocity=60, time=59),\n",
       "    Message('note_on', channel=0, note=53, velocity=64, time=84),\n",
       "    Message('note_on', channel=0, note=61, velocity=85, time=4),\n",
       "    Message('control_change', channel=0, control=64, value=119, time=10),\n",
       "    Message('note_off', channel=0, note=59, velocity=54, time=5),\n",
       "    Message('control_change', channel=0, control=64, value=71, time=9),\n",
       "    Message('control_change', channel=0, control=64, value=53, time=16),\n",
       "    Message('control_change', channel=0, control=64, value=0, time=15),\n",
       "    Message('control_change', channel=0, control=64, value=24, time=15),\n",
       "    Message('control_change', channel=0, control=64, value=63, time=15),\n",
       "    Message('control_change', channel=0, control=64, value=75, time=23),\n",
       "    Message('control_change', channel=0, control=64, value=127, time=14),\n",
       "    Message('note_off', channel=0, note=68, velocity=56, time=21),\n",
       "    Message('note_off', channel=0, note=61, velocity=63, time=78),\n",
       "    Message('note_on', channel=0, note=59, velocity=61, time=212),\n",
       "    Message('note_on', channel=0, note=74, velocity=88, time=10),\n",
       "    Message('note_on', channel=0, note=62, velocity=76, time=11),\n",
       "    Message('control_change', channel=0, control=64, value=93, time=23),\n",
       "    Message('control_change', channel=0, control=64, value=67, time=15),\n",
       "    Message('control_change', channel=0, control=64, value=0, time=15),\n",
       "    Message('control_change', channel=0, control=64, value=61, time=104),\n",
       "    Message('control_change', channel=0, control=64, value=69, time=15),\n",
       "    Message('control_change', channel=0, control=64, value=88, time=15),\n",
       "    Message('control_change', channel=0, control=64, value=127, time=14),\n",
       "    Message('note_off', channel=0, note=62, velocity=52, time=52),\n",
       "    Message('polytouch', channel=0, note=68, value=127, time=6),\n",
       "    Message('note_off', channel=0, note=59, velocity=61, time=157),\n",
       "    Message('note_off', channel=0, note=74, velocity=39, time=5),\n",
       "    Message('polytouch', channel=0, note=68, value=0, time=21),\n",
       "    Message('note_on', channel=0, note=58, velocity=49, time=78),\n",
       "    Message('note_on', channel=0, note=73, velocity=89, time=7),\n",
       "    Message('note_on', channel=0, note=61, velocity=75, time=10),\n",
       "    Message('note_off', channel=0, note=53, velocity=55, time=19),\n",
       "    Message('note_off', channel=0, note=58, velocity=61, time=56),\n",
       "    Message('note_off', channel=0, note=61, velocity=51, time=8),\n",
       "    Message('note_off', channel=0, note=73, velocity=57, time=115),\n",
       "    Message('note_on', channel=0, note=54, velocity=48, time=233),\n",
       "    Message('note_on', channel=0, note=58, velocity=52, time=5),\n",
       "    Message('note_on', channel=0, note=73, velocity=89, time=40),\n",
       "    Message('control_change', channel=0, control=64, value=115, time=11),\n",
       "    Message('note_on', channel=0, note=66, velocity=74, time=4),\n",
       "    Message('control_change', channel=0, control=64, value=81, time=11),\n",
       "    Message('control_change', channel=0, control=64, value=65, time=15),\n",
       "    Message('control_change', channel=0, control=64, value=0, time=14),\n",
       "    Message('control_change', channel=0, control=64, value=64, time=142),\n",
       "    Message('control_change', channel=0, control=64, value=72, time=15),\n",
       "    Message('control_change', channel=0, control=64, value=96, time=15),\n",
       "    Message('control_change', channel=0, control=64, value=127, time=14),\n",
       "    Message('note_off', channel=0, note=66, velocity=57, time=80),\n",
       "    Message('note_on', channel=0, note=68, velocity=67, time=178),\n",
       "    Message('note_on', channel=0, note=61, velocity=47, time=9),\n",
       "    Message('note_off', channel=0, note=68, velocity=59, time=79),\n",
       "    Message('note_off', channel=0, note=73, velocity=56, time=60),\n",
       "    Message('note_off', channel=0, note=54, velocity=37, time=59),\n",
       "    Message('note_on', channel=0, note=70, velocity=81, time=156),\n",
       "    Message('note_on', channel=0, note=66, velocity=58, time=0),\n",
       "    Message('note_off', channel=0, note=61, velocity=28, time=1),\n",
       "    Message('note_off', channel=0, note=58, velocity=39, time=55),\n",
       "    Message('note_off', channel=0, note=66, velocity=63, time=28),\n",
       "    Message('note_off', channel=0, note=70, velocity=57, time=68),\n",
       "    Message('note_on', channel=0, note=73, velocity=92, time=167),\n",
       "    Message('note_on', channel=0, note=70, velocity=73, time=2),\n",
       "    Message('note_off', channel=0, note=73, velocity=39, time=391),\n",
       "    Message('note_on', channel=0, note=71, velocity=55, time=39),\n",
       "    Message('note_off', channel=0, note=70, velocity=58, time=3),\n",
       "    Message('note_on', channel=0, note=78, velocity=90, time=12),\n",
       "    Message('note_on', channel=0, note=75, velocity=82, time=9),\n",
       "    Message('control_change', channel=0, control=64, value=88, time=12),\n",
       "    Message('control_change', channel=0, control=64, value=64, time=15),\n",
       "    Message('control_change', channel=0, control=64, value=0, time=15),\n",
       "    Message('control_change', channel=0, control=64, value=61, time=74),\n",
       "    Message('control_change', channel=0, control=64, value=69, time=15),\n",
       "    Message('control_change', channel=0, control=64, value=86, time=16),\n",
       "    Message('control_change', channel=0, control=64, value=127, time=15),\n",
       "    Message('note_off', channel=0, note=71, velocity=31, time=252),\n",
       "    Message('note_on', channel=0, note=73, velocity=69, time=52),\n",
       "    Message('note_on', channel=0, note=70, velocity=53, time=11),\n",
       "    Message('note_off', channel=0, note=70, velocity=60, time=53),\n",
       "    Message('note_off', channel=0, note=78, velocity=38, time=209),\n",
       "    Message('note_on', channel=0, note=66, velocity=52, time=57),\n",
       "    Message('note_on', channel=0, note=70, velocity=69, time=3),\n",
       "    Message('note_off', channel=0, note=73, velocity=62, time=6),\n",
       "    Message('note_off', channel=0, note=75, velocity=46, time=43),\n",
       "    Message('note_off', channel=0, note=66, velocity=61, time=64),\n",
       "    Message('note_off', channel=0, note=70, velocity=53, time=90),\n",
       "    Message('note_on', channel=0, note=61, velocity=46, time=110),\n",
       "    Message('note_on', channel=0, note=73, velocity=78, time=1),\n",
       "    Message('note_on', channel=0, note=66, velocity=64, time=8),\n",
       "    Message('note_off', channel=0, note=61, velocity=60, time=35),\n",
       "    Message('note_off', channel=0, note=73, velocity=35, time=227),\n",
       "    Message('note_off', channel=0, note=66, velocity=58, time=89),\n",
       "    Message('note_on', channel=0, note=49, velocity=41, time=19),\n",
       "    Message('note_on', channel=0, note=59, velocity=44, time=8),\n",
       "    Message('note_on', channel=0, note=73, velocity=70, time=41),\n",
       "    Message('control_change', channel=0, control=64, value=99, time=0),\n",
       "    Message('note_on', channel=0, note=65, velocity=53, time=6),\n",
       "    Message('control_change', channel=0, control=64, value=74, time=9),\n",
       "    Message('control_change', channel=0, control=64, value=58, time=15),\n",
       "    Message('control_change', channel=0, control=64, value=0, time=14),\n",
       "    Message('control_change', channel=0, control=64, value=47, time=89),\n",
       "    Message('control_change', channel=0, control=64, value=65, time=15),\n",
       "    Message('control_change', channel=0, control=64, value=74, time=15),\n",
       "    Message('control_change', channel=0, control=64, value=127, time=14),\n",
       "    Message('note_off', channel=0, note=49, velocity=59, time=56),\n",
       "    Message('note_off', channel=0, note=59, velocity=55, time=218),\n",
       "    Message('note_on', channel=0, note=61, velocity=45, time=51),\n",
       "    Message('note_off', channel=0, note=65, velocity=35, time=41),\n",
       "    Message('note_on', channel=0, note=66, velocity=45, time=353),\n",
       "    Message('note_off', channel=0, note=73, velocity=28, time=312),\n",
       "    Message('note_off', channel=0, note=66, velocity=36, time=104),\n",
       "    Message('note_on', channel=0, note=65, velocity=45, time=96),\n",
       "    Message('note_off', channel=0, note=65, velocity=36, time=335),\n",
       "    Message('note_on', channel=0, note=58, velocity=35, time=116),\n",
       "    Message('note_on', channel=0, note=73, velocity=55, time=0),\n",
       "    Message('note_on', channel=0, note=54, velocity=25, time=6),\n",
       "    Message('note_on', channel=0, note=66, velocity=39, time=16),\n",
       "    Message('control_change', channel=0, control=64, value=107, time=3),\n",
       "    Message('control_change', channel=0, control=64, value=90, time=15),\n",
       "    Message('control_change', channel=0, control=64, value=76, time=14),\n",
       "    Message('control_change', channel=0, control=64, value=64, time=15),\n",
       "    Message('note_off', channel=0, note=61, velocity=38, time=6),\n",
       "    Message('control_change', channel=0, control=64, value=0, time=9),\n",
       "    Message('control_change', channel=0, control=64, value=57, time=118),\n",
       "    Message('control_change', channel=0, control=64, value=65, time=15),\n",
       "    Message('control_change', channel=0, control=64, value=69, time=14),\n",
       "    Message('control_change', channel=0, control=64, value=75, time=15),\n",
       "    Message('control_change', channel=0, control=64, value=97, time=15),\n",
       "    Message('control_change', channel=0, control=64, value=127, time=15),\n",
       "    Message('note_on', channel=0, note=68, velocity=42, time=237),\n",
       "    Message('note_off', channel=0, note=66, velocity=38, time=11),\n",
       "    Message('note_on', channel=0, note=61, velocity=36, time=11),\n",
       "    Message('note_off', channel=0, note=68, velocity=58, time=69),\n",
       "    Message('note_off', channel=0, note=61, velocity=37, time=82),\n",
       "    Message('note_off', channel=0, note=54, velocity=38, time=4),\n",
       "    Message('note_off', channel=0, note=73, velocity=57, time=36),\n",
       "    Message('note_off', channel=0, note=58, velocity=37, time=77),\n",
       "    Message('note_on', channel=0, note=66, velocity=38, time=59),\n",
       "    Message('note_on', channel=0, note=70, velocity=47, time=1),\n",
       "    Message('note_off', channel=0, note=66, velocity=59, time=69),\n",
       "    Message('note_off', channel=0, note=70, velocity=35, time=118),\n",
       "    Message('note_on', channel=0, note=70, velocity=37, time=143),\n",
       "    Message('note_on', channel=0, note=73, velocity=53, time=13),\n",
       "    Message('note_off', channel=0, note=73, velocity=33, time=376),\n",
       "    Message('note_on', channel=0, note=71, velocity=32, time=103),\n",
       "    Message('note_on', channel=0, note=78, velocity=63, time=31),\n",
       "    Message('control_change', channel=0, control=64, value=115, time=14),\n",
       "    Message('note_on', channel=0, note=75, velocity=46, time=14),\n",
       "    Message('control_change', channel=0, control=64, value=103, time=1),\n",
       "    Message('control_change', channel=0, control=64, value=94, time=14),\n",
       "    Message('note_off', channel=0, note=70, velocity=43, time=3),\n",
       "    Message('control_change', channel=0, control=64, value=87, time=12),\n",
       "    Message('control_change', channel=0, control=64, value=81, time=15),\n",
       "    Message('control_change', channel=0, control=64, value=73, time=15),\n",
       "    Message('control_change', channel=0, control=64, value=68, time=15),\n",
       "    Message('control_change', channel=0, control=64, value=63, time=22),\n",
       "    Message('control_change', channel=0, control=64, value=51, time=15),\n",
       "    Message('control_change', channel=0, control=64, value=0, time=15),\n",
       "    Message('control_change', channel=0, control=64, value=17, time=44),\n",
       "    Message('control_change', channel=0, control=64, value=49, time=15),\n",
       "    Message('control_change', channel=0, control=64, value=60, time=15),\n",
       "    Message('control_change', channel=0, control=64, value=64, time=14),\n",
       "    Message('control_change', channel=0, control=64, value=68, time=15),\n",
       "    Message('control_change', channel=0, control=64, value=76, time=15),\n",
       "    Message('control_change', channel=0, control=64, value=115, time=15),\n",
       "    Message('control_change', channel=0, control=64, value=127, time=15),\n",
       "    Message('note_off', channel=0, note=71, velocity=42, time=219),\n",
       "    Message('note_on', channel=0, note=73, velocity=48, time=83),\n",
       "    Message('note_on', channel=0, note=70, velocity=31, time=11),\n",
       "    Message('note_off', channel=0, note=70, velocity=57, time=78),\n",
       "    Message('note_off', channel=0, note=78, velocity=36, time=202),\n",
       "    Message('note_off', channel=0, note=75, velocity=42, time=108),\n",
       "    Message('note_on', channel=0, note=66, velocity=31, time=7),\n",
       "    Message('note_on', channel=0, note=70, velocity=49, time=8),\n",
       "    Message('note_off', channel=0, note=73, velocity=40, time=6),\n",
       "    Message('note_off', channel=0, note=66, velocity=49, time=84),\n",
       "    Message('note_off', channel=0, note=70, velocity=40, time=49),\n",
       "    Message('note_on', channel=0, note=66, velocity=54, time=189),\n",
       "    Message('note_on', channel=0, note=61, velocity=34, time=2),\n",
       "    Message('note_off', channel=0, note=61, velocity=59, time=63),\n",
       "    Message('note_on', channel=0, note=73, velocity=58, time=120),\n",
       "    Message('note_off', channel=0, note=73, velocity=39, time=164),\n",
       "    Message('note_off', channel=0, note=66, velocity=53, time=74),\n",
       "    Message('note_on', channel=0, note=58, velocity=35, time=11),\n",
       "    Message('note_on', channel=0, note=73, velocity=52, time=34),\n",
       "    Message('note_on', channel=0, note=64, velocity=42, time=11),\n",
       "    Message('control_change', channel=0, control=64, value=102, time=34),\n",
       "    Message('control_change', channel=0, control=64, value=87, time=15),\n",
       "    Message('control_change', channel=0, control=64, value=74, time=14),\n",
       "    Message('control_change', channel=0, control=64, value=65, time=15),\n",
       "    Message('control_change', channel=0, control=64, value=42, time=15),\n",
       "    Message('control_change', channel=0, control=64, value=0, time=15),\n",
       "    Message('control_change', channel=0, control=64, value=28, time=44),\n",
       "    Message('control_change', channel=0, control=64, value=51, time=15),\n",
       "    Message('control_change', channel=0, control=64, value=60, time=15),\n",
       "    Message('control_change', channel=0, control=64, value=63, time=14),\n",
       "    Message('control_change', channel=0, control=64, value=66, time=15),\n",
       "    Message('control_change', channel=0, control=64, value=70, time=15),\n",
       "    Message('control_change', channel=0, control=64, value=80, time=15),\n",
       "    Message('control_change', channel=0, control=64, value=127, time=14),\n",
       "    Message('note_on', channel=0, note=54, velocity=35, time=299),\n",
       "    Message('note_off', channel=0, note=73, velocity=58, time=151),\n",
       "    Message('note_off', channel=0, note=64, velocity=29, time=34),\n",
       "    Message('note_on', channel=0, note=49, velocity=34, time=252),\n",
       "    Message('note_off', channel=0, note=58, velocity=16, time=531),\n",
       "    Message('note_on', channel=0, note=46, velocity=36, time=89),\n",
       "    Message('note_off', channel=0, note=54, velocity=36, time=28),\n",
       "    Message('note_off', channel=0, note=49, velocity=11, time=80),\n",
       "    Message('note_off', channel=0, note=46, velocity=35, time=581),\n",
       "    Message('note_on', channel=0, note=41, velocity=35, time=221),\n",
       "    Message('note_on', channel=0, note=50, velocity=28, time=26),\n",
       "    Message('note_on', channel=0, note=70, velocity=46, time=4),\n",
       "    Message('note_on', channel=0, note=58, velocity=32, time=9),\n",
       "    Message('control_change', channel=0, control=64, value=119, time=29),\n",
       "    Message('control_change', channel=0, control=64, value=94, time=15),\n",
       "    Message('control_change', channel=0, control=64, value=81, time=15),\n",
       "    Message('control_change', channel=0, control=64, value=70, time=15),\n",
       "    Message('control_change', channel=0, control=64, value=64, time=15),\n",
       "    Message('control_change', channel=0, control=64, value=43, time=14),\n",
       "    Message('control_change', channel=0, control=64, value=0, time=15),\n",
       "    Message('control_change', channel=0, control=64, value=38, time=30),\n",
       "    Message('control_change', channel=0, control=64, value=55, time=15),\n",
       "    Message('control_change', channel=0, control=64, value=62, time=15),\n",
       "    Message('control_change', channel=0, control=64, value=65, time=15),\n",
       "    Message('control_change', channel=0, control=64, value=69, time=14),\n",
       "    Message('control_change', channel=0, control=64, value=86, time=24),\n",
       "    Message('control_change', channel=0, control=64, value=127, time=15),\n",
       "    Message('note_off', channel=0, note=58, velocity=38, time=37),\n",
       "    Message('note_off', channel=0, note=41, velocity=41, time=97),\n",
       "    Message('note_off', channel=0, note=50, velocity=40, time=86),\n",
       "    Message('note_on', channel=0, note=72, velocity=55, time=49),\n",
       "    Message('note_on', channel=0, note=53, velocity=36, time=2),\n",
       "    Message('note_on', channel=0, note=60, velocity=39, time=13),\n",
       "    Message('note_off', channel=0, note=70, velocity=55, time=20),\n",
       "    Message('note_off', channel=0, note=53, velocity=60, time=54),\n",
       "    Message('note_off', channel=0, note=60, velocity=38, time=103),\n",
       "    Message('note_on', channel=0, note=74, velocity=69, time=175),\n",
       "    Message('note_on', channel=0, note=62, velocity=55, time=9),\n",
       "    Message('note_on', channel=0, note=58, velocity=37, time=23),\n",
       "    Message('note_off', channel=0, note=72, velocity=45, time=76),\n",
       "    Message('note_off', channel=0, note=62, velocity=57, time=2),\n",
       "    Message('note_off', channel=0, note=74, velocity=61, time=109),\n",
       "    Message('note_off', channel=0, note=58, velocity=36, time=133),\n",
       "    Message('note_on', channel=0, note=62, velocity=46, time=2),\n",
       "    Message('note_on', channel=0, note=77, velocity=78, time=6),\n",
       "    Message('note_on', channel=0, note=65, velocity=59, time=13),\n",
       "    Message('note_off', channel=0, note=65, velocity=44, time=153),\n",
       "    Message('note_off', channel=0, note=77, velocity=46, time=97),\n",
       "    Message('note_off', channel=0, note=62, velocity=49, time=1),\n",
       "    Message('note_on', channel=0, note=63, velocity=49, time=46),\n",
       "    Message('note_on', channel=0, note=79, velocity=88, time=7),\n",
       "    Message('note_on', channel=0, note=67, velocity=66, time=13),\n",
       "    Message('note_off', channel=0, note=67, velocity=31, time=88),\n",
       "    Message('note_off', channel=0, note=63, velocity=56, time=79),\n",
       "    Message('note_off', channel=0, note=79, velocity=60, time=51),\n",
       "    Message('note_on', channel=0, note=77, velocity=80, time=58),\n",
       "    Message('note_on', channel=0, note=62, velocity=64, time=7),\n",
       "    Message('note_on', channel=0, note=65, velocity=74, time=1),\n",
       "    Message('note_off', channel=0, note=65, velocity=64, time=28),\n",
       "    Message('note_off', channel=0, note=62, velocity=62, time=6),\n",
       "    Message('note_off', channel=0, note=77, velocity=62, time=21),\n",
       "    Message('note_on', channel=0, note=74, velocity=81, time=222),\n",
       "    Message('note_on', channel=0, note=58, velocity=54, time=3),\n",
       "    Message('note_on', channel=0, note=62, velocity=74, time=2),\n",
       "    Message('note_off', channel=0, note=62, velocity=65, time=28),\n",
       "    Message('note_off', channel=0, note=58, velocity=64, time=5),\n",
       "    Message('note_off', channel=0, note=74, velocity=62, time=7),\n",
       "    Message('note_on', channel=0, note=53, velocity=58, time=267),\n",
       "    Message('note_off', channel=0, note=53, velocity=67, time=43),\n",
       "    Message('note_on', channel=0, note=70, velocity=81, time=190),\n",
       "    Message('note_on', channel=0, note=58, velocity=70, time=5),\n",
       "    Message('note_off', channel=0, note=58, velocity=53, time=137),\n",
       "    Message('note_off', channel=0, note=70, velocity=60, time=46),\n",
       "    Message('note_on', channel=0, note=42, velocity=56, time=6),\n",
       "    Message('note_on', channel=0, note=50, velocity=59, time=7),\n",
       "    Message('note_on', channel=0, note=70, velocity=77, time=86),\n",
       "    Message('note_on', channel=0, note=58, velocity=71, time=16),\n",
       "    Message('control_change', channel=0, control=64, value=103, time=59),\n",
       "    Message('control_change', channel=0, control=64, value=87, time=15),\n",
       "    Message('control_change', channel=0, control=64, value=76, time=15),\n",
       "    Message('control_change', channel=0, control=64, value=68, time=15),\n",
       "    Message('control_change', channel=0, control=64, value=63, time=15),\n",
       "    Message('control_change', channel=0, control=64, value=44, time=14),\n",
       "    Message('control_change', channel=0, control=64, value=0, time=15),\n",
       "    Message('note_on', channel=0, note=51, velocity=66, time=399),\n",
       "    Message('note_off', channel=0, note=50, velocity=60, time=42),\n",
       "    Message('note_on', channel=0, note=50, velocity=51, time=415),\n",
       "    Message('note_off', channel=0, note=51, velocity=54, time=13),\n",
       "    Message('note_on', channel=0, note=49, velocity=50, time=356),\n",
       "    Message('note_off', channel=0, note=50, velocity=52, time=16),\n",
       "    Message('control_change', channel=0, control=64, value=20, time=64),\n",
       "    Message('control_change', channel=0, control=64, value=47, time=15),\n",
       "    Message('control_change', channel=0, control=64, value=58, time=15),\n",
       "    Message('control_change', channel=0, control=64, value=63, time=15),\n",
       "    Message('control_change', channel=0, control=64, value=66, time=15),\n",
       "    Message('control_change', channel=0, control=64, value=72, time=15),\n",
       "    Message('control_change', channel=0, control=64, value=109, time=15),\n",
       "    Message('control_change', channel=0, control=64, value=127, time=14),\n",
       "    Message('note_off', channel=0, note=58, velocity=40, time=22),\n",
       "    Message('note_off', channel=0, note=70, velocity=34, time=25),\n",
       "    Message('note_on', channel=0, note=70, velocity=55, time=133),\n",
       "    Message('control_change', channel=0, control=64, value=104, time=6),\n",
       "    Message('note_off', channel=0, note=49, velocity=59, time=0),\n",
       "    Message('note_on', channel=0, note=50, velocity=41, time=11),\n",
       "    Message('note_on', channel=0, note=58, velocity=46, time=0),\n",
       "    Message('control_change', channel=0, control=64, value=67, time=3),\n",
       "    Message('control_change', channel=0, control=64, value=0, time=15),\n",
       "    Message('control_change', channel=0, control=64, value=45, time=74),\n",
       "    Message('control_change', channel=0, control=64, value=64, time=15),\n",
       "    Message('control_change', channel=0, control=64, value=69, time=15),\n",
       "    Message('control_change', channel=0, control=64, value=78, time=15),\n",
       "    Message('control_change', channel=0, control=64, value=116, time=15),\n",
       "    Message('control_change', channel=0, control=64, value=127, time=14),\n",
       "    Message('note_off', channel=0, note=58, velocity=47, time=73),\n",
       "    Message('note_off', channel=0, note=42, velocity=45, time=96),\n",
       "    Message('note_on', channel=0, note=53, velocity=36, time=90),\n",
       "    Message('note_on', channel=0, note=72, velocity=59, time=82),\n",
       "    Message('note_on', channel=0, note=60, velocity=44, time=6),\n",
       "    Message('note_off', channel=0, note=70, velocity=59, time=36),\n",
       "    Message('note_off', channel=0, note=53, velocity=63, time=20),\n",
       "    Message('control_change', channel=0, control=64, value=113, time=102),\n",
       "    Message('note_on', channel=0, note=41, velocity=52, time=15),\n",
       "    Message('control_change', channel=0, control=64, value=64, time=0),\n",
       "    Message('control_change', channel=0, control=64, value=0, time=14),\n",
       "    Message('control_change', channel=0, control=64, value=48, time=67),\n",
       "    Message('control_change', channel=0, control=64, value=71, time=14),\n",
       "    Message('control_change', channel=0, control=64, value=127, time=15),\n",
       "    Message('note_off', channel=0, note=41, velocity=38, time=47),\n",
       "    Message('note_off', channel=0, note=60, velocity=43, time=15),\n",
       "    Message('note_off', channel=0, note=50, velocity=52, time=115),\n",
       "    Message('note_on', channel=0, note=58, velocity=47, time=66),\n",
       "    Message('note_on', channel=0, note=74, velocity=68, time=21),\n",
       "    Message('note_on', channel=0, note=62, velocity=54, time=9),\n",
       "    Message('note_off', channel=0, note=58, velocity=46, time=46),\n",
       "    Message('note_off', channel=0, note=72, velocity=39, time=47),\n",
       "    Message('note_off', channel=0, note=62, velocity=51, time=10),\n",
       "    Message('note_off', channel=0, note=74, velocity=56, time=157),\n",
       "    Message('note_on', channel=0, note=77, velocity=67, time=254),\n",
       "    Message('note_on', channel=0, note=62, velocity=37, time=16),\n",
       "    Message('note_on', channel=0, note=65, velocity=42, time=6),\n",
       "    Message('note_off', channel=0, note=65, velocity=37, time=189),\n",
       "    Message('note_off', channel=0, note=77, velocity=37, time=102),\n",
       "    Message('note_off', channel=0, note=62, velocity=30, time=22),\n",
       "    Message('note_on', channel=0, note=63, velocity=39, time=81),\n",
       "    Message('note_on', channel=0, note=79, velocity=67, time=1),\n",
       "    Message('note_on', channel=0, note=67, velocity=49, time=6),\n",
       "    Message('note_off', channel=0, note=67, velocity=48, time=62),\n",
       "    Message('note_off', channel=0, note=63, velocity=54, time=111),\n",
       "    Message('note_off', channel=0, note=79, velocity=59, time=72),\n",
       "    Message('note_on', channel=0, note=62, velocity=46, time=59),\n",
       "    Message('note_on', channel=0, note=77, velocity=63, time=12),\n",
       "    Message('note_on', channel=0, note=65, velocity=45, time=7),\n",
       "    Message('note_off', channel=0, note=65, velocity=56, time=62),\n",
       "    Message('note_off', channel=0, note=77, velocity=56, time=29),\n",
       "    Message('note_off', channel=0, note=62, velocity=61, time=3),\n",
       "    Message('note_on', channel=0, note=74, velocity=66, time=200),\n",
       "    Message('note_on', channel=0, note=58, velocity=36, time=1),\n",
       "    Message('note_on', channel=0, note=62, velocity=51, time=11),\n",
       "    Message('note_off', channel=0, note=58, velocity=56, time=33),\n",
       "    Message('note_off', channel=0, note=62, velocity=62, time=9),\n",
       "    Message('note_off', channel=0, note=74, velocity=58, time=6),\n",
       "    Message('note_on', channel=0, note=53, velocity=41, time=235),\n",
       "    Message('note_off', channel=0, note=53, velocity=60, time=55),\n",
       "    Message('note_on', channel=0, note=70, velocity=61, time=238),\n",
       "    Message('note_on', channel=0, note=58, velocity=48, time=11),\n",
       "    Message('note_off', channel=0, note=58, velocity=51, time=87),\n",
       "    Message('note_off', channel=0, note=70, velocity=51, time=9),\n",
       "    Message('note_on', channel=0, note=42, velocity=44, time=70),\n",
       "    Message('note_on', channel=0, note=50, velocity=41, time=5),\n",
       "    Message('note_on', channel=0, note=70, velocity=59, time=36),\n",
       "    Message('note_on', channel=0, note=58, velocity=49, time=6),\n",
       "    Message('control_change', channel=0, control=64, value=98, time=8),\n",
       "    Message('control_change', channel=0, control=64, value=84, time=15),\n",
       "    Message('control_change', channel=0, control=64, value=74, time=15),\n",
       "    Message('control_change', channel=0, control=64, value=66, time=15),\n",
       "    Message('control_change', channel=0, control=64, value=61, time=15),\n",
       "    Message('control_change', channel=0, control=64, value=44, time=15),\n",
       "    Message('control_change', channel=0, control=64, value=0, time=15),\n",
       "    Message('note_on', channel=0, note=51, velocity=46, time=448),\n",
       "    Message('note_off', channel=0, note=50, velocity=36, time=75),\n",
       "    Message('note_on', channel=0, note=50, velocity=43, time=307),\n",
       "    Message('note_off', channel=0, note=51, velocity=59, time=6),\n",
       "    Message('note_off', channel=0, note=50, velocity=54, time=324),\n",
       "    Message('note_on', channel=0, note=49, velocity=43, time=14),\n",
       "    Message('control_change', channel=0, control=64, value=33, time=41),\n",
       "    Message('control_change', channel=0, control=64, value=50, time=15),\n",
       "    Message('control_change', channel=0, control=64, value=61, time=15),\n",
       "    Message('control_change', channel=0, control=64, value=64, time=15),\n",
       "    Message('control_change', channel=0, control=64, value=68, time=14),\n",
       "    Message('control_change', channel=0, control=64, value=76, time=15),\n",
       "    Message('control_change', channel=0, control=64, value=103, time=15),\n",
       "    Message('control_change', channel=0, control=64, value=127, time=15),\n",
       "    Message('note_off', channel=0, note=58, velocity=38, time=82),\n",
       "    Message('note_off', channel=0, note=70, velocity=37, time=21),\n",
       "    Message('note_off', channel=0, note=49, velocity=59, time=62),\n",
       "    Message('note_on', channel=0, note=70, velocity=47, time=57),\n",
       "    Message('control_change', channel=0, control=64, value=82, time=1),\n",
       "    Message('note_on', channel=0, note=58, velocity=39, time=5),\n",
       "    Message('note_on', channel=0, note=50, velocity=26, time=7),\n",
       "    Message('control_change', channel=0, control=64, value=65, time=2),\n",
       "    Message('control_change', channel=0, control=64, value=0, time=15),\n",
       "    Message('control_change', channel=0, control=64, value=58, time=104),\n",
       "    Message('control_change', channel=0, control=64, value=65, time=22),\n",
       "    Message('control_change', channel=0, control=64, value=72, time=14),\n",
       "    Message('control_change', channel=0, control=64, value=86, time=15),\n",
       "    Message('control_change', channel=0, control=64, value=127, time=15),\n",
       "    Message('note_off', channel=0, note=58, velocity=38, time=86),\n",
       "    Message('note_off', channel=0, note=42, velocity=14, time=38),\n",
       "    Message('note_on', channel=0, note=51, velocity=31, time=177),\n",
       "    Message('note_on', channel=0, note=72, velocity=55, time=4),\n",
       "    Message('note_on', channel=0, note=60, velocity=49, time=6),\n",
       "    Message('note_off', channel=0, note=50, velocity=38, time=2),\n",
       "    Message('note_off', channel=0, note=70, velocity=56, time=7),\n",
       "    Message('note_off', channel=0, note=60, velocity=55, time=189),\n",
       "    Message('note_off', channel=0, note=72, velocity=38, time=22),\n",
       "    Message('note_off', channel=0, note=51, velocity=37, time=156),\n",
       "    Message('note_on', channel=0, note=50, velocity=35, time=16),\n",
       "    Message('note_on', channel=0, note=43, velocity=32, time=19),\n",
       "    Message('control_change', channel=0, control=64, value=108, time=12),\n",
       "    Message('note_on', channel=0, note=70, velocity=61, time=9),\n",
       "    Message('control_change', channel=0, control=64, value=74, time=6),\n",
       "    Message('note_on', channel=0, note=58, velocity=40, time=2),\n",
       "    Message('control_change', channel=0, control=64, value=56, time=13),\n",
       "    Message('control_change', channel=0, control=64, value=0, time=14),\n",
       "    Message('control_change', channel=0, control=64, value=51, time=74),\n",
       "    Message('control_change', channel=0, control=64, value=65, time=15),\n",
       "    Message('control_change', channel=0, control=64, value=79, time=15),\n",
       "    Message('note_off', channel=0, note=58, velocity=55, time=8),\n",
       "    Message('control_change', channel=0, control=64, value=127, time=7),\n",
       "    Message('note_off', channel=0, note=43, velocity=34, time=36),\n",
       "    Message('note_off', channel=0, note=50, velocity=33, time=217),\n",
       "    Message('note_on', channel=0, note=74, velocity=64, time=71),\n",
       "    Message('note_on', channel=0, note=62, velocity=51, time=6),\n",
       "    Message('note_on', channel=0, note=58, velocity=42, time=13),\n",
       "    Message('note_off', channel=0, note=70, velocity=39, time=31),\n",
       "    Message('note_off', channel=0, note=58, velocity=57, time=87),\n",
       "    Message('note_off', channel=0, note=62, velocity=37, time=34),\n",
       "    Message('note_off', channel=0, note=74, velocity=59, time=202),\n",
       "    Message('note_on', channel=0, note=75, velocity=69, time=2),\n",
       "    Message('note_on', channel=0, note=60, velocity=39, time=3),\n",
       "    Message('note_on', channel=0, note=63, velocity=39, time=7),\n",
       "    Message('note_off', channel=0, note=63, velocity=56, time=188),\n",
       "    Message('note_off', channel=0, note=75, velocity=45, time=36),\n",
       "    Message('note_off', channel=0, note=60, velocity=34, time=15),\n",
       "    Message('note_on', channel=0, note=74, velocity=68, time=47),\n",
       "    Message('note_on', channel=0, note=58, velocity=44, time=1),\n",
       "    Message('note_on', channel=0, note=62, velocity=59, time=8),\n",
       "    Message('note_off', channel=0, note=58, velocity=64, time=28),\n",
       "    Message('note_off', channel=0, note=74, velocity=48, time=41),\n",
       "    Message('note_off', channel=0, note=62, velocity=53, time=20),\n",
       "    Message('note_on', channel=0, note=55, velocity=46, time=192),\n",
       "    Message('note_on', channel=0, note=70, velocity=72, time=0),\n",
       "    Message('note_on', channel=0, note=58, velocity=59, time=19),\n",
       "    Message('note_off', channel=0, note=58, velocity=63, time=20),\n",
       "    Message('note_off', channel=0, note=70, velocity=61, time=9),\n",
       "    Message('note_off', channel=0, note=55, velocity=60, time=75),\n",
       "    Message('note_on', channel=0, note=50, velocity=49, time=166),\n",
       "    Message('note_off', channel=0, note=50, velocity=63, time=40),\n",
       "    Message('note_on', channel=0, note=67, velocity=73, time=103),\n",
       "    Message('note_on', channel=0, note=55, velocity=63, time=15),\n",
       "    Message('note_off', channel=0, note=55, velocity=38, time=110),\n",
       "    Message('note_off', channel=0, note=67, velocity=49, time=39),\n",
       "    Message('note_on', channel=0, note=44, velocity=57, time=95),\n",
       "    Message('note_on', channel=0, note=46, velocity=61, time=0),\n",
       "    Message('control_change', channel=0, control=64, value=107, time=77),\n",
       "    Message('control_change', channel=0, control=64, value=90, time=15),\n",
       "    Message('note_on', channel=0, note=65, velocity=77, time=2),\n",
       "    Message('note_on', channel=0, note=53, velocity=64, time=10),\n",
       "    Message('control_change', channel=0, control=64, value=79, time=3),\n",
       "    Message('control_change', channel=0, control=64, value=72, time=15),\n",
       "    Message('control_change', channel=0, control=64, value=66, time=15),\n",
       "    Message('control_change', channel=0, control=64, value=63, time=15),\n",
       "    Message('control_change', channel=0, control=64, value=54, time=15),\n",
       "    Message('control_change', channel=0, control=64, value=38, time=15),\n",
       "    Message('control_change', channel=0, control=64, value=0, time=15),\n",
       "    Message('control_change', channel=0, control=64, value=24, time=163),\n",
       "    Message('control_change', channel=0, control=64, value=51, time=14),\n",
       "    Message('control_change', channel=0, control=64, value=59, time=15),\n",
       "    Message('control_change', channel=0, control=64, value=62, time=15),\n",
       "    Message('note_on', channel=0, note=48, velocity=59, time=9),\n",
       "    Message('control_change', channel=0, control=64, value=64, time=5),\n",
       "    Message('note_off', channel=0, note=46, velocity=57, time=6),\n",
       "    Message('control_change', channel=0, control=64, value=66, time=9),\n",
       "    Message('control_change', channel=0, control=64, value=68, time=15),\n",
       "    Message('control_change', channel=0, control=64, value=72, time=15),\n",
       "    Message('control_change', channel=0, control=64, value=82, time=15),\n",
       "    Message('control_change', channel=0, control=64, value=109, time=14),\n",
       "    Message('control_change', channel=0, control=64, value=127, time=15),\n",
       "    Message('note_on', channel=0, note=46, velocity=68, time=113),\n",
       "    Message('note_off', channel=0, note=44, velocity=54, time=10),\n",
       "    Message('note_off', channel=0, note=48, velocity=60, time=27),\n",
       "    Message('note_off', channel=0, note=46, velocity=62, time=123),\n",
       "    Message('note_on', channel=0, note=45, velocity=76, time=2),\n",
       "    Message('control_change', channel=0, control=64, value=108, time=59),\n",
       "    Message('control_change', channel=0, control=64, value=86, time=15),\n",
       "    Message('control_change', channel=0, control=64, value=74, time=15),\n",
       "    Message('control_change', channel=0, control=64, value=66, time=15),\n",
       "    Message('control_change', channel=0, control=64, value=62, time=14),\n",
       "    Message('control_change', channel=0, control=64, value=52, time=15),\n",
       "    Message('control_change', channel=0, control=64, value=39, time=15),\n",
       "    Message('control_change', channel=0, control=64, value=32, time=15),\n",
       "    Message('control_change', channel=0, control=64, value=13, time=15),\n",
       "    Message('note_off', channel=0, note=53, velocity=29, time=12),\n",
       "    Message('control_change', channel=0, control=64, value=0, time=3),\n",
       "    Message('note_on', channel=0, note=46, velocity=69, time=8),\n",
       "    Message('note_off', channel=0, note=45, velocity=63, time=27),\n",
       "    Message('control_change', channel=0, control=64, value=33, time=143),\n",
       "    Message('control_change', channel=0, control=64, value=60, time=15),\n",
       "    Message('control_change', channel=0, control=64, value=65, time=15),\n",
       "    Message('note_on', channel=0, note=50, velocity=53, time=14),\n",
       "    Message('control_change', channel=0, control=64, value=69, time=0),\n",
       "    Message('control_change', channel=0, control=64, value=77, time=15),\n",
       "    Message('control_change', channel=0, control=64, value=104, time=15),\n",
       "    Message('control_change', channel=0, control=64, value=127, time=14),\n",
       "    Message('note_off', channel=0, note=46, velocity=55, time=21),\n",
       "    Message('note_off', channel=0, note=50, velocity=62, time=6),\n",
       "    Message('note_on', channel=0, note=55, velocity=57, time=52),\n",
       "    Message('note_off', channel=0, note=65, velocity=39, time=10),\n",
       "    Message('note_off', channel=0, note=55, velocity=56, time=107),\n",
       "    Message('note_on', channel=0, note=47, velocity=76, time=48),\n",
       "    Message('control_change', channel=0, control=64, value=77, time=38),\n",
       "    Message('control_change', channel=0, control=64, value=62, time=15),\n",
       "    Message('control_change', channel=0, control=64, value=0, time=15),\n",
       "    Message('control_change', channel=0, control=64, value=63, time=51),\n",
       "    Message('control_change', channel=0, control=64, value=72, time=15),\n",
       "    Message('control_change', channel=0, control=64, value=107, time=15),\n",
       "    Message('control_change', channel=0, control=64, value=127, time=15),\n",
       "    Message('note_on', channel=0, note=50, velocity=78, time=0),\n",
       "    Message('note_on', channel=0, note=55, velocity=84, time=142),\n",
       "    Message('note_off', channel=0, note=47, velocity=56, time=73),\n",
       "    Message('note_on', channel=0, note=67, velocity=92, time=41),\n",
       "    Message('note_on', channel=0, note=62, velocity=81, time=228),\n",
       "    Message('note_on', channel=0, note=79, velocity=98, time=149),\n",
       "    Message('note_off', channel=0, note=79, velocity=49, time=444),\n",
       "    Message('note_off', channel=0, note=67, velocity=54, time=27),\n",
       "    Message('note_on', channel=0, note=53, velocity=42, time=244),\n",
       "    Message('note_on', channel=0, note=77, velocity=83, time=45),\n",
       "    Message('note_off', channel=0, note=50, velocity=8, time=0),\n",
       "    Message('note_on', channel=0, note=65, velocity=68, time=11),\n",
       "    Message('note_off', channel=0, note=62, velocity=50, time=0),\n",
       "    Message('note_off', channel=0, note=55, velocity=37, time=12),\n",
       "    Message('note_off', channel=0, note=65, velocity=60, time=44),\n",
       "    Message('note_off', channel=0, note=77, velocity=40, time=179),\n",
       "    Message('note_on', channel=0, note=48, velocity=47, time=106),\n",
       "    Message('note_on', channel=0, note=51, velocity=50, time=0),\n",
       "    Message('note_on', channel=0, note=60, velocity=44, time=0),\n",
       "    Message('note_off', channel=0, note=53, velocity=37, time=28),\n",
       "    Message('control_change', channel=0, control=64, value=88, time=66),\n",
       "    Message('note_on', channel=0, note=75, velocity=87, time=3),\n",
       "    Message('note_on', channel=0, note=63, velocity=66, time=9),\n",
       "    Message('control_change', channel=0, control=64, value=68, time=3),\n",
       "    Message('control_change', channel=0, control=64, value=0, time=15),\n",
       "    Message('control_change', channel=0, control=64, value=59, time=74),\n",
       "    Message('control_change', channel=0, control=64, value=66, time=15),\n",
       "    Message('control_change', channel=0, control=64, value=74, time=15),\n",
       "    Message('control_change', channel=0, control=64, value=107, time=14),\n",
       "    Message('control_change', channel=0, control=64, value=127, time=15),\n",
       "    Message('note_off', channel=0, note=63, velocity=54, time=38),\n",
       "    Message('note_off', channel=0, note=75, velocity=55, time=92),\n",
       "    Message('note_off', channel=0, note=51, velocity=36, time=47),\n",
       "    Message('note_on', channel=0, note=77, velocity=72, time=161),\n",
       "    Message('note_on', channel=0, note=75, velocity=83, time=145),\n",
       "    Message('note_off', channel=0, note=77, velocity=61, time=22),\n",
       "    Message('note_off', channel=0, note=75, velocity=58, time=140),\n",
       "    Message('note_on', channel=0, note=58, velocity=42, time=41),\n",
       "    Message('note_on', channel=0, note=51, velocity=45, time=3),\n",
       "    Message('note_off', channel=0, note=48, velocity=34, time=0),\n",
       "    Message('control_change', channel=0, control=64, value=116, time=15),\n",
       "    Message('note_off', channel=0, note=60, velocity=61, time=6),\n",
       "    Message('control_change', channel=0, control=64, value=98, time=9),\n",
       "    Message('control_change', channel=0, control=64, value=86, time=15),\n",
       "    Message('note_on', channel=0, note=74, velocity=77, time=8),\n",
       "    Message('control_change', channel=0, control=64, value=76, time=7),\n",
       "    Message('note_on', channel=0, note=66, velocity=52, time=13),\n",
       "    Message('control_change', channel=0, control=64, value=68, time=2),\n",
       "    Message('control_change', channel=0, control=64, value=62, time=15),\n",
       "    Message('control_change', channel=0, control=64, value=24, time=15),\n",
       "    Message('control_change', channel=0, control=64, value=0, time=14),\n",
       "    Message('control_change', channel=0, control=64, value=56, time=89),\n",
       "    Message('control_change', channel=0, control=64, value=64, time=22),\n",
       "    Message('control_change', channel=0, control=64, value=68, time=15),\n",
       "    Message('control_change', channel=0, control=64, value=75, time=15),\n",
       "    Message('control_change', channel=0, control=64, value=96, time=15),\n",
       "    Message('control_change', channel=0, control=64, value=127, time=15),\n",
       "    Message('note_off', channel=0, note=74, velocity=39, time=178),\n",
       "    Message('note_off', channel=0, note=66, velocity=42, time=3),\n",
       "    Message('note_on', channel=0, note=72, velocity=71, time=90),\n",
       "    Message('note_off', channel=0, note=51, velocity=41, time=153),\n",
       "    Message('note_off', channel=0, note=58, velocity=41, time=41),\n",
       "    Message('note_off', channel=0, note=72, velocity=46, time=8),\n",
       "    Message('note_on', channel=0, note=53, velocity=33, time=424),\n",
       "    Message('note_on', channel=0, note=62, velocity=42, time=0),\n",
       "    Message('control_change', channel=0, control=64, value=109, time=30),\n",
       "    Message('note_on', channel=0, note=65, velocity=48, time=3),\n",
       "    Message('note_on', channel=0, note=77, velocity=67, time=0),\n",
       "    Message('control_change', channel=0, control=64, value=96, time=11),\n",
       "    Message('note_on', channel=0, note=70, velocity=51, time=1),\n",
       "    Message('control_change', channel=0, control=64, value=88, time=14),\n",
       "    Message('control_change', channel=0, control=64, value=82, time=15),\n",
       "    Message('control_change', channel=0, control=64, value=76, time=14),\n",
       "    Message('control_change', channel=0, control=64, value=72, time=15),\n",
       "    Message('control_change', channel=0, control=64, value=68, time=15),\n",
       "    Message('control_change', channel=0, control=64, value=65, time=15),\n",
       "    Message('control_change', channel=0, control=64, value=63, time=15),\n",
       "    Message('control_change', channel=0, control=64, value=60, time=14),\n",
       "    Message('control_change', channel=0, control=64, value=56, time=15),\n",
       "    Message('control_change', channel=0, control=64, value=53, time=16),\n",
       "    Message('control_change', channel=0, control=64, value=46, time=15),\n",
       "    Message('control_change', channel=0, control=64, value=28, time=15),\n",
       "    Message('control_change', channel=0, control=64, value=0, time=15),\n",
       "    Message('control_change', channel=0, control=64, value=26, time=118),\n",
       "    Message('control_change', channel=0, control=64, value=51, time=15),\n",
       "    Message('control_change', channel=0, control=64, value=61, time=14),\n",
       "    Message('control_change', channel=0, control=64, value=64, time=15),\n",
       "    Message('control_change', channel=0, control=64, value=66, time=15),\n",
       "    Message('control_change', channel=0, control=64, value=70, time=15),\n",
       "    Message('control_change', channel=0, control=64, value=79, time=15),\n",
       "    Message('control_change', channel=0, control=64, value=127, time=14),\n",
       "    Message('note_off', channel=0, note=62, velocity=37, time=116),\n",
       "    Message('note_off', channel=0, note=53, velocity=55, time=40),\n",
       "    Message('control_change', channel=0, control=64, value=92, time=490),\n",
       "    Message('control_change', channel=0, control=64, value=74, time=15),\n",
       "    Message('note_on', channel=0, note=41, velocity=41, time=4),\n",
       "    Message('control_change', channel=0, control=64, value=65, time=10),\n",
       "    Message('control_change', channel=0, control=64, value=64, time=15),\n",
       "    Message('note_off', channel=0, note=70, velocity=39, time=10),\n",
       "    Message('control_change', channel=0, control=64, value=66, time=5),\n",
       "    Message('control_change', channel=0, control=64, value=72, time=15),\n",
       "    Message('control_change', channel=0, control=64, value=88, time=15),\n",
       "    Message('note_off', channel=0, note=65, velocity=38, time=10),\n",
       "    Message('control_change', channel=0, control=64, value=127, time=4),\n",
       "    Message('note_off', channel=0, note=41, velocity=58, time=78),\n",
       "    Message('note_off', channel=0, note=77, velocity=36, time=87),\n",
       "    Message('note_on', channel=0, note=60, velocity=31, time=240),\n",
       "    Message('note_on', channel=0, note=69, velocity=49, time=26),\n",
       "    Message('note_on', channel=0, note=63, velocity=29, time=28),\n",
       "    Message('note_off', channel=0, note=60, velocity=63, time=8),\n",
       "    Message('note_off', channel=0, note=63, velocity=37, time=117),\n",
       "    Message('note_off', channel=0, note=69, velocity=36, time=173),\n",
       "    Message('note_on', channel=0, note=70, velocity=46, time=397),\n",
       "    Message('note_off', channel=0, note=70, velocity=52, time=112),\n",
       "    Message('note_on', channel=0, note=46, velocity=30, time=235),\n",
       "    Message('note_on', channel=0, note=70, velocity=45, time=34),\n",
       "    Message('note_on', channel=0, note=62, velocity=35, time=2),\n",
       "    Message('control_change', channel=0, control=64, value=101, time=21),\n",
       "    Message('control_change', channel=0, control=64, value=87, time=22),\n",
       "    Message('control_change', channel=0, control=64, value=77, time=15),\n",
       "    Message('control_change', channel=0, control=64, value=70, time=15),\n",
       "    Message('control_change', channel=0, control=64, value=65, time=15),\n",
       "    Message('control_change', channel=0, control=64, value=60, time=15),\n",
       "    Message('control_change', channel=0, control=64, value=45, time=14),\n",
       "    Message('control_change', channel=0, control=64, value=0, time=15),\n",
       "    Message('control_change', channel=0, control=64, value=64, time=193),\n",
       "    Message('control_change', channel=0, control=64, value=70, time=15),\n",
       "    Message('control_change', channel=0, control=64, value=80, time=15),\n",
       "    Message('control_change', channel=0, control=64, value=99, time=14),\n",
       "    Message('control_change', channel=0, control=64, value=127, time=15),\n",
       "    Message('note_on', channel=0, note=58, velocity=38, time=138),\n",
       "    Message('note_off', channel=0, note=58, velocity=37, time=157),\n",
       "    Message('control_change', channel=0, control=64, value=104, time=230),\n",
       "    Message('control_change', channel=0, control=64, value=74, time=15),\n",
       "    Message('note_on', channel=0, note=53, velocity=39, time=9),\n",
       "    Message('control_change', channel=0, control=64, value=64, time=6),\n",
       "    Message('control_change', channel=0, control=64, value=35, time=15),\n",
       "    Message('control_change', channel=0, control=64, value=24, time=15),\n",
       "    Message('control_change', channel=0, control=64, value=56, time=14),\n",
       "    Message('control_change', channel=0, control=64, value=64, time=15),\n",
       "    Message('control_change', channel=0, control=64, value=69, time=15),\n",
       "    Message('control_change', channel=0, control=64, value=83, time=15),\n",
       "    Message('control_change', channel=0, control=64, value=127, time=15),\n",
       "    Message('note_off', channel=0, note=53, velocity=52, time=51),\n",
       "    Message('note_off', channel=0, note=62, velocity=38, time=53),\n",
       "    Message('control_change', channel=0, control=64, value=115, time=58),\n",
       "    Message('control_change', channel=0, control=64, value=75, time=15),\n",
       "    Message('control_change', channel=0, control=64, value=64, time=15),\n",
       "    Message('note_off', channel=0, note=70, velocity=38, time=13),\n",
       "    Message('control_change', channel=0, control=64, value=62, time=2),\n",
       "    Message('control_change', channel=0, control=64, value=65, time=14),\n",
       "    Message('note_on', channel=0, note=50, velocity=34, time=12),\n",
       "    Message('control_change', channel=0, control=64, value=72, time=3),\n",
       "    Message('control_change', channel=0, control=64, value=99, time=15),\n",
       "    Message('control_change', channel=0, control=64, value=127, time=15),\n",
       "    Message('note_off', channel=0, note=46, velocity=45, time=27),\n",
       "    Message('note_off', channel=0, note=50, velocity=35, time=224),\n",
       "    Message('control_change', channel=0, control=64, value=109, time=24),\n",
       "    Message('control_change', channel=0, control=64, value=96, time=15),\n",
       "    Message('note_on', channel=0, note=46, velocity=33, time=1),\n",
       "    Message('control_change', channel=0, control=64, value=89, time=13),\n",
       "    Message('note_on', channel=0, note=58, velocity=35, time=5),\n",
       "    Message('note_on', channel=0, note=67, velocity=48, time=3),\n",
       "    Message('note_on', channel=0, note=62, velocity=42, time=6),\n",
       "    Message('control_change', channel=0, control=64, value=81, time=1),\n",
       "    Message('control_change', channel=0, control=64, value=68, time=15),\n",
       "    Message('control_change', channel=0, control=64, value=58, time=15),\n",
       "    Message('control_change', channel=0, control=64, value=0, time=15),\n",
       "    Message('control_change', channel=0, control=64, value=53, time=29),\n",
       "    Message('control_change', channel=0, control=64, value=64, time=15),\n",
       "    Message('control_change', channel=0, control=64, value=69, time=15),\n",
       "    Message('control_change', channel=0, control=64, value=83, time=15),\n",
       "    Message('control_change', channel=0, control=64, value=127, time=15),\n",
       "    Message('note_off', channel=0, note=58, velocity=57, time=90),\n",
       "    Message('note_off', channel=0, note=46, velocity=57, time=28),\n",
       "    Message('note_off', channel=0, note=67, velocity=38, time=138),\n",
       "    Message('note_on', channel=0, note=69, velocity=48, time=5),\n",
       "    Message('note_on', channel=0, note=57, velocity=40, time=10),\n",
       "    Message('note_on', channel=0, note=60, velocity=39, time=15),\n",
       "    Message('note_off', channel=0, note=62, velocity=39, time=6),\n",
       "    Message('note_off', channel=0, note=60, velocity=58, time=58),\n",
       "    Message('note_off', channel=0, note=57, velocity=51, time=29),\n",
       "    Message('note_off', channel=0, note=69, velocity=59, time=83),\n",
       "    Message('note_on', channel=0, note=55, velocity=39, time=215),\n",
       "    Message('note_on', channel=0, note=70, velocity=54, time=2),\n",
       "    Message('note_on', channel=0, note=58, velocity=44, time=4),\n",
       "    Message('control_change', channel=0, control=64, value=108, time=6),\n",
       "    Message('note_on', channel=0, note=48, velocity=35, time=3),\n",
       "    Message('control_change', channel=0, control=64, value=92, time=12),\n",
       "    Message('control_change', channel=0, control=64, value=80, time=15),\n",
       "    Message('control_change', channel=0, control=64, value=71, time=15),\n",
       "    Message('control_change', channel=0, control=64, value=65, time=14),\n",
       "    Message('control_change', channel=0, control=64, value=64, time=15),\n",
       "    Message('control_change', channel=0, control=64, value=65, time=15),\n",
       "    Message('control_change', channel=0, control=64, value=67, time=15),\n",
       "    Message('control_change', channel=0, control=64, value=72, time=15),\n",
       "    Message('control_change', channel=0, control=64, value=80, time=15),\n",
       "    Message('control_change', channel=0, control=64, value=103, time=15),\n",
       "    Message('control_change', channel=0, control=64, value=127, time=15),\n",
       "    Message('note_off', channel=0, note=58, velocity=46, time=6),\n",
       "    Message('note_off', channel=0, note=70, velocity=58, time=63),\n",
       "    Message('note_off', channel=0, note=55, velocity=45, time=139),\n",
       "    Message('note_on', channel=0, note=53, velocity=37, time=36),\n",
       "    Message('note_on', channel=0, note=72, velocity=56, time=6),\n",
       "    Message('note_on', channel=0, note=69, velocity=41, time=3),\n",
       "    Message('note_off', channel=0, note=69, velocity=49, time=140),\n",
       "    Message('note_off', channel=0, note=53, velocity=37, time=90),\n",
       "    Message('note_on', channel=0, note=74, velocity=66, time=74),\n",
       "    Message('note_on', channel=0, note=52, velocity=39, time=2),\n",
       "    Message('note_on', channel=0, note=67, velocity=45, time=13),\n",
       "    Message('note_off', channel=0, note=72, velocity=48, time=25),\n",
       "    Message('note_off', channel=0, note=67, velocity=56, time=84),\n",
       "    Message('note_off', channel=0, note=74, velocity=63, time=92),\n",
       "    Message('note_off', channel=0, note=52, velocity=51, time=2),\n",
       "    Message('note_off', channel=0, note=48, velocity=38, time=29),\n",
       "    Message('note_on', channel=0, note=76, velocity=70, time=17),\n",
       "    Message('note_on', channel=0, note=50, velocity=49, time=1),\n",
       "    Message('note_on', channel=0, note=65, velocity=53, time=18),\n",
       "    Message('note_off', channel=0, note=50, velocity=63, time=18),\n",
       "    Message('note_off', channel=0, note=65, velocity=59, time=50),\n",
       "    Message('note_off', channel=0, note=76, velocity=63, time=133),\n",
       "    Message('note_on', channel=0, note=36, velocity=42, time=38),\n",
       "    Message('note_on', channel=0, note=77, velocity=77, time=5),\n",
       "    Message('note_on', channel=0, note=64, velocity=52, time=9),\n",
       "    Message('note_on', channel=0, note=48, velocity=25, time=1),\n",
       "    Message('note_on', channel=0, note=65, velocity=22, time=38),\n",
       "    Message('note_off', channel=0, note=64, velocity=61, time=41),\n",
       "    Message('note_off', channel=0, note=65, velocity=62, time=34),\n",
       "    Message('note_off', channel=0, note=48, velocity=42, time=56),\n",
       "    Message('note_off', channel=0, note=77, velocity=60, time=40),\n",
       "    Message('note_off', channel=0, note=36, velocity=37, time=16),\n",
       "    Message('note_on', channel=0, note=46, velocity=47, time=18),\n",
       "    Message('note_on', channel=0, note=79, velocity=84, time=13),\n",
       "    Message('note_on', channel=0, note=74, velocity=65, time=5),\n",
       "    Message('note_off', channel=0, note=74, velocity=61, time=156),\n",
       "    Message('note_off', channel=0, note=46, velocity=55, time=83),\n",
       "    Message('note_on', channel=0, note=36, velocity=46, time=40),\n",
       "    Message('note_on', channel=0, note=45, velocity=46, time=5),\n",
       "    Message('note_on', channel=0, note=81, velocity=73, time=42),\n",
       "    Message('note_on', channel=0, note=72, velocity=55, time=9),\n",
       "    Message('control_change', channel=0, control=64, value=111, time=0),\n",
       "    Message('note_off', channel=0, note=79, velocity=49, time=7),\n",
       "    Message('control_change', channel=0, control=64, value=93, time=8),\n",
       "    Message('control_change', channel=0, control=64, value=83, time=14),\n",
       "    Message('control_change', channel=0, control=64, value=73, time=15),\n",
       "    Message('control_change', channel=0, control=64, value=66, time=15),\n",
       "    Message('control_change', channel=0, control=64, value=56, time=15),\n",
       "    Message('control_change', channel=0, control=64, value=0, time=15),\n",
       "    Message('control_change', channel=0, control=64, value=33, time=44),\n",
       "    Message('control_change', channel=0, control=64, value=56, time=15),\n",
       "    Message('control_change', channel=0, control=64, value=63, time=15),\n",
       "    Message('control_change', channel=0, control=64, value=66, time=14),\n",
       "    Message('control_change', channel=0, control=64, value=73, time=15),\n",
       "    Message('control_change', channel=0, control=64, value=103, time=15),\n",
       "    Message('control_change', channel=0, control=64, value=127, time=22),\n",
       "    Message('note_off', channel=0, note=45, velocity=54, time=54),\n",
       "    Message('note_on', channel=0, note=79, velocity=71, time=89),\n",
       "    Message('note_on', channel=0, note=46, velocity=38, time=0),\n",
       "    Message('note_off', channel=0, note=72, velocity=58, time=5),\n",
       "    Message('note_off', channel=0, note=81, velocity=57, time=9),\n",
       "    Message('note_on', channel=0, note=76, velocity=55, time=1),\n",
       "    Message('note_off', channel=0, note=36, velocity=39, time=2),\n",
       "    Message('note_off', channel=0, note=79, velocity=61, time=134),\n",
       "    Message('note_off', channel=0, note=46, velocity=37, time=76),\n",
       "    Message('note_on', channel=0, note=48, velocity=41, time=42),\n",
       "    Message('note_off', channel=0, note=76, velocity=62, time=6),\n",
       "    Message('note_on', channel=0, note=77, velocity=69, time=1),\n",
       "    Message('note_on', channel=0, note=69, velocity=33, time=35),\n",
       "    Message('note_off', channel=0, note=48, velocity=62, time=114),\n",
       "    Message('note_on', channel=0, note=50, velocity=47, time=38),\n",
       "    Message('note_off', channel=0, note=50, velocity=57, time=27),\n",
       "    Message('note_on', channel=0, note=76, velocity=67, time=17),\n",
       "    Message('note_on', channel=0, note=72, velocity=61, time=14),\n",
       "    Message('note_off', channel=0, note=69, velocity=50, time=3),\n",
       "    Message('note_off', channel=0, note=77, velocity=57, time=28),\n",
       "    Message('note_on', channel=0, note=36, velocity=60, time=45),\n",
       "    Message('note_off', channel=0, note=76, velocity=64, time=33),\n",
       "    Message('note_off', channel=0, note=36, velocity=60, time=57),\n",
       "    Message('note_on', channel=0, note=52, velocity=59, time=70),\n",
       "    Message('note_off', channel=0, note=72, velocity=65, time=4),\n",
       "    Message('note_on', channel=0, note=74, velocity=76, time=8),\n",
       "    Message('note_on', channel=0, note=67, velocity=53, time=17),\n",
       "    Message('note_off', channel=0, note=67, velocity=49, time=198),\n",
       "    Message('note_off', channel=0, note=74, velocity=52, time=18),\n",
       "    Message('note_off', channel=0, note=52, velocity=58, time=1),\n",
       "    Message('note_on', channel=0, note=53, velocity=60, time=37),\n",
       "    Message('note_on', channel=0, note=72, velocity=77, time=0),\n",
       "    Message('note_on', channel=0, note=69, velocity=61, time=9),\n",
       "    Message('note_off', channel=0, note=69, velocity=61, time=65),\n",
       "    Message('note_off', channel=0, note=53, velocity=61, time=210),\n",
       "    Message('note_on', channel=0, note=70, velocity=73, time=40),\n",
       "    Message('note_on', channel=0, note=55, velocity=56, time=2),\n",
       "    Message('note_off', channel=0, note=72, velocity=46, time=0),\n",
       "    Message('note_on', channel=0, note=48, velocity=53, time=1),\n",
       "    Message('control_change', channel=0, control=64, value=91, time=4),\n",
       "    Message('note_on', channel=0, note=64, velocity=54, time=4),\n",
       "    Message('control_change', channel=0, control=64, value=68, time=10),\n",
       "    Message('control_change', channel=0, control=64, value=42, time=15),\n",
       "    Message('control_change', channel=0, control=64, value=0, time=15),\n",
       "    Message('control_change', channel=0, control=64, value=59, time=59),\n",
       "    Message('control_change', channel=0, control=64, value=67, time=15),\n",
       "    Message('control_change', channel=0, control=64, value=78, time=14),\n",
       "    Message('control_change', channel=0, control=64, value=127, time=15),\n",
       "    Message('note_off', channel=0, note=70, velocity=34, time=106),\n",
       "    Message('note_off', channel=0, note=64, velocity=55, time=22),\n",
       "    Message('note_on', channel=0, note=69, velocity=71, time=94),\n",
       "    Message('note_on', channel=0, note=57, velocity=58, time=6),\n",
       "    Message('note_off', channel=0, note=55, velocity=42, time=5),\n",
       "    Message('control_change', channel=0, control=64, value=96, time=5),\n",
       "    Message('note_on', channel=0, note=65, velocity=64, time=3),\n",
       "    Message('control_change', channel=0, control=64, value=74, time=12),\n",
       "    Message('control_change', channel=0, control=64, value=63, time=15),\n",
       "    Message('control_change', channel=0, control=64, value=0, time=15),\n",
       "    Message('control_change', channel=0, control=64, value=57, time=30),\n",
       "    Message('control_change', channel=0, control=64, value=66, time=14),\n",
       "    Message('control_change', channel=0, control=64, value=76, time=15),\n",
       "    Message('control_change', channel=0, control=64, value=127, time=15),\n",
       "    Message('note_off', channel=0, note=57, velocity=55, time=105),\n",
       "    Message('note_off', channel=0, note=69, velocity=61, time=1),\n",
       "    Message('note_off', channel=0, note=65, velocity=63, time=32),\n",
       "    Message('note_on', channel=0, note=58, velocity=50, time=39),\n",
       "    Message('control_change', channel=0, control=64, value=91, time=0),\n",
       "    Message('note_on', channel=0, note=61, velocity=58, time=1),\n",
       "    Message('note_on', channel=0, note=67, velocity=62, time=1),\n",
       "    Message('control_change', channel=0, control=64, value=68, time=13),\n",
       "    Message('control_change', channel=0, control=64, value=49, time=15),\n",
       "    Message('control_change', channel=0, control=64, value=0, time=23),\n",
       "    Message('control_change', channel=0, control=64, value=17, time=15),\n",
       "    Message('control_change', channel=0, control=64, value=62, time=14),\n",
       "    Message('control_change', channel=0, control=64, value=70, time=15),\n",
       "    Message('control_change', channel=0, control=64, value=96, time=15),\n",
       "    Message('control_change', channel=0, control=64, value=127, time=15),\n",
       "    Message('note_off', channel=0, note=61, velocity=61, time=69),\n",
       "    Message('note_off', channel=0, note=58, velocity=58, time=51),\n",
       "    Message('control_change', channel=0, control=64, value=77, time=27),\n",
       "    Message('note_on', channel=0, note=65, velocity=61, time=12),\n",
       "    Message('control_change', channel=0, control=64, value=63, time=3),\n",
       "    Message('note_on', channel=0, note=62, velocity=50, time=4),\n",
       "    Message('note_on', channel=0, note=59, velocity=48, time=7),\n",
       "    Message('control_change', channel=0, control=64, value=49, time=5),\n",
       "    Message('control_change', channel=0, control=64, value=59, time=15),\n",
       "    Message('note_off', channel=0, note=67, velocity=35, time=6),\n",
       "    Message('control_change', channel=0, control=64, value=65, time=9),\n",
       "    Message('control_change', channel=0, control=64, value=72, time=15),\n",
       "    Message('control_change', channel=0, control=64, value=127, time=15),\n",
       "    Message('note_off', channel=0, note=48, velocity=53, time=10),\n",
       "    Message('note_off', channel=0, note=59, velocity=51, time=57),\n",
       "    Message('note_off', channel=0, note=62, velocity=47, time=89),\n",
       "    Message('note_on', channel=0, note=48, velocity=43, time=101),\n",
       "    Message('note_off', channel=0, note=65, velocity=38, time=6),\n",
       "    Message('note_on', channel=0, note=60, velocity=55, time=0),\n",
       "    Message('note_on', channel=0, note=69, velocity=60, time=15),\n",
       "    Message('note_on', channel=0, note=63, velocity=53, time=10),\n",
       "    Message('control_change', channel=0, control=64, value=79, time=8),\n",
       "    Message('control_change', channel=0, control=64, value=64, time=15),\n",
       "    Message('control_change', channel=0, control=64, value=0, time=14),\n",
       "    Message('control_change', channel=0, control=64, value=60, time=170),\n",
       "    Message('control_change', channel=0, control=64, value=78, time=15),\n",
       "    Message('control_change', channel=0, control=64, value=127, time=15),\n",
       "    Message('note_off', channel=0, note=69, velocity=38, time=164),\n",
       "    Message('note_off', channel=0, note=63, velocity=32, time=12),\n",
       "    Message('control_change', channel=0, control=64, value=77, time=16),\n",
       "    Message('note_off', channel=0, note=60, velocity=63, time=12),\n",
       "    Message('control_change', channel=0, control=64, value=61, time=4),\n",
       "    Message('control_change', channel=0, control=64, value=0, time=15),\n",
       "    Message('note_on', channel=0, note=67, velocity=49, time=5),\n",
       "    Message('note_on', channel=0, note=64, velocity=43, time=3),\n",
       "    Message('note_on', channel=0, note=58, velocity=37, time=5),\n",
       "    Message('control_change', channel=0, control=64, value=60, time=45),\n",
       "    Message('control_change', channel=0, control=64, value=72, time=15),\n",
       "    Message('note_off', channel=0, note=58, velocity=55, time=12),\n",
       "    Message('control_change', channel=0, control=64, value=127, time=3),\n",
       "    Message('note_off', channel=0, note=64, velocity=58, time=5),\n",
       "    Message('note_off', channel=0, note=67, velocity=65, time=37),\n",
       "    Message('note_off', channel=0, note=48, velocity=61, time=5),\n",
       "    Message('note_on', channel=0, note=77, velocity=75, time=505),\n",
       "    Message('note_on', channel=0, note=57, velocity=55, time=4),\n",
       "    Message('control_change', channel=0, control=64, value=103, time=0),\n",
       "    Message('note_on', channel=0, note=41, velocity=48, time=1),\n",
       "    Message('note_on', channel=0, note=65, velocity=50, time=7),\n",
       "    Message('control_change', channel=0, control=64, value=78, time=6),\n",
       "    Message('control_change', channel=0, control=64, value=66, time=15),\n",
       "    Message('control_change', channel=0, control=64, value=46, time=15),\n",
       "    Message('control_change', channel=0, control=64, value=0, time=15),\n",
       "    Message('note_off', channel=0, note=65, velocity=0, time=17),\n",
       "    Message('note_on', channel=0, note=65, velocity=14, time=0),\n",
       "    Message('control_change', channel=0, control=64, value=22, time=27),\n",
       "    Message('control_change', channel=0, control=64, value=51, time=15),\n",
       "    Message('control_change', channel=0, control=64, value=63, time=16),\n",
       "    Message('control_change', channel=0, control=64, value=68, time=15),\n",
       "    Message('control_change', channel=0, control=64, value=85, time=15),\n",
       "    Message('control_change', channel=0, control=64, value=127, time=15),\n",
       "    Message('note_off', channel=0, note=41, velocity=57, time=30),\n",
       "    Message('note_off', channel=0, note=57, velocity=42, time=25),\n",
       "    Message('note_off', channel=0, note=65, velocity=46, time=39),\n",
       "    Message('note_off', channel=0, note=77, velocity=36, time=151),\n",
       "    Message('note_on', channel=0, note=75, velocity=70, time=182),\n",
       "    Message('note_on', channel=0, note=55, velocity=51, time=3),\n",
       "    Message('note_on', channel=0, note=43, velocity=44, time=6),\n",
       "    Message('control_change', channel=0, control=64, value=96, time=0),\n",
       "    Message('note_on', channel=0, note=63, velocity=51, time=1),\n",
       "    Message('control_change', channel=0, control=64, value=77, time=14),\n",
       "    Message('control_change', channel=0, control=64, value=65, time=15),\n",
       "    Message('control_change', channel=0, control=64, value=0, time=15),\n",
       "    Message('control_change', channel=0, control=64, value=49, time=59),\n",
       "    Message('control_change', channel=0, control=64, value=63, time=15),\n",
       "    Message('control_change', channel=0, control=64, value=68, time=15),\n",
       "    Message('control_change', channel=0, control=64, value=86, time=15),\n",
       "    Message('control_change', channel=0, control=64, value=127, time=15),\n",
       "    Message('note_off', channel=0, note=55, velocity=38, time=27),\n",
       "    Message('note_off', channel=0, note=75, velocity=41, time=43),\n",
       "    Message('note_off', channel=0, note=63, velocity=58, time=16),\n",
       "    Message('note_off', channel=0, note=43, velocity=38, time=80),\n",
       "    Message('control_change', channel=0, control=64, value=107, time=42),\n",
       "    Message('note_on', channel=0, note=74, velocity=59, time=1),\n",
       "    Message('note_on', channel=0, note=62, velocity=57, time=4),\n",
       "    Message('note_on', channel=0, note=53, velocity=43, time=7),\n",
       "    Message('control_change', channel=0, control=64, value=78, time=3),\n",
       "    Message('note_on', channel=0, note=44, velocity=38, time=12),\n",
       "    Message('control_change', channel=0, control=64, value=66, time=2),\n",
       "    Message('control_change', channel=0, control=64, value=33, time=15),\n",
       "    Message('control_change', channel=0, control=64, value=0, time=15),\n",
       "    Message('control_change', channel=0, control=64, value=34, time=44),\n",
       "    Message('control_change', channel=0, control=64, value=59, time=15),\n",
       "    Message('control_change', channel=0, control=64, value=64, time=15),\n",
       "    Message('control_change', channel=0, control=64, value=70, time=14),\n",
       "    Message('note_off', channel=0, note=44, velocity=52, time=13),\n",
       "    Message('control_change', channel=0, control=64, value=89, time=2),\n",
       "    Message('control_change', channel=0, control=64, value=127, time=15),\n",
       "    Message('note_off', channel=0, note=62, velocity=39, time=43),\n",
       "    Message('note_off', channel=0, note=74, velocity=37, time=11),\n",
       "    Message('note_off', channel=0, note=53, velocity=36, time=112),\n",
       "    Message('control_change', channel=0, control=64, value=115, time=64),\n",
       "    Message('note_on', channel=0, note=72, velocity=56, time=9),\n",
       "    Message('note_on', channel=0, note=45, velocity=37, time=3),\n",
       "    Message('note_on', channel=0, note=51, velocity=34, time=2),\n",
       "    Message('note_on', channel=0, note=60, velocity=31, time=0),\n",
       "    Message('control_change', channel=0, control=64, value=91, time=1),\n",
       "    Message('control_change', channel=0, control=64, value=78, time=15),\n",
       "    Message('control_change', channel=0, control=64, value=68, time=15),\n",
       "    Message('control_change', channel=0, control=64, value=58, time=15),\n",
       "    Message('control_change', channel=0, control=64, value=0, time=14),\n",
       "    Message('note_off', channel=0, note=60, velocity=0, time=8),\n",
       "    Message('note_on', channel=0, note=60, velocity=3, time=0),\n",
       "    Message('control_change', channel=0, control=64, value=59, time=96),\n",
       "    Message('control_change', channel=0, control=64, value=65, time=15),\n",
       "    Message('control_change', channel=0, control=64, value=70, time=15),\n",
       "    Message('control_change', channel=0, control=64, value=83, time=15),\n",
       "    Message('control_change', channel=0, control=64, value=127, time=14),\n",
       "    Message('note_off', channel=0, note=60, velocity=46, time=24),\n",
       "    Message('note_off', channel=0, note=51, velocity=53, time=3),\n",
       "    Message('note_off', channel=0, note=72, velocity=36, time=102),\n",
       "    Message('note_on', channel=0, note=50, velocity=38, time=174),\n",
       "    Message('note_on', channel=0, note=46, velocity=37, time=4),\n",
       "    Message('control_change', channel=0, control=64, value=105, time=20),\n",
       "    Message('control_change', channel=0, control=64, value=84, time=15),\n",
       "    Message('note_on', channel=0, note=70, velocity=58, time=10),\n",
       "    Message('note_off', channel=0, note=45, velocity=28, time=2),\n",
       "    Message('control_change', channel=0, control=64, value=69, time=3),\n",
       "    Message('note_on', channel=0, note=58, velocity=35, time=9),\n",
       "    Message('control_change', channel=0, control=64, value=58, time=5),\n",
       "    Message('control_change', channel=0, control=64, value=0, time=15),\n",
       "    Message('control_change', channel=0, control=64, value=56, time=82),\n",
       "    Message('control_change', channel=0, control=64, value=69, time=15),\n",
       "    Message('control_change', channel=0, control=64, value=115, time=15),\n",
       "    Message('control_change', channel=0, control=64, value=127, time=15),\n",
       "    Message('note_off', channel=0, note=58, velocity=58, time=37),\n",
       "    Message('note_on', channel=0, note=53, velocity=47, time=122),\n",
       "    Message('note_off', channel=0, note=53, velocity=60, time=31),\n",
       "    Message('note_off', channel=0, note=50, velocity=60, time=11),\n",
       "    Message('note_on', channel=0, note=72, velocity=75, time=46),\n",
       "    Message('note_on', channel=0, note=60, velocity=59, time=13),\n",
       "    Message('note_off', channel=0, note=46, velocity=63, time=2),\n",
       "    Message('note_off', channel=0, note=70, velocity=36, time=68),\n",
       "    Message('note_on', channel=0, note=34, velocity=56, time=28),\n",
       "    Message('note_off', channel=0, note=34, velocity=61, time=32),\n",
       "    Message('note_off', channel=0, note=60, velocity=36, time=0),\n",
       "    Message('note_on', channel=0, note=58, velocity=71, time=326),\n",
       "    Message('note_off', channel=0, note=72, velocity=27, time=31),\n",
       "    Message('note_on', channel=0, note=74, velocity=72, time=10),\n",
       "    Message('note_on', channel=0, note=62, velocity=59, time=6),\n",
       "    Message('note_off', channel=0, note=58, velocity=59, time=358),\n",
       "    Message('note_on', channel=0, note=72, velocity=53, time=155),\n",
       "    Message('note_on', channel=0, note=57, velocity=37, time=5),\n",
       "    Message('note_off', channel=0, note=62, velocity=55, time=168),\n",
       "    Message('note_off', channel=0, note=57, velocity=35, time=134),\n",
       "    Message('note_on', channel=0, note=55, velocity=33, time=60),\n",
       "    Message('note_on', channel=0, note=70, velocity=48, time=12),\n",
       "    Message('note_off', channel=0, note=55, velocity=40, time=234),\n",
       "    Message('note_on', channel=0, note=53, velocity=28, time=24),\n",
       "    Message('note_on', channel=0, note=69, velocity=51, time=19),\n",
       "    Message('note_off', channel=0, note=70, velocity=47, time=28),\n",
       "    Message('note_off', channel=0, note=72, velocity=45, time=20),\n",
       "    Message('note_off', channel=0, note=69, velocity=61, time=2),\n",
       "    Message('note_off', channel=0, note=74, velocity=47, time=34),\n",
       "    Message('note_off', channel=0, note=53, velocity=42, time=152),\n",
       "    Message('note_on', channel=0, note=51, velocity=49, time=26),\n",
       "    Message('note_on', channel=0, note=46, velocity=47, time=2),\n",
       "    Message('note_on', channel=0, note=75, velocity=80, time=21),\n",
       "    Message('note_on', channel=0, note=67, velocity=52, time=28),\n",
       "    Message('note_off', channel=0, note=51, velocity=48, time=189),\n",
       "    Message('note_off', channel=0, note=67, velocity=38, time=11),\n",
       "    Message('note_on', channel=0, note=50, velocity=48, time=14),\n",
       "    Message('note_off', channel=0, note=46, velocity=55, time=3),\n",
       "    Message('note_off', channel=0, note=50, velocity=56, time=60),\n",
       "    Message('note_on', channel=0, note=77, velocity=85, time=9),\n",
       "    Message('note_on', channel=0, note=65, velocity=72, time=11),\n",
       "    Message('note_off', channel=0, note=75, velocity=32, time=22),\n",
       "    Message('note_off', channel=0, note=65, velocity=65, time=7),\n",
       "    Message('note_on', channel=0, note=34, velocity=69, time=128),\n",
       "    Message('control_change', channel=0, control=64, value=98, time=20),\n",
       "    Message('control_change', channel=0, control=64, value=67, time=15),\n",
       "    Message('control_change', channel=0, control=64, value=49, time=15),\n",
       "    Message('control_change', channel=0, control=64, value=57, time=14),\n",
       "    Message('note_off', channel=0, note=77, velocity=55, time=5),\n",
       "    Message('control_change', channel=0, control=64, value=65, time=11),\n",
       "    Message('control_change', channel=0, control=64, value=75, time=15),\n",
       "    Message('control_change', channel=0, control=64, value=127, time=15),\n",
       "    Message('note_on', channel=0, note=63, velocity=73, time=19),\n",
       "    Message('note_off', channel=0, note=34, velocity=60, time=67),\n",
       "    Message('note_off', channel=0, note=63, velocity=62, time=12),\n",
       "    Message('note_on', channel=0, note=48, velocity=57, time=77),\n",
       "    Message('note_on', channel=0, note=79, velocity=94, time=52),\n",
       "    Message('note_off', channel=0, note=79, velocity=64, time=70),\n",
       "    Message('note_on', channel=0, note=50, velocity=31, time=415),\n",
       "    Message('note_off', channel=0, note=48, velocity=30, time=6),\n",
       "    Message('note_on', channel=0, note=65, velocity=48, time=24),\n",
       "    Message('note_off', channel=0, note=65, velocity=55, time=107),\n",
       "    Message('note_off', channel=0, note=50, velocity=35, time=214),\n",
       "    Message('note_on', channel=0, note=51, velocity=37, time=37),\n",
       "    Message('note_on', channel=0, note=67, velocity=52, time=18),\n",
       "    Message('note_off', channel=0, note=67, velocity=50, time=133),\n",
       "    Message('note_off', channel=0, note=51, velocity=35, time=148),\n",
       "    Message('note_on', channel=0, note=77, velocity=74, time=15),\n",
       "    Message('note_on', channel=0, note=53, velocity=43, time=6),\n",
       "    Message('note_on', channel=0, note=69, velocity=52, time=12),\n",
       "    Message('note_off', channel=0, note=53, velocity=59, time=217),\n",
       "    Message('note_on', channel=0, note=46, velocity=48, time=19),\n",
       "    Message('note_on', channel=0, note=55, velocity=52, time=1),\n",
       "    Message('control_change', channel=0, control=64, value=111, time=13),\n",
       "    Message('control_change', channel=0, control=64, value=72, time=15),\n",
       "    Message('note_on', channel=0, note=75, velocity=75, time=5),\n",
       "    Message('control_change', channel=0, control=64, value=55, time=10),\n",
       "    Message('note_on', channel=0, note=70, velocity=58, time=7),\n",
       "    Message('note_off', channel=0, note=69, velocity=51, time=0),\n",
       "    Message('control_change', channel=0, control=64, value=0, time=7),\n",
       "    Message('note_off', channel=0, note=77, velocity=60, time=16),\n",
       "    Message('control_change', channel=0, control=64, value=62, time=14),\n",
       "    Message('control_change', channel=0, control=64, value=69, time=15),\n",
       "    Message('control_change', channel=0, control=64, value=88, time=15),\n",
       "    Message('control_change', channel=0, control=64, value=127, time=14),\n",
       "    Message('note_off', channel=0, note=55, velocity=60, time=75),\n",
       "    Message('note_on', channel=0, note=56, velocity=49, time=5),\n",
       "    Message('note_off', channel=0, note=56, velocity=64, time=29),\n",
       "    Message('note_off', channel=0, note=75, velocity=63, time=13),\n",
       "    Message('note_off', channel=0, note=46, velocity=62, time=12),\n",
       "    Message('note_off', channel=0, note=70, velocity=56, time=11),\n",
       "    Message('note_on', channel=0, note=74, velocity=78, time=25),\n",
       "    Message('note_on', channel=0, note=71, velocity=63, time=10),\n",
       "    Message('note_off', channel=0, note=71, velocity=58, time=57),\n",
       "    Message('note_on', channel=0, note=34, velocity=62, time=3),\n",
       "    Message('note_off', channel=0, note=34, velocity=64, time=40),\n",
       "    Message('note_on', channel=0, note=57, velocity=56, time=209),\n",
       "    Message('note_on', channel=0, note=72, velocity=74, time=32),\n",
       "    Message('note_off', channel=0, note=57, velocity=63, time=379),\n",
       "    Message('note_on', channel=0, note=55, velocity=57, time=8),\n",
       "    Message('note_on', channel=0, note=70, velocity=74, time=13),\n",
       "    Message('note_off', channel=0, note=72, velocity=56, time=51),\n",
       "    Message('note_off', channel=0, note=74, velocity=59, time=23),\n",
       "    Message('note_off', channel=0, note=55, velocity=52, time=198),\n",
       "    Message('note_off', channel=0, note=70, velocity=59, time=31),\n",
       "    Message('note_on', channel=0, note=72, velocity=79, time=15),\n",
       "    Message('note_on', channel=0, note=53, velocity=56, time=1),\n",
       "    Message('note_on', channel=0, note=69, velocity=60, time=5),\n",
       "    Message('note_off', channel=0, note=69, velocity=55, time=159),\n",
       "    Message('note_off', channel=0, note=53, velocity=47, time=72),\n",
       "    Message('note_on', channel=0, note=74, velocity=81, time=59),\n",
       "    Message('note_on', channel=0, note=51, velocity=54, time=1),\n",
       "    Message('note_on', channel=0, note=67, velocity=59, time=15),\n",
       "    Message('note_off', channel=0, note=72, velocity=55, time=20),\n",
       "    Message('note_off', channel=0, note=67, velocity=49, time=36),\n",
       "    Message('note_off', channel=0, note=51, velocity=52, time=159),\n",
       "    Message('note_off', channel=0, note=74, velocity=61, time=7),\n",
       "    Message('control_change', channel=0, control=64, value=92, time=7),\n",
       "    Message('control_change', channel=0, control=64, value=67, time=15),\n",
       "    Message('note_on', channel=0, note=75, velocity=75, time=8),\n",
       "    Message('note_on', channel=0, note=50, velocity=44, time=3),\n",
       "    Message('control_change', channel=0, control=64, value=26, time=4),\n",
       "    Message('note_on', channel=0, note=46, velocity=42, time=3),\n",
       "    Message('note_on', channel=0, note=65, velocity=62, time=9),\n",
       "    Message('control_change', channel=0, control=64, value=0, time=2),\n",
       "    Message('control_change', channel=0, control=64, value=54, time=45),\n",
       "    Message('control_change', channel=0, control=64, value=65, time=15),\n",
       "    Message('control_change', channel=0, control=64, value=73, time=14),\n",
       "    Message('control_change', channel=0, control=64, value=94, time=15),\n",
       "    Message('note_off', channel=0, note=65, velocity=54, time=6),\n",
       "    Message('control_change', channel=0, control=64, value=127, time=9),\n",
       "    Message('note_off', channel=0, note=50, velocity=56, time=123),\n",
       "    Message('note_on', channel=0, note=48, velocity=44, time=18),\n",
       "    Message('note_off', channel=0, note=48, velocity=58, time=30),\n",
       "    Message('note_on', channel=0, note=63, velocity=43, time=1),\n",
       "    Message('note_off', channel=0, note=46, velocity=60, time=9),\n",
       "    Message('note_off', channel=0, note=75, velocity=40, time=49),\n",
       "    Message('note_off', channel=0, note=63, velocity=54, time=22),\n",
       "    Message('note_on', channel=0, note=62, velocity=53, time=45),\n",
       "    Message('note_off', channel=0, note=62, velocity=40, time=106),\n",
       "    Message('note_on', channel=0, note=34, velocity=44, time=57),\n",
       "    Message('note_on', channel=0, note=46, velocity=48, time=1),\n",
       "    Message('control_change', channel=0, control=64, value=112, time=51),\n",
       "    Message('control_change', channel=0, control=64, value=83, time=15),\n",
       "    Message('note_on', channel=0, note=77, velocity=69, time=13),\n",
       "    Message('control_change', channel=0, control=64, value=67, time=2),\n",
       "    Message('control_change', channel=0, control=64, value=17, time=15),\n",
       "    Message('control_change', channel=0, control=64, value=0, time=15),\n",
       "    Message('control_change', channel=0, control=64, value=58, time=44),\n",
       "    Message('note_off', channel=0, note=34, velocity=56, time=9),\n",
       "    Message('control_change', channel=0, control=64, value=66, time=6),\n",
       "    Message('control_change', channel=0, control=64, value=75, time=15),\n",
       "    Message('control_change', channel=0, control=64, value=127, time=14),\n",
       "    Message('note_off', channel=0, note=46, velocity=62, time=47),\n",
       "    Message('note_on', channel=0, note=50, velocity=40, time=330),\n",
       "    Message('note_on', channel=0, note=65, velocity=44, time=4),\n",
       "    Message('note_off', channel=0, note=65, velocity=37, time=391),\n",
       "    Message('note_on', channel=0, note=70, velocity=50, time=53),\n",
       "    Message('note_on', channel=0, note=53, velocity=22, time=16),\n",
       "    Message('control_change', channel=0, control=64, value=119, time=40),\n",
       "    Message('control_change', channel=0, control=64, value=102, time=15),\n",
       "    Message('control_change', channel=0, control=64, value=94, time=15),\n",
       "    Message('control_change', channel=0, control=64, value=86, time=23),\n",
       "    Message('control_change', channel=0, control=64, value=78, time=15),\n",
       "    Message('control_change', channel=0, control=64, value=67, time=14),\n",
       "    Message('note_off', channel=0, note=77, velocity=20, time=13),\n",
       "    Message('control_change', channel=0, control=64, value=57, time=2),\n",
       "    Message('control_change', channel=0, control=64, value=0, time=15),\n",
       "    Message('control_change', channel=0, control=64, value=47, time=14),\n",
       "    Message('control_change', channel=0, control=64, value=64, time=15),\n",
       "    Message('control_change', channel=0, control=64, value=69, time=15),\n",
       "    Message('control_change', channel=0, control=64, value=88, time=15),\n",
       "    Message('control_change', channel=0, control=64, value=127, time=15),\n",
       "    Message('note_on', channel=0, note=58, velocity=36, time=160),\n",
       "    Message('note_off', channel=0, note=70, velocity=47, time=19),\n",
       "    Message('note_on', channel=0, note=74, velocity=47, time=1),\n",
       "    Message('note_off', channel=0, note=74, velocity=57, time=87),\n",
       "    Message('note_off', channel=0, note=50, velocity=40, time=20),\n",
       "    Message('note_off', channel=0, note=53, velocity=41, time=101),\n",
       "    Message('note_off', channel=0, note=58, velocity=31, time=32),\n",
       "    Message('note_on', channel=0, note=62, velocity=39, time=86),\n",
       "    Message('note_on', channel=0, note=82, velocity=63, time=7),\n",
       "    Message('note_on', channel=0, note=70, velocity=47, time=11),\n",
       "    Message('note_off', channel=0, note=62, velocity=64, time=19),\n",
       "    Message('note_off', channel=0, note=70, velocity=61, time=42),\n",
       "    Message('note_on', channel=0, note=84, velocity=65, time=243),\n",
       "    Message('note_on', channel=0, note=72, velocity=53, time=13),\n",
       "    Message('note_on', channel=0, note=65, velocity=38, time=11),\n",
       "    Message('note_off', channel=0, note=82, velocity=61, time=9),\n",
       "    Message('note_off', channel=0, note=72, velocity=46, time=61),\n",
       "    Message('note_on', channel=0, note=70, velocity=37, time=320),\n",
       "    Message('note_on', channel=0, note=58, velocity=37, time=9),\n",
       "    Message('note_on', channel=0, note=86, velocity=67, time=45),\n",
       "    Message('note_on', channel=0, note=74, velocity=50, time=6),\n",
       "    Message('note_off', channel=0, note=65, velocity=38, time=3),\n",
       "    Message('note_off', channel=0, note=84, velocity=26, time=4),\n",
       "    Message('control_change', channel=0, control=64, value=88, time=5),\n",
       "    Message('control_change', channel=0, control=64, value=71, time=14),\n",
       "    Message('control_change', channel=0, control=64, value=64, time=15),\n",
       "    Message('control_change', channel=0, control=64, value=45, time=22),\n",
       "    Message('control_change', channel=0, control=64, value=0, time=15),\n",
       "    Message('control_change', channel=0, control=64, value=32, time=14),\n",
       "    Message('control_change', channel=0, control=64, value=53, time=15),\n",
       "    Message('control_change', channel=0, control=64, value=62, time=15),\n",
       "    Message('control_change', channel=0, control=64, value=65, time=15),\n",
       "    Message('control_change', channel=0, control=64, value=69, time=15),\n",
       "    Message('control_change', channel=0, control=64, value=80, time=15),\n",
       "    Message('control_change', channel=0, control=64, value=127, time=15),\n",
       "    Message('note_off', channel=0, note=70, velocity=39, time=116),\n",
       "    Message('note_off', channel=0, note=74, velocity=34, time=116),\n",
       "    Message('note_on', channel=0, note=69, velocity=29, time=68),\n",
       "    Message('note_on', channel=0, note=84, velocity=48, time=42),\n",
       "    Message('note_off', channel=0, note=58, velocity=44, time=120),\n",
       "    Message('note_off', channel=0, note=69, velocity=38, time=180),\n",
       "    Message('note_on', channel=0, note=67, velocity=35, time=52),\n",
       "    Message('note_on', channel=0, note=82, velocity=49, time=15),\n",
       "    Message('note_off', channel=0, note=67, velocity=54, time=125),\n",
       "    Message('note_on', channel=0, note=81, velocity=56, time=145),\n",
       "    Message('note_on', channel=0, note=65, velocity=37, time=16),\n",
       "    Message('note_off', channel=0, note=86, velocity=30, time=15),\n",
       "    Message('note_off', channel=0, note=82, velocity=59, time=3),\n",
       "    Message('note_off', channel=0, note=84, velocity=42, time=9),\n",
       "    Message('note_off', channel=0, note=81, velocity=62, time=2),\n",
       "    Message('note_off', channel=0, note=65, velocity=35, time=135),\n",
       "    Message('note_on', channel=0, note=58, velocity=42, time=104),\n",
       "    Message('note_on', channel=0, note=63, velocity=42, time=1),\n",
       "    Message('note_on', channel=0, note=87, velocity=75, time=0),\n",
       "    Message('note_on', channel=0, note=79, velocity=53, time=26),\n",
       "    Message('note_off', channel=0, note=63, velocity=55, time=163),\n",
       "    Message('note_off', channel=0, note=58, velocity=58, time=38),\n",
       "    Message('note_off', channel=0, note=79, velocity=47, time=11),\n",
       "    Message('note_on', channel=0, note=62, velocity=40, time=40),\n",
       "    Message('note_off', channel=0, note=87, velocity=61, time=50),\n",
       "    Message('note_off', channel=0, note=62, velocity=61, time=3),\n",
       "    Message('note_on', channel=0, note=89, velocity=88, time=14),\n",
       "    Message('note_on', channel=0, note=77, velocity=51, time=24),\n",
       "    Message('note_off', channel=0, note=77, velocity=58, time=22),\n",
       "    Message('note_off', channel=0, note=89, velocity=55, time=139),\n",
       "    Message('note_on', channel=0, note=46, velocity=48, time=24),\n",
       "    Message('note_on', channel=0, note=75, velocity=60, time=66),\n",
       "    Message('note_off', channel=0, note=46, velocity=60, time=30),\n",
       "    Message('note_off', channel=0, note=75, velocity=60, time=18),\n",
       "    Message('note_on', channel=0, note=60, velocity=45, time=152),\n",
       "    Message('note_on', channel=0, note=91, velocity=84, time=11),\n",
       "    Message('note_off', channel=0, note=91, velocity=63, time=96),\n",
       "    Message('note_on', channel=0, note=62, velocity=37, time=402),\n",
       "    Message('note_off', channel=0, note=60, velocity=41, time=14),\n",
       "    Message('note_on', channel=0, note=77, velocity=54, time=1),\n",
       "    Message('note_off', channel=0, note=77, velocity=58, time=128),\n",
       "    Message('note_off', channel=0, note=62, velocity=34, time=161),\n",
       "    Message('note_on', channel=0, note=63, velocity=39, time=44),\n",
       "    Message('note_on', channel=0, note=79, velocity=50, time=1),\n",
       "    Message('note_off', channel=0, note=79, velocity=53, time=100),\n",
       "    Message('note_off', channel=0, note=63, velocity=39, time=143),\n",
       "    Message('note_on', channel=0, note=65, velocity=44, time=37),\n",
       "    Message('note_on', channel=0, note=89, velocity=73, time=0),\n",
       "    Message('note_on', channel=0, note=81, velocity=56, time=19),\n",
       "    Message('note_off', channel=0, note=65, velocity=59, time=202),\n",
       "    Message('note_on', channel=0, note=67, velocity=51, time=25),\n",
       "    Message('note_on', channel=0, note=58, velocity=49, time=3),\n",
       "    Message('control_change', channel=0, control=64, value=75, time=28),\n",
       "    Message('note_on', channel=0, note=87, velocity=75, time=13),\n",
       "    Message('control_change', channel=0, control=64, value=63, time=2),\n",
       "    Message('note_on', channel=0, note=82, velocity=65, time=9),\n",
       "    Message('control_change', channel=0, control=64, value=43, time=6),\n",
       "    Message('control_change', channel=0, control=64, value=61, time=15),\n",
       "    Message('control_change', channel=0, control=64, value=67, time=15),\n",
       "    Message('control_change', channel=0, control=64, value=80, time=15),\n",
       "    Message('note_off', channel=0, note=89, velocity=62, time=15),\n",
       "    Message('control_change', channel=0, control=64, value=127, time=0),\n",
       "    Message('note_off', channel=0, note=81, velocity=39, time=16),\n",
       "    Message('note_off', channel=0, note=67, velocity=56, time=91),\n",
       "    Message('note_on', channel=0, note=68, velocity=53, time=30),\n",
       "    Message('note_off', channel=0, note=68, velocity=65, time=25),\n",
       "    Message('note_off', channel=0, note=87, velocity=64, time=15),\n",
       "    Message('note_off', channel=0, note=58, velocity=61, time=20),\n",
       "    Message('note_off', channel=0, note=82, velocity=61, time=0),\n",
       "    Message('note_on', channel=0, note=86, velocity=83, time=10),\n",
       "    Message('note_on', channel=0, note=83, velocity=64, time=13),\n",
       "    Message('note_off', channel=0, note=83, velocity=55, time=42),\n",
       "    Message('note_on', channel=0, note=46, velocity=66, time=39),\n",
       "    Message('note_off', channel=0, note=46, velocity=62, time=45),\n",
       "    Message('note_on', channel=0, note=69, velocity=59, time=214),\n",
       "    Message('note_on', channel=0, note=84, velocity=84, time=10),\n",
       "    Message('note_off', channel=0, note=69, velocity=38, time=396),\n",
       "    Message('note_on', channel=0, note=67, velocity=49, time=41),\n",
       "    Message('note_on', channel=0, note=82, velocity=77, time=9),\n",
       "    Message('note_off', channel=0, note=84, velocity=59, time=39),\n",
       "    Message('note_off', channel=0, note=86, velocity=35, time=50),\n",
       "    Message('note_off', channel=0, note=82, velocity=65, time=66),\n",
       "    Message('note_on', channel=0, note=84, velocity=58, time=73),\n",
       "    Message('note_off', channel=0, note=84, velocity=65, time=30),\n",
       "    Message('note_off', channel=0, note=67, velocity=52, time=13),\n",
       "    Message('note_on', channel=0, note=86, velocity=72, time=1),\n",
       "    Message('note_on', channel=0, note=84, velocity=73, time=51),\n",
       "    Message('note_on', channel=0, note=65, velocity=48, time=8),\n",
       "    Message('note_on', channel=0, note=81, velocity=75, time=7),\n",
       "    Message('control_change', channel=0, control=64, value=116, time=9),\n",
       "    Message('note_off', channel=0, note=86, velocity=62, time=12),\n",
       "    Message('control_change', channel=0, control=64, value=80, time=2),\n",
       "    Message('control_change', channel=0, control=64, value=69, time=15),\n",
       "    Message('control_change', channel=0, control=64, value=68, time=15),\n",
       "    Message('control_change', channel=0, control=64, value=72, time=16),\n",
       "    Message('control_change', channel=0, control=64, value=81, time=15),\n",
       "    Message('note_off', channel=0, note=81, velocity=54, time=15),\n",
       "    Message('control_change', channel=0, control=64, value=112, time=0),\n",
       "    Message('control_change', channel=0, control=64, value=127, time=15),\n",
       "    Message('note_off', channel=0, note=65, velocity=56, time=135),\n",
       "    Message('note_on', channel=0, note=86, velocity=87, time=32),\n",
       "    Message('note_on', channel=0, note=63, velocity=48, time=7),\n",
       "    Message('note_on', channel=0, note=79, velocity=70, time=5),\n",
       "    Message('note_off', channel=0, note=84, velocity=57, time=13),\n",
       "    Message('note_off', channel=0, note=79, velocity=57, time=46),\n",
       "    Message('note_off', channel=0, note=63, velocity=57, time=119),\n",
       "    Message('note_off', channel=0, note=86, velocity=65, time=84),\n",
       "    Message('note_on', channel=0, note=62, velocity=48, time=2),\n",
       "    Message('note_on', channel=0, note=87, velocity=82, time=5),\n",
       "    Message('control_change', channel=0, control=64, value=89, time=2),\n",
       "    Message('note_on', channel=0, note=58, velocity=40, time=13),\n",
       "    Message('control_change', channel=0, control=64, value=65, time=1),\n",
       "    Message('note_on', channel=0, note=77, velocity=62, time=11),\n",
       "    Message('control_change', channel=0, control=64, value=0, time=4),\n",
       "    Message('control_change', channel=0, control=64, value=56, time=45),\n",
       "    Message('control_change', channel=0, control=64, value=78, time=14),\n",
       "    Message('control_change', channel=0, control=64, value=127, time=15),\n",
       "    Message('note_off', channel=0, note=77, velocity=60, time=12),\n",
       "    Message('note_off', channel=0, note=62, velocity=60, time=110),\n",
       "    Message('note_on', channel=0, note=75, velocity=61, time=32),\n",
       "    Message('note_on', channel=0, note=60, velocity=40, time=2),\n",
       "    Message('note_off', channel=0, note=60, velocity=64, time=37),\n",
       "    Message('note_off', channel=0, note=58, velocity=60, time=19),\n",
       "    Message('note_off', channel=0, note=87, velocity=61, time=25),\n",
       "    Message('note_off', channel=0, note=75, velocity=35, time=54),\n",
       "    Message('note_on', channel=0, note=74, velocity=52, time=25),\n",
       "    Message('note_off', channel=0, note=74, velocity=54, time=59),\n",
       "    Message('note_on', channel=0, note=46, velocity=37, time=123),\n",
       "    Message('note_on', channel=0, note=58, velocity=39, time=2),\n",
       "    Message('note_on', channel=0, note=89, velocity=80, time=42),\n",
       "    Message('control_change', channel=0, control=64, value=91, time=15),\n",
       "    Message('control_change', channel=0, control=64, value=67, time=15),\n",
       "    Message('control_change', channel=0, control=64, value=44, time=15),\n",
       "    Message('control_change', channel=0, control=64, value=0, time=15),\n",
       "    Message('control_change', channel=0, control=64, value=48, time=15),\n",
       "    Message('control_change', channel=0, control=64, value=63, time=15),\n",
       "    Message('control_change', channel=0, control=64, value=70, time=15),\n",
       "    Message('control_change', channel=0, control=64, value=87, time=14),\n",
       "    Message('control_change', channel=0, control=64, value=127, time=15),\n",
       "    Message('note_off', channel=0, note=46, velocity=58, time=54),\n",
       "    Message('note_off', channel=0, note=58, velocity=53, time=66),\n",
       "    Message('note_on', channel=0, note=60, velocity=34, time=226),\n",
       "    Message('note_on', channel=0, note=75, velocity=45, time=4),\n",
       "    Message('note_off', channel=0, note=75, velocity=58, time=116),\n",
       "    Message('note_on', channel=0, note=77, velocity=43, time=226),\n",
       "    Message('note_on', channel=0, note=62, velocity=32, time=8),\n",
       "    Message('note_off', channel=0, note=60, velocity=38, time=43),\n",
       "    Message('note_off', channel=0, note=89, velocity=49, time=94),\n",
       "    Message('note_off', channel=0, note=77, velocity=39, time=2),\n",
       "    Message('note_off', channel=0, note=62, velocity=39, time=125),\n",
       "    Message('note_on', channel=0, note=87, velocity=67, time=13),\n",
       "    Message('note_on', channel=0, note=63, velocity=43, time=17),\n",
       "    Message('note_on', channel=0, note=79, velocity=46, time=9),\n",
       "    Message('note_off', channel=0, note=87, velocity=61, time=259),\n",
       "    Message('note_off', channel=0, note=63, velocity=52, time=8),\n",
       "    Message('note_on', channel=0, note=64, velocity=34, time=45),\n",
       "    Message('note_on', channel=0, note=58, velocity=38, time=7),\n",
       "    Message('note_off', channel=0, note=79, velocity=56, time=15),\n",
       "    Message('note_on', channel=0, note=86, velocity=74, time=7),\n",
       "    Message('note_on', channel=0, note=80, velocity=52, time=6),\n",
       "    Message('control_change', channel=0, control=64, value=80, time=29),\n",
       "    Message('control_change', channel=0, control=64, value=68, time=15),\n",
       "    Message('control_change', channel=0, control=64, value=66, time=15),\n",
       "    Message('control_change', channel=0, control=64, value=69, time=14),\n",
       "    Message('control_change', channel=0, control=64, value=76, time=15),\n",
       "    Message('control_change', channel=0, control=64, value=111, time=15),\n",
       "    Message('control_change', channel=0, control=64, value=127, time=15),\n",
       "    Message('note_off', channel=0, note=64, velocity=54, time=110),\n",
       "    Message('note_off', channel=0, note=86, velocity=59, time=11),\n",
       "    Message('note_on', channel=0, note=65, velocity=44, time=28),\n",
       "    Message('note_off', channel=0, note=80, velocity=46, time=7),\n",
       "    Message('note_off', channel=0, note=65, velocity=64, time=22),\n",
       "    Message('note_on', channel=0, note=84, velocity=73, time=9),\n",
       "    Message('note_off', channel=0, note=58, velocity=60, time=7),\n",
       "    Message('note_on', channel=0, note=81, velocity=53, time=24),\n",
       "    Message('note_off', channel=0, note=81, velocity=61, time=42),\n",
       "    Message('note_on', channel=0, note=46, velocity=60, time=65),\n",
       "    Message('note_off', channel=0, note=46, velocity=65, time=44),\n",
       "    Message('note_on', channel=0, note=67, velocity=49, time=226),\n",
       "    Message('note_on', channel=0, note=82, velocity=74, time=20),\n",
       "    Message('note_off', channel=0, note=67, velocity=61, time=434),\n",
       "    Message('note_on', channel=0, note=65, velocity=42, time=12),\n",
       "    Message('note_on', channel=0, note=81, velocity=68, time=7),\n",
       "    Message('note_off', channel=0, note=82, velocity=60, time=63),\n",
       "    Message('note_off', channel=0, note=84, velocity=58, time=16),\n",
       "    Message('note_off', channel=0, note=81, velocity=59, time=166),\n",
       "    Message('note_on', channel=0, note=82, velocity=55, time=16),\n",
       "    Message('note_off', channel=0, note=82, velocity=62, time=58),\n",
       "    Message('note_on', channel=0, note=84, velocity=53, time=16),\n",
       "    Message('note_off', channel=0, note=65, velocity=34, time=78),\n",
       "    Message('note_on', channel=0, note=82, velocity=68, time=10),\n",
       "    Message('note_off', channel=0, note=84, velocity=55, time=1),\n",
       "    Message('note_on', channel=0, note=63, velocity=41, time=4),\n",
       "    Message('control_change', channel=0, control=64, value=101, time=1),\n",
       "    Message('note_on', channel=0, note=79, velocity=55, time=7),\n",
       "    Message('control_change', channel=0, control=64, value=76, time=8),\n",
       "    Message('control_change', channel=0, control=64, value=67, time=14),\n",
       "    Message('control_change', channel=0, control=64, value=72, time=30),\n",
       "    Message('control_change', channel=0, control=64, value=84, time=15),\n",
       "    Message('control_change', channel=0, control=64, value=127, time=15),\n",
       "    Message('note_off', channel=0, note=79, velocity=39, time=62),\n",
       "    Message('note_off', channel=0, note=63, velocity=55, time=114),\n",
       "    Message('note_off', channel=0, note=82, velocity=57, time=44),\n",
       "    Message('note_on', channel=0, note=84, velocity=72, time=11),\n",
       "    Message('note_on', channel=0, note=62, velocity=49, time=8),\n",
       "    Message('note_on', channel=0, note=77, velocity=57, time=9),\n",
       "    Message('note_off', channel=0, note=77, velocity=42, time=81),\n",
       "    Message('note_off', channel=0, note=62, velocity=55, time=125),\n",
       "    Message('note_on', channel=0, note=58, velocity=37, time=7),\n",
       "    Message('control_change', channel=0, control=64, value=91, time=81),\n",
       "    Message('note_on', channel=0, note=86, velocity=77, time=8),\n",
       "    Message('note_on', channel=0, note=60, velocity=49, time=6),\n",
       "    Message('control_change', channel=0, control=64, value=72, time=1),\n",
       "    Message('note_on', channel=0, note=75, velocity=59, time=4),\n",
       "    Message('control_change', channel=0, control=64, value=62, time=10),\n",
       "    Message('control_change', channel=0, control=64, value=53, time=15),\n",
       "    Message('note_off', channel=0, note=58, velocity=51, time=3),\n",
       "    Message('note_off', channel=0, note=84, velocity=55, time=9),\n",
       "    Message('control_change', channel=0, control=64, value=59, time=3),\n",
       "    Message('control_change', channel=0, control=64, value=64, time=15),\n",
       "    Message('control_change', channel=0, control=64, value=66, time=15),\n",
       "    Message('control_change', channel=0, control=64, value=70, time=15),\n",
       "    Message('control_change', channel=0, control=64, value=78, time=15),\n",
       "    Message('control_change', channel=0, control=64, value=119, time=15),\n",
       "    Message('control_change', channel=0, control=64, value=127, time=14),\n",
       "    Message('note_off', channel=0, note=75, velocity=51, time=158),\n",
       "    Message('note_on', channel=0, note=74, velocity=53, time=102),\n",
       "    Message('note_on', channel=0, note=58, velocity=34, time=9),\n",
       "    Message('note_off', channel=0, note=60, velocity=49, time=4),\n",
       "    Message('note_off', channel=0, note=86, velocity=32, time=3),\n",
       "    Message('note_off', channel=0, note=58, velocity=58, time=52),\n",
       "    Message('note_off', channel=0, note=74, velocity=58, time=6),\n",
       "    Message('note_on', channel=0, note=72, velocity=56, time=176),\n",
       "    Message('polytouch', channel=0, note=74, value=127, time=193),\n",
       "    Message('note_on', channel=0, note=57, velocity=45, time=70),\n",
       "    Message('note_on', channel=0, note=46, velocity=41, time=11),\n",
       "    Message('control_change', channel=0, control=64, value=115, time=39),\n",
       "    Message('control_change', channel=0, control=64, value=83, time=15),\n",
       "    Message('note_on', channel=0, note=87, velocity=70, time=5),\n",
       "    Message('control_change', channel=0, control=64, value=71, time=10),\n",
       "    Message('control_change', channel=0, control=64, value=65, time=15),\n",
       "    Message('polytouch', channel=0, note=82, value=127, time=14),\n",
       "    Message('control_change', channel=0, control=64, value=64, time=1),\n",
       "    Message('control_change', channel=0, control=64, value=67, time=14),\n",
       "    Message('control_change', channel=0, control=64, value=71, time=15),\n",
       "    Message('control_change', channel=0, control=64, value=81, time=15),\n",
       "    Message('control_change', channel=0, control=64, value=127, time=15),\n",
       "    Message('note_off', channel=0, note=46, velocity=60, time=60),\n",
       "    Message('note_off', channel=0, note=72, velocity=45, time=117),\n",
       "    Message('polytouch', channel=0, note=74, value=0, time=5),\n",
       "    Message('polytouch', channel=0, note=82, value=0, time=7),\n",
       "    Message('note_off', channel=0, note=87, velocity=34, time=111),\n",
       "    Message('note_on', channel=0, note=58, velocity=37, time=151),\n",
       "    Message('note_on', channel=0, note=86, velocity=63, time=9),\n",
       "    Message('note_on', channel=0, note=74, velocity=45, time=17),\n",
       "    Message('note_off', channel=0, note=57, velocity=59, time=18),\n",
       "    Message('note_off', channel=0, note=74, velocity=61, time=63),\n",
       "    Message('note_off', channel=0, note=86, velocity=53, time=112),\n",
       "    Message('note_on', channel=0, note=84, velocity=59, time=168),\n",
       "    Message('note_on', channel=0, note=60, velocity=42, time=14),\n",
       "    Message('control_change', channel=0, control=64, value=111, time=0),\n",
       "    Message('note_on', channel=0, note=75, velocity=46, time=2),\n",
       "    Message('control_change', channel=0, control=64, value=87, time=13),\n",
       "    Message('control_change', channel=0, control=64, value=73, time=22),\n",
       "    Message('control_change', channel=0, control=64, value=67, time=15),\n",
       "    Message('control_change', channel=0, control=64, value=66, time=14),\n",
       "    Message('control_change', channel=0, control=64, value=69, time=15),\n",
       "    Message('control_change', channel=0, control=64, value=77, time=15),\n",
       "    Message('control_change', channel=0, control=64, value=99, time=15),\n",
       "    Message('control_change', channel=0, control=64, value=127, time=15),\n",
       "    Message('note_off', channel=0, note=75, velocity=55, time=69),\n",
       "    Message('note_off', channel=0, note=84, velocity=37, time=71),\n",
       "    Message('note_off', channel=0, note=60, velocity=38, time=6),\n",
       "    Message('control_change', channel=0, control=64, value=98, time=31),\n",
       "    Message('control_change', channel=0, control=64, value=72, time=15),\n",
       "    Message('note_on', channel=0, note=82, velocity=62, time=2),\n",
       "    Message('note_on', channel=0, note=76, velocity=50, time=6),\n",
       "    Message('note_on', channel=0, note=61, velocity=44, time=3),\n",
       "    Message('control_change', channel=0, control=64, value=56, time=3),\n",
       "    Message('control_change', channel=0, control=64, value=0, time=15),\n",
       "    Message('control_change', channel=0, control=64, value=45, time=15),\n",
       "    Message('control_change', channel=0, control=64, value=63, time=16),\n",
       "    Message('control_change', channel=0, control=64, value=69, time=15),\n",
       "    Message('control_change', channel=0, control=64, value=84, time=15),\n",
       "    Message('control_change', channel=0, control=64, value=127, time=15),\n",
       "    Message('note_off', channel=0, note=76, velocity=55, time=41),\n",
       "    Message('note_off', channel=0, note=82, velocity=58, time=53),\n",
       "    Message('note_off', channel=0, note=61, velocity=48, time=80),\n",
       "    Message('control_change', channel=0, control=64, value=82, time=3),\n",
       "    Message('note_on', channel=0, note=62, velocity=49, time=14),\n",
       "    Message('control_change', channel=0, control=64, value=65, time=1),\n",
       "    Message('note_on', channel=0, note=81, velocity=67, time=5),\n",
       "    Message('note_on', channel=0, note=77, velocity=51, time=2),\n",
       "    Message('control_change', channel=0, control=64, value=52, time=8),\n",
       "    Message('control_change', channel=0, control=64, value=58, time=15),\n",
       "    Message('control_change', channel=0, control=64, value=65, time=15),\n",
       "    Message('control_change', channel=0, control=64, value=73, time=14),\n",
       "    Message('control_change', channel=0, control=64, value=104, time=15),\n",
       "    Message('control_change', channel=0, control=64, value=127, time=15),\n",
       "    Message('note_off', channel=0, note=81, velocity=65, time=1),\n",
       "    Message('note_off', channel=0, note=62, velocity=62, time=133),\n",
       "    Message('note_off', channel=0, note=77, velocity=51, time=29),\n",
       "    Message('control_change', channel=0, control=64, value=87, time=37),\n",
       "    Message('note_on', channel=0, note=79, velocity=63, time=3),\n",
       "    Message('note_on', channel=0, note=63, velocity=48, time=3),\n",
       "    Message('control_change', channel=0, control=64, value=67, time=9),\n",
       "    Message('note_on', channel=0, note=75, velocity=57, time=2),\n",
       "    Message('control_change', channel=0, control=64, value=44, time=13),\n",
       "    Message('control_change', channel=0, control=64, value=0, time=15),\n",
       "    Message('control_change', channel=0, control=64, value=29, time=15),\n",
       "    Message('control_change', channel=0, control=64, value=62, time=15),\n",
       "    Message('control_change', channel=0, control=64, value=67, time=15),\n",
       "    Message('control_change', channel=0, control=64, value=80, time=14),\n",
       "    Message('control_change', channel=0, control=64, value=127, time=15),\n",
       "    Message('note_off', channel=0, note=79, velocity=60, time=40),\n",
       "    Message('note_off', channel=0, note=63, velocity=56, time=77),\n",
       "    Message('note_off', channel=0, note=75, velocity=49, time=45),\n",
       "    Message('control_change', channel=0, control=64, value=119, time=2),\n",
       "    Message('note_on', channel=0, note=65, velocity=49, time=5),\n",
       "    Message('note_on', channel=0, note=77, velocity=60, time=6),\n",
       "    Message('control_change', channel=0, control=64, value=73, time=4),\n",
       "    Message('note_on', channel=0, note=74, velocity=50, time=10),\n",
       "    Message('control_change', channel=0, control=64, value=60, time=5),\n",
       "    Message('control_change', channel=0, control=64, value=0, time=15),\n",
       "    Message('control_change', channel=0, control=64, value=58, time=29),\n",
       "    Message('control_change', channel=0, control=64, value=65, time=15),\n",
       "    Message('note_off', channel=0, note=58, velocity=56, time=8),\n",
       "    Message('control_change', channel=0, control=64, value=73, time=7),\n",
       "    Message('control_change', channel=0, control=64, value=111, time=14),\n",
       "    Message('control_change', channel=0, control=64, value=127, time=15),\n",
       "    Message('note_off', channel=0, note=74, velocity=34, time=130),\n",
       "    Message('note_off', channel=0, note=65, velocity=63, time=12),\n",
       "    Message('note_off', channel=0, note=77, velocity=49, time=17),\n",
       "    Message('control_change', channel=0, control=64, value=75, time=33),\n",
       "    Message('note_on', channel=0, note=67, velocity=48, time=6),\n",
       "    Message('note_on', channel=0, note=75, velocity=54, time=4),\n",
       "    Message('control_change', channel=0, control=64, value=63, time=13),\n",
       "    Message('note_on', channel=0, note=72, velocity=47, time=1),\n",
       "    Message('control_change', channel=0, control=64, value=0, time=14),\n",
       "    Message('control_change', channel=0, control=64, value=54, time=30),\n",
       "    Message('control_change', channel=0, control=64, value=64, time=14),\n",
       "    Message('control_change', channel=0, control=64, value=69, time=15),\n",
       "    Message('control_change', channel=0, control=64, value=80, time=15),\n",
       "    Message('control_change', channel=0, control=64, value=127, time=14),\n",
       "    Message('note_off', channel=0, note=75, velocity=38, time=82),\n",
       "    Message('note_off', channel=0, note=67, velocity=58, time=1),\n",
       "    Message('note_off', channel=0, note=72, velocity=55, time=14),\n",
       "    Message('note_on', channel=0, note=69, velocity=40, time=99),\n",
       "    Message('control_change', channel=0, control=64, value=89, time=27),\n",
       "    Message('control_change', channel=0, control=64, value=67, time=15),\n",
       "    Message('control_change', channel=0, control=64, value=35, time=15),\n",
       "    Message('control_change', channel=0, control=64, value=0, time=14),\n",
       "    Message('note_off', channel=0, note=69, velocity=63, time=27),\n",
       "    Message('note_on', channel=0, note=74, velocity=58, time=5),\n",
       "    Message('note_on', channel=0, note=70, velocity=35, time=28),\n",
       "    Message('control_change', channel=0, control=64, value=34, time=0),\n",
       "    Message('control_change', channel=0, control=64, value=58, time=15),\n",
       "    Message('control_change', channel=0, control=64, value=64, time=15),\n",
       "    Message('control_change', channel=0, control=64, value=67, time=15),\n",
       "    Message('control_change', channel=0, control=64, value=72, time=15),\n",
       "    Message('control_change', channel=0, control=64, value=89, time=15),\n",
       "    Message('control_change', channel=0, control=64, value=127, time=14),\n",
       "    Message('note_off', channel=0, note=70, velocity=53, time=178),\n",
       "    Message('note_off', channel=0, note=74, velocity=34, time=109),\n",
       "    Message('note_on', channel=0, note=72, velocity=51, time=177),\n",
       "    Message('control_change', channel=0, control=64, value=93, time=3),\n",
       "    Message('note_on', channel=0, note=69, velocity=39, time=2),\n",
       "    Message('control_change', channel=0, control=64, value=77, time=12),\n",
       "    Message('control_change', channel=0, control=64, value=68, time=15),\n",
       "    Message('control_change', channel=0, control=64, value=63, time=15),\n",
       "    Message('control_change', channel=0, control=64, value=58, time=14),\n",
       "    Message('control_change', channel=0, control=64, value=62, time=15),\n",
       "    Message('control_change', channel=0, control=64, value=64, time=15),\n",
       "    Message('control_change', channel=0, control=64, value=67, time=15),\n",
       "    Message('control_change', channel=0, control=64, value=72, time=15),\n",
       "    Message('control_change', channel=0, control=64, value=84, time=15),\n",
       "    Message('control_change', channel=0, control=64, value=127, time=15),\n",
       "    Message('note_off', channel=0, note=69, velocity=38, time=25),\n",
       "    Message('note_off', channel=0, note=72, velocity=30, time=155),\n",
       "    Message('note_on', channel=0, note=67, velocity=40, time=66),\n",
       "    Message('note_on', channel=0, note=70, velocity=56, time=1),\n",
       "    Message('control_change', channel=0, control=64, value=89, time=6),\n",
       "    Message('control_change', channel=0, control=64, value=72, time=15),\n",
       "    Message('control_change', channel=0, control=64, value=65, time=14),\n",
       "    Message('control_change', channel=0, control=64, value=63, time=15),\n",
       "    Message('control_change', channel=0, control=64, value=66, time=15),\n",
       "    Message('control_change', channel=0, control=64, value=71, time=15),\n",
       "    Message('note_off', channel=0, note=67, velocity=51, time=10),\n",
       "    Message('control_change', channel=0, control=64, value=92, time=5),\n",
       "    Message('control_change', channel=0, control=64, value=127, time=22),\n",
       "    Message('note_off', channel=0, note=70, velocity=50, time=65),\n",
       "    Message('control_change', channel=0, control=64, value=80, time=127),\n",
       "    Message('note_on', channel=0, note=74, velocity=69, time=4),\n",
       "    Message('note_on', channel=0, note=69, velocity=52, time=10),\n",
       "    Message('control_change', channel=0, control=64, value=66, time=1),\n",
       "    Message('note_on', channel=0, note=65, velocity=49, time=1),\n",
       "    Message('control_change', channel=0, control=64, value=57, time=14),\n",
       "    Message('control_change', channel=0, control=64, value=54, time=15),\n",
       "    Message('control_change', channel=0, control=64, value=63, time=14),\n",
       "    Message('note_off', channel=0, note=69, velocity=61, time=10),\n",
       "    Message('control_change', channel=0, control=64, value=66, time=5),\n",
       "    Message('control_change', channel=0, control=64, value=74, time=15),\n",
       "    Message('control_change', channel=0, control=64, value=98, time=15),\n",
       "    Message('control_change', channel=0, control=64, value=127, time=15),\n",
       "    Message('note_off', channel=0, note=65, velocity=56, time=72),\n",
       "    Message('note_off', channel=0, note=74, velocity=56, time=31),\n",
       "    Message('note_on', channel=0, note=67, velocity=65, time=65),\n",
       "    Message('note_on', channel=0, note=75, velocity=77, time=0),\n",
       "    Message('control_change', channel=0, control=64, value=70, time=9),\n",
       "    Message('note_on', channel=0, note=63, velocity=57, time=2),\n",
       "    Message('control_change', channel=0, control=64, value=49, time=13),\n",
       "    Message('control_change', channel=0, control=64, value=0, time=15),\n",
       "    Message('control_change', channel=0, control=64, value=32, time=30),\n",
       "    Message('control_change', channel=0, control=64, value=63, time=15),\n",
       "    Message('control_change', channel=0, control=64, value=71, time=15),\n",
       "    Message('control_change', channel=0, control=64, value=127, time=15),\n",
       "    Message('note_off', channel=0, note=63, velocity=56, time=65),\n",
       "    Message('note_off', channel=0, note=75, velocity=59, time=7),\n",
       "    Message('note_off', channel=0, note=67, velocity=60, time=1),\n",
       "    Message('note_on', channel=0, note=77, velocity=78, time=82),\n",
       "    Message('control_change', channel=0, control=64, value=122, time=0),\n",
       "    Message('control_change', channel=0, control=64, value=71, time=15),\n",
       "    Message('note_on', channel=0, note=65, velocity=60, time=1),\n",
       "    Message('note_on', channel=0, note=62, velocity=54, time=5),\n",
       "    Message('control_change', channel=0, control=64, value=26, time=9),\n",
       "    Message('control_change', channel=0, control=64, value=0, time=14),\n",
       "    Message('control_change', channel=0, control=64, value=58, time=45),\n",
       "    Message('control_change', channel=0, control=64, value=69, time=15),\n",
       "    Message('control_change', channel=0, control=64, value=84, time=15),\n",
       "    Message('control_change', channel=0, control=64, value=127, time=15),\n",
       "    Message('note_off', channel=0, note=62, velocity=29, time=177),\n",
       "    Message('note_off', channel=0, note=65, velocity=15, time=204),\n",
       "    Message('note_on', channel=0, note=78, velocity=69, time=9),\n",
       "    Message('note_on', channel=0, note=70, velocity=54, time=6),\n",
       "    Message('note_on', channel=0, note=60, velocity=46, time=2),\n",
       "    Message('note_on', channel=0, note=63, velocity=54, time=1),\n",
       "    Message('note_off', channel=0, note=77, velocity=59, time=47),\n",
       "    Message('control_change', channel=0, control=64, value=98, time=14),\n",
       "    Message('control_change', channel=0, control=64, value=86, time=15),\n",
       "    Message('control_change', channel=0, control=64, value=77, time=14),\n",
       "    Message('control_change', channel=0, control=64, value=70, time=15),\n",
       "    Message('control_change', channel=0, control=64, value=65, time=15),\n",
       "    Message('control_change', channel=0, control=64, value=61, time=14),\n",
       "    Message('control_change', channel=0, control=64, value=55, time=15),\n",
       "    Message('control_change', channel=0, control=64, value=51, time=15),\n",
       "    Message('control_change', channel=0, control=64, value=44, time=15),\n",
       "    Message('control_change', channel=0, control=64, value=0, time=15),\n",
       "    Message('control_change', channel=0, control=64, value=26, time=690),\n",
       "    Message('control_change', channel=0, control=64, value=37, time=15),\n",
       "    Message('control_change', channel=0, control=64, value=47, time=14),\n",
       "    Message('control_change', channel=0, control=64, value=55, time=15),\n",
       "    Message('control_change', channel=0, control=64, value=61, time=15),\n",
       "    Message('control_change', channel=0, control=64, value=64, time=22),\n",
       "    Message('control_change', channel=0, control=64, value=65, time=14),\n",
       "    Message('control_change', channel=0, control=64, value=67, time=15),\n",
       "    Message('control_change', channel=0, control=64, value=69, time=15),\n",
       "    Message('control_change', channel=0, control=64, value=75, time=15),\n",
       "    Message('control_change', channel=0, control=64, value=86, time=14),\n",
       "    Message('control_change', channel=0, control=64, value=127, time=15),\n",
       "    Message('note_off', channel=0, note=70, velocity=41, time=214),\n",
       "    Message('note_off', channel=0, note=78, velocity=37, time=11),\n",
       "    Message('control_change', channel=0, control=64, value=111, time=746),\n",
       "    Message('control_change', channel=0, control=64, value=105, time=15),\n",
       "    Message('control_change', channel=0, control=64, value=100, time=15),\n",
       "    Message('control_change', channel=0, control=64, value=96, time=15),\n",
       "    Message('control_change', channel=0, control=64, value=91, time=15),\n",
       "    Message('control_change', channel=0, control=64, value=88, time=15),\n",
       "    Message('control_change', channel=0, control=64, value=86, time=14),\n",
       "    Message('note_on', channel=0, note=77, velocity=41, time=2),\n",
       "    Message('control_change', channel=0, control=64, value=83, time=13),\n",
       "    Message('note_on', channel=0, note=69, velocity=31, time=6),\n",
       "    Message('control_change', channel=0, control=64, value=81, time=9),\n",
       "    Message('control_change', channel=0, control=64, value=77, time=15),\n",
       "    Message('control_change', channel=0, control=64, value=74, time=15),\n",
       "    Message('control_change', channel=0, control=64, value=70, time=14),\n",
       "    Message('control_change', channel=0, control=64, value=66, time=15),\n",
       "    Message('control_change', channel=0, control=64, value=63, time=15),\n",
       "    Message('control_change', channel=0, control=64, value=54, time=15),\n",
       "    Message('control_change', channel=0, control=64, value=20, time=15),\n",
       "    Message('control_change', channel=0, control=64, value=0, time=14),\n",
       "    Message('control_change', channel=0, control=64, value=31, time=44),\n",
       "    Message('control_change', channel=0, control=64, value=53, time=15),\n",
       "    Message('control_change', channel=0, control=64, value=62, time=15),\n",
       "    Message('control_change', channel=0, control=64, value=66, time=15),\n",
       "    Message('control_change', channel=0, control=64, value=74, time=15),\n",
       "    Message('control_change', channel=0, control=64, value=116, time=14),\n",
       "    Message('control_change', channel=0, control=64, value=127, time=15),\n",
       "    Message('note_off', channel=0, note=77, velocity=47, time=42),\n",
       "    Message('note_off', channel=0, note=69, velocity=41, time=90),\n",
       "    Message('note_off', channel=0, note=63, velocity=30, time=30),\n",
       "    Message('note_off', channel=0, note=60, velocity=45, time=47),\n",
       "    Message('note_on', channel=0, note=46, velocity=41, time=389),\n",
       "    Message('control_change', channel=0, control=64, value=86, time=17),\n",
       "    Message('control_change', channel=0, control=64, value=73, time=15),\n",
       "    Message('control_change', channel=0, control=64, value=66, time=15),\n",
       "    Message('control_change', channel=0, control=64, value=65, time=14),\n",
       "    Message('control_change', channel=0, control=64, value=67, time=15),\n",
       "    Message('control_change', channel=0, control=64, value=71, time=15),\n",
       "    Message('control_change', channel=0, control=64, value=89, time=15),\n",
       "    Message('control_change', channel=0, control=64, value=127, time=15),\n",
       "    Message('note_off', channel=0, note=46, velocity=60, time=22),\n",
       "    Message('note_on', channel=0, note=77, velocity=49, time=426),\n",
       "    Message('note_on', channel=0, note=62, velocity=39, time=6),\n",
       "    Message('note_on', channel=0, note=70, velocity=35, time=7),\n",
       "    Message('note_on', channel=0, note=65, velocity=32, time=12),\n",
       "    Message('note_off', channel=0, note=62, velocity=31, time=405),\n",
       "    Message('note_off', channel=0, note=65, velocity=21, time=498),\n",
       "    Message('note_off', channel=0, note=70, velocity=41, time=1),\n",
       "    Message('note_off', channel=0, note=77, velocity=37, time=612),\n",
       "    Message('note_on', channel=0, note=66, velocity=54, time=1294),\n",
       "    Message('note_on', channel=0, note=58, velocity=49, time=13),\n",
       "    Message('note_on', channel=0, note=48, velocity=50, time=1),\n",
       "    Message('note_on', channel=0, note=51, velocity=55, time=2),\n",
       "    Message('control_change', channel=0, control=64, value=103, time=90),\n",
       "    Message('control_change', channel=0, control=64, value=90, time=15),\n",
       "    Message('control_change', channel=0, control=64, value=81, time=15),\n",
       "    Message('control_change', channel=0, control=64, value=76, time=15),\n",
       "    Message('control_change', channel=0, control=64, value=72, time=15),\n",
       "    Message('control_change', channel=0, control=64, value=69, time=14),\n",
       "    Message('control_change', channel=0, control=64, value=66, time=15),\n",
       "    Message('control_change', channel=0, control=64, value=64, time=15),\n",
       "    Message('control_change', channel=0, control=64, value=63, time=15),\n",
       "    Message('control_change', channel=0, control=64, value=63, time=15),\n",
       "    Message('control_change', channel=0, control=64, value=62, time=15),\n",
       "    Message('control_change', channel=0, control=64, value=62, time=15),\n",
       "    Message('control_change', channel=0, control=64, value=60, time=15),\n",
       "    Message('control_change', channel=0, control=64, value=56, time=14),\n",
       "    Message('control_change', channel=0, control=64, value=50, time=15),\n",
       "    Message('control_change', channel=0, control=64, value=43, time=15),\n",
       "    Message('control_change', channel=0, control=64, value=37, time=15),\n",
       "    Message('control_change', channel=0, control=64, value=32, time=15),\n",
       "    Message('control_change', channel=0, control=64, value=22, time=14),\n",
       "    Message('control_change', channel=0, control=64, value=0, time=15),\n",
       "    Message('control_change', channel=0, control=64, value=46, time=304),\n",
       "    Message('control_change', channel=0, control=64, value=58, time=14),\n",
       "    Message('control_change', channel=0, control=64, value=63, time=15),\n",
       "    Message('control_change', channel=0, control=64, value=64, time=15),\n",
       "    Message('control_change', channel=0, control=64, value=66, time=15),\n",
       "    Message('control_change', channel=0, control=64, value=68, time=15),\n",
       "    Message('control_change', channel=0, control=64, value=73, time=14),\n",
       "    Message('control_change', channel=0, control=64, value=83, time=15),\n",
       "    Message('control_change', channel=0, control=64, value=127, time=15),\n",
       "    Message('note_off', channel=0, note=48, velocity=28, time=435),\n",
       "    Message('note_off', channel=0, note=51, velocity=36, time=211),\n",
       "    Message('note_on', channel=0, note=52, velocity=39, time=1043),\n",
       "    Message('note_on', channel=0, note=49, velocity=38, time=8),\n",
       "    Message('control_change', channel=0, control=64, value=112, time=54),\n",
       "    Message('control_change', channel=0, control=64, value=101, time=14),\n",
       "    Message('control_change', channel=0, control=64, value=94, time=15),\n",
       "    Message('control_change', channel=0, control=64, value=86, time=15),\n",
       "    Message('control_change', channel=0, control=64, value=80, time=15),\n",
       "    Message('control_change', channel=0, control=64, value=75, time=15),\n",
       "    Message('control_change', channel=0, control=64, value=70, time=14),\n",
       "    Message('control_change', channel=0, control=64, value=66, time=15),\n",
       "    Message('control_change', channel=0, control=64, value=64, time=15),\n",
       "    Message('control_change', channel=0, control=64, value=61, time=15),\n",
       "    Message('control_change', channel=0, control=64, value=56, time=14),\n",
       "    Message('control_change', channel=0, control=64, value=49, time=15),\n",
       "    Message('control_change', channel=0, control=64, value=42, time=15),\n",
       "    Message('control_change', channel=0, control=64, value=20, time=15),\n",
       "    Message('control_change', channel=0, control=64, value=0, time=15),\n",
       "    Message('control_change', channel=0, control=64, value=17, time=1306),\n",
       "    Message('control_change', channel=0, control=64, value=33, time=15),\n",
       "    Message('control_change', channel=0, control=64, value=43, time=14),\n",
       "    Message('control_change', channel=0, control=64, value=49, time=15),\n",
       "    Message('control_change', channel=0, control=64, value=54, time=15),\n",
       "    Message('control_change', channel=0, control=64, value=60, time=15),\n",
       "    Message('control_change', channel=0, control=64, value=63, time=15),\n",
       "    Message('control_change', channel=0, control=64, value=64, time=15),\n",
       "    Message('control_change', channel=0, control=64, value=66, time=15),\n",
       "    Message('control_change', channel=0, control=64, value=68, time=14),\n",
       "    Message('control_change', channel=0, control=64, value=72, time=15),\n",
       "    Message('control_change', channel=0, control=64, value=80, time=15),\n",
       "    Message('control_change', channel=0, control=64, value=97, time=15),\n",
       "    Message('control_change', channel=0, control=64, value=127, time=14),\n",
       "    Message('note_off', channel=0, note=66, velocity=61, time=162),\n",
       "    Message('note_off', channel=0, note=58, velocity=35, time=99),\n",
       "    Message('note_off', channel=0, note=49, velocity=40, time=127),\n",
       "    Message('note_off', channel=0, note=52, velocity=32, time=1),\n",
       "    Message('note_on', channel=0, note=36, velocity=52, time=596),\n",
       "    Message('control_change', channel=0, control=64, value=101, time=67),\n",
       "    Message('control_change', channel=0, control=64, value=82, time=15),\n",
       "    Message('control_change', channel=0, control=64, value=71, time=15),\n",
       "    Message('control_change', channel=0, control=64, value=64, time=15),\n",
       "    Message('control_change', channel=0, control=64, value=49, time=14),\n",
       "    Message('control_change', channel=0, control=64, value=0, time=15),\n",
       "    Message('control_change', channel=0, control=64, value=47, time=89),\n",
       "    Message('control_change', channel=0, control=64, value=64, time=14),\n",
       "    Message('control_change', channel=0, control=64, value=72, time=15),\n",
       "    Message('control_change', channel=0, control=64, value=111, time=15),\n",
       "    Message('control_change', channel=0, control=64, value=127, time=15),\n",
       "    Message('note_on', channel=0, note=52, velocity=51, time=215),\n",
       "    Message('note_on', channel=0, note=67, velocity=64, time=5),\n",
       "    Message('note_on', channel=0, note=58, velocity=54, time=3),\n",
       "    Message('note_off', channel=0, note=58, velocity=38, time=369),\n",
       "    Message('note_off', channel=0, note=67, velocity=30, time=411),\n",
       "    Message('note_on', channel=0, note=69, velocity=67, time=144),\n",
       "    Message('note_off', channel=0, note=69, velocity=51, time=421),\n",
       "    Message('note_off', channel=0, note=36, velocity=40, time=219),\n",
       "    Message('note_on', channel=0, note=70, velocity=66, time=282),\n",
       "    Message('note_off', channel=0, note=52, velocity=37, time=110),\n",
       "    Message('note_on', channel=0, note=41, velocity=41, time=617),\n",
       "    Message('note_on', channel=0, note=43, velocity=39, time=11),\n",
       "    Message('control_change', channel=0, control=64, value=96, time=25),\n",
       "    Message('control_change', channel=0, control=64, value=71, time=15),\n",
       "    Message('control_change', channel=0, control=64, value=59, time=15),\n",
       "    Message('control_change', channel=0, control=64, value=0, time=14),\n",
       "    Message('control_change', channel=0, control=64, value=50, time=30),\n",
       "    Message('control_change', channel=0, control=64, value=61, time=15),\n",
       "    Message('control_change', channel=0, control=64, value=64, time=15),\n",
       "    Message('control_change', channel=0, control=64, value=68, time=15),\n",
       "    Message('control_change', channel=0, control=64, value=81, time=15),\n",
       "    Message('control_change', channel=0, control=64, value=127, time=14),\n",
       "    Message('note_off', channel=0, note=43, velocity=38, time=10),\n",
       "    Message('control_change', channel=0, control=64, value=75, time=79),\n",
       "    Message('control_change', channel=0, control=64, value=0, time=15),\n",
       "    Message('control_change', channel=0, control=64, value=60, time=148),\n",
       "    Message('control_change', channel=0, control=64, value=69, time=22),\n",
       "    Message('control_change', channel=0, control=64, value=87, time=15),\n",
       "    Message('control_change', channel=0, control=64, value=127, time=15),\n",
       "    Message('note_on', channel=0, note=57, velocity=48, time=249),\n",
       "    Message('note_on', channel=0, note=51, velocity=50, time=5),\n",
       "    Message('note_off', channel=0, note=70, velocity=32, time=18),\n",
       "    Message('note_on', channel=0, note=74, velocity=78, time=15),\n",
       "    Message('note_on', channel=0, note=65, velocity=60, time=13),\n",
       "    Message('control_change', channel=0, control=64, value=122, time=100),\n",
       "    Message('control_change', channel=0, control=64, value=106, time=15),\n",
       "    Message('control_change', channel=0, control=64, value=98, time=15),\n",
       "    Message('control_change', channel=0, control=64, value=91, time=15),\n",
       "    Message('control_change', channel=0, control=64, value=84, time=15),\n",
       "    Message('control_change', channel=0, control=64, value=77, time=15),\n",
       "    Message('control_change', channel=0, control=64, value=71, time=15),\n",
       "    Message('control_change', channel=0, control=64, value=66, time=15),\n",
       "    Message('control_change', channel=0, control=64, value=64, time=14),\n",
       "    Message('control_change', channel=0, control=64, value=61, time=15),\n",
       "    Message('control_change', channel=0, control=64, value=53, time=15),\n",
       "    Message('control_change', channel=0, control=64, value=38, time=15),\n",
       "    Message('control_change', channel=0, control=64, value=0, time=15),\n",
       "    Message('control_change', channel=0, control=64, value=43, time=140),\n",
       "    Message('control_change', channel=0, control=64, value=57, time=15),\n",
       "    Message('control_change', channel=0, control=64, value=63, time=15),\n",
       "    Message('control_change', channel=0, control=64, value=65, time=15),\n",
       "    Message('control_change', channel=0, control=64, value=68, time=15),\n",
       "    Message('control_change', channel=0, control=64, value=72, time=14),\n",
       "    Message('control_change', channel=0, control=64, value=81, time=15),\n",
       "    Message('control_change', channel=0, control=64, value=115, time=16),\n",
       "    Message('control_change', channel=0, control=64, value=127, time=14),\n",
       "    Message('control_change', channel=0, control=64, value=107, time=593),\n",
       "    Message('control_change', channel=0, control=64, value=99, time=15),\n",
       "    Message('control_change', channel=0, control=64, value=95, time=21),\n",
       "    Message('control_change', channel=0, control=64, value=91, time=15),\n",
       "    Message('control_change', channel=0, control=64, value=86, time=15),\n",
       "    Message('control_change', channel=0, control=64, value=81, time=15),\n",
       "    Message('control_change', channel=0, control=64, value=77, time=15),\n",
       "    Message('control_change', channel=0, control=64, value=72, time=15),\n",
       "    Message('control_change', channel=0, control=64, value=69, time=15),\n",
       "    Message('control_change', channel=0, control=64, value=66, time=15),\n",
       "    Message('control_change', channel=0, control=64, value=64, time=15),\n",
       "    Message('note_on', channel=0, note=72, velocity=61, time=14),\n",
       "    Message('control_change', channel=0, control=64, value=63, time=0),\n",
       "    Message('control_change', channel=0, control=64, value=62, time=16),\n",
       "    Message('control_change', channel=0, control=64, value=62, time=15),\n",
       "    Message('control_change', channel=0, control=64, value=61, time=14),\n",
       "    Message('control_change', channel=0, control=64, value=59, time=15),\n",
       "    Message('control_change', channel=0, control=64, value=57, time=15),\n",
       "    Message('control_change', channel=0, control=64, value=52, time=15),\n",
       "    Message('note_off', channel=0, note=74, velocity=61, time=11),\n",
       "    Message('control_change', channel=0, control=64, value=44, time=4),\n",
       "    Message('control_change', channel=0, control=64, value=28, time=15),\n",
       "    Message('control_change', channel=0, control=64, value=0, time=15),\n",
       "    Message('control_change', channel=0, control=64, value=22, time=384),\n",
       "    Message('control_change', channel=0, control=64, value=61, time=15),\n",
       "    Message('control_change', channel=0, control=64, value=65, time=15),\n",
       "    Message('control_change', channel=0, control=64, value=67, time=15),\n",
       "    Message('control_change', channel=0, control=64, value=70, time=15),\n",
       "    Message('control_change', channel=0, control=64, value=74, time=15),\n",
       "    Message('control_change', channel=0, control=64, value=84, time=21),\n",
       "    Message('control_change', channel=0, control=64, value=115, time=15),\n",
       "    Message('control_change', channel=0, control=64, value=127, time=15),\n",
       "    Message('note_off', channel=0, note=57, velocity=39, time=285),\n",
       "    Message('note_off', channel=0, note=72, velocity=47, time=85),\n",
       "    Message('note_off', channel=0, note=51, velocity=34, time=31),\n",
       "    Message('note_on', channel=0, note=70, velocity=49, time=905),\n",
       "    Message('note_on', channel=0, note=34, velocity=41, time=653),\n",
       "    Message('control_change', channel=0, control=64, value=111, time=44),\n",
       "    Message('control_change', channel=0, control=64, value=81, time=15),\n",
       "    Message('control_change', channel=0, control=64, value=67, time=14),\n",
       "    Message('control_change', channel=0, control=64, value=56, time=15),\n",
       "    Message('control_change', channel=0, control=64, value=32, time=15),\n",
       "    Message('control_change', channel=0, control=64, value=53, time=15),\n",
       "    Message('control_change', channel=0, control=64, value=63, time=15),\n",
       "    Message('control_change', channel=0, control=64, value=69, time=15),\n",
       "    Message('control_change', channel=0, control=64, value=82, time=14),\n",
       "    Message('control_change', channel=0, control=64, value=127, time=15),\n",
       "    Message('note_off', channel=0, note=70, velocity=47, time=81),\n",
       "    Message('note_off', channel=0, note=34, velocity=46, time=2),\n",
       "    Message('note_on', channel=0, note=70, velocity=43, time=371),\n",
       "    Message('note_on', channel=0, note=58, velocity=32, time=14),\n",
       "    Message('note_on', channel=0, note=50, velocity=36, time=4),\n",
       "    Message('note_off', channel=0, note=41, velocity=16, time=2274),\n",
       "    Message('note_off', channel=0, note=58, velocity=6, time=1013),\n",
       "    Message('note_off', channel=0, note=50, velocity=34, time=221),\n",
       "    Message('note_off', channel=0, note=65, velocity=6, time=974),\n",
       "    Message('control_change', channel=0, control=64, value=119, time=65),\n",
       "    Message('control_change', channel=0, control=64, value=115, time=15),\n",
       "    Message('control_change', channel=0, control=64, value=112, time=15),\n",
       "    Message('control_change', channel=0, control=64, value=108, time=15),\n",
       "    Message('control_change', channel=0, control=64, value=106, time=15),\n",
       "    Message('control_change', channel=0, control=64, value=105, time=14),\n",
       "    Message('control_change', channel=0, control=64, value=104, time=15),\n",
       "    Message('control_change', channel=0, control=64, value=103, time=15),\n",
       "    Message('control_change', channel=0, control=64, value=102, time=15),\n",
       "    Message('control_change', channel=0, control=64, value=100, time=15),\n",
       "    Message('control_change', channel=0, control=64, value=99, time=14),\n",
       "    Message('control_change', channel=0, control=64, value=98, time=15),\n",
       "    Message('control_change', channel=0, control=64, value=97, time=15),\n",
       "    Message('control_change', channel=0, control=64, value=96, time=16),\n",
       "    Message('control_change', channel=0, control=64, value=96, time=15),\n",
       "    Message('control_change', channel=0, control=64, value=95, time=14),\n",
       "    Message('control_change', channel=0, control=64, value=94, time=15),\n",
       "    Message('control_change', channel=0, control=64, value=92, time=15),\n",
       "    Message('control_change', channel=0, control=64, value=91, time=15),\n",
       "    Message('control_change', channel=0, control=64, value=90, time=15),\n",
       "    Message('control_change', channel=0, control=64, value=88, time=22),\n",
       "    Message('control_change', channel=0, control=64, value=87, time=13),\n",
       "    Message('control_change', channel=0, control=64, value=86, time=15),\n",
       "    Message('control_change', channel=0, control=64, value=84, time=15),\n",
       "    Message('control_change', channel=0, control=64, value=84, time=15),\n",
       "    Message('control_change', channel=0, control=64, value=83, time=14),\n",
       "    Message('control_change', channel=0, control=64, value=82, time=15),\n",
       "    Message('control_change', channel=0, control=64, value=82, time=15),\n",
       "    Message('control_change', channel=0, control=64, value=81, time=15),\n",
       "    Message('control_change', channel=0, control=64, value=80, time=15),\n",
       "    Message('control_change', channel=0, control=64, value=79, time=15),\n",
       "    Message('control_change', channel=0, control=64, value=79, time=30),\n",
       "    Message('control_change', channel=0, control=64, value=78, time=44),\n",
       "    Message('control_change', channel=0, control=64, value=78, time=251),\n",
       "    Message('control_change', channel=0, control=64, value=77, time=59),\n",
       "    Message('control_change', channel=0, control=64, value=76, time=30),\n",
       "    Message('control_change', channel=0, control=64, value=75, time=15),\n",
       "    Message('control_change', channel=0, control=64, value=75, time=15),\n",
       "    Message('control_change', channel=0, control=64, value=74, time=15),\n",
       "    Message('control_change', channel=0, control=64, value=74, time=15),\n",
       "    Message('control_change', channel=0, control=64, value=73, time=15),\n",
       "    Message('control_change', channel=0, control=64, value=73, time=15),\n",
       "    Message('control_change', channel=0, control=64, value=72, time=14),\n",
       "    Message('control_change', channel=0, control=64, value=72, time=15),\n",
       "    Message('control_change', channel=0, control=64, value=71, time=15),\n",
       "    Message('control_change', channel=0, control=64, value=71, time=15),\n",
       "    Message('control_change', channel=0, control=64, value=70, time=37),\n",
       "    Message('control_change', channel=0, control=64, value=70, time=15),\n",
       "    Message('control_change', channel=0, control=64, value=69, time=30),\n",
       "    Message('control_change', channel=0, control=64, value=69, time=44),\n",
       "    Message('control_change', channel=0, control=64, value=68, time=74),\n",
       "    Message('control_change', channel=0, control=64, value=68, time=45),\n",
       "    Message('control_change', channel=0, control=64, value=67, time=44),\n",
       "    Message('control_change', channel=0, control=64, value=67, time=75),\n",
       "    Message('control_change', channel=0, control=64, value=66, time=29),\n",
       "    Message('control_change', channel=0, control=64, value=66, time=15),\n",
       "    Message('note_off', channel=0, note=70, velocity=2, time=54),\n",
       "    Message('control_change', channel=0, control=64, value=65, time=35),\n",
       "    Message('control_change', channel=0, control=64, value=65, time=73),\n",
       "    Message('control_change', channel=0, control=64, value=64, time=59),\n",
       "    Message('control_change', channel=0, control=64, value=64, time=203),\n",
       "    Message('control_change', channel=0, control=64, value=63, time=89),\n",
       "    Message('control_change', channel=0, control=64, value=63, time=58),\n",
       "    Message('control_change', channel=0, control=64, value=62, time=89),\n",
       "    Message('control_change', channel=0, control=64, value=62, time=89),\n",
       "    Message('control_change', channel=0, control=64, value=61, time=15),\n",
       "    Message('control_change', channel=0, control=64, value=61, time=44),\n",
       "    Message('control_change', channel=0, control=64, value=60, time=30),\n",
       "    Message('control_change', channel=0, control=64, value=60, time=15),\n",
       "    Message('control_change', channel=0, control=64, value=59, time=15),\n",
       "    Message('control_change', channel=0, control=64, value=59, time=45),\n",
       "    Message('control_change', channel=0, control=64, value=58, time=44),\n",
       "    Message('control_change', channel=0, control=64, value=58, time=44),\n",
       "    Message('control_change', channel=0, control=64, value=57, time=30),\n",
       "    Message('control_change', channel=0, control=64, value=56, time=29),\n",
       "    Message('control_change', channel=0, control=64, value=56, time=67),\n",
       "    Message('control_change', channel=0, control=64, value=55, time=45),\n",
       "    Message('control_change', channel=0, control=64, value=55, time=370),\n",
       "    Message('control_change', channel=0, control=64, value=54, time=1320),\n",
       "    Message('control_change', channel=0, control=64, value=54, time=15),\n",
       "    Message('control_change', channel=0, control=64, value=53, time=30),\n",
       "    Message('control_change', channel=0, control=64, value=51, time=14),\n",
       "    Message('control_change', channel=0, control=64, value=50, time=15),\n",
       "    Message('control_change', channel=0, control=64, value=49, time=15),\n",
       "    Message('control_change', channel=0, control=64, value=47, time=15),\n",
       "    Message('control_change', channel=0, control=64, value=44, time=14),\n",
       "    Message('control_change', channel=0, control=64, value=41, time=15),\n",
       "    Message('control_change', channel=0, control=64, value=37, time=15),\n",
       "    Message('control_change', channel=0, control=64, value=34, time=15),\n",
       "    Message('control_change', channel=0, control=64, value=31, time=14),\n",
       "    Message('control_change', channel=0, control=64, value=22, time=15),\n",
       "    Message('control_change', channel=0, control=64, value=0, time=15),\n",
       "    MetaMessage('end_of_track', time=75)])\n",
       "])"
      ]
     },
     "execution_count": 51,
     "metadata": {},
     "output_type": "execute_result"
    }
   ],
   "source": [
    "testing"
   ]
  },
  {
   "cell_type": "code",
   "execution_count": null,
   "metadata": {},
   "outputs": [],
   "source": []
  }
 ],
 "metadata": {
  "kernelspec": {
   "display_name": "Python 3",
   "language": "python",
   "name": "python3"
  },
  "language_info": {
   "codemirror_mode": {
    "name": "ipython",
    "version": 3
   },
   "file_extension": ".py",
   "mimetype": "text/x-python",
   "name": "python",
   "nbconvert_exporter": "python",
   "pygments_lexer": "ipython3",
   "version": "3.10.6"
  },
  "orig_nbformat": 4,
  "vscode": {
   "interpreter": {
    "hash": "1c0e932a2505918748ce05b6cba97ff389edb252790b6b254a4668965bf4c301"
   }
  }
 },
 "nbformat": 4,
 "nbformat_minor": 2
}
